G04 ================== begin FILE IDENTIFICATION RECORD ==================*
G04 Layout Name:  CC2650_SensorTag.brd*
G04 Film Name:    assembly_top_CC2650SensorTag*
G04 File Format:  Gerber RS274X*
G04 File Origin:  Cadence Allegro 16.6-S026*
G04 Origin Date:  Wed Apr 15 15:57:56 2015*
G04 *
G04 Layer:  REF DES/ASSEMBLY_TOP*
G04 Layer:  PACKAGE GEOMETRY/ASSEMBLY_TOP*
G04 Layer:  BOARD GEOMETRY/OUTLINE*
G04 *
G04 Offset:    (0.0000 0.0000)*
G04 Mirror:    No*
G04 Mode:      Positive*
G04 Rotation:  0*
G04 FullContactRelief:  No*
G04 UndefLineWidth:     0.1000*
G04 ================== end FILE IDENTIFICATION RECORD ====================*
%FSLAX25Y25*MOMM*%
%IR0*IPPOS*OFA0.00000B0.00000*MIA0B0*SFA1.00000B1.00000*%
%ADD10C,.1001*%
%ADD11C,.05*%
%ADD12C,.1*%
G75*
%LPD*%
G75*
G54D10*
G01X59170Y2070830D02*
Y2134330D01*
X84880D01*
G01X75410Y2103640D02*
X59170D01*
G01X119690Y2134330D02*
X135920D01*
G01X127800D02*
Y2070830D01*
G01X119690D02*
X135920D01*
G01X168700D02*
Y2134330D01*
X182230D01*
X187640Y2131150D01*
X191700Y2126920D01*
X195090Y2120570D01*
X197790Y2113160D01*
X198470Y2102580D01*
X197790Y2092000D01*
X195090Y2084590D01*
X191700Y2078240D01*
X187640Y2074000D01*
X182230Y2070830D01*
X168700D01*
G01X224480Y2134330D02*
Y2088820D01*
X227190Y2079290D01*
X232600Y2072950D01*
X239360Y2070830D01*
X246130Y2072950D01*
X251540Y2079290D01*
X254250Y2088820D01*
Y2134330D01*
G01X280260Y2083530D02*
X284320Y2076120D01*
X289730Y2071890D01*
X295820Y2070830D01*
X301230Y2071890D01*
X306650Y2077180D01*
X310030Y2083530D01*
X310700Y2089880D01*
X309350Y2097290D01*
X304620Y2102580D01*
X299880Y2104700D01*
X293790D01*
G01X299880D02*
X303940Y2107870D01*
X307320Y2113160D01*
X308680Y2119510D01*
X307320Y2125860D01*
X303940Y2131150D01*
X297850Y2134330D01*
X291760Y2133270D01*
X285670Y2129040D01*
G01X182590Y2472160D02*
X188000Y2466870D01*
X194090Y2463700D01*
X199500D01*
X204910Y2466870D01*
X208970Y2472160D01*
X211000Y2479580D01*
X209650Y2486980D01*
X206270Y2493330D01*
X200180Y2497570D01*
X192060Y2499680D01*
X187320Y2503920D01*
X185290Y2511320D01*
X186650Y2518730D01*
X190030Y2524020D01*
X194770Y2527200D01*
X199500D01*
X204240Y2525080D01*
X208300Y2519790D01*
G01X232280Y2527200D02*
X241750Y2463700D01*
X252570Y2527200D01*
X263400Y2463700D01*
X272870Y2527200D01*
G01X295500Y2516620D02*
X299560Y2522970D01*
X304300Y2526140D01*
X309710Y2527200D01*
X316470Y2525080D01*
X321210Y2519790D01*
X322560Y2513440D01*
X321890Y2507090D01*
X319180Y2501800D01*
X305650Y2491220D01*
X299560Y2483810D01*
X295500Y2473220D01*
X294150Y2463700D01*
X322560D01*
G01X860320Y277840D02*
Y341340D01*
X876560D01*
X881970Y338160D01*
X886030Y330760D01*
X887390Y322290D01*
X886030Y313820D01*
X882650Y307470D01*
X876560Y304300D01*
X860320D01*
G01X929630Y277840D02*
Y341340D01*
X921520Y328640D01*
G01Y277840D02*
X937750D01*
G01X722490Y1444540D02*
X725880Y1438190D01*
X729940Y1433960D01*
X734670Y1431840D01*
X740080Y1433960D01*
X744140Y1438190D01*
X748200Y1444540D01*
X749560Y1453010D01*
Y1495340D01*
G01X778950Y1484760D02*
X783010Y1491110D01*
X787750Y1494280D01*
X793160Y1495340D01*
X799920Y1493220D01*
X804660Y1487930D01*
X806010Y1481580D01*
X805340Y1475230D01*
X802630Y1469940D01*
X789100Y1459360D01*
X783010Y1451950D01*
X778950Y1441360D01*
X777600Y1431840D01*
X806010D01*
G01X1996440Y867710D02*
X1999140Y870880D01*
X2001170Y876170D01*
X2002530Y883580D01*
X2001170Y889930D01*
X1998470Y894160D01*
X1993730Y897340D01*
X1975470D01*
Y833840D01*
X1997790D01*
X2002530Y838070D01*
X2005230Y844420D01*
X2006580Y851830D01*
X2005230Y859240D01*
X2001170Y865590D01*
X1996440Y867710D01*
X1975470D01*
G01X2046800Y897340D02*
Y833840D01*
G01X2031250Y897340D02*
X2062360D01*
G01X2102580Y833840D02*
Y897340D01*
X2094470Y884640D01*
G01Y833840D02*
X2110700D01*
G01X1369760Y2341900D02*
Y2405400D01*
X1386680D01*
X1392090Y2402220D01*
X1395470Y2397990D01*
X1396830Y2389520D01*
X1395470Y2381060D01*
X1391410Y2375770D01*
X1386680Y2372590D01*
X1369760D01*
G01X1386680D02*
X1396830Y2341900D01*
G01X1439070D02*
X1443810Y2342960D01*
X1449220Y2346130D01*
X1452610Y2351420D01*
X1453960Y2358830D01*
X1452610Y2366240D01*
X1448550Y2372590D01*
X1442460Y2375770D01*
X1435690D01*
X1431630Y2377880D01*
X1428250Y2383170D01*
X1426900Y2390580D01*
X1428930Y2397990D01*
X1433660Y2403280D01*
X1439070Y2405400D01*
X1444490Y2403280D01*
X1449220Y2397990D01*
X1451250Y2390580D01*
X1449900Y2383170D01*
X1446520Y2377880D01*
X1442460Y2375770D01*
X1435690D01*
X1429600Y2372590D01*
X1425540Y2366240D01*
X1424190Y2358830D01*
X1425540Y2351420D01*
X1428930Y2346130D01*
X1434340Y2342960D01*
X1439070Y2341900D01*
G01X1301590Y2083200D02*
X1296180Y2084260D01*
X1291450Y2088490D01*
X1287390Y2094840D01*
X1284680Y2102250D01*
X1283330Y2110720D01*
Y2119180D01*
X1284680Y2127650D01*
X1287390Y2135060D01*
X1291450Y2141410D01*
X1296180Y2145640D01*
X1301590Y2146700D01*
X1307010Y2145640D01*
X1311740Y2141410D01*
X1315800Y2135060D01*
X1318510Y2127650D01*
X1319860Y2119180D01*
Y2110720D01*
X1318510Y2102250D01*
X1315800Y2094840D01*
X1311740Y2088490D01*
X1307010Y2084260D01*
X1301590Y2083200D01*
G01X1307010Y2100130D02*
X1315130Y2083200D01*
G01X1357370D02*
Y2146700D01*
X1349260Y2134000D01*
G01Y2083200D02*
X1365490D01*
G01X764440Y2156710D02*
X767140Y2159880D01*
X769170Y2165170D01*
X770530Y2172580D01*
X769170Y2178930D01*
X766470Y2183160D01*
X761730Y2186340D01*
X743470D01*
Y2122840D01*
X765790D01*
X770530Y2127070D01*
X773230Y2133420D01*
X774580Y2140830D01*
X773230Y2148240D01*
X769170Y2154590D01*
X764440Y2156710D01*
X743470D01*
G01X801950Y2186340D02*
X827660D01*
X801950Y2122840D01*
X827660D01*
G01X870580D02*
Y2186340D01*
X862470Y2173640D01*
G01Y2122840D02*
X878700D01*
G01X1112800Y1853440D02*
X1176300D01*
Y1836520D01*
X1173120Y1831110D01*
X1168890Y1827730D01*
X1160420Y1826370D01*
X1151960Y1827730D01*
X1146670Y1831790D01*
X1143490Y1836520D01*
Y1853440D01*
G01Y1836520D02*
X1112800Y1826370D01*
G01Y1785480D02*
X1126560Y1784130D01*
X1138200Y1782100D01*
X1148780Y1779390D01*
X1160420Y1776010D01*
X1176300Y1770590D01*
Y1797660D01*
G01X3365880Y583910D02*
X3361820Y587080D01*
X3357080Y589200D01*
X3351670D01*
X3345580Y586020D01*
X3340850Y580730D01*
X3337460Y574380D01*
X3334760Y563800D01*
X3334080Y554270D01*
X3335440Y544750D01*
X3337460Y538400D01*
X3341520Y532050D01*
X3346260Y527820D01*
X3350990Y525700D01*
X3355730D01*
X3360470Y527820D01*
X3364530Y530990D01*
X3367910Y535220D01*
G01X3393920Y578620D02*
X3397980Y584970D01*
X3402720Y588140D01*
X3408130Y589200D01*
X3414890Y587080D01*
X3419630Y581790D01*
X3420980Y575440D01*
X3420310Y569090D01*
X3417600Y563800D01*
X3404070Y553220D01*
X3397980Y545810D01*
X3393920Y535220D01*
X3392570Y525700D01*
X3420980D01*
G01X3449700Y578620D02*
X3453760Y584970D01*
X3458500Y588140D01*
X3463910Y589200D01*
X3470670Y587080D01*
X3475410Y581790D01*
X3476760Y575440D01*
X3476090Y569090D01*
X3473380Y563800D01*
X3459850Y553220D01*
X3453760Y545810D01*
X3449700Y535220D01*
X3448350Y525700D01*
X3476760D01*
G01X3626860Y25200D02*
Y88700D01*
X3643780D01*
X3649190Y85520D01*
X3652570Y81290D01*
X3653930Y72820D01*
X3652570Y64360D01*
X3648510Y59070D01*
X3643780Y55890D01*
X3626860D01*
G01X3643780D02*
X3653930Y25200D01*
G01X3683320Y78120D02*
X3687380Y84470D01*
X3692120Y87640D01*
X3697530Y88700D01*
X3704290Y86580D01*
X3709030Y81290D01*
X3710380Y74940D01*
X3709710Y68590D01*
X3707000Y63300D01*
X3693470Y52720D01*
X3687380Y45310D01*
X3683320Y34720D01*
X3681970Y25200D01*
X3710380D01*
G01X3739100Y51660D02*
X3743840Y59070D01*
X3747900Y63300D01*
X3753310Y65420D01*
X3758040Y63300D01*
X3761430Y59070D01*
X3764130Y52720D01*
X3764810Y45310D01*
X3764130Y38960D01*
X3761430Y32610D01*
X3757370Y27320D01*
X3752630Y25200D01*
X3747220Y27320D01*
X3742480Y33660D01*
X3739780Y43190D01*
X3739100Y53770D01*
X3740450Y67530D01*
X3742480Y74940D01*
X3745870Y82350D01*
X3750600Y87640D01*
X3755340Y88700D01*
X3760070Y86580D01*
X3763460Y81290D01*
G01X2949440Y306710D02*
X2952140Y309880D01*
X2954170Y315170D01*
X2955530Y322580D01*
X2954170Y328930D01*
X2951470Y333160D01*
X2946730Y336340D01*
X2928470D01*
Y272840D01*
X2950790D01*
X2955530Y277070D01*
X2958230Y283420D01*
X2959580Y290830D01*
X2958230Y298240D01*
X2954170Y304590D01*
X2949440Y306710D01*
X2928470D01*
G01X2982890Y272840D02*
X2999800Y336340D01*
X3016720Y272840D01*
G01X3010630Y295060D02*
X2988980D01*
G01X3055580Y336340D02*
Y272840D01*
G01X3040030Y336340D02*
X3071140D01*
G01X3102570Y294010D02*
X3120160D01*
G01X3638950Y1096640D02*
Y1051130D01*
X3641660Y1041600D01*
X3647070Y1035260D01*
X3653830Y1033140D01*
X3660600Y1035260D01*
X3666010Y1041600D01*
X3668720Y1051130D01*
Y1096640D01*
G01X3696760Y1059600D02*
X3701500Y1067010D01*
X3705560Y1071240D01*
X3710970Y1073360D01*
X3715700Y1071240D01*
X3719090Y1067010D01*
X3721790Y1060660D01*
X3722470Y1053250D01*
X3721790Y1046900D01*
X3719090Y1040550D01*
X3715030Y1035260D01*
X3710290Y1033140D01*
X3704880Y1035260D01*
X3700140Y1041600D01*
X3697440Y1051130D01*
X3696760Y1061710D01*
X3698110Y1075470D01*
X3700140Y1082880D01*
X3703530Y1090290D01*
X3708260Y1095580D01*
X3713000Y1096640D01*
X3717730Y1094520D01*
X3721120Y1089230D01*
G01X3672280Y897110D02*
X3668220Y900280D01*
X3663480Y902400D01*
X3658070D01*
X3651980Y899220D01*
X3647250Y893930D01*
X3643860Y887580D01*
X3641160Y877000D01*
X3640480Y867470D01*
X3641840Y857950D01*
X3643860Y851600D01*
X3647920Y845250D01*
X3652660Y841020D01*
X3657390Y838900D01*
X3662130D01*
X3666870Y841020D01*
X3670930Y844190D01*
X3674310Y848420D01*
G01X3700320Y891820D02*
X3704380Y898170D01*
X3709120Y901340D01*
X3714530Y902400D01*
X3721290Y900280D01*
X3726030Y894990D01*
X3727380Y888640D01*
X3726710Y882290D01*
X3724000Y877000D01*
X3710470Y866420D01*
X3704380Y859010D01*
X3700320Y848420D01*
X3698970Y838900D01*
X3727380D01*
G01X3754070Y851600D02*
X3758130Y844190D01*
X3763540Y839960D01*
X3769630Y838900D01*
X3775040Y839960D01*
X3780460Y845250D01*
X3783840Y851600D01*
X3784510Y857950D01*
X3783160Y865360D01*
X3778430Y870650D01*
X3773690Y872770D01*
X3767600D01*
G01X3773690D02*
X3777750Y875940D01*
X3781130Y881230D01*
X3782490Y887580D01*
X3781130Y893930D01*
X3777750Y899220D01*
X3771660Y902400D01*
X3765570Y901340D01*
X3759480Y897110D01*
G01X2640780Y1957510D02*
X2636720Y1960680D01*
X2631980Y1962800D01*
X2626570D01*
X2620480Y1959620D01*
X2615750Y1954330D01*
X2612360Y1947980D01*
X2609660Y1937400D01*
X2608980Y1927870D01*
X2610340Y1918350D01*
X2612360Y1912000D01*
X2616420Y1905650D01*
X2621160Y1901420D01*
X2625890Y1899300D01*
X2630630D01*
X2635370Y1901420D01*
X2639430Y1904590D01*
X2642810Y1908820D01*
G01X2668820Y1952220D02*
X2672880Y1958570D01*
X2677620Y1961740D01*
X2683030Y1962800D01*
X2689790Y1960680D01*
X2694530Y1955390D01*
X2695880Y1949040D01*
X2695210Y1942690D01*
X2692500Y1937400D01*
X2678970Y1926820D01*
X2672880Y1919410D01*
X2668820Y1908820D01*
X2667470Y1899300D01*
X2695880D01*
G01X2737450D02*
X2742190Y1900360D01*
X2747600Y1903530D01*
X2750990Y1908820D01*
X2752340Y1916230D01*
X2750990Y1923640D01*
X2746930Y1929990D01*
X2740840Y1933170D01*
X2734070D01*
X2730010Y1935280D01*
X2726630Y1940570D01*
X2725280Y1947980D01*
X2727310Y1955390D01*
X2732040Y1960680D01*
X2737450Y1962800D01*
X2742870Y1960680D01*
X2747600Y1955390D01*
X2749630Y1947980D01*
X2748280Y1940570D01*
X2744900Y1935280D01*
X2740840Y1933170D01*
X2734070D01*
X2727980Y1929990D01*
X2723920Y1923640D01*
X2722570Y1916230D01*
X2723920Y1908820D01*
X2727310Y1903530D01*
X2732720Y1900360D01*
X2737450Y1899300D01*
G01X2836960Y1875500D02*
Y1939000D01*
X2853880D01*
X2859290Y1935820D01*
X2862670Y1931590D01*
X2864030Y1923120D01*
X2862670Y1914660D01*
X2858610Y1909370D01*
X2853880Y1906190D01*
X2836960D01*
G01X2853880D02*
X2864030Y1875500D01*
G01X2906270D02*
Y1939000D01*
X2898160Y1926300D01*
G01Y1875500D02*
X2914390D01*
G01X2949200Y1901960D02*
X2953940Y1909370D01*
X2958000Y1913600D01*
X2963410Y1915720D01*
X2968140Y1913600D01*
X2971530Y1909370D01*
X2974230Y1903020D01*
X2974910Y1895610D01*
X2974230Y1889260D01*
X2971530Y1882910D01*
X2967470Y1877620D01*
X2962730Y1875500D01*
X2957320Y1877620D01*
X2952580Y1883960D01*
X2949880Y1893490D01*
X2949200Y1904070D01*
X2950550Y1917830D01*
X2952580Y1925240D01*
X2955970Y1932650D01*
X2960700Y1937940D01*
X2965440Y1939000D01*
X2970170Y1936880D01*
X2973560Y1931590D01*
G01X2576600Y2273840D02*
X2640100D01*
Y2256920D01*
X2636920Y2251510D01*
X2632690Y2248130D01*
X2624220Y2246770D01*
X2615760Y2248130D01*
X2610470Y2252190D01*
X2607290Y2256920D01*
Y2273840D01*
G01Y2256920D02*
X2576600Y2246770D01*
G01Y2204530D02*
X2640100D01*
X2627400Y2212640D01*
G01X2576600D02*
Y2196410D01*
G01Y2150100D02*
X2590360Y2148750D01*
X2602000Y2146720D01*
X2612580Y2144010D01*
X2624220Y2140630D01*
X2640100Y2135210D01*
Y2162280D01*
G01X2991900Y2336840D02*
X3055400D01*
Y2319920D01*
X3052220Y2314510D01*
X3047990Y2311130D01*
X3039520Y2309770D01*
X3031060Y2311130D01*
X3025770Y2315190D01*
X3022590Y2319920D01*
Y2336840D01*
G01Y2319920D02*
X2991900Y2309770D01*
G01Y2267530D02*
X3055400D01*
X3042700Y2275640D01*
G01X2991900D02*
Y2259410D01*
G01Y2211750D02*
X2992960Y2207010D01*
X2996130Y2201600D01*
X3001420Y2198210D01*
X3008830Y2196860D01*
X3016240Y2198210D01*
X3022590Y2202270D01*
X3025770Y2208360D01*
Y2215130D01*
X3027880Y2219190D01*
X3033170Y2222570D01*
X3040580Y2223920D01*
X3047990Y2221890D01*
X3053280Y2217160D01*
X3055400Y2211750D01*
X3053280Y2206330D01*
X3047990Y2201600D01*
X3040580Y2199570D01*
X3033170Y2200920D01*
X3027880Y2204300D01*
X3025770Y2208360D01*
Y2215130D01*
X3022590Y2221220D01*
X3016240Y2225280D01*
X3008830Y2226630D01*
X3001420Y2225280D01*
X2996130Y2221890D01*
X2992960Y2216480D01*
X2991900Y2211750D01*
G01X3903170Y570840D02*
Y634340D01*
X3928880D01*
G01X3919410Y603650D02*
X3903170D01*
G01X3963690Y634340D02*
X3979920D01*
G01X3971800D02*
Y570840D01*
G01X3963690D02*
X3979920D01*
G01X4012700D02*
Y634340D01*
X4026230D01*
X4031640Y631160D01*
X4035700Y626930D01*
X4039090Y620580D01*
X4041790Y613170D01*
X4042470Y602590D01*
X4041790Y592010D01*
X4039090Y584600D01*
X4035700Y578250D01*
X4031640Y574010D01*
X4026230Y570840D01*
X4012700D01*
G01X4068480Y634340D02*
Y588830D01*
X4071190Y579300D01*
X4076600Y572960D01*
X4083360Y570840D01*
X4090130Y572960D01*
X4095540Y579300D01*
X4098250Y588830D01*
Y634340D01*
G01X4126290Y623760D02*
X4130350Y630110D01*
X4135090Y633280D01*
X4140500Y634340D01*
X4147260Y632220D01*
X4152000Y626930D01*
X4153350Y620580D01*
X4152680Y614230D01*
X4149970Y608940D01*
X4136440Y598360D01*
X4130350Y590950D01*
X4126290Y580360D01*
X4124940Y570840D01*
X4153350D01*
G01X3929440Y168710D02*
X3932140Y171880D01*
X3934170Y177170D01*
X3935530Y184580D01*
X3934170Y190930D01*
X3931470Y195160D01*
X3926730Y198340D01*
X3908470D01*
Y134840D01*
X3930790D01*
X3935530Y139070D01*
X3938230Y145420D01*
X3939580Y152830D01*
X3938230Y160240D01*
X3934170Y166590D01*
X3929440Y168710D01*
X3908470D01*
G01X3962890Y134840D02*
X3979800Y198340D01*
X3996720Y134840D01*
G01X3990630Y157060D02*
X3968980D01*
G01X4035580Y198340D02*
Y134840D01*
G01X4020030Y198340D02*
X4051140D01*
G01X4083920Y156010D02*
X4100160D01*
G01X4091360Y169770D02*
Y142250D01*
G01X4027820Y1372300D02*
X4033230Y1367010D01*
X4039320Y1363840D01*
X4044730D01*
X4050140Y1367010D01*
X4054200Y1372300D01*
X4056230Y1379720D01*
X4054880Y1387120D01*
X4051500Y1393470D01*
X4045410Y1397710D01*
X4037290Y1399820D01*
X4032550Y1404060D01*
X4030520Y1411460D01*
X4031880Y1418870D01*
X4035260Y1424160D01*
X4040000Y1427340D01*
X4044730D01*
X4049470Y1425220D01*
X4053530Y1419930D01*
G01X4077510Y1427340D02*
X4086980Y1363840D01*
X4097800Y1427340D01*
X4108630Y1363840D01*
X4118100Y1427340D01*
G01X4138700Y1376540D02*
X4142760Y1369130D01*
X4148170Y1364900D01*
X4154260Y1363840D01*
X4159670Y1364900D01*
X4165090Y1370190D01*
X4168470Y1376540D01*
X4169140Y1382890D01*
X4167790Y1390300D01*
X4163060Y1395590D01*
X4158320Y1397710D01*
X4152230D01*
G01X4158320D02*
X4162380Y1400880D01*
X4165760Y1406170D01*
X4167120Y1412520D01*
X4165760Y1418870D01*
X4162380Y1424160D01*
X4156290Y1427340D01*
X4150200Y1426280D01*
X4144110Y1422050D01*
G01X3829400Y1824440D02*
X3892900D01*
Y1807520D01*
X3889720Y1802110D01*
X3885490Y1798730D01*
X3877020Y1797370D01*
X3868560Y1798730D01*
X3863270Y1802790D01*
X3860090Y1807520D01*
Y1824440D01*
G01Y1807520D02*
X3829400Y1797370D01*
G01Y1755130D02*
X3892900D01*
X3880200Y1763240D01*
G01X3829400D02*
Y1747010D01*
G01Y1699350D02*
X3892900D01*
X3880200Y1707460D01*
G01X3829400D02*
Y1691230D01*
G01X3913170Y2049840D02*
Y2113340D01*
X3938880D01*
G01X3929410Y2082650D02*
X3913170D01*
G01X3973690Y2113340D02*
X3989920D01*
G01X3981800D02*
Y2049840D01*
G01X3973690D02*
X3989920D01*
G01X4022700D02*
Y2113340D01*
X4036230D01*
X4041640Y2110160D01*
X4045700Y2105930D01*
X4049090Y2099580D01*
X4051790Y2092170D01*
X4052470Y2081590D01*
X4051790Y2071010D01*
X4049090Y2063600D01*
X4045700Y2057250D01*
X4041640Y2053010D01*
X4036230Y2049840D01*
X4022700D01*
G01X4078480Y2113340D02*
Y2067830D01*
X4081190Y2058300D01*
X4086600Y2051960D01*
X4093360Y2049840D01*
X4100130Y2051960D01*
X4105540Y2058300D01*
X4108250Y2067830D01*
Y2113340D01*
G01X4149140Y2049840D02*
Y2113340D01*
X4141030Y2100640D01*
G01Y2049840D02*
X4157260D01*
G01X3991060Y1106100D02*
Y1169600D01*
X4007980D01*
X4013390Y1166420D01*
X4016770Y1162190D01*
X4018130Y1153720D01*
X4016770Y1145260D01*
X4012710Y1139970D01*
X4007980Y1136790D01*
X3991060D01*
G01X4007980D02*
X4018130Y1106100D01*
G01X4045490Y1118800D02*
X4049550Y1111390D01*
X4054960Y1107160D01*
X4061050Y1106100D01*
X4066460Y1107160D01*
X4071880Y1112450D01*
X4075260Y1118800D01*
X4075930Y1125150D01*
X4074580Y1132560D01*
X4069850Y1137850D01*
X4065110Y1139970D01*
X4059020D01*
G01X4065110D02*
X4069170Y1143140D01*
X4072550Y1148430D01*
X4073910Y1154780D01*
X4072550Y1161130D01*
X4069170Y1166420D01*
X4063080Y1169600D01*
X4056990Y1168540D01*
X4050900Y1164310D01*
G01X4116150Y1106100D02*
Y1169600D01*
X4108040Y1156900D01*
G01Y1106100D02*
X4124270D01*
G01X3889000Y1104440D02*
X3952500D01*
Y1087520D01*
X3949320Y1082110D01*
X3945090Y1078730D01*
X3936620Y1077370D01*
X3928160Y1078730D01*
X3922870Y1082790D01*
X3919690Y1087520D01*
Y1104440D01*
G01Y1087520D02*
X3889000Y1077370D01*
G01X3901700Y1050010D02*
X3894290Y1045950D01*
X3890060Y1040540D01*
X3889000Y1034450D01*
X3890060Y1029040D01*
X3895350Y1023620D01*
X3901700Y1020240D01*
X3908050Y1019570D01*
X3915460Y1020920D01*
X3920750Y1025650D01*
X3922870Y1030390D01*
Y1036480D01*
G01Y1030390D02*
X3926040Y1026330D01*
X3931330Y1022950D01*
X3937680Y1021590D01*
X3944030Y1022950D01*
X3949320Y1026330D01*
X3952500Y1032420D01*
X3951440Y1038510D01*
X3947210Y1044600D01*
G01X3941920Y992200D02*
X3948270Y988140D01*
X3951440Y983400D01*
X3952500Y977990D01*
X3950380Y971230D01*
X3945090Y966490D01*
X3938740Y965140D01*
X3932390Y965810D01*
X3927100Y968520D01*
X3916520Y982050D01*
X3909110Y988140D01*
X3898520Y992200D01*
X3889000Y993550D01*
Y965140D01*
G01X3903290Y2467760D02*
X3908700Y2462470D01*
X3914790Y2459300D01*
X3920200D01*
X3925610Y2462470D01*
X3929670Y2467760D01*
X3931700Y2475180D01*
X3930350Y2482580D01*
X3926970Y2488930D01*
X3920880Y2493170D01*
X3912760Y2495280D01*
X3908020Y2499520D01*
X3905990Y2506920D01*
X3907350Y2514330D01*
X3910730Y2519620D01*
X3915470Y2522800D01*
X3920200D01*
X3924940Y2520680D01*
X3929000Y2515390D01*
G01X3952980Y2522800D02*
X3962450Y2459300D01*
X3973270Y2522800D01*
X3984100Y2459300D01*
X3993570Y2522800D01*
G01X4029050Y2459300D02*
Y2522800D01*
X4020940Y2510100D01*
G01Y2459300D02*
X4037170D01*
G54D11*
G01X2787200Y2027030D02*
X2814430D01*
X2820130Y2028700D01*
X2823930Y2032030D01*
X2825200Y2036200D01*
X2823930Y2040370D01*
X2820130Y2043700D01*
X2814430Y2045370D01*
X2787200D01*
G01X2825200Y2066200D02*
X2787200D01*
X2794800Y2061200D01*
G01X2825200D02*
Y2071200D01*
G01X2787200Y2096200D02*
X2788470Y2092870D01*
X2791630Y2090370D01*
X2795430Y2088700D01*
X2800500Y2087450D01*
X2806200Y2087030D01*
X2811900Y2087450D01*
X2816970Y2088700D01*
X2820770Y2090370D01*
X2823930Y2092870D01*
X2825200Y2096200D01*
X2823930Y2099530D01*
X2820770Y2102030D01*
X2816970Y2103700D01*
X2811900Y2104950D01*
X2806200Y2105370D01*
X2800500Y2104950D01*
X2795430Y2103700D01*
X2791630Y2102030D01*
X2788470Y2099530D01*
X2787200Y2096200D01*
G54D12*
G01X0Y0D02*
X1100000D01*
G02X3100000I1000000J-1542012D01*
G01X4200000D01*
Y3200000D01*
X3935000D01*
Y3100000D01*
X3825000D01*
Y3200000D01*
X375000D01*
Y3100000D01*
X265000D01*
X264990Y3200000D01*
X0D01*
Y0D01*
G01X187730Y170840D02*
Y250840D01*
X227730D01*
Y170840D01*
X221030Y145840D01*
X194430D01*
X187730Y170840D01*
G01Y590840D02*
Y670840D01*
X194430Y695840D01*
X221030D01*
X227730Y670840D01*
Y590840D01*
X187730D01*
G01X779230D02*
X144230D01*
G01D02*
Y250840D01*
G01D02*
X779230D01*
G01X227730Y170840D02*
X187730D01*
G01Y337340D02*
X227730D01*
G01D02*
Y377340D01*
G01X219690Y345380D02*
X227730Y337340D01*
G01X219690Y369300D02*
Y345380D01*
G01D02*
X195770D01*
G01X227730Y377340D02*
X187730D01*
G01X219690Y369300D02*
X227730Y377340D01*
G01X195770Y369300D02*
X219690D01*
G01X195770Y345380D02*
Y369300D01*
G01X187730Y337340D02*
X195770Y345380D01*
G01X187730Y377340D02*
Y337340D01*
G01X195770Y369300D02*
X187730Y377340D01*
G01X227730Y670840D02*
X187730D01*
G01Y504340D02*
X227730D01*
G01X219690Y496300D02*
X227730Y504340D01*
G01D02*
Y464340D01*
G01X219690Y496300D02*
X195770D01*
G01X219690Y472380D02*
Y496300D01*
G01X195770Y472380D02*
X219690D01*
G01D02*
X227730Y464340D01*
G01D02*
X187730D01*
G01D02*
Y504340D01*
G01D02*
X195770Y496300D01*
G01D02*
Y472380D01*
G01D02*
X187730Y464340D01*
G01X399990Y1955090D02*
X212760D01*
Y1647840D01*
Y1469840D01*
Y1330340D01*
Y1152340D01*
Y845090D01*
X399990D01*
X411730D01*
X506730D01*
X626730Y965090D01*
Y1152340D01*
Y1330340D01*
Y1469840D01*
Y1647840D01*
Y1835090D01*
X506730Y1955090D01*
X411730D01*
X399990D01*
G01X212760Y1695990D02*
X206730D01*
X196730D01*
Y1675690D01*
X206730D01*
X212760D01*
Y1695990D01*
G01X196730Y1358190D02*
Y1378490D01*
G01X212760D02*
X206730D01*
G01D02*
X196730D01*
G01Y1358190D02*
X206730D01*
G01X212760D02*
X206730D01*
G01X196730Y1104190D02*
Y1124490D01*
G01X212760D02*
X206730D01*
G01D02*
X196730D01*
G01Y1104190D02*
X206730D01*
G01X212760D02*
X206730D01*
G01X196730Y1612190D02*
Y1632490D01*
G01X212760D02*
X206730D01*
G01D02*
X196730D01*
G01Y1612190D02*
X206730D01*
G01X212760D02*
X206730D01*
G01X196730Y1485190D02*
Y1505490D01*
G01X212760D02*
X206730D01*
G01D02*
X196730D01*
G01Y1485190D02*
X206730D01*
G01X212760D02*
X206730D01*
G01X196730Y1421690D02*
Y1441990D01*
G01X212760D02*
X206730D01*
G01D02*
X196730D01*
G01Y1421690D02*
X206730D01*
G01X212760D02*
X206730D01*
G01X196730Y1231190D02*
Y1251490D01*
G01X212760D02*
X206730D01*
G01D02*
X196730D01*
G01Y1231190D02*
X206730D01*
G01X212760D02*
X206730D01*
G01X196730Y1548690D02*
Y1568990D01*
G01X212760D02*
X206730D01*
G01D02*
X196730D01*
G01Y1548690D02*
X206730D01*
G01X212760D02*
X206730D01*
G01X196730Y1167690D02*
Y1187990D01*
G01X212760D02*
X206730D01*
G01D02*
X196730D01*
G01Y1167690D02*
X206730D01*
G01X212760D02*
X206730D01*
G01X196730Y1294690D02*
Y1314990D01*
G01X212760D02*
X206730D01*
G01D02*
X196730D01*
G01Y1294690D02*
X206730D01*
G01X212760D02*
X206730D01*
G01X212630Y1806670D02*
X212760D01*
G01X212630Y1905090D02*
X212760D01*
G01X212630Y903600D02*
X212760D01*
G01X212630Y868400D02*
X212760D01*
G01X212630Y937710D02*
X212760D01*
G01X240760Y1469840D02*
Y1647840D01*
G01D02*
X212760D01*
G01Y1152340D02*
X240760D01*
G01D02*
Y1330340D01*
G01D02*
X212760D01*
G01Y1469840D02*
X240760D01*
G01X326730Y2085840D02*
G03I-140000J0D01*
G01X121730Y2440840D02*
X116730D01*
G02X96730Y2460840I0J20000D01*
G01Y2485840D01*
G02X116730Y2505840I20000J0D01*
G01X121730D01*
Y2550840D01*
X21730D01*
G02X1730Y2570840I0J20000D01*
G01Y2730840D01*
G02X21730Y2750840I20000J0D01*
G01X121730D01*
Y2795840D01*
X116730D01*
G02X96730Y2815840I0J20000D01*
G01Y2840840D01*
G02X116730Y2860840I20000J0D01*
G01X121730D01*
G02X136730Y2875840I15000J0D01*
G01X336730D01*
G02X351730Y2860840I0J-15000D01*
G01Y2658340D01*
X336730D01*
Y2725840D01*
X321730D01*
X306730Y2710840D01*
Y2590840D01*
X321730Y2575840D01*
X336730D01*
Y2643340D01*
X351730D01*
Y2440840D01*
G02X336730Y2425840I-15000J0D01*
G01X136730D01*
G02X121730Y2440840I0J15000D01*
G01D02*
Y2860840D01*
G01X1285010Y1750840D02*
X2838450D01*
X2866730D01*
X3116730Y1500840D01*
Y485110D01*
X3096730Y465110D01*
X2878840Y247210D01*
G02X2690130Y220690I-111953J111961D01*
G03X1433330I-628400J-1133779D01*
G02X1244620Y247210I-76757J138481D01*
G01X1026730Y465110D01*
X1006730Y485110D01*
Y1500840D01*
X1256730Y1750840D01*
X1285010D01*
G01X1380550Y465110D02*
Y1016630D01*
G01X1680550D02*
Y465110D01*
G01D02*
X1380550D01*
G01X779230Y250840D02*
Y590840D01*
G01X481730Y337340D02*
Y377340D01*
G01X473690Y345380D02*
X481730Y337340D01*
G01X473690Y369300D02*
Y345380D01*
G01X441730Y337340D02*
X481730D01*
G01X473690Y345380D02*
X449770D01*
G01X481730Y377340D02*
X441730D01*
G01X473690Y369300D02*
X481730Y377340D01*
G01X449770Y369300D02*
X473690D01*
G01X449770Y345380D02*
Y369300D01*
G01X441730Y337340D02*
X449770Y345380D01*
G01X441730Y377340D02*
Y337340D01*
G01X449770Y369300D02*
X441730Y377340D01*
G01Y170840D02*
Y250840D01*
G01X481730D02*
Y170840D01*
G01D02*
X441730D01*
G01X475030Y145840D02*
X481730Y170840D01*
G01X448430Y145840D02*
X475030D01*
G01X448430D02*
X441730Y170840D01*
G01X695730D02*
Y250840D01*
G01X735730D02*
Y170840D01*
G01D02*
X695730D01*
G01X729030Y145840D02*
X735730Y170840D01*
G01X702430Y145840D02*
X729030D01*
G01X702430D02*
X695730Y170840D01*
G01Y337340D02*
X735730D01*
G01D02*
Y377340D01*
G01X727690Y345380D02*
X735730Y337340D01*
G01X727690Y369300D02*
Y345380D01*
G01D02*
X703770D01*
G01X735730Y377340D02*
X695730D01*
G01X727690Y369300D02*
X735730Y377340D01*
G01X703770Y369300D02*
X727690D01*
G01X703770Y345380D02*
Y369300D01*
G01X695730Y337340D02*
X703770Y345380D01*
G01X695730Y377340D02*
Y337340D01*
G01X703770Y369300D02*
X695730Y377340D01*
G01X568730Y170840D02*
Y250840D01*
G01X608730D02*
Y170840D01*
G01D02*
X568730D01*
G01X602030Y145840D02*
X608730Y170840D01*
G01X575430Y145840D02*
X602030D01*
G01X575430D02*
X568730Y170840D01*
G01Y337340D02*
X608730D01*
G01D02*
Y377340D01*
G01X600690Y345380D02*
X608730Y337340D01*
G01X600690Y369300D02*
Y345380D01*
G01D02*
X576770D01*
G01X608730Y377340D02*
X568730D01*
G01X600690Y369300D02*
X608730Y377340D01*
G01X576770Y369300D02*
X600690D01*
G01X576770Y345380D02*
Y369300D01*
G01X568730Y337340D02*
X576770Y345380D01*
G01X568730Y377340D02*
Y337340D01*
G01X576770Y369300D02*
X568730Y377340D01*
G01X314730Y170840D02*
Y250840D01*
G01X354730D02*
Y170840D01*
G01D02*
X314730D01*
G01X348030Y145840D02*
X354730Y170840D01*
G01X321430Y145840D02*
X348030D01*
G01X321430D02*
X314730Y170840D01*
G01Y337340D02*
X354730D01*
G01D02*
Y377340D01*
G01X346690Y345380D02*
X354730Y337340D01*
G01X346690Y369300D02*
Y345380D01*
G01D02*
X322770D01*
G01X354730Y377340D02*
X314730D01*
G01X346690Y369300D02*
X354730Y377340D01*
G01X322770Y369300D02*
X346690D01*
G01X322770Y345380D02*
Y369300D01*
G01X314730Y337340D02*
X322770Y345380D01*
G01X314730Y377340D02*
Y337340D01*
G01X322770Y369300D02*
X314730Y377340D01*
G01X481730Y590840D02*
Y670840D01*
G01X441730D02*
Y590840D01*
G01X475030Y695840D02*
X481730Y670840D01*
G01D02*
X441730D01*
G01X448430Y695840D02*
X441730Y670840D01*
G01Y504340D02*
X481730D01*
G01X473690Y496300D02*
X481730Y504340D01*
G01D02*
Y464340D01*
G01X473690Y496300D02*
X449770D01*
G01X473690Y472380D02*
Y496300D01*
G01X449770Y472380D02*
X473690D01*
G01D02*
X481730Y464340D01*
G01D02*
X441730D01*
G01D02*
Y504340D01*
G01D02*
X449770Y496300D01*
G01D02*
Y472380D01*
G01D02*
X441730Y464340D01*
G01X735730Y590840D02*
Y670840D01*
G01X695730D02*
Y590840D01*
G01X729030Y695840D02*
X735730Y670840D01*
G01D02*
X695730D01*
G01X702430Y695840D02*
X695730Y670840D01*
G01Y504340D02*
X735730D01*
G01X727690Y496300D02*
X735730Y504340D01*
G01D02*
Y464340D01*
G01X727690Y496300D02*
X703770D01*
G01X727690Y472380D02*
Y496300D01*
G01X703770Y472380D02*
X727690D01*
G01D02*
X735730Y464340D01*
G01D02*
X695730D01*
G01D02*
Y504340D01*
G01D02*
X703770Y496300D01*
G01D02*
Y472380D01*
G01D02*
X695730Y464340D01*
G01X608730Y590840D02*
Y670840D01*
G01X568730D02*
Y590840D01*
G01X602030Y695840D02*
X608730Y670840D01*
G01D02*
X568730D01*
G01X575430Y695840D02*
X568730Y670840D01*
G01Y504340D02*
X608730D01*
G01X600690Y496300D02*
X608730Y504340D01*
G01D02*
Y464340D01*
G01X600690Y496300D02*
X576770D01*
G01X600690Y472380D02*
Y496300D01*
G01X576770Y472380D02*
X600690D01*
G01D02*
X608730Y464340D01*
G01D02*
X568730D01*
G01D02*
Y504340D01*
G01D02*
X576770Y496300D01*
G01D02*
Y472380D01*
G01D02*
X568730Y464340D01*
G01X354730Y590840D02*
Y670840D01*
G01X314730D02*
Y590840D01*
G01X348030Y695840D02*
X354730Y670840D01*
G01D02*
X314730D01*
G01X321430Y695840D02*
X314730Y670840D01*
G01Y504340D02*
X354730D01*
G01X346690Y496300D02*
X354730Y504340D01*
G01D02*
Y464340D01*
G01X346690Y496300D02*
X322770D01*
G01X346690Y472380D02*
Y496300D01*
G01X322770Y472380D02*
X346690D01*
G01D02*
X354730Y464340D01*
G01D02*
X314730D01*
G01D02*
Y504340D01*
G01D02*
X322770Y496300D01*
G01D02*
Y472380D01*
G01D02*
X314730Y464340D01*
G01X626730Y1695990D02*
X646730D01*
X656730D01*
Y1675690D01*
X646730D01*
X626730D01*
Y1695990D01*
G01X323960Y1378490D02*
Y1358190D01*
G01X359730Y1378490D02*
Y1358190D01*
G01X345500Y1378490D02*
X342620Y1376990D01*
G01Y1359690D02*
X345500Y1358190D01*
G01X305730D02*
Y1378490D01*
G01X316450D02*
X322200D01*
G01X316450D02*
X305730D01*
G01D02*
X288070D01*
G01X283070D02*
X288070D01*
G01X283070D02*
X281730D01*
G01X371980D02*
X375730D01*
G01X371520D02*
X371980D01*
G01X359730D02*
X371520D01*
G01X345500D02*
X357050D01*
G01X345500D02*
X323960D01*
G01X345500Y1358190D02*
X357050D01*
G01X359730D02*
X371520D01*
G01X371980D02*
X371520D01*
G01X371980D02*
X375730D01*
G01X283070D02*
X281730D01*
G01X283070D02*
X288070D01*
G01X305730D02*
X288070D01*
G01X305730D02*
X316450D01*
G01D02*
X322200D01*
G01X345500D02*
X323960D01*
G01X322200D02*
X323960D01*
G01X322200Y1378490D02*
X323960D01*
G01X359730Y1358190D02*
X357050D01*
G01X359730Y1378490D02*
X357050D01*
G01X323960Y1124490D02*
Y1104190D01*
G01X359730Y1124490D02*
Y1104190D01*
G01X345500Y1124490D02*
X342620Y1122990D01*
G01Y1105690D02*
X345500Y1104190D01*
G01X305730D02*
Y1124490D01*
G01X316450D02*
X322200D01*
G01X316450D02*
X305730D01*
G01D02*
X288070D01*
G01X283070D02*
X288070D01*
G01X283070D02*
X281730D01*
G01X371980D02*
X375730D01*
G01X371520D02*
X371980D01*
G01X359730D02*
X371520D01*
G01X345500D02*
X357050D01*
G01X345500D02*
X323960D01*
G01X345500Y1104190D02*
X357050D01*
G01X359730D02*
X371520D01*
G01X371980D02*
X371520D01*
G01X371980D02*
X375730D01*
G01X283070D02*
X281730D01*
G01X283070D02*
X288070D01*
G01X305730D02*
X288070D01*
G01X305730D02*
X316450D01*
G01D02*
X322200D01*
G01X345500D02*
X323960D01*
G01X322200D02*
X323960D01*
G01X322200Y1124490D02*
X323960D01*
G01X359730Y1104190D02*
X357050D01*
G01X359730Y1124490D02*
X357050D01*
G01X323960Y1632490D02*
Y1612190D01*
G01X359730Y1632490D02*
Y1612190D01*
G01X345500Y1632490D02*
X342620Y1630990D01*
G01Y1613690D02*
X345500Y1612190D01*
G01X305730D02*
Y1632490D01*
G01X316450D02*
X322200D01*
G01X316450D02*
X305730D01*
G01D02*
X288070D01*
G01X283070D02*
X288070D01*
G01X283070D02*
X281730D01*
G01X371980D02*
X375730D01*
G01X371520D02*
X371980D01*
G01X359730D02*
X371520D01*
G01X345500D02*
X357050D01*
G01X345500D02*
X323960D01*
G01X345500Y1612190D02*
X357050D01*
G01X359730D02*
X371520D01*
G01X371980D02*
X371520D01*
G01X371980D02*
X375730D01*
G01X283070D02*
X281730D01*
G01X283070D02*
X288070D01*
G01X305730D02*
X288070D01*
G01X305730D02*
X316450D01*
G01D02*
X322200D01*
G01X345500D02*
X323960D01*
G01X322200D02*
X323960D01*
G01X322200Y1632490D02*
X323960D01*
G01X359730Y1612190D02*
X357050D01*
G01X359730Y1632490D02*
X357050D01*
G01X323960Y1505490D02*
Y1485190D01*
G01X359730Y1505490D02*
Y1485190D01*
G01X345500Y1505490D02*
X342620Y1503990D01*
G01Y1486690D02*
X345500Y1485190D01*
G01X305730D02*
Y1505490D01*
G01X316450D02*
X322200D01*
G01X316450D02*
X305730D01*
G01D02*
X288070D01*
G01X283070D02*
X288070D01*
G01X283070D02*
X281730D01*
G01X371980D02*
X375730D01*
G01X371520D02*
X371980D01*
G01X359730D02*
X371520D01*
G01X345500D02*
X357050D01*
G01X345500D02*
X323960D01*
G01X345500Y1485190D02*
X357050D01*
G01X359730D02*
X371520D01*
G01X371980D02*
X371520D01*
G01X371980D02*
X375730D01*
G01X283070D02*
X281730D01*
G01X283070D02*
X288070D01*
G01X305730D02*
X288070D01*
G01X305730D02*
X316450D01*
G01D02*
X322200D01*
G01X345500D02*
X323960D01*
G01X322200D02*
X323960D01*
G01X322200Y1505490D02*
X323960D01*
G01X359730Y1485190D02*
X357050D01*
G01X359730Y1505490D02*
X357050D01*
G01X323960Y1441990D02*
Y1421690D01*
G01X359730Y1441990D02*
Y1421690D01*
G01X345500Y1441990D02*
X342620Y1440490D01*
G01Y1423190D02*
X345500Y1421690D01*
G01X305730D02*
Y1441990D01*
G01X316450D02*
X322200D01*
G01X316450D02*
X305730D01*
G01D02*
X288070D01*
G01X283070D02*
X288070D01*
G01X283070D02*
X281730D01*
G01X371980D02*
X375730D01*
G01X371520D02*
X371980D01*
G01X359730D02*
X371520D01*
G01X345500D02*
X357050D01*
G01X345500D02*
X323960D01*
G01X345500Y1421690D02*
X357050D01*
G01X359730D02*
X371520D01*
G01X371980D02*
X371520D01*
G01X371980D02*
X375730D01*
G01X283070D02*
X281730D01*
G01X283070D02*
X288070D01*
G01X305730D02*
X288070D01*
G01X305730D02*
X316450D01*
G01D02*
X322200D01*
G01X345500D02*
X323960D01*
G01X322200D02*
X323960D01*
G01X322200Y1441990D02*
X323960D01*
G01X359730Y1421690D02*
X357050D01*
G01X359730Y1441990D02*
X357050D01*
G01X323960Y1251490D02*
Y1231190D01*
G01X359730Y1251490D02*
Y1231190D01*
G01X345500Y1251490D02*
X342620Y1249990D01*
G01Y1232690D02*
X345500Y1231190D01*
G01X305730D02*
Y1251490D01*
G01X316450D02*
X322200D01*
G01X316450D02*
X305730D01*
G01D02*
X288070D01*
G01X283070D02*
X288070D01*
G01X283070D02*
X281730D01*
G01X371980D02*
X375730D01*
G01X371520D02*
X371980D01*
G01X359730D02*
X371520D01*
G01X345500D02*
X357050D01*
G01X345500D02*
X323960D01*
G01X345500Y1231190D02*
X357050D01*
G01X359730D02*
X371520D01*
G01X371980D02*
X371520D01*
G01X371980D02*
X375730D01*
G01X283070D02*
X281730D01*
G01X283070D02*
X288070D01*
G01X305730D02*
X288070D01*
G01X305730D02*
X316450D01*
G01D02*
X322200D01*
G01X345500D02*
X323960D01*
G01X322200D02*
X323960D01*
G01X322200Y1251490D02*
X323960D01*
G01X359730Y1231190D02*
X357050D01*
G01X359730Y1251490D02*
X357050D01*
G01X323960Y1568990D02*
Y1548690D01*
G01X359730Y1568990D02*
Y1548690D01*
G01X345500Y1568990D02*
X342620Y1567490D01*
G01Y1550190D02*
X345500Y1548690D01*
G01X305730D02*
Y1568990D01*
G01X316450D02*
X322200D01*
G01X316450D02*
X305730D01*
G01D02*
X288070D01*
G01X283070D02*
X288070D01*
G01X283070D02*
X281730D01*
G01X371980D02*
X375730D01*
G01X371520D02*
X371980D01*
G01X359730D02*
X371520D01*
G01X345500D02*
X357050D01*
G01X345500D02*
X323960D01*
G01X345500Y1548690D02*
X357050D01*
G01X359730D02*
X371520D01*
G01X371980D02*
X371520D01*
G01X371980D02*
X375730D01*
G01X283070D02*
X281730D01*
G01X283070D02*
X288070D01*
G01X305730D02*
X288070D01*
G01X305730D02*
X316450D01*
G01D02*
X322200D01*
G01X345500D02*
X323960D01*
G01X322200D02*
X323960D01*
G01X322200Y1568990D02*
X323960D01*
G01X359730Y1548690D02*
X357050D01*
G01X359730Y1568990D02*
X357050D01*
G01X323960Y1187990D02*
Y1167690D01*
G01X359730Y1187990D02*
Y1167690D01*
G01X345500Y1187990D02*
X342620Y1186490D01*
G01Y1169190D02*
X345500Y1167690D01*
G01X305730D02*
Y1187990D01*
G01X316450D02*
X322200D01*
G01X316450D02*
X305730D01*
G01D02*
X288070D01*
G01X283070D02*
X288070D01*
G01X283070D02*
X281730D01*
G01X371980D02*
X375730D01*
G01X371520D02*
X371980D01*
G01X359730D02*
X371520D01*
G01X345500D02*
X357050D01*
G01X345500D02*
X323960D01*
G01X345500Y1167690D02*
X357050D01*
G01X359730D02*
X371520D01*
G01X371980D02*
X371520D01*
G01X371980D02*
X375730D01*
G01X283070D02*
X281730D01*
G01X283070D02*
X288070D01*
G01X305730D02*
X288070D01*
G01X305730D02*
X316450D01*
G01D02*
X322200D01*
G01X345500D02*
X323960D01*
G01X322200D02*
X323960D01*
G01X322200Y1187990D02*
X323960D01*
G01X359730Y1167690D02*
X357050D01*
G01X359730Y1187990D02*
X357050D01*
G01X323960Y1314990D02*
Y1294690D01*
G01X359730Y1314990D02*
Y1294690D01*
G01X345500Y1314990D02*
X342620Y1313490D01*
G01Y1296190D02*
X345500Y1294690D01*
G01X305730D02*
Y1314990D01*
G01X316450D02*
X322200D01*
G01X316450D02*
X305730D01*
G01D02*
X288070D01*
G01X283070D02*
X288070D01*
G01X283070D02*
X281730D01*
G01X371980D02*
X375730D01*
G01X371520D02*
X371980D01*
G01X359730D02*
X371520D01*
G01X345500D02*
X357050D01*
G01X345500D02*
X323960D01*
G01X345500Y1294690D02*
X357050D01*
G01X359730D02*
X371520D01*
G01X371980D02*
X371520D01*
G01X371980D02*
X375730D01*
G01X283070D02*
X281730D01*
G01X283070D02*
X288070D01*
G01X305730D02*
X288070D01*
G01X305730D02*
X316450D01*
G01D02*
X322200D01*
G01X345500D02*
X323960D01*
G01X322200D02*
X323960D01*
G01X322200Y1314990D02*
X323960D01*
G01X359730Y1294690D02*
X357050D01*
G01X359730Y1314990D02*
X357050D01*
G01X323960Y1695990D02*
Y1675690D01*
G01X359730Y1695990D02*
Y1675690D01*
G01X345500Y1695990D02*
X342620Y1694490D01*
G01Y1677190D02*
X345500Y1675690D01*
G01X305730D02*
Y1695990D01*
G01X316450D02*
X322200D01*
G01X316450D02*
X305730D01*
G01D02*
X288070D01*
G01X283070D02*
X288070D01*
G01X283070D02*
X281730D01*
G01X371980D02*
X375730D01*
G01X371520D02*
X371980D01*
G01X359730D02*
X371520D01*
G01X345500D02*
X357050D01*
G01X345500D02*
X323960D01*
G01X345500Y1675690D02*
X357050D01*
G01X359730D02*
X371520D01*
G01X371980D02*
X371520D01*
G01X371980D02*
X375730D01*
G01X283070D02*
X281730D01*
G01X283070D02*
X288070D01*
G01X305730D02*
X288070D01*
G01X305730D02*
X316450D01*
G01D02*
X322200D01*
G01X345500D02*
X323960D01*
G01X322200D02*
X323960D01*
G01X322200Y1695990D02*
X323960D01*
G01X359730Y1675690D02*
X357050D01*
G01X359730Y1695990D02*
X357050D01*
G01X513330Y1231190D02*
Y1251490D01*
G01X502700Y1250400D02*
X504400Y1251490D01*
G01Y1231190D02*
X502700Y1232280D01*
G01X656730Y1251490D02*
Y1231190D01*
G01Y1251490D02*
X646730D01*
G01X626730D02*
X646730D01*
G01X561730D02*
X561130D01*
G01X558670D02*
X561130D01*
G01X558670D02*
X549270D01*
G01X518730D02*
X549270D01*
G01X513330D02*
X518730D01*
G01X510530D02*
X513330D01*
G01X510530D02*
X509310D01*
G01X504400D02*
X509310D01*
G01X504400D02*
X481780D01*
G01D02*
X481730D01*
G01X509310Y1231190D02*
X504400D01*
G01X509310D02*
X510530D01*
G01D02*
X513330D01*
G01X518730D02*
X513330D01*
G01X518730D02*
X549270D01*
G01D02*
X558670D01*
G01X561130D02*
X558670D01*
G01X561130D02*
X561730D01*
G01X626730D02*
X646730D01*
G01D02*
X656730D01*
G01X481730D02*
X481780D01*
G01X504400D02*
X481780D01*
G01X513330Y1675690D02*
Y1695990D01*
G01X502700Y1694900D02*
X504400Y1695990D01*
G01Y1675690D02*
X502700Y1676780D01*
G01X561730Y1695990D02*
X561130D01*
G01X558670D02*
X561130D01*
G01X558670D02*
X549270D01*
G01X518730D02*
X549270D01*
G01X513330D02*
X518730D01*
G01X510530D02*
X513330D01*
G01X510530D02*
X509310D01*
G01X504400D02*
X509310D01*
G01X504400D02*
X481780D01*
G01D02*
X481730D01*
G01X509310Y1675690D02*
X504400D01*
G01X509310D02*
X510530D01*
G01D02*
X513330D01*
G01X518730D02*
X513330D01*
G01X518730D02*
X549270D01*
G01D02*
X558670D01*
G01X561130D02*
X558670D01*
G01X561130D02*
X561730D01*
G01X481730D02*
X481780D01*
G01X504400D02*
X481780D01*
G01X513330Y1358190D02*
Y1378490D01*
G01X502700Y1377400D02*
X504400Y1378490D01*
G01Y1358190D02*
X502700Y1359280D01*
G01X656730Y1378490D02*
Y1358190D01*
G01Y1378490D02*
X646730D01*
G01X626730D02*
X646730D01*
G01X561730D02*
X561130D01*
G01X558670D02*
X561130D01*
G01X558670D02*
X549270D01*
G01X518730D02*
X549270D01*
G01X513330D02*
X518730D01*
G01X510530D02*
X513330D01*
G01X510530D02*
X509310D01*
G01X504400D02*
X509310D01*
G01X504400D02*
X481780D01*
G01D02*
X481730D01*
G01X509310Y1358190D02*
X504400D01*
G01X509310D02*
X510530D01*
G01D02*
X513330D01*
G01X518730D02*
X513330D01*
G01X518730D02*
X549270D01*
G01D02*
X558670D01*
G01X561130D02*
X558670D01*
G01X561130D02*
X561730D01*
G01X626730D02*
X646730D01*
G01D02*
X656730D01*
G01X481730D02*
X481780D01*
G01X504400D02*
X481780D01*
G01X513330Y1548690D02*
Y1568990D01*
G01X502700Y1567900D02*
X504400Y1568990D01*
G01Y1548690D02*
X502700Y1549780D01*
G01X656730Y1568990D02*
Y1548690D01*
G01Y1568990D02*
X646730D01*
G01X626730D02*
X646730D01*
G01X561730D02*
X561130D01*
G01X558670D02*
X561130D01*
G01X558670D02*
X549270D01*
G01X518730D02*
X549270D01*
G01X513330D02*
X518730D01*
G01X510530D02*
X513330D01*
G01X510530D02*
X509310D01*
G01X504400D02*
X509310D01*
G01X504400D02*
X481780D01*
G01D02*
X481730D01*
G01X509310Y1548690D02*
X504400D01*
G01X509310D02*
X510530D01*
G01D02*
X513330D01*
G01X518730D02*
X513330D01*
G01X518730D02*
X549270D01*
G01D02*
X558670D01*
G01X561130D02*
X558670D01*
G01X561130D02*
X561730D01*
G01X626730D02*
X646730D01*
G01D02*
X656730D01*
G01X481730D02*
X481780D01*
G01X504400D02*
X481780D01*
G01X513330Y1167690D02*
Y1187990D01*
G01X502700Y1186900D02*
X504400Y1187990D01*
G01Y1167690D02*
X502700Y1168780D01*
G01X656730Y1187990D02*
Y1167690D01*
G01Y1187990D02*
X646730D01*
G01X626730D02*
X646730D01*
G01X561730D02*
X561130D01*
G01X558670D02*
X561130D01*
G01X558670D02*
X549270D01*
G01X518730D02*
X549270D01*
G01X513330D02*
X518730D01*
G01X510530D02*
X513330D01*
G01X510530D02*
X509310D01*
G01X504400D02*
X509310D01*
G01X504400D02*
X481780D01*
G01D02*
X481730D01*
G01X509310Y1167690D02*
X504400D01*
G01X509310D02*
X510530D01*
G01D02*
X513330D01*
G01X518730D02*
X513330D01*
G01X518730D02*
X549270D01*
G01D02*
X558670D01*
G01X561130D02*
X558670D01*
G01X561130D02*
X561730D01*
G01X626730D02*
X646730D01*
G01D02*
X656730D01*
G01X481730D02*
X481780D01*
G01X504400D02*
X481780D01*
G01X513330Y1612190D02*
Y1632490D01*
G01X502700Y1631400D02*
X504400Y1632490D01*
G01Y1612190D02*
X502700Y1613280D01*
G01X656730Y1632490D02*
Y1612190D01*
G01Y1632490D02*
X646730D01*
G01X626730D02*
X646730D01*
G01X561730D02*
X561130D01*
G01X558670D02*
X561130D01*
G01X558670D02*
X549270D01*
G01X518730D02*
X549270D01*
G01X513330D02*
X518730D01*
G01X510530D02*
X513330D01*
G01X510530D02*
X509310D01*
G01X504400D02*
X509310D01*
G01X504400D02*
X481780D01*
G01D02*
X481730D01*
G01X509310Y1612190D02*
X504400D01*
G01X509310D02*
X510530D01*
G01D02*
X513330D01*
G01X518730D02*
X513330D01*
G01X518730D02*
X549270D01*
G01D02*
X558670D01*
G01X561130D02*
X558670D01*
G01X561130D02*
X561730D01*
G01X626730D02*
X646730D01*
G01D02*
X656730D01*
G01X481730D02*
X481780D01*
G01X504400D02*
X481780D01*
G01X513330Y1294690D02*
Y1314990D01*
G01X502700Y1313900D02*
X504400Y1314990D01*
G01Y1294690D02*
X502700Y1295780D01*
G01X656730Y1314990D02*
Y1294690D01*
G01Y1314990D02*
X646730D01*
G01X626730D02*
X646730D01*
G01X561730D02*
X561130D01*
G01X558670D02*
X561130D01*
G01X558670D02*
X549270D01*
G01X518730D02*
X549270D01*
G01X513330D02*
X518730D01*
G01X510530D02*
X513330D01*
G01X510530D02*
X509310D01*
G01X504400D02*
X509310D01*
G01X504400D02*
X481780D01*
G01D02*
X481730D01*
G01X509310Y1294690D02*
X504400D01*
G01X509310D02*
X510530D01*
G01D02*
X513330D01*
G01X518730D02*
X513330D01*
G01X518730D02*
X549270D01*
G01D02*
X558670D01*
G01X561130D02*
X558670D01*
G01X561130D02*
X561730D01*
G01X626730D02*
X646730D01*
G01D02*
X656730D01*
G01X481730D02*
X481780D01*
G01X504400D02*
X481780D01*
G01X513330Y1104190D02*
Y1124490D01*
G01X502700Y1123400D02*
X504400Y1124490D01*
G01Y1104190D02*
X502700Y1105280D01*
G01X656730Y1124490D02*
Y1104190D01*
G01Y1124490D02*
X646730D01*
G01X626730D02*
X646730D01*
G01X561730D02*
X561130D01*
G01X558670D02*
X561130D01*
G01X558670D02*
X549270D01*
G01X518730D02*
X549270D01*
G01X513330D02*
X518730D01*
G01X510530D02*
X513330D01*
G01X510530D02*
X509310D01*
G01X504400D02*
X509310D01*
G01X504400D02*
X481780D01*
G01D02*
X481730D01*
G01X509310Y1104190D02*
X504400D01*
G01X509310D02*
X510530D01*
G01D02*
X513330D01*
G01X518730D02*
X513330D01*
G01X518730D02*
X549270D01*
G01D02*
X558670D01*
G01X561130D02*
X558670D01*
G01X561130D02*
X561730D01*
G01X626730D02*
X646730D01*
G01D02*
X656730D01*
G01X481730D02*
X481780D01*
G01X504400D02*
X481780D01*
G01X513330Y1421690D02*
Y1441990D01*
G01X502700Y1440900D02*
X504400Y1441990D01*
G01Y1421690D02*
X502700Y1422780D01*
G01X656730Y1441990D02*
Y1421690D01*
G01Y1441990D02*
X646730D01*
G01X626730D02*
X646730D01*
G01X561730D02*
X561130D01*
G01X558670D02*
X561130D01*
G01X558670D02*
X549270D01*
G01X518730D02*
X549270D01*
G01X513330D02*
X518730D01*
G01X510530D02*
X513330D01*
G01X510530D02*
X509310D01*
G01X504400D02*
X509310D01*
G01X504400D02*
X481780D01*
G01D02*
X481730D01*
G01X509310Y1421690D02*
X504400D01*
G01X509310D02*
X510530D01*
G01D02*
X513330D01*
G01X518730D02*
X513330D01*
G01X518730D02*
X549270D01*
G01D02*
X558670D01*
G01X561130D02*
X558670D01*
G01X561130D02*
X561730D01*
G01X626730D02*
X646730D01*
G01D02*
X656730D01*
G01X481730D02*
X481780D01*
G01X504400D02*
X481780D01*
G01X513330Y1485190D02*
Y1505490D01*
G01X502700Y1504400D02*
X504400Y1505490D01*
G01Y1485190D02*
X502700Y1486280D01*
G01X656730Y1505490D02*
Y1485190D01*
G01Y1505490D02*
X646730D01*
G01X626730D02*
X646730D01*
G01X561730D02*
X561130D01*
G01X558670D02*
X561130D01*
G01X558670D02*
X549270D01*
G01X518730D02*
X549270D01*
G01X513330D02*
X518730D01*
G01X510530D02*
X513330D01*
G01X510530D02*
X509310D01*
G01X504400D02*
X509310D01*
G01X504400D02*
X481780D01*
G01D02*
X481730D01*
G01X509310Y1485190D02*
X504400D01*
G01X509310D02*
X510530D01*
G01D02*
X513330D01*
G01X518730D02*
X513330D01*
G01X518730D02*
X549270D01*
G01D02*
X558670D01*
G01X561130D02*
X558670D01*
G01X561130D02*
X561730D01*
G01X626730D02*
X646730D01*
G01D02*
X656730D01*
G01X481730D02*
X481780D01*
G01X504400D02*
X481780D01*
G01X497730Y1699340D02*
X506730Y1702620D01*
G01Y1669060D02*
X497730Y1672340D01*
G01Y1635840D02*
X506730Y1639120D01*
G01Y1605560D02*
X497730Y1608840D01*
G01Y1572340D02*
X506730Y1575620D01*
G01Y1542060D02*
X497730Y1545340D01*
G01Y1508840D02*
X506730Y1512120D01*
G01Y1478560D02*
X497730Y1481840D01*
G01Y1445340D02*
X506730Y1448620D01*
G01Y1415060D02*
X497730Y1418340D01*
G01Y1381840D02*
X506730Y1385120D01*
G01Y1351560D02*
X497730Y1354840D01*
G01Y1318340D02*
X506730Y1321620D01*
G01Y1288060D02*
X497730Y1291340D01*
G01Y1254840D02*
X506730Y1258120D01*
G01Y1224560D02*
X497730Y1227840D01*
G01Y1191340D02*
X506730Y1194620D01*
G01Y1161060D02*
X497730Y1164340D01*
G01X483730Y1699340D02*
G03X481730Y1697340I0J-2000D01*
G01Y1674340D02*
G03X483730Y1672340I2000J0D01*
G01Y1635840D02*
G03X481730Y1633840I0J-2000D01*
G01Y1610840D02*
G03X483730Y1608840I2000J0D01*
G01Y1572340D02*
G03X481730Y1570340I0J-2000D01*
G01Y1547340D02*
G03X483730Y1545340I2000J0D01*
G01Y1508840D02*
G03X481730Y1506840I0J-2000D01*
G01Y1483840D02*
G03X483730Y1481840I2000J0D01*
G01Y1445340D02*
G03X481730Y1443340I0J-2000D01*
G01Y1420340D02*
G03X483730Y1418340I2000J0D01*
G01Y1381840D02*
G03X481730Y1379840I0J-2000D01*
G01Y1356840D02*
G03X483730Y1354840I2000J0D01*
G01Y1318340D02*
G03X481730Y1316340I0J-2000D01*
G01Y1293340D02*
G03X483730Y1291340I2000J0D01*
G01Y1254840D02*
G03X481730Y1252840I0J-2000D01*
G01Y1229840D02*
G03X483730Y1227840I2000J0D01*
G01Y1191340D02*
G03X481730Y1189340I0J-2000D01*
G01Y1166340D02*
G03X483730Y1164340I2000J0D01*
G01Y1699340D02*
X497730D01*
G01Y1672340D02*
X483730D01*
G01Y1635840D02*
X497730D01*
G01Y1608840D02*
X483730D01*
G01Y1572340D02*
X497730D01*
G01Y1545340D02*
X483730D01*
G01Y1508840D02*
X497730D01*
G01Y1481840D02*
X483730D01*
G01Y1445340D02*
X497730D01*
G01Y1418340D02*
X483730D01*
G01Y1381840D02*
X497730D01*
G01Y1354840D02*
X483730D01*
G01Y1318340D02*
X497730D01*
G01Y1291340D02*
X483730D01*
G01Y1254840D02*
X497730D01*
G01Y1227840D02*
X483730D01*
G01Y1191340D02*
X497730D01*
G01Y1164340D02*
X483730D01*
G01X497730Y1127840D02*
X506730Y1131120D01*
G01Y1097560D02*
X497730Y1100840D01*
G01X483730Y1127840D02*
G03X481730Y1125840I0J-2000D01*
G01Y1102840D02*
G03X483730Y1100840I2000J0D01*
G01Y1127840D02*
X497730D01*
G01Y1100840D02*
X483730D01*
G01X557730Y1846090D02*
X566730Y1855090D01*
G01X557730Y1789090D02*
X566730Y1780090D01*
G01Y945090D02*
X557730Y954090D01*
G01X566730Y1020090D02*
X557730Y1011090D01*
G01X497730Y1846090D02*
X506730Y1855090D01*
G01Y1895090D02*
X497730Y1886090D01*
G01X506730Y945090D02*
X497730Y954090D01*
G01Y914090D02*
X506730Y905090D01*
G01X336730Y942590D02*
X324990Y930850D01*
G01X274230Y942590D02*
X262490Y930850D01*
G01X274230Y1022590D02*
X262490Y1034330D01*
G01X274230Y1772590D02*
X262490Y1760850D01*
G01X274230Y1862590D02*
X262490Y1874330D01*
G01X336730Y1862590D02*
X324990Y1874330D01*
G01Y1916830D02*
X336730Y1905090D01*
G01X411730D02*
X399990Y1916830D01*
G01X336730Y895090D02*
X324990Y883350D01*
G01X399990D02*
X411730Y895090D01*
G01X274230Y1772590D02*
X336730D01*
G01X274230Y1862590D02*
Y1772590D01*
G01X336730Y1862590D02*
X274230D01*
G01Y1022590D02*
Y942590D01*
G01X336730Y1022590D02*
X274230D01*
G01Y942590D02*
X336730D01*
G01X506730Y1855090D02*
X566730D01*
G01D02*
Y1780090D01*
G01D02*
X506730D01*
G01Y1020090D02*
X566730D01*
G01D02*
Y945090D01*
G01D02*
X506730D01*
G01X411730Y895090D02*
Y845090D01*
G01X506730Y905090D02*
X426730D01*
G01Y1895090D02*
X506730D01*
G01X411730Y1955090D02*
Y1905090D01*
G01D02*
X336730D01*
G01X399990Y1955090D02*
X411730D01*
G01X336730Y895090D02*
X411730D01*
G01X506730Y945090D02*
Y905090D01*
G01X375730Y1126340D02*
Y1102340D01*
G01X561730Y1697840D02*
Y1673840D01*
G01Y1126340D02*
Y1102340D01*
G01Y1189840D02*
Y1165840D01*
G01Y1253340D02*
Y1229340D01*
G01Y1316840D02*
Y1292840D01*
G01Y1380340D02*
Y1356340D01*
G01Y1443840D02*
Y1419840D01*
G01Y1507340D02*
Y1483340D01*
G01Y1570840D02*
Y1546840D01*
G01Y1634340D02*
Y1610340D01*
G01X375730Y1189840D02*
Y1165840D01*
G01Y1253340D02*
Y1229340D01*
G01Y1316840D02*
Y1292840D01*
G01Y1380340D02*
Y1356340D01*
G01Y1443840D02*
Y1419840D01*
G01Y1507340D02*
Y1483340D01*
G01Y1570840D02*
Y1546840D01*
G01Y1634340D02*
Y1610340D01*
G01Y1697840D02*
Y1673840D01*
G01X626730Y1330340D02*
X598730D01*
G01D02*
Y1152340D01*
G01D02*
X626730D01*
G01Y1647840D02*
X598730D01*
G01D02*
Y1469840D01*
G01D02*
X626730D01*
G01X506730Y1895090D02*
Y1855090D01*
G01X336730Y942590D02*
Y895090D01*
G01Y1905090D02*
Y1862590D01*
G01X506730Y1097560D02*
Y1082590D01*
G01X561730Y1102340D02*
X481790D01*
G01Y1126340D02*
X561730D01*
G01X336730Y1022590D02*
X324990Y1034330D01*
G01Y1100840D02*
X327730D01*
G01X336730Y1097560D02*
X327730Y1100840D01*
G01X336730Y1097560D02*
Y1022590D01*
G01X281730Y1126340D02*
Y1102340D01*
G01D02*
X375730D01*
G01X506730Y1161060D02*
Y1131120D01*
G01Y1224560D02*
Y1194620D01*
G01Y1288060D02*
Y1258120D01*
G01Y1351560D02*
Y1321620D01*
G01Y1415060D02*
Y1385120D01*
G01Y1478560D02*
Y1448620D01*
G01Y1542060D02*
Y1512120D01*
G01Y1605560D02*
Y1575620D01*
G01Y1780090D02*
X497730Y1789090D01*
G01X506730Y1717590D02*
X497730D01*
G01X506730Y1780090D02*
Y1717590D01*
G01D02*
Y1702620D01*
G01Y1669060D02*
Y1639120D01*
G01X561730Y1165840D02*
X481790D01*
G01Y1189840D02*
X561730D01*
G01Y1229340D02*
X481790D01*
G01Y1253340D02*
X561730D01*
G01Y1292840D02*
X481790D01*
G01Y1316840D02*
X561730D01*
G01Y1356340D02*
X481790D01*
G01Y1380340D02*
X561730D01*
G01Y1419840D02*
X481790D01*
G01Y1443840D02*
X561730D01*
G01Y1483340D02*
X481790D01*
G01Y1507340D02*
X561730D01*
G01Y1546840D02*
X481790D01*
G01Y1570840D02*
X561730D01*
G01Y1610340D02*
X481790D01*
G01Y1634340D02*
X561730D01*
G01Y1673840D02*
X481790D01*
G01Y1697840D02*
X561730D01*
G01X327730Y1127840D02*
X336730Y1131120D01*
G01X324990Y1127840D02*
X327730D01*
G01X324990Y1164340D02*
X327730D01*
G01X336730Y1161060D02*
X327730Y1164340D01*
G01X336730Y1161060D02*
Y1131120D01*
G01X327730Y1191340D02*
X336730Y1194620D01*
G01X324990Y1191340D02*
X327730D01*
G01X324990Y1227840D02*
X327730D01*
G01X336730Y1224560D02*
X327730Y1227840D01*
G01X336730Y1224560D02*
Y1194620D01*
G01X327730Y1254840D02*
X336730Y1258120D01*
G01X324990Y1254840D02*
X327730D01*
G01X324990Y1291340D02*
X327730D01*
G01X336730Y1288060D02*
X327730Y1291340D01*
G01X336730Y1288060D02*
Y1258120D01*
G01X327730Y1318340D02*
X336730Y1321620D01*
G01X324990Y1318340D02*
X327730D01*
G01X324990Y1354840D02*
X327730D01*
G01X336730Y1351560D02*
X327730Y1354840D01*
G01X336730Y1351560D02*
Y1321620D01*
G01X327730Y1381840D02*
X336730Y1385120D01*
G01X324990Y1381840D02*
X327730D01*
G01X324990Y1418340D02*
X327730D01*
G01X336730Y1415060D02*
X327730Y1418340D01*
G01X336730Y1415060D02*
Y1385120D01*
G01X327730Y1445340D02*
X336730Y1448620D01*
G01X324990Y1445340D02*
X327730D01*
G01X324990Y1481840D02*
X327730D01*
G01X336730Y1478560D02*
X327730Y1481840D01*
G01X336730Y1478560D02*
Y1448620D01*
G01X327730Y1508840D02*
X336730Y1512120D01*
G01X324990Y1508840D02*
X327730D01*
G01X324990Y1545340D02*
X327730D01*
G01X336730Y1542060D02*
X327730Y1545340D01*
G01X336730Y1542060D02*
Y1512120D01*
G01X327730Y1572340D02*
X336730Y1575620D01*
G01X324990Y1572340D02*
X327730D01*
G01X324990Y1608840D02*
X327730D01*
G01X336730Y1605560D02*
X327730Y1608840D01*
G01X336730Y1605560D02*
Y1575620D01*
G01Y1772590D02*
X324990Y1760850D01*
G01X327730Y1699340D02*
X336730Y1702620D01*
G01X324990Y1699340D02*
X327730D01*
G01Y1635840D02*
X336730Y1639120D01*
G01X324990Y1635840D02*
X327730D01*
G01X324990Y1672340D02*
X327730D01*
G01X336730Y1669060D02*
X327730Y1672340D01*
G01X336730Y1772590D02*
Y1702620D01*
G01Y1669060D02*
Y1639120D01*
G01X281730Y1189840D02*
Y1165840D01*
G01Y1253340D02*
Y1229340D01*
G01Y1316840D02*
Y1292840D01*
G01Y1380340D02*
Y1356340D01*
G01X375730Y1380340D02*
X281730D01*
G01Y1443840D02*
Y1419840D01*
G01D02*
X375730D01*
G01X281730Y1507340D02*
Y1483340D01*
G01Y1570840D02*
Y1546840D01*
G01Y1634340D02*
Y1610340D01*
G01Y1697840D02*
Y1673840D01*
G01X375730Y1697840D02*
X281730D01*
G01X497730Y1011090D02*
X506730Y1020090D01*
G01Y1082590D02*
X497730D01*
G01X506730D02*
Y1020090D01*
G01X375730Y1126340D02*
X281730D01*
G01X375730Y1189840D02*
X281730D01*
G01Y1165840D02*
X375730D01*
G01Y1253340D02*
X281730D01*
G01Y1229340D02*
X375730D01*
G01Y1316840D02*
X281730D01*
G01Y1292840D02*
X375730D01*
G01X281730Y1356340D02*
X375730D01*
G01X426730Y905090D02*
X435730Y914090D01*
G01Y1166340D02*
X426730D01*
G01X375730Y1443840D02*
X281730D01*
G01X375730Y1507340D02*
X281730D01*
G01Y1483340D02*
X375730D01*
G01Y1570840D02*
X281730D01*
G01Y1546840D02*
X375730D01*
G01Y1634340D02*
X281730D01*
G01Y1610340D02*
X375730D01*
G01X281730Y1673840D02*
X375730D01*
G01X399990Y1916830D02*
Y1955090D01*
G01X324990Y1916830D02*
X399990D01*
G01X324990Y1874330D02*
Y1916830D01*
G01X262490Y1874330D02*
X324990D01*
G01X262490Y1760850D02*
Y1874330D01*
G01X324990Y1760850D02*
X262490D01*
G01X324990Y1699340D02*
Y1760850D01*
G01Y1699340D02*
X271760D01*
G01D02*
G03X269760Y1697340I0J-2000D01*
G01D02*
Y1674340D01*
G01D02*
G03X271760Y1672340I2000J0D01*
G01D02*
X324990D01*
G01Y1635840D02*
Y1672340D01*
G01Y1635840D02*
X271760D01*
G01D02*
G03X269760Y1633840I0J-2000D01*
G01D02*
Y1610840D01*
G01D02*
G03X271760Y1608840I2000J0D01*
G01D02*
X324990D01*
G01Y1572340D02*
Y1608840D01*
G01Y1572340D02*
X271760D01*
G01D02*
G03X269760Y1570340I0J-2000D01*
G01D02*
Y1547340D01*
G01D02*
G03X271760Y1545340I2000J0D01*
G01D02*
X324990D01*
G01Y1508840D02*
Y1545340D01*
G01Y1508840D02*
X271760D01*
G01D02*
G03X269760Y1506840I0J-2000D01*
G01D02*
Y1483840D01*
G01D02*
G03X271760Y1481840I2000J0D01*
G01D02*
X324990D01*
G01Y1445340D02*
Y1481840D01*
G01Y1445340D02*
X271760D01*
G01D02*
G03X269760Y1443340I0J-2000D01*
G01D02*
Y1420340D01*
G01D02*
G03X271760Y1418340I2000J0D01*
G01D02*
X324990D01*
G01Y1381840D02*
Y1418340D01*
G01Y1381840D02*
X271760D01*
G01D02*
G03X269760Y1379840I0J-2000D01*
G01D02*
Y1356840D01*
G01D02*
G03X271760Y1354840I2000J0D01*
G01D02*
X324990D01*
G01Y1318340D02*
Y1354840D01*
G01Y1318340D02*
X271760D01*
G01D02*
G03X269760Y1316340I0J-2000D01*
G01D02*
Y1293340D01*
G01D02*
G03X271760Y1291340I2000J0D01*
G01D02*
X324990D01*
G01Y1254840D02*
Y1291340D01*
G01Y1254840D02*
X271760D01*
G01D02*
G03X269760Y1252840I0J-2000D01*
G01D02*
Y1229840D01*
G01D02*
G03X271760Y1227840I2000J0D01*
G01D02*
X324990D01*
G01Y1191340D02*
Y1227840D01*
G01Y1191340D02*
X271760D01*
G01D02*
G03X269760Y1189340I0J-2000D01*
G01D02*
Y1166340D01*
G01D02*
G03X271760Y1164340I2000J0D01*
G01D02*
X324990D01*
G01Y1127840D02*
Y1164340D01*
G01Y1127840D02*
X271760D01*
G01D02*
G03X269760Y1125840I0J-2000D01*
G01D02*
Y1102840D01*
G01D02*
G03X271760Y1100840I2000J0D01*
G01D02*
X324990D01*
G01Y1034330D02*
Y1100840D01*
G01X262490Y1034330D02*
X324990D01*
G01X262490Y930850D02*
Y1034330D01*
G01X324990Y930850D02*
X262490D01*
G01X324990Y883350D02*
Y930850D01*
G01X399990Y883350D02*
X324990D01*
G01X399990Y845090D02*
Y883350D01*
G01X435730Y1886090D02*
X426730Y1895090D01*
G01Y1633840D02*
X435730D01*
G01X426730Y1316340D02*
X435730D01*
G01Y1483840D02*
X426730D01*
G01Y1316340D02*
Y1166340D01*
G01Y905090D02*
Y1166340D01*
G01Y1633840D02*
Y1895090D01*
G01Y1633840D02*
Y1483840D01*
G01Y1316340D02*
Y1483840D01*
G01X444730D02*
Y1633840D01*
G01D02*
X435730D01*
G01Y1886090D02*
Y1633840D01*
G01X497730Y1886090D02*
X435730D01*
G01X497730Y1846090D02*
Y1886090D01*
G01X557730Y1846090D02*
X497730D01*
G01X557730Y1789090D02*
Y1846090D01*
G01X497730Y1789090D02*
X557730D01*
G01X497730Y1717590D02*
Y1789090D01*
G01Y1717590D02*
X481730D01*
G01D02*
Y1697340D01*
G01D02*
Y1674340D01*
G01D02*
Y1633840D01*
G01D02*
Y1610840D01*
G01D02*
Y1570340D01*
G01D02*
Y1547340D01*
G01D02*
Y1506840D01*
G01D02*
Y1483840D01*
G01D02*
Y1443340D01*
G01D02*
Y1420340D01*
G01D02*
Y1379840D01*
G01D02*
Y1356840D01*
G01D02*
Y1316340D01*
G01D02*
Y1293340D01*
G01D02*
Y1252840D01*
G01D02*
Y1229840D01*
G01D02*
Y1189340D01*
G01D02*
Y1166340D01*
G01D02*
Y1125840D01*
G01D02*
Y1102840D01*
G01D02*
Y1082590D01*
G01X497730D02*
X481730D01*
G01X497730Y1011090D02*
Y1082590D01*
G01X557730Y1011090D02*
X497730D01*
G01X557730Y954090D02*
Y1011090D01*
G01X497730Y954090D02*
X557730D01*
G01X497730Y914090D02*
Y954090D01*
G01X435730Y914090D02*
X497730D01*
G01X435730Y1166340D02*
Y914090D01*
G01Y1166340D02*
X444730D01*
G01D02*
Y1316340D01*
G01D02*
X435730D01*
G01Y1483840D02*
Y1316340D01*
G01Y1483840D02*
X444730D01*
G01X916730Y1050840D02*
X1006730D01*
G01X916730Y1250840D02*
Y1050840D01*
G01X1006730Y1250840D02*
X916730D01*
G01Y740840D02*
X1006730D01*
G01X916730Y940840D02*
Y740840D01*
G01X1006730Y940840D02*
X916730D01*
G01X1680550Y1016630D02*
G03X1380550I-150000J259808D01*
G01Y1146530D02*
X1680550D01*
G01D02*
Y1016630D01*
G01Y1296530D02*
Y1146530D01*
G01Y1296530D02*
G03X1380550I-150000J4D01*
G01Y1146530D02*
Y1296530D01*
G01Y1016630D02*
Y1146530D01*
G01X448430Y695840D02*
X475030D01*
G01X702430D02*
X729030D01*
G01X575430D02*
X602030D01*
G01X321430D02*
X348030D01*
G01X1438730Y2281840D02*
Y2311840D01*
G01Y2281840D02*
X1425230D01*
G01Y2311840D02*
X1438730D01*
G01X1393730Y2291840D02*
Y2301840D01*
G01X1378730Y2281840D02*
Y2311840D01*
G01X1392230Y2281840D02*
X1378730D01*
G01Y2311840D02*
X1392230D01*
G01X1394730Y2281840D02*
X1392230D01*
G01Y2311840D02*
X1394730D01*
G01X1423730Y2291840D02*
Y2301840D01*
G01X1425230Y2281840D02*
X1422730D01*
G01Y2311840D02*
X1425230D01*
G01X1422330Y2281840D02*
X1395130D01*
G01Y2311840D02*
X1422330D01*
G01X1393730Y2281940D02*
Y2281840D01*
G01Y2281940D02*
Y2291840D01*
G01X1394730Y2281840D02*
X1395130D01*
G01X1423730Y2281940D02*
Y2291840D01*
G01Y2281840D02*
Y2281940D01*
G01X1422330Y2281840D02*
X1422730D01*
G01X1423730Y2311740D02*
Y2311840D01*
G01Y2301840D02*
Y2311740D01*
G01X1422730Y2311840D02*
X1422330D01*
G01X1393730Y2301840D02*
Y2311740D01*
G01Y2311840D02*
Y2311740D01*
G01X1395130Y2311840D02*
X1394730D01*
G01X1380830Y2011840D02*
G03I-25000J0D01*
G01X1394730Y2180840D02*
X1419730D01*
G01X1429730D02*
X1449730D01*
G01Y2224840D02*
Y2180840D01*
G01X1429730Y1990840D02*
X1449730D01*
G01Y2034840D02*
Y1990840D01*
G01X1429730Y2034840D02*
X1449730D01*
G01X1394730Y1990840D02*
X1419730D01*
G01X1394730Y2034840D02*
X1419730D01*
G01X1429730Y2224840D02*
X1449730D01*
G01X1394730D02*
X1419730D01*
G01X1209730Y2129840D02*
Y2085840D01*
G01X1229730Y2129840D02*
X1209730D01*
G01X1229730Y2085840D02*
X1209730D01*
G01X1264730Y2129840D02*
X1239730D01*
G01X1264730Y2085840D02*
X1239730D01*
G01X1429730Y2180840D02*
Y2224840D01*
G01Y2180840D02*
X1419730D01*
G01Y2034840D02*
X1429730D01*
G01Y1990840D02*
Y2034840D01*
G01Y1990840D02*
X1419730D01*
G01Y2224840D02*
X1429730D01*
G01X1229730Y2129840D02*
Y2085840D01*
G01Y2129840D02*
X1239730D01*
G01Y2085840D02*
X1229730D01*
G01X1264730D02*
Y1962840D01*
G01Y2129840D02*
Y2085840D01*
G01Y2252840D02*
Y2129840D01*
G01X1273550Y1971660D02*
Y2244020D01*
G01X1385910Y1971660D02*
X1273550D01*
G01X1394730Y1962840D02*
X1385910Y1971660D01*
G01X1264730Y1962840D02*
X1394730D01*
G01X1273550Y1971660D02*
X1264730Y1962840D01*
G01X1273550Y2244020D02*
X1385910D01*
G01X1264730Y2252840D02*
X1273550Y2244020D01*
G01X1394730Y2252840D02*
X1264730D01*
G01X1385910Y2244020D02*
Y1971660D01*
G01X1394730Y2252840D02*
X1385910Y2244020D01*
G01X1394730Y2180840D02*
Y2224840D01*
G01Y1990840D02*
Y2034840D01*
G01Y1962840D02*
Y1990840D01*
G01Y2034840D02*
Y2180840D01*
G01Y2224840D02*
Y2252840D01*
G01X811730Y1900840D02*
X831730Y1880840D01*
X1081730D01*
X1181730Y1980840D01*
Y2360840D01*
X1051730D01*
X1031730Y2380840D01*
X831730D01*
X811730Y2360840D01*
X681730D01*
Y1900840D01*
X811730D01*
G01X824050Y2287590D02*
Y2242590D01*
X814050D01*
Y2287590D01*
G01X824050Y2297590D02*
X869050D01*
Y2287590D01*
X824050D01*
G01X814050Y2297590D02*
Y2342590D01*
X824050D01*
Y2297590D01*
G01X814050Y2287590D02*
X769050D01*
Y2297590D01*
X814050D01*
G01X791730Y1880840D02*
Y1900840D01*
G01X721730Y1880840D02*
X791730D01*
G01X721730Y1900840D02*
Y1880840D01*
G01Y2380840D02*
Y2360840D01*
G01X791730Y2380840D02*
X721730D01*
G01X791730Y2360840D02*
Y2380840D01*
G01X1071730D02*
Y2360840D01*
G01X1141730Y2380840D02*
X1071730D01*
G01X1141730Y2360840D02*
Y2380840D01*
G01X1126730Y2130840D02*
G03I-45000J0D01*
G01X760960Y2307760D02*
G03I-24999J3D01*
G01X1051730Y1787840D02*
X1081730D01*
G01X1051730D02*
Y1801340D01*
G01X1081730D02*
Y1787840D01*
G01X1061730Y1832840D02*
X1071730D01*
G01X1051730Y1847840D02*
X1081730D01*
G01X1051730Y1834340D02*
Y1847840D01*
G01X1081730D02*
Y1834340D01*
G01X1051730Y1831840D02*
Y1834340D01*
G01X1081730D02*
Y1831840D01*
G01X1061730Y1802840D02*
X1071730D01*
G01X1051730Y1801340D02*
Y1803840D01*
G01X1081730D02*
Y1801340D01*
G01X1051730Y1804240D02*
Y1831440D01*
G01X1081730D02*
Y1804240D01*
G01X1051830Y1832840D02*
X1051730D01*
G01X1051830D02*
X1061730D01*
G01X1051730Y1831840D02*
Y1831440D01*
G01X1051830Y1802840D02*
X1061730D01*
G01X1051730D02*
X1051830D01*
G01X1051730Y1804240D02*
Y1803840D01*
G01X1081630Y1802840D02*
X1081730D01*
G01X1071730D02*
X1081630D01*
G01X1081730Y1803840D02*
Y1804240D01*
G01X1071730Y1832840D02*
X1081630D01*
G01X1081730D02*
X1081630D01*
G01X1081730Y1831440D02*
Y1831840D01*
G01X3192040Y588030D02*
Y233040D01*
G03X3212030Y213050I19990J0D01*
G01X3352030D01*
G03X3372020Y233040I0J19990D01*
G01Y258030D01*
G03X3352030Y278050I-20000J20D01*
G01X3277030D01*
G02X3257040Y298040I3J19993D01*
G01Y588030D01*
G03X3237020Y608050I-20007J13D01*
G01X3212030D01*
G03X3192040Y588030I10J-20000D01*
G01X3638380Y588080D02*
Y233070D01*
G02X3618390Y213080I-19997J7D01*
G01X3478390D01*
G02X3458400Y233070I0J19990D01*
G01Y258090D01*
G02X3478390Y278080I19990J0D01*
G01X3553400D01*
G03X3573390Y298090I-10J20000D01*
G01Y588080D01*
G02X3593400Y608070I19997J-7D01*
G01X3618390D01*
G02X3638380Y588080I-3J-19993D01*
G01X2442910Y465110D02*
Y1016630D01*
G01X2742910D02*
Y465110D01*
G01D02*
X2442910D01*
G01X3382200Y491200D02*
Y461200D01*
G01Y491200D02*
X3395700D01*
G01Y461200D02*
X3382200D01*
G01X3427200Y481200D02*
Y471200D01*
G01X3442200Y491200D02*
Y461200D01*
G01X3428700Y491200D02*
X3442200D01*
G01Y461200D02*
X3428700D01*
G01X3426200Y491200D02*
X3428700D01*
G01Y461200D02*
X3426200D01*
G01X3397200Y481200D02*
Y471200D01*
G01X3395700Y491200D02*
X3398200D01*
G01Y461200D02*
X3395700D01*
G01X3398600Y491200D02*
X3425800D01*
G01Y461200D02*
X3398600D01*
G01X3427200Y491100D02*
Y491200D01*
G01Y491100D02*
Y481200D01*
G01X3426200Y491200D02*
X3425800D01*
G01X3397200Y491100D02*
Y481200D01*
G01Y491200D02*
Y491100D01*
G01X3398600Y491200D02*
X3398200D01*
G01X3397200Y461300D02*
Y461200D01*
G01Y471200D02*
Y461300D01*
G01X3398200Y461200D02*
X3398600D01*
G01X3427200Y471200D02*
Y461300D01*
G01Y461200D02*
Y461300D01*
G01X3425800Y461200D02*
X3426200D01*
G01X3720300Y164400D02*
X3745300D01*
G01Y114400D02*
X3720300D01*
G01X3715300D02*
X3675300D01*
G01Y164400D02*
X3715300D01*
G01X3670300Y114400D02*
X3645300D01*
G01D02*
Y164400D01*
G01D02*
X3670300D01*
G01X3715300D02*
X3720300D01*
G01X3670300D02*
X3675300D01*
G01Y114400D02*
X3670300D01*
G01X3720300D02*
X3715300D01*
G01X3670300Y164400D02*
Y114400D01*
G01X3720300D02*
Y164400D01*
G01X3116730Y1540840D02*
X3526730D01*
Y1600840D01*
X3176730D01*
Y1950840D01*
X3526730D01*
Y2010840D01*
X3116730D01*
Y1540840D01*
G01Y1250840D02*
X3206730D01*
G01D02*
Y1050840D01*
G01D02*
X3116730D01*
G01Y940840D02*
X3206730D01*
G01D02*
Y740840D01*
G01D02*
X3116730D01*
G01X2742910Y1016630D02*
G03X2442910I-150000J259808D01*
G01Y1146530D02*
Y1016630D01*
G01X2742910Y1146530D02*
X2442910D01*
G01Y1296530D02*
Y1146530D01*
G01X2742910Y1296530D02*
G03X2442910I-150000J4D01*
G01X2742910Y1016630D02*
Y1146530D01*
G01D02*
Y1296530D01*
G01X2517910Y1306530D02*
X2582910D01*
G01X2667910D02*
Y1286530D01*
G01X2582910D02*
X2517910D01*
G01D02*
Y1306530D01*
G01X2602910D02*
X2667910D01*
G01Y1286530D02*
X2602910D01*
G01X2582910Y1371530D02*
X2602910D01*
G01Y1286530D02*
Y1221530D01*
G01D02*
X2582910D01*
G01X2602910Y1371530D02*
Y1306530D01*
G01X2582910Y1221530D02*
Y1286530D01*
G01Y1306530D02*
Y1371530D01*
G01X3514600Y928250D02*
X3864600D01*
Y1193250D01*
X3514600D01*
Y928250D01*
G01X3534900Y1147950D02*
Y973550D01*
G03X3559900Y948550I25000J0D01*
G01X3819300D01*
G03X3844300Y973550I0J25000D01*
G01Y1147950D01*
G03X3819300Y1172950I-25000J0D01*
G01X3559900D01*
G03X3534900Y1147950I0J-25000D01*
G01X3789600Y1093250D02*
G03I-25000J0D01*
G01X3794300Y998550D02*
X3584900D01*
G01D02*
Y1122950D01*
G01D02*
X3794300D01*
G01X2747730Y1978840D02*
Y2008840D01*
G01Y1978840D02*
X2734230D01*
G01Y2008840D02*
X2747730D01*
G01X2702730Y1988840D02*
Y1998840D01*
G01X2687730Y1978840D02*
Y2008840D01*
G01X2701230Y1978840D02*
X2687730D01*
G01Y2008840D02*
X2701230D01*
G01X2703730Y1978840D02*
X2701230D01*
G01Y2008840D02*
X2703730D01*
G01X2732730Y1988840D02*
Y1998840D01*
G01X2734230Y1978840D02*
X2731730D01*
G01Y2008840D02*
X2734230D01*
G01X2731330Y1978840D02*
X2704130D01*
G01Y2008840D02*
X2731330D01*
G01X2702730Y1978940D02*
Y1978840D01*
G01Y1978940D02*
Y1988840D01*
G01X2703730Y1978840D02*
X2704130D01*
G01X2732730Y1978940D02*
Y1988840D01*
G01Y1978840D02*
Y1978940D01*
G01X2731330Y1978840D02*
X2731730D01*
G01X2732730Y2008740D02*
Y2008840D01*
G01Y1998840D02*
Y2008740D01*
G01X2731730Y2008840D02*
X2731330D01*
G01X2702730Y1998840D02*
Y2008740D01*
G01Y2008840D02*
Y2008740D01*
G01X2704130Y2008840D02*
X2703730D01*
G01X2873400Y1992900D02*
Y1962900D01*
G01Y1992900D02*
X2886900D01*
G01Y1962900D02*
X2873400D01*
G01X2918400Y1982900D02*
Y1972900D01*
G01X2933400Y1992900D02*
Y1962900D01*
G01X2919900Y1992900D02*
X2933400D01*
G01Y1962900D02*
X2919900D01*
G01X2917400Y1992900D02*
X2919900D01*
G01Y1962900D02*
X2917400D01*
G01X2888400Y1982900D02*
Y1972900D01*
G01X2886900Y1992900D02*
X2889400D01*
G01Y1962900D02*
X2886900D01*
G01X2889800Y1992900D02*
X2917000D01*
G01Y1962900D02*
X2889800D01*
G01X2918400Y1992800D02*
Y1992900D01*
G01Y1992800D02*
Y1982900D01*
G01X2917400Y1992900D02*
X2917000D01*
G01X2888400Y1992800D02*
Y1982900D01*
G01Y1992900D02*
Y1992800D01*
G01X2889800Y1992900D02*
X2889400D01*
G01X2888400Y1963000D02*
Y1962900D01*
G01Y1972900D02*
Y1963000D01*
G01X2889400Y1962900D02*
X2889800D01*
G01X2918400Y1972900D02*
Y1963000D01*
G01Y1962900D02*
Y1963000D01*
G01X2917000Y1962900D02*
X2917400D01*
G01X2599730Y2045840D02*
X2629730D01*
G01X2599730D02*
Y2059340D01*
G01X2629730D02*
Y2045840D01*
G01X2609730Y2090840D02*
X2619730D01*
G01X2599730Y2105840D02*
X2629730D01*
G01X2599730Y2092340D02*
Y2105840D01*
G01X2629730D02*
Y2092340D01*
G01X2599730Y2089840D02*
Y2092340D01*
G01X2629730D02*
Y2089840D01*
G01X2609730Y2060840D02*
X2619730D01*
G01X2599730Y2059340D02*
Y2061840D01*
G01X2629730D02*
Y2059340D01*
G01X2599730Y2062240D02*
Y2089440D01*
G01X2629730D02*
Y2062240D01*
G01X2599830Y2090840D02*
X2599730D01*
G01X2599830D02*
X2609730D01*
G01X2599730Y2089840D02*
Y2089440D01*
G01X2599830Y2060840D02*
X2609730D01*
G01X2599730D02*
X2599830D01*
G01X2599730Y2062240D02*
Y2061840D01*
G01X2629630Y2060840D02*
X2629730D01*
G01X2619730D02*
X2629630D01*
G01X2629730Y2061840D02*
Y2062240D01*
G01X2619730Y2090840D02*
X2629630D01*
G01X2629730D02*
X2629630D01*
G01X2629730Y2089440D02*
Y2089840D01*
G01X3002730Y2095840D02*
X3032730D01*
G01X3002730D02*
Y2109340D01*
G01X3032730D02*
Y2095840D01*
G01X3012730Y2140840D02*
X3022730D01*
G01X3002730Y2155840D02*
X3032730D01*
G01X3002730Y2142340D02*
Y2155840D01*
G01X3032730D02*
Y2142340D01*
G01X3002730Y2139840D02*
Y2142340D01*
G01X3032730D02*
Y2139840D01*
G01X3012730Y2110840D02*
X3022730D01*
G01X3002730Y2109340D02*
Y2111840D01*
G01X3032730D02*
Y2109340D01*
G01X3002730Y2112240D02*
Y2139440D01*
G01X3032730D02*
Y2112240D01*
G01X3002830Y2140840D02*
X3002730D01*
G01X3002830D02*
X3012730D01*
G01X3002730Y2139840D02*
Y2139440D01*
G01X3002830Y2110840D02*
X3012730D01*
G01X3002730D02*
X3002830D01*
G01X3002730Y2112240D02*
Y2111840D01*
G01X3032630Y2110840D02*
X3032730D01*
G01X3022730D02*
X3032630D01*
G01X3032730Y2111840D02*
Y2112240D01*
G01X3022730Y2140840D02*
X3032630D01*
G01X3032730D02*
X3032630D01*
G01X3032730Y2139440D02*
Y2139840D01*
G01X2660200Y2028700D02*
Y2228700D01*
G01X2960200Y2028700D02*
X2660200D01*
G01X2960200Y2228700D02*
Y2028700D01*
G01X2660200Y2228700D02*
X2960200D01*
G01X2945730Y2051620D02*
G03I-10002J-2D01*
G01X4131730Y595840D02*
G03I-140000J0D01*
G01X3745300Y164400D02*
Y114400D01*
G01X3794300Y1122950D02*
Y998550D01*
G01X4039230Y1290840D02*
Y1300840D01*
G01X4114230D02*
Y1290840D01*
G01X4039230Y1275840D02*
Y1290840D01*
G01X4114230D02*
Y1275840D01*
G01X4039230D02*
X4114230D01*
G01X4039230Y1810840D02*
Y1800840D01*
G01Y1825840D02*
Y1810840D01*
G01X4114230Y1800840D02*
Y1810840D01*
G01D02*
Y1825840D01*
G01X4039230D02*
X4114230D01*
G01X4166730Y1780840D02*
Y1680840D01*
G01X3986730Y1780840D02*
X4166730D01*
G01X3986730Y1680840D02*
Y1780840D01*
G01X4166730Y1680840D02*
X3986730D01*
G01X4180730Y1306840D02*
X3972730D01*
G01X3966730Y1300840D02*
X4186730D01*
G01D02*
Y1800840D01*
G01X4180730Y1306840D02*
X4186730Y1300840D01*
G01X4180730Y1794840D02*
Y1306840D01*
G01Y1794840D02*
X4186730Y1800840D01*
G01X3972730Y1794840D02*
X4180730D01*
G01X3972730Y1306840D02*
X3966730Y1300840D01*
G01X3972730Y1794840D02*
X3966730Y1800840D01*
G01X3972730Y1306840D02*
Y1794840D01*
G01X4186730Y1800840D02*
X3966730D01*
G01D02*
Y1300840D01*
G01X3951730Y1777840D02*
X3921730D01*
G01X3951730D02*
Y1764340D01*
G01X3921730D02*
Y1777840D01*
G01X3941730Y1732840D02*
X3931730D01*
G01X3951730Y1717840D02*
X3921730D01*
G01X3951730Y1731340D02*
Y1717840D01*
G01X3921730D02*
Y1731340D01*
G01X3951730Y1733840D02*
Y1731340D01*
G01X3921730D02*
Y1733840D01*
G01X3941730Y1762840D02*
X3931730D01*
G01X3951730Y1764340D02*
Y1761840D01*
G01X3921730D02*
Y1764340D01*
G01X3951730Y1761440D02*
Y1734240D01*
G01X3921730D02*
Y1761440D01*
G01X3951630Y1732840D02*
X3951730D01*
G01X3951630D02*
X3941730D01*
G01X3951730Y1733840D02*
Y1734240D01*
G01X3951630Y1762840D02*
X3941730D01*
G01X3951730D02*
X3951630D01*
G01X3951730Y1761440D02*
Y1761840D01*
G01X3921830Y1762840D02*
X3921730D01*
G01X3931730D02*
X3921830D01*
G01X3921730Y1761840D02*
Y1761440D01*
G01X3931730Y1732840D02*
X3921830D01*
G01X3921730D02*
X3921830D01*
G01X3921730Y1734240D02*
Y1733840D01*
G01X3883700Y850300D02*
Y880300D01*
G01Y850300D02*
X3870200D01*
G01Y880300D02*
X3883700D01*
G01X3838700Y860300D02*
Y870300D01*
G01X3823700Y850300D02*
Y880300D01*
G01X3837200Y850300D02*
X3823700D01*
G01Y880300D02*
X3837200D01*
G01X3839700Y850300D02*
X3837200D01*
G01Y880300D02*
X3839700D01*
G01X3868700Y860300D02*
Y870300D01*
G01X3870200Y850300D02*
X3867700D01*
G01Y880300D02*
X3870200D01*
G01X3867300Y850300D02*
X3840100D01*
G01Y880300D02*
X3867300D01*
G01X3838700Y850400D02*
Y850300D01*
G01Y850400D02*
Y860300D01*
G01X3839700Y850300D02*
X3840100D01*
G01X3868700Y850400D02*
Y860300D01*
G01Y850300D02*
Y850400D01*
G01X3867300Y850300D02*
X3867700D01*
G01X3868700Y880200D02*
Y880300D01*
G01Y870300D02*
Y880200D01*
G01X3867700Y880300D02*
X3867300D01*
G01X3838700Y870300D02*
Y880200D01*
G01Y880300D02*
Y880200D01*
G01X3840100Y880300D02*
X3839700D01*
G01X4126730Y2085840D02*
G03I-140000J0D01*
G01X4084200Y1190000D02*
Y1220000D01*
G01Y1190000D02*
X4070700D01*
G01Y1220000D02*
X4084200D01*
G01X4039200Y1200000D02*
Y1210000D01*
G01X4024200Y1190000D02*
Y1220000D01*
G01X4037700Y1190000D02*
X4024200D01*
G01Y1220000D02*
X4037700D01*
G01X4040200Y1190000D02*
X4037700D01*
G01Y1220000D02*
X4040200D01*
G01X4069200Y1200000D02*
Y1210000D01*
G01X4070700Y1190000D02*
X4068200D01*
G01Y1220000D02*
X4070700D01*
G01X4067800Y1190000D02*
X4040600D01*
G01Y1220000D02*
X4067800D01*
G01X4039200Y1190100D02*
Y1190000D01*
G01Y1190100D02*
Y1200000D01*
G01X4040200Y1190000D02*
X4040600D01*
G01X4069200Y1190100D02*
Y1200000D01*
G01Y1190000D02*
Y1190100D01*
G01X4067800Y1190000D02*
X4068200D01*
G01X4069200Y1219900D02*
Y1220000D01*
G01Y1210000D02*
Y1219900D01*
G01X4068200Y1220000D02*
X4067800D01*
G01X4039200Y1210000D02*
Y1219900D01*
G01Y1220000D02*
Y1219900D01*
G01X4040600Y1220000D02*
X4040200D01*
G01X3893600Y1148900D02*
X3923600D01*
G01X3893600D02*
Y1162400D01*
G01X3923600D02*
Y1148900D01*
G01X3903600Y1193900D02*
X3913600D01*
G01X3893600Y1208900D02*
X3923600D01*
G01X3893600Y1195400D02*
Y1208900D01*
G01X3923600D02*
Y1195400D01*
G01X3893600Y1192900D02*
Y1195400D01*
G01X3923600D02*
Y1192900D01*
G01X3903600Y1163900D02*
X3913600D01*
G01X3893600Y1162400D02*
Y1164900D01*
G01X3923600D02*
Y1162400D01*
G01X3893600Y1165300D02*
Y1192500D01*
G01X3923600D02*
Y1165300D01*
G01X3893700Y1193900D02*
X3893600D01*
G01X3893700D02*
X3903600D01*
G01X3893600Y1192900D02*
Y1192500D01*
G01X3893700Y1163900D02*
X3903600D01*
G01X3893600D02*
X3893700D01*
G01X3893600Y1165300D02*
Y1164900D01*
G01X3923500Y1163900D02*
X3923600D01*
G01X3913600D02*
X3923500D01*
G01X3923600Y1164900D02*
Y1165300D01*
G01X3913600Y1193900D02*
X3923500D01*
G01X3923600D02*
X3923500D01*
G01X3923600Y1192500D02*
Y1192900D01*
G01X4076730Y2860840D02*
X4081730D01*
G02X4101730Y2840840I0J-20000D01*
G01Y2815840D01*
G02X4081730Y2795840I-20000J0D01*
G01X4076730D01*
Y2750840D01*
X4176730D01*
G02X4196730Y2730840I0J-20000D01*
G01Y2570840D01*
G02X4176730Y2550840I-20000J0D01*
G01X4076730D01*
Y2505840D01*
X4081730D01*
G02X4101730Y2485840I0J-20000D01*
G01Y2460840D01*
G02X4081730Y2440840I-20000J0D01*
G01X4076730D01*
G02X4061730Y2425840I-15000J0D01*
G01X3861730D01*
G02X3846730Y2440840I0J15000D01*
G01Y2643340D01*
X3861730D01*
Y2575840D01*
X3876730D01*
X3891730Y2590840D01*
Y2710840D01*
X3876730Y2725840D01*
X3861730D01*
Y2658340D01*
X3846730D01*
Y2860840D01*
G02X3861730Y2875840I15000J0D01*
G01X4061730D01*
G02X4076730Y2860840I0J-15000D01*
G01D02*
Y2440840D01*
M02*
