G04 ================== begin FILE IDENTIFICATION RECORD ==================*
G04 Layout Name:  CC2650_SensorTag.brd*
G04 Film Name:    assembly_bottom_CC2650SensorTag*
G04 File Format:  Gerber RS274X*
G04 File Origin:  Cadence Allegro 16.6-S026*
G04 Origin Date:  Wed Apr 15 15:57:56 2015*
G04 *
G04 Layer:  REF DES/ASSEMBLY_BOTTOM*
G04 Layer:  PACKAGE GEOMETRY/ASSEMBLY_BOTTOM*
G04 Layer:  BOARD GEOMETRY/OUTLINE*
G04 *
G04 Offset:    (0.0000 0.0000)*
G04 Mirror:    No*
G04 Mode:      Positive*
G04 Rotation:  0*
G04 FullContactRelief:  No*
G04 UndefLineWidth:     0.1000*
G04 ================== end FILE IDENTIFICATION RECORD ====================*
%FSLAX25Y25*MOMM*%
%IR0*IPPOS*OFA0.00000B0.00000*MIA0B0*SFA1.00000B1.00000*%
%ADD10C,.1001*%
%ADD11C,.003*%
%ADD12C,.03*%
%ADD13C,.1*%
G75*
%LPD*%
G75*
G36*
G01X685300Y1279300D02*
Y1352000D01*
X707300D01*
Y1279300D01*
X685300D01*
G37*
G36*
G01X685000Y1431800D02*
Y1504500D01*
X707000D01*
Y1431800D01*
X685000D01*
G37*
G54D10*
G01X308660Y2049100D02*
Y2112600D01*
X282950D01*
G01X292420Y2081910D02*
X308660D01*
G01X248140Y2112600D02*
X231910D01*
G01X240030D02*
Y2049100D01*
G01X248140D02*
X231910D01*
G01X199130D02*
Y2112600D01*
X185600D01*
X180190Y2109420D01*
X176130Y2105190D01*
X172740Y2098840D01*
X170040Y2091430D01*
X169360Y2080850D01*
X170040Y2070270D01*
X172740Y2062860D01*
X176130Y2056510D01*
X180190Y2052270D01*
X185600Y2049100D01*
X199130D01*
G01X143350Y2112600D02*
Y2067090D01*
X140640Y2057560D01*
X135230Y2051220D01*
X128470Y2049100D01*
X121700Y2051220D01*
X116290Y2057560D01*
X113580Y2067090D01*
Y2112600D01*
G01X64570Y2049100D02*
Y2112600D01*
X89600Y2067090D01*
X55770D01*
G01X1153910Y639180D02*
X1157080Y635120D01*
X1159200Y630380D01*
Y624970D01*
X1156020Y618880D01*
X1150730Y614150D01*
X1144380Y610760D01*
X1133800Y608060D01*
X1124270Y607380D01*
X1114750Y608740D01*
X1108400Y610760D01*
X1102050Y614820D01*
X1097820Y619560D01*
X1095700Y624290D01*
Y629030D01*
X1097820Y633770D01*
X1100990Y637830D01*
X1105220Y641210D01*
G01X1108400Y665190D02*
X1100990Y669250D01*
X1096760Y674660D01*
X1095700Y680750D01*
X1096760Y686160D01*
X1102050Y691580D01*
X1108400Y694960D01*
X1114750Y695630D01*
X1122160Y694280D01*
X1127450Y689550D01*
X1129570Y684810D01*
Y678720D01*
G01Y684810D02*
X1132740Y688870D01*
X1138030Y692250D01*
X1144380Y693610D01*
X1150730Y692250D01*
X1156020Y688870D01*
X1159200Y682780D01*
X1158140Y676690D01*
X1153910Y670600D01*
G01X1159200Y735850D02*
X1157080Y730440D01*
X1151790Y726380D01*
X1145440Y723680D01*
X1136970Y721650D01*
X1127450Y720970D01*
X1117920Y721650D01*
X1109460Y723680D01*
X1103110Y726380D01*
X1097820Y730440D01*
X1095700Y735850D01*
X1097820Y741270D01*
X1103110Y745330D01*
X1109460Y748030D01*
X1117920Y750060D01*
X1127450Y750740D01*
X1136970Y750060D01*
X1145440Y748030D01*
X1151790Y745330D01*
X1157080Y741270D01*
X1159200Y735850D01*
G01X1882140Y424900D02*
Y361400D01*
X1855070D01*
G01X1812830D02*
Y424900D01*
X1820940Y412200D01*
G01Y361400D02*
X1804710D01*
G01X1794220Y531910D02*
X1798280Y535080D01*
X1803020Y537200D01*
X1808430D01*
X1814520Y534020D01*
X1819250Y528730D01*
X1822640Y522380D01*
X1825340Y511800D01*
X1826020Y502270D01*
X1824660Y492750D01*
X1822640Y486400D01*
X1818580Y480050D01*
X1813840Y475820D01*
X1809110Y473700D01*
X1804370D01*
X1799630Y475820D01*
X1795570Y478990D01*
X1792190Y483220D01*
G01X1766180Y500160D02*
X1761440Y507570D01*
X1757380Y511800D01*
X1751970Y513920D01*
X1747240Y511800D01*
X1743850Y507570D01*
X1741150Y501220D01*
X1740470Y493810D01*
X1741150Y487460D01*
X1743850Y481110D01*
X1747910Y475820D01*
X1752650Y473700D01*
X1758060Y475820D01*
X1762800Y482160D01*
X1765500Y491690D01*
X1766180Y502270D01*
X1764830Y516030D01*
X1762800Y523440D01*
X1759410Y530850D01*
X1754680Y536140D01*
X1749940Y537200D01*
X1745210Y535080D01*
X1741820Y529790D01*
G01X1451990Y257320D02*
X1448820Y261380D01*
X1446700Y266120D01*
Y271530D01*
X1449880Y277620D01*
X1455170Y282350D01*
X1461520Y285740D01*
X1472100Y288440D01*
X1481630Y289120D01*
X1491150Y287760D01*
X1497500Y285740D01*
X1503850Y281680D01*
X1508080Y276940D01*
X1510200Y272210D01*
Y267470D01*
X1508080Y262730D01*
X1504910Y258670D01*
X1500680Y255290D01*
G01X1510200Y217780D02*
X1496440Y216430D01*
X1484800Y214400D01*
X1474220Y211690D01*
X1462580Y208310D01*
X1446700Y202890D01*
Y229960D01*
G01X1787550Y635050D02*
X1791610Y638220D01*
X1796350Y640340D01*
X1801760D01*
X1807850Y637160D01*
X1812580Y631870D01*
X1815970Y625520D01*
X1818670Y614940D01*
X1819350Y605410D01*
X1817990Y595890D01*
X1815970Y589540D01*
X1811910Y583190D01*
X1807170Y578960D01*
X1802440Y576840D01*
X1797700D01*
X1792960Y578960D01*
X1788900Y582130D01*
X1785520Y586360D01*
G01X1761540D02*
X1757480Y581070D01*
X1752740Y577900D01*
X1746660Y576840D01*
X1740570Y578960D01*
X1735830Y583190D01*
X1732450Y590600D01*
X1731770Y599060D01*
X1733120Y607530D01*
X1736510Y612820D01*
X1741240Y617060D01*
X1745980Y618110D01*
X1750710Y617060D01*
X1756800Y612820D01*
X1754770Y640340D01*
X1736510D01*
G01X1172890Y161120D02*
X1169720Y165180D01*
X1167600Y169920D01*
Y175330D01*
X1170780Y181420D01*
X1176070Y186150D01*
X1182420Y189540D01*
X1193000Y192240D01*
X1202530Y192920D01*
X1212050Y191560D01*
X1218400Y189540D01*
X1224750Y185480D01*
X1228980Y180740D01*
X1231100Y176010D01*
Y171270D01*
X1228980Y166530D01*
X1225810Y162470D01*
X1221580Y159090D01*
G01X1231100Y120230D02*
X1167600D01*
X1180300Y128340D01*
G01X1231100D02*
Y112110D01*
G01X847200Y583640D02*
X783700D01*
Y566720D01*
X786880Y561310D01*
X791110Y557930D01*
X799580Y556570D01*
X808040Y557930D01*
X813330Y561990D01*
X816510Y566720D01*
Y583640D01*
G01Y566720D02*
X847200Y556570D01*
G01X794280Y527180D02*
X787930Y523120D01*
X784760Y518380D01*
X783700Y512970D01*
X785820Y506210D01*
X791110Y501470D01*
X797460Y500120D01*
X803810Y500790D01*
X809100Y503500D01*
X819680Y517030D01*
X827090Y523120D01*
X837680Y527180D01*
X847200Y528530D01*
Y500120D01*
G01X834500Y473430D02*
X841910Y469370D01*
X846140Y463960D01*
X847200Y457870D01*
X846140Y452460D01*
X840850Y447040D01*
X834500Y443660D01*
X828150Y442990D01*
X820740Y444340D01*
X815450Y449070D01*
X813330Y453810D01*
Y459900D01*
G01Y453810D02*
X810160Y449750D01*
X804870Y446370D01*
X798520Y445010D01*
X792170Y446370D01*
X786880Y449750D01*
X783700Y455840D01*
X784760Y461930D01*
X788990Y468020D01*
G01X1049840Y411600D02*
Y475100D01*
X1032920D01*
X1027510Y471920D01*
X1024130Y467690D01*
X1022770Y459220D01*
X1024130Y450760D01*
X1028190Y445470D01*
X1032920Y442290D01*
X1049840D01*
G01X1032920D02*
X1022770Y411600D01*
G01X980530D02*
Y475100D01*
X988640Y462400D01*
G01Y411600D02*
X972410D01*
G01X937600Y464520D02*
X933540Y470870D01*
X928800Y474040D01*
X923390Y475100D01*
X916630Y472980D01*
X911890Y467690D01*
X910540Y461340D01*
X911210Y454990D01*
X913920Y449700D01*
X927450Y439120D01*
X933540Y431710D01*
X937600Y421120D01*
X938950Y411600D01*
X910540D01*
G01X591900Y667040D02*
X528400D01*
Y650120D01*
X531580Y644710D01*
X535810Y641330D01*
X544280Y639970D01*
X552740Y641330D01*
X558030Y645390D01*
X561210Y650120D01*
Y667040D01*
G01Y650120D02*
X591900Y639970D01*
G01X584490Y609230D02*
X589780Y604490D01*
X591900Y599080D01*
X589780Y593670D01*
X583440Y588930D01*
X573910Y585550D01*
X564380Y584190D01*
X552740D01*
X543220Y585550D01*
X534750Y588930D01*
X530520Y592990D01*
X528400Y597730D01*
X530520Y603140D01*
X534750Y607200D01*
X541100Y609900D01*
X549570Y611260D01*
X556970Y609900D01*
X564380Y606520D01*
X568620Y602460D01*
X569680Y597730D01*
X567560Y592310D01*
X562270Y588250D01*
X552740Y584190D01*
G01X1337400Y594860D02*
X1273900D01*
Y569150D01*
G01X1304590Y578620D02*
Y594860D01*
G01X1273900Y539760D02*
X1337400D01*
Y512690D01*
G01Y470450D02*
X1273900D01*
X1286600Y478560D01*
G01X1337400D02*
Y462330D01*
G01X897990Y710000D02*
Y664490D01*
X895280Y654960D01*
X889870Y648620D01*
X883110Y646500D01*
X876340Y648620D01*
X870930Y654960D01*
X868220Y664490D01*
Y710000D01*
G01X840180Y699420D02*
X836120Y705770D01*
X831380Y708940D01*
X825970Y710000D01*
X819210Y707880D01*
X814470Y702590D01*
X813120Y696240D01*
X813790Y689890D01*
X816500Y684600D01*
X830030Y674020D01*
X836120Y666610D01*
X840180Y656020D01*
X841530Y646500D01*
X813120D01*
G01X836690Y1768800D02*
Y1723290D01*
X833980Y1713760D01*
X828570Y1707420D01*
X821810Y1705300D01*
X815040Y1707420D01*
X809630Y1713760D01*
X806920Y1723290D01*
Y1768800D01*
G01X767380Y1705300D02*
X766030Y1719060D01*
X764000Y1730700D01*
X761290Y1741280D01*
X757910Y1752920D01*
X752490Y1768800D01*
X779560D01*
G01X791620Y1238410D02*
X795680Y1241580D01*
X800420Y1243700D01*
X805830D01*
X811920Y1240520D01*
X816650Y1235230D01*
X820040Y1228880D01*
X822740Y1218300D01*
X823420Y1208770D01*
X822060Y1199250D01*
X820040Y1192900D01*
X815980Y1186550D01*
X811240Y1182320D01*
X806510Y1180200D01*
X801770D01*
X797030Y1182320D01*
X792970Y1185490D01*
X789590Y1189720D01*
G01X764260Y1180200D02*
Y1243700D01*
X747340D01*
X741930Y1240520D01*
X738550Y1236290D01*
X737190Y1227820D01*
X738550Y1219360D01*
X742610Y1214070D01*
X747340Y1210890D01*
X764260D01*
G01X747340D02*
X737190Y1180200D01*
G01X709830Y1192900D02*
X705770Y1185490D01*
X700360Y1181260D01*
X694270Y1180200D01*
X688860Y1181260D01*
X683440Y1186550D01*
X680060Y1192900D01*
X679390Y1199250D01*
X680740Y1206660D01*
X685470Y1211950D01*
X690210Y1214070D01*
X696300D01*
G01X690210D02*
X686150Y1217240D01*
X682770Y1222530D01*
X681410Y1228880D01*
X682770Y1235230D01*
X686150Y1240520D01*
X692240Y1243700D01*
X698330Y1242640D01*
X704420Y1238410D01*
G01X1420940Y1024400D02*
Y1087900D01*
X1404020D01*
X1398610Y1084720D01*
X1395230Y1080490D01*
X1393870Y1072020D01*
X1395230Y1063560D01*
X1399290Y1058270D01*
X1404020Y1055090D01*
X1420940D01*
G01X1404020D02*
X1393870Y1024400D01*
G01X1364480Y1050860D02*
X1359740Y1058270D01*
X1355680Y1062500D01*
X1350270Y1064620D01*
X1345540Y1062500D01*
X1342150Y1058270D01*
X1339450Y1051920D01*
X1338770Y1044510D01*
X1339450Y1038160D01*
X1342150Y1031810D01*
X1346210Y1026520D01*
X1350950Y1024400D01*
X1356360Y1026520D01*
X1361100Y1032860D01*
X1363800Y1042390D01*
X1364480Y1052970D01*
X1363130Y1066730D01*
X1361100Y1074140D01*
X1357710Y1081550D01*
X1352980Y1086840D01*
X1348240Y1087900D01*
X1343510Y1085780D01*
X1340120Y1080490D01*
G01X1538790Y1544120D02*
X1535620Y1548180D01*
X1533500Y1552920D01*
Y1558330D01*
X1536680Y1564420D01*
X1541970Y1569150D01*
X1548320Y1572540D01*
X1558900Y1575240D01*
X1568430Y1575920D01*
X1577950Y1574560D01*
X1584300Y1572540D01*
X1590650Y1568480D01*
X1594880Y1563740D01*
X1597000Y1559010D01*
Y1554270D01*
X1594880Y1549530D01*
X1591710Y1545470D01*
X1587480Y1542090D01*
G01X1584300Y1518110D02*
X1591710Y1514050D01*
X1595940Y1508640D01*
X1597000Y1502550D01*
X1595940Y1497140D01*
X1590650Y1491720D01*
X1584300Y1488340D01*
X1577950Y1487670D01*
X1570540Y1489020D01*
X1565250Y1493750D01*
X1563130Y1498490D01*
Y1504580D01*
G01Y1498490D02*
X1559960Y1494430D01*
X1554670Y1491050D01*
X1548320Y1489690D01*
X1541970Y1491050D01*
X1536680Y1494430D01*
X1533500Y1500520D01*
X1534560Y1506610D01*
X1538790Y1512700D01*
G01X1544080Y1460300D02*
X1537730Y1456240D01*
X1534560Y1451500D01*
X1533500Y1446090D01*
X1535620Y1439330D01*
X1540910Y1434590D01*
X1547260Y1433240D01*
X1553610Y1433910D01*
X1558900Y1436620D01*
X1569480Y1450150D01*
X1576890Y1456240D01*
X1587480Y1460300D01*
X1597000Y1461650D01*
Y1433240D01*
G01X1764390Y1548420D02*
X1761220Y1552480D01*
X1759100Y1557220D01*
Y1562630D01*
X1762280Y1568720D01*
X1767570Y1573450D01*
X1773920Y1576840D01*
X1784500Y1579540D01*
X1794030Y1580220D01*
X1803550Y1578860D01*
X1809900Y1576840D01*
X1816250Y1572780D01*
X1820480Y1568040D01*
X1822600Y1563310D01*
Y1558570D01*
X1820480Y1553830D01*
X1817310Y1549770D01*
X1813080Y1546390D01*
G01X1809900Y1522410D02*
X1817310Y1518350D01*
X1821540Y1512940D01*
X1822600Y1506850D01*
X1821540Y1501440D01*
X1816250Y1496020D01*
X1809900Y1492640D01*
X1803550Y1491970D01*
X1796140Y1493320D01*
X1790850Y1498050D01*
X1788730Y1502790D01*
Y1508880D01*
G01Y1502790D02*
X1785560Y1498730D01*
X1780270Y1495350D01*
X1773920Y1493990D01*
X1767570Y1495350D01*
X1762280Y1498730D01*
X1759100Y1504820D01*
X1760160Y1510910D01*
X1764390Y1517000D01*
G01X1809900Y1466630D02*
X1817310Y1462570D01*
X1821540Y1457160D01*
X1822600Y1451070D01*
X1821540Y1445660D01*
X1816250Y1440240D01*
X1809900Y1436860D01*
X1803550Y1436190D01*
X1796140Y1437540D01*
X1790850Y1442270D01*
X1788730Y1447010D01*
Y1453100D01*
G01Y1447010D02*
X1785560Y1442950D01*
X1780270Y1439570D01*
X1773920Y1438210D01*
X1767570Y1439570D01*
X1762280Y1442950D01*
X1759100Y1449040D01*
X1760160Y1455130D01*
X1764390Y1461220D01*
G01X514120Y1872410D02*
X518180Y1875580D01*
X522920Y1877700D01*
X528330D01*
X534420Y1874520D01*
X539150Y1869230D01*
X542540Y1862880D01*
X545240Y1852300D01*
X545920Y1842770D01*
X544560Y1833250D01*
X542540Y1826900D01*
X538480Y1820550D01*
X533740Y1816320D01*
X529010Y1814200D01*
X524270D01*
X519530Y1816320D01*
X515470Y1819490D01*
X512090Y1823720D01*
G01X486080Y1867120D02*
X482020Y1873470D01*
X477280Y1876640D01*
X471870Y1877700D01*
X465110Y1875580D01*
X460370Y1870290D01*
X459020Y1863940D01*
X459690Y1857590D01*
X462400Y1852300D01*
X475930Y1841720D01*
X482020Y1834310D01*
X486080Y1823720D01*
X487430Y1814200D01*
X459020D01*
G01X409330D02*
Y1877700D01*
X434360Y1832190D01*
X400530D01*
G01X766120Y1903910D02*
X770180Y1907080D01*
X774920Y1909200D01*
X780330D01*
X786420Y1906020D01*
X791150Y1900730D01*
X794540Y1894380D01*
X797240Y1883800D01*
X797920Y1874270D01*
X796560Y1864750D01*
X794540Y1858400D01*
X790480Y1852050D01*
X785740Y1847820D01*
X781010Y1845700D01*
X776270D01*
X771530Y1847820D01*
X767470Y1850990D01*
X764090Y1855220D01*
G01X738080Y1898620D02*
X734020Y1904970D01*
X729280Y1908140D01*
X723870Y1909200D01*
X717110Y1907080D01*
X712370Y1901790D01*
X711020Y1895440D01*
X711690Y1889090D01*
X714400Y1883800D01*
X727930Y1873220D01*
X734020Y1865810D01*
X738080Y1855220D01*
X739430Y1845700D01*
X711020D01*
G01X669450Y1909200D02*
X674860Y1907080D01*
X678920Y1901790D01*
X681620Y1895440D01*
X683650Y1886970D01*
X684330Y1877450D01*
X683650Y1867920D01*
X681620Y1859460D01*
X678920Y1853110D01*
X674860Y1847820D01*
X669450Y1845700D01*
X664030Y1847820D01*
X659970Y1853110D01*
X657270Y1859460D01*
X655240Y1867920D01*
X654560Y1877450D01*
X655240Y1886970D01*
X657270Y1895440D01*
X659970Y1901790D01*
X664030Y1907080D01*
X669450Y1909200D01*
G01X951620Y1905610D02*
X955680Y1908780D01*
X960420Y1910900D01*
X965830D01*
X971920Y1907720D01*
X976650Y1902430D01*
X980040Y1896080D01*
X982740Y1885500D01*
X983420Y1875970D01*
X982060Y1866450D01*
X980040Y1860100D01*
X975980Y1853750D01*
X971240Y1849520D01*
X966510Y1847400D01*
X961770D01*
X957030Y1849520D01*
X952970Y1852690D01*
X949590Y1856920D01*
G01X910730Y1847400D02*
Y1910900D01*
X918840Y1898200D01*
G01Y1847400D02*
X902610D01*
G01X866450Y1854810D02*
X861710Y1849520D01*
X856300Y1847400D01*
X850890Y1849520D01*
X846150Y1855860D01*
X842770Y1865390D01*
X841410Y1874920D01*
Y1886560D01*
X842770Y1896080D01*
X846150Y1904550D01*
X850210Y1908780D01*
X854950Y1910900D01*
X860360Y1908780D01*
X864420Y1904550D01*
X867120Y1898200D01*
X868480Y1889730D01*
X867120Y1882330D01*
X863740Y1874920D01*
X859680Y1870680D01*
X854950Y1869620D01*
X849530Y1871740D01*
X845470Y1877030D01*
X841410Y1886560D01*
G01X786520Y1589010D02*
X790580Y1592180D01*
X795320Y1594300D01*
X800730D01*
X806820Y1591120D01*
X811550Y1585830D01*
X814940Y1579480D01*
X817640Y1568900D01*
X818320Y1559370D01*
X816960Y1549850D01*
X814940Y1543500D01*
X810880Y1537150D01*
X806140Y1532920D01*
X801410Y1530800D01*
X796670D01*
X791930Y1532920D01*
X787870Y1536090D01*
X784490Y1540320D01*
G01X759160Y1530800D02*
Y1594300D01*
X742240D01*
X736830Y1591120D01*
X733450Y1586890D01*
X732090Y1578420D01*
X733450Y1569960D01*
X737510Y1564670D01*
X742240Y1561490D01*
X759160D01*
G01X742240D02*
X732090Y1530800D01*
G01X689850D02*
Y1594300D01*
X697960Y1581600D01*
G01Y1530800D02*
X681730D01*
G01X1359320Y1452810D02*
X1363380Y1455980D01*
X1368120Y1458100D01*
X1373530D01*
X1379620Y1454920D01*
X1384350Y1449630D01*
X1387740Y1443280D01*
X1390440Y1432700D01*
X1391120Y1423170D01*
X1389760Y1413650D01*
X1387740Y1407300D01*
X1383680Y1400950D01*
X1378940Y1396720D01*
X1374210Y1394600D01*
X1369470D01*
X1364730Y1396720D01*
X1360670Y1399890D01*
X1357290Y1404120D01*
G01X1333310Y1407300D02*
X1329250Y1399890D01*
X1323840Y1395660D01*
X1317750Y1394600D01*
X1312340Y1395660D01*
X1306920Y1400950D01*
X1303540Y1407300D01*
X1302870Y1413650D01*
X1304220Y1421060D01*
X1308950Y1426350D01*
X1313690Y1428470D01*
X1319780D01*
G01X1313690D02*
X1309630Y1431640D01*
X1306250Y1436930D01*
X1304890Y1443280D01*
X1306250Y1449630D01*
X1309630Y1454920D01*
X1315720Y1458100D01*
X1321810Y1457040D01*
X1327900Y1452810D01*
G01X1262650Y1394600D02*
Y1458100D01*
X1270760Y1445400D01*
G01Y1394600D02*
X1254530D01*
G01X1355020Y1540510D02*
X1359080Y1543680D01*
X1363820Y1545800D01*
X1369230D01*
X1375320Y1542620D01*
X1380050Y1537330D01*
X1383440Y1530980D01*
X1386140Y1520400D01*
X1386820Y1510870D01*
X1385460Y1501350D01*
X1383440Y1495000D01*
X1379380Y1488650D01*
X1374640Y1484420D01*
X1369910Y1482300D01*
X1365170D01*
X1360430Y1484420D01*
X1356370Y1487590D01*
X1352990Y1491820D01*
G01X1314130Y1482300D02*
X1309390Y1483360D01*
X1303980Y1486530D01*
X1300590Y1491820D01*
X1299240Y1499230D01*
X1300590Y1506640D01*
X1304650Y1512990D01*
X1310740Y1516170D01*
X1317510D01*
X1321570Y1518280D01*
X1324950Y1523570D01*
X1326300Y1530980D01*
X1324270Y1538390D01*
X1319540Y1543680D01*
X1314130Y1545800D01*
X1308710Y1543680D01*
X1303980Y1538390D01*
X1301950Y1530980D01*
X1303300Y1523570D01*
X1306680Y1518280D01*
X1310740Y1516170D01*
X1317510D01*
X1323600Y1512990D01*
X1327660Y1506640D01*
X1329010Y1499230D01*
X1327660Y1491820D01*
X1324270Y1486530D01*
X1318860Y1483360D01*
X1314130Y1482300D01*
G01X1481820Y1269010D02*
X1485880Y1272180D01*
X1490620Y1274300D01*
X1496030D01*
X1502120Y1271120D01*
X1506850Y1265830D01*
X1510240Y1259480D01*
X1512940Y1248900D01*
X1513620Y1239370D01*
X1512260Y1229850D01*
X1510240Y1223500D01*
X1506180Y1217150D01*
X1501440Y1212920D01*
X1496710Y1210800D01*
X1491970D01*
X1487230Y1212920D01*
X1483170Y1216090D01*
X1479790Y1220320D01*
G01X1452430Y1218210D02*
X1447690Y1212920D01*
X1442280Y1210800D01*
X1436870Y1212920D01*
X1432130Y1219260D01*
X1428750Y1228790D01*
X1427390Y1238320D01*
Y1249960D01*
X1428750Y1259480D01*
X1432130Y1267950D01*
X1436190Y1272180D01*
X1440930Y1274300D01*
X1446340Y1272180D01*
X1450400Y1267950D01*
X1453100Y1261600D01*
X1454460Y1253130D01*
X1453100Y1245730D01*
X1449720Y1238320D01*
X1445660Y1234080D01*
X1440930Y1233020D01*
X1435510Y1235140D01*
X1431450Y1240430D01*
X1427390Y1249960D01*
G01X1516690Y1793520D02*
X1513520Y1797580D01*
X1511400Y1802320D01*
Y1807730D01*
X1514580Y1813820D01*
X1519870Y1818550D01*
X1526220Y1821940D01*
X1536800Y1824640D01*
X1546330Y1825320D01*
X1555850Y1823960D01*
X1562200Y1821940D01*
X1568550Y1817880D01*
X1572780Y1813140D01*
X1574900Y1808410D01*
Y1803670D01*
X1572780Y1798930D01*
X1569610Y1794870D01*
X1565380Y1791490D01*
G01X1574900Y1752630D02*
X1511400D01*
X1524100Y1760740D01*
G01X1574900D02*
Y1744510D01*
G01Y1696850D02*
X1511400D01*
X1524100Y1704960D01*
G01X1574900D02*
Y1688730D01*
G01X1340520Y810310D02*
X1344580Y813480D01*
X1349320Y815600D01*
X1354730D01*
X1360820Y812420D01*
X1365550Y807130D01*
X1368940Y800780D01*
X1371640Y790200D01*
X1372320Y780670D01*
X1370960Y771150D01*
X1368940Y764800D01*
X1364880Y758450D01*
X1360140Y754220D01*
X1355410Y752100D01*
X1350670D01*
X1345930Y754220D01*
X1341870Y757390D01*
X1338490Y761620D01*
G01X1299630Y752100D02*
Y815600D01*
X1307740Y802900D01*
G01Y752100D02*
X1291510D01*
G01X1256700Y805020D02*
X1252640Y811370D01*
X1247900Y814540D01*
X1242490Y815600D01*
X1235730Y813480D01*
X1230990Y808190D01*
X1229640Y801840D01*
X1230310Y795490D01*
X1233020Y790200D01*
X1246550Y779620D01*
X1252640Y772210D01*
X1256700Y761620D01*
X1258050Y752100D01*
X1229640D01*
G01X1949920Y1651110D02*
X1953980Y1654280D01*
X1958720Y1656400D01*
X1964130D01*
X1970220Y1653220D01*
X1974950Y1647930D01*
X1978340Y1641580D01*
X1981040Y1631000D01*
X1981720Y1621470D01*
X1980360Y1611950D01*
X1978340Y1605600D01*
X1974280Y1599250D01*
X1969540Y1595020D01*
X1964810Y1592900D01*
X1960070D01*
X1955330Y1595020D01*
X1951270Y1598190D01*
X1947890Y1602420D01*
G01X1909030Y1592900D02*
Y1656400D01*
X1917140Y1643700D01*
G01Y1592900D02*
X1900910D01*
G01X1868130Y1605600D02*
X1864070Y1598190D01*
X1858660Y1593960D01*
X1852570Y1592900D01*
X1847160Y1593960D01*
X1841740Y1599250D01*
X1838360Y1605600D01*
X1837690Y1611950D01*
X1839040Y1619360D01*
X1843770Y1624650D01*
X1848510Y1626770D01*
X1854600D01*
G01X1848510D02*
X1844450Y1629940D01*
X1841070Y1635230D01*
X1839710Y1641580D01*
X1841070Y1647930D01*
X1844450Y1653220D01*
X1850540Y1656400D01*
X1856630Y1655340D01*
X1862720Y1651110D01*
G01X1188720Y1765310D02*
X1192780Y1768480D01*
X1197520Y1770600D01*
X1202930D01*
X1209020Y1767420D01*
X1213750Y1762130D01*
X1217140Y1755780D01*
X1219840Y1745200D01*
X1220520Y1735670D01*
X1219160Y1726150D01*
X1217140Y1719800D01*
X1213080Y1713450D01*
X1208340Y1709220D01*
X1203610Y1707100D01*
X1198870D01*
X1194130Y1709220D01*
X1190070Y1712390D01*
X1186690Y1716620D01*
G01X1147830Y1707100D02*
Y1770600D01*
X1155940Y1757900D01*
G01Y1707100D02*
X1139710D01*
G01X1093400D02*
X1092050Y1720860D01*
X1090020Y1732500D01*
X1087310Y1743080D01*
X1083930Y1754720D01*
X1078510Y1770600D01*
X1105580D01*
G01X2064320Y1811700D02*
X2047410Y1875200D01*
X2030490Y1811700D01*
G01X2036580Y1833920D02*
X2058230D01*
G01X2007180Y1811700D02*
Y1875200D01*
X1976070Y1811700D01*
Y1875200D01*
G01X1935850D02*
Y1811700D01*
G01X1951400Y1875200D02*
X1920290D01*
G01X1892920Y1864620D02*
X1888860Y1870970D01*
X1884120Y1874140D01*
X1878710Y1875200D01*
X1871950Y1873080D01*
X1867210Y1867790D01*
X1865860Y1861440D01*
X1866530Y1855090D01*
X1869240Y1849800D01*
X1882770Y1839220D01*
X1888860Y1831810D01*
X1892920Y1821220D01*
X1894270Y1811700D01*
X1865860D01*
G01X1484720Y1893400D02*
X1467810Y1956900D01*
X1450890Y1893400D01*
G01X1456980Y1915620D02*
X1478630D01*
G01X1427580Y1893400D02*
Y1956900D01*
X1396470Y1893400D01*
Y1956900D01*
G01X1356250D02*
Y1893400D01*
G01X1371800Y1956900D02*
X1340690D01*
G01X1315350Y1906100D02*
X1311290Y1898690D01*
X1305880Y1894460D01*
X1299790Y1893400D01*
X1294380Y1894460D01*
X1288960Y1899750D01*
X1285580Y1906100D01*
X1284910Y1912450D01*
X1286260Y1919860D01*
X1290990Y1925150D01*
X1295730Y1927270D01*
X1301820D01*
G01X1295730D02*
X1291670Y1930440D01*
X1288290Y1935730D01*
X1286930Y1942080D01*
X1288290Y1948430D01*
X1291670Y1953720D01*
X1297760Y1956900D01*
X1303850Y1955840D01*
X1309940Y1951610D01*
G01X1097120Y1149810D02*
X1101180Y1152980D01*
X1105920Y1155100D01*
X1111330D01*
X1117420Y1151920D01*
X1122150Y1146630D01*
X1125540Y1140280D01*
X1128240Y1129700D01*
X1128920Y1120170D01*
X1127560Y1110650D01*
X1125540Y1104300D01*
X1121480Y1097950D01*
X1116740Y1093720D01*
X1112010Y1091600D01*
X1107270D01*
X1102530Y1093720D01*
X1098470Y1096890D01*
X1095090Y1101120D01*
G01X1056230Y1091600D02*
Y1155100D01*
X1064340Y1142400D01*
G01Y1091600D02*
X1048110D01*
G01X1000450D02*
X995710Y1092660D01*
X990300Y1095830D01*
X986910Y1101120D01*
X985560Y1108530D01*
X986910Y1115940D01*
X990970Y1122290D01*
X997060Y1125470D01*
X1003830D01*
X1007890Y1127580D01*
X1011270Y1132870D01*
X1012620Y1140280D01*
X1010590Y1147690D01*
X1005860Y1152980D01*
X1000450Y1155100D01*
X995030Y1152980D01*
X990300Y1147690D01*
X988270Y1140280D01*
X989620Y1132870D01*
X993000Y1127580D01*
X997060Y1125470D01*
X1003830D01*
X1009920Y1122290D01*
X1013980Y1115940D01*
X1015330Y1108530D01*
X1013980Y1101120D01*
X1010590Y1095830D01*
X1005180Y1092660D01*
X1000450Y1091600D01*
G01X1461700Y2432120D02*
X1398200Y2415210D01*
X1461700Y2398290D01*
G01X1439480Y2404380D02*
Y2426030D01*
G01X1461700Y2374980D02*
X1398200D01*
X1461700Y2343870D01*
X1398200D01*
G01Y2303650D02*
X1461700D01*
G01X1398200Y2319200D02*
Y2288090D01*
G01X1435240Y2260720D02*
X1427830Y2255980D01*
X1423600Y2251920D01*
X1421480Y2246510D01*
X1423600Y2241780D01*
X1427830Y2238390D01*
X1434180Y2235690D01*
X1441590Y2235010D01*
X1447940Y2235690D01*
X1454290Y2238390D01*
X1459580Y2242450D01*
X1461700Y2247190D01*
X1459580Y2252600D01*
X1453240Y2257340D01*
X1443710Y2260040D01*
X1433130Y2260720D01*
X1419370Y2259370D01*
X1411960Y2257340D01*
X1404550Y2253950D01*
X1399260Y2249220D01*
X1398200Y2244480D01*
X1400320Y2239750D01*
X1405610Y2236360D01*
G01X1453720Y1178810D02*
X1457780Y1181980D01*
X1462520Y1184100D01*
X1467930D01*
X1474020Y1180920D01*
X1478750Y1175630D01*
X1482140Y1169280D01*
X1484840Y1158700D01*
X1485520Y1149170D01*
X1484160Y1139650D01*
X1482140Y1133300D01*
X1478080Y1126950D01*
X1473340Y1122720D01*
X1468610Y1120600D01*
X1463870D01*
X1459130Y1122720D01*
X1455070Y1125890D01*
X1451690Y1130120D01*
G01X1404710Y1120600D02*
Y1184100D01*
X1429740Y1138590D01*
X1395910D01*
G01X983920Y898810D02*
X987980Y901980D01*
X992720Y904100D01*
X998130D01*
X1004220Y900920D01*
X1008950Y895630D01*
X1012340Y889280D01*
X1015040Y878700D01*
X1015720Y869170D01*
X1014360Y859650D01*
X1012340Y853300D01*
X1008280Y846950D01*
X1003540Y842720D01*
X998810Y840600D01*
X994070D01*
X989330Y842720D01*
X985270Y845890D01*
X981890Y850120D01*
G01X955880Y893520D02*
X951820Y899870D01*
X947080Y903040D01*
X941670Y904100D01*
X934910Y901980D01*
X930170Y896690D01*
X928820Y890340D01*
X929490Y883990D01*
X932200Y878700D01*
X945730Y868120D01*
X951820Y860710D01*
X955880Y850120D01*
X957230Y840600D01*
X928820D01*
G01X898750Y848010D02*
X894010Y842720D01*
X888600Y840600D01*
X883190Y842720D01*
X878450Y849060D01*
X875070Y858590D01*
X873710Y868120D01*
Y879760D01*
X875070Y889280D01*
X878450Y897750D01*
X882510Y901980D01*
X887250Y904100D01*
X892660Y901980D01*
X896720Y897750D01*
X899420Y891400D01*
X900780Y882930D01*
X899420Y875530D01*
X896040Y868120D01*
X891980Y863880D01*
X887250Y862820D01*
X881830Y864940D01*
X877770Y870230D01*
X873710Y879760D01*
G01X793320Y2104340D02*
Y2058830D01*
X790610Y2049300D01*
X785200Y2042960D01*
X778440Y2040840D01*
X771670Y2042960D01*
X766260Y2049300D01*
X763550Y2058830D01*
Y2104340D01*
G01X737540Y2053540D02*
X733480Y2046130D01*
X728070Y2041900D01*
X721980Y2040840D01*
X716570Y2041900D01*
X711150Y2047190D01*
X707770Y2053540D01*
X707100Y2059890D01*
X708450Y2067300D01*
X713180Y2072590D01*
X717920Y2074710D01*
X724010D01*
G01X717920D02*
X713860Y2077880D01*
X710480Y2083170D01*
X709120Y2089520D01*
X710480Y2095870D01*
X713860Y2101160D01*
X719950Y2104340D01*
X726040Y2103280D01*
X732130Y2099050D01*
G01X631000Y947840D02*
X567500D01*
Y930920D01*
X570680Y925510D01*
X574910Y922130D01*
X583380Y920770D01*
X591840Y922130D01*
X597130Y926190D01*
X600310Y930920D01*
Y947840D01*
G01Y930920D02*
X631000Y920770D01*
G01X578080Y891380D02*
X571730Y887320D01*
X568560Y882580D01*
X567500Y877170D01*
X569620Y870410D01*
X574910Y865670D01*
X581260Y864320D01*
X587610Y864990D01*
X592900Y867700D01*
X603480Y881230D01*
X610890Y887320D01*
X621480Y891380D01*
X631000Y892730D01*
Y864320D01*
G01Y822750D02*
X629940Y818010D01*
X626770Y812600D01*
X621480Y809210D01*
X614070Y807860D01*
X606660Y809210D01*
X600310Y813270D01*
X597130Y819360D01*
Y826130D01*
X595020Y830190D01*
X589730Y833570D01*
X582320Y834920D01*
X574910Y832890D01*
X569620Y828160D01*
X567500Y822750D01*
X569620Y817330D01*
X574910Y812600D01*
X582320Y810570D01*
X589730Y811920D01*
X595020Y815300D01*
X597130Y819360D01*
Y826130D01*
X600310Y832220D01*
X606660Y836280D01*
X614070Y837630D01*
X621480Y836280D01*
X626770Y832890D01*
X629940Y827480D01*
X631000Y822750D01*
G01X450640Y2306200D02*
Y2369700D01*
X433720D01*
X428310Y2366520D01*
X424930Y2362290D01*
X423570Y2353820D01*
X424930Y2345360D01*
X428990Y2340070D01*
X433720Y2336890D01*
X450640D01*
G01X433720D02*
X423570Y2306200D01*
G01X394180Y2359120D02*
X390120Y2365470D01*
X385380Y2368640D01*
X379970Y2369700D01*
X373210Y2367580D01*
X368470Y2362290D01*
X367120Y2355940D01*
X367790Y2349590D01*
X370500Y2344300D01*
X384030Y2333720D01*
X390120Y2326310D01*
X394180Y2315720D01*
X395530Y2306200D01*
X367120D01*
G01X338400Y2359120D02*
X334340Y2365470D01*
X329600Y2368640D01*
X324190Y2369700D01*
X317430Y2367580D01*
X312690Y2362290D01*
X311340Y2355940D01*
X312010Y2349590D01*
X314720Y2344300D01*
X328250Y2333720D01*
X334340Y2326310D01*
X338400Y2315720D01*
X339750Y2306200D01*
X311340D01*
G01X1930320Y1120340D02*
Y1074830D01*
X1927610Y1065300D01*
X1922200Y1058960D01*
X1915440Y1056840D01*
X1908670Y1058960D01*
X1903260Y1065300D01*
X1900550Y1074830D01*
Y1120340D01*
G01X1859660Y1056840D02*
Y1120340D01*
X1867770Y1107640D01*
G01Y1056840D02*
X1851540D01*
G01X1929820Y2406600D02*
X1912910Y2470100D01*
X1895990Y2406600D01*
G01X1902080Y2428820D02*
X1923730D01*
G01X1872680Y2406600D02*
Y2470100D01*
X1841570Y2406600D01*
Y2470100D01*
G01X1801350D02*
Y2406600D01*
G01X1816900Y2470100D02*
X1785790D01*
G01X1760450Y2416120D02*
X1756390Y2410830D01*
X1751650Y2407660D01*
X1745570Y2406600D01*
X1739480Y2408720D01*
X1734740Y2412950D01*
X1731360Y2420360D01*
X1730680Y2428820D01*
X1732030Y2437290D01*
X1735420Y2442580D01*
X1740150Y2446820D01*
X1744890Y2447870D01*
X1749620Y2446820D01*
X1755710Y2442580D01*
X1753680Y2470100D01*
X1735420D01*
G01X455380Y1352420D02*
X410480Y1307520D01*
X422440Y1295560D01*
X428510Y1293980D01*
X433900Y1294580D01*
X440840Y1299610D01*
X445870Y1306550D01*
X446740Y1313160D01*
X445640Y1318760D01*
X433680Y1330710D01*
G01X445640Y1318760D02*
X474520Y1333280D01*
G01X457880Y1275080D02*
X456260Y1267720D01*
X457370Y1262130D01*
X460450Y1257550D01*
X466730Y1254260D01*
X473820Y1254660D01*
X479260Y1258190D01*
X483280Y1263160D01*
X485100Y1268820D01*
X483020Y1285870D01*
X483950Y1295410D01*
X488570Y1305760D01*
X494350Y1313450D01*
X514440Y1293360D01*
G01X542870Y1264930D02*
X534100Y1254240D01*
X527310Y1244570D01*
X521730Y1235180D01*
X515900Y1224550D01*
X508500Y1209500D01*
X489360Y1228640D01*
G01X660840Y1617600D02*
Y1681100D01*
X643920D01*
X638510Y1677920D01*
X635130Y1673690D01*
X633770Y1665220D01*
X635130Y1656760D01*
X639190Y1651470D01*
X643920Y1648290D01*
X660840D01*
G01X643920D02*
X633770Y1617600D01*
G01X591530D02*
Y1681100D01*
X599640Y1668400D01*
G01Y1617600D02*
X583410D01*
G01X535750Y1681100D02*
X541160Y1678980D01*
X545220Y1673690D01*
X547920Y1667340D01*
X549950Y1658870D01*
X550630Y1649350D01*
X549950Y1639820D01*
X547920Y1631360D01*
X545220Y1625010D01*
X541160Y1619720D01*
X535750Y1617600D01*
X530330Y1619720D01*
X526270Y1625010D01*
X523570Y1631360D01*
X521540Y1639820D01*
X520860Y1649350D01*
X521540Y1658870D01*
X523570Y1667340D01*
X526270Y1673690D01*
X530330Y1678980D01*
X535750Y1681100D01*
G01X1466800Y817640D02*
X1403300D01*
Y800720D01*
X1406480Y795310D01*
X1410710Y791930D01*
X1419180Y790570D01*
X1427640Y791930D01*
X1432930Y795990D01*
X1436110Y800720D01*
Y817640D01*
G01Y800720D02*
X1466800Y790570D01*
G01Y748330D02*
X1403300D01*
X1416000Y756440D01*
G01X1466800D02*
Y740210D01*
G01X1863400Y2078020D02*
X1799900Y2061110D01*
X1863400Y2044190D01*
G01X1841180Y2050280D02*
Y2071930D01*
G01X1863400Y2020880D02*
X1799900D01*
X1863400Y1989770D01*
X1799900D01*
G01Y1949550D02*
X1863400D01*
G01X1799900Y1965100D02*
Y1933990D01*
G01X1863400Y1885650D02*
X1799900D01*
X1845410Y1910680D01*
Y1876850D01*
G01X1704300Y2143620D02*
X1640800Y2126710D01*
X1704300Y2109790D01*
G01X1682080Y2115880D02*
Y2137530D01*
G01X1704300Y2086480D02*
X1640800D01*
X1704300Y2055370D01*
X1640800D01*
G01Y2015150D02*
X1704300D01*
G01X1640800Y2030700D02*
Y1999590D01*
G01X1704300Y1959370D02*
X1640800D01*
X1653500Y1967480D01*
G01X1704300D02*
Y1951250D01*
G01X1509440Y1656400D02*
Y1592900D01*
X1482370D01*
G01X1452980Y1645820D02*
X1448920Y1652170D01*
X1444180Y1655340D01*
X1438770Y1656400D01*
X1432010Y1654280D01*
X1427270Y1648990D01*
X1425920Y1642640D01*
X1426590Y1636290D01*
X1429300Y1631000D01*
X1442830Y1620420D01*
X1448920Y1613010D01*
X1452980Y1602420D01*
X1454330Y1592900D01*
X1425920D01*
G01X1766700Y1767440D02*
X1830200D01*
Y1740370D01*
G01X1817500Y1713010D02*
X1824910Y1708950D01*
X1829140Y1703540D01*
X1830200Y1697450D01*
X1829140Y1692040D01*
X1823850Y1686620D01*
X1817500Y1683240D01*
X1811150Y1682570D01*
X1803740Y1683920D01*
X1798450Y1688650D01*
X1796330Y1693390D01*
Y1699480D01*
G01Y1693390D02*
X1793160Y1689330D01*
X1787870Y1685950D01*
X1781520Y1684590D01*
X1775170Y1685950D01*
X1769880Y1689330D01*
X1766700Y1695420D01*
X1767760Y1701510D01*
X1771990Y1707600D01*
G01X1974970Y2191540D02*
X1971580Y2185190D01*
X1967520Y2180960D01*
X1962790Y2178840D01*
X1957380Y2180960D01*
X1953320Y2185190D01*
X1949260Y2191540D01*
X1947900Y2200010D01*
Y2242340D01*
G01X1905660Y2178840D02*
Y2242340D01*
X1913770Y2229640D01*
G01Y2178840D02*
X1897540D01*
G01X1123410Y1412500D02*
Y1441070D01*
X1136940Y1476000D01*
G01X1109870D02*
X1123410Y1441070D01*
G01X1080480Y1465420D02*
X1076420Y1471770D01*
X1071680Y1474940D01*
X1066270Y1476000D01*
X1059510Y1473880D01*
X1054770Y1468590D01*
X1053420Y1462240D01*
X1054090Y1455890D01*
X1056800Y1450600D01*
X1070330Y1440020D01*
X1076420Y1432610D01*
X1080480Y1422020D01*
X1081830Y1412500D01*
X1053420D01*
G01X1384180Y2768620D02*
X1367270Y2832120D01*
X1350350Y2768620D01*
G01X1356440Y2790840D02*
X1378090D01*
G01X1311490Y2768620D02*
Y2832120D01*
X1319600Y2819420D01*
G01Y2768620D02*
X1303370D01*
G01X3434190Y461500D02*
Y415990D01*
X3431480Y406460D01*
X3426070Y400120D01*
X3419310Y398000D01*
X3412540Y400120D01*
X3407130Y406460D01*
X3404420Y415990D01*
Y461500D01*
G01X3375030Y405410D02*
X3370290Y400120D01*
X3364880Y398000D01*
X3359470Y400120D01*
X3354730Y406460D01*
X3351350Y415990D01*
X3349990Y425520D01*
Y437160D01*
X3351350Y446680D01*
X3354730Y455150D01*
X3358790Y459380D01*
X3363530Y461500D01*
X3368940Y459380D01*
X3373000Y455150D01*
X3375700Y448800D01*
X3377060Y440330D01*
X3375700Y432930D01*
X3372320Y425520D01*
X3368260Y421280D01*
X3363530Y420220D01*
X3358110Y422340D01*
X3354050Y427630D01*
X3349990Y437160D01*
G01X3398490Y1840300D02*
Y1794790D01*
X3395780Y1785260D01*
X3390370Y1778920D01*
X3383610Y1776800D01*
X3376840Y1778920D01*
X3371430Y1785260D01*
X3368720Y1794790D01*
Y1840300D01*
G01X3319710Y1776800D02*
Y1840300D01*
X3344740Y1794790D01*
X3310910D01*
G01X2909690Y1060500D02*
Y1014990D01*
X2906980Y1005460D01*
X2901570Y999120D01*
X2894810Y997000D01*
X2888040Y999120D01*
X2882630Y1005460D01*
X2879920Y1014990D01*
Y1060500D01*
G01X2839030Y997000D02*
X2834290Y998060D01*
X2828880Y1001230D01*
X2825490Y1006520D01*
X2824140Y1013930D01*
X2825490Y1021340D01*
X2829550Y1027690D01*
X2835640Y1030870D01*
X2842410D01*
X2846470Y1032980D01*
X2849850Y1038270D01*
X2851200Y1045680D01*
X2849170Y1053090D01*
X2844440Y1058380D01*
X2839030Y1060500D01*
X2833610Y1058380D01*
X2828880Y1053090D01*
X2826850Y1045680D01*
X2828200Y1038270D01*
X2831580Y1032980D01*
X2835640Y1030870D01*
X2842410D01*
X2848500Y1027690D01*
X2852560Y1021340D01*
X2853910Y1013930D01*
X2852560Y1006520D01*
X2849170Y1001230D01*
X2843760Y998060D01*
X2839030Y997000D01*
G01X2882550Y855050D02*
X2886610Y858220D01*
X2891350Y860340D01*
X2896760D01*
X2902850Y857160D01*
X2907580Y851870D01*
X2910970Y845520D01*
X2913670Y834940D01*
X2914350Y825410D01*
X2912990Y815890D01*
X2910970Y809540D01*
X2906910Y803190D01*
X2902170Y798960D01*
X2897440Y796840D01*
X2892700D01*
X2887960Y798960D01*
X2883900Y802130D01*
X2880520Y806360D01*
G01X2854510Y849760D02*
X2850450Y856110D01*
X2845710Y859280D01*
X2840300Y860340D01*
X2833540Y858220D01*
X2828800Y852930D01*
X2827450Y846580D01*
X2828120Y840230D01*
X2830830Y834940D01*
X2844360Y824360D01*
X2850450Y816950D01*
X2854510Y806360D01*
X2855860Y796840D01*
X2827450D01*
G01X2800760Y806360D02*
X2796700Y801070D01*
X2791960Y797900D01*
X2785880Y796840D01*
X2779790Y798960D01*
X2775050Y803190D01*
X2771670Y810600D01*
X2770990Y819060D01*
X2772340Y827530D01*
X2775730Y832820D01*
X2780460Y837060D01*
X2785200Y838110D01*
X2789930Y837060D01*
X2796020Y832820D01*
X2793990Y860340D01*
X2775730D01*
G01X3178890Y1203720D02*
X3175720Y1207780D01*
X3173600Y1212520D01*
Y1217930D01*
X3176780Y1224020D01*
X3182070Y1228750D01*
X3188420Y1232140D01*
X3199000Y1234840D01*
X3208530Y1235520D01*
X3218050Y1234160D01*
X3224400Y1232140D01*
X3230750Y1228080D01*
X3234980Y1223340D01*
X3237100Y1218610D01*
Y1213870D01*
X3234980Y1209130D01*
X3231810Y1205070D01*
X3227580Y1201690D01*
G01X3184180Y1175680D02*
X3177830Y1171620D01*
X3174660Y1166880D01*
X3173600Y1161470D01*
X3175720Y1154710D01*
X3181010Y1149970D01*
X3187360Y1148620D01*
X3193710Y1149290D01*
X3199000Y1152000D01*
X3209580Y1165530D01*
X3216990Y1171620D01*
X3227580Y1175680D01*
X3237100Y1177030D01*
Y1148620D01*
G01X3210640Y1119900D02*
X3203230Y1115160D01*
X3199000Y1111100D01*
X3196880Y1105690D01*
X3199000Y1100960D01*
X3203230Y1097570D01*
X3209580Y1094870D01*
X3216990Y1094190D01*
X3223340Y1094870D01*
X3229690Y1097570D01*
X3234980Y1101630D01*
X3237100Y1106370D01*
X3234980Y1111780D01*
X3228640Y1116520D01*
X3219110Y1119220D01*
X3208530Y1119900D01*
X3194770Y1118550D01*
X3187360Y1116520D01*
X3179950Y1113130D01*
X3174660Y1108400D01*
X3173600Y1103660D01*
X3175720Y1098930D01*
X3181010Y1095540D01*
G01X3182290Y999420D02*
X3179120Y1003480D01*
X3177000Y1008220D01*
Y1013630D01*
X3180180Y1019720D01*
X3185470Y1024450D01*
X3191820Y1027840D01*
X3202400Y1030540D01*
X3211930Y1031220D01*
X3221450Y1029860D01*
X3227800Y1027840D01*
X3234150Y1023780D01*
X3238380Y1019040D01*
X3240500Y1014310D01*
Y1009570D01*
X3238380Y1004830D01*
X3235210Y1000770D01*
X3230980Y997390D01*
G01X3187580Y971380D02*
X3181230Y967320D01*
X3178060Y962580D01*
X3177000Y957170D01*
X3179120Y950410D01*
X3184410Y945670D01*
X3190760Y944320D01*
X3197110Y944990D01*
X3202400Y947700D01*
X3212980Y961230D01*
X3220390Y967320D01*
X3230980Y971380D01*
X3240500Y972730D01*
Y944320D01*
G01Y904100D02*
X3226740Y902750D01*
X3215100Y900720D01*
X3204520Y898010D01*
X3192880Y894630D01*
X3177000Y889210D01*
Y916280D01*
G01X2356690Y997720D02*
X2353520Y1001780D01*
X2351400Y1006520D01*
Y1011930D01*
X2354580Y1018020D01*
X2359870Y1022750D01*
X2366220Y1026140D01*
X2376800Y1028840D01*
X2386330Y1029520D01*
X2395850Y1028160D01*
X2402200Y1026140D01*
X2408550Y1022080D01*
X2412780Y1017340D01*
X2414900Y1012610D01*
Y1007870D01*
X2412780Y1003130D01*
X2409610Y999070D01*
X2405380Y995690D01*
G01X2414900Y956830D02*
X2351400D01*
X2364100Y964940D01*
G01X2414900D02*
Y948710D01*
G01X2388440Y913900D02*
X2381030Y909160D01*
X2376800Y905100D01*
X2374680Y899690D01*
X2376800Y894960D01*
X2381030Y891570D01*
X2387380Y888870D01*
X2394790Y888190D01*
X2401140Y888870D01*
X2407490Y891570D01*
X2412780Y895630D01*
X2414900Y900370D01*
X2412780Y905780D01*
X2406440Y910520D01*
X2396910Y913220D01*
X2386330Y913900D01*
X2372570Y912550D01*
X2365160Y910520D01*
X2357750Y907130D01*
X2352460Y902400D01*
X2351400Y897660D01*
X2353520Y892930D01*
X2358810Y889540D01*
G01X2019690Y1693920D02*
X2016520Y1697980D01*
X2014400Y1702720D01*
Y1708130D01*
X2017580Y1714220D01*
X2022870Y1718950D01*
X2029220Y1722340D01*
X2039800Y1725040D01*
X2049330Y1725720D01*
X2058850Y1724360D01*
X2065200Y1722340D01*
X2071550Y1718280D01*
X2075780Y1713540D01*
X2077900Y1708810D01*
Y1704070D01*
X2075780Y1699330D01*
X2072610Y1695270D01*
X2068380Y1691890D01*
G01X2077900Y1653030D02*
X2014400D01*
X2027100Y1661140D01*
G01X2077900D02*
Y1644910D01*
G01Y1589130D02*
X2014400D01*
X2059910Y1614160D01*
Y1580330D01*
G01X2486090Y1725420D02*
X2482920Y1729480D01*
X2480800Y1734220D01*
Y1739630D01*
X2483980Y1745720D01*
X2489270Y1750450D01*
X2495620Y1753840D01*
X2506200Y1756540D01*
X2515730Y1757220D01*
X2525250Y1755860D01*
X2531600Y1753840D01*
X2537950Y1749780D01*
X2542180Y1745040D01*
X2544300Y1740310D01*
Y1735570D01*
X2542180Y1730830D01*
X2539010Y1726770D01*
X2534780Y1723390D01*
G01X2544300Y1684530D02*
X2480800D01*
X2493500Y1692640D01*
G01X2544300D02*
Y1676410D01*
G01X2534780Y1643630D02*
X2540070Y1639570D01*
X2543240Y1634830D01*
X2544300Y1628750D01*
X2542180Y1622660D01*
X2537950Y1617920D01*
X2530540Y1614540D01*
X2522080Y1613860D01*
X2513610Y1615210D01*
X2508320Y1618600D01*
X2504080Y1623330D01*
X2503030Y1628070D01*
X2504080Y1632800D01*
X2508320Y1638890D01*
X2480800Y1636860D01*
Y1618600D01*
G01X2463990Y931320D02*
X2460820Y935380D01*
X2458700Y940120D01*
Y945530D01*
X2461880Y951620D01*
X2467170Y956350D01*
X2473520Y959740D01*
X2484100Y962440D01*
X2493630Y963120D01*
X2503150Y961760D01*
X2509500Y959740D01*
X2515850Y955680D01*
X2520080Y950940D01*
X2522200Y946210D01*
Y941470D01*
X2520080Y936730D01*
X2516910Y932670D01*
X2512680Y929290D01*
G01X2509500Y905310D02*
X2516910Y901250D01*
X2521140Y895840D01*
X2522200Y889750D01*
X2521140Y884340D01*
X2515850Y878920D01*
X2509500Y875540D01*
X2503150Y874870D01*
X2495740Y876220D01*
X2490450Y880950D01*
X2488330Y885690D01*
Y891780D01*
G01Y885690D02*
X2485160Y881630D01*
X2479870Y878250D01*
X2473520Y876890D01*
X2467170Y878250D01*
X2461880Y881630D01*
X2458700Y887720D01*
X2459760Y893810D01*
X2463990Y899900D01*
G01X2538020Y1378810D02*
X2542080Y1381980D01*
X2546820Y1384100D01*
X2552230D01*
X2558320Y1380920D01*
X2563050Y1375630D01*
X2566440Y1369280D01*
X2569140Y1358700D01*
X2569820Y1349170D01*
X2568460Y1339650D01*
X2566440Y1333300D01*
X2562380Y1326950D01*
X2557640Y1322720D01*
X2552910Y1320600D01*
X2548170D01*
X2543430Y1322720D01*
X2539370Y1325890D01*
X2535990Y1330120D01*
G01X2509980Y1373520D02*
X2505920Y1379870D01*
X2501180Y1383040D01*
X2495770Y1384100D01*
X2489010Y1381980D01*
X2484270Y1376690D01*
X2482920Y1370340D01*
X2483590Y1363990D01*
X2486300Y1358700D01*
X2499830Y1348120D01*
X2505920Y1340710D01*
X2509980Y1330120D01*
X2511330Y1320600D01*
X2482920D01*
G01X3732400Y1933440D02*
X3668900D01*
Y1916520D01*
X3672080Y1911110D01*
X3676310Y1907730D01*
X3684780Y1906370D01*
X3693240Y1907730D01*
X3698530Y1911790D01*
X3701710Y1916520D01*
Y1933440D01*
G01Y1916520D02*
X3732400Y1906370D01*
G01X3722880Y1879010D02*
X3728170Y1874950D01*
X3731340Y1870210D01*
X3732400Y1864130D01*
X3730280Y1858040D01*
X3726050Y1853300D01*
X3718640Y1849920D01*
X3710180Y1849240D01*
X3701710Y1850590D01*
X3696420Y1853980D01*
X3692180Y1858710D01*
X3691130Y1863450D01*
X3692180Y1868180D01*
X3696420Y1874270D01*
X3668900Y1872240D01*
Y1853980D01*
G01Y1808350D02*
X3671020Y1813760D01*
X3676310Y1817820D01*
X3682660Y1820520D01*
X3691130Y1822550D01*
X3700650Y1823230D01*
X3710180Y1822550D01*
X3718640Y1820520D01*
X3724990Y1817820D01*
X3730280Y1813760D01*
X3732400Y1808350D01*
X3730280Y1802930D01*
X3724990Y1798870D01*
X3718640Y1796170D01*
X3710180Y1794140D01*
X3700650Y1793460D01*
X3691130Y1794140D01*
X3682660Y1796170D01*
X3676310Y1798870D01*
X3671020Y1802930D01*
X3668900Y1808350D01*
G01X2908640Y1247400D02*
Y1310900D01*
X2891720D01*
X2886310Y1307720D01*
X2882930Y1303490D01*
X2881570Y1295020D01*
X2882930Y1286560D01*
X2886990Y1281270D01*
X2891720Y1278090D01*
X2908640D01*
G01X2891720D02*
X2881570Y1247400D01*
G01X2831210D02*
Y1310900D01*
X2856240Y1265390D01*
X2822410D01*
G01X2576600Y1133440D02*
X2513100D01*
Y1116520D01*
X2516280Y1111110D01*
X2520510Y1107730D01*
X2528980Y1106370D01*
X2537440Y1107730D01*
X2542730Y1111790D01*
X2545910Y1116520D01*
Y1133440D01*
G01Y1116520D02*
X2576600Y1106370D01*
G01X2567080Y1079010D02*
X2572370Y1074950D01*
X2575540Y1070210D01*
X2576600Y1064130D01*
X2574480Y1058040D01*
X2570250Y1053300D01*
X2562840Y1049920D01*
X2554380Y1049240D01*
X2545910Y1050590D01*
X2540620Y1053980D01*
X2536380Y1058710D01*
X2535330Y1063450D01*
X2536380Y1068180D01*
X2540620Y1074270D01*
X2513100Y1072240D01*
Y1053980D01*
G01X3744300Y1601540D02*
X3680800D01*
Y1584620D01*
X3683980Y1579210D01*
X3688210Y1575830D01*
X3696680Y1574470D01*
X3705140Y1575830D01*
X3710430Y1579890D01*
X3713610Y1584620D01*
Y1601540D01*
G01Y1584620D02*
X3744300Y1574470D01*
G01X3731600Y1547110D02*
X3739010Y1543050D01*
X3743240Y1537640D01*
X3744300Y1531550D01*
X3743240Y1526140D01*
X3737950Y1520720D01*
X3731600Y1517340D01*
X3725250Y1516670D01*
X3717840Y1518020D01*
X3712550Y1522750D01*
X3710430Y1527490D01*
Y1533580D01*
G01Y1527490D02*
X3707260Y1523430D01*
X3701970Y1520050D01*
X3695620Y1518690D01*
X3689270Y1520050D01*
X3683980Y1523430D01*
X3680800Y1529520D01*
X3681860Y1535610D01*
X3686090Y1541700D01*
G01X2191210Y1788300D02*
Y1816870D01*
X2204740Y1851800D01*
G01X2177670D02*
X2191210Y1816870D01*
G01X2135430Y1788300D02*
Y1851800D01*
X2143540Y1839100D01*
G01Y1788300D02*
X2127310D01*
G01X4119290Y580840D02*
Y644340D01*
X4093580D01*
G01X4103050Y613650D02*
X4119290D01*
G01X4058770Y644340D02*
X4042540D01*
G01X4050660D02*
Y580840D01*
G01X4058770D02*
X4042540D01*
G01X4009760D02*
Y644340D01*
X3996230D01*
X3990820Y641160D01*
X3986760Y636930D01*
X3983370Y630580D01*
X3980670Y623170D01*
X3979990Y612590D01*
X3980670Y602010D01*
X3983370Y594600D01*
X3986760Y588250D01*
X3990820Y584010D01*
X3996230Y580840D01*
X4009760D01*
G01X3953980Y644340D02*
Y598830D01*
X3951270Y589300D01*
X3945860Y582960D01*
X3939100Y580840D01*
X3932330Y582960D01*
X3926920Y589300D01*
X3924210Y598830D01*
Y644340D01*
G01X3896170Y607300D02*
X3891430Y614710D01*
X3887370Y618940D01*
X3881960Y621060D01*
X3877230Y618940D01*
X3873840Y614710D01*
X3871140Y608360D01*
X3870460Y600950D01*
X3871140Y594600D01*
X3873840Y588250D01*
X3877900Y582960D01*
X3882640Y580840D01*
X3888050Y582960D01*
X3892790Y589300D01*
X3895490Y598830D01*
X3896170Y609410D01*
X3894820Y623170D01*
X3892790Y630580D01*
X3889400Y637990D01*
X3884670Y643280D01*
X3879930Y644340D01*
X3875200Y642220D01*
X3871810Y636930D01*
G01X3769490Y1903320D02*
X3766320Y1907380D01*
X3764200Y1912120D01*
Y1917530D01*
X3767380Y1923620D01*
X3772670Y1928350D01*
X3779020Y1931740D01*
X3789600Y1934440D01*
X3799130Y1935120D01*
X3808650Y1933760D01*
X3815000Y1931740D01*
X3821350Y1927680D01*
X3825580Y1922940D01*
X3827700Y1918210D01*
Y1913470D01*
X3825580Y1908730D01*
X3822410Y1904670D01*
X3818180Y1901290D01*
G01X3774780Y1875280D02*
X3768430Y1871220D01*
X3765260Y1866480D01*
X3764200Y1861070D01*
X3766320Y1854310D01*
X3771610Y1849570D01*
X3777960Y1848220D01*
X3784310Y1848890D01*
X3789600Y1851600D01*
X3800180Y1865130D01*
X3807590Y1871220D01*
X3818180Y1875280D01*
X3827700Y1876630D01*
Y1848220D01*
G01Y1806650D02*
X3764200D01*
X3776900Y1814760D01*
G01X3827700D02*
Y1798530D01*
G01X4114290Y2070840D02*
Y2134340D01*
X4088580D01*
G01X4098050Y2103650D02*
X4114290D01*
G01X4053770Y2134340D02*
X4037540D01*
G01X4045660D02*
Y2070840D01*
G01X4053770D02*
X4037540D01*
G01X4004760D02*
Y2134340D01*
X3991230D01*
X3985820Y2131160D01*
X3981760Y2126930D01*
X3978370Y2120580D01*
X3975670Y2113170D01*
X3974990Y2102590D01*
X3975670Y2092010D01*
X3978370Y2084600D01*
X3981760Y2078250D01*
X3985820Y2074010D01*
X3991230Y2070840D01*
X4004760D01*
G01X3948980Y2134340D02*
Y2088830D01*
X3946270Y2079300D01*
X3940860Y2072960D01*
X3934100Y2070840D01*
X3927330Y2072960D01*
X3921920Y2079300D01*
X3919210Y2088830D01*
Y2134340D01*
G01X3893200Y2080360D02*
X3889140Y2075070D01*
X3884400Y2071900D01*
X3878320Y2070840D01*
X3872230Y2072960D01*
X3867490Y2077190D01*
X3864110Y2084600D01*
X3863430Y2093060D01*
X3864780Y2101530D01*
X3868170Y2106820D01*
X3872900Y2111060D01*
X3877640Y2112110D01*
X3882370Y2111060D01*
X3888460Y2106820D01*
X3886430Y2134340D01*
X3868170D01*
G01X3991420Y1583020D02*
X3946520Y1627920D01*
X3934560Y1615960D01*
X3932980Y1609890D01*
X3933580Y1604500D01*
X3938610Y1597560D01*
X3945550Y1592530D01*
X3952160Y1591660D01*
X3957760Y1592760D01*
X3969710Y1604720D01*
G01X3957760Y1592760D02*
X3972280Y1563880D01*
G01X3914080Y1580520D02*
X3906720Y1582140D01*
X3901130Y1581030D01*
X3896550Y1577950D01*
X3893260Y1571670D01*
X3893660Y1564580D01*
X3897190Y1559140D01*
X3902160Y1555120D01*
X3907820Y1553300D01*
X3924870Y1555380D01*
X3934410Y1554450D01*
X3944760Y1549830D01*
X3952450Y1544050D01*
X3932360Y1523960D01*
G01X3832800Y2503640D02*
X3769300D01*
Y2486720D01*
X3772480Y2481310D01*
X3776710Y2477930D01*
X3785180Y2476570D01*
X3793640Y2477930D01*
X3798930Y2481990D01*
X3802110Y2486720D01*
Y2503640D01*
G01Y2486720D02*
X3832800Y2476570D01*
G01X3779880Y2447180D02*
X3773530Y2443120D01*
X3770360Y2438380D01*
X3769300Y2432970D01*
X3771420Y2426210D01*
X3776710Y2421470D01*
X3783060Y2420120D01*
X3789410Y2420790D01*
X3794700Y2423500D01*
X3805280Y2437030D01*
X3812690Y2443120D01*
X3823280Y2447180D01*
X3832800Y2448530D01*
Y2420120D01*
G01Y2378550D02*
X3769300D01*
X3782000Y2386660D01*
G01X3832800D02*
Y2370430D01*
G54D11*
G01X3619970Y2891660D02*
X3619470Y2894340D01*
G01X3618970D02*
X3619470Y2891660D01*
G01X3620220Y2892660D02*
X3618720D01*
G01Y2893330D02*
X3620220D01*
G01X3618170Y2892330D02*
Y2894340D01*
X3617550D01*
X3617350Y2894240D01*
X3617220Y2894110D01*
X3617170Y2893840D01*
X3617220Y2893570D01*
X3617370Y2893400D01*
X3617550Y2893300D01*
X3618170D01*
G01X3617550D02*
X3617170Y2892330D01*
G01X3615370D02*
X3616370D01*
Y2894340D01*
X3615370D01*
G01X3615770Y2893370D02*
X3616370D01*
G01X3614550Y2892330D02*
Y2894340D01*
X3613590D01*
G01X3613950Y2893370D02*
X3614550D01*
G01X3612820Y2892330D02*
Y2894340D01*
X3612320D01*
X3612120Y2894240D01*
X3611970Y2894110D01*
X3611840Y2893900D01*
X3611740Y2893670D01*
X3611720Y2893330D01*
X3611740Y2893000D01*
X3611840Y2892770D01*
X3611970Y2892560D01*
X3612120Y2892430D01*
X3612320Y2892330D01*
X3612820D01*
G01X3609970D02*
X3610970D01*
Y2894340D01*
X3609970D01*
G01X3610370Y2893370D02*
X3610970D01*
G01X3609200Y2892600D02*
X3608990Y2892430D01*
X3608770Y2892330D01*
X3608570D01*
X3608370Y2892430D01*
X3608220Y2892600D01*
X3608140Y2892830D01*
X3608190Y2893070D01*
X3608320Y2893270D01*
X3608550Y2893400D01*
X3608840Y2893470D01*
X3609020Y2893600D01*
X3609100Y2893840D01*
X3609040Y2894070D01*
X3608920Y2894240D01*
X3608750Y2894340D01*
X3608570D01*
X3608390Y2894270D01*
X3608240Y2894110D01*
G54D12*
G01X3354780Y573790D02*
X3352780Y572290D01*
X3351780Y570540D01*
X3351450Y568540D01*
X3352120Y566040D01*
X3353780Y564290D01*
X3355780Y563790D01*
X3357780Y564040D01*
X3359450Y565040D01*
X3362780Y570040D01*
X3365120Y572290D01*
X3368450Y573790D01*
X3371450Y574290D01*
Y563790D01*
G01X3469220Y566160D02*
X3449220D01*
X3453220Y569160D01*
G01X3469220D02*
Y563160D01*
G01X3513710Y381620D02*
X3493710D01*
Y376620D01*
X3494710Y374620D01*
X3496040Y373120D01*
X3498040Y371870D01*
X3500380Y370870D01*
X3503710Y370620D01*
X3507040Y370870D01*
X3509380Y371870D01*
X3511380Y373120D01*
X3512710Y374620D01*
X3513710Y376620D01*
Y381620D01*
G01X3495620Y422490D02*
X3494620Y423990D01*
X3493950Y425740D01*
Y427740D01*
X3494950Y429990D01*
X3496620Y431740D01*
X3498620Y432990D01*
X3501950Y433990D01*
X3504950Y434240D01*
X3507950Y433740D01*
X3509950Y432990D01*
X3511950Y431490D01*
X3513280Y429740D01*
X3513950Y427990D01*
Y426240D01*
X3513280Y424490D01*
X3512280Y422990D01*
X3510950Y421740D01*
G01X3503520Y474520D02*
X3502520Y473520D01*
X3500860Y472770D01*
X3498520Y472270D01*
X3496520Y472770D01*
X3495190Y473770D01*
X3494190Y475520D01*
Y482270D01*
X3514190D01*
Y474020D01*
X3512860Y472270D01*
X3510860Y471270D01*
X3508520Y470770D01*
X3506190Y471270D01*
X3504190Y472770D01*
X3503520Y474520D01*
Y482270D01*
G01X3514200Y533450D02*
X3494200Y527200D01*
X3514200Y520950D01*
G01X3507200Y523200D02*
Y531200D01*
G01X3390730Y1692840D02*
X3388400Y1694340D01*
X3387060Y1696340D01*
X3386730Y1698590D01*
X3387060Y1700590D01*
X3388730Y1702590D01*
X3390730Y1703840D01*
X3392730Y1704090D01*
X3395060Y1703590D01*
X3396730Y1701840D01*
X3397400Y1700090D01*
Y1697840D01*
G01Y1700090D02*
X3398400Y1701590D01*
X3400060Y1702840D01*
X3402060Y1703340D01*
X3404060Y1702840D01*
X3405730Y1701590D01*
X3406730Y1699340D01*
X3406400Y1697090D01*
X3405060Y1694840D01*
G01X3348400Y1693590D02*
X3350400Y1695090D01*
X3351400Y1696840D01*
X3351730Y1698840D01*
X3351060Y1701340D01*
X3349400Y1703090D01*
X3347400Y1703590D01*
X3345400Y1703340D01*
X3343730Y1702340D01*
X3340400Y1697340D01*
X3338060Y1695090D01*
X3334730Y1693590D01*
X3331730Y1693090D01*
Y1703590D01*
G01X3276730Y1698340D02*
X3296730D01*
X3292730Y1695340D01*
G01X3276730D02*
Y1701340D01*
G01X3265060Y1818840D02*
X3266060Y1817340D01*
X3266730Y1815590D01*
Y1813590D01*
X3265730Y1811340D01*
X3264060Y1809590D01*
X3262060Y1808340D01*
X3258730Y1807340D01*
X3255730Y1807090D01*
X3252730Y1807590D01*
X3250730Y1808340D01*
X3248730Y1809840D01*
X3247400Y1811590D01*
X3246730Y1813340D01*
Y1815090D01*
X3247400Y1816840D01*
X3248400Y1818340D01*
X3249730Y1819590D01*
G01X3257400Y1765340D02*
X3258400Y1766340D01*
X3260060Y1767090D01*
X3262400Y1767590D01*
X3264400Y1767090D01*
X3265730Y1766090D01*
X3266730Y1764340D01*
Y1757590D01*
X3246730D01*
Y1765840D01*
X3248060Y1767590D01*
X3250060Y1768590D01*
X3252400Y1769090D01*
X3254730Y1768590D01*
X3256730Y1767090D01*
X3257400Y1765340D01*
Y1757590D01*
G01X3246730Y1712090D02*
X3266730Y1718340D01*
X3246730Y1724590D01*
G01X3253730Y1722340D02*
Y1714340D01*
G54D13*
G01X0Y0D02*
X1100000D01*
G02X3100000I1000000J-1542012D01*
G01X4200000D01*
Y3200000D01*
X3935000D01*
Y3100000D01*
X3825000D01*
Y3200000D01*
X375000D01*
Y3100000D01*
X265000D01*
X264990Y3200000D01*
X0D01*
Y0D01*
G01X326730Y2085840D02*
G03I-140000J0D01*
G01X199730Y2354840D02*
X174730D01*
G01D02*
Y2304840D01*
G01D02*
X199730D01*
G01X204730D02*
X244730D01*
G01Y2354840D02*
X204730D01*
G01X249730Y2304840D02*
X274730D01*
G01Y2354840D02*
X249730D01*
G01X204730D02*
X199730D01*
G01X249730D02*
X244730D01*
G01Y2304840D02*
X249730D01*
G01X199730D02*
X204730D01*
G01X249730Y2354840D02*
Y2304840D01*
G01X199730D02*
Y2354840D01*
G01X1050100Y689000D02*
Y675500D01*
G01X1080100D02*
Y689000D01*
G01X1060100Y644000D02*
X1070100D01*
G01X1050100Y629000D02*
X1080100D01*
G01X1050100Y642500D02*
Y629000D01*
G01X1080100D02*
Y642500D01*
G01X1050100Y645000D02*
Y642500D01*
G01X1080100D02*
Y645000D01*
G01X1060100Y674000D02*
X1070100D01*
G01X1050100Y675500D02*
Y673000D01*
G01X1080100D02*
Y675500D01*
G01X1050100Y672600D02*
Y645400D01*
G01X1080100D02*
Y672600D01*
G01X1050200Y644000D02*
X1050100D01*
G01X1050200D02*
X1060100D01*
G01X1050100Y645000D02*
Y645400D01*
G01X1050200Y674000D02*
X1060100D01*
G01X1050100D02*
X1050200D01*
G01X1050100Y672600D02*
Y673000D01*
G01X1080000Y674000D02*
X1080100D01*
G01X1070100D02*
X1080000D01*
G01X1080100Y673000D02*
Y672600D01*
G01X1070100Y644000D02*
X1080000D01*
G01X1080100D02*
X1080000D01*
G01X1080100Y645400D02*
Y645000D01*
G01X1745700Y448800D02*
X1625700D01*
G01Y323800D02*
X1745700D01*
G01D02*
X1785700D01*
G01D02*
Y448800D01*
G01D02*
X1745700D01*
G01X1735700D02*
Y323800D01*
G01X1625700Y448800D02*
X1585700D01*
G01D02*
Y323800D01*
G01D02*
X1625700D01*
G01X1635700D02*
Y448800D01*
G01X1346730Y680840D02*
X1371730D01*
G01D02*
Y730840D01*
G01X1301730Y680840D02*
X1341730D01*
G01X1271730Y730840D02*
Y680840D01*
G01D02*
X1296730D01*
G01X1341730D02*
X1346730D01*
G01X1296730D02*
X1301730D01*
G01X1296730D02*
Y730840D01*
G01X1346730D02*
Y680840D01*
G01X1696000Y482000D02*
X1721000D01*
G01D02*
Y532000D01*
G01D02*
X1696000D01*
G01X1691000D02*
X1651000D01*
G01Y482000D02*
X1691000D01*
G01X1646000Y532000D02*
X1621000D01*
G01D02*
Y482000D01*
G01D02*
X1646000D01*
G01X1691000D02*
X1696000D01*
G01X1646000D02*
X1651000D01*
G01Y532000D02*
X1646000D01*
G01X1696000D02*
X1691000D01*
G01X1646000Y482000D02*
Y532000D01*
G01X1696000D02*
Y482000D01*
G01X1442100Y319400D02*
X1522100D01*
Y354400D01*
X1442100D01*
Y319400D01*
G01Y444400D02*
X1522100D01*
Y479400D01*
X1442100D01*
Y444400D01*
G01X1521100Y354400D02*
Y444400D01*
X1443100D01*
Y354400D01*
X1521100D01*
G01X1726730Y555840D02*
Y635840D01*
X1691730D01*
Y555840D01*
X1726730D01*
G01X1601730D02*
Y635840D01*
X1566730D01*
Y555840D01*
X1601730D01*
G01X1691730Y634840D02*
X1601730D01*
Y556840D01*
X1691730D01*
Y634840D01*
G01X1249730Y382840D02*
X1169730D01*
Y347840D01*
X1249730D01*
Y382840D01*
G01Y257840D02*
X1169730D01*
Y222840D01*
X1249730D01*
Y257840D01*
G01X1170730Y347840D02*
Y257840D01*
X1248730D01*
Y347840D01*
X1170730D01*
G01X770500Y555400D02*
Y580400D01*
G01D02*
X720500D01*
G01D02*
Y555400D01*
G01Y550400D02*
Y510400D01*
G01X770500D02*
Y550400D01*
G01X720500Y505400D02*
Y480400D01*
G01D02*
X770500D01*
G01D02*
Y505400D01*
G01Y550400D02*
Y555400D01*
G01Y505400D02*
Y510400D01*
G01X720500D02*
Y505400D01*
G01Y555400D02*
Y550400D01*
G01X770500Y505400D02*
X720500D01*
G01Y555400D02*
X770500D01*
G01X1009300Y505700D02*
X1034300D01*
G01D02*
Y555700D01*
G01D02*
X1009300D01*
G01X1004300D02*
X964300D01*
G01Y505700D02*
X1004300D01*
G01X959300Y555700D02*
X934300D01*
G01D02*
Y505700D01*
G01D02*
X959300D01*
G01X1004300D02*
X1009300D01*
G01X959300D02*
X964300D01*
G01Y555700D02*
X959300D01*
G01X1009300D02*
X1004300D01*
G01X959300Y505700D02*
Y555700D01*
G01X1009300D02*
Y505700D01*
G01X635000Y595000D02*
Y570000D01*
G01D02*
X685000D01*
G01D02*
Y595000D01*
G01Y600000D02*
Y640000D01*
G01X635000D02*
Y600000D01*
G01X685000Y645000D02*
Y670000D01*
G01D02*
X635000D01*
G01D02*
Y645000D01*
G01Y600000D02*
Y595000D01*
G01Y645000D02*
Y640000D01*
G01X685000D02*
Y645000D01*
G01Y595000D02*
Y600000D01*
G01X635000Y645000D02*
X685000D01*
G01Y595000D02*
X635000D01*
G01X1170600Y455200D02*
X1250600D01*
Y490200D01*
X1170600D01*
Y455200D01*
G01Y580200D02*
X1250600D01*
Y615200D01*
X1170600D01*
Y580200D01*
G01X1249600Y490200D02*
Y580200D01*
X1171600D01*
Y490200D01*
X1249600D01*
G01X1411730Y687840D02*
Y647840D01*
G01X1461730D02*
Y687840D01*
G01X1411730Y642840D02*
Y617840D01*
G01D02*
X1461730D01*
G01D02*
Y642840D01*
G01D02*
Y647840D01*
G01X1411730D02*
Y642840D01*
G01X1461730D02*
X1411730D01*
G01X1013400Y611600D02*
X924600D01*
G01D02*
Y700400D01*
G01X1013400D02*
Y611600D01*
G01X1010160Y627470D02*
G03I-12495J-4D01*
G01X689100Y1833810D02*
X889100D01*
G01D02*
Y1633810D01*
G01D02*
X689100D01*
G01D02*
Y1833810D01*
G01X726600Y1808810D02*
G03I-12500J0D01*
G01X831300Y1280300D02*
Y1350300D01*
G01X811300Y1280300D02*
X831300D01*
G01Y1350300D02*
X811300D01*
G01X661300Y1280300D02*
Y1350300D01*
G01X681300Y1280300D02*
X661300D01*
G01Y1350300D02*
X681300D01*
G01Y1355300D02*
X811300D01*
G01D02*
Y1275300D01*
G01X807300Y1351300D02*
X811300Y1355300D01*
G01Y1275300D02*
X681300D01*
G01X807300Y1279300D02*
X811300Y1275300D01*
G01X685300Y1279300D02*
X807300D01*
G01D02*
Y1351300D01*
G01D02*
X707300D01*
G01X684600Y1352000D02*
X681300Y1355300D01*
G01Y1275300D02*
Y1355300D01*
G01X685300Y1279300D02*
X681300Y1275300D01*
G01X685300Y1329300D02*
Y1279300D01*
G01X708000Y1352000D02*
X684600D01*
G01D02*
Y1328600D01*
G01X685300Y1329300D02*
X707300Y1351300D01*
G01D02*
X708000Y1352000D01*
G01X684600Y1328600D02*
X685300Y1329300D01*
G01X1319730Y1060840D02*
Y1030840D01*
G01Y1060840D02*
X1306230D01*
G01Y1030840D02*
X1319730D01*
G01X1274730Y1050840D02*
Y1040840D01*
G01X1259730Y1060840D02*
Y1030840D01*
G01X1273230Y1060840D02*
X1259730D01*
G01Y1030840D02*
X1273230D01*
G01X1275730Y1060840D02*
X1273230D01*
G01Y1030840D02*
X1275730D01*
G01X1304730Y1050840D02*
Y1040840D01*
G01X1306230Y1060840D02*
X1303730D01*
G01Y1030840D02*
X1306230D01*
G01X1303330Y1060840D02*
X1276130D01*
G01Y1030840D02*
X1303330D01*
G01X1274730Y1060740D02*
Y1060840D01*
G01Y1060740D02*
Y1050840D01*
G01X1275730Y1060840D02*
X1276130D01*
G01X1304730Y1060740D02*
Y1050840D01*
G01Y1060840D02*
Y1060740D01*
G01X1303330Y1060840D02*
X1303730D01*
G01X1304730Y1030940D02*
Y1030840D01*
G01Y1040840D02*
Y1030940D01*
G01X1303730Y1030840D02*
X1303330D01*
G01X1274730Y1040840D02*
Y1030940D01*
G01Y1030840D02*
Y1030940D01*
G01X1276130Y1030840D02*
X1275730D01*
G01X1615500Y1561300D02*
X1645500D01*
G01X1615500D02*
Y1547800D01*
G01X1645500D02*
Y1561300D01*
G01X1625500Y1516300D02*
X1635500D01*
G01X1615500Y1501300D02*
X1645500D01*
G01X1615500Y1514800D02*
Y1501300D01*
G01X1645500D02*
Y1514800D01*
G01X1615500Y1517300D02*
Y1514800D01*
G01X1645500D02*
Y1517300D01*
G01X1625500Y1546300D02*
X1635500D01*
G01X1615500Y1547800D02*
Y1545300D01*
G01X1645500D02*
Y1547800D01*
G01X1615500Y1544900D02*
Y1517700D01*
G01X1645500D02*
Y1544900D01*
G01X1615600Y1516300D02*
X1615500D01*
G01X1615600D02*
X1625500D01*
G01X1615500Y1517300D02*
Y1517700D01*
G01X1615600Y1546300D02*
X1625500D01*
G01X1615500D02*
X1615600D01*
G01X1615500Y1544900D02*
Y1545300D01*
G01X1645400Y1546300D02*
X1645500D01*
G01X1635500D02*
X1645400D01*
G01X1645500Y1545300D02*
Y1544900D01*
G01X1635500Y1516300D02*
X1645400D01*
G01X1645500D02*
X1645400D01*
G01X1645500Y1517700D02*
Y1517300D01*
G01X1710000Y1561300D02*
X1740000D01*
G01X1710000D02*
Y1547800D01*
G01X1740000D02*
Y1561300D01*
G01X1720000Y1516300D02*
X1730000D01*
G01X1710000Y1501300D02*
X1740000D01*
G01X1710000Y1514800D02*
Y1501300D01*
G01X1740000D02*
Y1514800D01*
G01X1710000Y1517300D02*
Y1514800D01*
G01X1740000D02*
Y1517300D01*
G01X1720000Y1546300D02*
X1730000D01*
G01X1710000Y1547800D02*
Y1545300D01*
G01X1740000D02*
Y1547800D01*
G01X1710000Y1544900D02*
Y1517700D01*
G01X1740000D02*
Y1544900D01*
G01X1710100Y1516300D02*
X1710000D01*
G01X1710100D02*
X1720000D01*
G01X1710000Y1517300D02*
Y1517700D01*
G01X1710100Y1546300D02*
X1720000D01*
G01X1710000D02*
X1710100D01*
G01X1710000Y1544900D02*
Y1545300D01*
G01X1739900Y1546300D02*
X1740000D01*
G01X1730000D02*
X1739900D01*
G01X1740000Y1545300D02*
Y1544900D01*
G01X1730000Y1516300D02*
X1739900D01*
G01X1740000D02*
X1739900D01*
G01X1740000Y1517700D02*
Y1517300D01*
G01X596700Y1819300D02*
Y1849300D01*
G01Y1819300D02*
X610200D01*
G01Y1849300D02*
X596700D01*
G01X641700Y1829300D02*
Y1839300D01*
G01X656700Y1819300D02*
Y1849300D01*
G01X643200Y1819300D02*
X656700D01*
G01Y1849300D02*
X643200D01*
G01X640700Y1819300D02*
X643200D01*
G01Y1849300D02*
X640700D01*
G01X611700Y1829300D02*
Y1839300D01*
G01X610200Y1819300D02*
X612700D01*
G01Y1849300D02*
X610200D01*
G01X613100Y1819300D02*
X640300D01*
G01Y1849300D02*
X613100D01*
G01X641700Y1819400D02*
Y1819300D01*
G01Y1819400D02*
Y1829300D01*
G01X640700Y1819300D02*
X640300D01*
G01X611700Y1819400D02*
Y1829300D01*
G01Y1819300D02*
Y1819400D01*
G01X613100Y1819300D02*
X612700D01*
G01X611700Y1849200D02*
Y1849300D01*
G01Y1839300D02*
Y1849200D01*
G01X612700Y1849300D02*
X613100D01*
G01X641700Y1839300D02*
Y1849200D01*
G01Y1849300D02*
Y1849200D01*
G01X640300Y1849300D02*
X640700D01*
G01X698730Y1915840D02*
Y1945840D01*
G01Y1915840D02*
X712230D01*
G01Y1945840D02*
X698730D01*
G01X743730Y1925840D02*
Y1935840D01*
G01X758730Y1915840D02*
Y1945840D01*
G01X745230Y1915840D02*
X758730D01*
G01Y1945840D02*
X745230D01*
G01X742730Y1915840D02*
X745230D01*
G01Y1945840D02*
X742730D01*
G01X713730Y1925840D02*
Y1935840D01*
G01X712230Y1915840D02*
X714730D01*
G01Y1945840D02*
X712230D01*
G01X715130Y1915840D02*
X742330D01*
G01Y1945840D02*
X715130D01*
G01X743730Y1915940D02*
Y1915840D01*
G01Y1915940D02*
Y1925840D01*
G01X742730Y1915840D02*
X742330D01*
G01X713730Y1915940D02*
Y1925840D01*
G01Y1915840D02*
Y1915940D01*
G01X715130Y1915840D02*
X714730D01*
G01X713730Y1945740D02*
Y1945840D01*
G01Y1935840D02*
Y1945740D01*
G01X714730Y1945840D02*
X715130D01*
G01X743730Y1935840D02*
Y1945740D01*
G01Y1945840D02*
Y1945740D01*
G01X742330Y1945840D02*
X742730D01*
G01X944730Y1950840D02*
Y1920840D01*
G01Y1950840D02*
X931230D01*
G01Y1920840D02*
X944730D01*
G01X899730Y1940840D02*
Y1930840D01*
G01X884730Y1950840D02*
Y1920840D01*
G01X898230Y1950840D02*
X884730D01*
G01Y1920840D02*
X898230D01*
G01X900730Y1950840D02*
X898230D01*
G01Y1920840D02*
X900730D01*
G01X929730Y1940840D02*
Y1930840D01*
G01X931230Y1950840D02*
X928730D01*
G01Y1920840D02*
X931230D01*
G01X928330Y1950840D02*
X901130D01*
G01Y1920840D02*
X928330D01*
G01X899730Y1950740D02*
Y1950840D01*
G01Y1950740D02*
Y1940840D01*
G01X900730Y1950840D02*
X901130D01*
G01X929730Y1950740D02*
Y1940840D01*
G01Y1950840D02*
Y1950740D01*
G01X928330Y1950840D02*
X928730D01*
G01X929730Y1920940D02*
Y1920840D01*
G01Y1930840D02*
Y1920940D01*
G01X928730Y1920840D02*
X928330D01*
G01X899730Y1930840D02*
Y1920940D01*
G01Y1920840D02*
Y1920940D01*
G01X901130Y1920840D02*
X900730D01*
G01X1050100Y689000D02*
X1080100D01*
G01X831000Y1432800D02*
Y1502800D01*
G01X811000Y1432800D02*
X831000D01*
G01Y1502800D02*
X811000D01*
G01X661000Y1432800D02*
Y1502800D01*
G01X681000Y1432800D02*
X661000D01*
G01Y1502800D02*
X681000D01*
G01Y1507800D02*
X811000D01*
G01D02*
Y1427800D01*
G01X807000Y1503800D02*
X811000Y1507800D01*
G01Y1427800D02*
X681000D01*
G01X807000Y1431800D02*
X811000Y1427800D01*
G01X685000Y1431800D02*
X807000D01*
G01D02*
Y1503800D01*
G01D02*
X707000D01*
G01X684300Y1504500D02*
X681000Y1507800D01*
G01Y1427800D02*
Y1507800D01*
G01X685000Y1431800D02*
X681000Y1427800D01*
G01X685000Y1481800D02*
Y1431800D01*
G01X707700Y1504500D02*
X684300D01*
G01D02*
Y1481100D01*
G01X685000Y1481800D02*
X707000Y1503800D01*
G01D02*
X707700Y1504500D01*
G01X684300Y1481100D02*
X685000Y1481800D01*
G01X1436600Y1450800D02*
X1411600D01*
G01D02*
Y1400800D01*
G01D02*
X1436600D01*
G01X1441600D02*
X1481600D01*
G01Y1450800D02*
X1441600D01*
G01X1486600Y1400800D02*
X1511600D01*
G01D02*
Y1450800D01*
G01D02*
X1486600D01*
G01X1441600D02*
X1436600D01*
G01X1486600D02*
X1481600D01*
G01Y1400800D02*
X1486600D01*
G01X1436600D02*
X1441600D01*
G01X1486600Y1450800D02*
Y1400800D01*
G01X1436600D02*
Y1450800D01*
G01X1486400Y1473000D02*
X1511400D01*
G01D02*
Y1523000D01*
G01D02*
X1486400D01*
G01X1481400D02*
X1441400D01*
G01Y1473000D02*
X1481400D01*
G01X1436400Y1523000D02*
X1411400D01*
G01D02*
Y1473000D01*
G01D02*
X1436400D01*
G01X1481400D02*
X1486400D01*
G01X1436400D02*
X1441400D01*
G01Y1523000D02*
X1436400D01*
G01X1486400D02*
X1481400D01*
G01X1436400Y1473000D02*
Y1523000D01*
G01X1486400D02*
Y1473000D01*
G01X1381730Y1195840D02*
X1406730D01*
G01D02*
Y1245840D01*
G01D02*
X1381730D01*
G01X1376730D02*
X1336730D01*
G01Y1195840D02*
X1376730D01*
G01X1331730Y1245840D02*
X1306730D01*
G01D02*
Y1195840D01*
G01D02*
X1331730D01*
G01X1376730D02*
X1381730D01*
G01X1331730D02*
X1336730D01*
G01Y1245840D02*
X1331730D01*
G01X1381730D02*
X1376730D01*
G01X1331730Y1195840D02*
Y1245840D01*
G01X1381730D02*
Y1195840D01*
G01X1605730Y1704840D02*
Y1679840D01*
G01D02*
X1655730D01*
G01D02*
Y1704840D01*
G01Y1709840D02*
Y1749840D01*
G01X1605730D02*
Y1709840D01*
G01X1655730Y1754840D02*
Y1779840D01*
G01D02*
X1605730D01*
G01D02*
Y1754840D01*
G01Y1709840D02*
Y1704840D01*
G01Y1754840D02*
Y1749840D01*
G01X1655730D02*
Y1754840D01*
G01Y1704840D02*
Y1709840D01*
G01X1605730Y1754840D02*
X1655730D01*
G01Y1704840D02*
X1605730D01*
G01X1371730Y730840D02*
X1346730D01*
G01X1341730D02*
X1301730D01*
G01X1296730D02*
X1271730D01*
G01X1301730D02*
X1296730D01*
G01X1346730D02*
X1341730D01*
G01X1789730Y1595840D02*
X1814730D01*
G01D02*
Y1645840D01*
G01D02*
X1789730D01*
G01X1784730D02*
X1744730D01*
G01Y1595840D02*
X1784730D01*
G01X1739730Y1645840D02*
X1714730D01*
G01D02*
Y1595840D01*
G01D02*
X1739730D01*
G01X1784730D02*
X1789730D01*
G01X1739730D02*
X1744730D01*
G01Y1645840D02*
X1739730D01*
G01X1789730D02*
X1784730D01*
G01X1739730Y1595840D02*
Y1645840D01*
G01X1789730D02*
Y1595840D01*
G01X1128400Y1681900D02*
X1103400D01*
G01D02*
Y1631900D01*
G01D02*
X1128400D01*
G01X1133400D02*
X1173400D01*
G01Y1681900D02*
X1133400D01*
G01X1178400Y1631900D02*
X1203400D01*
G01D02*
Y1681900D01*
G01D02*
X1178400D01*
G01X1133400D02*
X1128400D01*
G01X1178400D02*
X1173400D01*
G01Y1631900D02*
X1178400D01*
G01X1128400D02*
X1133400D01*
G01X1178400Y1681900D02*
Y1631900D01*
G01X1128400D02*
Y1681900D01*
G01X1819730Y1817840D02*
X1844730D01*
G01D02*
Y1867840D01*
G01D02*
X1819730D01*
G01X1814730D02*
X1774730D01*
G01Y1817840D02*
X1814730D01*
G01X1769730Y1867840D02*
X1744730D01*
G01D02*
Y1817840D01*
G01D02*
X1769730D01*
G01X1814730D02*
X1819730D01*
G01X1769730D02*
X1774730D01*
G01Y1867840D02*
X1769730D01*
G01X1819730D02*
X1814730D01*
G01X1769730Y1817840D02*
Y1867840D01*
G01X1819730D02*
Y1817840D01*
G01X1532730Y1947840D02*
X1507730D01*
G01D02*
Y1897840D01*
G01D02*
X1532730D01*
G01X1537730D02*
X1577730D01*
G01Y1947840D02*
X1537730D01*
G01X1582730Y1897840D02*
X1607730D01*
G01D02*
Y1947840D01*
G01D02*
X1582730D01*
G01X1537730D02*
X1532730D01*
G01X1582730D02*
X1577730D01*
G01Y1897840D02*
X1582730D01*
G01X1532730D02*
X1537730D01*
G01X1582730Y1947840D02*
Y1897840D01*
G01X1532730D02*
Y1947840D01*
G01X1081730Y1172840D02*
X1106730D01*
G01D02*
Y1222840D01*
G01D02*
X1081730D01*
G01X1076730D02*
X1036730D01*
G01Y1172840D02*
X1076730D01*
G01X1031730Y1222840D02*
X1006730D01*
G01D02*
Y1172840D01*
G01D02*
X1031730D01*
G01X1076730D02*
X1081730D01*
G01X1031730D02*
X1036730D01*
G01Y1222840D02*
X1031730D01*
G01X1081730D02*
X1076730D01*
G01X1031730Y1172840D02*
Y1222840D01*
G01X1081730D02*
Y1172840D01*
G01X1500600Y2285000D02*
Y2260000D01*
G01D02*
X1550600D01*
G01D02*
Y2285000D01*
G01Y2290000D02*
Y2330000D01*
G01X1500600D02*
Y2290000D01*
G01X1550600Y2335000D02*
Y2360000D01*
G01D02*
X1500600D01*
G01D02*
Y2335000D01*
G01Y2290000D02*
Y2285000D01*
G01Y2335000D02*
Y2330000D01*
G01X1550600D02*
Y2335000D01*
G01Y2285000D02*
Y2290000D01*
G01X1500600Y2335000D02*
X1550600D01*
G01Y2285000D02*
X1500600D01*
G01X1351730Y1125840D02*
X1376730D01*
G01D02*
Y1175840D01*
G01D02*
X1351730D01*
G01X1346730D02*
X1306730D01*
G01Y1125840D02*
X1346730D01*
G01X1301730Y1175840D02*
X1276730D01*
G01D02*
Y1125840D01*
G01D02*
X1301730D01*
G01X1346730D02*
X1351730D01*
G01X1301730D02*
X1306730D01*
G01Y1175840D02*
X1301730D01*
G01X1351730D02*
X1346730D01*
G01X1301730Y1125840D02*
Y1175840D01*
G01X1351730D02*
Y1125840D01*
G01X976900Y754700D02*
X1001900D01*
G01D02*
Y804700D01*
G01D02*
X976900D01*
G01X971900D02*
X931900D01*
G01Y754700D02*
X971900D01*
G01X926900Y804700D02*
X901900D01*
G01D02*
Y754700D01*
G01D02*
X926900D01*
G01X971900D02*
X976900D01*
G01X926900D02*
X931900D01*
G01Y804700D02*
X926900D01*
G01X976900D02*
X971900D01*
G01X926900Y754700D02*
Y804700D01*
G01X976900D02*
Y754700D01*
G01X892100Y2161340D02*
X892290D01*
X892490Y2161330D01*
X892680Y2161320D01*
X892880Y2161310D01*
X893080Y2161290D01*
X893270Y2161270D01*
X893470Y2161240D01*
X893670Y2161210D01*
X893870Y2161180D01*
X894070Y2161140D01*
X894270Y2161100D01*
X894460Y2161050D01*
X894660Y2161000D01*
X894860Y2160950D01*
X895050Y2160890D01*
X895240Y2160830D01*
X895440Y2160770D01*
X895630Y2160700D01*
X895820Y2160620D01*
X896010Y2160540D01*
X896190Y2160460D01*
X896380Y2160380D01*
X896560Y2160290D01*
X896740Y2160200D01*
X896920Y2160100D01*
X897100Y2160000D01*
X897270Y2159900D01*
X897440Y2159790D01*
X897610Y2159680D01*
X897780Y2159570D01*
X897940Y2159460D01*
X898100Y2159340D01*
X898200Y2159270D01*
X898300Y2159190D01*
X898390Y2159110D01*
X898490Y2159030D01*
X898580Y2158960D01*
X898670Y2158880D01*
X898770Y2158790D01*
X898860Y2158710D01*
X898950Y2158630D01*
X899040Y2158540D01*
X899130Y2158450D01*
X899210Y2158370D01*
X899300Y2158280D01*
X899390Y2158190D01*
X899470Y2158100D01*
X899550Y2158010D01*
X899640Y2157910D01*
X899720Y2157820D01*
X899790Y2157730D01*
X899870Y2157630D01*
X899950Y2157540D01*
X900030Y2157440D01*
X900100Y2157340D01*
X900220Y2157180D01*
X900330Y2157020D01*
X900440Y2156850D01*
X900550Y2156680D01*
X900660Y2156510D01*
X900760Y2156340D01*
X900860Y2156160D01*
X900960Y2155980D01*
X901050Y2155800D01*
X901140Y2155620D01*
X901220Y2155430D01*
X901300Y2155250D01*
X901380Y2155060D01*
X901460Y2154870D01*
X901530Y2154680D01*
X901590Y2154480D01*
X901650Y2154290D01*
X901710Y2154100D01*
X901760Y2153900D01*
X901810Y2153700D01*
X901860Y2153510D01*
X901900Y2153310D01*
X901940Y2153110D01*
X901970Y2152910D01*
X902000Y2152710D01*
X902030Y2152510D01*
X902050Y2152320D01*
X902070Y2152120D01*
X902080Y2151920D01*
X902090Y2151730D01*
X902100Y2151530D01*
Y2151340D01*
Y1996340D01*
Y1996150D01*
X902090Y1995950D01*
X902080Y1995760D01*
X902070Y1995560D01*
X902050Y1995360D01*
X902030Y1995170D01*
X902000Y1994970D01*
X901970Y1994770D01*
X901940Y1994570D01*
X901900Y1994370D01*
X901860Y1994170D01*
X901810Y1993980D01*
X901760Y1993780D01*
X901710Y1993580D01*
X901650Y1993390D01*
X901590Y1993200D01*
X901530Y1993000D01*
X901460Y1992810D01*
X901380Y1992620D01*
X901300Y1992430D01*
X901220Y1992250D01*
X901140Y1992060D01*
X901050Y1991880D01*
X900960Y1991700D01*
X900860Y1991520D01*
X900760Y1991340D01*
X900660Y1991170D01*
X900550Y1991000D01*
X900440Y1990830D01*
X900330Y1990660D01*
X900220Y1990500D01*
X900100Y1990340D01*
X900030Y1990240D01*
X899950Y1990140D01*
X899870Y1990050D01*
X899790Y1989950D01*
X899720Y1989860D01*
X899640Y1989770D01*
X899550Y1989670D01*
X899470Y1989580D01*
X899390Y1989490D01*
X899300Y1989400D01*
X899210Y1989310D01*
X899130Y1989230D01*
X899040Y1989140D01*
X898950Y1989050D01*
X898860Y1988970D01*
X898770Y1988890D01*
X898670Y1988800D01*
X898580Y1988720D01*
X898490Y1988650D01*
X898390Y1988570D01*
X898300Y1988490D01*
X898200Y1988410D01*
X898100Y1988340D01*
X897940Y1988220D01*
X897780Y1988110D01*
X897610Y1988000D01*
X897440Y1987890D01*
X897270Y1987780D01*
X897100Y1987680D01*
X896920Y1987580D01*
X896740Y1987480D01*
X896560Y1987390D01*
X896380Y1987300D01*
X896190Y1987220D01*
X896010Y1987140D01*
X895820Y1987060D01*
X895630Y1986980D01*
X895440Y1986910D01*
X895240Y1986850D01*
X895050Y1986790D01*
X894860Y1986730D01*
X894660Y1986680D01*
X894460Y1986630D01*
X894270Y1986580D01*
X894070Y1986540D01*
X893870Y1986500D01*
X893670Y1986470D01*
X893470Y1986440D01*
X893270Y1986410D01*
X893080Y1986390D01*
X892880Y1986370D01*
X892680Y1986360D01*
X892490Y1986350D01*
X892290Y1986340D01*
X892100D01*
X687100D01*
X686910D01*
X686710Y1986350D01*
X686520Y1986360D01*
X686320Y1986370D01*
X686120Y1986390D01*
X685930Y1986410D01*
X685730Y1986440D01*
X685530Y1986470D01*
X685330Y1986500D01*
X685130Y1986540D01*
X684930Y1986580D01*
X684740Y1986630D01*
X684540Y1986680D01*
X684340Y1986730D01*
X684150Y1986790D01*
X683960Y1986850D01*
X683760Y1986910D01*
X683570Y1986980D01*
X683380Y1987060D01*
X683190Y1987140D01*
X683010Y1987220D01*
X682820Y1987300D01*
X682640Y1987390D01*
X682460Y1987480D01*
X682280Y1987580D01*
X682100Y1987680D01*
X681930Y1987780D01*
X681760Y1987890D01*
X681590Y1988000D01*
X681420Y1988110D01*
X681260Y1988220D01*
X681100Y1988340D01*
X681000Y1988410D01*
X680900Y1988490D01*
X680810Y1988570D01*
X680710Y1988650D01*
X680620Y1988720D01*
X680530Y1988800D01*
X680430Y1988890D01*
X680340Y1988970D01*
X680250Y1989050D01*
X680160Y1989140D01*
X680070Y1989230D01*
X679990Y1989310D01*
X679900Y1989400D01*
X679810Y1989490D01*
X679730Y1989580D01*
X679650Y1989670D01*
X679560Y1989770D01*
X679480Y1989860D01*
X679410Y1989950D01*
X679330Y1990050D01*
X679250Y1990140D01*
X679170Y1990240D01*
X679100Y1990340D01*
X678980Y1990500D01*
X678870Y1990660D01*
X678760Y1990830D01*
X678650Y1991000D01*
X678540Y1991170D01*
X678440Y1991340D01*
X678340Y1991520D01*
X678240Y1991700D01*
X678150Y1991880D01*
X678060Y1992060D01*
X677980Y1992250D01*
X677900Y1992430D01*
X677820Y1992620D01*
X677740Y1992810D01*
X677670Y1993000D01*
X677610Y1993200D01*
X677550Y1993390D01*
X677490Y1993580D01*
X677440Y1993780D01*
X677390Y1993980D01*
X677340Y1994170D01*
X677300Y1994370D01*
X677260Y1994570D01*
X677230Y1994770D01*
X677200Y1994970D01*
X677170Y1995170D01*
X677150Y1995360D01*
X677130Y1995560D01*
X677120Y1995760D01*
X677110Y1995950D01*
X677100Y1996150D01*
Y1996340D01*
Y2151340D01*
Y2151530D01*
X677110Y2151730D01*
X677120Y2151920D01*
X677130Y2152120D01*
X677150Y2152320D01*
X677170Y2152510D01*
X677200Y2152710D01*
X677230Y2152910D01*
X677260Y2153110D01*
X677300Y2153310D01*
X677340Y2153510D01*
X677390Y2153700D01*
X677440Y2153900D01*
X677490Y2154100D01*
X677550Y2154290D01*
X677610Y2154480D01*
X677670Y2154680D01*
X677740Y2154870D01*
X677820Y2155060D01*
X677900Y2155250D01*
X677980Y2155430D01*
X678060Y2155620D01*
X678150Y2155800D01*
X678240Y2155980D01*
X678340Y2156160D01*
X678440Y2156340D01*
X678540Y2156510D01*
X678650Y2156680D01*
X678760Y2156850D01*
X678870Y2157020D01*
X678980Y2157180D01*
X679100Y2157340D01*
X679170Y2157440D01*
X679250Y2157540D01*
X679330Y2157630D01*
X679410Y2157730D01*
X679480Y2157820D01*
X679560Y2157910D01*
X679650Y2158010D01*
X679730Y2158100D01*
X679810Y2158190D01*
X679900Y2158280D01*
X679990Y2158370D01*
X680070Y2158450D01*
X680160Y2158540D01*
X680250Y2158630D01*
X680340Y2158710D01*
X680430Y2158790D01*
X680530Y2158880D01*
X680620Y2158960D01*
X680710Y2159030D01*
X680810Y2159110D01*
X680900Y2159190D01*
X681000Y2159270D01*
X681100Y2159340D01*
X681260Y2159460D01*
X681420Y2159570D01*
X681590Y2159680D01*
X681760Y2159790D01*
X681930Y2159900D01*
X682100Y2160000D01*
X682280Y2160100D01*
X682460Y2160200D01*
X682640Y2160290D01*
X682820Y2160380D01*
X683010Y2160460D01*
X683190Y2160540D01*
X683380Y2160620D01*
X683570Y2160700D01*
X683760Y2160770D01*
X683960Y2160830D01*
X684150Y2160890D01*
X684340Y2160950D01*
X684540Y2161000D01*
X684740Y2161050D01*
X684930Y2161100D01*
X685130Y2161140D01*
X685330Y2161180D01*
X685530Y2161210D01*
X685730Y2161240D01*
X685930Y2161270D01*
X686120Y2161290D01*
X686320Y2161310D01*
X686520Y2161320D01*
X686710Y2161330D01*
X686910Y2161340D01*
X687100D01*
X892100D01*
G01X664600Y1973840D02*
Y2173840D01*
G01D02*
X914600D01*
G01X882100Y1996340D02*
X697100D01*
G01X722100Y2021340D02*
X857100D01*
G01Y2126340D02*
G02X867100Y2116340I0J-10000D01*
G01X857100Y2126340D02*
X722100D01*
G01X712100Y2116340D02*
G02X722100Y2126340I10000J0D01*
G01X712100Y2116340D02*
Y2031340D01*
G01X852100Y2091340D02*
G03I-20000J0D01*
G01X722100Y2021340D02*
G02X712100Y2031340I0J10000D01*
G01X867100D02*
Y2116340D01*
G01Y2031340D02*
G02X857100Y2021340I-10000J0D01*
G01X687100Y2141340D02*
G02X697100Y2151340I10000J0D01*
G01X687100Y2006340D02*
Y2141340D01*
G01X697100Y1996340D02*
G02X687100Y2006340I0J10000D01*
G01X892100D02*
G02X882100Y1996340I-10000J0D01*
G01X892100Y2141340D02*
Y2006340D01*
G01X697100Y2151340D02*
X882100D01*
G01D02*
G02X892100Y2141340I0J-10000D01*
G01X914600Y1973840D02*
X664600D01*
G01X914600Y2173840D02*
Y1973840D01*
G01X698400Y863800D02*
X668400D01*
G01X698400D02*
Y877300D01*
G01X668400D02*
Y863800D01*
G01X688400Y908800D02*
X678400D01*
G01X698400Y923800D02*
X668400D01*
G01X698400Y910300D02*
Y923800D01*
G01X668400D02*
Y910300D01*
G01X698400Y907800D02*
Y910300D01*
G01X668400D02*
Y907800D01*
G01X688400Y878800D02*
X678400D01*
G01X698400Y877300D02*
Y879800D01*
G01X668400D02*
Y877300D01*
G01X698400Y880200D02*
Y907400D01*
G01X668400D02*
Y880200D01*
G01X698300Y908800D02*
X698400D01*
G01X698300D02*
X688400D01*
G01X698400Y907800D02*
Y907400D01*
G01X698300Y878800D02*
X688400D01*
G01X698400D02*
X698300D01*
G01X698400Y880200D02*
Y879800D01*
G01X668500Y878800D02*
X668400D01*
G01X678400D02*
X668500D01*
G01X668400Y879800D02*
Y880200D01*
G01X678400Y908800D02*
X668500D01*
G01X668400D02*
X668500D01*
G01X668400Y907400D02*
Y907800D01*
G01X274730Y2304840D02*
Y2354840D01*
G01X1676730Y1355840D02*
G03I-25000J0D01*
G01X2276730Y1423340D02*
X1576730D01*
G01Y723340D02*
X2276730D01*
G01X1576730Y1423340D02*
Y723340D01*
G01X1671900Y2390700D02*
X1696900D01*
G01D02*
Y2440700D01*
G01X1626900Y2390700D02*
X1666900D01*
G01X1596900Y2440700D02*
Y2390700D01*
G01D02*
X1621900D01*
G01X1666900D02*
X1671900D01*
G01X1621900D02*
X1626900D01*
G01X1621900D02*
Y2440700D01*
G01X1671900D02*
Y2390700D01*
G01X538880Y1377670D02*
X521210Y1395350D01*
G01D02*
X485850Y1359990D01*
G01D02*
X503530Y1342320D01*
G01X507060Y1338780D02*
X535350Y1310500D01*
G01X570700Y1345850D02*
X542420Y1374140D01*
G01X538880Y1306960D02*
X556560Y1289280D01*
G01D02*
X591920Y1324640D01*
G01D02*
X574240Y1342320D01*
G01X542420Y1374140D02*
X538880Y1377670D01*
G01X574240Y1342320D02*
X570700Y1345850D01*
G01X535350Y1310500D02*
X538880Y1306960D01*
G01X503530Y1342320D02*
X507060Y1338780D01*
G01X574240Y1342320D02*
X538880Y1306960D01*
G01X503530Y1342320D02*
X538880Y1377670D01*
G01X582800Y1595500D02*
X557800D01*
G01D02*
Y1545500D01*
G01D02*
X582800D01*
G01X587800D02*
X627800D01*
G01Y1595500D02*
X587800D01*
G01X632800Y1545500D02*
X657800D01*
G01D02*
Y1595500D01*
G01D02*
X632800D01*
G01X587800D02*
X582800D01*
G01X632800D02*
X627800D01*
G01Y1545500D02*
X632800D01*
G01X582800D02*
X587800D01*
G01X632800Y1595500D02*
Y1545500D01*
G01X582800D02*
Y1595500D01*
G01X1461730Y692840D02*
Y717840D01*
G01D02*
X1411730D01*
G01D02*
Y692840D01*
G01X1461730Y687840D02*
Y692840D01*
G01X1411730D02*
Y687840D01*
G01Y692840D02*
X1461730D01*
G01X1731730Y1935840D02*
Y1910840D01*
G01D02*
X1781730D01*
G01D02*
Y1935840D01*
G01Y1940840D02*
Y1980840D01*
G01X1731730D02*
Y1940840D01*
G01X1781730Y1985840D02*
Y2010840D01*
G01D02*
X1731730D01*
G01D02*
Y1985840D01*
G01Y1940840D02*
Y1935840D01*
G01Y1985840D02*
Y1980840D01*
G01X1781730D02*
Y1985840D01*
G01Y1935840D02*
Y1940840D01*
G01X1731730Y1985840D02*
X1781730D01*
G01Y1935840D02*
X1731730D01*
G01X1651730Y1857840D02*
Y1832840D01*
G01D02*
X1701730D01*
G01D02*
Y1857840D01*
G01Y1862840D02*
Y1902840D01*
G01X1651730D02*
Y1862840D01*
G01X1701730Y1907840D02*
Y1932840D01*
G01D02*
X1651730D01*
G01D02*
Y1907840D01*
G01Y1862840D02*
Y1857840D01*
G01Y1907840D02*
Y1902840D01*
G01X1701730D02*
Y1907840D01*
G01Y1857840D02*
Y1862840D01*
G01X1651730Y1907840D02*
X1701730D01*
G01Y1857840D02*
X1651730D01*
G01X1615730Y1594840D02*
X1640730D01*
G01D02*
Y1644840D01*
G01D02*
X1615730D01*
G01X1610730D02*
X1570730D01*
G01Y1594840D02*
X1610730D01*
G01X1565730Y1644840D02*
X1540730D01*
G01D02*
Y1594840D01*
G01D02*
X1565730D01*
G01X1610730D02*
X1615730D01*
G01X1565730D02*
X1570730D01*
G01Y1644840D02*
X1565730D01*
G01X1615730D02*
X1610730D01*
G01X1565730Y1594840D02*
Y1644840D01*
G01X1615730D02*
Y1594840D01*
G01X1699730Y1705840D02*
Y1680840D01*
G01D02*
X1749730D01*
G01D02*
Y1705840D01*
G01Y1710840D02*
Y1750840D01*
G01X1699730D02*
Y1710840D01*
G01X1749730Y1755840D02*
Y1780840D01*
G01D02*
X1699730D01*
G01D02*
Y1755840D01*
G01Y1710840D02*
Y1705840D01*
G01Y1755840D02*
Y1750840D01*
G01X1749730D02*
Y1755840D01*
G01Y1705840D02*
Y1710840D01*
G01X1699730Y1755840D02*
X1749730D01*
G01Y1705840D02*
X1699730D01*
G01X1733730Y2084840D02*
Y2079840D01*
G01X1773730Y2084840D02*
Y2079840D01*
G01X1733730D02*
X1773730D01*
G01X1778730Y2084840D02*
X1838730D01*
G01X1668730D02*
X1728730D01*
G01X1868730D02*
X1888730D01*
G01D02*
Y2349840D01*
G01X1638730Y2084840D02*
X1668730D01*
G01X1728730D02*
X1778730D01*
G01X1838730D02*
X1868730D01*
G01X1638730D02*
X1618730D01*
G01Y2349840D02*
Y2084840D01*
G01X1668730D02*
G02X1728730I30000J0D01*
G01X1778730D02*
G02X1838730I30000J0D01*
G01X1638730Y2349840D02*
X1618730D01*
G01X1868730D02*
X1638730D01*
G01X1868730D02*
X1888730D01*
G01X1781230Y2224840D02*
G03I-27500J0D01*
G01X1831230D02*
G03I-77500J0D01*
G01X1833730D02*
G03I-80000J0D01*
G01X1849730D02*
G03I-96000J0D01*
G01X1838730D02*
G03I-85000J0D01*
G01X1842730D02*
G03I-89000J0D01*
G01X1000500Y1302300D02*
Y1564300D01*
G01D02*
G02X1010500Y1574300I10000J0D01*
G01Y1292300D02*
G02X1000500Y1302300I0J10000D01*
G01X1010500Y1574300D02*
X1202500D01*
G01Y1292300D02*
X1010500D01*
G01X1202500Y1574300D02*
G02X1212500Y1564300I0J-10000D01*
G01Y1302300D02*
G02X1202500Y1292300I-10000J0D01*
G01X1212500Y1564300D02*
Y1302300D01*
G01X1008500Y1593300D02*
G02X981500Y1566300I-27000J0D01*
G01X1204500Y1593300D02*
X1008500D01*
G01X1231500Y1566300D02*
G02X1204500Y1593300I0J27000D01*
G01X981500Y1300300D02*
G02X1008500Y1273300I0J-27000D01*
G01X981500Y1566300D02*
Y1300300D01*
G01X1008500Y1273300D02*
X1204500D01*
G01D02*
G02X1231500Y1300300I27000J0D01*
G01D02*
Y1566300D01*
G01X924600Y700400D02*
X1013400D01*
G01X1696900Y2440700D02*
X1671900D01*
G01X1666900D02*
X1626900D01*
G01X1621900D02*
X1596900D01*
G01X1626900D02*
X1621900D01*
G01X1671900D02*
X1666900D01*
G01X3192040Y588030D02*
Y233040D01*
G03X3212030Y213050I19990J0D01*
G01X3352030D01*
G03X3372020Y233040I0J19990D01*
G01Y258030D01*
G03X3352030Y278050I-20000J20D01*
G01X3277030D01*
G02X3257040Y298040I3J19993D01*
G01Y588030D01*
G03X3237020Y608050I-20007J13D01*
G01X3212030D01*
G03X3192040Y588030I10J-20000D01*
G01X3638380Y588080D02*
Y233070D01*
G02X3618390Y213080I-19997J7D01*
G01X3478390D01*
G02X3458400Y233070I0J19990D01*
G01Y258090D01*
G02X3478390Y278080I19990J0D01*
G01X3553400D01*
G03X3573390Y298090I-10J20000D01*
G01Y588080D01*
G02X3593400Y608070I19997J-7D01*
G01X3618390D01*
G02X3638380Y588080I-3J-19993D01*
G01X3482590Y517810D02*
G03I-24998J-1D01*
G01X3491700Y553400D02*
X3332700D01*
G01D02*
Y349400D01*
G01D02*
X3491700D01*
G01D02*
Y553400D01*
G01X3116730Y1540840D02*
X3526730D01*
Y1600840D01*
X3176730D01*
Y1950840D01*
X3526730D01*
Y2010840D01*
X3116730D01*
Y1540840D01*
G01X3286730Y1730840D02*
X3310350D01*
G01X3286730D02*
Y1756110D01*
G01X3243330Y1686440D02*
Y1875240D01*
G01D02*
X3430130D01*
G01D02*
Y1686440D01*
G01D02*
X3243330D01*
G01X3280830Y1711440D02*
G03I-12500J0D01*
G01X3046730Y880840D02*
X2746730D01*
G01D02*
Y1180840D01*
G01D02*
X3046730D01*
G01D02*
Y880840D01*
G01X2809300Y1142840D02*
G03I-25003J4D01*
G01X2938730Y790840D02*
Y820840D01*
G01Y790840D02*
X2952230D01*
G01Y820840D02*
X2938730D01*
G01X2983730Y800840D02*
Y810840D01*
G01X2998730Y790840D02*
Y820840D01*
G01X2985230Y790840D02*
X2998730D01*
G01Y820840D02*
X2985230D01*
G01X2982730Y790840D02*
X2985230D01*
G01Y820840D02*
X2982730D01*
G01X2953730Y800840D02*
Y810840D01*
G01X2952230Y790840D02*
X2954730D01*
G01Y820840D02*
X2952230D01*
G01X2955130Y790840D02*
X2982330D01*
G01Y820840D02*
X2955130D01*
G01X2983730Y790940D02*
Y790840D01*
G01Y790940D02*
Y800840D01*
G01X2982730Y790840D02*
X2982330D01*
G01X2953730Y790940D02*
Y800840D01*
G01Y790840D02*
Y790940D01*
G01X2955130Y790840D02*
X2954730D01*
G01X2953730Y820740D02*
Y820840D01*
G01Y810840D02*
Y820740D01*
G01X2954730Y820840D02*
X2955130D01*
G01X2983730Y810840D02*
Y820740D01*
G01Y820840D02*
Y820740D01*
G01X2982330Y820840D02*
X2982730D01*
G01X3106730Y1148840D02*
X3136730D01*
G01X3106730D02*
Y1135340D01*
G01X3136730D02*
Y1148840D01*
G01X3116730Y1103840D02*
X3126730D01*
G01X3106730Y1088840D02*
X3136730D01*
G01X3106730Y1102340D02*
Y1088840D01*
G01X3136730D02*
Y1102340D01*
G01X3106730Y1104840D02*
Y1102340D01*
G01X3136730D02*
Y1104840D01*
G01X3116730Y1133840D02*
X3126730D01*
G01X3106730Y1135340D02*
Y1132840D01*
G01X3136730D02*
Y1135340D01*
G01X3106730Y1132440D02*
Y1105240D01*
G01X3136730D02*
Y1132440D01*
G01X3106830Y1103840D02*
X3106730D01*
G01X3106830D02*
X3116730D01*
G01X3106730Y1104840D02*
Y1105240D01*
G01X3106830Y1133840D02*
X3116730D01*
G01X3106730D02*
X3106830D01*
G01X3106730Y1132440D02*
Y1132840D01*
G01X3136630Y1133840D02*
X3136730D01*
G01X3126730D02*
X3136630D01*
G01X3136730Y1132840D02*
Y1132440D01*
G01X3126730Y1103840D02*
X3136630D01*
G01X3136730D02*
X3136630D01*
G01X3136730Y1105240D02*
Y1104840D01*
G01X3107730Y1011840D02*
X3137730D01*
G01X3107730D02*
Y998340D01*
G01X3137730D02*
Y1011840D01*
G01X3117730Y966840D02*
X3127730D01*
G01X3107730Y951840D02*
X3137730D01*
G01X3107730Y965340D02*
Y951840D01*
G01X3137730D02*
Y965340D01*
G01X3107730Y967840D02*
Y965340D01*
G01X3137730D02*
Y967840D01*
G01X3117730Y996840D02*
X3127730D01*
G01X3107730Y998340D02*
Y995840D01*
G01X3137730D02*
Y998340D01*
G01X3107730Y995440D02*
Y968240D01*
G01X3137730D02*
Y995440D01*
G01X3107830Y966840D02*
X3107730D01*
G01X3107830D02*
X3117730D01*
G01X3107730Y967840D02*
Y968240D01*
G01X3107830Y996840D02*
X3117730D01*
G01X3107730D02*
X3107830D01*
G01X3107730Y995440D02*
Y995840D01*
G01X3137630Y996840D02*
X3137730D01*
G01X3127730D02*
X3137630D01*
G01X3137730Y995840D02*
Y995440D01*
G01X3127730Y966840D02*
X3137630D01*
G01X3137730D02*
X3137630D01*
G01X3137730Y968240D02*
Y967840D01*
G01X2417700Y830800D02*
Y855800D01*
G01D02*
X2367700D01*
G01D02*
Y830800D01*
G01Y825800D02*
Y785800D01*
G01X2417700D02*
Y825800D01*
G01X2367700Y780800D02*
Y755800D01*
G01D02*
X2417700D01*
G01D02*
Y780800D01*
G01Y825800D02*
Y830800D01*
G01Y780800D02*
Y785800D01*
G01X2367700D02*
Y780800D01*
G01Y830800D02*
Y825800D01*
G01X2417700Y780800D02*
X2367700D01*
G01Y830800D02*
X2417700D01*
G01X2015900Y1772900D02*
Y1747900D01*
G01D02*
X2065900D01*
G01D02*
Y1772900D01*
G01Y1777900D02*
Y1817900D01*
G01X2015900D02*
Y1777900D01*
G01X2065900Y1822900D02*
Y1847900D01*
G01D02*
X2015900D01*
G01D02*
Y1822900D01*
G01Y1777900D02*
Y1772900D01*
G01Y1822900D02*
Y1817900D01*
G01X2065900D02*
Y1822900D01*
G01Y1772900D02*
Y1777900D01*
G01X2015900Y1822900D02*
X2065900D01*
G01Y1772900D02*
X2015900D01*
G01X2492400Y1810500D02*
Y1785500D01*
G01D02*
X2542400D01*
G01D02*
Y1810500D01*
G01Y1815500D02*
Y1855500D01*
G01X2492400D02*
Y1815500D01*
G01X2542400Y1860500D02*
Y1885500D01*
G01D02*
X2492400D01*
G01D02*
Y1860500D01*
G01Y1815500D02*
Y1810500D01*
G01Y1860500D02*
Y1855500D01*
G01X2542400D02*
Y1860500D01*
G01Y1810500D02*
Y1815500D01*
G01X2492400Y1860500D02*
X2542400D01*
G01Y1810500D02*
X2492400D01*
G01X2511800Y830900D02*
Y855900D01*
G01D02*
X2461800D01*
G01D02*
Y830900D01*
G01Y825900D02*
Y785900D01*
G01X2511800D02*
Y825900D01*
G01X2461800Y780900D02*
Y755900D01*
G01D02*
X2511800D01*
G01D02*
Y780900D01*
G01Y825900D02*
Y830900D01*
G01Y780900D02*
Y785900D01*
G01X2461800D02*
Y780900D01*
G01Y830900D02*
Y825900D01*
G01X2511800Y780900D02*
X2461800D01*
G01Y830900D02*
X2511800D01*
G01X2381730Y1370840D02*
X2356730D01*
G01D02*
Y1320840D01*
G01D02*
X2381730D01*
G01X2386730D02*
X2426730D01*
G01Y1370840D02*
X2386730D01*
G01X2431730Y1320840D02*
X2456730D01*
G01D02*
Y1370840D01*
G01D02*
X2431730D01*
G01X2386730D02*
X2381730D01*
G01X2431730D02*
X2426730D01*
G01Y1320840D02*
X2431730D01*
G01X2381730D02*
X2386730D01*
G01X2431730Y1370840D02*
Y1320840D01*
G01X2381730D02*
Y1370840D01*
G01X3733700Y1714600D02*
X3703700D01*
G01X3733700D02*
Y1728100D01*
G01X3703700D02*
Y1714600D01*
G01X3723700Y1759600D02*
X3713700D01*
G01X3733700Y1774600D02*
X3703700D01*
G01X3733700Y1761100D02*
Y1774600D01*
G01X3703700D02*
Y1761100D01*
G01X3733700Y1758600D02*
Y1761100D01*
G01X3703700D02*
Y1758600D01*
G01X3723700Y1729600D02*
X3713700D01*
G01X3733700Y1728100D02*
Y1730600D01*
G01X3703700D02*
Y1728100D01*
G01X3733700Y1731000D02*
Y1758200D01*
G01X3703700D02*
Y1731000D01*
G01X3733600Y1759600D02*
X3733700D01*
G01X3733600D02*
X3723700D01*
G01X3733700Y1758600D02*
Y1758200D01*
G01X3733600Y1729600D02*
X3723700D01*
G01X3733700D02*
X3733600D01*
G01X3733700Y1731000D02*
Y1730600D01*
G01X3703800Y1729600D02*
X3703700D01*
G01X3713700D02*
X3703800D01*
G01X3703700Y1730600D02*
Y1731000D01*
G01X3713700Y1759600D02*
X3703800D01*
G01X3703700D02*
X3703800D01*
G01X3703700Y1758200D02*
Y1758600D01*
G01X2801100Y1285000D02*
Y1255000D01*
G01Y1285000D02*
X2787600D01*
G01Y1255000D02*
X2801100D01*
G01X2756100Y1275000D02*
Y1265000D01*
G01X2741100Y1285000D02*
Y1255000D01*
G01X2754600Y1285000D02*
X2741100D01*
G01Y1255000D02*
X2754600D01*
G01X2757100Y1285000D02*
X2754600D01*
G01Y1255000D02*
X2757100D01*
G01X2786100Y1275000D02*
Y1265000D01*
G01X2787600Y1285000D02*
X2785100D01*
G01Y1255000D02*
X2787600D01*
G01X2784700Y1285000D02*
X2757500D01*
G01Y1255000D02*
X2784700D01*
G01X2756100Y1284900D02*
Y1285000D01*
G01Y1284900D02*
Y1275000D01*
G01X2757100Y1285000D02*
X2757500D01*
G01X2786100Y1284900D02*
Y1275000D01*
G01Y1285000D02*
Y1284900D01*
G01X2784700Y1285000D02*
X2785100D01*
G01X2786100Y1255100D02*
Y1255000D01*
G01Y1265000D02*
Y1255100D01*
G01X2785100Y1255000D02*
X2784700D01*
G01X2756100Y1265000D02*
Y1255100D01*
G01Y1255000D02*
Y1255100D01*
G01X2757500Y1255000D02*
X2757100D01*
G01X2635600Y1064300D02*
X2605600D01*
G01X2635600D02*
Y1077800D01*
G01X2605600D02*
Y1064300D01*
G01X2625600Y1109300D02*
X2615600D01*
G01X2635600Y1124300D02*
X2605600D01*
G01X2635600Y1110800D02*
Y1124300D01*
G01X2605600D02*
Y1110800D01*
G01X2635600Y1108300D02*
Y1110800D01*
G01X2605600D02*
Y1108300D01*
G01X2625600Y1079300D02*
X2615600D01*
G01X2635600Y1077800D02*
Y1080300D01*
G01X2605600D02*
Y1077800D01*
G01X2635600Y1080700D02*
Y1107900D01*
G01X2605600D02*
Y1080700D01*
G01X2635500Y1109300D02*
X2635600D01*
G01X2635500D02*
X2625600D01*
G01X2635600Y1108300D02*
Y1107900D01*
G01X2635500Y1079300D02*
X2625600D01*
G01X2635600D02*
X2635500D01*
G01X2635600Y1080700D02*
Y1080300D01*
G01X2605700Y1079300D02*
X2605600D01*
G01X2615600D02*
X2605700D01*
G01X2605600Y1080300D02*
Y1080700D01*
G01X2615600Y1109300D02*
X2605700D01*
G01X2605600D02*
X2605700D01*
G01X2605600Y1107900D02*
Y1108300D01*
G01X3706900Y1485100D02*
X3736900D01*
G01X3706900D02*
Y1471600D01*
G01X3736900D02*
Y1485100D01*
G01X3716900Y1440100D02*
X3726900D01*
G01X3706900Y1425100D02*
X3736900D01*
G01X3706900Y1438600D02*
Y1425100D01*
G01X3736900D02*
Y1438600D01*
G01X3706900Y1441100D02*
Y1438600D01*
G01X3736900D02*
Y1441100D01*
G01X3716900Y1470100D02*
X3726900D01*
G01X3706900Y1471600D02*
Y1469100D01*
G01X3736900D02*
Y1471600D01*
G01X3706900Y1468700D02*
Y1441500D01*
G01X3736900D02*
Y1468700D01*
G01X3707000Y1440100D02*
X3706900D01*
G01X3707000D02*
X3716900D01*
G01X3706900Y1441100D02*
Y1441500D01*
G01X3707000Y1470100D02*
X3716900D01*
G01X3706900D02*
X3707000D01*
G01X3706900Y1468700D02*
Y1469100D01*
G01X3736800Y1470100D02*
X3736900D01*
G01X3726900D02*
X3736800D01*
G01X3736900Y1469100D02*
Y1468700D01*
G01X3726900Y1440100D02*
X3736800D01*
G01X3736900D02*
X3736800D01*
G01X3736900Y1441500D02*
Y1441100D01*
G01X2276730Y723340D02*
Y1423340D01*
G01X2440730Y1879840D02*
G02X2430730Y1889840I0J10000D01*
G01X2130730D01*
G02X2120730Y1879840I-10000J0D01*
G01Y1749840D01*
G02X2130730Y1739840I0J-10000D01*
G01X2430730D01*
G02X2440730Y1749840I10000J0D01*
G01Y1879840D01*
G01X4131730Y595840D02*
G03I-140000J0D01*
G01X3799700Y1775200D02*
X3829700D01*
G01X3799700D02*
Y1761700D01*
G01X3829700D02*
Y1775200D01*
G01X3809700Y1730200D02*
X3819700D01*
G01X3799700Y1715200D02*
X3829700D01*
G01X3799700Y1728700D02*
Y1715200D01*
G01X3829700D02*
Y1728700D01*
G01X3799700Y1731200D02*
Y1728700D01*
G01X3829700D02*
Y1731200D01*
G01X3809700Y1760200D02*
X3819700D01*
G01X3799700Y1761700D02*
Y1759200D01*
G01X3829700D02*
Y1761700D01*
G01X3799700Y1758800D02*
Y1731600D01*
G01X3829700D02*
Y1758800D01*
G01X3799800Y1730200D02*
X3799700D01*
G01X3799800D02*
X3809700D01*
G01X3799700Y1731200D02*
Y1731600D01*
G01X3799800Y1760200D02*
X3809700D01*
G01X3799700D02*
X3799800D01*
G01X3799700Y1758800D02*
Y1759200D01*
G01X3829600Y1760200D02*
X3829700D01*
G01X3819700D02*
X3829600D01*
G01X3829700Y1759200D02*
Y1758800D01*
G01X3819700Y1730200D02*
X3829600D01*
G01X3829700D02*
X3829600D01*
G01X3829700Y1731600D02*
Y1731200D01*
G01X4126730Y2085840D02*
G03I-140000J0D01*
G01X3860890Y1463580D02*
X3839680Y1484790D01*
G01X3860890Y1463580D02*
X3870440Y1473130D01*
G01X3849230Y1494340D02*
X3839680Y1484790D01*
G01X3885640Y1502470D02*
X3878570Y1509540D01*
G01X3903320Y1506010D02*
X3882110Y1527220D01*
G01X3893770Y1496460D02*
X3903320Y1506010D01*
G01X3882110Y1527220D02*
X3872560Y1517670D01*
G01X3892010Y1494690D02*
X3893770Y1496460D01*
G01X3872560Y1517670D02*
X3870790Y1515910D01*
G01X3864430Y1481260D02*
X3857360Y1488330D01*
G01X3870440Y1473130D02*
X3872210Y1474890D01*
G01X3850990Y1496110D02*
X3849230Y1494340D01*
G01X3872490Y1475180D02*
X3891720Y1494410D01*
G01X3870510Y1515620D02*
X3851280Y1496390D01*
G01X3892640Y1495470D02*
X3892710Y1495400D01*
G01X3892640Y1495470D02*
X3885640Y1502470D01*
G01X3892010Y1494690D02*
X3891720Y1494410D01*
G01X3871430Y1474260D02*
X3864430Y1481260D01*
G01X3871500Y1474190D02*
X3871430Y1474260D01*
G01X3872490Y1475180D02*
X3872210Y1474890D01*
G01X3850360Y1495330D02*
X3850290Y1495400D01*
G01X3857360Y1488330D02*
X3850360Y1495330D01*
G01X3850990Y1496110D02*
X3851280Y1496390D01*
G01X3878570Y1509540D02*
X3871570Y1516540D01*
G01X3871500Y1516610D02*
X3871570Y1516540D01*
G01X3870510Y1515620D02*
X3870790Y1515910D01*
G01X3831730Y2300840D02*
Y2325840D01*
G01D02*
X3781730D01*
G01D02*
Y2300840D01*
G01Y2295840D02*
Y2255840D01*
G01X3831730D02*
Y2295840D01*
G01X3781730Y2250840D02*
Y2225840D01*
G01D02*
X3831730D01*
G01D02*
Y2250840D01*
G01Y2295840D02*
Y2300840D01*
G01Y2250840D02*
Y2255840D01*
G01X3781730D02*
Y2250840D01*
G01Y2300840D02*
Y2295840D01*
G01X3831730Y2250840D02*
X3781730D01*
G01Y2300840D02*
X3831730D01*
M02*
