G04 ================== begin FILE IDENTIFICATION RECORD ==================*
G04 Layout Name:  CC2650_SensorTag.brd*
G04 Film Name:    Layer2_CC2650SensorTag*
G04 File Format:  Gerber RS274X*
G04 File Origin:  Cadence Allegro 16.6-S026*
G04 Origin Date:  Wed Apr 15 15:57:56 2015*
G04 *
G04 Layer:  BOARD GEOMETRY/OUTLINE*
G04 Layer:  ETCH/L2*
G04 Layer:  PIN/L2*
G04 Layer:  VIA CLASS/L2*
G04 *
G04 Offset:    (0.0000 0.0000)*
G04 Mirror:    No*
G04 Mode:      Positive*
G04 Rotation:  0*
G04 FullContactRelief:  No*
G04 UndefLineWidth:     0.0000*
G04 ================== end FILE IDENTIFICATION RECORD ====================*
%FSLAX25Y25*MOMM*%
%IR0*IPPOS*OFA0.00000B0.00000*MIA0B0*SFA1.00000B1.00000*%
%ADD11C,.1*%
%ADD10C,.5*%
%ADD12O,2.X3.6*%
%ADD13C,.2*%
%ADD14C,.3*%
%ADD15C,.15*%
%ADD16C,.153*%
%ADD17C,.8004*%
%ADD18C,1.2004*%
%ADD19C,1.009*%
G75*
%LPD*%
G75*
G36*
G01X50730Y60010D02*
Y205920D01*
G02X56900Y215150I9991J-1D01*
G02X67790Y212980I3822J-9230D01*
G01X128170Y152610D01*
G03X135230Y149680I7067J7058D01*
G01X1091880D01*
G03X1098940Y152610I-7J9988D01*
G01X1276290Y329950D01*
G02X1283360Y332880I7068J-7060D01*
G01X1657360D01*
G02X1667130Y324960I-3J-9990D01*
G03X1668150Y322220I9771J2078D01*
G01X1668340Y321870D01*
G02X1668730Y313030I-8754J-4815D01*
G01X1662320Y298500D01*
G02X1655530Y292820I-9142J4030D01*
G03X1087760Y51580I444464J-1834825D01*
G02X1082400Y50020I-5360J8430D01*
G01X60720D01*
G02X50730Y60010I0J9990D01*
G37*
G36*
G01X124150Y409110D02*
X455780Y740740D01*
G02X463230Y743660I7066J-7064D01*
G01X463610Y743640D01*
X463780Y743630D01*
G03X499720Y760890I2948J39910D01*
G01Y760900D01*
G02X507040Y765190I8234J-5660D01*
G01X522350Y766600D01*
G02X530330Y763720I919J-9948D01*
G01X566280Y727770D01*
G02X569210Y720700I-7060J-7068D01*
G01Y520830D01*
G02X568290Y516650I-9989J7D01*
G01X565760Y511150D01*
X564340Y509820D01*
G03X619120I27390J-29180D01*
G01X617700Y511150D01*
X615170Y516650D01*
G02X614250Y520830I9069J4187D01*
G01Y718080D01*
G02X617360Y725320I9990J-3D01*
G01X627890Y735310D01*
G02X635290Y738040I6877J-7246D01*
G03X665940Y749950I2111J39962D01*
G02X672370Y752910I7121J-7006D01*
G01X685590Y753830D01*
G02X689500Y753320I688J-9965D01*
G01X691160Y752760D01*
G03X745910Y756150I25574J30781D01*
G01X747240Y757570D01*
X752740Y760100D01*
G02X756920Y761020I4187J-9069D01*
G01X770740D01*
G02X779970Y754850I0J-9988D01*
G01X779980D01*
G02X777810Y743960I-9232J-3822D01*
G01X739460Y705610D01*
G03X736530Y698550I7059J-7068D01*
G01Y559800D01*
G03X739460Y552740I9989J8D01*
G01X807340Y484860D01*
G03X814400Y481930I7068J7059D01*
G01X818230D01*
G02X821390Y481420I9J-9991D01*
G01X825760Y479960D01*
X826950Y479130D01*
G03X854670Y472220I22902J32819D01*
G02X862900Y469410I1209J-9917D01*
G01X874030Y458400D01*
G02X876980Y450750I-7025J-7103D01*
G01X876950Y450210D01*
X876930Y449970D01*
G03X883620Y423350I39804J-4147D01*
G01X884410Y422180D01*
X885820Y417890D01*
G02X886310Y414790I-9501J-3090D01*
G01Y411890D01*
G02X885820Y408790I-9991J-10D01*
G01X884410Y404500D01*
X883620Y403330D01*
G03X949840I33110J-22490D01*
G01X949050Y404500D01*
X947640Y408790D01*
G02X947150Y411890I9501J3090D01*
G01Y414790D01*
G02X947640Y417890I9991J10D01*
G01X949050Y422180D01*
X949840Y423350D01*
G03X911910Y485570I-33106J22489D01*
G02X903680Y488380I-1209J9917D01*
G01X892550Y499390D01*
G02X889600Y507040I7025J7103D01*
G01X889630Y507580D01*
X889650Y507820D01*
G03X837330Y549960I-39804J4130D01*
G01X835810Y549460D01*
X831790D01*
G02X824720Y552390I-2J9990D01*
G01X799500Y577610D01*
G02X796570Y584670I7059J7067D01*
G01Y605230D01*
G02X799820Y612600I9990J-4D01*
G01X810700Y622550D01*
G02X817890Y625160I6744J-7370D01*
G01X818330Y625140D01*
X818530Y625120D01*
G03X844800Y632180I3366J39879D01*
G01X845990Y633010D01*
X850360Y634470D01*
G02X853520Y634980I3151J-9481D01*
G01X1064930D01*
G02X1071990Y632050I-7J-9989D01*
G01X1084750Y619300D01*
G02X1087580Y613640I-7060J-7068D01*
G03X1150100Y586480I39618J5660D01*
G01X1151290Y587310D01*
X1155660Y588770D01*
G02X1158820Y589280I3151J-9481D01*
G01X1206490D01*
G02X1216480Y579290I0J-9990D01*
G01Y410610D01*
G02X1213550Y403540I-9990J-2D01*
G01X1089070Y279060D01*
G02X1082000Y276130I-7068J7060D01*
G01X1048350D01*
G02X1045190Y276640I-9J9991D01*
G01X1040820Y278100D01*
X1039630Y278930D01*
G03X982630Y225170I-22896J-32821D01*
G02X982830Y215070I-8515J-5221D01*
G01X974310Y199830D01*
G02X965590Y194720I-8717J4880D01*
G01X186910D01*
G02X178260Y199720I4J9990D01*
G01X169610Y214720D01*
G02X169630Y224720I8659J4983D01*
G01Y224730D01*
G03X140690Y284420I-34627J20072D01*
G01X139060Y284650D01*
X134410Y287010D01*
G02X131500Y289230I4503J8920D01*
G01X123790Y297800D01*
G02X121220Y304490I7420J6689D01*
G01Y402040D01*
G02X124150Y409110I9990J2D01*
G37*
G36*
G01X85250Y458030D02*
Y1219370D01*
G02X88180Y1226440I9990J2D01*
G01X293960Y1432220D01*
G02X303840Y1434740I7063J-7064D01*
G01X320680Y1429800D01*
G02X327620Y1422340I-2822J-9583D01*
G01Y1422330D01*
G03X334170Y1407570I39105J8520D01*
G02X336010Y1401040I-8124J-5813D01*
G01X335560Y1394700D01*
G02X332810Y1388500I-9966J711D01*
G03Y1333180I28920J-27660D01*
G02X335560Y1326980I-7216J-6911D01*
G01X336010Y1320640D01*
G02X334170Y1314110I-9964J-717D01*
G03X378740Y1252660I32559J-23273D01*
G01X380200Y1253120D01*
X381740D01*
G02X391730Y1243130I0J-9990D01*
G01Y1240640D01*
G02X388500Y1233290I-9989J5D01*
G01X377670Y1223320D01*
G02X370080Y1220720I-6760J7356D01*
G03Y1140960I-3330J-39880D01*
G02X377670Y1138360I830J-9956D01*
G01X388500Y1128390D01*
G02X391730Y1121040I-6759J-7355D01*
G01Y1065690D01*
G02X385690Y1056510I-9990J-4D01*
G01X368820Y1049250D01*
G02X358000Y1051170I-3952J9175D01*
G03X260470Y1028490I-41268J-43580D01*
G02X253240Y1022210I-9366J3481D01*
G01X236820Y1018610D01*
G02X227630Y1021290I-2140J9757D01*
G03X227080Y1021830I-28313J-28287D01*
G02X224200Y1027020I6900J7223D01*
G01X223000Y1032830D01*
G02X223590Y1038740I9787J2007D01*
G03X159050Y1025420I-36862J15588D01*
G02X161930Y1020230I-6900J-7223D01*
G01X163130Y1014420D01*
G02X162540Y1008510I-9787J-2007D01*
G03X233740Y972380I36862J-15579D01*
G01X233750D01*
G02X241990Y977240I8576J-5125D01*
G01X258800Y977790D01*
G02X267350Y973480I327J-9988D01*
G03X358000Y964010I49383J34111D01*
G02X368820Y965930I6868J-7255D01*
G01X385690Y958670D01*
G02X391730Y949490I-3950J-9176D01*
G01Y830830D01*
G03X394660Y823770I9988J7D01*
G01X423930Y794490D01*
G02X426830Y786650I-7059J-7068D01*
G03Y780430I39900J-3110D01*
G02X423930Y772590I-9959J-772D01*
G01X102310Y450970D01*
G02X91420Y448800I-7068J7060D01*
G02X85250Y458030I3821J9231D01*
G37*
G36*
G01X4132930Y1192730D02*
X4089400Y1236260D01*
G03X4082340Y1239190I-7068J-7059D01*
G01X3958200D01*
G02X3951140Y1242120I7J9989D01*
G01X3943740Y1249520D01*
G02Y1263650I7061J7065D01*
G01X3945040Y1264950D01*
X3946710Y1265700D01*
G03X3963920Y1323910I-16410J36501D01*
G02X3962320Y1329330I8390J5423D01*
G01Y1451740D01*
G02X3963710Y1456830I9992J6D01*
G03X3926170Y1517120I-34433J20392D01*
G02X3918330Y1520020I-772J9959D01*
G01X3901450Y1536900D01*
G02X3898520Y1543970I7060J7068D01*
G01Y1579530D01*
G02X3902620Y1587590I9989J-8D01*
G01X3915650Y1597120D01*
G02X3924580Y1598570I5893J-8068D01*
G03X3912060Y1668210I12151J38130D01*
G02X3905290Y1666100I-6165J7864D01*
G01X3892060Y1666910D01*
G02X3885600Y1669810I596J9973D01*
G01X3654980Y1900430D01*
G03X3647920Y1903360I-7067J-7058D01*
G01X3578720D01*
G02X3568730Y1913350I0J9990D01*
G01Y1930820D01*
X3568750D01*
Y2038330D01*
G02X3578740Y2048320I9990J0D01*
G01X3719920D01*
G03X3726980Y2051250I-7J9988D01*
G01X3793780Y2118040D01*
G02X3801620Y2120940I7068J-7059D01*
G03X3764830Y2157730I3110J39900D01*
G02X3761930Y2149890I-9959J-772D01*
G01X3708330Y2096290D01*
G02X3701260Y2093360I-7068J7060D01*
G01X3120930D01*
G03X3113870Y2090430I7J-9988D01*
G01X3084680Y2061250D01*
G02X3077070Y2058340I-7062J7063D01*
G01X3062200Y2059150D01*
G02X3054950Y2062880I547J9975D01*
G03X2983710Y2037440I-31221J-25039D01*
G02X2980790Y2030280I-9990J-101D01*
G01X2910550Y1960050D01*
G02X2903490Y1957120I-7067J7058D01*
G01X2827120D01*
X2826860Y1956860D01*
X2729440D01*
G02X2722310Y1959860I7J9989D01*
G03X2676840Y1968120I-28575J-28020D01*
G02X2667260Y1968760I-4206J9060D01*
G01X2653040Y1977820D01*
G02X2648420Y1986240I5370J8424D01*
G01Y2053790D01*
G03X2645490Y2060850I-9988J-7D01*
G01X2599500Y2106850D01*
G02X2596600Y2114690I7059J7068D01*
G03X2559810Y2077900I-39900J3110D01*
G02X2567650Y2075000I772J-9959D01*
G01X2600450Y2042200D01*
G02X2603380Y2035130I-7060J-7068D01*
G01Y1674900D01*
G02X2600450Y1667830I-9990J-2D01*
G01X2558370Y1625750D01*
G02X2551300Y1622820I-7068J7060D01*
G01X2148710D01*
G03X2141650Y1619890I7J-9988D01*
G01X1998140Y1476390D01*
G02X1991070Y1473460I-7068J7060D01*
G01X1956510D01*
G02X1948290Y1477780I4J9988D01*
G01X1938940Y1491320D01*
G02X1937820Y1500540I8219J5676D01*
G03X1860810Y1520550I-37416J14196D01*
G02X1857450Y1514440I-9885J1457D01*
G01X1847560Y1505900D01*
G02X1841030Y1503470I-6530J7560D01*
G01X1327250D01*
G02X1320180Y1506400I-2J9990D01*
G01X1256850Y1569730D01*
G02X1253920Y1576800I7060J7068D01*
G01Y1686280D01*
G03X1250990Y1693340I-9988J-7D01*
G01X1051400Y1892930D01*
G03X1044340Y1895860I-7067J-7058D01*
G01X787700D01*
G02X780630Y1898790I-2J9990D01*
G01X389530Y2289890D01*
G02X386630Y2297730I7059J7068D01*
G03X349840Y2260940I-39900J3110D01*
G02X357680Y2258040I772J-9959D01*
G01X761980Y1853750D01*
G03X769040Y1850820I7067J7058D01*
G01X773350D01*
G02X782580Y1844650I-1J-9991D01*
G02X780410Y1833760I-9230J-3822D01*
G01X535310Y1588650D01*
G03X532380Y1581590I7058J-7067D01*
G01Y1579870D01*
X522380D01*
G02X515060Y1583070I8J9990D01*
G03X452080Y1534180I-29329J-27229D01*
G01Y1534170D01*
G02X450750Y1521700I-8399J-5410D01*
G01X443670Y1514630D01*
G02X435490Y1511770I-7061J7066D01*
G01X419960Y1513520D01*
G02X412620Y1518130I1117J9926D01*
G03X348320Y1522860I-33890J-21289D01*
G02X340730Y1519360I-7594J6489D01*
G01X321540D01*
G03X314480Y1516430I7J-9988D01*
G01X67790Y1269750D01*
G02X56900Y1267580I-7068J7060D01*
G02X50730Y1276810I3821J9231D01*
G01Y2430850D01*
G02X60720Y2440840I9990J0D01*
G01X136900D01*
G02X146860Y2431560I-4J-9989D01*
G03X266600I59870J4280D01*
G02X276560Y2440840I9964J-709D01*
G01X317720D01*
Y2440820D01*
X3485750D01*
Y2440840D01*
X3757990D01*
G02X3766880Y2435410I2J-9989D01*
G01X3775000Y2419580D01*
G02X3774230Y2409190I-8886J-4565D01*
G03X3839230I32500J-23350D01*
G02X3838460Y2419580I8116J5825D01*
G01X3846580Y2435410D01*
G02X3855470Y2440840I8888J-4559D01*
G01X3921900D01*
G02X3931860Y2431560I-4J-9989D01*
G03X4051600I59870J4280D01*
G02X4061560Y2440840I9964J-709D01*
G01X4140000D01*
G02X4149990Y2430850I0J-9990D01*
G01Y1199800D01*
G02X4143820Y1190570I-9990J1D01*
G02X4132930Y1192730I-3829J9228D01*
G37*
G36*
G01X3618390Y628090D02*
X3606100D01*
Y628100D01*
X3230900D01*
Y628070D01*
X3212030D01*
G03X3172020Y588020I10J-40020D01*
G01Y233040D01*
G03X3172780Y225280I39997J0D01*
G01Y225270D01*
X3173210Y223070D01*
X3172120Y218740D01*
X3160890Y205070D01*
G02X3153170Y201420I-7721J6340D01*
G01X2960730D01*
G02X2953660Y204350I-2J9990D01*
G01X2751620Y406390D01*
G03X2744550Y409320I-7068J-7060D01*
G01X2147670D01*
G02X2140600Y412250I-2J9990D01*
G01X2068560Y484290D01*
G03X2061490Y487220I-7068J-7060D01*
G01X2014910D01*
G02X2006280Y492180I1J9990D01*
G01X1997580Y507110D01*
G02X1997530Y517080I8634J5028D01*
G03X1922830Y533730I-34801J19760D01*
G01X1923000Y531550D01*
X1921490Y527450D01*
X1915190Y521150D01*
G02X1908120Y518220I-7068J7060D01*
G01X1865400D01*
G03X1858330Y515290I-2J-9990D01*
G01X1802390Y459350D01*
G02X1795320Y456420I-7068J7060D01*
G01X1454250D01*
G02X1446170Y460540I3J9990D01*
G01X1435250Y475580D01*
X1434500Y480320D01*
X1435250Y482600D01*
G03X1437130Y497600I-38052J12387D01*
G02X1438810Y503820I9969J644D01*
G01X1442270Y508980D01*
G02X1447400Y512880I8289J-5579D01*
G03X1474730Y552170I-12668J37962D01*
G01X1474660Y554200D01*
X1476120Y557980D01*
X1487530Y569770D01*
G02X1494710Y572820I7185J-6938D01*
G01X1749800D01*
X1754650Y569780D01*
X1755910Y567190D01*
G03X1831540Y578990I36012J17459D01*
G01X1831770Y580600D01*
X1833210Y583480D01*
X1963470Y713750D01*
G02X1970540Y716680I7068J-7060D01*
G01X2199280D01*
G02X2206960Y713080I1J-9990D01*
G01X2216790Y701280D01*
G02X2218940Y693070I-7674J-6396D01*
G03X2218360Y688370I39360J-7243D01*
G02X2216070Y682620I-9970J640D01*
G01X2212190Y677950D01*
G02X2206950Y674650I-7681J6387D01*
G03X2256670Y633300I9779J-38808D01*
G02X2258960Y639050I9970J-640D01*
G01X2262840Y643720D01*
G02X2268080Y647020I7682J-6387D01*
G03X2276370Y650120I-9787J38807D01*
G02X2282240Y651100I4506J-8918D01*
G01X2288110Y650280D01*
G02X2293510Y647740I-1357J-9896D01*
G03X2344550Y709260I27089J29459D01*
G01X2344540Y709270D01*
G02X2340560Y716550I5984J8000D01*
G01X2339480Y731630D01*
G02X2342380Y739410I9963J717D01*
G01X2372940Y769980D01*
G02X2380010Y772910I7068J-7060D01*
G01X2518730D01*
G02X2524730Y770910I3J-9990D01*
G03X2585100Y819650I24010J32018D01*
G01X2584190Y821640D01*
Y823830D01*
G02X2594180Y833820I9990J0D01*
G01X2602360D01*
G02X2612350Y823830I0J-9990D01*
G01Y823020D01*
X2612220Y822230D01*
G03X2691740Y814810I39510J-6390D01*
G01X2691790Y816610D01*
G02X2694710Y823420I9986J-251D01*
G01X2695840Y824550D01*
X2949630D01*
G02X2956700Y821620I2J-9990D01*
G01X3034510Y743810D01*
G03X3041580Y740880I7068J7060D01*
G01X3678320D01*
G03X3685390Y743800I11J9992D01*
G01X3700440Y758850D01*
G02X3714560Y758860I7065J-7062D01*
G01X3714570Y758850D01*
G03X3721630Y755920I7067J7058D01*
G01X3756030D01*
G03X3763100Y758850I2J9990D01*
G01X3880470Y876220D01*
G03X3883390Y882910I-7062J7065D01*
G01X3883460Y884800D01*
X3884970Y888250D01*
X4057800Y1061080D01*
X4062580Y1062530D01*
X4065030Y1062040D01*
G03X4080930Y1062110I7777J39259D01*
G01X4083140Y1062570D01*
X4087510Y1061510D01*
X4101300Y1050290D01*
G02X4104980Y1042540I-6311J-7746D01*
G01Y908270D01*
G02X4102050Y901200I-9990J-2D01*
G01X3797640Y596800D01*
X3794160Y595290D01*
X3792260Y595230D01*
G03X3753570Y556540I1310J-40000D01*
G01X3753510Y554640D01*
X3752000Y551160D01*
X3731630Y530790D01*
G03X3728710Y523720I7072J-7059D01*
G01Y270890D01*
G02X3725780Y263820I-9990J-2D01*
G01X3673240Y211290D01*
G02X3659120I-7060J7068D01*
G01X3659110Y211300D01*
G02X3656630Y221300I7068J7060D01*
G03X3658400Y233070I-38247J11770D01*
G01Y588080D01*
G03X3618390Y628090I-40013J-3D01*
G37*
G36*
G01X1338750Y1252540D02*
G02X1348740Y1262530I9990J0D01*
G01X1434670D01*
G03X1441730Y1265460I-8J9989D01*
G01X1484160Y1307890D01*
G02X1491330Y1310820I7069J-7059D01*
G03X1451710Y1350440I400J40020D01*
G02X1448780Y1343270I-9989J-101D01*
G01X1420990Y1315490D01*
G02X1413930Y1312570I-7058J7070D01*
G01X1332740D01*
G02X1325600Y1315570I-3J9990D01*
G03X1282370Y1250310I-28577J-28018D01*
G01X1282380D01*
G02X1288710Y1241010I-3661J-9296D01*
G01Y1077580D01*
G02X1282540Y1068350I-9988J0D01*
G01Y1068340D01*
G02X1271650Y1070510I-3822J9232D01*
G01X1193150Y1149010D01*
G02X1190220Y1156080I7060J7068D01*
G01Y1506110D01*
G02X1196390Y1515340I9989J0D01*
G01X1199190Y1516500D01*
X1205130Y1515320D01*
X1289110Y1431350D01*
G03X1296170Y1428420I7067J7058D01*
G01X2009730D01*
G03X2016790Y1431350I-7J9988D01*
G01X2160300Y1574850D01*
G02X2167370Y1577780I7068J-7060D01*
G01X2198110D01*
G02X2206620Y1573030I5J-9990D01*
G01X2214490Y1560260D01*
G02X2215970Y1555020I-8511J-5233D01*
G01Y1552040D01*
G02X2215750Y1549960I-9990J5D01*
G01X2215130Y1547060D01*
X2214770Y1546200D01*
G03X2246810Y1491120I36958J-15361D01*
G02X2252720Y1488200I-1222J-9915D01*
G01X2255200Y1485670D01*
G02X2256090Y1472730I-7136J-6991D01*
G01X2254060Y1469990D01*
G02X2248770Y1466330I-8026J5948D01*
G03X2290140Y1401820I10962J-38490D01*
G02X2297730Y1405320I7595J-6490D01*
G01X2318100D01*
G03X2323330Y1406810I-18J9986D01*
G02X2332580Y1407470I5255J-8496D01*
G01X2333130Y1407230D01*
G02X2339120Y1398080I-4000J-9154D01*
G01Y825210D01*
G02X2336190Y818140I-9990J-2D01*
G01X2297700Y779650D01*
G02X2290630Y776720I-7068J7060D01*
G01X1945670D01*
G03X1938610Y773790I8J-9989D01*
G01X1799480Y634660D01*
G02X1792410Y631730I-7068J7060D01*
G01X1789560D01*
G02X1787880Y631870I-13J9990D01*
G01X1785480Y632280D01*
X1784880Y632450D01*
X1784510Y632550D01*
G03X1782060Y632860I-2470J-9681D01*
G01X1478740D01*
G02X1468750Y642850I0J9990D01*
G01Y1026260D01*
G02X1471280Y1032900I9990J-4D01*
G01X1480100Y1042810D01*
G02X1486400Y1046090I7462J-6642D01*
G03X1442020Y1090840I-4671J39749D01*
G01X1441850Y1089490D01*
X1441320Y1088220D01*
G02X1434030Y1082260I-9222J3842D01*
G02X1425030Y1085000I-1933J9802D01*
G01X1423100Y1086930D01*
G02X1420300Y1092420I7065J7063D01*
G03X1366080Y1123360I-39522J-6281D01*
G02X1356790Y1124390I-3672J9291D01*
G01X1343120Y1133690D01*
G02X1338750Y1141950I5620J8259D01*
G01Y1252540D01*
G37*
G36*
G01X1253780Y713560D02*
X1235530Y695310D01*
X1226970Y686750D01*
X1219410Y679180D01*
G03X1216480Y672120I7059J-7068D01*
G01Y659310D01*
G02X1206490Y649320I-9990J0D01*
G01X1158810D01*
G02X1155650Y649830I-9J9991D01*
G01X1151290Y651290D01*
X1150100Y652120D01*
G03X1132860Y658920I-22905J-32818D01*
G01X1132850D01*
G02X1127200Y661750I1420J9889D01*
G01X1096860Y692090D01*
G03X1091330Y694900I-7066J-7060D01*
G01X1091290D01*
G02X1083910Y700300I1556J9870D01*
G02X1084010Y709440I8933J4473D01*
G01X1084940Y711200D01*
G02X1087710Y714470I8830J-4671D01*
G01Y714480D01*
G03X1100870Y732140I-24272J31820D01*
G01X1101640Y734160D01*
X1106310Y738810D01*
G02X1110340Y741260I7058J-7071D01*
G01X1122720Y745180D01*
G02X1128900Y745140I3029J-9519D01*
G01X1132520Y743930D01*
X1133720Y743090D01*
G03X1184120Y805020I23008J32749D01*
G01X1182700Y806360D01*
X1180160Y811860D01*
G02X1179250Y816040I9082J4166D01*
G01Y826230D01*
G03X1176320Y833290I-9988J-7D01*
G01X1140720Y868890D01*
G03X1133660Y871820I-7067J-7058D01*
G01X1067730D01*
G03X1060670Y868890I7J-9988D01*
G01X1000760Y808990D01*
G02X993690Y806060I-7068J7060D01*
G01X787620D01*
G02X778740Y811480I2J9988D01*
G01X770910Y826690D01*
G02X770280Y834310I8880J4570D01*
G01X771320Y837560D01*
X772080Y838720D01*
X772090Y838740D01*
G03X764570Y891400I-33361J22103D01*
G02X761040Y898610I6451J7628D01*
G01X760430Y913310D01*
G02X763350Y920790I9981J413D01*
G01X821080Y978530D01*
G03X824010Y985590I-7059J7068D01*
G01Y1361780D01*
G03X821080Y1368840I-9989J-8D01*
G01X779180Y1410740D01*
G02X776350Y1416400I7060J7068D01*
G03X731070Y1371120I-39620J-5660D01*
G02X736730Y1368290I-1408J-9890D01*
G01X761040Y1343970D01*
G02X763970Y1336910I-7059J-7067D01*
G01Y1298070D01*
G02X759780Y1289940I-9990J4D01*
G01X746690Y1280600D01*
G02X739230Y1278880I-5803J8132D01*
G01X737520Y1279170D01*
X736820Y1279400D01*
G03X695250Y1268730I-12386J-38058D01*
G01X693910Y1267310D01*
X688410Y1264770D01*
G02X684230Y1263860I-4166J9082D01*
G01X587410D01*
G02X577420Y1273850I0J9990D01*
G01Y1562930D01*
G02X580350Y1570000I9990J2D01*
G01X828240Y1817890D01*
G02X835310Y1820820I7068J-7060D01*
G01X1012690D01*
G02X1019760Y1817890I2J-9990D01*
G01X1041890Y1795770D01*
G02X1044800Y1788060I-7059J-7069D01*
G01X1043840Y1773070D01*
G02X1039980Y1765800I-9970J634D01*
G03X1067330Y1694220I24465J-31667D01*
G01X1067390D01*
X1067560Y1694230D01*
X1067800Y1694240D01*
G02X1075390Y1691330I528J-9975D01*
G01X1142250Y1624470D01*
G02X1145180Y1617400I-7060J-7068D01*
G01Y1137420D01*
G03X1148110Y1130360I9988J7D01*
G01X1160490Y1117980D01*
Y1117970D01*
X1163420Y1115040D01*
G02X1166330Y1107540I-7070J-7058D01*
G01X1165670Y1092790D01*
G02X1162090Y1085570I-9980J451D01*
G03X1155710Y1078840I25657J-30712D01*
G02X1148160Y1074850I-7995J5990D01*
G01X1134670Y1074250D01*
G02X1130150Y1075100I-463J9979D01*
G01X1124960Y1077420D01*
X1123630Y1078770D01*
G03X1127120Y1026700I-28530J-28064D01*
G02X1134670Y1030690I7995J-5990D01*
G01X1148160Y1031290D01*
G02X1152680Y1030440I463J-9979D01*
G01X1157870Y1028120D01*
X1159200Y1026770D01*
G03X1182070Y1015220I28528J28070D01*
G02X1187730Y1012390I-1408J-9890D01*
G01X1253780Y946330D01*
G02X1256710Y939270I-7059J-7067D01*
G01Y926430D01*
G02X1256200Y923270I-9991J-9D01*
G01X1254740Y918910D01*
X1253910Y917720D01*
G03Y871920I32820J-22900D01*
G01X1254740Y870730D01*
X1256200Y866370D01*
G02X1256710Y863210I-9481J-3151D01*
G01Y720630D01*
G02X1253780Y713560I-9990J-2D01*
G37*
G36*
G01X568770Y788980D02*
X476350Y881400D01*
G02X473420Y888470I7060J7068D01*
G01Y1186100D01*
G02X476350Y1193170I9990J2D01*
G01X499070Y1215890D01*
G02X506140Y1218820I7068J-7060D01*
G01X686430D01*
G02X694020Y1215320I-4J-9989D01*
G03X737470Y1203500I30411J26018D01*
G02X746530Y1202190I3259J-9442D01*
G01X759780Y1192740D01*
G02X763970Y1184610I-5800J-8134D01*
G01Y1010460D01*
G02X761040Y1003400I-9989J7D01*
G01X610310Y852660D01*
G03X607380Y845600I7059J-7068D01*
G01Y808000D01*
G02X605380Y802010I-9989J6D01*
G03X601050Y794750I32015J-24016D01*
G02X593740Y789100I-9070J4181D01*
G01X577590Y786210D01*
G02X568770Y788980I-1756J9834D01*
G37*
G36*
G01X436770Y1241410D02*
Y1439890D01*
G02X439700Y1446960I9990J2D01*
G01X505320Y1512590D01*
G03X508250Y1519650I-7058J7067D01*
G01Y1522760D01*
G03X510960Y1524770I-22465J33121D01*
G02X520910Y1526320I6303J-7751D01*
G01X526040Y1524300D01*
G02X532380Y1515000I-3650J-9299D01*
G01Y1273850D01*
G02X522390Y1263860I-9990J0D01*
G01X487480D01*
G03X480420Y1260930I7J-9988D01*
G01X453830Y1234350D01*
G02X442940Y1232180I-7068J7060D01*
G02X436770Y1241410I3821J9231D01*
G37*
G36*
G01X3112240Y51580D02*
G03X3024630Y103960I-1012232J-1593587D01*
G01X3024620D01*
G02X3019850Y115200I4896J8710D01*
G01X3024750Y133920D01*
G02X3034410Y141380I9664J-2529D01*
G01X3684110D01*
G03X3691170Y144310I-8J9989D01*
G01X3785820Y238960D01*
G03X3788750Y246020I-7059J7068D01*
G01Y498860D01*
G02X3791680Y505920I9989J-7D01*
G01X3799850Y514100D01*
G02X3804250Y516660I7058J-7070D01*
G03X3832140Y544550I-10680J38570D01*
G02X3834700Y548950I9630J-2658D01*
G01X4132930Y847180D01*
G02X4143820Y849340I7061J-7068D01*
G02X4149990Y840110I-3820J-9231D01*
G01Y60010D01*
G02X4140000Y50020I-9990J0D01*
G01X4061620D01*
G02X4052300Y56400I-4J9991D01*
G01X4045570Y73800D01*
G02X4048160Y84790I9318J3604D01*
G01X4048170D01*
G03X4085750Y169840I-77451J85050D01*
G01Y329840D01*
G03X3855710I-115020J0D01*
G01Y169840D01*
G03X3893290Y84790I115031J0D01*
G01X3893300D01*
G02X3895890Y73800I-6728J-7386D01*
G01X3889160Y56400D01*
G02X3879840Y50020I-9316J3611D01*
G01X3117600D01*
G02X3112240Y51580I0J9990D01*
G37*
G36*
G01X2812510Y206270D02*
G03X2467950Y309680I-712494J-1748277D01*
G02X2459950Y320460I1944J9801D01*
G01X2461900Y340270D01*
G02X2471840Y349280I9942J-981D01*
G01X2719690D01*
G02X2726750Y346350I-7J-9989D01*
G01X2834190Y238920D01*
G02X2835450Y226330I-7064J-7065D01*
G01X2824600Y210000D01*
G02X2812510Y206270I-8324J5521D01*
G37*
G36*
G01X3730400Y869600D02*
G03X3729980Y863400I39599J-5797D01*
G02X3727060Y856240I-9990J-101D01*
G01X3664660Y793850D01*
G02X3657600Y790920I-7067J7058D01*
G01X3096880D01*
G02X3088090Y796160I0J9992D01*
G01X3079740Y811650D01*
G02X3080170Y821880I8786J4755D01*
G01X3080180D01*
G03X3081880Y862950I-33460J21955D01*
G02X3082070Y872830I8779J4773D01*
G01X3090860Y887600D01*
G02X3099450Y892480I8584J-5111D01*
G01X3710630D01*
G02X3718180Y889020I-10J-9989D01*
G01X3728080Y877580D01*
G02X3730400Y869600I-7565J-6526D01*
G37*
G36*
G01X3751880Y1520410D02*
G03X3751330Y1519860I28020J-28570D01*
G01X3744200Y1516860D01*
X3638720D01*
G03X3631650Y1513930I-2J-9990D01*
G01X3604870Y1487150D01*
G02X3597800Y1484220I-7068J7060D01*
G01X2954440D01*
G02X2946620Y1488000I5J9990D01*
G01X2936890Y1500270D01*
G02X2934980Y1508730I7821J6211D01*
G01Y1508740D01*
G03X2935900Y1520910I-38980J9066D01*
G01X2935730Y1523090D01*
X2937240Y1527190D01*
X2973190Y1563140D01*
G03X2976120Y1570210I-7060J7068D01*
G01Y1884850D01*
G02X2979050Y1891920I9990J2D01*
G01X3079650Y1992520D01*
G02X3090540Y1994690I7068J-7062D01*
G01Y1994680D01*
G02X3096680Y1986220I-3819J-9230D01*
G01Y1520790D01*
X3568780D01*
Y1620890D01*
X3568730D01*
Y1645830D01*
G02X3578720Y1655820I9990J0D01*
G01X3712210D01*
G02X3719280Y1652890I2J-9990D01*
G01X3720190Y1651980D01*
X3721710Y1648310D01*
Y1645830D01*
G03X3748010Y1608240I40022J6D01*
G01X3750970Y1607160D01*
X3754580Y1602010D01*
Y1569910D01*
X3754880Y1569610D01*
Y1527540D01*
X3751880Y1520410D01*
G37*
G36*
G01X2617100Y940450D02*
X2604750Y952800D01*
G02X2601820Y959870I7060J7068D01*
G01Y1093890D01*
G03X2598890Y1100950I-9988J-7D01*
G01X2598260Y1101590D01*
X2601090Y1107880D01*
G03X2562410Y1164260I-36498J16419D01*
G02X2554190Y1167850I-538J9974D01*
G01X2543930Y1180180D01*
G02X2541900Y1188920I7677J6389D01*
G03X2491040Y1236530I-38897J9419D01*
G02X2482140Y1238010I-2988J9534D01*
G01X2469150Y1247560D01*
G02X2465080Y1255610I5920J8047D01*
G01Y1329980D01*
G02X2468010Y1337050I9990J2D01*
G01X2491190Y1360240D01*
G03X2494120Y1367300I-7058J7067D01*
G01Y1509020D01*
G02X2497050Y1516090I9990J2D01*
G01X2525810Y1544850D01*
G02X2532880Y1547780I7068J-7060D01*
G01X2582390D01*
G03X2589450Y1550710I-7J9988D01*
G01X2675490Y1636750D01*
G03X2678420Y1643810I-7058J7067D01*
G01Y1718730D01*
G02X2681350Y1725800I9990J2D01*
G01X2694800Y1739250D01*
G02X2701870Y1742180I7068J-7060D01*
G01X2742700D01*
G02X2750290Y1738680I-4J-9989D01*
G03X2787900Y1725330I30410J26019D01*
G02X2796090Y1723180I1798J-9826D01*
G01X2807890Y1713340D01*
G02X2811480Y1705670I-6400J-7671D01*
G01Y1486870D01*
G03X2814410Y1479810I9989J8D01*
G01X2833890Y1460330D01*
G02X2836050Y1449440I-7067J-7061D01*
G02X2826820Y1443270I-9230J3819D01*
G01X2824530D01*
G02X2817460Y1446200I-2J9990D01*
G01X2727010Y1536650D01*
G02X2724110Y1544450I7063J7065D01*
G03X2687150Y1507490I-39910J2950D01*
G02X2694950Y1504590I735J-9963D01*
G01X2798680Y1400860D01*
G03X2805750Y1397930I7068J7060D01*
G01X3492170D01*
G02X3499240Y1395000I2J-9990D01*
G01X3576690Y1317550D01*
G02X3579590Y1309750I-7063J-7065D01*
G03X3616550Y1346710I39910J-2950D01*
G02X3608750Y1349610I-735J9963D01*
G01X3541240Y1417120D01*
G02X3539070Y1428010I7062J7068D01*
G01X3539080D01*
G02X3548310Y1434180I9230J-3818D01*
G01X3618530D01*
G03X3625590Y1437110I-8J9989D01*
G01X3652380Y1463890D01*
G02X3659440Y1466820I7067J-7058D01*
G01X3748670D01*
G03X3749880Y1465370I31323J24909D01*
G01Y1362600D01*
G03X3752810Y1355540I9989J8D01*
G01X3926270Y1182080D01*
G03X3933330Y1179150I7068J7059D01*
G01X4057470D01*
G02X4064530Y1176220I-7J-9989D01*
G01X4068280Y1172470D01*
G02X4070940Y1163080I-7057J-7071D01*
G01X4066970Y1146510D01*
G02X4060360Y1139340I-9714J2323D01*
G03X4032840Y1103440I12443J-38036D01*
G01Y1103430D01*
G02X4029930Y1096900I-9979J533D01*
G01X3873470Y940450D01*
G02X3866400Y937520I-7068J7060D01*
G01X2624170D01*
G02X2617100Y940450I-2J9990D01*
G37*
G36*
G01X2877770Y1558460D02*
X2865360Y1568160D01*
G02X2861520Y1576030I6150J7872D01*
G01Y1897090D01*
G02X2871510Y1907080I9990J0D01*
G01X2914750D01*
G02X2924740Y1897090I0J-9990D01*
G01Y1896960D01*
Y1582530D01*
G02X2921810Y1575460I-9990J-2D01*
G01X2906950Y1560600D01*
G02X2899110Y1557700I-7068J7059D01*
G03X2886340Y1556640I-3117J-39900D01*
G01X2886330D01*
G02X2877770Y1558460I-2413J9692D01*
G37*
G36*
G01X3196750Y1630850D02*
Y1724260D01*
G02X3200970Y1732420I9991J4D01*
G01X3214300Y1741840D01*
G02X3223400Y1743110I5776J-8151D01*
G03X3267140Y1754820I13336J37732D01*
G02X3274730Y1758320I7594J-6489D01*
G01X3294200D01*
G02X3301270Y1755390I2J-9990D01*
G01X3395420Y1661250D01*
G03X3402480Y1658320I7067J7058D01*
G01X3403650D01*
G03X3406890Y1654170I33096J22499D01*
G02X3408560Y1643430I-7446J-6658D01*
G01X3401110Y1626770D01*
G02X3391990Y1620860I-9119J4080D01*
G01X3206740D01*
G02X3196750Y1630850I0J9990D01*
G37*
G36*
G01X2648420Y1780690D02*
Y1877440D01*
G02X2653040Y1885860I9990J-4D01*
G01X2667260Y1894920D01*
G02X2676840Y1895560I5374J-8420D01*
G03X2722310Y1903820I16895J36280D01*
G02X2729440Y1906820I7137J-6989D01*
G01X2801490D01*
G02X2811480Y1896830I0J-9990D01*
G01Y1823730D01*
G02X2807890Y1816060I-9990J1D01*
G01X2796090Y1806220D01*
G02X2787900Y1804070I-6392J7676D01*
G03X2750290Y1790720I-7200J-39369D01*
G02X2742700Y1787220I-7594J6489D01*
G01X2683210D01*
G03X2676150Y1784290I7J-9988D01*
G01X2665480Y1773630D01*
G02X2654590Y1771460I-7068J7060D01*
G02X2648420Y1780690I3821J9231D01*
G37*
G36*
G01X3267140Y1806860D02*
G03X3223400Y1818570I-30404J-26022D01*
G02X3214300Y1819840I-3324J9421D01*
G01X3200970Y1829260D01*
G02X3196750Y1837420I5771J8156D01*
G01Y1920830D01*
G02X3206740Y1930820I9990J0D01*
G01X3284750D01*
G02X3293410Y1925830I10J-9992D01*
G01X3302070Y1910830D01*
G02Y1900840I-8654J-4995D01*
G03X3310710Y1850430I34661J-20005D01*
G02X3314210Y1842840I-6489J-7594D01*
G01Y1813350D01*
G02X3304220Y1803360I-9990J0D01*
G01X3274730D01*
G02X3267140Y1806860I4J9989D01*
G37*
%LPC*%
G75*
G36*
G01X265470Y410840D02*
G03X245480Y395850I-632J-19981D01*
G02X207990Y445840I-38752J9991D01*
G03X227980Y460830I632J19981D01*
G02X265470Y410840I38752J-9991D01*
G37*
G36*
G01X996310Y406850D02*
G03Y419830I-7601J6490D01*
G02X1057150I30420J26010D01*
G03Y406850I7601J-6490D01*
G02X996310I-30420J-26010D01*
G37*
G36*
G01X661680Y2153140D02*
G02X635130Y2188550I-39953J-2298D01*
G03X661780Y2208540I6692J18838D01*
G02X688330Y2173130I39953J2298D01*
G03X661680Y2153140I-6692J-18838D01*
G37*
G36*
G01X880460Y1574440D02*
G03X890820Y1565970I9880J1514D01*
G02X853180Y1519940I1918J-39973D01*
G03X842820Y1528410I-9880J-1514D01*
G02X880460Y1574440I-1918J39973D01*
G37*
G54D17*
X211730Y790840D03*
X131730Y1560840D03*
X573200Y1743530D03*
X401730Y1885840D03*
X2341730Y490840D03*
X2101730Y655840D03*
X916400Y1324600D03*
X3920700Y1088200D03*
G54D18*
X316730Y1792590D03*
G54D19*
X3620730Y1061840D03*
%LPD*%
G75*
G54D10*
X83730Y81840D03*
X266730Y450840D03*
X135000Y244800D03*
X206730Y405840D03*
X91730Y2235840D03*
X127730Y1399840D03*
X236730Y1743530D03*
X127730Y1876840D03*
X157730Y904840D03*
X211730Y790840D03*
X199400Y992920D03*
X186730Y1054330D03*
X131730Y1560840D03*
X248730Y2746840D03*
X1301500Y616240D03*
X1115700Y506100D03*
X830300Y594900D03*
X1301500Y493200D03*
X902200Y230500D03*
X793700Y233800D03*
X826200Y415100D03*
X1513730Y657840D03*
X1503100Y544600D03*
X711730Y380840D03*
X461730Y385840D03*
X1567900Y507800D03*
X1210730Y705840D03*
X1141730Y710840D03*
X331730Y378540D03*
X1336730Y240840D03*
X1434730Y550840D03*
X1791920Y584650D03*
X1996730Y370840D03*
X1926730D03*
X1962730Y536840D03*
X1397200Y495000D03*
X916730Y380840D03*
Y445840D03*
X1026730Y380840D03*
Y445840D03*
X849850Y511950D03*
X591730Y480640D03*
X1016730Y246110D03*
X1127200Y619300D03*
X821900Y665000D03*
X734100Y1526300D03*
X1036700Y1652400D03*
X942800Y1775500D03*
X943900Y1675900D03*
X460900Y1628200D03*
X1866400Y2415600D03*
X1297120Y2298370D03*
X1405400Y2363800D03*
X1275100Y1710100D03*
X1407700Y1556500D03*
X1546000Y1723500D03*
X1385900Y1640700D03*
X2011400Y1671400D03*
X1952700Y1613600D03*
X1658730Y2014840D03*
X354700Y884400D03*
X1301730Y1935840D03*
X1901730Y1845840D03*
X1536730Y1835840D03*
X1556730Y2145840D03*
X1092600Y801800D03*
X474730Y1437840D03*
X544820Y1806700D03*
X411730Y1575840D03*
X541730Y975840D03*
X1563900Y1541600D03*
X1253730Y1809840D03*
X1470730Y2084840D03*
X1221530Y1156000D03*
X586720Y1945840D03*
X952110Y2000840D03*
X1251530Y1223200D03*
X886730Y2080840D03*
X1731730Y870840D03*
X2031730D03*
X1831730Y1070840D03*
X1731730D03*
X1931730Y870840D03*
X1831730D03*
X1936730Y1070840D03*
X2031730Y970840D03*
X1731730Y1170840D03*
X2031730D03*
X1831730D03*
X1931730Y970840D03*
X1731730D03*
X1936730Y1270840D03*
X2031730D03*
Y1070840D03*
X1836730Y1270840D03*
X1831730Y970840D03*
X1931730Y1170840D03*
X1731730Y1270840D03*
X454730Y2391840D03*
X704100Y987100D03*
X598730Y889840D03*
X402730Y1735840D03*
X492730Y2284840D03*
X1114730Y1111840D03*
X886730Y2381840D03*
X990730Y2370840D03*
X1287200Y2401900D03*
X1558700Y2214840D03*
X986730Y2253840D03*
X880730Y2247840D03*
X1452530Y1918840D03*
X1315400Y1555600D03*
X573730Y2385840D03*
X1336730Y2078860D03*
X1999930Y2400840D03*
X1956730Y2170840D03*
X1931600Y1741900D03*
X1811730Y1760840D03*
X1871730Y1670840D03*
X1485530Y1618600D03*
X1946730Y2305840D03*
X1866730Y1995840D03*
X1980500Y1882900D03*
X355730Y2382840D03*
X366730Y2179840D03*
X327730Y790840D03*
X701730Y2210840D03*
X840900Y1568380D03*
X892740Y1526000D03*
X621730Y2150840D03*
X1156730Y775840D03*
X716730Y783540D03*
X1380780Y1086140D03*
X738730Y860840D03*
X346730Y2300840D03*
X1900400Y1514730D03*
X366750Y1180840D03*
X916400Y1324600D03*
X361730Y1360840D03*
X366730Y1290840D03*
X378730Y1496840D03*
X1064440Y1734130D03*
X1491730Y1350840D03*
X1297020Y1287550D03*
X736730Y1410740D03*
X637400Y778000D03*
X1063430Y746290D03*
X485730Y1555840D03*
X466730Y783540D03*
X724430Y1241340D03*
X366730Y1430840D03*
X1095100Y1050700D03*
X1481730Y1085840D03*
X573200Y1743530D03*
X401730Y1885840D03*
X1187730Y1054840D03*
X1286730Y894820D03*
X2394300Y444100D03*
X2284600Y442200D03*
X2386600Y697300D03*
X2849400Y513800D03*
X3075700Y112600D03*
X3311300Y657500D03*
X2507500Y700700D03*
X2826730Y420840D03*
X3012730Y623840D03*
X3590400Y78500D03*
X3401200Y80000D03*
X3214900D03*
X2711730Y655840D03*
X2646730Y565840D03*
X2583800Y621700D03*
X2503300Y530700D03*
X2201730Y560840D03*
X2751730Y260840D03*
X2687730Y322840D03*
X2649200Y718400D03*
X3669750Y658830D03*
X3312000Y476400D03*
X2258300Y685830D03*
X2320600Y677200D03*
X2061730Y370880D03*
X2341730Y490840D03*
X2216730Y635840D03*
X2101730Y655840D03*
X3512400Y476400D03*
X3032200Y1341700D03*
X3494900Y1349300D03*
X3283500Y1341700D03*
X3193100D03*
X2648100Y1227500D03*
X3664400Y1354700D03*
X2821600Y1350600D03*
X2253730Y2100840D03*
X2251730Y1989840D03*
X2278730Y1815840D03*
X3366740Y847700D03*
X2897100Y1712200D03*
X2071730Y2290840D03*
X3538400Y1278100D03*
X3411730Y1218540D03*
X2669030Y964490D03*
X2761500Y1864800D03*
X2703400Y1676700D03*
X3616730Y819840D03*
X2654300Y1348500D03*
X3052730Y1661840D03*
X3050730Y1865840D03*
X3465230Y824680D03*
X2933020Y992100D03*
X2861730Y995840D03*
Y1070840D03*
X2931730D03*
X3046740Y1215840D03*
X3604730Y2373840D03*
X3404730Y2369840D03*
X3198730Y2373840D03*
X3001730D03*
X2803730Y2378840D03*
X2605730Y2381840D03*
X2399730Y2382840D03*
X3593020Y2212100D03*
X3393020D03*
X3193020D03*
X2393020D03*
Y2012100D03*
X3594730Y2002840D03*
X2786730Y2275840D03*
X2997730Y2220840D03*
X2800730Y1993840D03*
X2571730Y2275840D03*
X2395730Y2116840D03*
X2576730Y1900840D03*
X2526930Y1346400D03*
X3593730Y1622000D03*
X3744530Y1066040D03*
X2530730Y1953840D03*
X2291730Y2260840D03*
X3112730Y2143840D03*
X2571730Y1695840D03*
X3469430Y1161170D03*
X2121730Y1170840D03*
Y1270840D03*
X2126730Y870840D03*
X2121730Y1070840D03*
Y970840D03*
X2193020Y2212100D03*
X2195730Y2386840D03*
X2081730Y2095840D03*
Y2000840D03*
X2885060Y795840D03*
X3336730Y1680840D03*
X3236730D03*
Y1880840D03*
X2251730Y1530840D03*
X3436730Y1880840D03*
X2299730Y1481840D03*
X3439240Y1780840D03*
X3046720Y843840D03*
X2259730Y1427840D03*
X2394100Y1415540D03*
X2548740Y802930D03*
X2896000Y1517800D03*
X2503000Y1198340D03*
X2651730Y815840D03*
X3770000Y863800D03*
X2556700Y2117800D03*
X2780700Y1764700D03*
X2532240Y903840D03*
X2490060Y950240D03*
X2684200Y1547400D03*
X3619500Y1306800D03*
X3651400Y1733340D03*
X3336730Y1880840D03*
X2564590Y1124300D03*
X2693730Y1931840D03*
X3023730Y2037840D03*
X3236730Y1780840D03*
X3761730Y1645840D03*
X3436730Y1680840D03*
X3779900Y1491840D03*
X3826600Y325500D03*
X3861730Y450840D03*
X3828730Y689840D03*
X4097730Y423840D03*
X4107730Y104840D03*
X3836730Y85840D03*
X3793570Y555230D03*
X3916700Y786600D03*
X4015400Y858400D03*
X4108700Y2342000D03*
X4122600Y1627000D03*
X3813600Y1828900D03*
X3920730Y2333840D03*
X4033900Y1915300D03*
X3989730Y2268840D03*
X3899520Y1029180D03*
X3831730Y1900840D03*
X3998100Y1436500D03*
X3929280Y1477220D03*
X3930300Y1302200D03*
X3864100Y1396300D03*
X3936730Y1636700D03*
X3804730Y2160840D03*
X3806730Y2385840D03*
X3920700Y1088200D03*
X4072800Y1101300D03*
X3986730Y2720840D03*
G54D11*
X206730Y2435840D03*
Y2865840D03*
X316730Y1007590D03*
Y1792590D03*
X3618500Y1060750D03*
X3618730Y1060840D03*
X3991730Y2435840D03*
Y2865840D03*
G54D12*
X2990730Y399840D03*
X3970730Y249840D03*
G54D13*
G01X1397200Y495000D02*
Y505550D01*
X1381600Y521150D01*
Y1005970D01*
X1313730Y1073840D01*
Y1270840D01*
X1297020Y1287550D01*
G01X1491730Y1350840D02*
X1428440Y1287550D01*
X1297020D01*
G01X3770000Y863800D02*
X3672100Y765900D01*
X3047800D01*
X2964130Y849570D01*
X2685460D01*
X2651730Y815840D01*
G01X3436730Y1680840D02*
X3726730D01*
X3761730Y1645840D01*
G01X2836500Y1931120D02*
X2837480Y1932100D01*
X2917990D01*
X3023730Y2037840D01*
G01X2693730Y1931840D02*
X2835780D01*
X2836500Y1931120D01*
G01D02*
Y1493100D01*
X2870400Y1459200D01*
X3612300D01*
X3644940Y1491840D01*
X3779900D01*
G01D02*
Y1579970D01*
X3779600Y1580270D01*
Y1622100D01*
X3761730Y1639970D01*
Y1645840D01*
G54D14*
G01X1380780Y1086140D02*
X1381430D01*
X1438730Y1028840D01*
Y602840D01*
G01X1791920Y584650D02*
X1773730Y602840D01*
X1438730D01*
G01D02*
X1434730Y598840D01*
Y550840D01*
G01X2369140Y808630D02*
X2307210Y746700D01*
X1953970D01*
X1791920Y584650D01*
G01X1063430Y746290D02*
X1062290D01*
X1057800Y741800D01*
X818100D01*
X766550Y690250D01*
Y568100D01*
X822700Y511950D01*
X849850D01*
G01X1016730Y246110D02*
X1098580D01*
X1246730Y394260D01*
G01X3798530Y555230D02*
X3758730Y515430D01*
Y254320D01*
X3675810Y171400D01*
X2944160D01*
X2736260Y379300D01*
X2131100D01*
X2053200Y457200D01*
X1887810D01*
X1824310Y393700D01*
X1247290D01*
X1246730Y394260D01*
G01D02*
X1246500Y394490D01*
Y616700D01*
G01X1127200Y619300D02*
X1243900D01*
X1246500Y616700D01*
G01X1286730Y894820D02*
Y704050D01*
X1246500Y663820D01*
Y616700D01*
G01X821900Y665000D02*
X1081500D01*
X1127200Y619300D01*
G01X736730Y1410740D02*
X793990Y1353480D01*
Y993890D01*
X637400Y837300D01*
Y778000D01*
G01X1286730Y894820D02*
Y955840D01*
X1187730Y1054840D01*
G01X2548740Y802930D02*
X2374840D01*
X2369140Y808630D01*
G01D02*
Y1390580D01*
X2394100Y1415540D01*
G01X3779900Y1491840D02*
Y1370900D01*
X3941630Y1209170D01*
X4074040D01*
X4135000Y1148210D01*
Y891700D01*
X3798530Y555230D01*
G01X3793570D02*
X3798530D01*
G54D15*
G01X378730Y1496840D02*
X326730D01*
X62730Y1232840D01*
Y249890D01*
X140420Y172200D01*
X1086690D01*
X1269890Y355400D01*
X1840890D01*
X1905190Y419700D01*
X1947870D01*
X1996730Y370840D01*
G01X466730Y783540D02*
X98700Y415510D01*
Y281100D01*
X135000Y244800D01*
G01X1962730Y536840D02*
X1921590Y495700D01*
X1870590D01*
X1808790Y433900D01*
X1379590D01*
X1349100Y464390D01*
Y961210D01*
X1167700Y1142610D01*
Y1630870D01*
X1064440Y1734130D01*
G01X591730Y480640D02*
Y734170D01*
X450900Y875000D01*
Y1199570D01*
X492670Y1241340D01*
X550300D01*
G01X1156730Y775840D02*
Y821040D01*
X1128470Y849300D01*
X1072920D01*
X1007160Y783540D01*
X716730D01*
G01X1900400Y1514730D02*
Y1513700D01*
X1867650Y1480950D01*
X1313780D01*
X1231400Y1563330D01*
Y1681090D01*
X1039150Y1873340D01*
X774230D01*
X346730Y2300840D01*
G01X466730Y783540D02*
X414250Y836020D01*
Y1453360D01*
X485730Y1524840D01*
Y1555840D01*
G01X2556700Y2117800D02*
X2625900Y2048600D01*
Y1661430D01*
X2564770Y1600300D01*
X2153900D01*
X2004540Y1450940D01*
X1301360D01*
X1197700Y1554600D01*
Y1671800D01*
X1026160Y1843340D01*
X821840D01*
X554900Y1576400D01*
Y1245940D01*
X550300Y1241340D01*
G01D02*
X724430D01*
G01X3929280Y1477220D02*
X3876000Y1530500D01*
Y1647570D01*
X3642730Y1880840D01*
X3436730D01*
G01X3864100Y1396300D02*
X3832130Y1428270D01*
Y1649010D01*
X3700300Y1780840D01*
X3439240D01*
G01X3046720Y843840D02*
X3006360Y884200D01*
X2649710D01*
X2621850Y856340D01*
X2472170D01*
X2412560Y915950D01*
Y1355880D01*
X2441600Y1384920D01*
Y1435220D01*
X2413780Y1463040D01*
X2348110D01*
X2312910Y1427840D01*
X2259730D01*
G01X2896000Y1517800D02*
X2953600Y1575400D01*
Y1898320D01*
X3126120Y2070840D01*
X3714730D01*
X3804730Y2160840D01*
G01X2532240Y903840D02*
X2537560Y909160D01*
Y1071000D01*
X2442560Y1166000D01*
Y1343450D01*
X2471600Y1372490D01*
Y1522490D01*
X2519410Y1570300D01*
X2577200D01*
X2655900Y1649000D01*
Y1732200D01*
X2688400Y1764700D01*
X2780700D01*
G01X3651400Y1733340D02*
X3419560D01*
X3336730Y1816170D01*
Y1880840D01*
G01X4072800Y1101300D02*
X4066170D01*
X3879870Y915000D01*
X2610700D01*
X2579300Y946400D01*
Y1088700D01*
X2564590Y1103410D01*
Y1124300D01*
G01X3236730Y1780840D02*
X3307670D01*
X3407670Y1680840D01*
X3436730D01*
G01X3930300Y1302200D02*
X3939800Y1311700D01*
Y1462700D01*
X3929280Y1473220D01*
Y1477220D01*
G54D16*
G01X3619500Y1306800D02*
X3505700Y1420600D01*
X2811000D01*
X2684200Y1547400D01*
M02*
