G04 ================== begin FILE IDENTIFICATION RECORD ==================*
G04 Layout Name:  CC2650_SensorTag.brd*
G04 Film Name:    Layer3_CC2650SensorTag*
G04 File Format:  Gerber RS274X*
G04 File Origin:  Cadence Allegro 16.6-S026*
G04 Origin Date:  Wed Apr 15 15:57:56 2015*
G04 *
G04 Layer:  BOARD GEOMETRY/OUTLINE*
G04 Layer:  ETCH/L3*
G04 Layer:  PIN/L3*
G04 Layer:  VIA CLASS/L3*
G04 *
G04 Offset:    (0.0000 0.0000)*
G04 Mirror:    No*
G04 Mode:      Positive*
G04 Rotation:  0*
G04 FullContactRelief:  No*
G04 UndefLineWidth:     0.0000*
G04 ================== end FILE IDENTIFICATION RECORD ====================*
%FSLAX25Y25*MOMM*%
%IR0*IPPOS*OFA0.00000B0.00000*MIA0B0*SFA1.00000B1.00000*%
%ADD11C,.1*%
%ADD10C,.5*%
%ADD12O,2.X3.6*%
%ADD13C,.2*%
%ADD14C,.15*%
%ADD15C,.25*%
%ADD17C,.8004*%
%ADD16C,1.005*%
%ADD18C,1.2004*%
G75*
%LPD*%
G75*
G36*
G01X50010Y60010D02*
Y129150D01*
G02X56180Y138380I9991J-1D01*
G02X67070Y136210I3822J-9230D01*
G01X136200Y67080D01*
G02X138370Y56190I-7060J-7068D01*
G02X129140Y50020I-9231J3821D01*
G01X60000D01*
G02X50010Y60010I0J9990D01*
G37*
G36*
G01X292700Y420330D02*
X294120Y421660D01*
G03X227980Y460830I-27388J29180D01*
G01Y460820D01*
G02X224300Y455330I-9672J2505D01*
G01X214300Y447830D01*
G02X208000Y445840I-5990J7995D01*
G01X207990D01*
G03X184150Y372800I-1259J-40000D01*
G01X185140Y372120D01*
X185940Y371230D01*
G02X185190Y357110I-7423J-6686D01*
G01X183840Y355900D01*
G03X180520Y348470I6669J-7437D01*
G01Y299110D01*
G02X175890Y290680I-9990J0D01*
G01X161930Y281810D01*
G02X154390Y280490I-5362J8432D01*
G01X152080Y281010D01*
X151180Y281410D01*
G03X131670Y284680I-16165J-36612D01*
G01X129580Y284500D01*
X125620Y285860D01*
X113250Y297250D01*
G02X110020Y304600I6759J7355D01*
G01Y653140D01*
G02X112950Y660210I9990J2D01*
G01X200780Y748040D01*
G02X208220Y750950I7055J-7071D01*
G01X208610Y750940D01*
X208780Y750930D01*
G03X171820Y787890I2950J39910D01*
G01X171830Y787720D01*
X171840Y787330D01*
G02X168930Y779890I-9981J-385D01*
G01X97080Y708040D01*
G02X86190Y705870I-7068J7062D01*
G01Y705880D01*
G02X80020Y715110I3818J9230D01*
G01Y1473140D01*
G02X82950Y1480210I9990J2D01*
G01X120780Y1518040D01*
G02X128220Y1520950I7055J-7071D01*
G01X128610Y1520940D01*
X128780Y1520930D01*
G03X91820Y1557890I2950J39910D01*
G01X91830Y1557720D01*
X91840Y1557330D01*
G02X88930Y1549890I-9981J-385D01*
G01X67070Y1528030D01*
G02X56180Y1525860I-7068J7062D01*
G01Y1525870D01*
G02X50010Y1535100I3818J9230D01*
G01Y2430850D01*
G02X60000Y2440840I9990J0D01*
G01X132970D01*
G02X139780Y2438160I1J-9991D01*
G01X144110Y2434120D01*
G02X147210Y2428110I-6805J-7314D01*
G01Y2428100D01*
G03X266250Y2428090I59521J7738D01*
G01Y2428110D01*
G02X269350Y2434120I9905J-1304D01*
G01X273680Y2438160D01*
G02X280490Y2440840I6809J-7311D01*
G01X317720D01*
Y2440820D01*
X3485750D01*
Y2440840D01*
X3757990D01*
G02X3766880Y2435410I1J-9991D01*
G01X3774690Y2420180D01*
G02X3775310Y2412560I-8889J-4558D01*
G01X3774250Y2409270D01*
X3773470Y2408100D01*
G03X3839990I33260J-22260D01*
G01X3839210Y2409270D01*
X3838150Y2412560D01*
G02X3838770Y2420180I9509J3062D01*
G01X3846580Y2435410D01*
G02X3855470Y2440840I8889J-4561D01*
G01X3917970D01*
G02X3924780Y2438160I1J-9991D01*
G01X3929110Y2434120D01*
G02X3932210Y2428110I-6805J-7314D01*
G01Y2428100D01*
G03X4051250Y2428090I59521J7738D01*
G01Y2428110D01*
G02X4054350Y2434120I9905J-1304D01*
G01X4058680Y2438160D01*
G02X4065490Y2440840I6809J-7311D01*
G01X4140000D01*
G02X4149990Y2430850I0J-9990D01*
G01Y60010D01*
G02X4140000Y50020I-9990J0D01*
G01X4061620D01*
G02X4052300Y56400I-5J9990D01*
G01X4045570Y73790D01*
G02X4048170Y84790I9318J3605D01*
G03X4085750Y169840I-77451J85050D01*
G01Y329840D01*
G03X3855710I-115020J0D01*
G01Y169840D01*
G03X3893290Y84790I115031J0D01*
G02X3895890Y73790I-6718J-7395D01*
G01X3889160Y56400D01*
G02X3879840Y50020I-9315J3610D01*
G01X3119020D01*
G02X3116230Y50420I9J9990D01*
G01X3112240Y51580D01*
X3111040Y52340D01*
G03X2121290Y345770I-1011044J-1594341D01*
G02X2114000Y349050I112J9989D01*
G01X2104160Y359900D01*
G02X2101600Y367460I7392J6717D01*
G03X2101610Y374180I-39871J3419D01*
G01X2101440Y376270D01*
X2102790Y380220D01*
X2114170Y392590D01*
G02X2121530Y395820I7355J-6760D01*
G01X2189430D01*
G03X2196490Y398750I-7J9988D01*
G01X2274600Y476850D01*
G02X2283140Y479660I7058J-7068D01*
G01X2301390Y476930D01*
X2305260Y474190D01*
X2306380Y472080D01*
G03X2360490Y526190I35350J18760D01*
G01X2358380Y527310D01*
X2355640Y531180D01*
X2352910Y549430D01*
G02X2355720Y557970I9878J1482D01*
G01X2460790Y663050D01*
G03X2463720Y670110I-7058J7067D01*
G01Y902980D01*
G02X2473710Y912970I9990J0D01*
G01X2475390D01*
X2476980Y912420D01*
G03X2480970Y911270I13063J37826D01*
G01X2482460Y910920D01*
X2485080Y909380D01*
X2489060Y904990D01*
G02X2490710Y902510I-7402J-6713D01*
G01X2492550Y898560D01*
X2492770Y897220D01*
G03X2541330Y942810I39468J6617D01*
G02X2536200Y945830I2273J9727D01*
G01X2533240Y949090D01*
G02X2531590Y951570I7402J6713D01*
G01X2529750Y955520D01*
X2529530Y956860D01*
G03X2517250Y979610I-39471J-6616D01*
G01X2515880Y980880D01*
X2513320Y986110D01*
G02X2512310Y990080I8972J4396D01*
G01X2511790Y1002670D01*
G02X2514710Y1010150I9982J413D01*
G01X2582580Y1078020D01*
G03X2583160Y1078620I-15906J15956D01*
G01X2586240Y1081700D01*
G03X2589110Y1089880I-7057J7069D01*
G02X2589090Y1091920I9927J1117D01*
G03X2589150Y1092690I-22430J2135D01*
G03X2562530Y1164270I-24552J31609D01*
G01X2562400Y1164260D01*
X2562140Y1164250D01*
G02X2554190Y1167850I-268J9986D01*
G01X2543990Y1180100D01*
G02X2541750Y1187680I7681J6391D01*
G01X2541900Y1188890D01*
X2542020Y1189410D01*
G03X2505060Y1158370I-39015J8931D01*
G01X2505190Y1158380D01*
X2505450Y1158390D01*
G02X2513400Y1154790I268J-9986D01*
G01X2523600Y1142540D01*
G02X2525840Y1134960I-7681J-6391D01*
G01X2525690Y1133750D01*
X2525580Y1133230D01*
G03X2531390Y1101960I39010J-8927D01*
G01X2533390Y1098990D01*
X2532700Y1091860D01*
X2461760Y1020920D01*
X2461710D01*
X2421610Y980810D01*
G03X2418680Y973750I7058J-7067D01*
G01Y688770D01*
G02X2415750Y681700I-9990J-2D01*
G01X2360180Y626130D01*
G02X2349290Y623960I-7068J7062D01*
G01Y623970D01*
G02X2343120Y633200I3818J9230D01*
G01Y637010D01*
G02X2344040Y641190I9989J-7D01*
G01X2346570Y646690D01*
X2347990Y648020D01*
G03X2302540Y712910I-27391J29177D01*
G01X2301170Y712220D01*
X2298180Y711720D01*
X2292290Y712540D01*
G02X2289400Y713400I1372J9896D01*
G01X2285460Y715260D01*
X2284430Y716150D01*
G03X2229120Y713220I-26127J-30318D01*
G01X2227790Y711800D01*
X2222290Y709270D01*
G02X2218110Y708350I-4187J9069D01*
G01X2193710D01*
G03X2186650Y705420I7J-9988D01*
G01X2161680Y680460D01*
G02X2154200Y677540I-7067J7062D01*
G01X2137420Y678240D01*
X2133650Y680080D01*
X2132300Y681680D01*
G03X2061750Y657520I-30564J-25836D01*
G01Y657510D01*
G02X2058680Y650720I-9981J424D01*
G01X2048690Y641140D01*
G02X2041770Y638360I-6915J7210D01*
G01X1926530D01*
G03X1919460Y635430I-2J-9990D01*
G01X1865120Y581090D01*
G02X1855060Y578620I-7067J7063D01*
G01X1838150Y583940D01*
G02X1831310Y591700I2991J9531D01*
G01Y591710D01*
G03X1771780Y619230I-39390J-7061D01*
G01X1771770D01*
G02X1761770Y619200I-5026J8632D01*
G01X1746740Y627840D01*
G02X1741730Y636500I4980J8660D01*
G01Y765850D01*
G03X1731740Y775840I-9990J0D01*
G01X1686720D01*
G03X1676730Y765850I0J-9990D01*
G01Y490650D01*
G02X1666740Y480660I-9990J0D01*
G01X1456940D01*
G02X1450220Y483260I2J9990D01*
G01X1443020Y489810D01*
G02X1439760Y496780I6721J7391D01*
G03X1439460Y500370I-42563J-1749D01*
G02X1441080Y507200I9911J1256D01*
G01X1442280Y508980D01*
X1447330Y512830D01*
X1448720Y513350D01*
G03X1472330Y564530I-13992J37491D01*
G01X1471730Y566190D01*
Y710850D01*
G02X1481720Y720840I9990J0D01*
G01X1566740D01*
G03X1576730Y730830I0J9990D01*
G01Y766700D01*
G03X1573800Y773770I-9990J2D01*
G01X1573250Y774320D01*
X1571420Y775080D01*
G03X1567590Y775840I-3822J-9231D01*
G01X1426720D01*
G03X1416730Y765850I0J-9990D01*
G01Y589780D01*
X1414400Y585400D01*
X1412330Y584000D01*
G03X1394780Y548370I22395J-33168D01*
G01X1394790Y548230D01*
X1394800Y547910D01*
G02X1393110Y542000I-9984J-342D01*
G01X1391920Y540230D01*
G02X1386210Y536150I-8294J5572D01*
G03X1358760Y476640I10990J-41155D01*
G02X1358110Y466870I-9015J-4307D01*
G01X1350620Y455410D01*
G02X1342250Y450880I-8366J5460D01*
G01X1276630D01*
G03X1269560Y447950I-2J-9990D01*
G01X1083100Y261490D01*
G02X1074690Y258660I-7060J7068D01*
G01X1058920Y260810D01*
G02X1051570Y265800I1351J9898D01*
G03X980690Y228710I-34840J-19692D01*
G01X980700Y228700D01*
G02X980160Y219040I-8999J-4342D01*
G01X971150Y204700D01*
G02X962690Y200030I-8456J5321D01*
G01X678530D01*
G02X671460Y202960I-2J9990D01*
G01X617180Y257240D01*
G02X614250Y264310I7060J7068D01*
G01Y440450D01*
G02X615170Y444630I9989J-7D01*
G01X617700Y450130D01*
X619120Y451460D01*
G03X564340I-27390J29180D01*
G01X565760Y450130D01*
X568290Y444630D01*
G02X569210Y440450I-9069J-4187D01*
G01Y245650D01*
G03X572140Y238580I9990J-2D01*
G01X623640Y187080D01*
G02X625800Y176190I-7066J-7061D01*
G01X624640Y173390D01*
X619610Y170030D01*
X363530D01*
G02X356460Y172960I-2J9990D01*
G01X292180Y237240D01*
G02X289250Y244310I7060J7068D01*
G01Y410650D01*
G02X290170Y414830I9989J-7D01*
G01X292700Y420330D01*
G37*
G36*
G01X1234600Y179570D02*
X1333480Y278450D01*
G02X1340550Y281380I7068J-7060D01*
G01X1448190D01*
G03X1455250Y284310I-7J9988D01*
G01X1483640Y312690D01*
G02X1490710Y315620I7068J-7060D01*
G01X1587060D01*
G02X1596960Y306990I2J-9992D01*
G01X1599640Y287360D01*
G02X1592430Y276380I-9895J-1360D01*
G03X1257660Y147550I507593J-1818373D01*
G01X1257650D01*
G02X1245090Y150650I-4456J8940D01*
G01X1233560Y166670D01*
G02X1234600Y179570I8105J5838D01*
G37*
G36*
G01X2052380Y523320D02*
X2124740D01*
G03X2131800Y526250I-7J9988D01*
G01X2199500Y593940D01*
G02X2208590Y596660I7066J-7063D01*
G03X2256670Y633300I8142J39182D01*
G02X2258960Y639050I9968J-639D01*
G01X2262840Y643720D01*
G02X2268080Y647020I7681J-6386D01*
G03X2276360Y650120I-9806J38800D01*
G02X2282240Y651100I4508J-8917D01*
G01X2288120Y650280D01*
G02X2293510Y647740I-1369J-9894D01*
G03X2294580Y646790I27102J29448D01*
G02X2298080Y639200I-6489J-7594D01*
G01Y613180D01*
G02X2295150Y606110I-9990J-2D01*
G01X2162830Y473790D01*
G02X2155760Y470860I-7068J7060D01*
G01X2103210D01*
X2103170Y470900D01*
X2019940D01*
G02X2010710Y477070I1J9991D01*
G02X2012880Y487960I9230J3822D01*
G01X2045310Y520390D01*
G02X2052380Y523320I7068J-7060D01*
G37*
%LPC*%
G75*
G36*
G01X3558760Y1520820D02*
X3106700D01*
G02X3096710Y1530810I0J9990D01*
G01Y2020870D01*
G02X3106700Y2030860I9990J0D01*
G01X3558760D01*
G02X3568750Y2020870I0J-9990D01*
G01Y1930820D01*
X3568730D01*
Y1665830D01*
G02X3558740Y1655840I-9990J0D01*
G01X3472460D01*
G03X3465320Y1652840I-2J-9991D01*
G02X3438110Y1640840I-28598J27996D01*
G01X3438100D01*
G03X3428460Y1630860I348J-9982D01*
G01Y1630850D01*
G03X3438450Y1620860I9990J0D01*
G01X3558760D01*
G02X3568750Y1610870I0J-9990D01*
G01Y1530810D01*
G02X3558760Y1520820I-9990J0D01*
G37*
G36*
G01X661680Y2153140D02*
G02X635130Y2188550I-39953J-2298D01*
G03X661780Y2208540I6692J18838D01*
G02X688330Y2173130I39953J2298D01*
G03X661680Y2153140I-6692J-18838D01*
G37*
G36*
G01X1127120Y1026700D02*
G02X1124850Y1077470I-32021J24004D01*
G03X1155710Y1078840I14867J13364D01*
G02X1157980Y1028070I32021J-24004D01*
G03X1127120Y1026700I-14867J-13364D01*
G37*
G36*
G01X260470Y1028490D02*
G02X267350Y973480I56261J-20899D01*
G03X258800Y977790I-8223J-5678D01*
G01X241990Y977240D01*
G03X233750Y972380I336J-9985D01*
G01X233740D01*
G02X162540Y1008510I-34338J20551D01*
G03X163130Y1014420I-9197J3903D01*
G01X161930Y1020230D01*
G03X159050Y1025420I-9780J-2033D01*
G02X223590Y1038740I27678J28908D01*
G03X223000Y1032830I9197J-3903D01*
G01X224200Y1027020D01*
G03X227080Y1021830I9780J2033D01*
G02X227630Y1021290I-27763J-28827D01*
G03X236820Y1018610I7050J7077D01*
G01X253240Y1022210D01*
G03X260470Y1028490I-2136J9761D01*
G37*
G36*
G01X665940Y749950D02*
G02X661760Y809750I-28541J28051D01*
G03X688190Y811590I12175J15856D01*
G02X695480Y817450I28545J-28047D01*
G03X699780Y823180I-5309J8462D01*
G01X703450Y836060D01*
G03X702810Y843200I-9609J2737D01*
G02X759980Y826930I35921J17641D01*
G03X755680Y821200I5309J-8462D01*
G01X752010Y808320D01*
G03X752650Y801180I9609J-2737D01*
G02X692370Y751790I-35922J-17638D01*
G03X665940Y749950I-12175J-15856D01*
G37*
G36*
G01X1101540Y734060D02*
G02X1087550Y778230I-38108J12230D01*
G03X1118620Y788070I12041J15953D01*
G02X1132610Y743900I38108J-12230D01*
G03X1101540Y734060I-12041J-15953D01*
G37*
G36*
G01X949070Y404420D02*
G02X884390I-32340J-23580D01*
G03X886310Y410300I-8069J5888D01*
G01Y416380D01*
G03X884390Y422260I-9989J-8D01*
G02X876950Y450200I32342J23573D01*
G03X874040Y458390I-9930J1084D01*
G01X862900Y469410D01*
G03X854670Y472220I-7021J-7107D01*
G02X889630Y507590I-4822J39728D01*
G03X892540Y499400I9930J-1084D01*
G01X903680Y488380D01*
G03X911910Y485570I7021J7107D01*
G02X949070Y422260I4822J-39730D01*
G03X947150Y416380I8069J-5888D01*
G01Y410300D01*
G03X949070Y404420I9989J8D01*
G37*
G36*
G01X3605200Y193060D02*
Y193000D01*
X3226500D01*
Y193030D01*
X3212030D01*
G02X3172020Y233040I0J40010D01*
G01Y588020D01*
G02X3212030Y628070I40020J30D01*
G01X3226500D01*
Y628100D01*
X3605200D01*
Y628090D01*
X3618390D01*
G02X3658400Y588080I-3J-40013D01*
G01Y233070D01*
G02X3618390Y193060I-40017J7D01*
G01X3605200D01*
G37*
G36*
G01X1057150Y419830D02*
G03Y406850I7596J-6490D01*
G02X996310I-30420J-26010D01*
G03Y419830I-7596J6490D01*
G02X1057150I30420J26010D01*
G37*
G36*
G01X392450Y1331040D02*
X392900Y1324700D01*
G03X395650Y1318500I9966J711D01*
G02X334170Y1314110I-28922J-27660D01*
G03X336010Y1320640I-8124J5813D01*
G01X335560Y1326980D01*
G03X332810Y1333180I-9966J-711D01*
G02Y1388500I28920J27660D01*
G03X335560Y1394700I-7216J6911D01*
G01X336010Y1401040D01*
G03X334170Y1407570I-9964J717D01*
G02X339850Y1460490I32560J23270D01*
G03X342970Y1466100I-6708J7403D01*
G01X344080Y1472200D01*
G03X343130Y1478550I-9831J1775D01*
G02X405610Y1467190I35598J18289D01*
G03X402490Y1461580I6708J-7403D01*
G01X401380Y1455480D01*
G03X402330Y1449130I9831J-1775D01*
G02X395650Y1403180I-35599J-18285D01*
G03X392900Y1396980I7216J-6911D01*
G01X392450Y1390640D01*
G03X394290Y1384110I9964J-717D01*
G02Y1337570I-32560J-23270D01*
G03X392450Y1331040I8124J-5813D01*
G37*
G36*
G01X2305400Y1439690D02*
X2301700Y1434700D01*
G03X2299740Y1428570I8030J-5946D01*
G02X2248770Y1466330I-40012J-729D01*
G03X2254060Y1469990I-2736J9608D01*
G01X2259910Y1477880D01*
G02X2259720Y1481060I39820J3975D01*
G01X2252720Y1488200D01*
G03X2246810Y1491120I-7131J-6993D01*
G02X2291540Y1534940I4919J39718D01*
G03X2294340Y1528970I9937J1019D01*
G01X2298740Y1524480D01*
G03X2304650Y1521560I7131J6993D01*
G02X2310690Y1443350I-4917J-39718D01*
G03X2305400Y1439690I2736J-9608D01*
G37*
G36*
G01X880460Y1574440D02*
G03X890820Y1565970I9880J1514D01*
G02X853180Y1519940I1918J-39973D01*
G03X842820Y1528410I-9880J-1514D01*
G02X880460Y1574440I-1918J39973D01*
G37*
G54D17*
X4072800Y1101300D03*
X3920700Y1088200D03*
X3804730Y2160840D03*
X3936730Y1636700D03*
X3864100Y1396300D03*
X3930300Y1302200D03*
X3929280Y1477220D03*
X3793570Y555230D03*
X3779900Y1491840D03*
X3761730Y1645840D03*
X3023730Y2037840D03*
X2693730Y1931840D03*
X3651400Y1733340D03*
X3619500Y1306800D03*
X2684200Y1547400D03*
X2780700Y1764700D03*
X2556700Y2117800D03*
X3770000Y863800D03*
X2651730Y815840D03*
X2896000Y1517800D03*
X2548740Y802930D03*
X2394100Y1415540D03*
X3046720Y843840D03*
X1286730Y894820D03*
X401730Y1885840D03*
X573200Y1743530D03*
X1481730Y1085840D03*
X724430Y1241340D03*
X466730Y783540D03*
X485730Y1555840D03*
X736730Y1410740D03*
X1297020Y1287550D03*
X1491730Y1350840D03*
X1064440Y1734130D03*
X916400Y1324600D03*
X366750Y1180840D03*
X1900400Y1514730D03*
X346730Y2300840D03*
X1380780Y1086140D03*
X821900Y665000D03*
X1127200Y619300D03*
G54D16*
X3619730Y1061840D03*
G54D18*
X316730Y1792590D03*
%LPD*%
G75*
G36*
G01X3196750Y1630850D02*
Y1724260D01*
G02X3200970Y1732420I9991J4D01*
G01X3214300Y1741840D01*
G02X3223400Y1743110I5776J-8151D01*
G03Y1818570I13330J37730D01*
G02X3214300Y1819840I-3324J9421D01*
G01X3200970Y1829260D01*
G02X3196750Y1837420I5771J8156D01*
G01Y1920830D01*
G02X3206740Y1930820I9990J0D01*
G01X3284750D01*
G02X3293410Y1925830I10J-9992D01*
G01X3302070Y1910830D01*
G02Y1900840I-8654J-4995D01*
G03X3370070Y1858710I34660J-20000D01*
G01X3370080D01*
G02X3378400Y1863180I8326J-5519D01*
G01X3395060D01*
G02X3403380Y1858710I-6J-9989D01*
G01X3403390D01*
G03X3447940Y1842420I33345J22129D01*
G01X3449310Y1842820D01*
X3450740D01*
G02X3460730Y1832830I0J-9990D01*
G01Y1829510D01*
G02X3450740Y1819520I-9990J0D01*
G01X3449570D01*
X3448440Y1819790D01*
G03Y1741890I-9200J-38950D01*
G01X3449570Y1742160D01*
X3450740D01*
G02X3460730Y1732170I0J-9990D01*
G01Y1728850D01*
G02X3450740Y1718860I-9990J0D01*
G01X3449310D01*
X3447940Y1719260D01*
G03X3406890Y1654170I-11212J-38419D01*
G02X3408560Y1643430I-7446J-6658D01*
G01X3401110Y1626770D01*
G02X3391990Y1620860I-9119J4080D01*
G01X3206740D01*
G02X3196750Y1630850I0J9990D01*
G37*
G54D10*
X83730Y81840D03*
X266730Y450840D03*
X135000Y244800D03*
X206730Y405840D03*
X91730Y2235840D03*
X127730Y1399840D03*
X236730Y1743530D03*
X127730Y1876840D03*
X157730Y904840D03*
X211730Y790840D03*
X199400Y992920D03*
X186730Y1054330D03*
X131730Y1560840D03*
X248730Y2746840D03*
X1301500Y616240D03*
X1115700Y506100D03*
X830300Y594900D03*
X1301500Y493200D03*
X902200Y230500D03*
X793700Y233800D03*
X826200Y415100D03*
X1513730Y657840D03*
X1503100Y544600D03*
X711730Y380840D03*
X461730Y385840D03*
X1567900Y507800D03*
X1210730Y705840D03*
X1141730Y710840D03*
X331730Y378540D03*
X1336730Y240840D03*
X1434730Y550840D03*
X1791920Y584650D03*
X1996730Y370840D03*
X1926730D03*
X1962730Y536840D03*
X1397200Y495000D03*
X916730Y380840D03*
Y445840D03*
X1026730Y380840D03*
Y445840D03*
X849850Y511950D03*
X591730Y480640D03*
X1016730Y246110D03*
X1127200Y619300D03*
X821900Y665000D03*
X734100Y1526300D03*
X1036700Y1652400D03*
X942800Y1775500D03*
X943900Y1675900D03*
X460900Y1628200D03*
X1866400Y2415600D03*
X1297120Y2298370D03*
X1405400Y2363800D03*
X1275100Y1710100D03*
X1407700Y1556500D03*
X1546000Y1723500D03*
X1385900Y1640700D03*
X2011400Y1671400D03*
X1952700Y1613600D03*
X1658730Y2014840D03*
X354700Y884400D03*
X1301730Y1935840D03*
X1901730Y1845840D03*
X1536730Y1835840D03*
X1556730Y2145840D03*
X1092600Y801800D03*
X474730Y1437840D03*
X544820Y1806700D03*
X411730Y1575840D03*
X541730Y975840D03*
X1563900Y1541600D03*
X1253730Y1809840D03*
X1470730Y2084840D03*
X1221530Y1156000D03*
X586720Y1945840D03*
X952110Y2000840D03*
X1251530Y1223200D03*
X886730Y2080840D03*
X1731730Y870840D03*
X2031730D03*
X1831730Y1070840D03*
X1731730D03*
X1931730Y870840D03*
X1831730D03*
X1936730Y1070840D03*
X2031730Y970840D03*
X1731730Y1170840D03*
X2031730D03*
X1831730D03*
X1931730Y970840D03*
X1731730D03*
X1936730Y1270840D03*
X2031730D03*
Y1070840D03*
X1836730Y1270840D03*
X1831730Y970840D03*
X1931730Y1170840D03*
X1731730Y1270840D03*
X454730Y2391840D03*
X704100Y987100D03*
X598730Y889840D03*
X402730Y1735840D03*
X492730Y2284840D03*
X1114730Y1111840D03*
X886730Y2381840D03*
X990730Y2370840D03*
X1287200Y2401900D03*
X1558700Y2214840D03*
X986730Y2253840D03*
X880730Y2247840D03*
X1452530Y1918840D03*
X1315400Y1555600D03*
X573730Y2385840D03*
X1336730Y2078860D03*
X1999930Y2400840D03*
X1956730Y2170840D03*
X1931600Y1741900D03*
X1811730Y1760840D03*
X1871730Y1670840D03*
X1485530Y1618600D03*
X1946730Y2305840D03*
X1866730Y1995840D03*
X1980500Y1882900D03*
X355730Y2382840D03*
X366730Y2179840D03*
X327730Y790840D03*
X701730Y2210840D03*
X840900Y1568380D03*
X892740Y1526000D03*
X621730Y2150840D03*
X1156730Y775840D03*
X716730Y783540D03*
X1380780Y1086140D03*
X738730Y860840D03*
X346730Y2300840D03*
X1900400Y1514730D03*
X366750Y1180840D03*
X916400Y1324600D03*
X361730Y1360840D03*
X366730Y1290840D03*
X378730Y1496840D03*
X1064440Y1734130D03*
X1491730Y1350840D03*
X1297020Y1287550D03*
X736730Y1410740D03*
X637400Y778000D03*
X1063430Y746290D03*
X485730Y1555840D03*
X466730Y783540D03*
X724430Y1241340D03*
X366730Y1430840D03*
X1095100Y1050700D03*
X1481730Y1085840D03*
X573200Y1743530D03*
X401730Y1885840D03*
X1187730Y1054840D03*
X1286730Y894820D03*
X2394300Y444100D03*
X2284600Y442200D03*
X2386600Y697300D03*
X2849400Y513800D03*
X3075700Y112600D03*
X3311300Y657500D03*
X2507500Y700700D03*
X2826730Y420840D03*
X3012730Y623840D03*
X3590400Y78500D03*
X3401200Y80000D03*
X3214900D03*
X2711730Y655840D03*
X2646730Y565840D03*
X2583800Y621700D03*
X2503300Y530700D03*
X2201730Y560840D03*
X2751730Y260840D03*
X2687730Y322840D03*
X2649200Y718400D03*
X3669750Y658830D03*
X3312000Y476400D03*
X2258300Y685830D03*
X2320600Y677200D03*
X2061730Y370880D03*
X2341730Y490840D03*
X2216730Y635840D03*
X2101730Y655840D03*
X3512400Y476400D03*
X3032200Y1341700D03*
X3494900Y1349300D03*
X3283500Y1341700D03*
X3193100D03*
X2648100Y1227500D03*
X3664400Y1354700D03*
X2821600Y1350600D03*
X2253730Y2100840D03*
X2251730Y1989840D03*
X2278730Y1815840D03*
X3366740Y847700D03*
X2897100Y1712200D03*
X2071730Y2290840D03*
X3538400Y1278100D03*
X3411730Y1218540D03*
X2669030Y964490D03*
X2761500Y1864800D03*
X2703400Y1676700D03*
X3616730Y819840D03*
X2654300Y1348500D03*
X3052730Y1661840D03*
X3050730Y1865840D03*
X3465230Y824680D03*
X2933020Y992100D03*
X2861730Y995840D03*
Y1070840D03*
X2931730D03*
X3046740Y1215840D03*
X3604730Y2373840D03*
X3404730Y2369840D03*
X3198730Y2373840D03*
X3001730D03*
X2803730Y2378840D03*
X2605730Y2381840D03*
X2399730Y2382840D03*
X3593020Y2212100D03*
X3393020D03*
X3193020D03*
X2393020D03*
Y2012100D03*
X3594730Y2002840D03*
X2786730Y2275840D03*
X2997730Y2220840D03*
X2800730Y1993840D03*
X2571730Y2275840D03*
X2395730Y2116840D03*
X2576730Y1900840D03*
X2526930Y1346400D03*
X3593730Y1622000D03*
X3744530Y1066040D03*
X2530730Y1953840D03*
X2291730Y2260840D03*
X3112730Y2143840D03*
X2571730Y1695840D03*
X3469430Y1161170D03*
X2121730Y1170840D03*
Y1270840D03*
X2126730Y870840D03*
X2121730Y1070840D03*
Y970840D03*
X2193020Y2212100D03*
X2195730Y2386840D03*
X2081730Y2095840D03*
Y2000840D03*
X2885060Y795840D03*
X3336730Y1680840D03*
X3236730D03*
Y1880840D03*
X2251730Y1530840D03*
X3436730Y1880840D03*
X2299730Y1481840D03*
X3439240Y1780840D03*
X3046720Y843840D03*
X2259730Y1427840D03*
X2394100Y1415540D03*
X2548740Y802930D03*
X2896000Y1517800D03*
X2503000Y1198340D03*
X2651730Y815840D03*
X3770000Y863800D03*
X2556700Y2117800D03*
X2780700Y1764700D03*
X2532240Y903840D03*
X2490060Y950240D03*
X2684200Y1547400D03*
X3619500Y1306800D03*
X3651400Y1733340D03*
X3336730Y1880840D03*
X2564590Y1124300D03*
X2693730Y1931840D03*
X3023730Y2037840D03*
X3236730Y1780840D03*
X3761730Y1645840D03*
X3436730Y1680840D03*
X3779900Y1491840D03*
X3826600Y325500D03*
X3861730Y450840D03*
X3828730Y689840D03*
X4097730Y423840D03*
X4107730Y104840D03*
X3836730Y85840D03*
X3793570Y555230D03*
X3916700Y786600D03*
X4015400Y858400D03*
X4108700Y2342000D03*
X4122600Y1627000D03*
X3813600Y1828900D03*
X3920730Y2333840D03*
X4033900Y1915300D03*
X3989730Y2268840D03*
X3899520Y1029180D03*
X3831730Y1900840D03*
X3998100Y1436500D03*
X3929280Y1477220D03*
X3930300Y1302200D03*
X3864100Y1396300D03*
X3936730Y1636700D03*
X3804730Y2160840D03*
X3806730Y2385840D03*
X3920700Y1088200D03*
X4072800Y1101300D03*
X3986730Y2720840D03*
G54D11*
X206730Y2435840D03*
Y2865840D03*
X316730Y1007590D03*
Y1792590D03*
X3618500Y1060750D03*
X3618730Y1060840D03*
X3991730Y2435840D03*
Y2865840D03*
G54D12*
X2990730Y399840D03*
X3970730Y249840D03*
G54D13*
G01X3451900Y1630840D02*
X3386730D01*
G01D02*
X3336730Y1680840D01*
G01X3919230Y2385540D02*
X3920730Y2384040D01*
Y2333840D01*
G54D14*
G01X2320600Y677200D02*
Y599710D01*
X2169230Y448340D01*
X2093880D01*
X2093840Y448380D01*
X2029620D01*
X2029580Y448340D01*
X1916400D01*
X1916390Y448350D01*
X1891550D01*
X1811340Y368140D01*
X1464810D01*
X1430570Y333900D01*
X1339510D01*
X1339500Y333910D01*
X1314660D01*
X1068260Y87510D01*
X190060D01*
X87500Y190070D01*
Y666610D01*
X211730Y790840D01*
G01X135000Y244800D02*
Y187570D01*
X205060Y117510D01*
X1055830D01*
X1302720Y364400D01*
X1418640D01*
X1452380Y398140D01*
X1798890D01*
X1879090Y478340D01*
X1879110D01*
X1879130Y478360D01*
X1903970D01*
X1903980Y478350D01*
X1928820D01*
X1928830Y478340D01*
X1971410D01*
X2038910Y545840D01*
X2119550D01*
X2209550Y635840D01*
X2216730D01*
G01X131730Y1560840D02*
X57500Y1486610D01*
Y177630D01*
X177620Y57510D01*
X1080690D01*
X1327080Y303900D01*
X1443000D01*
X1477240Y338140D01*
X1823770D01*
X1903970Y418340D01*
X2042020D01*
X2042060Y418380D01*
X2081410D01*
X2081450Y418340D01*
X2184240D01*
X2441200Y675300D01*
Y968560D01*
X2471040Y998400D01*
X2471100D01*
X2566650Y1093950D01*
Y1122240D01*
X2564590Y1124300D01*
G01X2258300Y685830D02*
X2198900D01*
X2114410Y601340D01*
X2113620D01*
X2096620Y584340D01*
X1943050D01*
X1934550Y575840D01*
X1934160D01*
X1786460Y428140D01*
X1439950D01*
X1406210Y394400D01*
X1290290D01*
X1043400Y147510D01*
X350060D01*
X266730Y230840D01*
Y450840D01*
G01X2101730Y655840D02*
X2061730Y615840D01*
X1931720D01*
X1774020Y458140D01*
X1427520D01*
X1397740Y428360D01*
X1281820D01*
X1030970Y177510D01*
X665060D01*
X591730Y250840D01*
Y480640D01*
G01X2264160Y680840D02*
X2259170Y685830D01*
X2258300D01*
G54D15*
G01X3986730Y2720840D02*
Y2533380D01*
X3919230Y2465880D01*
Y2385540D01*
M02*
