G04 ================== begin FILE IDENTIFICATION RECORD ==================*
G04 Layout Name:  CC2650_SensorTag.brd*
G04 Film Name:    paste_top_CC2650SensorTag*
G04 File Format:  Gerber RS274X*
G04 File Origin:  Cadence Allegro 16.6-S026*
G04 Origin Date:  Wed Apr 15 15:57:56 2015*
G04 *
G04 Layer:  PIN/FILMMASKTOP*
G04 Layer:  BOARD GEOMETRY/OUTLINE*
G04 *
G04 Offset:    (0.0000 0.0000)*
G04 Mirror:    No*
G04 Mode:      Positive*
G04 Rotation:  0*
G04 FullContactRelief:  No*
G04 UndefLineWidth:     0.1000*
G04 ================== end FILE IDENTIFICATION RECORD ====================*
%FSLAX25Y25*MOMM*%
%IR0*IPPOS*OFA0.00000B0.00000*MIA0B0*SFA1.00000B1.00000*%
%AMMACRO26*
4,1,40,.18,.08,
.18,-.08,
.178785,-.093892,
.175175,-.107362,
.169282,-.12,
.161284,-.131423,
.151423,-.141284,
.14,-.149282,
.127362,-.155175,
.113892,-.158785,
.1,-.16,
-.1,-.16,
-.113892,-.158785,
-.127362,-.155175,
-.14,-.149282,
-.151423,-.141284,
-.161284,-.131423,
-.169282,-.12,
-.175175,-.107362,
-.178785,-.093892,
-.18,-.08,
-.18,.08,
-.178785,.093892,
-.175175,.107362,
-.169282,.12,
-.161284,.131423,
-.151423,.141284,
-.14,.149282,
-.127362,.155175,
-.113892,.158785,
-.1,.16,
.1,.16,
.113892,.158785,
.127362,.155175,
.14,.149282,
.151423,.141284,
.161284,.131423,
.169282,.12,
.175175,.107362,
.178785,.093892,
.18,.08,
0.0*
%
%ADD26MACRO26*%
%AMMACRO19*
4,1,40,.08,-.18,
-.08,-.18,
-.093892,-.178785,
-.107362,-.175175,
-.12,-.169282,
-.131423,-.161284,
-.141284,-.151423,
-.149282,-.14,
-.155175,-.127362,
-.158785,-.113892,
-.16,-.1,
-.16,.1,
-.158785,.113892,
-.155175,.127362,
-.149282,.14,
-.141284,.151423,
-.131423,.161284,
-.12,.169282,
-.107362,.175175,
-.093892,.178785,
-.08,.18,
.08,.18,
.093892,.178785,
.107362,.175175,
.12,.169282,
.131423,.161284,
.141284,.151423,
.149282,.14,
.155175,.127362,
.158785,.113892,
.16,.1,
.16,-.1,
.158785,-.113892,
.155175,-.127362,
.149282,-.14,
.141284,-.151423,
.131423,-.161284,
.12,-.169282,
.107362,-.175175,
.093892,-.178785,
.08,-.18,
0.0*
%
%ADD19MACRO19*%
%ADD17O,1.05X.6*%
%AMMACRO16*
4,1,40,.23,.105,
.23,-.105,
.228405,-.123233,
.223668,-.140912,
.215933,-.1575,
.205435,-.172493,
.192493,-.185435,
.1775,-.195933,
.160912,-.203668,
.143233,-.208405,
.125,-.21,
-.125,-.21,
-.143233,-.208405,
-.160912,-.203668,
-.1775,-.195933,
-.192493,-.185435,
-.205435,-.172493,
-.215933,-.1575,
-.223668,-.140912,
-.228405,-.123233,
-.23,-.105,
-.23,.105,
-.228405,.123233,
-.223668,.140912,
-.215933,.1575,
-.205435,.172493,
-.192493,.185435,
-.1775,.195933,
-.160912,.203668,
-.143233,.208405,
-.125,.21,
.125,.21,
.143233,.208405,
.160912,.203668,
.1775,.195933,
.192493,.185435,
.205435,.172493,
.215933,.1575,
.223668,.140912,
.228405,.123233,
.23,.105,
0.0*
%
%ADD16MACRO16*%
%ADD27R,.2489X1.651*%
%AMMACRO15*
4,1,41,0.0,2.5,
-.6,2.5,
-.704189,2.490885,
-.805212,2.463816,
-.9,2.419615,
-.985673,2.359627,
-1.059627,2.285673,
-1.119615,2.2,
-1.163816,2.105212,
-1.190885,2.004189,
-1.2,1.9,
-1.2,-1.9,
-1.190885,-2.004189,
-1.163816,-2.105212,
-1.119615,-2.2,
-1.059627,-2.285673,
-.985673,-2.359627,
-.9,-2.419615,
-.805212,-2.463816,
-.704189,-2.490885,
-.6,-2.5,
.6,-2.5,
.704189,-2.490885,
.805212,-2.463816,
.9,-2.419615,
.985673,-2.359627,
1.059627,-2.285673,
1.119615,-2.2,
1.163816,-2.105212,
1.190885,-2.004189,
1.2,-1.9,
1.2,1.9,
1.190885,2.004189,
1.163816,2.105212,
1.119615,2.2,
1.059627,2.285673,
.985673,2.359627,
.9,2.419615,
.805212,2.463816,
.704189,2.490885,
.6,2.5,
0.0,2.5,
0.0*
%
%ADD15MACRO15*%
%AMMACRO31*
4,1,41,0.0,-.55,
.175,-.55,
.205388,-.547341,
.234854,-.539446,
.2625,-.526554,
.287488,-.509058,
.309058,-.487488,
.326554,-.4625,
.339446,-.434854,
.347341,-.405388,
.35,-.375,
.35,.375,
.347341,.405388,
.339446,.434854,
.326554,.4625,
.309058,.487488,
.287488,.509058,
.2625,.526554,
.234854,.539446,
.205388,.547341,
.175,.55,
-.175,.55,
-.205388,.547341,
-.234854,.539446,
-.2625,.526554,
-.287488,.509058,
-.309058,.487488,
-.326554,.4625,
-.339446,.434854,
-.347341,.405388,
-.35,.375,
-.35,-.375,
-.347341,-.405388,
-.339446,-.434854,
-.326554,-.4625,
-.309058,-.487488,
-.287488,-.509058,
-.2625,-.526554,
-.234854,-.539446,
-.205388,-.547341,
-.175,-.55,
0.0,-.55,
0.0*
%
%ADD31MACRO31*%
%AMMACRO21*
4,1,41,.6,0.0,
.6,.1938,
.597618,.220932,
.59056,.247238,
.579041,.271918,
.563412,.294224,
.544147,.313477,
.521832,.329091,
.497144,.340594,
.470833,.347635,
.4438,.35,
-.4438,.35,
-.470932,.347618,
-.497238,.34056,
-.521918,.329041,
-.544224,.313412,
-.563477,.294147,
-.579091,.271832,
-.590594,.247144,
-.597635,.220833,
-.6,.1938,
-.6,-.1938,
-.597618,-.220932,
-.59056,-.247238,
-.579041,-.271918,
-.563412,-.294224,
-.544147,-.313477,
-.521832,-.329091,
-.497144,-.340594,
-.470833,-.347635,
-.4438,-.35,
.4438,-.35,
.470932,-.347618,
.497238,-.34056,
.521918,-.329041,
.544224,-.313412,
.563477,-.294147,
.579091,-.271832,
.590594,-.247144,
.597635,-.220833,
.6,-.1938,
.6,0.0,
0.0*
%
%ADD21MACRO21*%
%AMMACRO29*
4,1,45,0.0,.675,
-.3062,.675,
-.352869,.670926,
-.398121,.658809,
-.440582,.639019,
-.478961,.612157,
-.512092,.579037,
-.538969,.540668,
-.558775,.498215,
-.570908,.452967,
-.575,.4063,
-.575,.4062,
-.575,-.4062,
-.570926,-.452869,
-.558809,-.498121,
-.539019,-.540582,
-.512157,-.578961,
-.479037,-.612092,
-.440668,-.638969,
-.398215,-.658775,
-.352967,-.670908,
-.3063,-.675,
-.3062,-.675,
.3062,-.675,
.352869,-.670926,
.398121,-.658809,
.440582,-.639019,
.478961,-.612157,
.512092,-.579037,
.538969,-.540668,
.558775,-.498215,
.570908,-.452967,
.575,-.4063,
.575,-.4062,
.575,.4062,
.570926,.452869,
.558809,.498121,
.539019,.540582,
.512157,.578961,
.479037,.612092,
.440668,.638969,
.398215,.658775,
.352967,.670908,
.3063,.675,
.3062,.675,
0.0,.675,
0.0*
%
%ADD29MACRO29*%
%AMMACRO32*
4,1,41,0.0,-.65,
.2188,-.65,
.250273,-.647238,
.280788,-.639052,
.309418,-.625692,
.335294,-.607563,
.357628,-.585217,
.375742,-.559332,
.389086,-.530694,
.397255,-.500174,
.4,-.4688,
.4,.4688,
.397238,.500273,
.389052,.530788,
.375692,.559418,
.357563,.585294,
.335217,.607628,
.309332,.625742,
.280694,.639086,
.250174,.647255,
.2188,.65,
-.2188,.65,
-.250273,.647238,
-.280788,.639052,
-.309418,.625692,
-.335294,.607563,
-.357628,.585217,
-.375742,.559332,
-.389086,.530694,
-.397255,.500174,
-.4,.4688,
-.4,-.4688,
-.397238,-.500273,
-.389052,-.530788,
-.375692,-.559418,
-.357563,-.585294,
-.335217,-.607628,
-.309332,-.625742,
-.280694,-.639086,
-.250174,-.647255,
-.2188,-.65,
0.0,-.65,
0.0*
%
%ADD32MACRO32*%
%AMMACRO22*
4,1,40,-.18,-.08,
-.18,.08,
-.178785,.093892,
-.175175,.107362,
-.169282,.12,
-.161284,.131423,
-.151423,.141284,
-.14,.149282,
-.127362,.155175,
-.113892,.158785,
-.1,.16,
.1,.16,
.113892,.158785,
.127362,.155175,
.14,.149282,
.151423,.141284,
.161284,.131423,
.169282,.12,
.175175,.107362,
.178785,.093892,
.18,.08,
.18,-.08,
.178785,-.093892,
.175175,-.107362,
.169282,-.12,
.161284,-.131423,
.151423,-.141284,
.14,-.149282,
.127362,-.155175,
.113892,-.158785,
.1,-.16,
-.1,-.16,
-.113892,-.158785,
-.127362,-.155175,
-.14,-.149282,
-.151423,-.141284,
-.161284,-.131423,
-.169282,-.12,
-.175175,-.107362,
-.178785,-.093892,
-.18,-.08,
0.0*
%
%ADD22MACRO22*%
%AMMACRO18*
4,1,41,-.95,0.0,
-.95,-.4496,
-.943142,-.527695,
-.922827,-.603414,
-.889672,-.674454,
-.844685,-.738657,
-.789232,-.794074,
-.725,-.839019,
-.653938,-.872127,
-.578206,-.892393,
-.5004,-.8992,
.5004,-.8992,
.578495,-.892342,
.654214,-.872027,
.725254,-.838872,
.789457,-.793885,
.844874,-.738432,
.889819,-.6742,
.922927,-.603138,
.943193,-.527406,
.95,-.4496,
.95,.4496,
.943142,.527695,
.922827,.603414,
.889672,.674454,
.844685,.738657,
.789232,.794074,
.725,.839019,
.653938,.872127,
.578206,.892393,
.5004,.8992,
-.5004,.8992,
-.578495,.892342,
-.654214,.872027,
-.725254,.838872,
-.789457,.793885,
-.844874,.738432,
-.889819,.6742,
-.922927,.603138,
-.943193,.527406,
-.95,.4496,
-.95,0.0,
0.0*
%
%ADD18MACRO18*%
%AMMACRO30*
4,1,40,-.105,.23,
.105,.23,
.123233,.228405,
.140912,.223668,
.1575,.215933,
.172493,.205435,
.185435,.192493,
.195933,.1775,
.203668,.160912,
.208405,.143233,
.21,.125,
.21,-.125,
.208405,-.143233,
.203668,-.160912,
.195933,-.1775,
.185435,-.192493,
.172493,-.205435,
.1575,-.215933,
.140912,-.223668,
.123233,-.228405,
.105,-.23,
-.105,-.23,
-.123233,-.228405,
-.140912,-.223668,
-.1575,-.215933,
-.172493,-.205435,
-.185435,-.192493,
-.195933,-.1775,
-.203668,-.160912,
-.208405,-.143233,
-.21,-.125,
-.21,.125,
-.208405,.143233,
-.203668,.160912,
-.195933,.1775,
-.185435,.192493,
-.172493,.205435,
-.1575,.215933,
-.140912,.223668,
-.123233,.228405,
-.105,.23,
0.0*
%
%ADD30MACRO30*%
%AMMACRO10*
4,1,41,0.0,-1.125,
.15,-1.125,
.176047,-1.122721,
.201303,-1.115954,
.225,-1.104904,
.246418,-1.089907,
.264907,-1.071418,
.279904,-1.05,
.290954,-1.026303,
.297721,-1.001047,
.3,-.975,
.3,.975,
.297721,1.001047,
.290954,1.026303,
.279904,1.05,
.264907,1.071418,
.246418,1.089907,
.225,1.104904,
.201303,1.115954,
.176047,1.122721,
.15,1.125,
-.15,1.125,
-.176047,1.122721,
-.201303,1.115954,
-.225,1.104904,
-.246418,1.089907,
-.264907,1.071418,
-.279904,1.05,
-.290954,1.026303,
-.297721,1.001047,
-.3,.975,
-.3,-.975,
-.297721,-1.001047,
-.290954,-1.026303,
-.279904,-1.05,
-.264907,-1.071418,
-.246418,-1.089907,
-.225,-1.104904,
-.201303,-1.115954,
-.176047,-1.122721,
-.15,-1.125,
0.0,-1.125,
0.0*
%
%ADD10MACRO10*%
%AMMACRO23*
4,1,40,-.325,-.16,
-.325,.16,
-.322569,.187784,
-.315351,.214723,
-.303564,.24,
-.287567,.262846,
-.267846,.282567,
-.245,.298564,
-.219723,.310351,
-.192784,.317569,
-.165,.32,
.165,.32,
.192784,.317569,
.219723,.310351,
.245,.298564,
.267846,.282567,
.287567,.262846,
.303564,.24,
.315351,.214723,
.322569,.187784,
.325,.16,
.325,-.16,
.322569,-.187784,
.315351,-.214723,
.303564,-.24,
.287567,-.262846,
.267846,-.282567,
.245,-.298564,
.219723,-.310351,
.192784,-.317569,
.165,-.32,
-.165,-.32,
-.192784,-.317569,
-.219723,-.310351,
-.245,-.298564,
-.267846,-.282567,
-.287567,-.262846,
-.303564,-.24,
-.315351,-.214723,
-.322569,-.187784,
-.325,-.16,
0.0*
%
%ADD23MACRO23*%
%AMMACRO14*
4,1,41,-3.875,0.0,
-3.875,-1.375,
-3.854111,-1.613766,
-3.792077,-1.845278,
-3.690785,-2.0625,
-3.553311,-2.258833,
-3.383833,-2.428311,
-3.1875,-2.565785,
-2.970278,-2.667077,
-2.738766,-2.729111,
-2.5,-2.75,
2.5,-2.75,
2.738766,-2.729111,
2.970278,-2.667077,
3.1875,-2.565785,
3.383833,-2.428311,
3.553311,-2.258833,
3.690785,-2.0625,
3.792077,-1.845278,
3.854111,-1.613766,
3.875,-1.375,
3.875,1.375,
3.854111,1.613766,
3.792077,1.845278,
3.690785,2.0625,
3.553311,2.258833,
3.383833,2.428311,
3.1875,2.565785,
2.970278,2.667077,
2.738766,2.729111,
2.5,2.75,
-2.5,2.75,
-2.738766,2.729111,
-2.970278,2.667077,
-3.1875,2.565785,
-3.383833,2.428311,
-3.553311,2.258833,
-3.690785,2.0625,
-3.792077,1.845278,
-3.854111,1.613766,
-3.875,1.375,
-3.875,0.0,
0.0*
%
%ADD14MACRO14*%
%ADD12C,1.27*%
%ADD25R,.55X.75*%
%AMMACRO28*
4,1,41,.225,0.0,
.225,.075,
.223861,.088024,
.220477,.100652,
.214952,.1125,
.207453,.123209,
.198209,.132453,
.1875,.139952,
.175652,.145477,
.163024,.148861,
.15,.15,
-.15,.15,
-.163024,.148861,
-.175652,.145477,
-.1875,.139952,
-.198209,.132453,
-.207453,.123209,
-.214952,.1125,
-.220477,.100652,
-.223861,.088024,
-.225,.075,
-.225,-.075,
-.223861,-.088024,
-.220477,-.100652,
-.214952,-.1125,
-.207453,-.123209,
-.198209,-.132453,
-.1875,-.139952,
-.175652,-.145477,
-.163024,-.148861,
-.15,-.15,
.15,-.15,
.163024,-.148861,
.175652,-.145477,
.1875,-.139952,
.198209,-.132453,
.207453,-.123209,
.214952,-.1125,
.220477,-.100652,
.223861,-.088024,
.225,-.075,
.225,0.0,
0.0*
%
%ADD28MACRO28*%
%AMMACRO13*
4,1,41,0.0,.55,
-.175,.55,
-.205388,.547341,
-.234854,.539446,
-.2625,.526554,
-.287488,.509058,
-.309058,.487488,
-.326554,.4625,
-.339446,.434854,
-.347341,.405388,
-.35,.375,
-.35,-.375,
-.347341,-.405388,
-.339446,-.434854,
-.326554,-.4625,
-.309058,-.487488,
-.287488,-.509058,
-.2625,-.526554,
-.234854,-.539446,
-.205388,-.547341,
-.175,-.55,
.175,-.55,
.205388,-.547341,
.234854,-.539446,
.2625,-.526554,
.287488,-.509058,
.309058,-.487488,
.326554,-.4625,
.339446,-.434854,
.347341,-.405388,
.35,-.375,
.35,.375,
.347341,.405388,
.339446,.434854,
.326554,.4625,
.309058,.487488,
.287488,.509058,
.2625,.526554,
.234854,.539446,
.205388,.547341,
.175,.55,
0.0,.55,
0.0*
%
%ADD13MACRO13*%
%AMMACRO33*
4,1,41,-.6,0.0,
-.6,-.1938,
-.597618,-.220932,
-.59056,-.247238,
-.579041,-.271918,
-.563412,-.294224,
-.544147,-.313477,
-.521832,-.329091,
-.497144,-.340594,
-.470833,-.347635,
-.4438,-.35,
.4438,-.35,
.470932,-.347618,
.497238,-.34056,
.521918,-.329041,
.544224,-.313412,
.563477,-.294147,
.579091,-.271832,
.590594,-.247144,
.597635,-.220833,
.6,-.1938,
.6,.1938,
.597618,.220932,
.59056,.247238,
.579041,.271918,
.563412,.294224,
.544147,.313477,
.521832,.329091,
.497144,.340594,
.470833,.347635,
.4438,.35,
-.4438,.35,
-.470932,.347618,
-.497238,.34056,
-.521918,.329041,
-.544224,.313412,
-.563477,.294147,
-.579091,.271832,
-.590594,.247144,
-.597635,.220833,
-.6,.1938,
-.6,0.0,
0.0*
%
%ADD33MACRO33*%
%AMMACRO11*
4,1,41,-.8,0.0,
-.8,-.1188,
-.798757,-.132908,
-.795083,-.146586,
-.78909,-.159418,
-.780959,-.171015,
-.770938,-.181023,
-.759332,-.18914,
-.746492,-.195117,
-.73281,-.198774,
-.7188,-.2,
.7188,-.2,
.732908,-.198757,
.746586,-.195083,
.759418,-.18909,
.771015,-.180959,
.781023,-.170938,
.78914,-.159332,
.795117,-.146492,
.798774,-.13281,
.8,-.1188,
.8,.1188,
.798757,.132908,
.795083,.146586,
.78909,.159418,
.780959,.171015,
.770938,.181023,
.759332,.18914,
.746492,.195117,
.73281,.198774,
.7188,.2,
-.7188,.2,
-.732908,.198757,
-.746586,.195083,
-.759418,.18909,
-.771015,.180959,
-.781023,.170938,
-.78914,.159332,
-.795117,.146492,
-.798774,.13281,
-.8,.1188,
-.8,0.0,
0.0*
%
%ADD11MACRO11*%
%AMMACRO20*
4,1,41,0.0,.65,
-.2188,.65,
-.250273,.647238,
-.280788,.639052,
-.309418,.625692,
-.335294,.607563,
-.357628,.585217,
-.375742,.559332,
-.389086,.530694,
-.397255,.500174,
-.4,.4688,
-.4,-.4688,
-.397238,-.500273,
-.389052,-.530788,
-.375692,-.559418,
-.357563,-.585294,
-.335217,-.607628,
-.309332,-.625742,
-.280694,-.639086,
-.250174,-.647255,
-.2188,-.65,
.2188,-.65,
.250273,-.647238,
.280788,-.639052,
.309418,-.625692,
.335294,-.607563,
.357628,-.585217,
.375742,-.559332,
.389086,-.530694,
.397255,-.500174,
.4,-.4688,
.4,.4688,
.397238,.500273,
.389052,.530788,
.375692,.559418,
.357563,.585294,
.335217,.607628,
.309332,.625742,
.280694,.639086,
.250174,.647255,
.2188,.65,
0.0,.65,
0.0*
%
%ADD20MACRO20*%
%ADD34C,.1*%
G75*
%LPD*%
G75*
G54D10*
X207730Y630840D03*
Y210840D03*
X715730Y630840D03*
X588730D03*
X461730D03*
X334730D03*
X715730Y210840D03*
X588730D03*
X461730D03*
X334730D03*
G54D20*
X356730Y2650840D03*
G54D11*
X246730Y1114340D03*
Y1177840D03*
Y1241340D03*
Y1304840D03*
Y1368340D03*
Y1431840D03*
Y1495340D03*
Y1558840D03*
Y1622340D03*
Y1685840D03*
X606730Y1114340D03*
Y1177840D03*
Y1241340D03*
Y1304840D03*
Y1368340D03*
Y1431840D03*
Y1495340D03*
Y1558840D03*
Y1622340D03*
Y1685840D03*
G54D12*
X186730Y2085840D03*
X3991730Y595840D03*
X3986730Y2085840D03*
G54D30*
X3936730Y1780840D03*
Y1714840D03*
G54D21*
X336730Y2820840D03*
Y2480840D03*
G54D13*
X111730Y2440840D03*
Y2860840D03*
G54D22*
X3384200Y476200D03*
X3440200D03*
X2875400Y1977900D03*
X2931400D03*
G54D31*
X4086730Y2440840D03*
Y2860840D03*
G54D14*
X2061730Y1000840D03*
G54D23*
X3650300Y139400D03*
X3740300D03*
G54D32*
X3841730Y2650840D03*
G54D33*
X3861730Y2480840D03*
Y2820840D03*
G36*
G01X3582720Y1024160D02*
X3561500Y1002950D01*
G03X3560800Y1003650I57115J57815D01*
G01X3582010Y1024870D01*
G02X3582720Y1024160I36590J35880D01*
G37*
G54D15*
X916730Y995840D03*
X3206730D03*
G54D34*
G01X0Y0D02*
X1100000D01*
G02X3100000I1000000J-1542012D01*
G01X4200000D01*
Y3200000D01*
X3935000D01*
Y3100000D01*
X3825000D01*
Y3200000D01*
X375000D01*
Y3100000D01*
X265000D01*
X264990Y3200000D01*
X0D01*
Y0D01*
G01X3192040Y588030D02*
Y233040D01*
G03X3212030Y213050I19990J0D01*
G01X3352030D01*
G03X3372020Y233040I0J19990D01*
G01Y258030D01*
G03X3352030Y278050I-20000J20D01*
G01X3277030D01*
G02X3257040Y298040I3J19993D01*
G01Y588030D01*
G03X3237020Y608050I-20007J13D01*
G01X3212030D01*
G03X3192040Y588030I10J-20000D01*
G01X3638380Y588080D02*
Y233070D01*
G02X3618390Y213080I-19997J7D01*
G01X3478390D01*
G02X3458400Y233070I0J19990D01*
G01Y258090D01*
G02X3478390Y278080I19990J0D01*
G01X3553400D01*
G03X3573390Y298090I-10J20000D01*
G01Y588080D01*
G02X3593400Y608070I19997J-7D01*
G01X3618390D01*
G02X3638380Y588080I-3J-19993D01*
G01X3116730Y1540840D02*
X3526730D01*
Y1600840D01*
X3176730D01*
Y1950840D01*
X3526730D01*
Y2010840D01*
X3116730D01*
Y1540840D01*
G54D25*
X3743800Y977000D03*
Y1144500D03*
X3826000Y977000D03*
Y1144500D03*
G54D16*
X1441730Y2296840D03*
X1375730D03*
G54D17*
X1444730Y2202840D03*
Y2012840D03*
X1214730Y2107840D03*
G54D26*
X2745730Y1993840D03*
X2689730D03*
X3881700Y865300D03*
X3825700D03*
X4082200Y1205000D03*
X4026200D03*
G54D18*
X1136730Y2340840D03*
X726730Y1920840D03*
Y2340840D03*
G54D27*
X2810200Y2128700D03*
G54D28*
X2690200Y2203700D03*
Y2153700D03*
Y2103700D03*
Y2053700D03*
X2930200Y2203700D03*
Y2153700D03*
Y2103700D03*
Y2053700D03*
G54D19*
X1066730Y1789840D03*
Y1845840D03*
X2614730Y2047840D03*
Y2103840D03*
X3017730Y2097840D03*
Y2153840D03*
X3908600Y1150900D03*
Y1206900D03*
G54D29*
X4076730Y1780840D03*
Y1320840D03*
M02*
