G04 ================== begin FILE IDENTIFICATION RECORD ==================*
G04 Layout Name:  CC2650_SensorTag.brd*
G04 Film Name:    silk_bottom_CC2650SensorTag*
G04 File Format:  Gerber RS274X*
G04 File Origin:  Cadence Allegro 16.6-S026*
G04 Origin Date:  Wed Apr 15 15:57:56 2015*
G04 *
G04 Layer:  BOARD GEOMETRY/SILKSCREEN_BOTTOM*
G04 Layer:  REF DES/SILKSCREEN_BOTTOM*
G04 Layer:  PACKAGE GEOMETRY/SILKSCREEN_BOTTOM*
G04 Layer:  MANUFACTURING/AUTOSILK_BOTTOM*
G04 Layer:  BOARD GEOMETRY/OUTLINE*
G04 *
G04 Offset:    (0.0000 0.0000)*
G04 Mirror:    No*
G04 Mode:      Positive*
G04 Rotation:  0*
G04 FullContactRelief:  No*
G04 UndefLineWidth:     0.1000*
G04 ================== end FILE IDENTIFICATION RECORD ====================*
%FSLAX25Y25*MOMM*%
%IR0*IPPOS*OFA0.00000B0.00000*MIA0B0*SFA1.00000B1.00000*%
%ADD10C,.1*%
%ADD11C,.1001*%
%ADD12C,.003*%
G75*
%LPD*%
G75*
G36*
G01X2058700Y2679300D02*
X2068660Y2715980D01*
X2064060Y2717110D01*
X2062130Y2714480D01*
X2060180Y2711880D01*
X2058200Y2709350D01*
X2056150Y2706920D01*
X2054030Y2704620D01*
X2051820Y2702490D01*
X2049490Y2700550D01*
X2047020Y2698850D01*
X2044300Y2697370D01*
X2041620Y2696260D01*
X2038700Y2695340D01*
X2035670Y2694580D01*
X2032000Y2693810D01*
X2029420Y2693300D01*
X2026260Y2692730D01*
X2023090Y2692260D01*
X2019930Y2691940D01*
X2016790Y2691820D01*
X2013690Y2691950D01*
X2010640Y2692380D01*
X2007640Y2693160D01*
X2004470Y2694450D01*
X2001930Y2695930D01*
X1999380Y2697940D01*
X1997270Y2700330D01*
X1995400Y2704160D01*
X1995070Y2706010D01*
X1995160Y2709160D01*
X1995950Y2712310D01*
X1997340Y2715300D01*
X1999930Y2718730D01*
X2001510Y2720150D01*
X2004110Y2721860D01*
X2006930Y2723170D01*
X2009920Y2724170D01*
X2014180Y2725200D01*
X2016060Y2725580D01*
X2019120Y2726120D01*
X2022160Y2726600D01*
X2025200Y2727050D01*
X2028230Y2727480D01*
X2031250Y2727920D01*
X2034290Y2728400D01*
X2037330Y2728950D01*
X2040390Y2729590D01*
X2042360Y2730060D01*
X2046550Y2731240D01*
X2049570Y2732310D01*
X2052470Y2733580D01*
X2055210Y2735080D01*
X2057710Y2736840D01*
X2059850Y2738800D01*
X2061800Y2741210D01*
X2063350Y2743820D01*
X2064600Y2746650D01*
X2065560Y2749660D01*
X2066260Y2752800D01*
X2066710Y2756040D01*
X2066970Y2760810D01*
X2066960Y2762610D01*
X2066780Y2765880D01*
X2066390Y2769080D01*
X2065760Y2772200D01*
X2064880Y2775210D01*
X2063750Y2778080D01*
X2062340Y2780780D01*
X2060500Y2783470D01*
X2058640Y2785580D01*
X2056380Y2787650D01*
X2053880Y2789510D01*
X2051200Y2791170D01*
X2048380Y2792640D01*
X2045450Y2793910D01*
X2041060Y2795440D01*
X2039440Y2795920D01*
X2036410Y2796660D01*
X2033370Y2797240D01*
X2030310Y2797660D01*
X2027240Y2797920D01*
X2024220Y2798030D01*
X2021030Y2797990D01*
X2017910Y2797790D01*
X2014810Y2797390D01*
X2011760Y2796790D01*
X2008770Y2795970D01*
X2006410Y2795120D01*
X2003090Y2793600D01*
X2000360Y2792130D01*
X1997670Y2790590D01*
Y2798150D01*
X1988970D01*
X1981210Y2764620D01*
X1984070Y2761780D01*
X1986430Y2763640D01*
X1988810Y2765480D01*
X1991230Y2767270D01*
X1993690Y2768980D01*
X1996210Y2770580D01*
X1998960Y2772140D01*
X2001510Y2773390D01*
X2004290Y2774560D01*
X2007140Y2775580D01*
X2010030Y2776440D01*
X2012960Y2777150D01*
X2015920Y2777700D01*
X2017750Y2777960D01*
X2021840Y2778330D01*
X2024820Y2778390D01*
X2027840Y2778250D01*
X2030380Y2777960D01*
X2033960Y2777260D01*
X2036870Y2776250D01*
X2039430Y2774690D01*
X2040740Y2773430D01*
X2042850Y2769640D01*
X2043510Y2766480D01*
X2043420Y2763320D01*
X2042680Y2760810D01*
X2040810Y2758140D01*
X2038460Y2756310D01*
X2035660Y2754890D01*
X2032590Y2753800D01*
X2029730Y2753040D01*
X2026360Y2752330D01*
X2023350Y2751810D01*
X2020400Y2751390D01*
X2017480Y2751000D01*
X2014590Y2750600D01*
X2011590Y2750130D01*
X2008810Y2749600D01*
X2005910Y2748960D01*
X2003000Y2748230D01*
X2000090Y2747410D01*
X1997340Y2746570D01*
X1994260Y2745540D01*
X1991400Y2744450D01*
X1988620Y2743210D01*
X1985970Y2741790D01*
X1983490Y2740150D01*
X1981480Y2738480D01*
X1979210Y2736060D01*
X1977430Y2733630D01*
X1975900Y2731000D01*
X1974610Y2728220D01*
X1973560Y2725330D01*
X1972730Y2722290D01*
X1972170Y2719370D01*
X1971810Y2716360D01*
X1971690Y2713350D01*
X1971800Y2710340D01*
X1972130Y2707350D01*
X1972730Y2704160D01*
X1973460Y2701450D01*
X1974450Y2698570D01*
X1975660Y2695780D01*
X1977090Y2693090D01*
X1978720Y2690530D01*
X1980560Y2688120D01*
X1982770Y2685710D01*
X1984830Y2683850D01*
X1987240Y2682020D01*
X1989820Y2680390D01*
X1992520Y2678950D01*
X1995350Y2677720D01*
X1998260Y2676680D01*
X2001250Y2675830D01*
X2004280Y2675180D01*
X2007350Y2674720D01*
X2010420Y2674460D01*
X2013860Y2674390D01*
X2016510Y2674490D01*
X2019500Y2674780D01*
X2022460Y2675230D01*
X2025390Y2675810D01*
X2028300Y2676530D01*
X2031180Y2677360D01*
X2034050Y2678280D01*
X2036890Y2679280D01*
X2039730Y2680350D01*
X2042550Y2681460D01*
X2045370Y2682610D01*
X2048190Y2683770D01*
Y2679300D01*
X2058700D01*
G37*
G36*
G01D02*
X2068660Y2715980D01*
X2064060Y2717110D01*
X2062130Y2714480D01*
X2060180Y2711880D01*
X2058200Y2709350D01*
X2056150Y2706920D01*
X2054030Y2704620D01*
X2051820Y2702490D01*
X2049490Y2700550D01*
X2047020Y2698850D01*
X2044300Y2697370D01*
X2041620Y2696260D01*
X2038700Y2695340D01*
X2035670Y2694580D01*
X2032000Y2693810D01*
X2029420Y2693300D01*
X2026260Y2692730D01*
X2023090Y2692260D01*
X2019930Y2691940D01*
X2016790Y2691820D01*
X2013690Y2691950D01*
X2010640Y2692380D01*
X2007640Y2693160D01*
X2004470Y2694450D01*
X2001930Y2695930D01*
X1999380Y2697940D01*
X1997270Y2700330D01*
X1995400Y2704160D01*
X1995070Y2706010D01*
X1995160Y2709160D01*
X1995950Y2712310D01*
X1997340Y2715300D01*
X1999930Y2718730D01*
X2001510Y2720150D01*
X2004110Y2721860D01*
X2006930Y2723170D01*
X2009920Y2724170D01*
X2014180Y2725200D01*
X2016060Y2725580D01*
X2019120Y2726120D01*
X2022160Y2726600D01*
X2025200Y2727050D01*
X2028230Y2727480D01*
X2031250Y2727920D01*
X2034290Y2728400D01*
X2037330Y2728950D01*
X2040390Y2729590D01*
X2042360Y2730060D01*
X2046550Y2731240D01*
X2049570Y2732310D01*
X2052470Y2733580D01*
X2055210Y2735080D01*
X2057710Y2736840D01*
X2059850Y2738800D01*
X2061800Y2741210D01*
X2063350Y2743820D01*
X2064600Y2746650D01*
X2065560Y2749660D01*
X2066260Y2752800D01*
X2066710Y2756040D01*
X2066970Y2760810D01*
X2066960Y2762610D01*
X2066780Y2765880D01*
X2066390Y2769080D01*
X2065760Y2772200D01*
X2064880Y2775210D01*
X2063750Y2778080D01*
X2062340Y2780780D01*
X2060500Y2783470D01*
X2058640Y2785580D01*
X2056380Y2787650D01*
X2053880Y2789510D01*
X2051200Y2791170D01*
X2048380Y2792640D01*
X2045450Y2793910D01*
X2041060Y2795440D01*
X2039440Y2795920D01*
X2036410Y2796660D01*
X2033370Y2797240D01*
X2030310Y2797660D01*
X2027240Y2797920D01*
X2024220Y2798030D01*
X2021030Y2797990D01*
X2017910Y2797790D01*
X2014810Y2797390D01*
X2011760Y2796790D01*
X2008770Y2795970D01*
X2006410Y2795120D01*
X2003090Y2793600D01*
X2000360Y2792130D01*
X1997670Y2790590D01*
Y2798150D01*
X1988970D01*
X1981210Y2764620D01*
X1984070Y2761780D01*
X1986430Y2763640D01*
X1988810Y2765480D01*
X1991230Y2767270D01*
X1993690Y2768980D01*
X1996210Y2770580D01*
X1998960Y2772140D01*
X2001510Y2773390D01*
X2004290Y2774560D01*
X2007140Y2775580D01*
X2010030Y2776440D01*
X2012960Y2777150D01*
X2015920Y2777700D01*
X2017750Y2777960D01*
X2021840Y2778330D01*
X2024820Y2778390D01*
X2027840Y2778250D01*
X2030380Y2777960D01*
X2033960Y2777260D01*
X2036870Y2776250D01*
X2039430Y2774690D01*
X2040740Y2773430D01*
X2042850Y2769640D01*
X2043510Y2766480D01*
X2043420Y2763320D01*
X2042680Y2760810D01*
X2040810Y2758140D01*
X2038460Y2756310D01*
X2035660Y2754890D01*
X2032590Y2753800D01*
X2029730Y2753040D01*
X2026360Y2752330D01*
X2023350Y2751810D01*
X2020400Y2751390D01*
X2017480Y2751000D01*
X2014590Y2750600D01*
X2011590Y2750130D01*
X2008810Y2749600D01*
X2005910Y2748960D01*
X2003000Y2748230D01*
X2000090Y2747410D01*
X1997340Y2746570D01*
X1994260Y2745540D01*
X1991400Y2744450D01*
X1988620Y2743210D01*
X1985970Y2741790D01*
X1983490Y2740150D01*
X1981480Y2738480D01*
X1979210Y2736060D01*
X1977430Y2733630D01*
X1975900Y2731000D01*
X1974610Y2728220D01*
X1973560Y2725330D01*
X1972730Y2722290D01*
X1972170Y2719370D01*
X1971810Y2716360D01*
X1971690Y2713350D01*
X1971800Y2710340D01*
X1972130Y2707350D01*
X1972730Y2704160D01*
X1973460Y2701450D01*
X1974450Y2698570D01*
X1975660Y2695780D01*
X1977090Y2693090D01*
X1978720Y2690530D01*
X1980560Y2688120D01*
X1982770Y2685710D01*
X1984830Y2683850D01*
X1987240Y2682020D01*
X1989820Y2680390D01*
X1992520Y2678950D01*
X1995350Y2677720D01*
X1998260Y2676680D01*
X2001250Y2675830D01*
X2004280Y2675180D01*
X2007350Y2674720D01*
X2010420Y2674460D01*
X2013860Y2674390D01*
X2016510Y2674490D01*
X2019500Y2674780D01*
X2022460Y2675230D01*
X2025390Y2675810D01*
X2028300Y2676530D01*
X2031180Y2677360D01*
X2034050Y2678280D01*
X2036890Y2679280D01*
X2039730Y2680350D01*
X2042550Y2681460D01*
X2045370Y2682610D01*
X2048190Y2683770D01*
Y2679300D01*
X2058700D01*
G37*
G36*
G01X3145060Y2862950D02*
Y2853570D01*
X3196450D01*
Y2862950D01*
X3190740D01*
G02X3185810Y2867880I-1J4929D01*
G01Y2982270D01*
G02X3190740Y2987200I4928J2D01*
G01X3219940D01*
G02X3223420Y2985770I8J-4931D01*
G01X3236540Y2972700D01*
X3231730Y3003380D01*
X3109780D01*
X3104970Y2972700D01*
X3118090Y2985770D01*
G02X3121570Y2987200I3472J-3500D01*
G01X3150770D01*
G02X3155700Y2982270I1J-4929D01*
G01Y2867880D01*
G02X3150770Y2862950I-4930J0D01*
G01X3145060D01*
G37*
G36*
G01X2844420Y2684900D02*
Y2677490D01*
X2885010D01*
Y2684900D01*
X2880500D01*
G02X2876610Y2688790I2J3892D01*
G01Y2779160D01*
G02X2880500Y2783060I3895J5D01*
G01X2903570D01*
G02X2906320Y2781920I-4J-3896D01*
G01X2916680Y2771600D01*
X2912880Y2795840D01*
X2816550D01*
X2812750Y2771600D01*
X2823110Y2781920D01*
G02X2825860Y2783060I2754J-2756D01*
G01X2848930D01*
G02X2852820Y2779160I-5J-3895D01*
G01Y2688790D01*
G02X2848930Y2684900I-3893J3D01*
G01X2844420D01*
G37*
G36*
G01X2105550D02*
Y2677490D01*
X2146150D01*
Y2684900D01*
X2141640D01*
G02X2137740Y2688790I-6J3894D01*
G01Y2779160D01*
G02X2141640Y2783060I3897J3D01*
G01X2164700D01*
G02X2167450Y2781920I-3J-3894D01*
G01X2177820Y2771600D01*
X2174020Y2795840D01*
X2077680D01*
X2073880Y2771600D01*
X2084250Y2781920D01*
G02X2087000Y2783060I2753J-2755D01*
G01X2110060D01*
G02X2113960Y2779160I4J-3896D01*
G01Y2688790D01*
G02X2110060Y2684900I-3894J4D01*
G01X2105550D01*
G37*
G36*
G01X3010620Y2958020D02*
X2979850Y2914490D01*
G03X2979830Y2909950I3234J-2284D01*
G01X3010360Y2865950D01*
G03X3013620Y2864240I3260J2252D01*
G01X3021350D01*
Y2853570D01*
X2985120D01*
Y2864240D01*
X2991940D01*
X2968970Y2899110D01*
X2944330Y2864240D01*
X2951610D01*
Y2853570D01*
X2910520D01*
Y2864240D01*
X2911720D01*
G03X2914960Y2865940I-12J3961D01*
G01X2945780Y2910060D01*
G03X2945870Y2914460I-3245J2267D01*
G01X2918140Y2957870D01*
G03X2914800Y2959700I-3339J-2131D01*
G01X2905830D01*
Y2972600D01*
X2948510D01*
Y2963320D01*
Y2959700D01*
X2937050D01*
X2957670Y2928390D01*
X2978300Y2959700D01*
X2965690D01*
Y2972600D01*
X3021610D01*
Y2959700D01*
X3013850D01*
G03X3010620Y2958020I8J-3960D01*
G37*
G36*
G01X2833890Y2853570D02*
Y2864240D01*
X2830490D01*
G02X2826760Y2869540I2J3964D01*
G01X2854720Y2947740D01*
X2873620Y2899010D01*
X2837920D01*
X2833840Y2887610D01*
X2878080Y2887500D01*
X2885010Y2869640D01*
G02X2881320Y2864240I-3693J-1437D01*
G01X2880630D01*
Y2853570D01*
X2907990D01*
Y2864240D01*
X2907450D01*
G02X2903760Y2866780I7J3961D01*
G01X2862880Y2972600D01*
X2836040D01*
X2797260Y2866840D01*
G02X2793550Y2864240I-3720J1361D01*
G01X2789230D01*
Y2853570D01*
X2833890D01*
G37*
G36*
G01X2796270Y2688650D02*
Y2784980D01*
G02X2800230Y2788940I3960J0D01*
G01X2807540D01*
Y2795630D01*
X2733760D01*
X2731350Y2795280D01*
X2728950Y2794880D01*
X2727760Y2794650D01*
X2726580Y2794380D01*
X2725100Y2793980D01*
X2724250Y2793720D01*
X2723100Y2793320D01*
X2721960Y2792880D01*
X2720840Y2792390D01*
X2719740Y2791850D01*
X2718670Y2791270D01*
X2717610Y2790640D01*
X2716580Y2789970D01*
X2715580Y2789260D01*
X2714610Y2788510D01*
X2713670Y2787710D01*
X2712760Y2786870D01*
X2712250Y2786370D01*
X2711050Y2785070D01*
X2710260Y2784120D01*
X2709510Y2783130D01*
X2708810Y2782110D01*
X2708150Y2781060D01*
X2707550Y2779980D01*
X2707000Y2778880D01*
X2706520Y2777760D01*
X2706090Y2776620D01*
X2705720Y2775470D01*
X2705380Y2774130D01*
X2705190Y2773120D01*
X2705020Y2771940D01*
X2704900Y2770740D01*
X2704820Y2769540D01*
X2704770Y2768330D01*
X2704680Y2763430D01*
X2704640Y2762340D01*
X2704560Y2760960D01*
X2704400Y2758490D01*
X2704350Y2757260D01*
X2704320Y2756040D01*
X2704340Y2754820D01*
X2704420Y2753620D01*
X2704570Y2752430D01*
X2704690Y2751850D01*
X2704820Y2751260D01*
X2704940Y2750850D01*
X2705170Y2750110D01*
X2705390Y2749550D01*
X2705630Y2748990D01*
X2705890Y2748430D01*
X2706180Y2747890D01*
X2706810Y2746820D01*
X2707520Y2745790D01*
X2708290Y2744800D01*
X2709130Y2743860D01*
X2710000Y2742970D01*
X2710920Y2742140D01*
X2711860Y2741370D01*
X2712550Y2740850D01*
X2713790Y2740020D01*
X2714780Y2739430D01*
X2715770Y2738890D01*
X2716780Y2738380D01*
X2717800Y2737900D01*
X2719890Y2736970D01*
X2720960Y2736500D01*
X2722040Y2736010D01*
X2723130Y2735490D01*
X2724250Y2734930D01*
X2725380Y2734330D01*
X2726530Y2733660D01*
X2727690Y2732930D01*
X2728980Y2732040D01*
X2729470Y2731680D01*
X2729750Y2731450D01*
X2730000Y2731220D01*
X2730230Y2731000D01*
X2730410Y2730770D01*
X2730540Y2730550D01*
X2730620Y2730250D01*
X2730610Y2730110D01*
X2730550Y2729910D01*
X2730420Y2729700D01*
X2730240Y2729500D01*
X2730020Y2729310D01*
X2729760Y2729120D01*
X2729150Y2728750D01*
X2728080Y2728160D01*
X2727180Y2727650D01*
X2726580Y2727280D01*
X2726010Y2726920D01*
X2725470Y2726550D01*
X2724960Y2726180D01*
X2724470Y2725800D01*
X2723550Y2725040D01*
X2722700Y2724270D01*
X2721910Y2723470D01*
X2721150Y2722650D01*
X2720280Y2721660D01*
X2719660Y2720930D01*
X2718920Y2720030D01*
X2718170Y2719110D01*
X2717430Y2718150D01*
X2716700Y2717180D01*
X2715270Y2715170D01*
X2714580Y2714140D01*
X2713910Y2713090D01*
X2713260Y2712040D01*
X2712910Y2711450D01*
X2711450Y2708820D01*
X2710320Y2706650D01*
X2709200Y2704510D01*
X2708040Y2702390D01*
X2707420Y2701360D01*
X2706780Y2700340D01*
X2706370Y2699730D01*
X2705400Y2698370D01*
X2704660Y2697420D01*
X2703890Y2696480D01*
X2703090Y2695570D01*
X2702270Y2694670D01*
X2700570Y2692910D01*
X2698430Y2690830D01*
X2697050Y2689540D01*
X2695250Y2687910D01*
X2692760Y2685690D01*
G02X2690120Y2684690I-2631J2961D01*
G01X2685160D01*
Y2677280D01*
X2712660D01*
G03X2715600Y2678590I-3J3960D01*
G01X2721100Y2684690D01*
X2722010Y2685700D01*
X2722910Y2686710D01*
X2723810Y2687730D01*
X2724700Y2688750D01*
X2725580Y2689790D01*
X2726440Y2690830D01*
X2727280Y2691900D01*
X2728100Y2692980D01*
X2728800Y2693930D01*
X2729660Y2695190D01*
X2730400Y2696330D01*
X2731100Y2697500D01*
X2731780Y2698680D01*
X2732420Y2699870D01*
X2733020Y2701090D01*
X2733590Y2702330D01*
X2734100Y2703510D01*
X2734630Y2704850D01*
X2735110Y2706120D01*
X2735570Y2707400D01*
X2736040Y2708680D01*
X2736520Y2709950D01*
X2737020Y2711200D01*
X2737560Y2712440D01*
X2737870Y2713090D01*
X2738780Y2714830D01*
X2739460Y2716000D01*
X2740170Y2717150D01*
X2740890Y2718300D01*
X2741630Y2719460D01*
X2742140Y2720270D01*
X2743100Y2721800D01*
X2743850Y2722960D01*
X2744640Y2724080D01*
X2745480Y2725150D01*
X2746390Y2726120D01*
X2747150Y2726790D01*
X2748510Y2727730D01*
X2749700Y2728390D01*
X2750930Y2728980D01*
X2752200Y2729550D01*
X2772610D01*
Y2740700D01*
X2749110D01*
X2747740Y2740810D01*
X2746370Y2740940D01*
X2745350Y2741040D01*
X2743630Y2741270D01*
X2742280Y2741520D01*
X2740940Y2741850D01*
X2740220Y2742070D01*
X2738330Y2742840D01*
X2737070Y2743500D01*
X2735860Y2744260D01*
X2734710Y2745110D01*
X2733630Y2746050D01*
X2732620Y2747070D01*
X2731700Y2748150D01*
X2730880Y2749300D01*
X2730170Y2750500D01*
X2729630Y2751630D01*
X2729110Y2753030D01*
X2728760Y2754350D01*
X2728500Y2755690D01*
X2728330Y2757060D01*
X2728240Y2758450D01*
X2728200Y2759850D01*
X2728210Y2761260D01*
X2728260Y2762900D01*
X2728320Y2764100D01*
X2728410Y2765510D01*
X2728540Y2766910D01*
X2728710Y2768290D01*
X2728940Y2769660D01*
X2729240Y2771010D01*
X2729620Y2772330D01*
X2730080Y2773610D01*
X2730640Y2774870D01*
X2731000Y2775540D01*
X2732100Y2777240D01*
X2732980Y2778340D01*
X2733950Y2779360D01*
X2735010Y2780290D01*
X2736140Y2781120D01*
X2737340Y2781820D01*
X2738160Y2782210D01*
X2739890Y2782820D01*
X2741220Y2783140D01*
X2742580Y2783390D01*
X2743960Y2783570D01*
X2745350Y2783740D01*
X2773030D01*
Y2688650D01*
G02X2769070Y2684690I-3960J0D01*
G01X2760040D01*
Y2677280D01*
X2807540D01*
Y2684690D01*
X2800230D01*
G02X2796270Y2688650I-1J3959D01*
G37*
G36*
G01X2656080Y2677520D02*
X2601760D01*
G02X2581550Y2699520I2071J22185D01*
G01Y2784980D01*
G03X2577590Y2788940I-3960J0D01*
G01X2571720D01*
Y2796210D01*
X2610210D01*
Y2788940D01*
X2602000D01*
G03X2598040Y2784980I2J-3962D01*
G01Y2705800D01*
G03X2616920Y2691200I17976J3738D01*
G01X2638620D01*
G03X2655760Y2705800I-475J17918D01*
G01Y2784980D01*
G03X2651800Y2788940I-3962J-2D01*
G01X2643190D01*
Y2796210D01*
X2695410D01*
Y2788940D01*
X2685240D01*
G03X2681280Y2784980I0J-3960D01*
G01Y2708720D01*
G02X2656080Y2677520I-32235J259D01*
G37*
G36*
G01X2565770Y2677340D02*
X2528330D01*
Y2686550D01*
X2536460D01*
G03X2540430Y2690510I8J3962D01*
G01Y2766120D01*
X2496590Y2677340D01*
X2454580Y2764750D01*
Y2690510D01*
G03X2458540Y2686550I3962J2D01*
G01X2463110D01*
Y2677490D01*
X2417820D01*
Y2686550D01*
X2419570D01*
G03X2423530Y2690510I0J3960D01*
G01Y2785480D01*
G03X2419570Y2789440I-3960J0D01*
G01X2415540D01*
Y2796210D01*
X2454490D01*
G02X2458130Y2793830I8J-3962D01*
G01X2488600Y2723450D01*
X2521100Y2793910D01*
G02X2524700Y2796210I3595J-1660D01*
G01X2565770D01*
Y2788940D01*
X2556490D01*
G03X2552530Y2784980I0J-3960D01*
G01Y2690510D01*
G03X2556490Y2686550I3960J0D01*
G01X2565770D01*
Y2677340D01*
G37*
G36*
G01X2326240Y2752550D02*
X2323370D01*
Y2722940D01*
X2326240D01*
X2330220Y2728030D01*
G02X2333340Y2729550I3121J-2443D01*
G01X2373810D01*
Y2691230D01*
X2322790D01*
G02X2319930Y2692450I0J3963D01*
G01X2307580Y2705370D01*
X2304160D01*
X2312930Y2680010D01*
G03X2316670Y2677340I3744J1290D01*
G01X2407340D01*
Y2681590D01*
X2396160Y2687450D01*
G02X2394040Y2690950I1840J3506D01*
G01Y2779340D01*
G02X2395990Y2782750I3960J-2D01*
G01X2407340Y2789440D01*
Y2796210D01*
X2321420D01*
G03X2317760Y2793770I-2J-3962D01*
G01X2307010Y2767770D01*
X2312900Y2765340D01*
X2323410Y2776800D01*
G02X2326330Y2778090I2925J-2671D01*
G01X2373810D01*
Y2747600D01*
X2333000D01*
G02X2330260Y2748700I-1J3959D01*
G01X2326240Y2752550D01*
G37*
G36*
G01X3045760Y2928780D02*
X3042900D01*
Y2899170D01*
X3045760D01*
X3049750Y2904260D01*
G02X3052870Y2905770I3111J-2450D01*
G01X3093340D01*
Y2867460D01*
X3042320D01*
G02X3039460Y2868680I-1J3961D01*
G01X3027110Y2881590D01*
X3023690D01*
X3032450Y2856240D01*
G03X3036200Y2853570I3745J1291D01*
G01X3126860D01*
Y2857820D01*
X3115690Y2863670D01*
G02X3113570Y2867180I1841J3507D01*
G01Y2955570D01*
G02X3115520Y2958980I3959J-2D01*
G01X3126860Y2965670D01*
Y2972440D01*
X3040950D01*
G03X3037290Y2969990I1J-3961D01*
G01X3026540Y2944000D01*
X3032430Y2941570D01*
X3042930Y2953030D01*
G02X3045850Y2954310I2916J-2681D01*
G01X3093340D01*
Y2923820D01*
X3052530D01*
G02X3049790Y2924920I0J3963D01*
G01X3045760Y2928780D01*
G37*
G36*
G01X3156420Y2694470D02*
G02X3148500Y2686550I-7921J1D01*
G01X3144250D01*
Y2677490D01*
X3196450Y2677360D01*
Y2686550D01*
X3192200D01*
G02X3184280Y2694470I1J7921D01*
G01Y2817250D01*
G02X3192200Y2825180I7922J8D01*
G01X3196450D01*
Y2831980D01*
X3145060D01*
Y2825180D01*
X3148500D01*
G02X3156420Y2817250I-3J-7923D01*
G01Y2694470D01*
G37*
G36*
G01X3137340Y2686550D02*
X3129840D01*
G02X3125870Y2690510I-8J3962D01*
G01Y2783490D01*
G02X3129840Y2787450I3961J-1D01*
G01X3137900D01*
Y2796230D01*
X3101400D01*
G03X3098400Y2794860I-4J-3960D01*
G01X3041650Y2729120D01*
Y2782700D01*
G02X3045610Y2786660I3959J1D01*
G01X3055290D01*
Y2796230D01*
X3015400D01*
Y2786660D01*
X3023800D01*
G02X3027760Y2782700I1J-3959D01*
G01Y2677490D01*
X3033930D01*
G03X3036920Y2678860I-5J3958D01*
G01X3105550Y2758360D01*
Y2690510D01*
G02X3101590Y2686550I-3961J1D01*
G01X3095670D01*
Y2677490D01*
X3137340D01*
Y2686550D01*
G37*
G36*
G01X2302490D02*
X2294980D01*
G02X2291020Y2690510I2J3962D01*
G01Y2783490D01*
G02X2294980Y2787450I3960J0D01*
G01X2303050D01*
Y2796230D01*
X2266550D01*
G03X2263550Y2794860I-5J-3960D01*
G01X2206800Y2729120D01*
Y2782700D01*
G02X2210760Y2786660I3958J2D01*
G01X2220430D01*
Y2796230D01*
X2180540D01*
Y2786660D01*
X2188950D01*
G02X2192910Y2782700I0J-3960D01*
G01Y2677490D01*
X2199070D01*
G03X2202070Y2678860I5J3959D01*
G01X2270700Y2758360D01*
Y2690510D01*
G02X2266740Y2686550I-3961J1D01*
G01X2260820D01*
Y2677490D01*
X2302490D01*
Y2686550D01*
G37*
G36*
G01X3003070Y2678630D02*
X3013030Y2715310D01*
X3008430Y2716440D01*
X3006500Y2713810D01*
X3004550Y2711210D01*
X3002560Y2708680D01*
X3000520Y2706250D01*
X2998400Y2703950D01*
X2996180Y2701810D01*
X2993850Y2699880D01*
X2991390Y2698180D01*
X2988670Y2696690D01*
X2985990Y2695590D01*
X2983060Y2694670D01*
X2980030Y2693910D01*
X2976360Y2693130D01*
X2973790Y2692620D01*
X2970630Y2692050D01*
X2967460Y2691580D01*
X2964300Y2691260D01*
X2961160Y2691150D01*
X2958060Y2691280D01*
X2955000Y2691700D01*
X2952010Y2692480D01*
X2948840Y2693780D01*
X2946300Y2695260D01*
X2943750Y2697270D01*
X2941640Y2699650D01*
X2939770Y2703490D01*
X2939440Y2705340D01*
X2939530Y2708490D01*
X2940320Y2711630D01*
X2941710Y2714620D01*
X2944300Y2718060D01*
X2945880Y2719470D01*
X2948470Y2721180D01*
X2951300Y2722490D01*
X2954280Y2723490D01*
X2958550Y2724530D01*
X2960430Y2724900D01*
X2963490Y2725450D01*
X2966530Y2725930D01*
X2969560Y2726370D01*
X2972590Y2726800D01*
X2975620Y2727250D01*
X2978660Y2727730D01*
X2981700Y2728280D01*
X2984760Y2728920D01*
X2986730Y2729380D01*
X2990910Y2730570D01*
X2993930Y2731640D01*
X2996840Y2732910D01*
X2999570Y2734410D01*
X3002070Y2736160D01*
X3004210Y2738120D01*
X3006160Y2740540D01*
X3007720Y2743140D01*
X3008960Y2745970D01*
X3009920Y2748980D01*
X3010620Y2752130D01*
X3011080Y2755360D01*
X3011340Y2760130D01*
X3011330Y2761940D01*
X3011150Y2765200D01*
X3010750Y2768410D01*
X3010120Y2771530D01*
X3009250Y2774530D01*
X3008110Y2777400D01*
X3006700Y2780100D01*
X3004860Y2782790D01*
X3003010Y2784900D01*
X3000740Y2786970D01*
X2998250Y2788840D01*
X2995570Y2790500D01*
X2992750Y2791960D01*
X2989820Y2793230D01*
X2985430Y2794770D01*
X2983800Y2795240D01*
X2980770Y2795990D01*
X2977730Y2796570D01*
X2974680Y2796990D01*
X2971610Y2797250D01*
X2968590Y2797360D01*
X2965390Y2797320D01*
X2962270Y2797110D01*
X2959180Y2796720D01*
X2956130Y2796120D01*
X2953140Y2795290D01*
X2950780Y2794450D01*
X2947450Y2792920D01*
X2944730Y2791460D01*
X2942030Y2789910D01*
Y2797480D01*
X2933330D01*
X2925580Y2763940D01*
X2928430Y2761110D01*
X2930800Y2762970D01*
X2933180Y2764810D01*
X2935590Y2766590D01*
X2938060Y2768300D01*
X2940580Y2769910D01*
X2943330Y2771460D01*
X2945880Y2772710D01*
X2948660Y2773890D01*
X2951500Y2774900D01*
X2954400Y2775770D01*
X2957330Y2776470D01*
X2960290Y2777030D01*
X2962110Y2777290D01*
X2966210Y2777660D01*
X2969190Y2777710D01*
X2972200Y2777570D01*
X2974740Y2777290D01*
X2978330Y2776590D01*
X2981230Y2775570D01*
X2983800Y2774020D01*
X2985110Y2772760D01*
X2987210Y2768960D01*
X2987880Y2765810D01*
X2987790Y2762640D01*
X2987050Y2760130D01*
X2985180Y2757460D01*
X2982830Y2755630D01*
X2980030Y2754210D01*
X2976960Y2753130D01*
X2974100Y2752370D01*
X2970730Y2751650D01*
X2967720Y2751140D01*
X2964770Y2750710D01*
X2961850Y2750320D01*
X2958960Y2749920D01*
X2955960Y2749450D01*
X2953180Y2748930D01*
X2950280Y2748280D01*
X2947370Y2747550D01*
X2944450Y2746730D01*
X2941710Y2745890D01*
X2938630Y2744860D01*
X2935760Y2743770D01*
X2932990Y2742540D01*
X2930340Y2741120D01*
X2927860Y2739470D01*
X2925840Y2737800D01*
X2923570Y2735380D01*
X2921800Y2732960D01*
X2920270Y2730330D01*
X2918980Y2727550D01*
X2917930Y2724650D01*
X2917100Y2721620D01*
X2916530Y2718690D01*
X2916180Y2715680D01*
X2916060Y2712670D01*
X2916160Y2709660D01*
X2916490Y2706670D01*
X2917100Y2703490D01*
X2917830Y2700770D01*
X2918820Y2697900D01*
X2920030Y2695100D01*
X2921450Y2692410D01*
X2923090Y2689850D01*
X2924920Y2687440D01*
X2927140Y2685040D01*
X2929200Y2683180D01*
X2931610Y2681350D01*
X2934180Y2679710D01*
X2936890Y2678280D01*
X2939710Y2677040D01*
X2942630Y2676000D01*
X2945610Y2675160D01*
X2948650Y2674510D01*
X2951720Y2674050D01*
X2954790Y2673780D01*
X2958230Y2673710D01*
X2960880Y2673820D01*
X2963870Y2674100D01*
X2966830Y2674550D01*
X2969760Y2675140D01*
X2972670Y2675860D01*
X2975550Y2676680D01*
X2978410Y2677610D01*
X2981260Y2678610D01*
X2984100Y2679680D01*
X2986920Y2680790D01*
X2989740Y2681940D01*
X2992560Y2683100D01*
Y2678630D01*
X3003070D01*
G37*
G36*
G01X2781020Y2854850D02*
X2790990Y2891530D01*
X2786380Y2892660D01*
X2784450Y2890030D01*
X2782510Y2887430D01*
X2780520Y2884900D01*
X2778480Y2882470D01*
X2776360Y2880170D01*
X2774140Y2878040D01*
X2771810Y2876100D01*
X2769350Y2874400D01*
X2766630Y2872920D01*
X2763940Y2871810D01*
X2761020Y2870890D01*
X2757990Y2870130D01*
X2754320Y2869360D01*
X2751750Y2868850D01*
X2748590Y2868280D01*
X2745420Y2867810D01*
X2742260Y2867490D01*
X2739120Y2867370D01*
X2736010Y2867500D01*
X2732960Y2867930D01*
X2729970Y2868700D01*
X2726790Y2870000D01*
X2724250Y2871480D01*
X2721710Y2873490D01*
X2719600Y2875870D01*
X2717730Y2879710D01*
X2717390Y2881560D01*
X2717480Y2884710D01*
X2718280Y2887860D01*
X2719670Y2890850D01*
X2722260Y2894280D01*
X2723840Y2895700D01*
X2726430Y2897410D01*
X2729260Y2898720D01*
X2732240Y2899720D01*
X2736510Y2900750D01*
X2738380Y2901130D01*
X2741440Y2901670D01*
X2744490Y2902150D01*
X2747520Y2902600D01*
X2750550Y2903030D01*
X2753580Y2903470D01*
X2756610Y2903950D01*
X2759660Y2904500D01*
X2762720Y2905140D01*
X2764680Y2905610D01*
X2768870Y2906790D01*
X2771890Y2907860D01*
X2774800Y2909130D01*
X2777530Y2910630D01*
X2780030Y2912380D01*
X2782170Y2914350D01*
X2784120Y2916760D01*
X2785670Y2919370D01*
X2786920Y2922200D01*
X2787880Y2925210D01*
X2788580Y2928350D01*
X2789030Y2931590D01*
X2789300Y2936360D01*
X2789290Y2938160D01*
X2789110Y2941430D01*
X2788710Y2944630D01*
X2788080Y2947750D01*
X2787210Y2950760D01*
X2786070Y2953630D01*
X2784660Y2956330D01*
X2782820Y2959020D01*
X2780960Y2961130D01*
X2778700Y2963200D01*
X2776210Y2965060D01*
X2773530Y2966720D01*
X2770710Y2968180D01*
X2767780Y2969460D01*
X2763390Y2970990D01*
X2761760Y2971470D01*
X2758730Y2972210D01*
X2755690Y2972790D01*
X2752640Y2973210D01*
X2749560Y2973470D01*
X2746550Y2973580D01*
X2743350Y2973540D01*
X2740230Y2973340D01*
X2737140Y2972940D01*
X2734080Y2972340D01*
X2731100Y2971520D01*
X2728740Y2970670D01*
X2725410Y2969150D01*
X2722680Y2967680D01*
X2719990Y2966140D01*
Y2973700D01*
X2711290D01*
X2703530Y2940170D01*
X2706390Y2937330D01*
X2708760Y2939190D01*
X2711140Y2941030D01*
X2713550Y2942820D01*
X2716010Y2944530D01*
X2718540Y2946130D01*
X2721290Y2947690D01*
X2723840Y2948940D01*
X2726620Y2950110D01*
X2729460Y2951130D01*
X2732360Y2951990D01*
X2735290Y2952700D01*
X2738240Y2953250D01*
X2740070Y2953510D01*
X2744170Y2953880D01*
X2747150Y2953940D01*
X2750160Y2953800D01*
X2752700Y2953510D01*
X2756280Y2952810D01*
X2759190Y2951800D01*
X2761760Y2950240D01*
X2763070Y2948980D01*
X2765170Y2945190D01*
X2765840Y2942030D01*
X2765750Y2938870D01*
X2765010Y2936360D01*
X2763140Y2933690D01*
X2760790Y2931860D01*
X2757990Y2930440D01*
X2754920Y2929350D01*
X2752050Y2928590D01*
X2748690Y2927880D01*
X2745680Y2927360D01*
X2742720Y2926940D01*
X2739810Y2926550D01*
X2736920Y2926150D01*
X2733920Y2925680D01*
X2731140Y2925150D01*
X2728240Y2924510D01*
X2725330Y2923780D01*
X2722410Y2922960D01*
X2719670Y2922120D01*
X2716590Y2921090D01*
X2713720Y2920000D01*
X2710940Y2918760D01*
X2708300Y2917340D01*
X2705820Y2915700D01*
X2703800Y2914020D01*
X2701530Y2911610D01*
X2699760Y2909180D01*
X2698230Y2906550D01*
X2696940Y2903770D01*
X2695890Y2900870D01*
X2695060Y2897840D01*
X2694490Y2894920D01*
X2694140Y2891910D01*
X2694020Y2888900D01*
X2694120Y2885890D01*
X2694450Y2882900D01*
X2695060Y2879710D01*
X2695780Y2877000D01*
X2696780Y2874120D01*
X2697990Y2871330D01*
X2699410Y2868640D01*
X2701040Y2866080D01*
X2702880Y2863670D01*
X2705100Y2861260D01*
X2707160Y2859400D01*
X2709570Y2857570D01*
X2712140Y2855940D01*
X2714850Y2854500D01*
X2717670Y2853270D01*
X2720590Y2852230D01*
X2723570Y2851380D01*
X2726610Y2850730D01*
X2729680Y2850270D01*
X2732750Y2850010D01*
X2736190Y2849940D01*
X2738840Y2850040D01*
X2741830Y2850330D01*
X2744790Y2850770D01*
X2747720Y2851360D01*
X2750620Y2852080D01*
X2753510Y2852910D01*
X2756370Y2853830D01*
X2759220Y2854830D01*
X2762050Y2855900D01*
X2764880Y2857010D01*
X2767700Y2858160D01*
X2770510Y2859320D01*
Y2854850D01*
X2781020D01*
G37*
G36*
G01X3443080Y3009800D02*
X3465870D01*
Y3077340D01*
X3560230D01*
Y2936210D01*
X3660440D01*
X3659600Y2932650D01*
X3658740Y2929120D01*
X3657810Y2925630D01*
X3656800Y2922210D01*
X3655670Y2918870D01*
X3654380Y2915650D01*
X3652920Y2912560D01*
X3651250Y2909620D01*
X3649340Y2906860D01*
X3648280Y2905550D01*
X3644730Y2901910D01*
X3642110Y2899650D01*
X3639370Y2897480D01*
X3636580Y2895350D01*
X3633790Y2893190D01*
X3630730Y2890660D01*
X3628490Y2888610D01*
X3626020Y2886150D01*
X3623670Y2883600D01*
X3621400Y2880970D01*
X3619190Y2878290D01*
X3617030Y2875570D01*
X3614880Y2872830D01*
X3613880Y2869260D01*
X3612860Y2865700D01*
X3611830Y2862140D01*
X3610760Y2858590D01*
X3609650Y2855050D01*
X3608490Y2851540D01*
X3607270Y2848040D01*
X3605980Y2844570D01*
X3604600Y2841120D01*
X3603130Y2837710D01*
X3601020Y2833220D01*
X3599880Y2830990D01*
X3598020Y2827750D01*
X3595910Y2824690D01*
X3593470Y2821880D01*
X3590520Y2819340D01*
X3587300Y2817370D01*
X3583660Y2815860D01*
X3579880Y2814990D01*
X3576140Y2814870D01*
X3573290Y2815400D01*
X3569430Y2817250D01*
X3566530Y2819560D01*
X3563860Y2822340D01*
X3561410Y2825300D01*
X3558960Y2828440D01*
X3556590Y2831450D01*
X3554160Y2834310D01*
X3551580Y2836930D01*
X3548780Y2839220D01*
X3545570Y2841140D01*
X3542180Y2842450D01*
X3537640Y2843120D01*
X3534820Y2842870D01*
X3531240Y2841820D01*
X3527830Y2840110D01*
X3523780Y2837180D01*
X3521850Y2835410D01*
X3519330Y2832650D01*
X3517070Y2829710D01*
X3515010Y2826630D01*
X3513090Y2823450D01*
X3511900Y2821340D01*
X3509500Y2816950D01*
X3507790Y2813660D01*
X3506110Y2810360D01*
X3504470Y2807040D01*
X3502870Y2803700D01*
X3501300Y2800350D01*
X3500020Y2797570D01*
X3498210Y2793610D01*
X3496690Y2790230D01*
X3495170Y2786850D01*
X3493640Y2783480D01*
X3492090Y2780110D01*
X3490520Y2776760D01*
X3488130Y2771830D01*
X3487270Y2770110D01*
X3485580Y2766830D01*
X3483820Y2763580D01*
X3481990Y2760370D01*
X3480080Y2757200D01*
X3478080Y2754080D01*
X3475980Y2751010D01*
X3473770Y2747990D01*
X3472290Y2746080D01*
X3469000Y2742150D01*
X3466440Y2739350D01*
X3463780Y2736640D01*
X3461050Y2734040D01*
X3458240Y2731560D01*
X3455380Y2729210D01*
X3452480Y2727010D01*
X3448520Y2724290D01*
X3446600Y2723100D01*
X3443620Y2721400D01*
X3440580Y2719890D01*
X3437450Y2718560D01*
X3434210Y2717400D01*
X3430820Y2716430D01*
X3427260Y2715650D01*
X3423490Y2715040D01*
X3419490Y2714630D01*
X3415240Y2714400D01*
X3408910Y2714390D01*
X3405840Y2714510D01*
X3400860Y2714880D01*
X3396070Y2715530D01*
X3391780Y2716510D01*
X3388320Y2717880D01*
X3386000Y2719670D01*
X3385150Y2722310D01*
X3385940Y2724760D01*
X3388020Y2727950D01*
X3390740Y2731320D01*
X3392180Y2740830D01*
X3393340Y2750220D01*
X3393950Y2759340D01*
X3393720Y2768080D01*
X3392720Y2774890D01*
X3389780Y2783940D01*
X3385960Y2791020D01*
X3381050Y2797590D01*
X3375150Y2803700D01*
X3368370Y2809410D01*
X3360830Y2814760D01*
X3352630Y2819800D01*
X3343870Y2824590D01*
X3334680Y2829180D01*
X3325160Y2833610D01*
X3315430Y2837950D01*
X3305580Y2842230D01*
X3288100D01*
Y2922340D01*
X3305930Y2940170D01*
Y3009800D01*
X3387130D01*
X3397030Y2957050D01*
X3373260D01*
X3379200Y2923480D01*
X3400990D01*
X3414360Y2852930D01*
X3397090Y2853030D01*
Y2824770D01*
G03X3404290Y2815580I8034J-1121D01*
G01X3459870D01*
G03X3476260Y2828370I1089J15502D01*
G01Y2836360D01*
X3460670Y2923480D01*
X3483860D01*
X3476660Y2957050D01*
X3451870D01*
X3443080Y3009800D01*
G37*
G36*
G01X3434660Y3015430D02*
X3425520Y3055210D01*
X3383930D01*
X3393070Y3015430D01*
X3434660D01*
G37*
G36*
G01Y3009800D02*
X3466350Y2853030D01*
X3424760D01*
X3393070Y3009800D01*
X3434660D01*
G37*
G36*
G01X3145060Y2862950D02*
Y2853570D01*
X3196450D01*
Y2862950D01*
X3190740D01*
G02X3185810Y2867880I-1J4929D01*
G01Y2982270D01*
G02X3190740Y2987200I4928J2D01*
G01X3219940D01*
G02X3223420Y2985770I8J-4931D01*
G01X3236540Y2972700D01*
X3231730Y3003380D01*
X3109780D01*
X3104970Y2972700D01*
X3118090Y2985770D01*
G02X3121570Y2987200I3472J-3500D01*
G01X3150770D01*
G02X3155700Y2982270I1J-4929D01*
G01Y2867880D01*
G02X3150770Y2862950I-4930J0D01*
G01X3145060D01*
G37*
G36*
G01X2844420Y2684900D02*
Y2677490D01*
X2885010D01*
Y2684900D01*
X2880500D01*
G02X2876610Y2688790I2J3892D01*
G01Y2779160D01*
G02X2880500Y2783060I3895J5D01*
G01X2903570D01*
G02X2906320Y2781920I-4J-3896D01*
G01X2916680Y2771600D01*
X2912880Y2795840D01*
X2816550D01*
X2812750Y2771600D01*
X2823110Y2781920D01*
G02X2825860Y2783060I2754J-2756D01*
G01X2848930D01*
G02X2852820Y2779160I-5J-3895D01*
G01Y2688790D01*
G02X2848930Y2684900I-3893J3D01*
G01X2844420D01*
G37*
G36*
G01X2105550D02*
Y2677490D01*
X2146150D01*
Y2684900D01*
X2141640D01*
G02X2137740Y2688790I-6J3894D01*
G01Y2779160D01*
G02X2141640Y2783060I3897J3D01*
G01X2164700D01*
G02X2167450Y2781920I-3J-3894D01*
G01X2177820Y2771600D01*
X2174020Y2795840D01*
X2077680D01*
X2073880Y2771600D01*
X2084250Y2781920D01*
G02X2087000Y2783060I2753J-2755D01*
G01X2110060D01*
G02X2113960Y2779160I4J-3896D01*
G01Y2688790D01*
G02X2110060Y2684900I-3894J4D01*
G01X2105550D01*
G37*
G36*
G01X3010620Y2958020D02*
X2979850Y2914490D01*
G03X2979830Y2909950I3234J-2284D01*
G01X3010360Y2865950D01*
G03X3013620Y2864240I3260J2252D01*
G01X3021350D01*
Y2853570D01*
X2985120D01*
Y2864240D01*
X2991940D01*
X2968970Y2899110D01*
X2944330Y2864240D01*
X2951610D01*
Y2853570D01*
X2910520D01*
Y2864240D01*
X2911720D01*
G03X2914960Y2865940I-12J3961D01*
G01X2945780Y2910060D01*
G03X2945870Y2914460I-3245J2267D01*
G01X2918140Y2957870D01*
G03X2914800Y2959700I-3339J-2131D01*
G01X2905830D01*
Y2972600D01*
X2948510D01*
Y2963320D01*
Y2959700D01*
X2937050D01*
X2957670Y2928390D01*
X2978300Y2959700D01*
X2965690D01*
Y2972600D01*
X3021610D01*
Y2959700D01*
X3013850D01*
G03X3010620Y2958020I8J-3960D01*
G37*
G36*
G01X2833890Y2853570D02*
Y2864240D01*
X2830490D01*
G02X2826760Y2869540I2J3964D01*
G01X2854720Y2947740D01*
X2873620Y2899010D01*
X2837920D01*
X2833840Y2887610D01*
X2878080Y2887500D01*
X2885010Y2869640D01*
G02X2881320Y2864240I-3693J-1437D01*
G01X2880630D01*
Y2853570D01*
X2907990D01*
Y2864240D01*
X2907450D01*
G02X2903760Y2866780I7J3961D01*
G01X2862880Y2972600D01*
X2836040D01*
X2797260Y2866840D01*
G02X2793550Y2864240I-3720J1361D01*
G01X2789230D01*
Y2853570D01*
X2833890D01*
G37*
G36*
G01X2796270Y2688650D02*
Y2784980D01*
G02X2800230Y2788940I3960J0D01*
G01X2807540D01*
Y2795630D01*
X2733760D01*
X2731350Y2795280D01*
X2728950Y2794880D01*
X2727760Y2794650D01*
X2726580Y2794380D01*
X2725100Y2793980D01*
X2724250Y2793720D01*
X2723100Y2793320D01*
X2721960Y2792880D01*
X2720840Y2792390D01*
X2719740Y2791850D01*
X2718670Y2791270D01*
X2717610Y2790640D01*
X2716580Y2789970D01*
X2715580Y2789260D01*
X2714610Y2788510D01*
X2713670Y2787710D01*
X2712760Y2786870D01*
X2712250Y2786370D01*
X2711050Y2785070D01*
X2710260Y2784120D01*
X2709510Y2783130D01*
X2708810Y2782110D01*
X2708150Y2781060D01*
X2707550Y2779980D01*
X2707000Y2778880D01*
X2706520Y2777760D01*
X2706090Y2776620D01*
X2705720Y2775470D01*
X2705380Y2774130D01*
X2705190Y2773120D01*
X2705020Y2771940D01*
X2704900Y2770740D01*
X2704820Y2769540D01*
X2704770Y2768330D01*
X2704680Y2763430D01*
X2704640Y2762340D01*
X2704560Y2760960D01*
X2704400Y2758490D01*
X2704350Y2757260D01*
X2704320Y2756040D01*
X2704340Y2754820D01*
X2704420Y2753620D01*
X2704570Y2752430D01*
X2704690Y2751850D01*
X2704820Y2751260D01*
X2704940Y2750850D01*
X2705170Y2750110D01*
X2705390Y2749550D01*
X2705630Y2748990D01*
X2705890Y2748430D01*
X2706180Y2747890D01*
X2706810Y2746820D01*
X2707520Y2745790D01*
X2708290Y2744800D01*
X2709130Y2743860D01*
X2710000Y2742970D01*
X2710920Y2742140D01*
X2711860Y2741370D01*
X2712550Y2740850D01*
X2713790Y2740020D01*
X2714780Y2739430D01*
X2715770Y2738890D01*
X2716780Y2738380D01*
X2717800Y2737900D01*
X2719890Y2736970D01*
X2720960Y2736500D01*
X2722040Y2736010D01*
X2723130Y2735490D01*
X2724250Y2734930D01*
X2725380Y2734330D01*
X2726530Y2733660D01*
X2727690Y2732930D01*
X2728980Y2732040D01*
X2729470Y2731680D01*
X2729750Y2731450D01*
X2730000Y2731220D01*
X2730230Y2731000D01*
X2730410Y2730770D01*
X2730540Y2730550D01*
X2730620Y2730250D01*
X2730610Y2730110D01*
X2730550Y2729910D01*
X2730420Y2729700D01*
X2730240Y2729500D01*
X2730020Y2729310D01*
X2729760Y2729120D01*
X2729150Y2728750D01*
X2728080Y2728160D01*
X2727180Y2727650D01*
X2726580Y2727280D01*
X2726010Y2726920D01*
X2725470Y2726550D01*
X2724960Y2726180D01*
X2724470Y2725800D01*
X2723550Y2725040D01*
X2722700Y2724270D01*
X2721910Y2723470D01*
X2721150Y2722650D01*
X2720280Y2721660D01*
X2719660Y2720930D01*
X2718920Y2720030D01*
X2718170Y2719110D01*
X2717430Y2718150D01*
X2716700Y2717180D01*
X2715270Y2715170D01*
X2714580Y2714140D01*
X2713910Y2713090D01*
X2713260Y2712040D01*
X2712910Y2711450D01*
X2711450Y2708820D01*
X2710320Y2706650D01*
X2709200Y2704510D01*
X2708040Y2702390D01*
X2707420Y2701360D01*
X2706780Y2700340D01*
X2706370Y2699730D01*
X2705400Y2698370D01*
X2704660Y2697420D01*
X2703890Y2696480D01*
X2703090Y2695570D01*
X2702270Y2694670D01*
X2700570Y2692910D01*
X2698430Y2690830D01*
X2697050Y2689540D01*
X2695250Y2687910D01*
X2692760Y2685690D01*
G02X2690120Y2684690I-2631J2961D01*
G01X2685160D01*
Y2677280D01*
X2712660D01*
G03X2715600Y2678590I-3J3960D01*
G01X2721100Y2684690D01*
X2722010Y2685700D01*
X2722910Y2686710D01*
X2723810Y2687730D01*
X2724700Y2688750D01*
X2725580Y2689790D01*
X2726440Y2690830D01*
X2727280Y2691900D01*
X2728100Y2692980D01*
X2728800Y2693930D01*
X2729660Y2695190D01*
X2730400Y2696330D01*
X2731100Y2697500D01*
X2731780Y2698680D01*
X2732420Y2699870D01*
X2733020Y2701090D01*
X2733590Y2702330D01*
X2734100Y2703510D01*
X2734630Y2704850D01*
X2735110Y2706120D01*
X2735570Y2707400D01*
X2736040Y2708680D01*
X2736520Y2709950D01*
X2737020Y2711200D01*
X2737560Y2712440D01*
X2737870Y2713090D01*
X2738780Y2714830D01*
X2739460Y2716000D01*
X2740170Y2717150D01*
X2740890Y2718300D01*
X2741630Y2719460D01*
X2742140Y2720270D01*
X2743100Y2721800D01*
X2743850Y2722960D01*
X2744640Y2724080D01*
X2745480Y2725150D01*
X2746390Y2726120D01*
X2747150Y2726790D01*
X2748510Y2727730D01*
X2749700Y2728390D01*
X2750930Y2728980D01*
X2752200Y2729550D01*
X2772610D01*
Y2740700D01*
X2749110D01*
X2747740Y2740810D01*
X2746370Y2740940D01*
X2745350Y2741040D01*
X2743630Y2741270D01*
X2742280Y2741520D01*
X2740940Y2741850D01*
X2740220Y2742070D01*
X2738330Y2742840D01*
X2737070Y2743500D01*
X2735860Y2744260D01*
X2734710Y2745110D01*
X2733630Y2746050D01*
X2732620Y2747070D01*
X2731700Y2748150D01*
X2730880Y2749300D01*
X2730170Y2750500D01*
X2729630Y2751630D01*
X2729110Y2753030D01*
X2728760Y2754350D01*
X2728500Y2755690D01*
X2728330Y2757060D01*
X2728240Y2758450D01*
X2728200Y2759850D01*
X2728210Y2761260D01*
X2728260Y2762900D01*
X2728320Y2764100D01*
X2728410Y2765510D01*
X2728540Y2766910D01*
X2728710Y2768290D01*
X2728940Y2769660D01*
X2729240Y2771010D01*
X2729620Y2772330D01*
X2730080Y2773610D01*
X2730640Y2774870D01*
X2731000Y2775540D01*
X2732100Y2777240D01*
X2732980Y2778340D01*
X2733950Y2779360D01*
X2735010Y2780290D01*
X2736140Y2781120D01*
X2737340Y2781820D01*
X2738160Y2782210D01*
X2739890Y2782820D01*
X2741220Y2783140D01*
X2742580Y2783390D01*
X2743960Y2783570D01*
X2745350Y2783740D01*
X2773030D01*
Y2688650D01*
G02X2769070Y2684690I-3960J0D01*
G01X2760040D01*
Y2677280D01*
X2807540D01*
Y2684690D01*
X2800230D01*
G02X2796270Y2688650I-1J3959D01*
G37*
G36*
G01X2656080Y2677520D02*
X2601760D01*
G02X2581550Y2699520I2071J22185D01*
G01Y2784980D01*
G03X2577590Y2788940I-3960J0D01*
G01X2571720D01*
Y2796210D01*
X2610210D01*
Y2788940D01*
X2602000D01*
G03X2598040Y2784980I2J-3962D01*
G01Y2705800D01*
G03X2616920Y2691200I17976J3738D01*
G01X2638620D01*
G03X2655760Y2705800I-475J17918D01*
G01Y2784980D01*
G03X2651800Y2788940I-3962J-2D01*
G01X2643190D01*
Y2796210D01*
X2695410D01*
Y2788940D01*
X2685240D01*
G03X2681280Y2784980I0J-3960D01*
G01Y2708720D01*
G02X2656080Y2677520I-32235J259D01*
G37*
G36*
G01X2565770Y2677340D02*
X2528330D01*
Y2686550D01*
X2536460D01*
G03X2540430Y2690510I8J3962D01*
G01Y2766120D01*
X2496590Y2677340D01*
X2454580Y2764750D01*
Y2690510D01*
G03X2458540Y2686550I3962J2D01*
G01X2463110D01*
Y2677490D01*
X2417820D01*
Y2686550D01*
X2419570D01*
G03X2423530Y2690510I0J3960D01*
G01Y2785480D01*
G03X2419570Y2789440I-3960J0D01*
G01X2415540D01*
Y2796210D01*
X2454490D01*
G02X2458130Y2793830I8J-3962D01*
G01X2488600Y2723450D01*
X2521100Y2793910D01*
G02X2524700Y2796210I3595J-1660D01*
G01X2565770D01*
Y2788940D01*
X2556490D01*
G03X2552530Y2784980I0J-3960D01*
G01Y2690510D01*
G03X2556490Y2686550I3960J0D01*
G01X2565770D01*
Y2677340D01*
G37*
G36*
G01X2326240Y2752550D02*
X2323370D01*
Y2722940D01*
X2326240D01*
X2330220Y2728030D01*
G02X2333340Y2729550I3121J-2443D01*
G01X2373810D01*
Y2691230D01*
X2322790D01*
G02X2319930Y2692450I0J3963D01*
G01X2307580Y2705370D01*
X2304160D01*
X2312930Y2680010D01*
G03X2316670Y2677340I3744J1290D01*
G01X2407340D01*
Y2681590D01*
X2396160Y2687450D01*
G02X2394040Y2690950I1840J3506D01*
G01Y2779340D01*
G02X2395990Y2782750I3960J-2D01*
G01X2407340Y2789440D01*
Y2796210D01*
X2321420D01*
G03X2317760Y2793770I-2J-3962D01*
G01X2307010Y2767770D01*
X2312900Y2765340D01*
X2323410Y2776800D01*
G02X2326330Y2778090I2925J-2671D01*
G01X2373810D01*
Y2747600D01*
X2333000D01*
G02X2330260Y2748700I-1J3959D01*
G01X2326240Y2752550D01*
G37*
G36*
G01X3045760Y2928780D02*
X3042900D01*
Y2899170D01*
X3045760D01*
X3049750Y2904260D01*
G02X3052870Y2905770I3111J-2450D01*
G01X3093340D01*
Y2867460D01*
X3042320D01*
G02X3039460Y2868680I-1J3961D01*
G01X3027110Y2881590D01*
X3023690D01*
X3032450Y2856240D01*
G03X3036200Y2853570I3745J1291D01*
G01X3126860D01*
Y2857820D01*
X3115690Y2863670D01*
G02X3113570Y2867180I1841J3507D01*
G01Y2955570D01*
G02X3115520Y2958980I3959J-2D01*
G01X3126860Y2965670D01*
Y2972440D01*
X3040950D01*
G03X3037290Y2969990I1J-3961D01*
G01X3026540Y2944000D01*
X3032430Y2941570D01*
X3042930Y2953030D01*
G02X3045850Y2954310I2916J-2681D01*
G01X3093340D01*
Y2923820D01*
X3052530D01*
G02X3049790Y2924920I0J3963D01*
G01X3045760Y2928780D01*
G37*
G36*
G01X3156420Y2694470D02*
G02X3148500Y2686550I-7921J1D01*
G01X3144250D01*
Y2677490D01*
X3196450Y2677360D01*
Y2686550D01*
X3192200D01*
G02X3184280Y2694470I1J7921D01*
G01Y2817250D01*
G02X3192200Y2825180I7922J8D01*
G01X3196450D01*
Y2831980D01*
X3145060D01*
Y2825180D01*
X3148500D01*
G02X3156420Y2817250I-3J-7923D01*
G01Y2694470D01*
G37*
G36*
G01X3137340Y2686550D02*
X3129840D01*
G02X3125870Y2690510I-8J3962D01*
G01Y2783490D01*
G02X3129840Y2787450I3961J-1D01*
G01X3137900D01*
Y2796230D01*
X3101400D01*
G03X3098400Y2794860I-4J-3960D01*
G01X3041650Y2729120D01*
Y2782700D01*
G02X3045610Y2786660I3959J1D01*
G01X3055290D01*
Y2796230D01*
X3015400D01*
Y2786660D01*
X3023800D01*
G02X3027760Y2782700I1J-3959D01*
G01Y2677490D01*
X3033930D01*
G03X3036920Y2678860I-5J3958D01*
G01X3105550Y2758360D01*
Y2690510D01*
G02X3101590Y2686550I-3961J1D01*
G01X3095670D01*
Y2677490D01*
X3137340D01*
Y2686550D01*
G37*
G36*
G01X2302490D02*
X2294980D01*
G02X2291020Y2690510I2J3962D01*
G01Y2783490D01*
G02X2294980Y2787450I3960J0D01*
G01X2303050D01*
Y2796230D01*
X2266550D01*
G03X2263550Y2794860I-5J-3960D01*
G01X2206800Y2729120D01*
Y2782700D01*
G02X2210760Y2786660I3958J2D01*
G01X2220430D01*
Y2796230D01*
X2180540D01*
Y2786660D01*
X2188950D01*
G02X2192910Y2782700I0J-3960D01*
G01Y2677490D01*
X2199070D01*
G03X2202070Y2678860I5J3959D01*
G01X2270700Y2758360D01*
Y2690510D01*
G02X2266740Y2686550I-3961J1D01*
G01X2260820D01*
Y2677490D01*
X2302490D01*
Y2686550D01*
G37*
G36*
G01X3003070Y2678630D02*
X3013030Y2715310D01*
X3008430Y2716440D01*
X3006500Y2713810D01*
X3004550Y2711210D01*
X3002560Y2708680D01*
X3000520Y2706250D01*
X2998400Y2703950D01*
X2996180Y2701810D01*
X2993850Y2699880D01*
X2991390Y2698180D01*
X2988670Y2696690D01*
X2985990Y2695590D01*
X2983060Y2694670D01*
X2980030Y2693910D01*
X2976360Y2693130D01*
X2973790Y2692620D01*
X2970630Y2692050D01*
X2967460Y2691580D01*
X2964300Y2691260D01*
X2961160Y2691150D01*
X2958060Y2691280D01*
X2955000Y2691700D01*
X2952010Y2692480D01*
X2948840Y2693780D01*
X2946300Y2695260D01*
X2943750Y2697270D01*
X2941640Y2699650D01*
X2939770Y2703490D01*
X2939440Y2705340D01*
X2939530Y2708490D01*
X2940320Y2711630D01*
X2941710Y2714620D01*
X2944300Y2718060D01*
X2945880Y2719470D01*
X2948470Y2721180D01*
X2951300Y2722490D01*
X2954280Y2723490D01*
X2958550Y2724530D01*
X2960430Y2724900D01*
X2963490Y2725450D01*
X2966530Y2725930D01*
X2969560Y2726370D01*
X2972590Y2726800D01*
X2975620Y2727250D01*
X2978660Y2727730D01*
X2981700Y2728280D01*
X2984760Y2728920D01*
X2986730Y2729380D01*
X2990910Y2730570D01*
X2993930Y2731640D01*
X2996840Y2732910D01*
X2999570Y2734410D01*
X3002070Y2736160D01*
X3004210Y2738120D01*
X3006160Y2740540D01*
X3007720Y2743140D01*
X3008960Y2745970D01*
X3009920Y2748980D01*
X3010620Y2752130D01*
X3011080Y2755360D01*
X3011340Y2760130D01*
X3011330Y2761940D01*
X3011150Y2765200D01*
X3010750Y2768410D01*
X3010120Y2771530D01*
X3009250Y2774530D01*
X3008110Y2777400D01*
X3006700Y2780100D01*
X3004860Y2782790D01*
X3003010Y2784900D01*
X3000740Y2786970D01*
X2998250Y2788840D01*
X2995570Y2790500D01*
X2992750Y2791960D01*
X2989820Y2793230D01*
X2985430Y2794770D01*
X2983800Y2795240D01*
X2980770Y2795990D01*
X2977730Y2796570D01*
X2974680Y2796990D01*
X2971610Y2797250D01*
X2968590Y2797360D01*
X2965390Y2797320D01*
X2962270Y2797110D01*
X2959180Y2796720D01*
X2956130Y2796120D01*
X2953140Y2795290D01*
X2950780Y2794450D01*
X2947450Y2792920D01*
X2944730Y2791460D01*
X2942030Y2789910D01*
Y2797480D01*
X2933330D01*
X2925580Y2763940D01*
X2928430Y2761110D01*
X2930800Y2762970D01*
X2933180Y2764810D01*
X2935590Y2766590D01*
X2938060Y2768300D01*
X2940580Y2769910D01*
X2943330Y2771460D01*
X2945880Y2772710D01*
X2948660Y2773890D01*
X2951500Y2774900D01*
X2954400Y2775770D01*
X2957330Y2776470D01*
X2960290Y2777030D01*
X2962110Y2777290D01*
X2966210Y2777660D01*
X2969190Y2777710D01*
X2972200Y2777570D01*
X2974740Y2777290D01*
X2978330Y2776590D01*
X2981230Y2775570D01*
X2983800Y2774020D01*
X2985110Y2772760D01*
X2987210Y2768960D01*
X2987880Y2765810D01*
X2987790Y2762640D01*
X2987050Y2760130D01*
X2985180Y2757460D01*
X2982830Y2755630D01*
X2980030Y2754210D01*
X2976960Y2753130D01*
X2974100Y2752370D01*
X2970730Y2751650D01*
X2967720Y2751140D01*
X2964770Y2750710D01*
X2961850Y2750320D01*
X2958960Y2749920D01*
X2955960Y2749450D01*
X2953180Y2748930D01*
X2950280Y2748280D01*
X2947370Y2747550D01*
X2944450Y2746730D01*
X2941710Y2745890D01*
X2938630Y2744860D01*
X2935760Y2743770D01*
X2932990Y2742540D01*
X2930340Y2741120D01*
X2927860Y2739470D01*
X2925840Y2737800D01*
X2923570Y2735380D01*
X2921800Y2732960D01*
X2920270Y2730330D01*
X2918980Y2727550D01*
X2917930Y2724650D01*
X2917100Y2721620D01*
X2916530Y2718690D01*
X2916180Y2715680D01*
X2916060Y2712670D01*
X2916160Y2709660D01*
X2916490Y2706670D01*
X2917100Y2703490D01*
X2917830Y2700770D01*
X2918820Y2697900D01*
X2920030Y2695100D01*
X2921450Y2692410D01*
X2923090Y2689850D01*
X2924920Y2687440D01*
X2927140Y2685040D01*
X2929200Y2683180D01*
X2931610Y2681350D01*
X2934180Y2679710D01*
X2936890Y2678280D01*
X2939710Y2677040D01*
X2942630Y2676000D01*
X2945610Y2675160D01*
X2948650Y2674510D01*
X2951720Y2674050D01*
X2954790Y2673780D01*
X2958230Y2673710D01*
X2960880Y2673820D01*
X2963870Y2674100D01*
X2966830Y2674550D01*
X2969760Y2675140D01*
X2972670Y2675860D01*
X2975550Y2676680D01*
X2978410Y2677610D01*
X2981260Y2678610D01*
X2984100Y2679680D01*
X2986920Y2680790D01*
X2989740Y2681940D01*
X2992560Y2683100D01*
Y2678630D01*
X3003070D01*
G37*
G36*
G01X2781020Y2854850D02*
X2790990Y2891530D01*
X2786380Y2892660D01*
X2784450Y2890030D01*
X2782510Y2887430D01*
X2780520Y2884900D01*
X2778480Y2882470D01*
X2776360Y2880170D01*
X2774140Y2878040D01*
X2771810Y2876100D01*
X2769350Y2874400D01*
X2766630Y2872920D01*
X2763940Y2871810D01*
X2761020Y2870890D01*
X2757990Y2870130D01*
X2754320Y2869360D01*
X2751750Y2868850D01*
X2748590Y2868280D01*
X2745420Y2867810D01*
X2742260Y2867490D01*
X2739120Y2867370D01*
X2736010Y2867500D01*
X2732960Y2867930D01*
X2729970Y2868700D01*
X2726790Y2870000D01*
X2724250Y2871480D01*
X2721710Y2873490D01*
X2719600Y2875870D01*
X2717730Y2879710D01*
X2717390Y2881560D01*
X2717480Y2884710D01*
X2718280Y2887860D01*
X2719670Y2890850D01*
X2722260Y2894280D01*
X2723840Y2895700D01*
X2726430Y2897410D01*
X2729260Y2898720D01*
X2732240Y2899720D01*
X2736510Y2900750D01*
X2738380Y2901130D01*
X2741440Y2901670D01*
X2744490Y2902150D01*
X2747520Y2902600D01*
X2750550Y2903030D01*
X2753580Y2903470D01*
X2756610Y2903950D01*
X2759660Y2904500D01*
X2762720Y2905140D01*
X2764680Y2905610D01*
X2768870Y2906790D01*
X2771890Y2907860D01*
X2774800Y2909130D01*
X2777530Y2910630D01*
X2780030Y2912380D01*
X2782170Y2914350D01*
X2784120Y2916760D01*
X2785670Y2919370D01*
X2786920Y2922200D01*
X2787880Y2925210D01*
X2788580Y2928350D01*
X2789030Y2931590D01*
X2789300Y2936360D01*
X2789290Y2938160D01*
X2789110Y2941430D01*
X2788710Y2944630D01*
X2788080Y2947750D01*
X2787210Y2950760D01*
X2786070Y2953630D01*
X2784660Y2956330D01*
X2782820Y2959020D01*
X2780960Y2961130D01*
X2778700Y2963200D01*
X2776210Y2965060D01*
X2773530Y2966720D01*
X2770710Y2968180D01*
X2767780Y2969460D01*
X2763390Y2970990D01*
X2761760Y2971470D01*
X2758730Y2972210D01*
X2755690Y2972790D01*
X2752640Y2973210D01*
X2749560Y2973470D01*
X2746550Y2973580D01*
X2743350Y2973540D01*
X2740230Y2973340D01*
X2737140Y2972940D01*
X2734080Y2972340D01*
X2731100Y2971520D01*
X2728740Y2970670D01*
X2725410Y2969150D01*
X2722680Y2967680D01*
X2719990Y2966140D01*
Y2973700D01*
X2711290D01*
X2703530Y2940170D01*
X2706390Y2937330D01*
X2708760Y2939190D01*
X2711140Y2941030D01*
X2713550Y2942820D01*
X2716010Y2944530D01*
X2718540Y2946130D01*
X2721290Y2947690D01*
X2723840Y2948940D01*
X2726620Y2950110D01*
X2729460Y2951130D01*
X2732360Y2951990D01*
X2735290Y2952700D01*
X2738240Y2953250D01*
X2740070Y2953510D01*
X2744170Y2953880D01*
X2747150Y2953940D01*
X2750160Y2953800D01*
X2752700Y2953510D01*
X2756280Y2952810D01*
X2759190Y2951800D01*
X2761760Y2950240D01*
X2763070Y2948980D01*
X2765170Y2945190D01*
X2765840Y2942030D01*
X2765750Y2938870D01*
X2765010Y2936360D01*
X2763140Y2933690D01*
X2760790Y2931860D01*
X2757990Y2930440D01*
X2754920Y2929350D01*
X2752050Y2928590D01*
X2748690Y2927880D01*
X2745680Y2927360D01*
X2742720Y2926940D01*
X2739810Y2926550D01*
X2736920Y2926150D01*
X2733920Y2925680D01*
X2731140Y2925150D01*
X2728240Y2924510D01*
X2725330Y2923780D01*
X2722410Y2922960D01*
X2719670Y2922120D01*
X2716590Y2921090D01*
X2713720Y2920000D01*
X2710940Y2918760D01*
X2708300Y2917340D01*
X2705820Y2915700D01*
X2703800Y2914020D01*
X2701530Y2911610D01*
X2699760Y2909180D01*
X2698230Y2906550D01*
X2696940Y2903770D01*
X2695890Y2900870D01*
X2695060Y2897840D01*
X2694490Y2894920D01*
X2694140Y2891910D01*
X2694020Y2888900D01*
X2694120Y2885890D01*
X2694450Y2882900D01*
X2695060Y2879710D01*
X2695780Y2877000D01*
X2696780Y2874120D01*
X2697990Y2871330D01*
X2699410Y2868640D01*
X2701040Y2866080D01*
X2702880Y2863670D01*
X2705100Y2861260D01*
X2707160Y2859400D01*
X2709570Y2857570D01*
X2712140Y2855940D01*
X2714850Y2854500D01*
X2717670Y2853270D01*
X2720590Y2852230D01*
X2723570Y2851380D01*
X2726610Y2850730D01*
X2729680Y2850270D01*
X2732750Y2850010D01*
X2736190Y2849940D01*
X2738840Y2850040D01*
X2741830Y2850330D01*
X2744790Y2850770D01*
X2747720Y2851360D01*
X2750620Y2852080D01*
X2753510Y2852910D01*
X2756370Y2853830D01*
X2759220Y2854830D01*
X2762050Y2855900D01*
X2764880Y2857010D01*
X2767700Y2858160D01*
X2770510Y2859320D01*
Y2854850D01*
X2781020D01*
G37*
G36*
G01X3443080Y3009800D02*
X3465870D01*
Y3077340D01*
X3560230D01*
Y2936210D01*
X3660440D01*
X3659600Y2932650D01*
X3658740Y2929120D01*
X3657810Y2925630D01*
X3656800Y2922210D01*
X3655670Y2918870D01*
X3654380Y2915650D01*
X3652920Y2912560D01*
X3651250Y2909620D01*
X3649340Y2906860D01*
X3648280Y2905550D01*
X3644730Y2901910D01*
X3642110Y2899650D01*
X3639370Y2897480D01*
X3636580Y2895350D01*
X3633790Y2893190D01*
X3630730Y2890660D01*
X3628490Y2888610D01*
X3626020Y2886150D01*
X3623670Y2883600D01*
X3621400Y2880970D01*
X3619190Y2878290D01*
X3617030Y2875570D01*
X3614880Y2872830D01*
X3613880Y2869260D01*
X3612860Y2865700D01*
X3611830Y2862140D01*
X3610760Y2858590D01*
X3609650Y2855050D01*
X3608490Y2851540D01*
X3607270Y2848040D01*
X3605980Y2844570D01*
X3604600Y2841120D01*
X3603130Y2837710D01*
X3601020Y2833220D01*
X3599880Y2830990D01*
X3598020Y2827750D01*
X3595910Y2824690D01*
X3593470Y2821880D01*
X3590520Y2819340D01*
X3587300Y2817370D01*
X3583660Y2815860D01*
X3579880Y2814990D01*
X3576140Y2814870D01*
X3573290Y2815400D01*
X3569430Y2817250D01*
X3566530Y2819560D01*
X3563860Y2822340D01*
X3561410Y2825300D01*
X3558960Y2828440D01*
X3556590Y2831450D01*
X3554160Y2834310D01*
X3551580Y2836930D01*
X3548780Y2839220D01*
X3545570Y2841140D01*
X3542180Y2842450D01*
X3537640Y2843120D01*
X3534820Y2842870D01*
X3531240Y2841820D01*
X3527830Y2840110D01*
X3523780Y2837180D01*
X3521850Y2835410D01*
X3519330Y2832650D01*
X3517070Y2829710D01*
X3515010Y2826630D01*
X3513090Y2823450D01*
X3511900Y2821340D01*
X3509500Y2816950D01*
X3507790Y2813660D01*
X3506110Y2810360D01*
X3504470Y2807040D01*
X3502870Y2803700D01*
X3501300Y2800350D01*
X3500020Y2797570D01*
X3498210Y2793610D01*
X3496690Y2790230D01*
X3495170Y2786850D01*
X3493640Y2783480D01*
X3492090Y2780110D01*
X3490520Y2776760D01*
X3488130Y2771830D01*
X3487270Y2770110D01*
X3485580Y2766830D01*
X3483820Y2763580D01*
X3481990Y2760370D01*
X3480080Y2757200D01*
X3478080Y2754080D01*
X3475980Y2751010D01*
X3473770Y2747990D01*
X3472290Y2746080D01*
X3469000Y2742150D01*
X3466440Y2739350D01*
X3463780Y2736640D01*
X3461050Y2734040D01*
X3458240Y2731560D01*
X3455380Y2729210D01*
X3452480Y2727010D01*
X3448520Y2724290D01*
X3446600Y2723100D01*
X3443620Y2721400D01*
X3440580Y2719890D01*
X3437450Y2718560D01*
X3434210Y2717400D01*
X3430820Y2716430D01*
X3427260Y2715650D01*
X3423490Y2715040D01*
X3419490Y2714630D01*
X3415240Y2714400D01*
X3408910Y2714390D01*
X3405840Y2714510D01*
X3400860Y2714880D01*
X3396070Y2715530D01*
X3391780Y2716510D01*
X3388320Y2717880D01*
X3386000Y2719670D01*
X3385150Y2722310D01*
X3385940Y2724760D01*
X3388020Y2727950D01*
X3390740Y2731320D01*
X3392180Y2740830D01*
X3393340Y2750220D01*
X3393950Y2759340D01*
X3393720Y2768080D01*
X3392720Y2774890D01*
X3389780Y2783940D01*
X3385960Y2791020D01*
X3381050Y2797590D01*
X3375150Y2803700D01*
X3368370Y2809410D01*
X3360830Y2814760D01*
X3352630Y2819800D01*
X3343870Y2824590D01*
X3334680Y2829180D01*
X3325160Y2833610D01*
X3315430Y2837950D01*
X3305580Y2842230D01*
X3288100D01*
Y2922340D01*
X3305930Y2940170D01*
Y3009800D01*
X3387130D01*
X3397030Y2957050D01*
X3373260D01*
X3379200Y2923480D01*
X3400990D01*
X3414360Y2852930D01*
X3397090Y2853030D01*
Y2824770D01*
G03X3404290Y2815580I8034J-1121D01*
G01X3459870D01*
G03X3476260Y2828370I1089J15502D01*
G01Y2836360D01*
X3460670Y2923480D01*
X3483860D01*
X3476660Y2957050D01*
X3451870D01*
X3443080Y3009800D01*
G37*
G36*
G01X3434660Y3015430D02*
X3425520Y3055210D01*
X3383930D01*
X3393070Y3015430D01*
X3434660D01*
G37*
G36*
G01Y3009800D02*
X3466350Y2853030D01*
X3424760D01*
X3393070Y3009800D01*
X3434660D01*
G37*
G54D10*
G01X186730Y2240840D02*
G03X31730Y2085840I-4769J-150231D01*
G03X186730Y2240840I155000J0D01*
G01X214730Y2379840D02*
X234730D01*
G01X214730Y2279840D02*
X234730D01*
G01X1029100Y649000D02*
Y669000D01*
G01X1101100Y649000D02*
Y669000D01*
G01X1700700Y306300D02*
X1670700D01*
G01X1700700Y466300D02*
X1670700D01*
G01X1331730Y660840D02*
X1311730D01*
G01X1681000Y462000D02*
X1661000D01*
G01X1681000Y552000D02*
X1661000D01*
G01X1537100Y414400D02*
Y384400D01*
G01X1427100D02*
Y414400D01*
G01X1631730Y650840D02*
X1661730D01*
G01Y540840D02*
X1631730D01*
G01X1154730Y287840D02*
Y317840D01*
G01X1264730D02*
Y287840D01*
G01X795500Y540400D02*
Y520400D01*
G01X695500Y540400D02*
Y520400D01*
G01X994300Y480700D02*
X974300D01*
G01X994300Y580700D02*
X974300D01*
G01X610000Y610000D02*
Y630000D01*
G01X710000Y610000D02*
Y630000D01*
G01X1270600Y550200D02*
Y520200D01*
G01X1150600D02*
Y550200D01*
G01X1481730Y677840D02*
Y657840D01*
G01X1391730Y677840D02*
Y657840D01*
G01X1029000Y716000D02*
X909000D01*
Y596000D01*
X1009000D01*
X1029000Y616000D01*
Y716000D01*
G01X894100Y1848810D02*
X904100D01*
Y1618810D01*
X894100D01*
G01X684100D02*
X674100D01*
Y1838810D01*
X684100Y1848810D01*
G01X736300Y1370300D02*
X756300D01*
G01X736300Y1260300D02*
X756300D01*
G01X1281730Y1085840D02*
X1296730D01*
G01X1281730Y1005840D02*
X1296730D01*
G01X1594500Y1521300D02*
Y1541300D01*
G01X1666500Y1521300D02*
Y1541300D01*
G01X1689000Y1521300D02*
Y1541300D01*
G01X1761000Y1521300D02*
Y1541300D01*
G01X636700Y1798300D02*
X616700D01*
G01X636700Y1870300D02*
X616700D01*
G01X738730Y1894840D02*
X718730D01*
G01X738730Y1966840D02*
X718730D01*
G01X904730Y1971840D02*
X924730D01*
G01X904730Y1899840D02*
X924730D01*
G01X736000Y1522800D02*
X756000D01*
G01X736000Y1412800D02*
X756000D01*
G01X1451600Y1470800D02*
X1471600D01*
G01X1451600Y1380800D02*
X1471600D01*
G01X1471400Y1453000D02*
X1451400D01*
G01X1471400Y1543000D02*
X1451400D01*
G01X1366730Y1175840D02*
X1346730D01*
G01X1366730Y1265840D02*
X1346730D01*
G01X1585730Y1719840D02*
Y1739840D01*
G01X1675730Y1719840D02*
Y1739840D01*
G01X1331730Y750840D02*
X1311730D01*
G01X1774730Y1575840D02*
X1754730D01*
G01X1774730Y1665840D02*
X1754730D01*
G01X1995900Y1787900D02*
Y1807900D01*
G01X1143400Y1701900D02*
X1163400D01*
G01X1143400Y1611900D02*
X1163400D01*
G01X1804730Y1797840D02*
X1784730D01*
G01X1804730Y1887840D02*
X1784730D01*
G01X1547730Y1967840D02*
X1567730D01*
G01X1547730Y1877840D02*
X1567730D01*
G01X1066730Y1152840D02*
X1046730D01*
G01X1066730Y1242840D02*
X1046730D01*
G01X1480600Y2300000D02*
Y2320000D01*
G01X1570600Y2300000D02*
Y2320000D01*
G01X1336730Y1105840D02*
X1316730D01*
G01X1336730Y1195840D02*
X1316730D01*
G01X961900Y734700D02*
X941900D01*
G01X961900Y824700D02*
X941900D01*
G01X932100Y1956340D02*
Y2176340D01*
X917100Y2191340D01*
X647100D01*
Y1956340D01*
X932100D01*
G01X718400Y901800D02*
Y881800D01*
G01X648400Y901800D02*
Y886800D01*
G01X1556730Y1388340D02*
Y1408340D01*
X1591730Y1443340D01*
X1611730D01*
G01Y703340D02*
X1556730D01*
Y758340D01*
G01X1656900Y2370700D02*
X1636900D01*
G01X563630Y1381210D02*
X577780Y1367060D01*
G01X499990Y1317570D02*
X514140Y1303420D01*
G01X597800Y1615500D02*
X617800D01*
G01X597800Y1525500D02*
X617800D01*
G01X1711730Y1950840D02*
Y1970840D01*
G01X1801730Y1950840D02*
Y1970840D01*
G01X1631730Y1872840D02*
Y1892840D01*
G01X1721730Y1872840D02*
Y1892840D01*
G01X1600730Y1574840D02*
X1580730D01*
G01X1600730Y1664840D02*
X1580730D01*
G01X1679730Y1720840D02*
Y1740840D01*
G01X1769730Y1720840D02*
Y1740840D01*
G01X1808730Y2059840D02*
X1928730D01*
Y2334840D01*
X1888730Y2374840D01*
X1808730D01*
G01X1698730D02*
X1578730D01*
Y2059840D01*
X1698730D01*
G01X1248000Y1409800D02*
Y1449800D01*
X1243000Y1454800D01*
G01X963000D02*
Y1409800D01*
G01X1098000Y1254800D02*
X1113000D01*
G01X1098000Y1609800D02*
X1113000D01*
G01X1656900Y2460700D02*
X1636900D01*
G01X3317200Y571400D02*
Y331400D01*
X3507200D01*
Y551400D01*
X3487200Y571400D01*
X3317200D01*
G01X3226730Y1890840D02*
Y1695840D01*
X3251730Y1670840D01*
X3446730D01*
Y1890840D01*
X3226730D01*
G01X2731730Y1165840D02*
X2761730Y1195840D01*
G01X3061730Y1165840D02*
Y1195840D01*
X3031730D01*
G01Y865840D02*
X3061730D01*
Y895840D01*
G01X2731730D02*
Y865840D01*
X2761730D01*
G01X2978730Y769840D02*
X2958730D01*
G01X2978730Y841840D02*
X2958730D01*
G01X3085730Y1108840D02*
Y1128840D01*
G01X3157730Y1108840D02*
Y1128840D01*
G01X3086730Y971840D02*
Y991840D01*
G01X3158730Y971840D02*
Y991840D01*
G01X2437700Y815800D02*
Y795800D01*
G01X2347700Y815800D02*
Y795800D01*
G01X2085900Y1787900D02*
Y1807900D01*
G01X2472400Y1825500D02*
Y1845500D01*
G01X2562400Y1825500D02*
Y1845500D01*
G01X2531800Y815900D02*
Y795900D01*
G01X2441800Y815900D02*
Y795900D01*
G01X2396730Y1390840D02*
X2416730D01*
G01X2396730Y1300840D02*
X2416730D01*
G01X3683700Y1752600D02*
Y1737600D01*
G01X2763100Y1305000D02*
X2783100D01*
G01X2763100Y1235000D02*
X2778100D01*
G01X2655600Y1102300D02*
Y1082300D01*
G01X2585600Y1102300D02*
Y1087300D01*
G01X3686900Y1447100D02*
Y1467100D01*
G01X2296730Y1388340D02*
Y1443340D01*
X2241730D01*
G01Y703340D02*
X2296730D01*
Y758340D01*
G01X2330730Y1904840D02*
X2235730D01*
X2230730Y1899840D01*
G01Y1724840D02*
X2330730D01*
G01X3991730Y750840D02*
G03X3836730Y595840I-4769J-150231D01*
G03X3991730Y750840I155000J0D01*
G01X3778700Y1735200D02*
Y1755200D01*
G01X3850700Y1735200D02*
Y1755200D01*
G01X3986730Y2240840D02*
G03X3831730Y2085840I-4769J-150231D01*
G03X3986730Y2240840I155000J0D01*
G01X3753700Y1752600D02*
Y1732600D01*
G01X3756900Y1447100D02*
Y1462100D01*
G01X3901910Y1476310D02*
X3887760Y1462170D01*
G01X3852410Y1525810D02*
X3841800Y1515200D01*
G01X3856730Y2285840D02*
Y2265840D01*
G01X3756730Y2285840D02*
Y2265840D01*
G01X0Y0D02*
X1100000D01*
G02X3100000I1000000J-1542012D01*
G01X4200000D01*
Y3200000D01*
X3935000D01*
Y3100000D01*
X3825000D01*
Y3200000D01*
X375000D01*
Y3100000D01*
X265000D01*
X264990Y3200000D01*
X0D01*
Y0D01*
G01X10000Y-150D02*
X11000D01*
G01X10000D02*
X11000D01*
G01X3192040Y588030D02*
Y233040D01*
G03X3212030Y213050I19990J0D01*
G01X3352030D01*
G03X3372020Y233040I0J19990D01*
G01Y258030D01*
G03X3352030Y278050I-20000J20D01*
G01X3277030D01*
G02X3257040Y298040I3J19993D01*
G01Y588030D01*
G03X3237020Y608050I-20007J13D01*
G01X3212030D01*
G03X3192040Y588030I10J-20000D01*
G01X3638380Y588080D02*
Y233070D01*
G02X3618390Y213080I-19997J7D01*
G01X3478390D01*
G02X3458400Y233070I0J19990D01*
G01Y258090D01*
G02X3478390Y278080I19990J0D01*
G01X3553400D01*
G03X3573390Y298090I-10J20000D01*
G01Y588080D01*
G02X3593400Y608070I19997J-7D01*
G01X3618390D01*
G02X3638380Y588080I-3J-19993D01*
G01X3116730Y1540840D02*
X3526730D01*
Y1600840D01*
X3176730D01*
Y1950840D01*
X3526730D01*
Y2010840D01*
X3116730D01*
Y1540840D01*
G54D11*
G01X3168030Y121870D02*
X3165330Y125040D01*
X3163300Y130330D01*
X3161940Y137740D01*
X3163300Y144090D01*
X3166000Y148320D01*
X3170740Y151500D01*
X3189000D01*
Y88000D01*
X3166680D01*
X3161940Y92230D01*
X3159240Y98580D01*
X3157890Y105990D01*
X3159240Y113400D01*
X3163300Y119750D01*
X3168030Y121870D01*
X3189000D01*
G01X3134580Y88000D02*
X3117670Y151500D01*
X3100750Y88000D01*
G01X3106840Y110220D02*
X3128490D01*
G01X3061890Y151500D02*
Y88000D01*
G01X3077440Y151500D02*
X3046330D01*
G01X3014900Y109170D02*
X2997310D01*
G01X3801290Y92220D02*
X3798590Y95390D01*
X3796560Y100680D01*
X3795200Y108090D01*
X3796560Y114440D01*
X3799260Y118670D01*
X3804000Y121850D01*
X3822260D01*
Y58350D01*
X3799940D01*
X3795200Y62580D01*
X3792500Y68930D01*
X3791150Y76340D01*
X3792500Y83750D01*
X3796560Y90100D01*
X3801290Y92220D01*
X3822260D01*
G01X3767840Y58350D02*
X3750930Y121850D01*
X3734010Y58350D01*
G01X3740100Y80570D02*
X3761750D01*
G01X3695150Y121850D02*
Y58350D01*
G01X3710700Y121850D02*
X3679590D01*
G01X3646810Y79520D02*
X3630570D01*
G01X3639370Y93280D02*
Y65760D01*
G01X3552690Y2580100D02*
Y2643600D01*
X3535110Y2590680D01*
X3517520Y2643600D01*
Y2580100D01*
G01X3479330D02*
X3484740Y2581160D01*
X3489470Y2585390D01*
X3493530Y2591740D01*
X3496240Y2599150D01*
X3497590Y2607620D01*
Y2616080D01*
X3496240Y2624550D01*
X3493530Y2631960D01*
X3489470Y2638310D01*
X3484740Y2642540D01*
X3479330Y2643600D01*
X3473910Y2642540D01*
X3469180Y2638310D01*
X3465120Y2631960D01*
X3462410Y2624550D01*
X3461060Y2616080D01*
Y2607620D01*
X3462410Y2599150D01*
X3465120Y2591740D01*
X3469180Y2585390D01*
X3473910Y2581160D01*
X3479330Y2580100D01*
G01X3438430D02*
Y2643600D01*
X3424900D01*
X3419490Y2640420D01*
X3415430Y2636190D01*
X3412040Y2629840D01*
X3409340Y2622430D01*
X3408660Y2611850D01*
X3409340Y2601270D01*
X3412040Y2593860D01*
X3415430Y2587510D01*
X3419490Y2583270D01*
X3424900Y2580100D01*
X3438430D01*
G01X3354230D02*
X3381300D01*
Y2643600D01*
X3354230D01*
G01X3365060Y2612910D02*
X3381300D01*
G01X3325520Y2643600D02*
Y2580100D01*
X3298450D01*
G01X3256210Y2577980D02*
X3257560Y2579040D01*
Y2581160D01*
X3256210Y2582220D01*
X3254850Y2581160D01*
Y2579040D01*
X3256210Y2577980D01*
G01Y2606560D02*
X3257560Y2607620D01*
Y2609730D01*
X3256210Y2610790D01*
X3254850Y2609730D01*
Y2607620D01*
X3256210Y2606560D01*
G01X3129760Y2638310D02*
X3133820Y2641480D01*
X3138560Y2643600D01*
X3143970D01*
X3150060Y2640420D01*
X3154790Y2635130D01*
X3158180Y2628780D01*
X3160880Y2618200D01*
X3161560Y2608670D01*
X3160200Y2599150D01*
X3158180Y2592800D01*
X3154120Y2586450D01*
X3149380Y2582220D01*
X3144650Y2580100D01*
X3139910D01*
X3135170Y2582220D01*
X3131110Y2585390D01*
X3127730Y2589620D01*
G01X3073980Y2638310D02*
X3078040Y2641480D01*
X3082780Y2643600D01*
X3088190D01*
X3094280Y2640420D01*
X3099010Y2635130D01*
X3102400Y2628780D01*
X3105100Y2618200D01*
X3105780Y2608670D01*
X3104420Y2599150D01*
X3102400Y2592800D01*
X3098340Y2586450D01*
X3093600Y2582220D01*
X3088870Y2580100D01*
X3084130D01*
X3079390Y2582220D01*
X3075330Y2585390D01*
X3071950Y2589620D01*
G01X3045940Y2633020D02*
X3041880Y2639370D01*
X3037140Y2642540D01*
X3031730Y2643600D01*
X3024970Y2641480D01*
X3020230Y2636190D01*
X3018880Y2629840D01*
X3019550Y2623490D01*
X3022260Y2618200D01*
X3035790Y2607620D01*
X3041880Y2600210D01*
X3045940Y2589620D01*
X3047290Y2580100D01*
X3018880D01*
G01X2990160Y2606560D02*
X2985420Y2613970D01*
X2981360Y2618200D01*
X2975950Y2620320D01*
X2971220Y2618200D01*
X2967830Y2613970D01*
X2965130Y2607620D01*
X2964450Y2600210D01*
X2965130Y2593860D01*
X2967830Y2587510D01*
X2971890Y2582220D01*
X2976630Y2580100D01*
X2982040Y2582220D01*
X2986780Y2588560D01*
X2989480Y2598090D01*
X2990160Y2608670D01*
X2988810Y2622430D01*
X2986780Y2629840D01*
X2983390Y2637250D01*
X2978660Y2642540D01*
X2973920Y2643600D01*
X2969190Y2641480D01*
X2965800Y2636190D01*
G01X2936410Y2589620D02*
X2932350Y2584330D01*
X2927610Y2581160D01*
X2921530Y2580100D01*
X2915440Y2582220D01*
X2910700Y2586450D01*
X2907320Y2593860D01*
X2906640Y2602320D01*
X2907990Y2610790D01*
X2911380Y2616080D01*
X2916110Y2620320D01*
X2920850Y2621370D01*
X2925580Y2620320D01*
X2931670Y2616080D01*
X2929640Y2643600D01*
X2911380D01*
G01X2865750D02*
X2871160Y2641480D01*
X2875220Y2636190D01*
X2877920Y2629840D01*
X2879950Y2621370D01*
X2880630Y2611850D01*
X2879950Y2602320D01*
X2877920Y2593860D01*
X2875220Y2587510D01*
X2871160Y2582220D01*
X2865750Y2580100D01*
X2860330Y2582220D01*
X2856270Y2587510D01*
X2853570Y2593860D01*
X2851540Y2602320D01*
X2850860Y2611850D01*
X2851540Y2621370D01*
X2853570Y2629840D01*
X2856270Y2636190D01*
X2860330Y2641480D01*
X2865750Y2643600D01*
G01X2824170Y2588560D02*
X2818760Y2583270D01*
X2812670Y2580100D01*
X2807260D01*
X2801850Y2583270D01*
X2797790Y2588560D01*
X2795760Y2595980D01*
X2797110Y2603380D01*
X2800490Y2609730D01*
X2806580Y2613970D01*
X2814700Y2616080D01*
X2819440Y2620320D01*
X2821470Y2627720D01*
X2820110Y2635130D01*
X2816730Y2640420D01*
X2811990Y2643600D01*
X2807260D01*
X2802520Y2641480D01*
X2798460Y2636190D01*
G01X2764330Y2608670D02*
X2742680D01*
X2744710Y2616080D01*
X2748100Y2620320D01*
X2752830Y2622430D01*
X2757570Y2621370D01*
X2761630Y2618200D01*
X2764330Y2610790D01*
X2765690Y2604440D01*
Y2598090D01*
X2764330Y2591740D01*
X2760950Y2585390D01*
X2756890Y2581160D01*
X2752160Y2580100D01*
X2747420Y2582220D01*
X2742680Y2588560D01*
G01X2709910Y2580100D02*
Y2622430D01*
G01Y2611850D02*
X2707200Y2617140D01*
X2703140Y2621370D01*
X2697730Y2622430D01*
X2692990Y2621370D01*
X2688930Y2617140D01*
X2686900Y2609730D01*
Y2580100D01*
G01X2652770Y2587510D02*
X2649390Y2583270D01*
X2644650Y2580100D01*
X2640600D01*
X2636540Y2582220D01*
X2633830Y2585390D01*
X2632480Y2589620D01*
X2633150Y2595980D01*
X2635860Y2599150D01*
X2648040Y2605500D01*
X2650740Y2612910D01*
X2649390Y2618200D01*
X2646680Y2621370D01*
X2642630Y2622430D01*
X2638570Y2621370D01*
X2634510Y2618200D01*
G01X2586850Y2580100D02*
X2590900Y2581160D01*
X2594960Y2585390D01*
X2597670Y2592800D01*
X2599020Y2601270D01*
X2597670Y2609730D01*
X2594960Y2617140D01*
X2590900Y2621370D01*
X2586850Y2622430D01*
X2582790Y2621370D01*
X2578730Y2617140D01*
X2576020Y2609730D01*
X2575340Y2601270D01*
X2576020Y2592800D01*
X2578730Y2585390D01*
X2582790Y2581160D01*
X2586850Y2580100D01*
G01X2540540D02*
Y2622430D01*
G01Y2613970D02*
X2537150Y2618200D01*
X2533770Y2621370D01*
X2529040Y2622430D01*
X2525650Y2621370D01*
X2521590Y2618200D01*
G01X2475290Y2643600D02*
Y2580100D01*
G01X2490840Y2643600D02*
X2459730D01*
G01X2407330Y2580100D02*
Y2622430D01*
G01Y2615030D02*
X2410030Y2619260D01*
X2414090Y2621370D01*
X2418830Y2622430D01*
X2423560Y2620320D01*
X2427620Y2616080D01*
X2430330Y2609730D01*
X2431680Y2601270D01*
X2430330Y2592800D01*
X2427620Y2586450D01*
X2423560Y2582220D01*
X2418830Y2580100D01*
X2414090Y2581160D01*
X2410030Y2584330D01*
X2407330Y2588560D01*
G01X2373200Y2564220D02*
X2368460Y2559990D01*
X2363050Y2558930D01*
X2358310Y2559990D01*
X2354250Y2565280D01*
X2351550Y2572690D01*
Y2622430D01*
G01Y2613970D02*
X2354250Y2618200D01*
X2358310Y2621370D01*
X2363050Y2622430D01*
X2368460Y2620320D01*
X2371840Y2616080D01*
X2374550Y2608670D01*
X2375900Y2601270D01*
X2375230Y2594920D01*
X2372520Y2587510D01*
X2368460Y2582220D01*
X2363050Y2580100D01*
X2358990Y2581160D01*
X2354250Y2585390D01*
X2351550Y2589620D01*
G01X3552640Y2475900D02*
Y2539400D01*
X3535720D01*
X3530310Y2536220D01*
X3526930Y2531990D01*
X3525570Y2523520D01*
X3526930Y2515060D01*
X3530990Y2509770D01*
X3535720Y2506590D01*
X3552640D01*
G01X3535720D02*
X3525570Y2475900D01*
G01X3469790D02*
X3496860D01*
Y2539400D01*
X3469790D01*
G01X3480620Y2508710D02*
X3496860D01*
G01X3444460Y2539400D02*
X3427550Y2475900D01*
X3410630Y2539400D01*
G01X3371770Y2473780D02*
X3373120Y2474840D01*
Y2476960D01*
X3371770Y2478020D01*
X3370410Y2476960D01*
Y2474840D01*
X3371770Y2473780D01*
G01Y2502360D02*
X3373120Y2503420D01*
Y2505530D01*
X3371770Y2506590D01*
X3370410Y2505530D01*
Y2503420D01*
X3371770Y2502360D01*
G01X3260210Y2475900D02*
Y2539400D01*
X3268320Y2526700D01*
G01Y2475900D02*
X3252090D01*
G01X3204430Y2473780D02*
X3205780Y2474840D01*
Y2476960D01*
X3204430Y2478020D01*
X3203070Y2476960D01*
Y2474840D01*
X3204430Y2473780D01*
G01X3163530Y2488600D02*
X3159470Y2481190D01*
X3154060Y2476960D01*
X3147970Y2475900D01*
X3142560Y2476960D01*
X3137140Y2482250D01*
X3133760Y2488600D01*
X3133090Y2494950D01*
X3134440Y2502360D01*
X3139170Y2507650D01*
X3143910Y2509770D01*
X3150000D01*
G01X3143910D02*
X3139850Y2512940D01*
X3136470Y2518230D01*
X3135110Y2524580D01*
X3136470Y2530930D01*
X3139850Y2536220D01*
X3145940Y2539400D01*
X3152030Y2538340D01*
X3158120Y2534110D01*
G54D12*
G01X3619970Y2891660D02*
X3619470Y2894340D01*
G01X3618970D02*
X3619470Y2891660D01*
G01X3620220Y2892660D02*
X3618720D01*
G01Y2893330D02*
X3620220D01*
G01X3618170Y2892330D02*
Y2894340D01*
X3617550D01*
X3617350Y2894240D01*
X3617220Y2894110D01*
X3617170Y2893840D01*
X3617220Y2893570D01*
X3617370Y2893400D01*
X3617550Y2893300D01*
X3618170D01*
G01X3617550D02*
X3617170Y2892330D01*
G01X3615370D02*
X3616370D01*
Y2894340D01*
X3615370D01*
G01X3615770Y2893370D02*
X3616370D01*
G01X3614550Y2892330D02*
Y2894340D01*
X3613590D01*
G01X3613950Y2893370D02*
X3614550D01*
G01X3612820Y2892330D02*
Y2894340D01*
X3612320D01*
X3612120Y2894240D01*
X3611970Y2894110D01*
X3611840Y2893900D01*
X3611740Y2893670D01*
X3611720Y2893330D01*
X3611740Y2893000D01*
X3611840Y2892770D01*
X3611970Y2892560D01*
X3612120Y2892430D01*
X3612320Y2892330D01*
X3612820D01*
G01X3609970D02*
X3610970D01*
Y2894340D01*
X3609970D01*
G01X3610370Y2893370D02*
X3610970D01*
G01X3609200Y2892600D02*
X3608990Y2892430D01*
X3608770Y2892330D01*
X3608570D01*
X3608370Y2892430D01*
X3608220Y2892600D01*
X3608140Y2892830D01*
X3608190Y2893070D01*
X3608320Y2893270D01*
X3608550Y2893400D01*
X3608840Y2893470D01*
X3609020Y2893600D01*
X3609100Y2893840D01*
X3609040Y2894070D01*
X3608920Y2894240D01*
X3608750Y2894340D01*
X3608570D01*
X3608390Y2894270D01*
X3608240Y2894110D01*
M02*
