G04 ================== begin FILE IDENTIFICATION RECORD ==================*
G04 Layout Name:  CC2650_SensorTag.brd*
G04 Film Name:    silk_top_CC2650SensorTag*
G04 File Format:  Gerber RS274X*
G04 File Origin:  Cadence Allegro 16.6-S026*
G04 Origin Date:  Wed Apr 15 15:57:56 2015*
G04 *
G04 Layer:  BOARD GEOMETRY/SILKSCREEN_TOP*
G04 Layer:  DEVICE TYPE/SILKSCREEN_TOP*
G04 Layer:  REF DES/SILKSCREEN_TOP*
G04 Layer:  PACKAGE GEOMETRY/SILKSCREEN_TOP*
G04 Layer:  MANUFACTURING/AUTOSILK_TOP*
G04 Layer:  BOARD GEOMETRY/OUTLINE*
G04 *
G04 Offset:    (0.0000 0.0000)*
G04 Mirror:    No*
G04 Mode:      Positive*
G04 Rotation:  0*
G04 FullContactRelief:  No*
G04 UndefLineWidth:     0.1000*
G04 ================== end FILE IDENTIFICATION RECORD ====================*
%FSLAX25Y25*MOMM*%
%IR0*IPPOS*OFA0.00000B0.00000*MIA0B0*SFA1.00000B1.00000*%
%ADD10C,.1*%
%ADD11C,.1001*%
%ADD12C,.15*%
%ADD13C,.05*%
G75*
%LPD*%
G75*
G36*
G01X131220Y113540D02*
G03I-56740J0D01*
G37*
G36*
G01X1845700Y2502450D02*
X1860700D01*
Y2542450D01*
X1925700D01*
Y2567450D01*
X1845700D01*
X1765700D01*
Y2542450D01*
X1830700D01*
Y2502450D01*
X1845700D01*
G37*
G36*
G01X1835700Y2617450D02*
X1855700Y2622800D01*
Y2643510D01*
Y2687450D01*
X1720140Y2651120D01*
G02X1963510Y2672400I125560J-33674D01*
G01X1856700Y2643780D01*
Y2623070D01*
X1989900Y2658760D01*
G03X1985020Y2561860I-144201J-41311D01*
G01X1963220D01*
G02X1716250Y2629370I-117519J55581D01*
G01X1835700Y2661380D01*
Y2617450D01*
G37*
G36*
G01X1845700Y2607450D02*
X1925700D01*
Y2582450D01*
X1845700D01*
X1765700D01*
Y2607450D01*
X1845700D01*
G37*
G54D10*
G01X147730Y605840D02*
X127730D01*
Y255840D01*
X147730Y235840D01*
G01X196730Y1065840D02*
Y825840D01*
X516730D01*
X641730Y950840D01*
Y1065840D01*
G01Y1730840D02*
Y1845840D01*
X516730Y1970840D01*
X196730D01*
Y1730840D01*
G01X186730Y2240840D02*
G02X341730Y2085840I4769J-150231D01*
G02X186730Y2240840I-155000J0D01*
G01X106730Y2535840D02*
X-13270D01*
Y2765840D01*
X106730D01*
G01X1641730Y185840D02*
X991730D01*
Y705840D01*
G01X3131730Y715840D02*
Y185840D01*
X1641730D01*
G01X772730Y605840D02*
X797730D01*
Y235840D01*
X772730D01*
G01X3131730Y1275840D02*
Y1505840D01*
X2866730Y1770840D01*
X1556730D01*
G01X991730Y1275840D02*
Y1770840D01*
X1556730D01*
G01X1400730Y2256840D02*
X1415730D01*
G01X1400730Y2336840D02*
X1415730D01*
G01X1409730Y2067840D02*
Y2147840D01*
G01X1249730Y2052840D02*
Y1947840D01*
X1394730D01*
X1404730Y1957840D01*
G01X1249730Y2162840D02*
Y2267840D01*
X1409730D01*
Y2257840D01*
G01X666730Y2035840D02*
Y2210840D01*
X681730Y2225840D01*
G01X1016730Y2395840D02*
X846730D01*
G01Y1865840D02*
X1196730D01*
Y2225840D01*
G01X1031730Y1825840D02*
Y1805840D01*
G01X1101730Y1825840D02*
Y1810840D01*
G01X281730Y2410840D02*
X356730D01*
X366730Y2420840D01*
G01Y2880840D02*
Y2890840D01*
X281730D01*
G01X3422200Y512200D02*
X3402200Y512210D01*
G01X3422200Y440200D02*
X3402200Y440190D01*
G01X3705300Y189400D02*
X3685300D01*
G01X3705300Y89400D02*
X3685300D01*
G01X3115730Y499840D02*
Y299840D01*
G02X2865730Y304840I-124621J21453D01*
G01Y494840D01*
G02X3115730Y499840I125379J-16453D01*
G01X3496000Y1209500D02*
Y909500D01*
X3881000D01*
Y1189500D01*
X3861000Y1209500D01*
X3496000D01*
G01X2707730Y1957840D02*
X2727730D01*
G01X2707730Y2029840D02*
X2727730D01*
G01X2911400Y2012900D02*
X2891400D01*
G01X2911400Y1942900D02*
X2896400D01*
G01X2579730Y2083840D02*
Y2063840D01*
G01X2649730Y2083840D02*
Y2068840D01*
G01X2982730Y2133840D02*
Y2113840D01*
G01X3052730Y2133840D02*
Y2118840D01*
G01X2645200Y2193700D02*
Y2243700D01*
X2975200D01*
Y2028700D01*
X2960200Y2013700D01*
X2645200D01*
Y2193700D01*
G01X2135400Y2472220D02*
X2128070D01*
X2128020Y2472270D01*
X2050590D01*
X2050670Y2472350D01*
Y2587740D01*
X2129810D01*
X2129860Y2587690D01*
X2135160D01*
X2135400Y2587450D01*
Y2472220D01*
G01X3991730Y750840D02*
G02X4146730Y595840I4769J-150231D01*
G02X3991730Y750840I-155000J0D01*
G01X4095730Y349840D02*
Y149840D01*
G02X3845730Y154840I-124621J21453D01*
G01Y344840D01*
G02X4095730Y349840I125379J-16453D01*
G01X3991730Y1285840D02*
X3951730D01*
Y1815840D01*
X3991730D01*
G01X4161730D02*
X4201730D01*
Y1320840D01*
X4166730Y1285840D01*
X4161730D01*
G01X3976730Y1739840D02*
Y1754840D01*
G01X3896730Y1739840D02*
Y1754840D01*
G01X3843700Y829300D02*
X3863700D01*
G01X3843700Y901300D02*
X3863700D01*
G01X3986730Y2240840D02*
G02X4141730Y2085840I4769J-150231D01*
G02X3986730Y2240840I-155000J0D01*
G01X4046200Y1170000D02*
X4066200D01*
G01X4046200Y1240000D02*
X4061200D01*
G01X3873600Y1186900D02*
Y1166900D01*
G01X3943600Y1186900D02*
Y1171900D01*
G01X3831730Y2420840D02*
Y2410840D01*
X3916730D01*
G01Y2890840D02*
X3841730D01*
X3831730Y2880840D01*
G01X4091730Y2765840D02*
X4211730D01*
Y2535840D01*
X4091730D01*
G01X0Y0D02*
X1100000D01*
G02X3100000I1000000J-1542012D01*
G01X4200000D01*
Y3200000D01*
X3935000D01*
Y3100000D01*
X3825000D01*
Y3200000D01*
X375000D01*
Y3100000D01*
X265000D01*
X264990Y3200000D01*
X0D01*
Y0D01*
G01X10000Y-150D02*
X11000D01*
G01X10000D02*
X11000D01*
G01X0Y0D02*
X206160D01*
G01X0D02*
Y165510D01*
G01X10000Y-150D02*
X11000D01*
G01X10000D02*
X11000D01*
G01X3192040Y588030D02*
Y233040D01*
G03X3212030Y213050I19990J0D01*
G01X3352030D01*
G03X3372020Y233040I0J19990D01*
G01Y258030D01*
G03X3352030Y278050I-20000J20D01*
G01X3277030D01*
G02X3257040Y298040I3J19993D01*
G01Y588030D01*
G03X3237020Y608050I-20007J13D01*
G01X3212030D01*
G03X3192040Y588030I10J-20000D01*
G01X3638380Y588080D02*
Y233070D01*
G02X3618390Y213080I-19997J7D01*
G01X3478390D01*
G02X3458400Y233070I0J19990D01*
G01Y258090D01*
G02X3478390Y278080I19990J0D01*
G01X3553400D01*
G03X3573390Y298090I-10J20000D01*
G01Y588080D01*
G02X3593400Y608070I19997J-7D01*
G01X3618390D01*
G02X3638380Y588080I-3J-19993D01*
G01X3116730Y1540840D02*
X3526730D01*
Y1600840D01*
X3176730D01*
Y1950840D01*
X3526730D01*
Y2010840D01*
X3116730D01*
Y1540840D01*
G01X3241780Y2550310D02*
Y2677310D01*
X3280380D01*
X3293240Y2670960D01*
X3302890Y2656140D01*
X3306110Y2639210D01*
X3302890Y2622280D01*
X3294850Y2609580D01*
X3280380Y2603220D01*
X3241780D01*
G01X3374480Y2550310D02*
Y2677310D01*
G01Y2613810D02*
X3382520Y2626510D01*
X3392170Y2632860D01*
X3401820Y2634970D01*
X3416290Y2630740D01*
X3425940Y2622280D01*
X3432370Y2607460D01*
Y2590530D01*
X3429150Y2573590D01*
X3422720Y2560890D01*
X3411470Y2552430D01*
X3401820Y2550310D01*
X3392170Y2552430D01*
X3382520Y2558770D01*
X3374480Y2569360D01*
G54D11*
G01X117030Y192060D02*
Y270750D01*
X105360Y255010D01*
G01Y192060D02*
X128710D01*
G01X679990Y791800D02*
Y870490D01*
X668320Y854750D01*
G01Y791800D02*
X691670D01*
G01X758670Y870490D02*
X750890Y867870D01*
X745050Y861310D01*
X741160Y853440D01*
X738240Y842950D01*
X737270Y831140D01*
X738240Y819340D01*
X741160Y808850D01*
X745050Y800980D01*
X750890Y794420D01*
X758670Y791800D01*
X766460Y794420D01*
X772300Y800980D01*
X776190Y808850D01*
X779110Y819340D01*
X780080Y831140D01*
X779110Y842950D01*
X776190Y853440D01*
X772300Y861310D01*
X766460Y867870D01*
X758670Y870490D01*
G01X3024580Y123980D02*
X3027280Y127150D01*
X3029310Y132440D01*
X3030670Y139850D01*
X3029310Y146200D01*
X3026610Y150430D01*
X3021870Y153610D01*
X3003610D01*
Y90110D01*
X3025930D01*
X3030670Y94340D01*
X3033370Y100690D01*
X3034720Y108100D01*
X3033370Y115510D01*
X3029310Y121860D01*
X3024580Y123980D01*
X3003610D01*
G01X3058030Y90110D02*
X3074940Y153610D01*
X3091860Y90110D01*
G01X3085770Y112330D02*
X3064120D01*
G01X3130720Y153610D02*
Y90110D01*
G01X3115170Y153610D02*
X3146280D01*
G01X3177710Y111280D02*
X3195300D01*
G01X3659980Y96450D02*
X3662680Y99620D01*
X3664710Y104910D01*
X3666070Y112320D01*
X3664710Y118670D01*
X3662010Y122900D01*
X3657270Y126080D01*
X3639010D01*
Y62580D01*
X3661330D01*
X3666070Y66810D01*
X3668770Y73160D01*
X3670120Y80570D01*
X3668770Y87980D01*
X3664710Y94330D01*
X3659980Y96450D01*
X3639010D01*
G01X3693430Y62580D02*
X3710340Y126080D01*
X3727260Y62580D01*
G01X3721170Y84800D02*
X3699520D01*
G01X3766120Y126080D02*
Y62580D01*
G01X3750570Y126080D02*
X3781680D01*
G01X3814460Y83750D02*
X3830700D01*
G01X3821900Y97510D02*
Y69990D01*
G01X2074980Y2490110D02*
Y2568800D01*
X2099310D01*
X2107100Y2564860D01*
X2111960Y2559620D01*
X2113910Y2549130D01*
X2111960Y2538630D01*
X2106120Y2532080D01*
X2099310Y2528140D01*
X2074980D01*
G01X2099310D02*
X2113910Y2490110D01*
G01X2173120Y2568800D02*
X2165340Y2566180D01*
X2159500Y2559620D01*
X2155610Y2551750D01*
X2152690Y2541260D01*
X2151720Y2529450D01*
X2152690Y2517650D01*
X2155610Y2507160D01*
X2159500Y2499290D01*
X2165340Y2492730D01*
X2173120Y2490110D01*
X2180910Y2492730D01*
X2186750Y2499290D01*
X2190640Y2507160D01*
X2193560Y2517650D01*
X2194530Y2529450D01*
X2193560Y2541260D01*
X2190640Y2551750D01*
X2186750Y2559620D01*
X2180910Y2566180D01*
X2173120Y2568800D01*
G01X2251800D02*
X2244020Y2566180D01*
X2238180Y2559620D01*
X2234290Y2551750D01*
X2231370Y2541260D01*
X2230400Y2529450D01*
X2231370Y2517650D01*
X2234290Y2507160D01*
X2238180Y2499290D01*
X2244020Y2492730D01*
X2251800Y2490110D01*
X2259590Y2492730D01*
X2265430Y2499290D01*
X2269320Y2507160D01*
X2272240Y2517650D01*
X2273210Y2529450D01*
X2272240Y2541260D01*
X2269320Y2551750D01*
X2265430Y2559620D01*
X2259590Y2566180D01*
X2251800Y2568800D01*
G01X2328540Y2490110D02*
X2330480Y2507160D01*
X2333400Y2521580D01*
X2337300Y2534700D01*
X2342160Y2549130D01*
X2349950Y2568800D01*
X2311020D01*
G01X2396510Y2516340D02*
X2421820D01*
G01X2463510Y2490110D02*
X2487840Y2568800D01*
X2512180Y2490110D01*
G01X2503420Y2517650D02*
X2472270D01*
G01X2545120Y2490110D02*
Y2568800D01*
X2564580D01*
X2572360Y2564860D01*
X2578200Y2559620D01*
X2583070Y2551750D01*
X2586960Y2542570D01*
X2587930Y2529450D01*
X2586960Y2516340D01*
X2583070Y2507160D01*
X2578200Y2499290D01*
X2572360Y2494040D01*
X2564580Y2490110D01*
X2545120D01*
G01X2645200Y2568800D02*
X2637420Y2566180D01*
X2631580Y2559620D01*
X2627690Y2551750D01*
X2624770Y2541260D01*
X2623800Y2529450D01*
X2624770Y2517650D01*
X2627690Y2507160D01*
X2631580Y2499290D01*
X2637420Y2492730D01*
X2645200Y2490110D01*
X2652990Y2492730D01*
X2658830Y2499290D01*
X2662720Y2507160D01*
X2665640Y2517650D01*
X2666610Y2529450D01*
X2665640Y2541260D01*
X2662720Y2551750D01*
X2658830Y2559620D01*
X2652990Y2566180D01*
X2645200Y2568800D01*
G01X2723880D02*
X2716100Y2566180D01*
X2710260Y2559620D01*
X2706370Y2551750D01*
X2703450Y2541260D01*
X2702480Y2529450D01*
X2703450Y2517650D01*
X2706370Y2507160D01*
X2710260Y2499290D01*
X2716100Y2492730D01*
X2723880Y2490110D01*
X2731670Y2492730D01*
X2737510Y2499290D01*
X2741400Y2507160D01*
X2744320Y2517650D01*
X2745290Y2529450D01*
X2744320Y2541260D01*
X2741400Y2551750D01*
X2737510Y2559620D01*
X2731670Y2566180D01*
X2723880Y2568800D01*
G01X2781160Y2501910D02*
X2786990Y2495350D01*
X2793810Y2491420D01*
X2802560Y2490110D01*
X2811320Y2492730D01*
X2818140Y2497980D01*
X2823000Y2507160D01*
X2823970Y2517650D01*
X2822030Y2528140D01*
X2817160Y2534700D01*
X2810350Y2539950D01*
X2803540Y2541260D01*
X2796730Y2539950D01*
X2787970Y2534700D01*
X2790890Y2568800D01*
X2817160D01*
G01X2881240Y2490110D02*
Y2568800D01*
X2869570Y2553060D01*
G01Y2490110D02*
X2892920D01*
G54D12*
G01X3435570Y2512130D02*
X3225180Y2722520D01*
G01X3479040Y2617370D02*
G03I-148670J0D01*
G54D13*
G01X2992200Y2012030D02*
X3019430D01*
X3025130Y2013700D01*
X3028930Y2017030D01*
X3030200Y2021200D01*
X3028930Y2025370D01*
X3025130Y2028700D01*
X3019430Y2030370D01*
X2992200D01*
G01X3030200Y2051200D02*
X2992200D01*
X2999800Y2046200D01*
G01X3030200D02*
Y2056200D01*
G01X2992200Y2081200D02*
X2993470Y2077870D01*
X2996630Y2075370D01*
X3000430Y2073700D01*
X3005500Y2072450D01*
X3011200Y2072030D01*
X3016900Y2072450D01*
X3021970Y2073700D01*
X3025770Y2075370D01*
X3028930Y2077870D01*
X3030200Y2081200D01*
X3028930Y2084530D01*
X3025770Y2087030D01*
X3021970Y2088700D01*
X3016900Y2089950D01*
X3011200Y2090370D01*
X3005500Y2089950D01*
X3000430Y2088700D01*
X2996630Y2087030D01*
X2993470Y2084530D01*
X2992200Y2081200D01*
M02*
