G04 ================== begin FILE IDENTIFICATION RECORD ==================*
G04 Layout Name:  CC2650_SensorTag.brd*
G04 Film Name:    soldmask_top_CC2650SensorTag*
G04 File Format:  Gerber RS274X*
G04 File Origin:  Cadence Allegro 16.6-S026*
G04 Origin Date:  Wed Apr 15 15:57:56 2015*
G04 *
G04 Layer:  VIA CLASS/SOLDERMASK_TOP*
G04 Layer:  PIN/SOLDERMASK_TOP*
G04 Layer:  BOARD GEOMETRY/OUTLINE*
G04 *
G04 Offset:    (0.0000 0.0000)*
G04 Mirror:    No*
G04 Mode:      Positive*
G04 Rotation:  0*
G04 FullContactRelief:  No*
G04 UndefLineWidth:     0.1000*
G04 ================== end FILE IDENTIFICATION RECORD ====================*
%FSLAX25Y25*MOMM*%
%IR0*IPPOS*OFA0.00000B0.00000*MIA0B0*SFA1.00000B1.00000*%
%AMMACRO30*
4,1,40,.23,.105,
.23,-.105,
.228405,-.123233,
.223668,-.140912,
.215933,-.1575,
.205435,-.172493,
.192493,-.185435,
.1775,-.195933,
.160912,-.203668,
.143233,-.208405,
.125,-.21,
-.125,-.21,
-.143233,-.208405,
-.160912,-.203668,
-.1775,-.195933,
-.192493,-.185435,
-.205435,-.172493,
-.215933,-.1575,
-.223668,-.140912,
-.228405,-.123233,
-.23,-.105,
-.23,.105,
-.228405,.123233,
-.223668,.140912,
-.215933,.1575,
-.205435,.172493,
-.192493,.185435,
-.1775,.195933,
-.160912,.203668,
-.143233,.208405,
-.125,.21,
.125,.21,
.143233,.208405,
.160912,.203668,
.1775,.195933,
.192493,.185435,
.205435,.172493,
.215933,.1575,
.223668,.140912,
.228405,.123233,
.23,.105,
0.0*
%
%ADD30MACRO30*%
%AMMACRO14*
4,1,45,0.0,.625,
-.2312,.625,
-.264845,.622065,
-.297469,.613333,
-.328082,.599067,
-.355752,.579703,
-.379639,.555828,
-.399017,.528168,
-.413298,.497563,
-.422048,.464944,
-.425,.4313,
-.425,.4312,
-.425,-.4312,
-.422065,-.464845,
-.413333,-.497469,
-.399067,-.528082,
-.379703,-.555752,
-.355828,-.579639,
-.328168,-.599017,
-.297563,-.613298,
-.264944,-.622048,
-.2313,-.625,
-.2312,-.625,
.2312,-.625,
.264845,-.622065,
.297469,-.613333,
.328082,-.599067,
.355752,-.579703,
.379639,-.555828,
.399017,-.528168,
.413298,-.497563,
.422048,-.464944,
.425,-.4313,
.425,-.4312,
.425,.4312,
.422065,.464845,
.413333,.497469,
.399067,.528082,
.379703,.555752,
.355828,.579639,
.328168,.599017,
.297563,.613298,
.264944,.622048,
.2313,.625,
.2312,.625,
0.0,.625,
0.0*
%
%ADD14MACRO14*%
%AMMACRO37*
4,1,41,-.675,0.0,
-.675,-.2125,
-.671772,-.2494,
-.662185,-.285179,
-.64653,-.31875,
-.625284,-.349092,
-.599092,-.375284,
-.56875,-.39653,
-.535179,-.412185,
-.4994,-.421772,
-.4625,-.425,
.4625,-.425,
.4994,-.421772,
.535179,-.412185,
.56875,-.39653,
.599092,-.375284,
.625284,-.349092,
.64653,-.31875,
.662185,-.285179,
.671772,-.2494,
.675,-.2125,
.675,.2125,
.671772,.2494,
.662185,.285179,
.64653,.31875,
.625284,.349092,
.599092,.375284,
.56875,.39653,
.535179,.412185,
.4994,.421772,
.4625,.425,
-.4625,.425,
-.4994,.421772,
-.535179,.412185,
-.56875,.39653,
-.599092,.375284,
-.625284,.349092,
-.64653,.31875,
-.662185,.285179,
-.671772,.2494,
-.675,.2125,
-.675,0.0,
0.0*
%
%ADD37MACRO37*%
%AMMACRO21*
4,1,40,.105,-.23,
-.105,-.23,
-.123233,-.228405,
-.140912,-.223668,
-.1575,-.215933,
-.172493,-.205435,
-.185435,-.192493,
-.195933,-.1775,
-.203668,-.160912,
-.208405,-.143233,
-.21,-.125,
-.21,.125,
-.208405,.143233,
-.203668,.160912,
-.195933,.1775,
-.185435,.192493,
-.172493,.205435,
-.1575,.215933,
-.140912,.223668,
-.123233,.228405,
-.105,.23,
.105,.23,
.123233,.228405,
.140912,.223668,
.1575,.215933,
.172493,.205435,
.185435,.192493,
.195933,.1775,
.203668,.160912,
.208405,.143233,
.21,.125,
.21,-.125,
.208405,-.143233,
.203668,-.160912,
.195933,-.1775,
.185435,-.192493,
.172493,-.205435,
.1575,-.215933,
.140912,-.223668,
.123233,-.228405,
.105,-.23,
0.0*
%
%ADD21MACRO21*%
%AMMACRO18*
4,1,40,.28,.13,
.28,-.13,
.278025,-.152574,
.27216,-.174463,
.262583,-.195,
.249586,-.213562,
.233562,-.229586,
.215,-.242583,
.194463,-.25216,
.172574,-.258025,
.15,-.26,
-.15,-.26,
-.172574,-.258025,
-.194463,-.25216,
-.215,-.242583,
-.233562,-.229586,
-.249586,-.213562,
-.262583,-.195,
-.27216,-.174463,
-.278025,-.152574,
-.28,-.13,
-.28,.13,
-.278025,.152574,
-.27216,.174463,
-.262583,.195,
-.249586,.213562,
-.233562,.229586,
-.215,.242583,
-.194463,.25216,
-.172574,.258025,
-.15,.26,
.15,.26,
.172574,.258025,
.194463,.25216,
.215,.242583,
.233562,.229586,
.249586,.213562,
.262583,.195,
.27216,.174463,
.278025,.152574,
.28,.13,
0.0*
%
%ADD18MACRO18*%
%AMMACRO22*
4,1,45,0.0,.725,
-.2562,.725,
-.294186,.721685,
-.33102,.711825,
-.365582,.695718,
-.396821,.673854,
-.42379,.646898,
-.445668,.615668,
-.461791,.581114,
-.471668,.544285,
-.475,.5063,
-.475,.5062,
-.475,-.5062,
-.471685,-.544186,
-.461825,-.58102,
-.445718,-.615582,
-.423854,-.646821,
-.396898,-.67379,
-.365668,-.695668,
-.331114,-.711791,
-.294285,-.721668,
-.2563,-.725,
-.2562,-.725,
.2562,-.725,
.294186,-.721685,
.33102,-.711825,
.365582,-.695718,
.396821,-.673854,
.42379,-.646898,
.445668,-.615668,
.461791,-.581114,
.471668,-.544285,
.475,-.5063,
.475,-.5062,
.475,.5062,
.471685,.544186,
.461825,.58102,
.445718,.615582,
.423854,.646821,
.396898,.67379,
.365668,.695668,
.331114,.711791,
.294285,.721668,
.2563,.725,
.2562,.725,
0.0,.725,
0.0*
%
%ADD22MACRO22*%
%ADD19O,1.2X.75*%
%ADD27C,.7*%
%AMMACRO33*
4,1,45,0.0,.7493,
-.3251,.7493,
-.381511,.744411,
-.436216,.729801,
-.487552,.705914,
-.533961,.673475,
-.574032,.63347,
-.606547,.587114,
-.630519,.535816,
-.645219,.481136,
-.6502,.424733,
-.6502,.4242,
-.6502,-.4242,
-.645311,-.480611,
-.630701,-.535316,
-.606814,-.586652,
-.574375,-.633061,
-.53437,-.673132,
-.488014,-.705647,
-.436716,-.729619,
-.382036,-.744319,
-.325633,-.7493,
-.3251,-.7493,
.3251,-.7493,
.381511,-.744411,
.436216,-.729801,
.487552,-.705914,
.533961,-.673475,
.574032,-.63347,
.606547,-.587114,
.630519,-.535816,
.645219,-.481136,
.6502,-.424733,
.6502,-.4242,
.6502,.4242,
.645311,.480611,
.630701,.535316,
.606814,.586652,
.574375,.633061,
.53437,.673132,
.488014,.705647,
.436716,.729619,
.382036,.744319,
.325633,.7493,
.3251,.7493,
0.0,.7493,
0.0*
%
%ADD33MACRO33*%
%ADD31R,.3988X1.8009*%
%AMMACRO24*
4,1,40,-.23,-.105,
-.23,.105,
-.228405,.123233,
-.223668,.140912,
-.215933,.1575,
-.205435,.172493,
-.192493,.185435,
-.1775,.195933,
-.160912,.203668,
-.143233,.208405,
-.125,.21,
.125,.21,
.143233,.208405,
.160912,.203668,
.1775,.195933,
.192493,.185435,
.205435,.172493,
.215933,.1575,
.223668,.140912,
.228405,.123233,
.23,.105,
.23,-.105,
.228405,-.123233,
.223668,-.140912,
.215933,-.1575,
.205435,-.172493,
.192493,-.185435,
.1775,-.195933,
.160912,-.203668,
.143233,-.208405,
.125,-.21,
-.125,-.21,
-.143233,-.208405,
-.160912,-.203668,
-.1775,-.195933,
-.192493,-.185435,
-.205435,-.172493,
-.215933,-.1575,
-.223668,-.140912,
-.228405,-.123233,
-.23,-.105,
0.0*
%
%ADD24MACRO24*%
%AMMACRO20*
4,1,45,-1.0262,0.0,
-1.0262,-.5055,
-1.019175,-.587002,
-.998104,-.666045,
-.963628,-.740229,
-.916793,-.807299,
-.859024,-.865218,
-.792074,-.912224,
-.71798,-.946892,
-.63899,-.968166,
-.557507,-.9754,
-.5563,-.9754,
.5563,-.9754,
.637802,-.968375,
.716845,-.947304,
.791029,-.912828,
.858099,-.865993,
.916018,-.808224,
.963024,-.741274,
.997692,-.66718,
1.018966,-.58819,
1.0262,-.506707,
1.0262,-.5055,
1.0262,.5055,
1.019175,.587002,
.998104,.666045,
.963628,.740229,
.916793,.807299,
.859024,.865218,
.792074,.912224,
.71798,.946892,
.63899,.968166,
.557507,.9754,
.5563,.9754,
-.5563,.9754,
-.637802,.968375,
-.716845,.947304,
-.791029,.912828,
-.858099,.865993,
-.916018,.808224,
-.963024,.741274,
-.997692,.66718,
-1.018966,.58819,
-1.0262,.506707,
-1.0262,.5055,
-1.0262,0.0,
0.0*
%
%ADD20MACRO20*%
%AMMACRO34*
4,1,40,-.13,.28,
.13,.28,
.152574,.278025,
.174463,.27216,
.195,.262583,
.213562,.249586,
.229586,.233562,
.242583,.215,
.25216,.194463,
.258025,.172574,
.26,.15,
.26,-.15,
.258025,-.172574,
.25216,-.194463,
.242583,-.215,
.229586,-.233562,
.213562,-.249586,
.195,-.262583,
.174463,-.27216,
.152574,-.278025,
.13,-.28,
-.13,-.28,
-.152574,-.278025,
-.174463,-.27216,
-.195,-.262583,
-.213562,-.249586,
-.229586,-.233562,
-.242583,-.215,
-.25216,-.194463,
-.258025,-.172574,
-.26,-.15,
-.26,.15,
-.258025,.172574,
-.25216,.194463,
-.242583,.215,
-.229586,.233562,
-.213562,.249586,
-.195,.262583,
-.174463,.27216,
-.152574,.278025,
-.13,.28,
0.0*
%
%ADD34MACRO34*%
%AMMACRO17*
4,1,45,0.0,2.575,
-.6562,2.575,
-.763646,2.565608,
-.867828,2.537702,
-.965582,2.492128,
-1.053937,2.430272,
-1.130208,2.354013,
-1.192078,2.265668,
-1.237668,2.167922,
-1.265591,2.063744,
-1.275,1.9563,
-1.275,1.9562,
-1.275,-1.9562,
-1.265608,-2.063646,
-1.237702,-2.167828,
-1.192128,-2.265582,
-1.130272,-2.353937,
-1.054013,-2.430208,
-.965668,-2.492078,
-.867922,-2.537668,
-.763744,-2.565591,
-.6563,-2.575,
-.6562,-2.575,
.6562,-2.575,
.763646,-2.565608,
.867828,-2.537702,
.965582,-2.492128,
1.053937,-2.430272,
1.130208,-2.354013,
1.192078,-2.265668,
1.237668,-2.167922,
1.265591,-2.063744,
1.275,-1.9563,
1.275,-1.9562,
1.275,1.9562,
1.265608,2.063646,
1.237702,2.167828,
1.192128,2.265582,
1.130272,2.353937,
1.054013,2.430208,
.965668,2.492078,
.867922,2.537668,
.763744,2.565591,
.6563,2.575,
.6562,2.575,
0.0,2.575,
0.0*
%
%ADD17MACRO17*%
%AMMACRO10*
4,1,45,0.0,-1.2,
.2062,-1.2,
.235504,-1.197445,
.263919,-1.18984,
.290582,-1.177417,
.314682,-1.160552,
.335488,-1.139759,
.352367,-1.115668,
.364806,-1.089013,
.372428,-1.060602,
.375,-1.0313,
.375,-1.0312,
.375,1.0312,
.372445,1.060504,
.36484,1.088919,
.352417,1.115582,
.335552,1.139682,
.314759,1.160488,
.290668,1.177367,
.264013,1.189806,
.235602,1.197428,
.2063,1.2,
.2062,1.2,
-.2062,1.2,
-.235504,1.197445,
-.263919,1.18984,
-.290582,1.177417,
-.314682,1.160552,
-.335488,1.139759,
-.352367,1.115668,
-.364806,1.089013,
-.372428,1.060602,
-.375,1.0313,
-.375,1.0312,
-.375,-1.0312,
-.372445,-1.060504,
-.36484,-1.088919,
-.352417,-1.115582,
-.335552,-1.139682,
-.314759,-1.160488,
-.290668,-1.177367,
-.264013,-1.189806,
-.235602,-1.197428,
-.2063,-1.2,
-.2062,-1.2,
0.0,-1.2,
0.0*
%
%ADD10MACRO10*%
%AMMACRO35*
4,1,45,0.0,-.625,
.2312,-.625,
.264845,-.622065,
.297469,-.613333,
.328082,-.599067,
.355752,-.579703,
.379639,-.555828,
.399017,-.528168,
.413298,-.497563,
.422048,-.464944,
.425,-.4313,
.425,-.4312,
.425,.4312,
.422065,.464845,
.413333,.497469,
.399067,.528082,
.379703,.555752,
.355828,.579639,
.328168,.599017,
.297563,.613298,
.264944,.622048,
.2313,.625,
.2312,.625,
-.2312,.625,
-.264845,.622065,
-.297469,.613333,
-.328082,.599067,
-.355752,.579703,
-.379639,.555828,
-.399017,.528168,
-.413298,.497563,
-.422048,.464944,
-.425,.4313,
-.425,.4312,
-.425,-.4312,
-.422065,-.464845,
-.413333,-.497469,
-.399067,-.528082,
-.379703,-.555752,
-.355828,-.579639,
-.328168,-.599017,
-.297563,-.613298,
-.264944,-.622048,
-.2313,-.625,
-.2312,-.625,
0.0,-.625,
0.0*
%
%ADD35MACRO35*%
%AMMACRO23*
4,1,41,.675,0.0,
.675,.2125,
.671772,.2494,
.662185,.285179,
.64653,.31875,
.625284,.349092,
.599092,.375284,
.56875,.39653,
.535179,.412185,
.4994,.421772,
.4625,.425,
-.4625,.425,
-.4994,.421772,
-.535179,.412185,
-.56875,.39653,
-.599092,.375284,
-.625284,.349092,
-.64653,.31875,
-.662185,.285179,
-.671772,.2494,
-.675,.2125,
-.675,-.2125,
-.671772,-.2494,
-.662185,-.285179,
-.64653,-.31875,
-.625284,-.349092,
-.599092,-.375284,
-.56875,-.39653,
-.535179,-.412185,
-.4994,-.421772,
-.4625,-.425,
.4625,-.425,
.4994,-.421772,
.535179,-.412185,
.56875,-.39653,
.599092,-.375284,
.625284,-.349092,
.64653,-.31875,
.662185,-.285179,
.671772,-.2494,
.675,-.2125,
.675,0.0,
0.0*
%
%ADD23MACRO23*%
%ADD13C,1.*%
%AMMACRO25*
4,1,40,-.375,-.185,
-.375,.185,
-.372189,.217125,
-.363843,.248274,
-.350215,.2775,
-.331718,.303916,
-.308916,.326718,
-.2825,.345215,
-.253274,.358843,
-.222125,.367189,
-.19,.37,
.19,.37,
.222125,.367189,
.253274,.358843,
.2825,.345215,
.308916,.326718,
.331718,.303916,
.350215,.2775,
.363843,.248274,
.372189,.217125,
.375,.185,
.375,-.185,
.372189,-.217125,
.363843,-.248274,
.350215,-.2775,
.331718,-.303916,
.308916,-.326718,
.2825,-.345215,
.253274,-.358843,
.222125,-.367189,
.19,-.37,
-.19,-.37,
-.222125,-.367189,
-.253274,-.358843,
-.2825,-.345215,
-.308916,-.326718,
-.331718,-.303916,
-.350215,-.2775,
-.363843,-.248274,
-.372189,-.217125,
-.375,-.185,
0.0*
%
%ADD25MACRO25*%
%ADD15C,1.1*%
%AMMACRO36*
4,1,45,0.0,-.725,
.2562,-.725,
.294186,-.721685,
.33102,-.711825,
.365582,-.695718,
.396821,-.673854,
.42379,-.646898,
.445668,-.615668,
.461791,-.581114,
.471668,-.544285,
.475,-.5063,
.475,-.5062,
.475,.5062,
.471685,.544186,
.461825,.58102,
.445718,.615582,
.423854,.646821,
.396898,.67379,
.365668,.695668,
.331114,.711791,
.294285,.721668,
.2563,.725,
.2562,.725,
-.2562,.725,
-.294186,.721685,
-.33102,.711825,
-.365582,.695718,
-.396821,.673854,
-.42379,.646898,
-.445668,.615668,
-.461791,.581114,
-.471668,.544285,
-.475,.5063,
-.475,.5062,
-.475,-.5062,
-.471685,-.544186,
-.461825,-.58102,
-.445718,-.615582,
-.423854,-.646821,
-.396898,-.67379,
-.365668,-.695668,
-.331114,-.711791,
-.294285,-.721668,
-.2563,-.725,
-.2562,-.725,
0.0,-.725,
0.0*
%
%ADD36MACRO36*%
%AMMACRO16*
4,1,45,-3.95,0.0,
-3.95,-1.4312,
-3.928834,-1.673223,
-3.865964,-1.907894,
-3.763298,-2.128082,
-3.623957,-2.327097,
-3.452174,-2.498892,
-3.253168,-2.638248,
-3.032988,-2.740929,
-2.798321,-2.803817,
-2.5563,-2.825,
-2.5562,-2.825,
2.5562,-2.825,
2.798223,-2.803834,
3.032894,-2.740964,
3.253082,-2.638298,
3.452097,-2.498957,
3.623892,-2.327174,
3.763248,-2.128168,
3.865929,-1.907988,
3.928817,-1.673321,
3.95,-1.4313,
3.95,-1.4312,
3.95,1.4312,
3.928834,1.673223,
3.865964,1.907894,
3.763298,2.128082,
3.623957,2.327097,
3.452174,2.498892,
3.253168,2.638248,
3.032988,2.740929,
2.798321,2.803817,
2.5563,2.825,
2.5562,2.825,
-2.5562,2.825,
-2.798223,2.803834,
-3.032894,2.740964,
-3.253082,2.638298,
-3.452097,2.498957,
-3.623892,2.327174,
-3.763248,2.128168,
-3.865929,1.907988,
-3.928817,1.673321,
-3.95,1.4313,
-3.95,1.4312,
-3.95,0.0,
0.0*
%
%ADD16MACRO16*%
%ADD26O,2.15X3.75*%
%ADD12C,1.42*%
%ADD29R,.65X.85*%
%AMMACRO32*
4,1,41,.275,0.0,
.275,.075,
.273101,.096706,
.267462,.117753,
.258253,.1375,
.245756,.155348,
.230348,.170756,
.2125,.183253,
.192753,.192462,
.171706,.198101,
.15,.2,
-.15,.2,
-.171706,.198101,
-.192753,.192462,
-.2125,.183253,
-.230348,.170756,
-.245756,.155348,
-.258253,.1375,
-.267462,.117753,
-.273101,.096706,
-.275,.075,
-.275,-.075,
-.273101,-.096706,
-.267462,-.117753,
-.258253,-.1375,
-.245756,-.155348,
-.230348,-.170756,
-.2125,-.183253,
-.192753,-.192462,
-.171706,-.198101,
-.15,-.2,
.15,-.2,
.171706,-.198101,
.192753,-.192462,
.2125,-.183253,
.230348,-.170756,
.245756,-.155348,
.258253,-.1375,
.267462,-.117753,
.273101,-.096706,
.275,-.075,
.275,0.0,
0.0*
%
%ADD32MACRO32*%
%AMMACRO11*
4,1,41,-.85,0.0,
-.85,-.1438,
-.848377,-.162249,
-.843575,-.180137,
-.83574,-.196918,
-.82511,-.212084,
-.812008,-.225174,
-.796832,-.23579,
-.780043,-.243609,
-.762151,-.248395,
-.7438,-.25,
.7438,-.25,
.762249,-.248377,
.780137,-.243575,
.796918,-.23574,
.812084,-.22511,
.825174,-.212008,
.83579,-.196832,
.843609,-.180043,
.848395,-.162151,
.85,-.1438,
.85,.1438,
.848377,.162249,
.843575,.180137,
.83574,.196918,
.82511,.212084,
.812008,.225174,
.796832,.23579,
.780043,.243609,
.762151,.248395,
.7438,.25,
-.7438,.25,
-.762249,.248377,
-.780137,.243575,
-.796918,.23574,
-.812084,.22511,
-.825174,.212008,
-.83579,.196832,
-.843609,.180043,
-.848395,.162151,
-.85,.1438,
-.85,0.0,
0.0*
%
%ADD11MACRO11*%
%ADD38C,.1*%
G75*
%LPD*%
G75*
G54D10*
X207730Y630840D03*
Y210840D03*
X715730Y630840D03*
X588730D03*
X461730D03*
X334730D03*
X715730Y210840D03*
X588730D03*
X461730D03*
X334730D03*
G54D11*
X246730Y1114340D03*
Y1177840D03*
Y1241340D03*
Y1304840D03*
Y1368340D03*
Y1431840D03*
Y1495340D03*
Y1558840D03*
Y1622340D03*
Y1685840D03*
X606730Y1114340D03*
Y1177840D03*
Y1241340D03*
Y1304840D03*
Y1368340D03*
Y1431840D03*
Y1495340D03*
Y1558840D03*
Y1622340D03*
Y1685840D03*
G54D20*
X1136730Y2340840D03*
X726730Y1920840D03*
Y2340840D03*
G54D12*
X186730Y2085840D03*
X3991730Y595840D03*
X3986730Y2085840D03*
G54D21*
X1066730Y1789840D03*
Y1845840D03*
X2614730Y2047840D03*
Y2103840D03*
X3017730Y2097840D03*
Y2153840D03*
X3908600Y1150900D03*
Y1206900D03*
G54D30*
X2745730Y1993840D03*
X2689730D03*
X3881700Y865300D03*
X3825700D03*
X4082200Y1205000D03*
X4026200D03*
G54D13*
X206730Y2435840D03*
Y2865840D03*
X3991730Y2435840D03*
Y2865840D03*
G54D31*
X2810200Y2128700D03*
G54D22*
X356730Y2650840D03*
G54D32*
X2690200Y2203700D03*
Y2153700D03*
Y2103700D03*
Y2053700D03*
X2930200Y2203700D03*
Y2153700D03*
Y2103700D03*
Y2053700D03*
G54D23*
X336730Y2820840D03*
Y2480840D03*
G54D14*
X111730Y2440840D03*
Y2860840D03*
G54D15*
X316730Y1007590D03*
Y1792590D03*
G54D24*
X3384200Y476200D03*
X3440200D03*
X2875400Y1977900D03*
X2931400D03*
G54D33*
X4076730Y1780840D03*
Y1320840D03*
G54D16*
X2061730Y1000840D03*
G54D25*
X3650300Y139400D03*
X3740300D03*
G54D34*
X3936730Y1780840D03*
Y1714840D03*
G54D26*
X2990730Y399840D03*
X3970730Y249840D03*
G54D35*
X4086730Y2440840D03*
Y2860840D03*
G54D17*
X916730Y995840D03*
X3206730D03*
G54D36*
X3841730Y2650840D03*
G54D27*
X3618500Y1060750D03*
X3618730Y1060840D03*
G54D18*
X1441730Y2296840D03*
X1375730D03*
G36*
G01X3587490Y1029990D02*
X3587360Y1030120D01*
G02X3587970Y1029510I31239J30629D01*
G01X3587840Y1029640D01*
X3556030Y997820D01*
X3556230Y997610D01*
G03X3555460Y998380I62386J63156D01*
G01X3555670Y998180D01*
X3587490Y1029990D01*
G37*
G54D19*
X1444730Y2202840D03*
Y2012840D03*
X1214730Y2107840D03*
G54D37*
X3861730Y2480840D03*
Y2820840D03*
G54D38*
G01X0Y0D02*
X1100000D01*
G02X3100000I1000000J-1542012D01*
G01X4200000D01*
Y3200000D01*
X3935000D01*
Y3100000D01*
X3825000D01*
Y3200000D01*
X375000D01*
Y3100000D01*
X265000D01*
X264990Y3200000D01*
X0D01*
Y0D01*
G01X3192040Y588030D02*
Y233040D01*
G03X3212030Y213050I19990J0D01*
G01X3352030D01*
G03X3372020Y233040I0J19990D01*
G01Y258030D01*
G03X3352030Y278050I-20000J20D01*
G01X3277030D01*
G02X3257040Y298040I3J19993D01*
G01Y588030D01*
G03X3237020Y608050I-20007J13D01*
G01X3212030D01*
G03X3192040Y588030I10J-20000D01*
G01X3638380Y588080D02*
Y233070D01*
G02X3618390Y213080I-19997J7D01*
G01X3478390D01*
G02X3458400Y233070I0J19990D01*
G01Y258090D01*
G02X3478390Y278080I19990J0D01*
G01X3553400D01*
G03X3573390Y298090I-10J20000D01*
G01Y588080D01*
G02X3593400Y608070I19997J-7D01*
G01X3618390D01*
G02X3638380Y588080I-3J-19993D01*
G01X3116730Y1540840D02*
X3526730D01*
Y1600840D01*
X3176730D01*
Y1950840D01*
X3526730D01*
Y2010840D01*
X3116730D01*
Y1540840D01*
G54D29*
X3743800Y977000D03*
Y1144500D03*
X3826000Y977000D03*
Y1144500D03*
M02*
