G04 ================== begin FILE IDENTIFICATION RECORD ==================*
G04 Layout Name:  CC2650_SensorTag.brd*
G04 Film Name:    soldmask_bottom_CC2650SensorTag*
G04 File Format:  Gerber RS274X*
G04 File Origin:  Cadence Allegro 16.6-S026*
G04 Origin Date:  Wed Apr 15 15:57:56 2015*
G04 *
G04 Layer:  VIA CLASS/SOLDERMASK_BOTTOM*
G04 Layer:  PIN/SOLDERMASK_BOTTOM*
G04 Layer:  BOARD GEOMETRY/OUTLINE*
G04 *
G04 Offset:    (0.0000 0.0000)*
G04 Mirror:    No*
G04 Mode:      Positive*
G04 Rotation:  0*
G04 FullContactRelief:  No*
G04 UndefLineWidth:     0.1000*
G04 ================== end FILE IDENTIFICATION RECORD ====================*
%FSLAX25Y25*MOMM*%
%IR0*IPPOS*OFA0.00000B0.00000*MIA0B0*SFA1.00000B1.00000*%
%AMMACRO16*
4,1,41,-.525,0.0,
-.525,.225,
-.521582,.264071,
-.511431,.301955,
-.494856,.3375,
-.47236,.369627,
-.444627,.39736,
-.4125,.419856,
-.376955,.436431,
-.339071,.446582,
-.3,.45,
.3,.45,
.339071,.446582,
.376955,.436431,
.4125,.419856,
.444627,.39736,
.47236,.369627,
.494856,.3375,
.511431,.301955,
.521582,.264071,
.525,.225,
.525,-.225,
.521582,-.264071,
.511431,-.301955,
.494856,-.3375,
.47236,-.369627,
.444627,-.39736,
.4125,-.419856,
.376955,-.436431,
.339071,-.446582,
.3,-.45,
-.3,-.45,
-.339071,-.446582,
-.376955,-.436431,
-.4125,-.419856,
-.444627,-.39736,
-.47236,-.369627,
-.494856,-.3375,
-.511431,-.301955,
-.521582,-.264071,
-.525,-.225,
-.525,0.0,
0.0*
%
%ADD16MACRO16*%
%AMMACRO40*
4,1,41,.35,0.0,
.35,-.175,
.347341,-.205388,
.339446,-.234854,
.326554,-.2625,
.309058,-.287488,
.287488,-.309058,
.2625,-.326554,
.234854,-.339446,
.205388,-.347341,
.175,-.35,
-.175,-.35,
-.205388,-.347341,
-.234854,-.339446,
-.2625,-.326554,
-.287488,-.309058,
-.309058,-.287488,
-.326554,-.2625,
-.339446,-.234854,
-.347341,-.205388,
-.35,-.175,
-.35,.175,
-.347341,.205388,
-.339446,.234854,
-.326554,.2625,
-.309058,.287488,
-.287488,.309058,
-.2625,.326554,
-.234854,.339446,
-.205388,.347341,
-.175,.35,
.175,.35,
.205388,.347341,
.234854,.339446,
.2625,.326554,
.287488,.309058,
.309058,.287488,
.326554,.2625,
.339446,.234854,
.347341,.205388,
.35,.175,
.35,0.0,
0.0*
%
%ADD40MACRO40*%
%AMMACRO31*
4,1,40,.23,-.105,
.23,.105,
.228405,.123233,
.223668,.140912,
.215933,.1575,
.205435,.172493,
.192493,.185435,
.1775,.195933,
.160912,.203668,
.143233,.208405,
.125,.21,
-.125,.21,
-.143233,.208405,
-.160912,.203668,
-.1775,.195933,
-.192493,.185435,
-.205435,.172493,
-.215933,.1575,
-.223668,.140912,
-.228405,.123233,
-.23,.105,
-.23,-.105,
-.228405,-.123233,
-.223668,-.140912,
-.215933,-.1575,
-.205435,-.172493,
-.192493,-.185435,
-.1775,-.195933,
-.160912,-.203668,
-.143233,-.208405,
-.125,-.21,
.125,-.21,
.143233,-.208405,
.160912,-.203668,
.1775,-.195933,
.192493,-.185435,
.205435,-.172493,
.215933,-.1575,
.223668,-.140912,
.228405,-.123233,
.23,-.105,
0.0*
%
%ADD31MACRO31*%
%AMMACRO35*
4,1,40,-.105,-.23,
.105,-.23,
.123233,-.228405,
.140912,-.223668,
.1575,-.215933,
.172493,-.205435,
.185435,-.192493,
.195933,-.1775,
.203668,-.160912,
.208405,-.143233,
.21,-.125,
.21,.125,
.208405,.143233,
.203668,.160912,
.195933,.1775,
.185435,.192493,
.172493,.205435,
.1575,.215933,
.140912,.223668,
.123233,.228405,
.105,.23,
-.105,.23,
-.123233,.228405,
-.140912,.223668,
-.1575,.215933,
-.172493,.205435,
-.185435,.192493,
-.195933,.1775,
-.203668,.160912,
-.208405,.143233,
-.21,.125,
-.21,-.125,
-.208405,-.143233,
-.203668,-.160912,
-.195933,-.1775,
-.185435,-.192493,
-.172493,-.205435,
-.1575,-.215933,
-.140912,-.223668,
-.123233,-.228405,
-.105,-.23,
0.0*
%
%ADD35MACRO35*%
%AMMACRO29*
4,1,40,.28,-.13,
.28,.13,
.278025,.152574,
.27216,.174463,
.262583,.195,
.249586,.213562,
.233562,.229586,
.215,.242583,
.194463,.25216,
.172574,.258025,
.15,.26,
-.15,.26,
-.172574,.258025,
-.194463,.25216,
-.215,.242583,
-.233562,.229586,
-.249586,.213562,
-.262583,.195,
-.27216,.174463,
-.278025,.152574,
-.28,.13,
-.28,-.13,
-.278025,-.152574,
-.27216,-.174463,
-.262583,-.195,
-.249586,-.213562,
-.233562,-.229586,
-.215,-.242583,
-.194463,-.25216,
-.172574,-.258025,
-.15,-.26,
.15,-.26,
.172574,-.258025,
.194463,-.25216,
.215,-.242583,
.233562,-.229586,
.249586,-.213562,
.262583,-.195,
.27216,-.174463,
.278025,-.152574,
.28,-.13,
0.0*
%
%ADD29MACRO29*%
%AMMACRO41*
4,1,41,0.0,-.425,
-.175,-.425,
-.205388,-.422341,
-.234854,-.414446,
-.2625,-.401554,
-.287488,-.384058,
-.309058,-.362488,
-.326554,-.3375,
-.339446,-.309854,
-.347341,-.280388,
-.35,-.25,
-.35,.25,
-.347341,.280388,
-.339446,.309854,
-.326554,.3375,
-.309058,.362488,
-.287488,.384058,
-.2625,.401554,
-.234854,.414446,
-.205388,.422341,
-.175,.425,
.175,.425,
.205388,.422341,
.234854,.414446,
.2625,.401554,
.287488,.384058,
.309058,.362488,
.326554,.3375,
.339446,.309854,
.347341,.280388,
.35,.25,
.35,-.25,
.347341,-.280388,
.339446,-.309854,
.326554,-.3375,
.309058,-.362488,
.287488,-.384058,
.2625,-.401554,
.234854,-.414446,
.205388,-.422341,
.175,-.425,
0.0,-.425,
0.0*
%
%ADD41MACRO41*%
%AMMACRO38*
4,1,44,.1167,-.3429,
.3429,-.1167,
.360844,-.095351,
.374797,-.071202,
.384344,-.044997,
.389196,-.017533,
.389205,.010357,
.384371,.037825,
.374841,.064036,
.360904,.088194,
.342984,.109564,
.3429,.1096,
.1096,.3429,
.088263,.360856,
.064112,.374805,
.037906,.38435,
.010441,.389198,
-.017449,.389204,
-.044916,.384366,
-.071125,.374832,
-.095282,.360892,
-.11665,.342969,
-.1167,.3429,
-.3429,.1167,
-.360844,.095351,
-.374797,.071202,
-.384344,.044997,
-.389196,.017533,
-.389205,-.010357,
-.384371,-.037825,
-.374841,-.064036,
-.360904,-.088194,
-.342984,-.109564,
-.3429,-.1096,
-.1096,-.3429,
-.088263,-.360856,
-.064112,-.374805,
-.037906,-.38435,
-.010441,-.389198,
.017449,-.389204,
.044916,-.384366,
.071125,-.374832,
.095282,-.360892,
.11665,-.342969,
.1167,-.3429,
0.0*
%
%ADD38MACRO38*%
%AMMACRO32*
4,1,40,.325,-.16,
.325,.16,
.322569,.187784,
.315351,.214723,
.303564,.24,
.287567,.262846,
.267846,.282567,
.245,.298564,
.219723,.310351,
.192784,.317569,
.165,.32,
-.165,.32,
-.192784,.317569,
-.219723,.310351,
-.245,.298564,
-.267846,.282567,
-.287567,.262846,
-.303564,.24,
-.315351,.214723,
-.322569,.187784,
-.325,.16,
-.325,-.16,
-.322569,-.187784,
-.315351,-.214723,
-.303564,-.24,
-.287567,-.262846,
-.267846,-.282567,
-.245,-.298564,
-.219723,-.310351,
-.192784,-.317569,
-.165,-.32,
.165,-.32,
.192784,-.317569,
.219723,-.310351,
.245,-.298564,
.267846,-.282567,
.287567,-.262846,
.303564,-.24,
.315351,-.214723,
.322569,-.187784,
.325,-.16,
0.0*
%
%ADD32MACRO32*%
%ADD26R,1.6X.9*%
%AMMACRO23*
4,1,40,-.16,-.325,
.16,-.325,
.187784,-.322569,
.214723,-.315351,
.24,-.303564,
.262846,-.287567,
.282567,-.267846,
.298564,-.245,
.310351,-.219723,
.317569,-.192784,
.32,-.165,
.32,.165,
.317569,.192784,
.310351,.219723,
.298564,.245,
.282567,.267846,
.262846,.287567,
.24,.303564,
.214723,.315351,
.187784,.322569,
.16,.325,
-.16,.325,
-.187784,.322569,
-.214723,.315351,
-.24,.303564,
-.262846,.287567,
-.282567,.267846,
-.298564,.245,
-.310351,.219723,
-.317569,.192784,
-.32,.165,
-.32,-.165,
-.317569,-.192784,
-.310351,-.219723,
-.298564,-.245,
-.282567,-.267846,
-.262846,-.287567,
-.24,-.303564,
-.214723,-.315351,
-.187784,-.322569,
-.16,-.325,
0.0*
%
%ADD23MACRO23*%
%ADD24C,.3*%
%AMMACRO11*
4,1,40,.375,-.185,
.375,.185,
.372189,.217125,
.363843,.248274,
.350215,.2775,
.331718,.303916,
.308916,.326718,
.2825,.345215,
.253274,.358843,
.222125,.367189,
.19,.37,
-.19,.37,
-.222125,.367189,
-.253274,.358843,
-.2825,.345215,
-.308916,.326718,
-.331718,.303916,
-.350215,.2775,
-.363843,.248274,
-.372189,.217125,
-.375,.185,
-.375,-.185,
-.372189,-.217125,
-.363843,-.248274,
-.350215,-.2775,
-.331718,-.303916,
-.308916,-.326718,
-.2825,-.345215,
-.253274,-.358843,
-.222125,-.367189,
-.19,-.37,
.19,-.37,
.222125,-.367189,
.253274,-.358843,
.2825,-.345215,
.308916,-.326718,
.331718,-.303916,
.350215,-.2775,
.363843,-.248274,
.372189,-.217125,
.375,-.185,
0.0*
%
%ADD11MACRO11*%
%ADD44C,.4*%
%AMMACRO19*
4,1,40,-.185,-.375,
.185,-.375,
.217125,-.372189,
.248274,-.363843,
.2775,-.350215,
.303916,-.331718,
.326718,-.308916,
.345215,-.2825,
.358843,-.253274,
.367189,-.222125,
.37,-.19,
.37,.19,
.367189,.222125,
.358843,.253274,
.345215,.2825,
.326718,.308916,
.303916,.331718,
.2775,.350215,
.248274,.363843,
.217125,.372189,
.185,.375,
-.185,.375,
-.217125,.372189,
-.248274,.363843,
-.2775,.350215,
-.303916,.331718,
-.326718,.308916,
-.345215,.2825,
-.358843,.253274,
-.367189,.222125,
-.37,.19,
-.37,-.19,
-.367189,-.222125,
-.358843,-.253274,
-.345215,-.2825,
-.326718,-.308916,
-.303916,-.331718,
-.2775,-.350215,
-.248274,-.363843,
-.217125,-.372189,
-.185,-.375,
0.0*
%
%ADD19MACRO19*%
%ADD45C,.7*%
%ADD34R,.5X.5*%
%AMMACRO48*
4,1,41,0.0,.4,
.075,.4,
.088024,.398861,
.100652,.395477,
.1125,.389952,
.123209,.382453,
.132453,.373209,
.139952,.3625,
.145477,.350652,
.148861,.338024,
.15,.325,
.15,-.325,
.148861,-.338024,
.145477,-.350652,
.139952,-.3625,
.132453,-.373209,
.123209,-.382453,
.1125,-.389952,
.100652,-.395477,
.088024,-.398861,
.075,-.4,
-.075,-.4,
-.088024,-.398861,
-.100652,-.395477,
-.1125,-.389952,
-.123209,-.382453,
-.132453,-.373209,
-.139952,-.3625,
-.145477,-.350652,
-.148861,-.338024,
-.15,-.325,
-.15,.325,
-.148861,.338024,
-.145477,.350652,
-.139952,.3625,
-.132453,.373209,
-.123209,.382453,
-.1125,.389952,
-.100652,.395477,
-.088024,.398861,
-.075,.4,
0.0,.4,
0.0*
%
%ADD48MACRO48*%
%AMMACRO47*
4,1,41,-.4,0.0,
-.4,.075,
-.398861,.088024,
-.395477,.100652,
-.389952,.1125,
-.382453,.123209,
-.373209,.132453,
-.3625,.139952,
-.350652,.145477,
-.338024,.148861,
-.325,.15,
.325,.15,
.338024,.148861,
.350652,.145477,
.3625,.139952,
.373209,.132453,
.382453,.123209,
.389952,.1125,
.395477,.100652,
.398861,.088024,
.4,.075,
.4,-.075,
.398861,-.088024,
.395477,-.100652,
.389952,-.1125,
.382453,-.123209,
.373209,-.132453,
.3625,-.139952,
.350652,-.145477,
.338024,-.148861,
.325,-.15,
-.325,-.15,
-.338024,-.148861,
-.350652,-.145477,
-.3625,-.139952,
-.373209,-.132453,
-.382453,-.123209,
-.389952,-.1125,
-.395477,-.100652,
-.398861,-.088024,
-.4,-.075,
-.4,0.0,
0.0*
%
%ADD47MACRO47*%
%AMMACRO18*
4,1,41,.525,0.0,
.525,-.225,
.521582,-.264071,
.511431,-.301955,
.494856,-.3375,
.47236,-.369627,
.444627,-.39736,
.4125,-.419856,
.376955,-.436431,
.339071,-.446582,
.3,-.45,
-.3,-.45,
-.339071,-.446582,
-.376955,-.436431,
-.4125,-.419856,
-.444627,-.39736,
-.47236,-.369627,
-.494856,-.3375,
-.511431,-.301955,
-.521582,-.264071,
-.525,-.225,
-.525,.225,
-.521582,.264071,
-.511431,.301955,
-.494856,.3375,
-.47236,.369627,
-.444627,.39736,
-.4125,.419856,
-.376955,.436431,
-.339071,.446582,
-.3,.45,
.3,.45,
.339071,.446582,
.376955,.436431,
.4125,.419856,
.444627,.39736,
.47236,.369627,
.494856,.3375,
.511431,.301955,
.521582,.264071,
.525,.225,
.525,0.0,
0.0*
%
%ADD18MACRO18*%
%AMMACRO50*
4,1,40,-.2369,-.0884,
-.0884,-.2369,
-.074363,-.248649,
-.058512,-.257799,
-.041313,-.264058,
-.023288,-.267235,
-.004985,-.267235,
.013039,-.264055,
.030238,-.257795,
.046088,-.248642,
.0601,-.2369,
.2369,-.0601,
.248655,-.04607,
.257804,-.030218,
.264061,-.013018,
.267236,.005007,
.267234,.02331,
.264053,.041334,
.25779,.058532,
.248636,.074381,
.2369,.0884,
.0884,.2369,
.074363,.248649,
.058512,.257799,
.041313,.264058,
.023288,.267235,
.004985,.267235,
-.013039,.264055,
-.030238,.257795,
-.046088,.248642,
-.0601,.2369,
-.2369,.0601,
-.248655,.04607,
-.257804,.030218,
-.264061,.013018,
-.267236,-.005007,
-.267234,-.02331,
-.264053,-.041334,
-.25779,-.058532,
-.248636,-.074381,
-.2369,-.0884,
0.0*
%
%ADD50MACRO50*%
%AMMACRO30*
4,1,40,-.23,.105,
-.23,-.105,
-.228405,-.123233,
-.223668,-.140912,
-.215933,-.1575,
-.205435,-.172493,
-.192493,-.185435,
-.1775,-.195933,
-.160912,-.203668,
-.143233,-.208405,
-.125,-.21,
.125,-.21,
.143233,-.208405,
.160912,-.203668,
.1775,-.195933,
.192493,-.185435,
.205435,-.172493,
.215933,-.1575,
.223668,-.140912,
.228405,-.123233,
.23,-.105,
.23,.105,
.228405,.123233,
.223668,.140912,
.215933,.1575,
.205435,.172493,
.192493,.185435,
.1775,.195933,
.160912,.203668,
.143233,.208405,
.125,.21,
-.125,.21,
-.143233,.208405,
-.160912,.203668,
-.1775,.195933,
-.192493,.185435,
-.205435,.172493,
-.215933,.1575,
-.223668,.140912,
-.228405,.123233,
-.23,.105,
0.0*
%
%ADD30MACRO30*%
%AMMACRO17*
4,1,41,0.0,-.525,
-.225,-.525,
-.264071,-.521582,
-.301955,-.511431,
-.3375,-.494856,
-.369627,-.47236,
-.39736,-.444627,
-.419856,-.4125,
-.436431,-.376955,
-.446582,-.339071,
-.45,-.3,
-.45,.3,
-.446582,.339071,
-.436431,.376955,
-.419856,.4125,
-.39736,.444627,
-.369627,.47236,
-.3375,.494856,
-.301955,.511431,
-.264071,.521582,
-.225,.525,
.225,.525,
.264071,.521582,
.301955,.511431,
.3375,.494856,
.369627,.47236,
.39736,.444627,
.419856,.4125,
.436431,.376955,
.446582,.339071,
.45,.3,
.45,-.3,
.446582,-.339071,
.436431,-.376955,
.419856,-.4125,
.39736,-.444627,
.369627,-.47236,
.3375,-.494856,
.301955,-.511431,
.264071,-.521582,
.225,-.525,
0.0,-.525,
0.0*
%
%ADD17MACRO17*%
%AMMACRO13*
4,1,40,.105,.23,
-.105,.23,
-.123233,.228405,
-.140912,.223668,
-.1575,.215933,
-.172493,.205435,
-.185435,.192493,
-.195933,.1775,
-.203668,.160912,
-.208405,.143233,
-.21,.125,
-.21,-.125,
-.208405,-.143233,
-.203668,-.160912,
-.195933,-.1775,
-.185435,-.192493,
-.172493,-.205435,
-.1575,-.215933,
-.140912,-.223668,
-.123233,-.228405,
-.105,-.23,
.105,-.23,
.123233,-.228405,
.140912,-.223668,
.1575,-.215933,
.172493,-.205435,
.185435,-.192493,
.195933,-.1775,
.203668,-.160912,
.208405,-.143233,
.21,-.125,
.21,.125,
.208405,.143233,
.203668,.160912,
.195933,.1775,
.185435,.192493,
.172493,.205435,
.1575,.215933,
.140912,.223668,
.123233,.228405,
.105,.23,
0.0*
%
%ADD13MACRO13*%
%AMMACRO49*
4,1,40,-.2875,.975,
.2875,.975,
.337424,.970632,
.385831,.957662,
.43125,.936482,
.472301,.907738,
.507738,.872301,
.536482,.83125,
.557662,.785831,
.570632,.737424,
.575,.6875,
.575,-.6875,
.570632,-.737424,
.557662,-.785831,
.536482,-.83125,
.507738,-.872301,
.472301,-.907738,
.43125,-.936482,
.385831,-.957662,
.337424,-.970632,
.2875,-.975,
-.2875,-.975,
-.337424,-.970632,
-.385831,-.957662,
-.43125,-.936482,
-.472301,-.907738,
-.507738,-.872301,
-.536482,-.83125,
-.557662,-.785831,
-.570632,-.737424,
-.575,-.6875,
-.575,.6875,
-.570632,.737424,
-.557662,.785831,
-.536482,.83125,
-.507738,.872301,
-.472301,.907738,
-.43125,.936482,
-.385831,.957662,
-.337424,.970632,
-.2875,.975,
0.0*
%
%ADD49MACRO49*%
%AMMACRO28*
4,1,41,0.0,.45,
.2438,.45,
.279614,.446858,
.314339,.437545,
.346918,.422343,
.376363,.401715,
.401779,.376287,
.422393,.346832,
.437579,.314245,
.446875,.279516,
.45,.2438,
.45,-.2438,
.446858,-.279614,
.437545,-.314339,
.422343,-.346918,
.401715,-.376363,
.376287,-.401779,
.346832,-.422393,
.314245,-.437579,
.279516,-.446875,
.2438,-.45,
-.2438,-.45,
-.279614,-.446858,
-.314339,-.437545,
-.346918,-.422343,
-.376363,-.401715,
-.401779,-.376287,
-.422393,-.346832,
-.437579,-.314245,
-.446875,-.279516,
-.45,-.2438,
-.45,.2438,
-.446858,.279614,
-.437545,.314339,
-.422343,.346918,
-.401715,.376363,
-.376287,.401779,
-.346832,.422393,
-.314245,.437579,
-.279516,.446875,
-.2438,.45,
0.0,.45,
0.0*
%
%ADD28MACRO28*%
%ADD27O,.4X.6*%
%ADD36O,.9X.4*%
%AMMACRO33*
4,1,40,.16,.325,
-.16,.325,
-.187784,.322569,
-.214723,.315351,
-.24,.303564,
-.262846,.287567,
-.282567,.267846,
-.298564,.245,
-.310351,.219723,
-.317569,.192784,
-.32,.165,
-.32,-.165,
-.317569,-.192784,
-.310351,-.219723,
-.298564,-.245,
-.282567,-.267846,
-.262846,-.287567,
-.24,-.303564,
-.214723,-.315351,
-.187784,-.322569,
-.16,-.325,
.16,-.325,
.187784,-.322569,
.214723,-.315351,
.24,-.303564,
.262846,-.287567,
.282567,-.267846,
.298564,-.245,
.310351,-.219723,
.317569,-.192784,
.32,-.165,
.32,.165,
.317569,.192784,
.310351,.219723,
.298564,.245,
.282567,.267846,
.262846,.287567,
.24,.303564,
.214723,.315351,
.187784,.322569,
.16,.325,
0.0*
%
%ADD33MACRO33*%
%AMMACRO15*
4,1,40,-.325,.16,
-.325,-.16,
-.322569,-.187784,
-.315351,-.214723,
-.303564,-.24,
-.287567,-.262846,
-.267846,-.282567,
-.245,-.298564,
-.219723,-.310351,
-.192784,-.317569,
-.165,-.32,
.165,-.32,
.192784,-.317569,
.219723,-.310351,
.245,-.298564,
.267846,-.282567,
.287567,-.262846,
.303564,-.24,
.315351,-.214723,
.322569,-.187784,
.325,-.16,
.325,.16,
.322569,.187784,
.315351,.214723,
.303564,.24,
.287567,.262846,
.267846,.282567,
.245,.298564,
.219723,.310351,
.192784,.317569,
.165,.32,
-.165,.32,
-.192784,.317569,
-.219723,.310351,
-.245,.298564,
-.267846,.282567,
-.287567,.262846,
-.303564,.24,
-.315351,.214723,
-.322569,.187784,
-.325,.16,
0.0*
%
%ADD15MACRO15*%
%ADD12C,1.*%
%ADD25C,1.1*%
%ADD22O,.4X.9*%
%AMMACRO21*
4,1,40,.185,.375,
-.185,.375,
-.217125,.372189,
-.248274,.363843,
-.2775,.350215,
-.303916,.331718,
-.326718,.308916,
-.345215,.2825,
-.358843,.253274,
-.367189,.222125,
-.37,.19,
-.37,-.19,
-.367189,-.222125,
-.358843,-.253274,
-.345215,-.2825,
-.326718,-.308916,
-.303916,-.331718,
-.2775,-.350215,
-.248274,-.363843,
-.217125,-.372189,
-.185,-.375,
.185,-.375,
.217125,-.372189,
.248274,-.363843,
.2775,-.350215,
.303916,-.331718,
.326718,-.308916,
.345215,-.2825,
.358843,-.253274,
.367189,-.222125,
.37,-.19,
.37,.19,
.367189,.222125,
.358843,.253274,
.345215,.2825,
.326718,.308916,
.303916,.331718,
.2775,.350215,
.248274,.363843,
.217125,.372189,
.185,.375,
0.0*
%
%ADD21MACRO21*%
%AMMACRO20*
4,1,40,-.375,.185,
-.375,-.185,
-.372189,-.217125,
-.363843,-.248274,
-.350215,-.2775,
-.331718,-.303916,
-.308916,-.326718,
-.2825,-.345215,
-.253274,-.358843,
-.222125,-.367189,
-.19,-.37,
.19,-.37,
.222125,-.367189,
.253274,-.358843,
.2825,-.345215,
.308916,-.326718,
.331718,-.303916,
.350215,-.2775,
.363843,-.248274,
.372189,-.217125,
.375,-.185,
.375,.185,
.372189,.217125,
.363843,.248274,
.350215,.2775,
.331718,.303916,
.308916,.326718,
.2825,.345215,
.253274,.358843,
.222125,.367189,
.19,.37,
-.19,.37,
-.222125,.367189,
-.253274,.358843,
-.2825,.345215,
-.308916,.326718,
-.331718,.303916,
-.350215,.2775,
-.363843,.248274,
-.372189,.217125,
-.375,.185,
0.0*
%
%ADD20MACRO20*%
%AMMACRO39*
4,1,41,0.0,-1.4,
-.2375,-1.4,
-.278741,-1.396392,
-.31873,-1.385677,
-.35625,-1.368181,
-.390162,-1.344436,
-.419436,-1.315162,
-.443181,-1.28125,
-.460677,-1.24373,
-.471392,-1.203741,
-.475,-1.1625,
-.475,1.1625,
-.471392,1.203741,
-.460677,1.24373,
-.443181,1.28125,
-.419436,1.315162,
-.390162,1.344436,
-.35625,1.368181,
-.31873,1.385677,
-.278741,1.396392,
-.2375,1.4,
.2375,1.4,
.278741,1.396392,
.31873,1.385677,
.35625,1.368181,
.390162,1.344436,
.419436,1.315162,
.443181,1.28125,
.460677,1.24373,
.471392,1.203741,
.475,1.1625,
.475,-1.1625,
.471392,-1.203741,
.460677,-1.24373,
.443181,-1.28125,
.419436,-1.315162,
.390162,-1.344436,
.35625,-1.368181,
.31873,-1.385677,
.278741,-1.396392,
.2375,-1.4,
0.0,-1.4,
0.0*
%
%ADD39MACRO39*%
%ADD43O,2.15X3.75*%
%ADD10C,1.42*%
%ADD46R,1.75X1.9*%
%ADD37R,5.4X5.4*%
%AMMACRO42*
4,1,41,0.0,-.7,
-.3125,-.7,
-.362424,-.695632,
-.410831,-.682662,
-.45625,-.661482,
-.497301,-.632738,
-.532738,-.597301,
-.561482,-.55625,
-.582662,-.510831,
-.595632,-.462424,
-.6,-.4125,
-.6,.4125,
-.595632,.462424,
-.582662,.510831,
-.561482,.55625,
-.532738,.597301,
-.497301,.632738,
-.45625,.661482,
-.410831,.682662,
-.362424,.695632,
-.3125,.7,
.3125,.7,
.362424,.695632,
.410831,.682662,
.45625,.661482,
.497301,.632738,
.532738,.597301,
.561482,.55625,
.582662,.510831,
.595632,.462424,
.6,.4125,
.6,-.4125,
.595632,-.462424,
.582662,-.510831,
.561482,-.55625,
.532738,-.597301,
.497301,-.632738,
.45625,-.661482,
.410831,-.682662,
.362424,-.695632,
.3125,-.7,
0.0,-.7,
0.0*
%
%ADD42MACRO42*%
%AMMACRO14*
4,1,40,-.275,-.75,
.275,-.75,
.322753,-.745822,
.369056,-.733415,
.4125,-.713157,
.451767,-.685662,
.485662,-.651767,
.513157,-.6125,
.533415,-.569056,
.545822,-.522753,
.55,-.475,
.55,.475,
.545822,.522753,
.533415,.569056,
.513157,.6125,
.485662,.651767,
.451767,.685662,
.4125,.713157,
.369056,.733415,
.322753,.745822,
.275,.75,
-.275,.75,
-.322753,.745822,
-.369056,.733415,
-.4125,.713157,
-.451767,.685662,
-.485662,.651767,
-.513157,.6125,
-.533415,.569056,
-.545822,.522753,
-.55,.475,
-.55,-.475,
-.545822,-.522753,
-.533415,-.569056,
-.513157,-.6125,
-.485662,-.651767,
-.451767,-.685662,
-.4125,-.713157,
-.369056,-.733415,
-.322753,-.745822,
-.275,-.75,
0.0*
%
%ADD14MACRO14*%
%ADD51C,.1*%
G75*
%LPD*%
G75*
G54D10*
X186730Y2085840D03*
X3991730Y595840D03*
X3986730Y2085840D03*
G54D20*
X939300Y530700D03*
X1029300D03*
G54D11*
X269730Y2329840D03*
X179730D03*
G54D21*
X660000Y665000D03*
Y575000D03*
G54D12*
X206730Y2435840D03*
Y2865840D03*
X3991730Y2435840D03*
Y2865840D03*
G54D30*
X598700Y1834300D03*
X654700D03*
X700730Y1930840D03*
X756730D03*
X2940730Y805840D03*
X2996730D03*
G54D22*
X1651730Y725840D03*
X1701730D03*
X1751730D03*
X1801730D03*
X1851730D03*
X1901730D03*
X1951730D03*
X2001730D03*
Y1420840D03*
X1951730D03*
X1901730D03*
X1851730D03*
X1801730D03*
X1751730D03*
X1701730D03*
X1651730D03*
X2051730Y725840D03*
X2101730D03*
X2151730D03*
X2201730D03*
Y1420840D03*
X2151730D03*
X2101730D03*
X2051730D03*
G54D13*
X1065100Y687000D03*
Y631000D03*
X1630500Y1559300D03*
Y1503300D03*
X1725000Y1559300D03*
Y1503300D03*
X3121730Y1146840D03*
Y1090840D03*
X3122730Y1009840D03*
Y953840D03*
X3721900Y1483100D03*
Y1427100D03*
X3814700Y1773200D03*
Y1717200D03*
G54D31*
X942730Y1935840D03*
X886730D03*
X2799100Y1270000D03*
X2743100D03*
G54D40*
X1753730Y2072340D03*
G54D14*
X1605700Y386300D03*
X1765700D03*
G54D50*
X3851700Y1475600D03*
X3891300Y1515200D03*
G54D23*
X1436730Y627840D03*
Y707840D03*
X2392700Y765800D03*
Y845800D03*
X2486800Y765900D03*
Y845900D03*
G54D32*
X1501600Y1425800D03*
X1421600D03*
X1193400Y1656900D03*
X1113400D03*
X1597730Y1922840D03*
X1517730D03*
X647800Y1570500D03*
X567800D03*
X2446730Y1345840D03*
X2366730D03*
G54D41*
X1753730Y2349840D03*
G54D51*
G01X0Y0D02*
X1100000D01*
G02X3100000I1000000J-1542012D01*
G01X4200000D01*
Y3200000D01*
X3935000D01*
Y3100000D01*
X3825000D01*
Y3200000D01*
X375000D01*
Y3100000D01*
X265000D01*
X264990Y3200000D01*
X0D01*
Y0D01*
G01X3192040Y588030D02*
Y233040D01*
G03X3212030Y213050I19990J0D01*
G01X3352030D01*
G03X3372020Y233040I0J19990D01*
G01Y258030D01*
G03X3352030Y278050I-20000J20D01*
G01X3277030D01*
G02X3257040Y298040I3J19993D01*
G01Y588030D01*
G03X3237020Y608050I-20007J13D01*
G01X3212030D01*
G03X3192040Y588030I10J-20000D01*
G01X3638380Y588080D02*
Y233070D01*
G02X3618390Y213080I-19997J7D01*
G01X3478390D01*
G02X3458400Y233070I0J19990D01*
G01Y258090D01*
G02X3478390Y278080I19990J0D01*
G01X3553400D01*
G03X3573390Y298090I-10J20000D01*
G01Y588080D01*
G02X3593400Y608070I19997J-7D01*
G01X3618390D01*
G02X3638380Y588080I-3J-19993D01*
G01X3116730Y1540840D02*
X3526730D01*
Y1600840D01*
X3176730D01*
Y1950840D01*
X3526730D01*
Y2010840D01*
X3116730D01*
Y1540840D01*
G54D42*
X1020000Y1544800D03*
Y1321800D03*
X1193000D03*
Y1544800D03*
G54D15*
X1281730Y705840D03*
X1361730D03*
X1631000Y507000D03*
X1711000D03*
X1421400Y1498000D03*
X1501400D03*
X1316730Y1220840D03*
X1396730D03*
X1724730Y1620840D03*
X1804730D03*
X1754730Y1842840D03*
X1834730D03*
X1016730Y1197840D03*
X1096730D03*
X1286730Y1150840D03*
X1366730D03*
X911900Y779700D03*
X991900D03*
X1606900Y2415700D03*
X1686900D03*
X1550730Y1619840D03*
X1630730D03*
G54D33*
Y1769840D03*
Y1689840D03*
X1525600Y2350000D03*
Y2270000D03*
X1756730Y2000840D03*
Y1920840D03*
X1676730Y1922840D03*
Y1842840D03*
X1724730Y1770840D03*
Y1690840D03*
X2040900Y1837900D03*
Y1757900D03*
X2517400Y1875500D03*
Y1795500D03*
G54D24*
X944000Y681000D03*
X994000D03*
X944000Y631000D03*
X994000D03*
G54D43*
X2990730Y399840D03*
X3970730Y249840D03*
G54D25*
X316730Y1007590D03*
Y1792590D03*
G54D34*
X692100Y2001340D03*
Y2146340D03*
X757100Y2001340D03*
Y2146340D03*
X822100Y2001340D03*
Y2146340D03*
X887100Y2001340D03*
Y2146340D03*
G54D16*
X1482100Y469400D03*
Y329400D03*
X1210600Y605200D03*
Y465200D03*
G54D17*
X1576730Y595840D03*
X1716730D03*
G54D44*
X3362200Y376400D03*
X3462200D03*
X3362200Y426400D03*
X3462200D03*
X3362200Y476400D03*
X3462200D03*
X3362200Y526400D03*
X3462200D03*
X3386730Y1830840D03*
Y1780840D03*
Y1730840D03*
X3336730Y1830840D03*
Y1730840D03*
X3286730Y1830840D03*
Y1780840D03*
Y1730840D03*
G54D26*
X789100Y1733810D03*
G54D35*
X683400Y865800D03*
Y921800D03*
X3718700Y1716600D03*
Y1772600D03*
X2620600Y1066300D03*
Y1122300D03*
G54D36*
X1579230Y1348340D03*
Y1298340D03*
Y1248340D03*
Y1198340D03*
Y1148340D03*
Y1098340D03*
Y1048340D03*
Y998340D03*
Y948340D03*
Y898340D03*
Y848340D03*
Y798340D03*
X2274230D03*
Y848340D03*
Y898340D03*
Y948340D03*
Y998340D03*
Y1048340D03*
Y1098340D03*
Y1148340D03*
Y1198340D03*
Y1248340D03*
Y1298340D03*
Y1348340D03*
G54D27*
X854100Y1641310D03*
X789100D03*
X724100D03*
X854100Y1826310D03*
X789100D03*
X724100D03*
G54D18*
X1209730Y232840D03*
Y372840D03*
G54D45*
X3618500Y1060750D03*
X3618730Y1060840D03*
G54D37*
X1926730Y1073340D03*
G54D46*
X2896730Y1030840D03*
G54D28*
X821300Y1315300D03*
X671300D03*
X821000Y1467800D03*
X671000D03*
G54D19*
X745500Y485400D03*
Y575400D03*
X3806730Y2230840D03*
Y2320840D03*
G54D47*
X2741730Y1130840D03*
Y1090840D03*
Y1050840D03*
Y1010840D03*
Y970840D03*
Y930840D03*
X3051730D03*
Y970840D03*
Y1010840D03*
Y1050840D03*
Y1090840D03*
Y1130840D03*
G54D38*
X567170Y1314030D03*
X510600Y1370600D03*
G54D29*
X1322730Y1045840D03*
X1256730D03*
G54D39*
X1643730Y2217340D03*
X1863730D03*
G54D48*
X2796730Y875840D03*
X2836730D03*
X2876730D03*
X2916730D03*
X2956730D03*
X2996730D03*
Y1185840D03*
X2956730D03*
X2916730D03*
X2876730D03*
X2836730D03*
X2796730D03*
G54D49*
X2405730Y1814840D03*
X2155730D03*
M02*
