G04 ================== begin FILE IDENTIFICATION RECORD ==================*
G04 Layout Name:  CC26xx_7x7_Diff_CC2592_V1_1_0.brd*
G04 Film Name:    assembly_bot_mirror*
G04 File Format:  Gerber RS274X*
G04 File Origin:  Cadence Allegro 16.6-P004*
G04 Origin Date:  Wed Nov 18 15:25:57 2015*
G04 *
G04 Layer:  REF DES/ASSEMBLY_BOTTOM*
G04 Layer:  PACKAGE GEOMETRY/ASSEMBLY_BOTTOM*
G04 Layer:  BOARD GEOMETRY/OUTLINE*
G04 *
G04 Offset:    (0.000 0.000)*
G04 Mirror:    Yes*
G04 Mode:      Positive*
G04 Rotation:  0*
G04 FullContactRelief:  No*
G04 UndefLineWidth:     0.000*
G04 ================== end FILE IDENTIFICATION RECORD ====================*
%FSLAX44Y44*MOMM*%
%IR0*IPPOS*OFA0.00000B0.00000*MIA1B0*SFA1.00000B1.00000*%
%ADD10C,.05*%
%ADD11C,.1*%
G75*
%LPD*%
G75*
G54D10*
G01X1360130Y1109540D02*
X1359480Y1109220D01*
X1358730Y1109000D01*
X1357860D01*
X1356880Y1109330D01*
X1356130Y1109870D01*
X1355580Y1110520D01*
X1355150Y1111600D01*
X1355040Y1112580D01*
X1355260Y1113550D01*
X1355580Y1114200D01*
X1356230Y1114850D01*
X1356990Y1115280D01*
X1357750Y1115500D01*
X1358510D01*
X1359270Y1115280D01*
X1359920Y1114960D01*
X1360460Y1114530D01*
G01X1364750Y1115500D02*
Y1109000D01*
X1363450Y1110300D01*
G01Y1115500D02*
X1366050D01*
G01X1371750D02*
Y1109000D01*
X1370450Y1110300D01*
G01Y1115500D02*
X1373050D01*
G01X1363000Y1105310D02*
X1356500D01*
Y1101190D01*
G01X1359640Y1102710D02*
Y1105310D01*
G01X1356500Y1098420D02*
X1363000D01*
Y1094080D01*
G01X1357580Y1091310D02*
X1356930Y1090660D01*
X1356610Y1089900D01*
X1356500Y1089030D01*
X1356720Y1087950D01*
X1357260Y1087190D01*
X1357910Y1086970D01*
X1358560Y1087080D01*
X1359100Y1087520D01*
X1360180Y1089680D01*
X1360940Y1090660D01*
X1362030Y1091310D01*
X1363000Y1091530D01*
Y1086970D01*
G54D11*
G01X1117720Y1130400D02*
Y1136900D01*
X1115120D01*
X1114250Y1136570D01*
X1113600Y1135820D01*
X1113380Y1134950D01*
X1113600Y1134080D01*
X1114140Y1133430D01*
X1115120Y1133110D01*
X1117720D01*
G01X1108050Y1130400D02*
Y1136900D01*
X1109350Y1135600D01*
G01Y1130400D02*
X1106750D01*
G01X1422120Y1127600D02*
Y1134100D01*
X1419520D01*
X1418650Y1133770D01*
X1418000Y1133020D01*
X1417780Y1132150D01*
X1418000Y1131280D01*
X1418540Y1130630D01*
X1419520Y1130310D01*
X1422120D01*
G01X1414510Y1133020D02*
X1413860Y1133670D01*
X1413100Y1133990D01*
X1412230Y1134100D01*
X1411150Y1133880D01*
X1410390Y1133340D01*
X1410170Y1132690D01*
X1410280Y1132040D01*
X1410720Y1131500D01*
X1412880Y1130420D01*
X1413860Y1129660D01*
X1414510Y1128570D01*
X1414730Y1127600D01*
X1410170D01*
M02*
