G04 ================== begin FILE IDENTIFICATION RECORD ==================*
G04 Layout Name:  CC26xx_7x7_Diff_CC2592_V1_1_0.brd*
G04 Film Name:    assembly_top*
G04 File Format:  Gerber RS274X*
G04 File Origin:  Cadence Allegro 16.6-P004*
G04 Origin Date:  Wed Nov 18 15:25:57 2015*
G04 *
G04 Layer:  REF DES/ASSEMBLY_TOP*
G04 Layer:  PACKAGE GEOMETRY/ASSEMBLY_TOP*
G04 Layer:  BOARD GEOMETRY/OUTLINE*
G04 *
G04 Offset:    (0.000 0.000)*
G04 Mirror:    No*
G04 Mode:      Positive*
G04 Rotation:  0*
G04 FullContactRelief:  No*
G04 UndefLineWidth:     0.020*
G04 ================== end FILE IDENTIFICATION RECORD ====================*
%FSLAX44Y44*MOMM*%
%IR0*IPPOS*OFA0.00000B0.00000*MIA0B0*SFA1.00000B1.00000*%
%ADD10C,.03*%
%ADD11C,.05*%
%ADD12C,.1*%
%ADD13C,.02*%
%ADD14C,.15*%
%ADD15C,.003*%
G75*
%LPD*%
G75*
G54D10*
G01X1205170Y1237530D02*
X1205370Y1237930D01*
X1205500Y1238400D01*
Y1238930D01*
X1205300Y1239530D01*
X1204970Y1240000D01*
X1204570Y1240330D01*
X1203900Y1240600D01*
X1203300Y1240670D01*
X1202700Y1240530D01*
X1202300Y1240330D01*
X1201900Y1239930D01*
X1201630Y1239470D01*
X1201500Y1239000D01*
Y1238530D01*
X1201630Y1238070D01*
X1201830Y1237670D01*
X1202100Y1237330D01*
G01X1201500Y1234700D02*
X1205500D01*
X1204700Y1235500D01*
G01X1201500D02*
Y1233900D01*
G01X1201970Y1231530D02*
X1201630Y1231070D01*
X1201500Y1230530D01*
X1201630Y1230000D01*
X1202030Y1229530D01*
X1202630Y1229200D01*
X1203230Y1229070D01*
X1203970D01*
X1204570Y1229200D01*
X1205100Y1229530D01*
X1205370Y1229930D01*
X1205500Y1230400D01*
X1205370Y1230930D01*
X1205100Y1231330D01*
X1204700Y1231600D01*
X1204170Y1231730D01*
X1203700Y1231600D01*
X1203230Y1231270D01*
X1202970Y1230870D01*
X1202900Y1230400D01*
X1203030Y1229870D01*
X1203370Y1229470D01*
X1203970Y1229070D01*
G01X1195670Y1248530D02*
X1195870Y1248930D01*
X1196000Y1249400D01*
Y1249930D01*
X1195800Y1250530D01*
X1195470Y1251000D01*
X1195070Y1251330D01*
X1194400Y1251600D01*
X1193800Y1251670D01*
X1193200Y1251530D01*
X1192800Y1251330D01*
X1192400Y1250930D01*
X1192130Y1250470D01*
X1192000Y1250000D01*
Y1249530D01*
X1192130Y1249070D01*
X1192330Y1248670D01*
X1192600Y1248330D01*
G01X1192800Y1247170D02*
X1192330Y1246770D01*
X1192070Y1246230D01*
X1192000Y1245630D01*
X1192070Y1245100D01*
X1192400Y1244570D01*
X1192800Y1244230D01*
X1193200Y1244170D01*
X1193670Y1244300D01*
X1194000Y1244770D01*
X1194130Y1245230D01*
Y1245830D01*
G01Y1245230D02*
X1194330Y1244830D01*
X1194670Y1244500D01*
X1195070Y1244370D01*
X1195470Y1244500D01*
X1195800Y1244830D01*
X1196000Y1245430D01*
X1195930Y1246030D01*
X1195670Y1246630D01*
G01X1195330Y1242670D02*
X1195730Y1242270D01*
X1195930Y1241800D01*
X1196000Y1241270D01*
X1195870Y1240600D01*
X1195530Y1240130D01*
X1195130Y1240000D01*
X1194730Y1240070D01*
X1194400Y1240330D01*
X1193730Y1241670D01*
X1193270Y1242270D01*
X1192600Y1242670D01*
X1192000Y1242800D01*
Y1240000D01*
G01X1199830Y1289470D02*
X1199630Y1289070D01*
X1199500Y1288600D01*
Y1288070D01*
X1199700Y1287470D01*
X1200030Y1287000D01*
X1200430Y1286670D01*
X1201100Y1286400D01*
X1201700Y1286330D01*
X1202300Y1286470D01*
X1202700Y1286670D01*
X1203100Y1287070D01*
X1203370Y1287530D01*
X1203500Y1288000D01*
Y1288470D01*
X1203370Y1288930D01*
X1203170Y1289330D01*
X1202900Y1289670D01*
G01X1200170Y1291030D02*
X1199770Y1291430D01*
X1199570Y1291900D01*
X1199500Y1292430D01*
X1199630Y1293100D01*
X1199970Y1293570D01*
X1200370Y1293700D01*
X1200770Y1293630D01*
X1201100Y1293370D01*
X1201770Y1292030D01*
X1202230Y1291430D01*
X1202900Y1291030D01*
X1203500Y1290900D01*
Y1293700D01*
G01Y1296600D02*
X1199500D01*
X1200300Y1295800D01*
G01X1203500D02*
Y1297400D01*
G01X1198830Y1253470D02*
X1198630Y1253070D01*
X1198500Y1252600D01*
Y1252070D01*
X1198700Y1251470D01*
X1199030Y1251000D01*
X1199430Y1250670D01*
X1200100Y1250400D01*
X1200700Y1250330D01*
X1201300Y1250470D01*
X1201700Y1250670D01*
X1202100Y1251070D01*
X1202370Y1251530D01*
X1202500Y1252000D01*
Y1252470D01*
X1202370Y1252930D01*
X1202170Y1253330D01*
X1201900Y1253670D01*
G01X1202500Y1256300D02*
X1198500D01*
X1199300Y1255500D01*
G01X1202500D02*
Y1257100D01*
G01X1200830Y1259330D02*
X1200370Y1259800D01*
X1200100Y1260200D01*
X1199970Y1260730D01*
X1200100Y1261200D01*
X1200370Y1261530D01*
X1200770Y1261800D01*
X1201230Y1261870D01*
X1201630Y1261800D01*
X1202030Y1261530D01*
X1202370Y1261130D01*
X1202500Y1260670D01*
X1202370Y1260130D01*
X1201970Y1259670D01*
X1201370Y1259400D01*
X1200700Y1259330D01*
X1199830Y1259470D01*
X1199370Y1259670D01*
X1198900Y1260000D01*
X1198570Y1260470D01*
X1198500Y1260930D01*
X1198630Y1261400D01*
X1198970Y1261730D01*
G01X1238330Y1178500D02*
Y1182500D01*
X1235670D01*
G01X1234170Y1181700D02*
X1233770Y1182170D01*
X1233230Y1182430D01*
X1232630Y1182500D01*
X1232100Y1182430D01*
X1231570Y1182100D01*
X1231230Y1181700D01*
X1231170Y1181300D01*
X1231300Y1180830D01*
X1231770Y1180500D01*
X1232230Y1180370D01*
X1232830D01*
G01X1232230D02*
X1231830Y1180170D01*
X1231500Y1179830D01*
X1231370Y1179430D01*
X1231500Y1179030D01*
X1231830Y1178700D01*
X1232430Y1178500D01*
X1233030Y1178570D01*
X1233630Y1178830D01*
G01X1215830Y1289470D02*
X1215630Y1289070D01*
X1215500Y1288600D01*
Y1288070D01*
X1215700Y1287470D01*
X1216030Y1287000D01*
X1216430Y1286670D01*
X1217100Y1286400D01*
X1217700Y1286330D01*
X1218300Y1286470D01*
X1218700Y1286670D01*
X1219100Y1287070D01*
X1219370Y1287530D01*
X1219500Y1288000D01*
Y1288470D01*
X1219370Y1288930D01*
X1219170Y1289330D01*
X1218900Y1289670D01*
G01X1216170Y1291030D02*
X1215770Y1291430D01*
X1215570Y1291900D01*
X1215500Y1292430D01*
X1215630Y1293100D01*
X1215970Y1293570D01*
X1216370Y1293700D01*
X1216770Y1293630D01*
X1217100Y1293370D01*
X1217770Y1292030D01*
X1218230Y1291430D01*
X1218900Y1291030D01*
X1219500Y1290900D01*
Y1293700D01*
G01X1218900Y1295130D02*
X1219230Y1295530D01*
X1219430Y1296000D01*
X1219500Y1296600D01*
X1219370Y1297200D01*
X1219100Y1297670D01*
X1218630Y1298000D01*
X1218100Y1298070D01*
X1217570Y1297930D01*
X1217230Y1297600D01*
X1216970Y1297130D01*
X1216900Y1296670D01*
X1216970Y1296200D01*
X1217230Y1295600D01*
X1215500Y1295800D01*
Y1297600D01*
G01X1214170Y1284530D02*
X1214370Y1284930D01*
X1214500Y1285400D01*
Y1285930D01*
X1214300Y1286530D01*
X1213970Y1287000D01*
X1213570Y1287330D01*
X1212900Y1287600D01*
X1212300Y1287670D01*
X1211700Y1287530D01*
X1211300Y1287330D01*
X1210900Y1286930D01*
X1210630Y1286470D01*
X1210500Y1286000D01*
Y1285530D01*
X1210630Y1285070D01*
X1210830Y1284670D01*
X1211100Y1284330D01*
G01X1213830Y1282970D02*
X1214230Y1282570D01*
X1214430Y1282100D01*
X1214500Y1281570D01*
X1214370Y1280900D01*
X1214030Y1280430D01*
X1213630Y1280300D01*
X1213230Y1280370D01*
X1212900Y1280630D01*
X1212230Y1281970D01*
X1211770Y1282570D01*
X1211100Y1282970D01*
X1210500Y1283100D01*
Y1280300D01*
G01X1212170Y1278670D02*
X1212630Y1278200D01*
X1212900Y1277800D01*
X1213030Y1277270D01*
X1212900Y1276800D01*
X1212630Y1276470D01*
X1212230Y1276200D01*
X1211770Y1276130D01*
X1211370Y1276200D01*
X1210970Y1276470D01*
X1210630Y1276870D01*
X1210500Y1277330D01*
X1210630Y1277870D01*
X1211030Y1278330D01*
X1211630Y1278600D01*
X1212300Y1278670D01*
X1213170Y1278530D01*
X1213630Y1278330D01*
X1214100Y1278000D01*
X1214430Y1277530D01*
X1214500Y1277070D01*
X1214370Y1276600D01*
X1214030Y1276270D01*
G01X1227670Y1290500D02*
Y1286500D01*
X1230330D01*
G01X1232030Y1289830D02*
X1232430Y1290230D01*
X1232900Y1290430D01*
X1233430Y1290500D01*
X1234100Y1290370D01*
X1234570Y1290030D01*
X1234700Y1289630D01*
X1234630Y1289230D01*
X1234370Y1288900D01*
X1233030Y1288230D01*
X1232430Y1287770D01*
X1232030Y1287100D01*
X1231900Y1286500D01*
X1234700D01*
G01X1233500Y1295670D02*
X1237500D01*
Y1298330D01*
G01Y1302100D02*
X1233500D01*
X1236370Y1299630D01*
Y1302970D01*
G01X1233830Y1348470D02*
X1233630Y1348070D01*
X1233500Y1347600D01*
Y1347070D01*
X1233700Y1346470D01*
X1234030Y1346000D01*
X1234430Y1345670D01*
X1235100Y1345400D01*
X1235700Y1345330D01*
X1236300Y1345470D01*
X1236700Y1345670D01*
X1237100Y1346070D01*
X1237370Y1346530D01*
X1237500Y1347000D01*
Y1347470D01*
X1237370Y1347930D01*
X1237170Y1348330D01*
X1236900Y1348670D01*
G01X1234170Y1350030D02*
X1233770Y1350430D01*
X1233570Y1350900D01*
X1233500Y1351430D01*
X1233630Y1352100D01*
X1233970Y1352570D01*
X1234370Y1352700D01*
X1234770Y1352630D01*
X1235100Y1352370D01*
X1235770Y1351030D01*
X1236230Y1350430D01*
X1236900Y1350030D01*
X1237500Y1349900D01*
Y1352700D01*
G01Y1355470D02*
X1236630Y1355600D01*
X1235900Y1355800D01*
X1235230Y1356070D01*
X1234500Y1356400D01*
X1233500Y1356930D01*
Y1354270D01*
G01X1273670Y1231500D02*
Y1235500D01*
X1275330D01*
X1275870Y1235300D01*
X1276200Y1235030D01*
X1276330Y1234500D01*
X1276200Y1233970D01*
X1275800Y1233630D01*
X1275330Y1233430D01*
X1273670D01*
G01X1275330D02*
X1276330Y1231500D01*
G01X1279300D02*
Y1235500D01*
X1278500Y1234700D01*
G01Y1231500D02*
X1280100D01*
G01X1282130Y1232300D02*
X1282530Y1231830D01*
X1283070Y1231570D01*
X1283670Y1231500D01*
X1284200Y1231570D01*
X1284730Y1231900D01*
X1285070Y1232300D01*
X1285130Y1232700D01*
X1285000Y1233170D01*
X1284530Y1233500D01*
X1284070Y1233630D01*
X1283470D01*
G01X1284070D02*
X1284470Y1233830D01*
X1284800Y1234170D01*
X1284930Y1234570D01*
X1284800Y1234970D01*
X1284470Y1235300D01*
X1283870Y1235500D01*
X1283270Y1235430D01*
X1282670Y1235170D01*
G01X1273670Y1242500D02*
Y1246500D01*
X1275330D01*
X1275870Y1246300D01*
X1276200Y1246030D01*
X1276330Y1245500D01*
X1276200Y1244970D01*
X1275800Y1244630D01*
X1275330Y1244430D01*
X1273670D01*
G01X1275330D02*
X1276330Y1242500D01*
G01X1279300D02*
Y1246500D01*
X1278500Y1245700D01*
G01Y1242500D02*
X1280100D01*
G01X1284400D02*
Y1246500D01*
X1281930Y1243630D01*
X1285270D01*
G01X1264970Y1280170D02*
X1264570Y1280370D01*
X1264100Y1280500D01*
X1263570D01*
X1262970Y1280300D01*
X1262500Y1279970D01*
X1262170Y1279570D01*
X1261900Y1278900D01*
X1261830Y1278300D01*
X1261970Y1277700D01*
X1262170Y1277300D01*
X1262570Y1276900D01*
X1263030Y1276630D01*
X1263500Y1276500D01*
X1263970D01*
X1264430Y1276630D01*
X1264830Y1276830D01*
X1265170Y1277100D01*
G01X1266530Y1279830D02*
X1266930Y1280230D01*
X1267400Y1280430D01*
X1267930Y1280500D01*
X1268600Y1280370D01*
X1269070Y1280030D01*
X1269200Y1279630D01*
X1269130Y1279230D01*
X1268870Y1278900D01*
X1267530Y1278230D01*
X1266930Y1277770D01*
X1266530Y1277100D01*
X1266400Y1276500D01*
X1269200D01*
G01X1270970Y1276970D02*
X1271430Y1276630D01*
X1271970Y1276500D01*
X1272500Y1276630D01*
X1272970Y1277030D01*
X1273300Y1277630D01*
X1273430Y1278230D01*
Y1278970D01*
X1273300Y1279570D01*
X1272970Y1280100D01*
X1272570Y1280370D01*
X1272100Y1280500D01*
X1271570Y1280370D01*
X1271170Y1280100D01*
X1270900Y1279700D01*
X1270770Y1279170D01*
X1270900Y1278700D01*
X1271230Y1278230D01*
X1271630Y1277970D01*
X1272100Y1277900D01*
X1272630Y1278030D01*
X1273030Y1278370D01*
X1273430Y1278970D01*
G01X1271830Y1267000D02*
Y1263000D01*
X1270170D01*
X1269630Y1263200D01*
X1269300Y1263470D01*
X1269170Y1264000D01*
X1269300Y1264530D01*
X1269700Y1264870D01*
X1270170Y1265070D01*
X1271830D01*
G01X1270170D02*
X1269170Y1267000D01*
G01X1267470Y1263670D02*
X1267070Y1263270D01*
X1266600Y1263070D01*
X1266070Y1263000D01*
X1265400Y1263130D01*
X1264930Y1263470D01*
X1264800Y1263870D01*
X1264870Y1264270D01*
X1265130Y1264600D01*
X1266470Y1265270D01*
X1267070Y1265730D01*
X1267470Y1266400D01*
X1267600Y1267000D01*
X1264800D01*
G01X1273670Y1250500D02*
Y1254500D01*
X1275330D01*
X1275870Y1254300D01*
X1276200Y1254030D01*
X1276330Y1253500D01*
X1276200Y1252970D01*
X1275800Y1252630D01*
X1275330Y1252430D01*
X1273670D01*
G01X1275330D02*
X1276330Y1250500D01*
G01X1279300D02*
Y1254500D01*
X1278500Y1253700D01*
G01Y1250500D02*
X1280100D01*
G01X1282130Y1251100D02*
X1282530Y1250770D01*
X1283000Y1250570D01*
X1283600Y1250500D01*
X1284200Y1250630D01*
X1284670Y1250900D01*
X1285000Y1251370D01*
X1285070Y1251900D01*
X1284930Y1252430D01*
X1284600Y1252770D01*
X1284130Y1253030D01*
X1283670Y1253100D01*
X1283200Y1253030D01*
X1282600Y1252770D01*
X1282800Y1254500D01*
X1284600D01*
G01X1306530Y1238830D02*
X1306930Y1238630D01*
X1307400Y1238500D01*
X1307930D01*
X1308530Y1238700D01*
X1309000Y1239030D01*
X1309330Y1239430D01*
X1309600Y1240100D01*
X1309670Y1240700D01*
X1309530Y1241300D01*
X1309330Y1241700D01*
X1308930Y1242100D01*
X1308470Y1242370D01*
X1308000Y1242500D01*
X1307530D01*
X1307070Y1242370D01*
X1306670Y1242170D01*
X1306330Y1241900D01*
G01X1305170Y1241700D02*
X1304770Y1242170D01*
X1304230Y1242430D01*
X1303630Y1242500D01*
X1303100Y1242430D01*
X1302570Y1242100D01*
X1302230Y1241700D01*
X1302170Y1241300D01*
X1302300Y1240830D01*
X1302770Y1240500D01*
X1303230Y1240370D01*
X1303830D01*
G01X1303230D02*
X1302830Y1240170D01*
X1302500Y1239830D01*
X1302370Y1239430D01*
X1302500Y1239030D01*
X1302830Y1238700D01*
X1303430Y1238500D01*
X1304030Y1238570D01*
X1304630Y1238830D01*
G01X1299530Y1242500D02*
X1299400Y1241630D01*
X1299200Y1240900D01*
X1298930Y1240230D01*
X1298600Y1239500D01*
X1298070Y1238500D01*
X1300730D01*
G01X1313530Y1227830D02*
X1313930Y1227630D01*
X1314400Y1227500D01*
X1314930D01*
X1315530Y1227700D01*
X1316000Y1228030D01*
X1316330Y1228430D01*
X1316600Y1229100D01*
X1316670Y1229700D01*
X1316530Y1230300D01*
X1316330Y1230700D01*
X1315930Y1231100D01*
X1315470Y1231370D01*
X1315000Y1231500D01*
X1314530D01*
X1314070Y1231370D01*
X1313670Y1231170D01*
X1313330Y1230900D01*
G01X1312170Y1230700D02*
X1311770Y1231170D01*
X1311230Y1231430D01*
X1310630Y1231500D01*
X1310100Y1231430D01*
X1309570Y1231100D01*
X1309230Y1230700D01*
X1309170Y1230300D01*
X1309300Y1229830D01*
X1309770Y1229500D01*
X1310230Y1229370D01*
X1310830D01*
G01X1310230D02*
X1309830Y1229170D01*
X1309500Y1228830D01*
X1309370Y1228430D01*
X1309500Y1228030D01*
X1309830Y1227700D01*
X1310430Y1227500D01*
X1311030Y1227570D01*
X1311630Y1227830D01*
G01X1306400Y1231500D02*
X1305930Y1231430D01*
X1305400Y1231230D01*
X1305070Y1230900D01*
X1304930Y1230430D01*
X1305070Y1229970D01*
X1305470Y1229570D01*
X1306070Y1229370D01*
X1306730D01*
X1307130Y1229230D01*
X1307470Y1228900D01*
X1307600Y1228430D01*
X1307400Y1227970D01*
X1306930Y1227630D01*
X1306400Y1227500D01*
X1305870Y1227630D01*
X1305400Y1227970D01*
X1305200Y1228430D01*
X1305330Y1228900D01*
X1305670Y1229230D01*
X1306070Y1229370D01*
X1306730D01*
X1307330Y1229570D01*
X1307730Y1229970D01*
X1307870Y1230430D01*
X1307730Y1230900D01*
X1307400Y1231230D01*
X1306870Y1231430D01*
X1306400Y1231500D01*
G01X1306530Y1249830D02*
X1306930Y1249630D01*
X1307400Y1249500D01*
X1307930D01*
X1308530Y1249700D01*
X1309000Y1250030D01*
X1309330Y1250430D01*
X1309600Y1251100D01*
X1309670Y1251700D01*
X1309530Y1252300D01*
X1309330Y1252700D01*
X1308930Y1253100D01*
X1308470Y1253370D01*
X1308000Y1253500D01*
X1307530D01*
X1307070Y1253370D01*
X1306670Y1253170D01*
X1306330Y1252900D01*
G01X1305170Y1252700D02*
X1304770Y1253170D01*
X1304230Y1253430D01*
X1303630Y1253500D01*
X1303100Y1253430D01*
X1302570Y1253100D01*
X1302230Y1252700D01*
X1302170Y1252300D01*
X1302300Y1251830D01*
X1302770Y1251500D01*
X1303230Y1251370D01*
X1303830D01*
G01X1303230D02*
X1302830Y1251170D01*
X1302500Y1250830D01*
X1302370Y1250430D01*
X1302500Y1250030D01*
X1302830Y1249700D01*
X1303430Y1249500D01*
X1304030Y1249570D01*
X1304630Y1249830D01*
G01X1300670Y1251830D02*
X1300200Y1251370D01*
X1299800Y1251100D01*
X1299270Y1250970D01*
X1298800Y1251100D01*
X1298470Y1251370D01*
X1298200Y1251770D01*
X1298130Y1252230D01*
X1298200Y1252630D01*
X1298470Y1253030D01*
X1298870Y1253370D01*
X1299330Y1253500D01*
X1299870Y1253370D01*
X1300330Y1252970D01*
X1300600Y1252370D01*
X1300670Y1251700D01*
X1300530Y1250830D01*
X1300330Y1250370D01*
X1300000Y1249900D01*
X1299530Y1249570D01*
X1299070Y1249500D01*
X1298600Y1249630D01*
X1298270Y1249970D01*
G54D11*
G01X1065610Y955050D02*
Y961550D01*
X1069730D01*
G01X1068210Y958410D02*
X1065610D01*
G01X1073370Y961550D02*
X1075970D01*
G01X1074670D02*
Y955050D01*
G01X1073370D02*
X1075970D01*
G01X1079290D02*
Y961550D01*
X1081450D01*
X1082320Y961220D01*
X1082970Y960790D01*
X1083510Y960140D01*
X1083950Y959380D01*
X1084050Y958300D01*
X1083950Y957220D01*
X1083510Y956460D01*
X1082970Y955810D01*
X1082320Y955370D01*
X1081450Y955050D01*
X1079290D01*
G01X1086290Y961550D02*
Y956890D01*
X1086720Y955920D01*
X1087590Y955270D01*
X1088670Y955050D01*
X1089750Y955270D01*
X1090620Y955920D01*
X1091050Y956890D01*
Y961550D01*
G01X1095670Y955050D02*
Y961550D01*
X1094370Y960250D01*
G01Y955050D02*
X1096970D01*
G01X1071610Y1206050D02*
Y1212550D01*
X1075730D01*
G01X1074210Y1209410D02*
X1071610D01*
G01X1079370Y1212550D02*
X1081970D01*
G01X1080670D02*
Y1206050D01*
G01X1079370D02*
X1081970D01*
G01X1085290D02*
Y1212550D01*
X1087450D01*
X1088320Y1212220D01*
X1088970Y1211790D01*
X1089510Y1211140D01*
X1089950Y1210380D01*
X1090050Y1209300D01*
X1089950Y1208220D01*
X1089510Y1207460D01*
X1088970Y1206810D01*
X1088320Y1206370D01*
X1087450Y1206050D01*
X1085290D01*
G01X1092290Y1212550D02*
Y1207890D01*
X1092720Y1206920D01*
X1093590Y1206270D01*
X1094670Y1206050D01*
X1095750Y1206270D01*
X1096620Y1206920D01*
X1097050Y1207890D01*
Y1212550D01*
G01X1099290Y1207350D02*
X1099940Y1206590D01*
X1100800Y1206160D01*
X1101780Y1206050D01*
X1102650Y1206160D01*
X1103510Y1206700D01*
X1104050Y1207350D01*
X1104160Y1208000D01*
X1103950Y1208760D01*
X1103190Y1209300D01*
X1102430Y1209520D01*
X1101450D01*
G01X1102430D02*
X1103080Y1209840D01*
X1103620Y1210380D01*
X1103840Y1211030D01*
X1103620Y1211680D01*
X1103080Y1212220D01*
X1102100Y1212550D01*
X1101130Y1212440D01*
X1100150Y1212010D01*
G01X1111000Y1309760D02*
X1111650Y1310310D01*
X1112080Y1310950D01*
X1112300Y1311710D01*
X1112080Y1312580D01*
X1111650Y1313230D01*
X1111000Y1313880D01*
X1110130Y1314100D01*
X1105800D01*
G01X1112300Y1318930D02*
X1105800D01*
X1107100Y1317630D01*
G01X1112300D02*
Y1320230D01*
G01X1198240Y1430470D02*
X1200950Y1436970D01*
X1203660Y1430470D01*
G01X1202680Y1432740D02*
X1199220D01*
G01X1207950Y1430470D02*
Y1436970D01*
X1206650Y1435670D01*
G01Y1430470D02*
X1209250D01*
G01X1221680Y1248170D02*
Y1243510D01*
X1222110Y1242540D01*
X1222980Y1241890D01*
X1224060Y1241670D01*
X1225140Y1241890D01*
X1226010Y1242540D01*
X1226440Y1243510D01*
Y1248170D01*
G01X1229000Y1247090D02*
X1229650Y1247740D01*
X1230410Y1248060D01*
X1231280Y1248170D01*
X1232360Y1247950D01*
X1233120Y1247410D01*
X1233340Y1246760D01*
X1233230Y1246110D01*
X1232790Y1245570D01*
X1230630Y1244490D01*
X1229650Y1243730D01*
X1229000Y1242640D01*
X1228780Y1241670D01*
X1233340D01*
G01X1296400Y1176350D02*
X1299320D01*
X1302900Y1178520D01*
G01Y1174180D02*
X1299320Y1176350D01*
G01X1301820Y1171410D02*
X1302470Y1170760D01*
X1302790Y1170000D01*
X1302900Y1169130D01*
X1302680Y1168050D01*
X1302140Y1167290D01*
X1301490Y1167070D01*
X1300840Y1167180D01*
X1300300Y1167620D01*
X1299220Y1169780D01*
X1298460Y1170760D01*
X1297370Y1171410D01*
X1296400Y1171630D01*
Y1167070D01*
G01X1358630Y1079460D02*
X1357980Y1079780D01*
X1357230Y1080000D01*
X1356360D01*
X1355380Y1079670D01*
X1354630Y1079130D01*
X1354080Y1078480D01*
X1353650Y1077400D01*
X1353540Y1076420D01*
X1353760Y1075450D01*
X1354080Y1074800D01*
X1354730Y1074150D01*
X1355490Y1073720D01*
X1356250Y1073500D01*
X1357010D01*
X1357770Y1073720D01*
X1358420Y1074040D01*
X1358960Y1074470D01*
G01X1361190Y1078920D02*
X1361840Y1079570D01*
X1362600Y1079890D01*
X1363470Y1080000D01*
X1364550Y1079780D01*
X1365310Y1079240D01*
X1365530Y1078590D01*
X1365420Y1077940D01*
X1364980Y1077400D01*
X1362820Y1076320D01*
X1361840Y1075560D01*
X1361190Y1074470D01*
X1360970Y1073500D01*
X1365530D01*
G01X1354190Y1053500D02*
Y1060000D01*
X1358310D01*
G01X1356790Y1056860D02*
X1354190D01*
G01X1361080Y1060000D02*
Y1053500D01*
X1365420D01*
G01X1370250D02*
Y1060000D01*
X1368950Y1058700D01*
G01Y1053500D02*
X1371550D01*
G01X1430610Y953050D02*
Y959550D01*
X1434730D01*
G01X1433210Y956410D02*
X1430610D01*
G01X1438370Y959550D02*
X1440970D01*
G01X1439670D02*
Y953050D01*
G01X1438370D02*
X1440970D01*
G01X1444290D02*
Y959550D01*
X1446450D01*
X1447320Y959220D01*
X1447970Y958790D01*
X1448510Y958140D01*
X1448950Y957380D01*
X1449050Y956300D01*
X1448950Y955220D01*
X1448510Y954460D01*
X1447970Y953810D01*
X1447320Y953370D01*
X1446450Y953050D01*
X1444290D01*
G01X1451290Y959550D02*
Y954890D01*
X1451720Y953920D01*
X1452590Y953270D01*
X1453670Y953050D01*
X1454750Y953270D01*
X1455620Y953920D01*
X1456050Y954890D01*
Y959550D01*
G01X1458610Y958470D02*
X1459260Y959120D01*
X1460020Y959440D01*
X1460890Y959550D01*
X1461970Y959330D01*
X1462730Y958790D01*
X1462950Y958140D01*
X1462840Y957490D01*
X1462400Y956950D01*
X1460240Y955870D01*
X1459260Y955110D01*
X1458610Y954020D01*
X1458390Y953050D01*
X1462950D01*
G54D12*
G01X1166630Y1074960D02*
X1165980Y1075280D01*
X1165230Y1075500D01*
X1164360D01*
X1163380Y1075170D01*
X1162630Y1074630D01*
X1162080Y1073980D01*
X1161650Y1072900D01*
X1161540Y1071920D01*
X1161760Y1070950D01*
X1162080Y1070300D01*
X1162730Y1069650D01*
X1163490Y1069220D01*
X1164250Y1069000D01*
X1165010D01*
X1165770Y1069220D01*
X1166420Y1069540D01*
X1166960Y1069970D01*
G01X1169690Y1074420D02*
X1170340Y1075070D01*
X1171100Y1075390D01*
X1171970Y1075500D01*
X1173050Y1075280D01*
X1173810Y1074740D01*
X1174030Y1074090D01*
X1173920Y1073440D01*
X1173480Y1072900D01*
X1171320Y1071820D01*
X1170340Y1071060D01*
X1169690Y1069970D01*
X1169470Y1069000D01*
X1174030D01*
G01X1179250D02*
X1180010Y1069110D01*
X1180870Y1069430D01*
X1181420Y1069970D01*
X1181630Y1070730D01*
X1181420Y1071490D01*
X1180770Y1072140D01*
X1179790Y1072470D01*
X1178710D01*
X1178060Y1072680D01*
X1177520Y1073220D01*
X1177300Y1073980D01*
X1177630Y1074740D01*
X1178380Y1075280D01*
X1179250Y1075500D01*
X1180120Y1075280D01*
X1180870Y1074740D01*
X1181200Y1073980D01*
X1180980Y1073220D01*
X1180440Y1072680D01*
X1179790Y1072470D01*
X1178710D01*
X1177730Y1072140D01*
X1177080Y1071490D01*
X1176870Y1070730D01*
X1177080Y1069970D01*
X1177630Y1069430D01*
X1178490Y1069110D01*
X1179250Y1069000D01*
G01X1139630Y1089960D02*
X1138980Y1090280D01*
X1138230Y1090500D01*
X1137360D01*
X1136380Y1090170D01*
X1135630Y1089630D01*
X1135080Y1088980D01*
X1134650Y1087900D01*
X1134540Y1086920D01*
X1134760Y1085950D01*
X1135080Y1085300D01*
X1135730Y1084650D01*
X1136490Y1084220D01*
X1137250Y1084000D01*
X1138010D01*
X1138770Y1084220D01*
X1139420Y1084540D01*
X1139960Y1084970D01*
G01X1146050Y1084000D02*
Y1090500D01*
X1142040Y1085840D01*
X1147460D01*
G01X1139630Y1153960D02*
X1138980Y1154280D01*
X1138230Y1154500D01*
X1137360D01*
X1136380Y1154170D01*
X1135630Y1153630D01*
X1135080Y1152980D01*
X1134650Y1151900D01*
X1134540Y1150920D01*
X1134760Y1149950D01*
X1135080Y1149300D01*
X1135730Y1148650D01*
X1136490Y1148220D01*
X1137250Y1148000D01*
X1138010D01*
X1138770Y1148220D01*
X1139420Y1148540D01*
X1139960Y1148970D01*
G01X1142370Y1149300D02*
X1143020Y1148540D01*
X1143880Y1148110D01*
X1144860Y1148000D01*
X1145730Y1148110D01*
X1146590Y1148650D01*
X1147130Y1149300D01*
X1147240Y1149950D01*
X1147030Y1150710D01*
X1146270Y1151250D01*
X1145510Y1151470D01*
X1144530D01*
G01X1145510D02*
X1146160Y1151790D01*
X1146700Y1152330D01*
X1146920Y1152980D01*
X1146700Y1153630D01*
X1146160Y1154170D01*
X1145180Y1154500D01*
X1144210Y1154390D01*
X1143230Y1153960D01*
G01X1141630Y1185960D02*
X1140980Y1186280D01*
X1140230Y1186500D01*
X1139360D01*
X1138380Y1186170D01*
X1137630Y1185630D01*
X1137080Y1184980D01*
X1136650Y1183900D01*
X1136540Y1182920D01*
X1136760Y1181950D01*
X1137080Y1181300D01*
X1137730Y1180650D01*
X1138490Y1180220D01*
X1139250Y1180000D01*
X1140010D01*
X1140770Y1180220D01*
X1141420Y1180540D01*
X1141960Y1180970D01*
G01X1146750Y1180000D02*
Y1186500D01*
X1145450Y1185200D01*
G01Y1180000D02*
X1148050D01*
G01X1154250D02*
X1155010Y1180110D01*
X1155870Y1180430D01*
X1156420Y1180970D01*
X1156630Y1181730D01*
X1156420Y1182490D01*
X1155770Y1183140D01*
X1154790Y1183470D01*
X1153710D01*
X1153060Y1183680D01*
X1152520Y1184220D01*
X1152300Y1184980D01*
X1152630Y1185740D01*
X1153380Y1186280D01*
X1154250Y1186500D01*
X1155120Y1186280D01*
X1155870Y1185740D01*
X1156200Y1184980D01*
X1155980Y1184220D01*
X1155440Y1183680D01*
X1154790Y1183470D01*
X1153710D01*
X1152730Y1183140D01*
X1152080Y1182490D01*
X1151870Y1181730D01*
X1152080Y1180970D01*
X1152630Y1180430D01*
X1153490Y1180110D01*
X1154250Y1180000D01*
G01X1133750Y1205000D02*
Y1207920D01*
X1131580Y1211500D01*
G01X1135920D02*
X1133750Y1207920D01*
G01X1141250Y1205000D02*
Y1211500D01*
X1139950Y1210200D01*
G01Y1205000D02*
X1142550D01*
G01X1143630Y1239460D02*
X1142980Y1239780D01*
X1142230Y1240000D01*
X1141360D01*
X1140380Y1239670D01*
X1139630Y1239130D01*
X1139080Y1238480D01*
X1138650Y1237400D01*
X1138540Y1236420D01*
X1138760Y1235450D01*
X1139080Y1234800D01*
X1139730Y1234150D01*
X1140490Y1233720D01*
X1141250Y1233500D01*
X1142010D01*
X1142770Y1233720D01*
X1143420Y1234040D01*
X1143960Y1234470D01*
G01X1148750Y1233500D02*
Y1240000D01*
X1147450Y1238700D01*
G01Y1233500D02*
X1150050D01*
G01X1156030D02*
X1156250Y1234910D01*
X1156580Y1236100D01*
X1157010Y1237180D01*
X1157550Y1238370D01*
X1158420Y1240000D01*
X1154080D01*
G01X1205080Y1046500D02*
Y1040000D01*
X1209420D01*
G01X1214750D02*
Y1046500D01*
X1213450Y1045200D01*
G01Y1040000D02*
X1216050D01*
G01X1200870Y1127500D02*
Y1122840D01*
X1201300Y1121870D01*
X1202170Y1121220D01*
X1203250Y1121000D01*
X1204330Y1121220D01*
X1205200Y1121870D01*
X1205630Y1122840D01*
Y1127500D01*
G01X1210750Y1121000D02*
Y1127500D01*
X1209450Y1126200D01*
G01Y1121000D02*
X1212050D01*
G01X1227630Y1029960D02*
X1226980Y1030280D01*
X1226230Y1030500D01*
X1225360D01*
X1224380Y1030170D01*
X1223630Y1029630D01*
X1223080Y1028980D01*
X1222650Y1027900D01*
X1222540Y1026920D01*
X1222760Y1025950D01*
X1223080Y1025300D01*
X1223730Y1024650D01*
X1224490Y1024220D01*
X1225250Y1024000D01*
X1226010D01*
X1226770Y1024220D01*
X1227420Y1024540D01*
X1227960Y1024970D01*
G01X1232750Y1024000D02*
Y1030500D01*
X1231450Y1029200D01*
G01Y1024000D02*
X1234050D01*
G01X1254200Y1054230D02*
X1253970Y1054920D01*
X1253580Y1055610D01*
X1252970Y1056220D01*
X1252050Y1056680D01*
X1251130Y1056830D01*
X1250290Y1056760D01*
X1249220Y1056300D01*
X1248450Y1055690D01*
X1247920Y1054840D01*
X1247690Y1054150D01*
Y1053230D01*
X1247920Y1052390D01*
X1248300Y1051700D01*
X1248830Y1051170D01*
X1249520Y1050780D01*
X1250210Y1050550D01*
X1250900Y1050480D01*
G01X1253440Y1046560D02*
X1254590Y1047400D01*
X1255670Y1048010D01*
X1256740Y1048470D01*
X1257960Y1048930D01*
X1259730Y1049470D01*
X1256660Y1052530D01*
G01X1237200Y1054230D02*
X1236970Y1054920D01*
X1236580Y1055610D01*
X1235970Y1056220D01*
X1235050Y1056680D01*
X1234130Y1056830D01*
X1233290Y1056760D01*
X1232220Y1056300D01*
X1231450Y1055690D01*
X1230920Y1054840D01*
X1230690Y1054150D01*
Y1053230D01*
X1230920Y1052390D01*
X1231300Y1051700D01*
X1231830Y1051170D01*
X1232520Y1050780D01*
X1233210Y1050550D01*
X1233900Y1050480D01*
G01X1237060Y1049770D02*
X1238130D01*
X1238900Y1049620D01*
X1239660Y1049160D01*
X1240050Y1048470D01*
X1240120Y1047780D01*
X1239970Y1047010D01*
X1239510Y1046400D01*
X1238970Y1046020D01*
X1238210Y1045870D01*
X1237360Y1045940D01*
X1236670Y1046330D01*
X1236220Y1047090D01*
X1236140Y1048090D01*
X1236520Y1049080D01*
X1237210Y1049930D01*
X1238360Y1050770D01*
X1239130Y1051070D01*
X1240050Y1051230D01*
X1240960Y1051070D01*
X1241580Y1050620D01*
X1241960Y1049930D01*
Y1049160D01*
G01X1249370Y1160040D02*
X1250020Y1159720D01*
X1250770Y1159500D01*
X1251640D01*
X1252620Y1159830D01*
X1253370Y1160370D01*
X1253920Y1161020D01*
X1254350Y1162100D01*
X1254460Y1163080D01*
X1254240Y1164050D01*
X1253920Y1164700D01*
X1253270Y1165350D01*
X1252510Y1165780D01*
X1251750Y1166000D01*
X1250990D01*
X1250230Y1165780D01*
X1249580Y1165460D01*
X1249040Y1165030D01*
G01X1244250Y1166000D02*
X1243490Y1165890D01*
X1242630Y1165570D01*
X1242080Y1165030D01*
X1241870Y1164270D01*
X1242080Y1163510D01*
X1242730Y1162860D01*
X1243710Y1162530D01*
X1244790D01*
X1245440Y1162320D01*
X1245980Y1161780D01*
X1246200Y1161020D01*
X1245870Y1160260D01*
X1245120Y1159720D01*
X1244250Y1159500D01*
X1243380Y1159720D01*
X1242630Y1160260D01*
X1242300Y1161020D01*
X1242520Y1161780D01*
X1243060Y1162320D01*
X1243710Y1162530D01*
X1244790D01*
X1245770Y1162860D01*
X1246420Y1163510D01*
X1246630Y1164270D01*
X1246420Y1165030D01*
X1245870Y1165570D01*
X1245010Y1165890D01*
X1244250Y1166000D01*
G01X1212630Y1276960D02*
X1211980Y1277280D01*
X1211230Y1277500D01*
X1210360D01*
X1209380Y1277170D01*
X1208630Y1276630D01*
X1208080Y1275980D01*
X1207650Y1274900D01*
X1207540Y1273920D01*
X1207760Y1272950D01*
X1208080Y1272300D01*
X1208730Y1271650D01*
X1209490Y1271220D01*
X1210250Y1271000D01*
X1211010D01*
X1211770Y1271220D01*
X1212420Y1271540D01*
X1212960Y1271970D01*
G01X1217750Y1271000D02*
Y1277500D01*
X1216450Y1276200D01*
G01Y1271000D02*
X1219050D01*
G01X1223190Y1276420D02*
X1223840Y1277070D01*
X1224600Y1277390D01*
X1225470Y1277500D01*
X1226550Y1277280D01*
X1227310Y1276740D01*
X1227530Y1276090D01*
X1227420Y1275440D01*
X1226980Y1274900D01*
X1224820Y1273820D01*
X1223840Y1273060D01*
X1223190Y1271970D01*
X1222970Y1271000D01*
X1227530D01*
G01X1209080Y1328500D02*
Y1322000D01*
X1213420D01*
G01X1218750D02*
Y1328500D01*
X1217450Y1327200D01*
G01Y1322000D02*
X1220050D01*
G01X1223870Y1323300D02*
X1224520Y1322540D01*
X1225380Y1322110D01*
X1226360Y1322000D01*
X1227230Y1322110D01*
X1228090Y1322650D01*
X1228630Y1323300D01*
X1228740Y1323950D01*
X1228530Y1324710D01*
X1227770Y1325250D01*
X1227010Y1325470D01*
X1226030D01*
G01X1227010D02*
X1227660Y1325790D01*
X1228200Y1326330D01*
X1228420Y1326980D01*
X1228200Y1327630D01*
X1227660Y1328170D01*
X1226680Y1328500D01*
X1225710Y1328390D01*
X1224730Y1327960D01*
G01X1260370Y1311040D02*
X1261020Y1310720D01*
X1261770Y1310500D01*
X1262640D01*
X1263620Y1310830D01*
X1264370Y1311370D01*
X1264920Y1312020D01*
X1265350Y1313100D01*
X1265460Y1314080D01*
X1265240Y1315050D01*
X1264920Y1315700D01*
X1264270Y1316350D01*
X1263510Y1316780D01*
X1262750Y1317000D01*
X1261990D01*
X1261230Y1316780D01*
X1260580Y1316460D01*
X1260040Y1316030D01*
G01X1255250Y1317000D02*
Y1310500D01*
X1256550Y1311800D01*
G01Y1317000D02*
X1253950D01*
G01X1250130Y1315700D02*
X1249480Y1316460D01*
X1248620Y1316890D01*
X1247640Y1317000D01*
X1246770Y1316890D01*
X1245910Y1316350D01*
X1245370Y1315700D01*
X1245260Y1315050D01*
X1245470Y1314290D01*
X1246230Y1313750D01*
X1246990Y1313530D01*
X1247970D01*
G01X1246990D02*
X1246340Y1313210D01*
X1245800Y1312670D01*
X1245580Y1312020D01*
X1245800Y1311370D01*
X1246340Y1310830D01*
X1247320Y1310500D01*
X1248290Y1310610D01*
X1249270Y1311040D01*
G01X1244960Y1360370D02*
X1245280Y1361020D01*
X1245500Y1361770D01*
Y1362640D01*
X1245170Y1363620D01*
X1244630Y1364370D01*
X1243980Y1364920D01*
X1242900Y1365350D01*
X1241920Y1365460D01*
X1240950Y1365240D01*
X1240300Y1364920D01*
X1239650Y1364270D01*
X1239220Y1363510D01*
X1239000Y1362750D01*
Y1361990D01*
X1239220Y1361230D01*
X1239540Y1360580D01*
X1239970Y1360040D01*
G01X1239000Y1355250D02*
X1245500D01*
X1244200Y1356550D01*
G01X1239000D02*
Y1353950D01*
G01Y1346450D02*
X1245500D01*
X1240840Y1350460D01*
Y1345040D01*
G01X1260370Y1350040D02*
X1261020Y1349720D01*
X1261770Y1349500D01*
X1262640D01*
X1263620Y1349830D01*
X1264370Y1350370D01*
X1264920Y1351020D01*
X1265350Y1352100D01*
X1265460Y1353080D01*
X1265240Y1354050D01*
X1264920Y1354700D01*
X1264270Y1355350D01*
X1263510Y1355780D01*
X1262750Y1356000D01*
X1261990D01*
X1261230Y1355780D01*
X1260580Y1355460D01*
X1260040Y1355030D01*
G01X1257310Y1350580D02*
X1256660Y1349930D01*
X1255900Y1349610D01*
X1255030Y1349500D01*
X1253950Y1349720D01*
X1253190Y1350260D01*
X1252970Y1350910D01*
X1253080Y1351560D01*
X1253520Y1352100D01*
X1255680Y1353180D01*
X1256660Y1353940D01*
X1257310Y1355030D01*
X1257530Y1356000D01*
X1252970D01*
G01X1246450D02*
Y1349500D01*
X1250460Y1354160D01*
X1245040D01*
G01X1237630Y1396960D02*
X1236980Y1397280D01*
X1236230Y1397500D01*
X1235360D01*
X1234380Y1397170D01*
X1233630Y1396630D01*
X1233080Y1395980D01*
X1232650Y1394900D01*
X1232540Y1393920D01*
X1232760Y1392950D01*
X1233080Y1392300D01*
X1233730Y1391650D01*
X1234490Y1391220D01*
X1235250Y1391000D01*
X1236010D01*
X1236770Y1391220D01*
X1237420Y1391540D01*
X1237960Y1391970D01*
G01X1242750Y1391000D02*
Y1397500D01*
X1241450Y1396200D01*
G01Y1391000D02*
X1244050D01*
G01X1247870Y1391970D02*
X1248520Y1391430D01*
X1249270Y1391110D01*
X1250250Y1391000D01*
X1251230Y1391220D01*
X1251980Y1391650D01*
X1252530Y1392410D01*
X1252630Y1393270D01*
X1252420Y1394140D01*
X1251870Y1394680D01*
X1251120Y1395120D01*
X1250360Y1395220D01*
X1249600Y1395120D01*
X1248630Y1394680D01*
X1248950Y1397500D01*
X1251870D01*
G01X1275630Y1081960D02*
X1274980Y1082280D01*
X1274230Y1082500D01*
X1273360D01*
X1272380Y1082170D01*
X1271630Y1081630D01*
X1271080Y1080980D01*
X1270650Y1079900D01*
X1270540Y1078920D01*
X1270760Y1077950D01*
X1271080Y1077300D01*
X1271730Y1076650D01*
X1272490Y1076220D01*
X1273250Y1076000D01*
X1274010D01*
X1274770Y1076220D01*
X1275420Y1076540D01*
X1275960Y1076970D01*
G01X1278690Y1081420D02*
X1279340Y1082070D01*
X1280100Y1082390D01*
X1280970Y1082500D01*
X1282050Y1082280D01*
X1282810Y1081740D01*
X1283030Y1081090D01*
X1282920Y1080440D01*
X1282480Y1079900D01*
X1280320Y1078820D01*
X1279340Y1078060D01*
X1278690Y1076970D01*
X1278470Y1076000D01*
X1283030D01*
G01X1288250Y1082500D02*
X1287380Y1082280D01*
X1286730Y1081740D01*
X1286300Y1081090D01*
X1285970Y1080220D01*
X1285870Y1079250D01*
X1285970Y1078270D01*
X1286300Y1077410D01*
X1286730Y1076760D01*
X1287380Y1076220D01*
X1288250Y1076000D01*
X1289120Y1076220D01*
X1289770Y1076760D01*
X1290200Y1077410D01*
X1290530Y1078270D01*
X1290630Y1079250D01*
X1290530Y1080220D01*
X1290200Y1081090D01*
X1289770Y1081740D01*
X1289120Y1082280D01*
X1288250Y1082500D01*
G01X1261630Y1119960D02*
X1260980Y1120280D01*
X1260230Y1120500D01*
X1259360D01*
X1258380Y1120170D01*
X1257630Y1119630D01*
X1257080Y1118980D01*
X1256650Y1117900D01*
X1256540Y1116920D01*
X1256760Y1115950D01*
X1257080Y1115300D01*
X1257730Y1114650D01*
X1258490Y1114220D01*
X1259250Y1114000D01*
X1260010D01*
X1260770Y1114220D01*
X1261420Y1114540D01*
X1261960Y1114970D01*
G01X1264370D02*
X1265020Y1114430D01*
X1265770Y1114110D01*
X1266750Y1114000D01*
X1267730Y1114220D01*
X1268480Y1114650D01*
X1269030Y1115410D01*
X1269130Y1116270D01*
X1268920Y1117140D01*
X1268370Y1117680D01*
X1267620Y1118120D01*
X1266860Y1118220D01*
X1266100Y1118120D01*
X1265130Y1117680D01*
X1265450Y1120500D01*
X1268370D01*
G01X1251080Y1091000D02*
Y1097500D01*
X1253790D01*
X1254660Y1097170D01*
X1255200Y1096740D01*
X1255420Y1095870D01*
X1255200Y1095010D01*
X1254550Y1094470D01*
X1253790Y1094140D01*
X1251080D01*
G01X1253790D02*
X1255420Y1091000D01*
G01X1260750D02*
Y1097500D01*
X1259450Y1096200D01*
G01Y1091000D02*
X1262050D01*
G01X1268630Y1167960D02*
X1267980Y1168280D01*
X1267230Y1168500D01*
X1266360D01*
X1265380Y1168170D01*
X1264630Y1167630D01*
X1264080Y1166980D01*
X1263650Y1165900D01*
X1263540Y1164920D01*
X1263760Y1163950D01*
X1264080Y1163300D01*
X1264730Y1162650D01*
X1265490Y1162220D01*
X1266250Y1162000D01*
X1267010D01*
X1267770Y1162220D01*
X1268420Y1162540D01*
X1268960Y1162970D01*
G01X1273750Y1162000D02*
Y1168500D01*
X1272450Y1167200D01*
G01Y1162000D02*
X1275050D01*
G01X1281250Y1168500D02*
X1280380Y1168280D01*
X1279730Y1167740D01*
X1279300Y1167090D01*
X1278970Y1166220D01*
X1278870Y1165250D01*
X1278970Y1164270D01*
X1279300Y1163410D01*
X1279730Y1162760D01*
X1280380Y1162220D01*
X1281250Y1162000D01*
X1282120Y1162220D01*
X1282770Y1162760D01*
X1283200Y1163410D01*
X1283530Y1164270D01*
X1283630Y1165250D01*
X1283530Y1166220D01*
X1283200Y1167090D01*
X1282770Y1167740D01*
X1282120Y1168280D01*
X1281250Y1168500D01*
G01X1278630Y1142960D02*
X1277980Y1143280D01*
X1277230Y1143500D01*
X1276360D01*
X1275380Y1143170D01*
X1274630Y1142630D01*
X1274080Y1141980D01*
X1273650Y1140900D01*
X1273540Y1139920D01*
X1273760Y1138950D01*
X1274080Y1138300D01*
X1274730Y1137650D01*
X1275490Y1137220D01*
X1276250Y1137000D01*
X1277010D01*
X1277770Y1137220D01*
X1278420Y1137540D01*
X1278960Y1137970D01*
G01X1281910Y1137760D02*
X1282670Y1137220D01*
X1283530Y1137000D01*
X1284400Y1137220D01*
X1285160Y1137870D01*
X1285700Y1138840D01*
X1285920Y1139820D01*
Y1141010D01*
X1285700Y1141980D01*
X1285160Y1142850D01*
X1284510Y1143280D01*
X1283750Y1143500D01*
X1282880Y1143280D01*
X1282230Y1142850D01*
X1281800Y1142200D01*
X1281580Y1141330D01*
X1281800Y1140580D01*
X1282340Y1139820D01*
X1282990Y1139380D01*
X1283750Y1139270D01*
X1284620Y1139490D01*
X1285270Y1140030D01*
X1285920Y1141010D01*
G01X1326870Y1022000D02*
Y1028500D01*
X1329030D01*
X1329900Y1028170D01*
X1330550Y1027740D01*
X1331090Y1027090D01*
X1331530Y1026330D01*
X1331630Y1025250D01*
X1331530Y1024170D01*
X1331090Y1023410D01*
X1330550Y1022760D01*
X1329900Y1022320D01*
X1329030Y1022000D01*
X1326870D01*
G01X1335450Y1028500D02*
X1338050D01*
G01X1336750D02*
Y1022000D01*
G01X1335450D02*
X1338050D01*
G01X1344250D02*
X1343380Y1022110D01*
X1342630Y1022540D01*
X1341970Y1023190D01*
X1341540Y1023950D01*
X1341320Y1024820D01*
Y1025680D01*
X1341540Y1026550D01*
X1341970Y1027310D01*
X1342630Y1027960D01*
X1343380Y1028390D01*
X1344250Y1028500D01*
X1345120Y1028390D01*
X1345870Y1027960D01*
X1346530Y1027310D01*
X1346960Y1026550D01*
X1347180Y1025680D01*
Y1024820D01*
X1346960Y1023950D01*
X1346530Y1023190D01*
X1345870Y1022540D01*
X1345120Y1022110D01*
X1344250Y1022000D01*
G01X1349690Y1027420D02*
X1350340Y1028070D01*
X1351100Y1028390D01*
X1351970Y1028500D01*
X1353050Y1028280D01*
X1353810Y1027740D01*
X1354030Y1027090D01*
X1353920Y1026440D01*
X1353480Y1025900D01*
X1351320Y1024820D01*
X1350340Y1024060D01*
X1349690Y1022970D01*
X1349470Y1022000D01*
X1354030D01*
G01X1357190Y1027420D02*
X1357840Y1028070D01*
X1358600Y1028390D01*
X1359470Y1028500D01*
X1360550Y1028280D01*
X1361310Y1027740D01*
X1361530Y1027090D01*
X1361420Y1026440D01*
X1360980Y1025900D01*
X1358820Y1024820D01*
X1357840Y1024060D01*
X1357190Y1022970D01*
X1356970Y1022000D01*
X1361530D01*
G01X1312630Y1142960D02*
X1311980Y1143280D01*
X1311230Y1143500D01*
X1310360D01*
X1309380Y1143170D01*
X1308630Y1142630D01*
X1308080Y1141980D01*
X1307650Y1140900D01*
X1307540Y1139920D01*
X1307760Y1138950D01*
X1308080Y1138300D01*
X1308730Y1137650D01*
X1309490Y1137220D01*
X1310250Y1137000D01*
X1311010D01*
X1311770Y1137220D01*
X1312420Y1137540D01*
X1312960Y1137970D01*
G01X1315690Y1142420D02*
X1316340Y1143070D01*
X1317100Y1143390D01*
X1317970Y1143500D01*
X1319050Y1143280D01*
X1319810Y1142740D01*
X1320030Y1142090D01*
X1319920Y1141440D01*
X1319480Y1140900D01*
X1317320Y1139820D01*
X1316340Y1139060D01*
X1315690Y1137970D01*
X1315470Y1137000D01*
X1320030D01*
G01X1323190Y1142420D02*
X1323840Y1143070D01*
X1324600Y1143390D01*
X1325470Y1143500D01*
X1326550Y1143280D01*
X1327310Y1142740D01*
X1327530Y1142090D01*
X1327420Y1141440D01*
X1326980Y1140900D01*
X1324820Y1139820D01*
X1323840Y1139060D01*
X1323190Y1137970D01*
X1322970Y1137000D01*
X1327530D01*
G01X1307630Y1189960D02*
X1306980Y1190280D01*
X1306230Y1190500D01*
X1305360D01*
X1304380Y1190170D01*
X1303630Y1189630D01*
X1303080Y1188980D01*
X1302650Y1187900D01*
X1302540Y1186920D01*
X1302760Y1185950D01*
X1303080Y1185300D01*
X1303730Y1184650D01*
X1304490Y1184220D01*
X1305250Y1184000D01*
X1306010D01*
X1306770Y1184220D01*
X1307420Y1184540D01*
X1307960Y1184970D01*
G01X1310690Y1189420D02*
X1311340Y1190070D01*
X1312100Y1190390D01*
X1312970Y1190500D01*
X1314050Y1190280D01*
X1314810Y1189740D01*
X1315030Y1189090D01*
X1314920Y1188440D01*
X1314480Y1187900D01*
X1312320Y1186820D01*
X1311340Y1186060D01*
X1310690Y1184970D01*
X1310470Y1184000D01*
X1315030D01*
G01X1317870Y1185300D02*
X1318520Y1184540D01*
X1319380Y1184110D01*
X1320360Y1184000D01*
X1321230Y1184110D01*
X1322090Y1184650D01*
X1322630Y1185300D01*
X1322740Y1185950D01*
X1322530Y1186710D01*
X1321770Y1187250D01*
X1321010Y1187470D01*
X1320030D01*
G01X1321010D02*
X1321660Y1187790D01*
X1322200Y1188330D01*
X1322420Y1188980D01*
X1322200Y1189630D01*
X1321660Y1190170D01*
X1320680Y1190500D01*
X1319710Y1190390D01*
X1318730Y1189960D01*
G54D13*
G01X1063500Y1479000D02*
Y938000D01*
X1464500D01*
Y1479000D01*
X1063500D01*
G01X1090500Y957000D02*
G03I-10500J0D01*
G01X1096500Y1208000D02*
G03I-10500J0D01*
G01X1083250Y1292250D02*
Y1355750D01*
X1146750D01*
Y1292250D01*
X1083250D01*
G01X1135810Y1324000D02*
G03I-20810J0D01*
G01X1138820D02*
G03I-23820J0D01*
G01X1142250D02*
G03I-27250J0D01*
G01X1146750D02*
G03I-31750J0D01*
G01X1121220D02*
G03I-6220J0D01*
G01X1161500Y1092500D02*
Y1095000D01*
G01D02*
X1166500D01*
G01X1161500Y1088000D02*
Y1092000D01*
G01X1166500Y1085000D02*
X1161500D01*
G01D02*
Y1087500D01*
G01Y1092000D02*
Y1092500D01*
G01Y1087500D02*
Y1088000D01*
G01Y1087500D02*
X1166500D01*
G01Y1092500D02*
X1161500D01*
G01X1152500D02*
Y1095000D01*
G01D02*
X1157500D01*
G01D02*
Y1092500D01*
G01Y1092000D02*
Y1088000D01*
G01X1152500D02*
Y1092000D01*
G01X1157500Y1087500D02*
Y1085000D01*
G01D02*
X1152500D01*
G01D02*
Y1087500D01*
G01Y1092000D02*
Y1092500D01*
G01Y1087500D02*
Y1088000D01*
G01X1157500D02*
Y1087500D01*
G01Y1092500D02*
Y1092000D01*
G01X1152500Y1087500D02*
X1157500D01*
G01Y1092500D02*
X1152500D01*
G01X1162500Y1155500D02*
X1165000D01*
G01Y1150500D02*
X1162500D01*
G01X1162000D02*
X1158000D01*
G01Y1155500D02*
X1162000D01*
G01X1157500Y1150500D02*
X1155000D01*
G01D02*
Y1155500D01*
G01D02*
X1157500D01*
G01X1162000D02*
X1162500D01*
G01X1157500D02*
X1158000D01*
G01Y1150500D02*
X1157500D01*
G01X1162500D02*
X1162000D01*
G01X1157500Y1155500D02*
Y1150500D01*
G01X1162500D02*
Y1155500D01*
G01X1159500Y1195500D02*
Y1193000D01*
G01D02*
X1154500D01*
G01D02*
Y1195500D01*
G01Y1196000D02*
Y1200000D01*
G01X1159500D02*
Y1196000D01*
G01X1154500Y1200500D02*
Y1203000D01*
G01D02*
X1159500D01*
G01D02*
Y1200500D01*
G01Y1196000D02*
Y1195500D01*
G01Y1200500D02*
Y1200000D01*
G01X1154500D02*
Y1200500D01*
G01Y1195500D02*
Y1196000D01*
G01X1159500Y1200500D02*
X1154500D01*
G01Y1195500D02*
X1159500D01*
G01X1131500Y1193500D02*
G03X1130500Y1194500I-1000J0D01*
G01Y1224500D01*
G03X1131500Y1225500I0J1000D01*
G01X1144500D01*
G03X1145500Y1224500I1000J0D01*
G01Y1194500D01*
G03X1144500Y1193500I0J-1000D01*
G01X1131500D01*
G01X1155500Y1223500D02*
Y1226000D01*
G01D02*
X1160500D01*
G01D02*
Y1223500D01*
G01Y1223000D02*
Y1219000D01*
G01X1155500D02*
Y1223000D01*
G01X1160500Y1218500D02*
Y1216000D01*
G01D02*
X1155500D01*
G01D02*
Y1218500D01*
G01Y1223000D02*
Y1223500D01*
G01Y1218500D02*
Y1219000D01*
G01X1160500D02*
Y1218500D01*
G01Y1223500D02*
Y1223000D01*
G01X1155500Y1218500D02*
X1160500D01*
G01Y1223500D02*
X1155500D01*
G01X1166500Y1095000D02*
Y1092500D01*
G01Y1092000D02*
Y1088000D01*
G01Y1087500D02*
Y1085000D01*
G01Y1088000D02*
Y1087500D01*
G01Y1092500D02*
Y1092000D01*
G01X1173500Y1090250D02*
Y1160250D01*
G01X1243500Y1090250D02*
X1173500D01*
G01X1165000Y1155500D02*
Y1150500D01*
G01X1173500Y1160250D02*
X1243500D01*
G01X1199500Y1238000D02*
Y1240500D01*
G01D02*
X1204500D01*
G01D02*
Y1238000D01*
G01Y1237500D02*
Y1233500D01*
G01X1199500D02*
Y1237500D01*
G01X1204500Y1233000D02*
Y1230500D01*
G01D02*
X1199500D01*
G01D02*
Y1233000D01*
G01Y1237500D02*
Y1238000D01*
G01Y1233000D02*
Y1233500D01*
G01X1204500D02*
Y1233000D01*
G01Y1238000D02*
Y1237500D01*
G01X1199500Y1233000D02*
X1204500D01*
G01Y1238000D02*
X1199500D01*
G01X1195000Y1248500D02*
Y1244500D01*
G01X1190000D02*
Y1248500D01*
G01X1195000Y1244000D02*
Y1241500D01*
G01D02*
X1190000D01*
G01D02*
Y1244000D01*
G01D02*
Y1244500D01*
G01X1195000D02*
Y1244000D01*
G01X1190000D02*
X1195000D01*
G01X1190750Y1228750D02*
Y1286250D01*
G01X1258250Y1218750D02*
X1200750D01*
G01X1190750Y1228750D02*
X1200750Y1218750D01*
G01X1180750Y1208750D02*
Y1373750D01*
G01X1345750Y1208750D02*
X1180750D01*
G01X1205500Y1289000D02*
Y1286500D01*
G01D02*
X1200500D01*
G01D02*
Y1289000D01*
G01X1204500Y1253000D02*
Y1250500D01*
G01D02*
X1199500D01*
G01D02*
Y1253000D01*
G01Y1253500D02*
Y1257500D01*
G01X1204500D02*
Y1253500D01*
G01X1199500Y1258000D02*
Y1260500D01*
G01D02*
X1204500D01*
G01D02*
Y1258000D01*
G01Y1253500D02*
Y1253000D01*
G01Y1258000D02*
Y1257500D01*
G01X1199500D02*
Y1258000D01*
G01Y1253000D02*
Y1253500D01*
G01X1204500Y1258000D02*
X1199500D01*
G01Y1253000D02*
X1204500D01*
G01X1190000Y1249000D02*
Y1251500D01*
G01D02*
X1195000D01*
G01D02*
Y1249000D01*
G01X1190000Y1248500D02*
Y1249000D01*
G01X1195000D02*
Y1248500D01*
G01Y1249000D02*
X1190000D01*
G01X1190750Y1286250D02*
X1233670D01*
G01X1200500Y1289500D02*
Y1293500D01*
G01X1205500D02*
Y1289500D01*
G01X1200500Y1294000D02*
Y1296500D01*
G01D02*
X1205500D01*
G01D02*
Y1294000D01*
G01Y1289500D02*
Y1289000D01*
G01Y1294000D02*
Y1293500D01*
G01X1200500D02*
Y1294000D01*
G01Y1289000D02*
Y1289500D01*
G01X1205500Y1294000D02*
X1200500D01*
G01Y1289000D02*
X1205500D01*
G01X1233670Y1296250D02*
X1190750D01*
G01D02*
Y1353750D01*
G01X1200750Y1363750D02*
X1258250D01*
G01X1200750D02*
X1190750Y1353750D01*
G01X1180750Y1373750D02*
X1345750D01*
G01X1235000Y1038000D02*
X1227000D01*
Y1041500D01*
X1235000D01*
Y1038000D01*
G01Y1050500D02*
X1227000D01*
Y1054000D01*
X1235000D01*
Y1050500D01*
G01X1227100Y1041500D02*
Y1050500D01*
X1234900D01*
Y1041500D01*
X1227100D01*
G01X1239000Y1079000D02*
X1247000D01*
Y1075500D01*
X1239000D01*
Y1079000D01*
G01Y1066500D02*
X1247000D01*
Y1063000D01*
X1239000D01*
Y1066500D01*
G01X1246900Y1075500D02*
Y1066500D01*
X1239100D01*
Y1075500D01*
X1246900D01*
G01X1227000Y1079000D02*
X1235000D01*
Y1075500D01*
X1227000D01*
Y1079000D01*
G01Y1066500D02*
X1235000D01*
Y1063000D01*
X1227000D01*
Y1066500D01*
G01X1234900Y1075500D02*
Y1066500D01*
X1227100D01*
Y1075500D01*
X1234900D01*
G01X1222250Y1069000D02*
Y1057000D01*
G01X1209750D02*
Y1069000D01*
G01D02*
Y1073000D01*
G01D02*
X1222250D01*
G01D02*
Y1069000D01*
G01Y1068000D02*
X1209750D01*
G01X1222250Y1057000D02*
Y1053000D01*
G01D02*
X1209750D01*
G01D02*
Y1057000D01*
G01Y1058000D02*
X1222250D01*
G01X1243500Y1160250D02*
Y1090250D01*
G01X1238500Y1153500D02*
G03I-2500J0D01*
G01X1236000Y1184500D02*
X1238500D01*
G01D02*
Y1179500D01*
G01D02*
X1236000D01*
G01X1235500D02*
X1231500D01*
G01Y1184500D02*
X1235500D01*
G01X1231000Y1179500D02*
X1228500D01*
G01D02*
Y1184500D01*
G01D02*
X1231000D01*
G01X1235500D02*
X1236000D01*
G01X1231000D02*
X1231500D01*
G01Y1179500D02*
X1231000D01*
G01X1236000D02*
X1235500D01*
G01X1231000Y1184500D02*
Y1179500D01*
G01X1236000D02*
Y1184500D01*
G01X1226500Y1232000D02*
G03I-2500J0D01*
G01X1213750Y1224500D02*
Y1264500D01*
G01X1253750Y1224500D02*
X1213750D01*
G01X1238500Y1273500D02*
X1236000D01*
G01D02*
Y1278500D01*
G01D02*
X1238500D01*
G01X1239000D02*
X1243000D01*
G01Y1273500D02*
X1239000D01*
G01X1243500Y1278500D02*
X1246000D01*
G01D02*
Y1273500D01*
G01D02*
X1243500D01*
G01X1239000D02*
X1238500D01*
G01X1243500D02*
X1243000D01*
G01Y1278500D02*
X1243500D01*
G01X1238500D02*
X1239000D01*
G01X1243500Y1273500D02*
Y1278500D01*
G01X1238500D02*
Y1273500D01*
G01X1221500Y1289000D02*
Y1286500D01*
G01D02*
X1216500D01*
G01D02*
Y1289000D01*
G01X1208500Y1285000D02*
Y1287500D01*
G01D02*
X1213500D01*
G01D02*
Y1285000D01*
G01Y1284500D02*
Y1280500D01*
G01X1208500D02*
Y1284500D01*
G01X1213500Y1280000D02*
Y1277500D01*
G01D02*
X1208500D01*
G01D02*
Y1280000D01*
G01Y1284500D02*
Y1285000D01*
G01Y1280000D02*
Y1280500D01*
G01X1213500D02*
Y1280000D01*
G01Y1285000D02*
Y1284500D01*
G01X1208500Y1280000D02*
X1213500D01*
G01Y1285000D02*
X1208500D01*
G01X1230000Y1284500D02*
X1227500D01*
G01D02*
Y1289500D01*
G01X1234500Y1284500D02*
X1230500D01*
G01X1237500Y1289500D02*
Y1284500D01*
G01D02*
X1235000D01*
G01X1230500D02*
X1230000D01*
G01X1235000D02*
X1234500D01*
G01X1235000D02*
Y1289500D01*
G01X1230000D02*
Y1284500D01*
G01X1233670Y1286250D02*
G03X1258250Y1261670I29580J5000D01*
G01X1213750Y1264500D02*
X1253750D01*
G01X1239500Y1322500D02*
Y1320000D01*
G01D02*
X1234500D01*
G01D02*
Y1322500D01*
G01Y1323000D02*
Y1327000D01*
G01X1239500D02*
Y1323000D01*
G01X1234500Y1327500D02*
Y1330000D01*
G01D02*
X1239500D01*
G01D02*
Y1327500D01*
G01Y1323000D02*
Y1322500D01*
G01Y1327500D02*
Y1327000D01*
G01X1234500D02*
Y1327500D01*
G01Y1322500D02*
Y1323000D01*
G01X1239500Y1327500D02*
X1234500D01*
G01Y1322500D02*
X1239500D01*
G01X1235500Y1315500D02*
X1238000D01*
G01D02*
Y1310500D01*
G01D02*
X1235500D01*
G01X1235000D02*
X1231000D01*
G01Y1315500D02*
X1235000D01*
G01X1230500Y1310500D02*
X1228000D01*
G01D02*
Y1315500D01*
G01D02*
X1230500D01*
G01X1235000D02*
X1235500D01*
G01X1230500D02*
X1231000D01*
G01Y1310500D02*
X1230500D01*
G01X1235500D02*
X1235000D01*
G01X1230500Y1315500D02*
Y1310500D01*
G01X1235500D02*
Y1315500D01*
G01X1216500Y1289500D02*
Y1293500D01*
G01X1221500D02*
Y1289500D01*
G01X1216500Y1294000D02*
Y1296500D01*
G01D02*
X1221500D01*
G01D02*
Y1294000D01*
G01Y1289500D02*
Y1289000D01*
G01Y1294000D02*
Y1293500D01*
G01X1216500D02*
Y1294000D01*
G01Y1289000D02*
Y1289500D01*
G01X1221500Y1294000D02*
X1216500D01*
G01Y1289000D02*
X1221500D01*
G01X1227500Y1289500D02*
X1230000D01*
G01X1230500D02*
X1234500D01*
G01X1235000D02*
X1237500D01*
G01X1234500D02*
X1235000D01*
G01X1230000D02*
X1230500D01*
G01X1239500Y1298000D02*
Y1295500D01*
G01D02*
X1234500D01*
G01D02*
Y1298000D01*
G01Y1298500D02*
Y1302500D01*
G01X1239500D02*
Y1298500D01*
G01X1234500Y1303000D02*
Y1305500D01*
G01D02*
X1239500D01*
G01D02*
Y1303000D01*
G01Y1298500D02*
Y1298000D01*
G01Y1303000D02*
Y1302500D01*
G01X1234500D02*
Y1303000D01*
G01Y1298000D02*
Y1298500D01*
G01X1239500Y1303000D02*
X1234500D01*
G01Y1298000D02*
X1239500D01*
G01X1258250Y1320830D02*
G03X1233670Y1296250I5000J-29580D01*
G01X1238500Y1334500D02*
X1236000D01*
G01D02*
Y1339500D01*
G01D02*
X1238500D01*
G01X1239000D02*
X1243000D01*
G01Y1334500D02*
X1239000D01*
G01X1243500Y1339500D02*
X1246000D01*
G01D02*
Y1334500D01*
G01D02*
X1243500D01*
G01X1239000D02*
X1238500D01*
G01X1243500D02*
X1243000D01*
G01Y1339500D02*
X1243500D01*
G01X1238500D02*
X1239000D01*
G01X1243500Y1334500D02*
Y1339500D01*
G01X1238500D02*
Y1334500D01*
G01X1230500Y1343500D02*
X1228000D01*
G01D02*
Y1348500D01*
G01D02*
X1230500D01*
G01X1231000D02*
X1235000D01*
G01Y1343500D02*
X1231000D01*
G01X1235500Y1348500D02*
X1238000D01*
G01D02*
Y1343500D01*
G01D02*
X1235500D01*
G01X1231000D02*
X1230500D01*
G01X1235500D02*
X1235000D01*
G01Y1348500D02*
X1235500D01*
G01X1230500D02*
X1231000D01*
G01X1235500Y1343500D02*
Y1348500D01*
G01X1230500D02*
Y1343500D01*
G01X1239500Y1348000D02*
Y1345500D01*
G01D02*
X1234500D01*
G01D02*
Y1348000D01*
G01Y1348500D02*
Y1352500D01*
G01X1239500D02*
Y1348500D01*
G01X1234500Y1353000D02*
Y1355500D01*
G01D02*
X1239500D01*
G01D02*
Y1353000D01*
G01Y1348500D02*
Y1348000D01*
G01Y1353000D02*
Y1352500D01*
G01X1234500D02*
Y1353000D01*
G01Y1348000D02*
Y1348500D01*
G01X1239500Y1353000D02*
X1234500D01*
G01Y1348000D02*
X1239500D01*
G01X1238500Y1382500D02*
X1236000D01*
G01D02*
Y1387500D01*
G01D02*
X1238500D01*
G01X1239000D02*
X1243000D01*
G01Y1382500D02*
X1239000D01*
G01X1243500Y1387500D02*
X1246000D01*
G01D02*
Y1382500D01*
G01D02*
X1243500D01*
G01X1239000D02*
X1238500D01*
G01X1243500D02*
X1243000D01*
G01Y1387500D02*
X1243500D01*
G01X1238500D02*
X1239000D01*
G01X1243500Y1382500D02*
Y1387500D01*
G01X1238500D02*
Y1382500D01*
G01X1265500Y1083000D02*
Y1079000D01*
G01X1260500D02*
Y1083000D01*
G01X1265500Y1078500D02*
Y1076000D01*
G01D02*
X1260500D01*
G01D02*
Y1078500D01*
G01D02*
Y1079000D01*
G01X1265500D02*
Y1078500D01*
G01X1260500D02*
X1265500D01*
G01X1256500Y1083000D02*
Y1079000D01*
G01X1251500D02*
Y1083000D01*
G01X1256500Y1078500D02*
Y1076000D01*
G01D02*
X1251500D01*
G01D02*
Y1078500D01*
G01D02*
Y1079000D01*
G01X1256500D02*
Y1078500D01*
G01X1251500D02*
X1256500D01*
G01X1260500Y1083500D02*
Y1086000D01*
G01D02*
X1265500D01*
G01D02*
Y1083500D01*
G01X1260500Y1083000D02*
Y1083500D01*
G01X1265500D02*
Y1083000D01*
G01Y1083500D02*
X1260500D01*
G01X1251500D02*
Y1086000D01*
G01D02*
X1256500D01*
G01D02*
Y1083500D01*
G01X1251500Y1083000D02*
Y1083500D01*
G01X1256500D02*
Y1083000D01*
G01Y1083500D02*
X1251500D01*
G01X1260500Y1127500D02*
X1258000D01*
G01D02*
Y1132500D01*
G01D02*
X1260500D01*
G01X1261000D02*
X1265000D01*
G01Y1127500D02*
X1261000D01*
G01X1265500Y1132500D02*
X1268000D01*
G01D02*
Y1127500D01*
G01D02*
X1265500D01*
G01X1261000D02*
X1260500D01*
G01X1265500D02*
X1265000D01*
G01Y1132500D02*
X1265500D01*
G01X1260500D02*
X1261000D01*
G01X1265500Y1127500D02*
Y1132500D01*
G01X1260500D02*
Y1127500D01*
G01X1256500Y1163500D02*
X1254000D01*
G01D02*
Y1168500D01*
G01X1261000Y1163500D02*
X1257000D01*
G01X1264000Y1168500D02*
Y1163500D01*
G01D02*
X1261500D01*
G01X1257000D02*
X1256500D01*
G01X1261500D02*
X1261000D01*
G01X1261500D02*
Y1168500D01*
G01X1256500D02*
Y1163500D01*
G01X1260500Y1140500D02*
X1258000D01*
G01D02*
Y1145500D01*
G01D02*
X1260500D01*
G01X1261000D02*
X1265000D01*
G01Y1140500D02*
X1261000D01*
G01X1265500Y1145500D02*
X1268000D01*
G01D02*
Y1140500D01*
G01D02*
X1265500D01*
G01X1261000D02*
X1260500D01*
G01X1265500D02*
X1265000D01*
G01Y1145500D02*
X1265500D01*
G01X1260500D02*
X1261000D01*
G01X1265500Y1140500D02*
Y1145500D01*
G01X1260500D02*
Y1140500D01*
G01X1256500Y1155500D02*
X1254000D01*
G01D02*
Y1160500D01*
G01D02*
X1256500D01*
G01X1257000D02*
X1261000D01*
G01Y1155500D02*
X1257000D01*
G01X1261500Y1160500D02*
X1264000D01*
G01D02*
Y1155500D01*
G01D02*
X1261500D01*
G01X1257000D02*
X1256500D01*
G01X1261500D02*
X1261000D01*
G01Y1160500D02*
X1261500D01*
G01X1256500D02*
X1257000D01*
G01X1261500Y1155500D02*
Y1160500D01*
G01X1256500D02*
Y1155500D01*
G01X1288300Y1152500D02*
G03X1289300Y1151500I1000J0D01*
G01X1288300Y1178700D02*
Y1152500D01*
G01X1289100Y1149600D02*
G03X1286400Y1152300I-2700J0D01*
G01D02*
Y1178900D01*
G01X1254000Y1168500D02*
X1256500D01*
G01X1257000D02*
X1261000D01*
G01X1261500D02*
X1264000D01*
G01X1261000D02*
X1261500D01*
G01X1256500D02*
X1257000D01*
G01X1289300Y1179700D02*
G03X1288300Y1178700I0J-1000D01*
G01X1286400Y1178900D02*
G03X1289100Y1181600I0J2700D01*
G01X1276000Y1229500D02*
X1273500D01*
G01D02*
Y1234500D01*
G01D02*
X1276000D01*
G01X1276500D02*
X1280500D01*
G01Y1229500D02*
X1276500D01*
G01X1281000Y1234500D02*
X1283500D01*
G01D02*
Y1229500D01*
G01D02*
X1281000D01*
G01X1276500D02*
X1276000D01*
G01X1281000D02*
X1280500D01*
G01Y1234500D02*
X1281000D01*
G01X1276000D02*
X1276500D01*
G01X1281000Y1229500D02*
Y1234500D01*
G01X1276000D02*
Y1229500D01*
G01Y1240500D02*
X1273500D01*
G01D02*
Y1245500D01*
G01D02*
X1276000D01*
G01X1276500D02*
X1280500D01*
G01Y1240500D02*
X1276500D01*
G01X1281000Y1245500D02*
X1283500D01*
G01D02*
Y1240500D01*
G01D02*
X1281000D01*
G01X1276500D02*
X1276000D01*
G01X1281000D02*
X1280500D01*
G01Y1245500D02*
X1281000D01*
G01X1276000D02*
X1276500D01*
G01X1281000Y1240500D02*
Y1245500D01*
G01X1276000D02*
Y1240500D01*
G01X1325750Y1218750D02*
X1268250D01*
G01D02*
Y1261670D01*
G01X1258250D02*
Y1218750D01*
G01X1253750Y1264500D02*
Y1224500D01*
G01X1264500Y1274500D02*
X1262000D01*
G01D02*
Y1279500D01*
G01D02*
X1264500D01*
G01X1265000D02*
X1269000D01*
G01Y1274500D02*
X1265000D01*
G01X1269500Y1279500D02*
X1272000D01*
G01D02*
Y1274500D01*
G01D02*
X1269500D01*
G01X1265000D02*
X1264500D01*
G01X1269500D02*
X1269000D01*
G01Y1279500D02*
X1269500D01*
G01X1264500D02*
X1265000D01*
G01X1269500Y1274500D02*
Y1279500D01*
G01X1264500D02*
Y1274500D01*
G01X1269500Y1269000D02*
X1272000D01*
G01D02*
Y1264000D01*
G01D02*
X1269500D01*
G01X1269000D02*
X1265000D01*
G01Y1269000D02*
X1269000D01*
G01X1264500Y1264000D02*
X1262000D01*
G01D02*
Y1269000D01*
G01D02*
X1264500D01*
G01X1269000D02*
X1269500D01*
G01X1264500D02*
X1265000D01*
G01Y1264000D02*
X1264500D01*
G01X1269500D02*
X1269000D01*
G01X1264500Y1269000D02*
Y1264000D01*
G01X1269500D02*
Y1269000D01*
G01X1276000Y1248500D02*
X1273500D01*
G01D02*
Y1253500D01*
G01D02*
X1276000D01*
G01X1276500D02*
X1280500D01*
G01Y1248500D02*
X1276500D01*
G01X1281000Y1253500D02*
X1283500D01*
G01D02*
Y1248500D01*
G01D02*
X1281000D01*
G01X1276500D02*
X1276000D01*
G01X1281000D02*
X1280500D01*
G01Y1253500D02*
X1281000D01*
G01X1276000D02*
X1276500D01*
G01X1281000Y1248500D02*
Y1253500D01*
G01X1276000D02*
Y1248500D01*
G01X1268250Y1261670D02*
G03X1292830Y1286250I-5000J29580D01*
G01X1258250Y1363750D02*
Y1320830D01*
G01X1292830Y1296250D02*
G03X1268250Y1320830I-29580J-5000D01*
G01D02*
Y1363750D01*
G01D02*
X1325750D01*
G01X1296500Y1139500D02*
X1294000D01*
G01D02*
Y1144500D01*
G01D02*
X1296500D01*
G01X1297000D02*
X1301000D01*
G01Y1139500D02*
X1297000D01*
G01X1301500Y1144500D02*
X1304000D01*
G01D02*
Y1139500D01*
G01D02*
X1301500D01*
G01X1297000D02*
X1296500D01*
G01X1301500D02*
X1301000D01*
G01Y1144500D02*
X1301500D01*
G01X1296500D02*
X1297000D01*
G01X1301500Y1139500D02*
Y1144500D01*
G01X1296500D02*
Y1139500D01*
G01X1309500Y1152500D02*
Y1178700D01*
G01X1308500Y1151500D02*
G03X1309500Y1152500I0J1000D01*
G01X1289300Y1151500D02*
X1308500D01*
G01X1311400Y1152300D02*
G03X1308700Y1149600I0J-2700D01*
G01X1311400Y1178900D02*
Y1152300D01*
G01X1308700Y1149600D02*
X1289100D01*
G01X1291500Y1185500D02*
X1289000D01*
G01D02*
Y1190500D01*
G01D02*
X1291500D01*
G01X1292000D02*
X1296000D01*
G01Y1185500D02*
X1292000D01*
G01X1296500Y1190500D02*
X1299000D01*
G01D02*
Y1185500D01*
G01D02*
X1296500D01*
G01X1292000D02*
X1291500D01*
G01X1296500D02*
X1296000D01*
G01Y1190500D02*
X1296500D01*
G01X1291500D02*
X1292000D01*
G01X1296500Y1185500D02*
Y1190500D01*
G01X1291500D02*
Y1185500D01*
G01X1309500Y1178700D02*
G03X1308500Y1179700I-1000J0D01*
G01D02*
X1289300D01*
G01X1308700Y1181600D02*
G03X1311400Y1178900I2700J0D01*
G01X1289100Y1181600D02*
X1308700D01*
G01X1307000Y1244500D02*
X1309500D01*
G01D02*
Y1239500D01*
G01D02*
X1307000D01*
G01X1306500D02*
X1302500D01*
G01Y1244500D02*
X1306500D01*
G01X1302000Y1239500D02*
X1299500D01*
G01D02*
Y1244500D01*
G01D02*
X1302000D01*
G01X1306500D02*
X1307000D01*
G01X1302000D02*
X1302500D01*
G01Y1239500D02*
X1302000D01*
G01X1307000D02*
X1306500D01*
G01X1302000Y1244500D02*
Y1239500D01*
G01X1307000D02*
Y1244500D01*
G01X1314000Y1233500D02*
X1316500D01*
G01D02*
Y1228500D01*
G01D02*
X1314000D01*
G01X1313500D02*
X1309500D01*
G01Y1233500D02*
X1313500D01*
G01X1309000Y1228500D02*
X1306500D01*
G01D02*
Y1233500D01*
G01D02*
X1309000D01*
G01X1313500D02*
X1314000D01*
G01X1309000D02*
X1309500D01*
G01Y1228500D02*
X1309000D01*
G01X1314000D02*
X1313500D01*
G01X1309000Y1233500D02*
Y1228500D01*
G01X1314000D02*
Y1233500D01*
G01X1325750Y1218750D02*
X1335750Y1228750D01*
G01X1307000Y1255500D02*
X1309500D01*
G01D02*
Y1250500D01*
G01D02*
X1307000D01*
G01X1306500D02*
X1302500D01*
G01Y1255500D02*
X1306500D01*
G01X1302000Y1250500D02*
X1299500D01*
G01D02*
Y1255500D01*
G01D02*
X1302000D01*
G01X1306500D02*
X1307000D01*
G01X1302000D02*
X1302500D01*
G01Y1250500D02*
X1302000D01*
G01X1307000D02*
X1306500D01*
G01X1302000Y1255500D02*
Y1250500D01*
G01X1307000D02*
Y1255500D01*
G01X1292830Y1286250D02*
X1335750D01*
G01Y1296250D02*
X1292830D01*
G01X1335750Y1353750D02*
X1325750Y1363750D01*
G01X1391010Y1027000D02*
G03I-10010J0D01*
G01X1359000Y1072000D02*
Y1080000D01*
X1362500D01*
Y1072000D01*
X1359000D01*
G01X1371500D02*
Y1080000D01*
X1375000D01*
Y1072000D01*
X1371500D01*
G01X1362500Y1079900D02*
X1371500D01*
Y1072100D01*
X1362500D01*
Y1079900D01*
G01X1359000Y1052000D02*
Y1060000D01*
X1362500D01*
Y1052000D01*
X1359000D01*
G01X1371500D02*
Y1060000D01*
X1375000D01*
Y1052000D01*
X1371500D01*
G01X1362500Y1059900D02*
X1371500D01*
Y1052100D01*
X1362500D01*
Y1059900D01*
G01X1335750Y1286250D02*
Y1228750D01*
G01X1345750Y1373750D02*
Y1208750D01*
G01X1335750Y1353750D02*
Y1296250D01*
G01X1455500Y955000D02*
G03I-10500J0D01*
G54D14*
G01X1233470Y1284870D02*
X1234340Y1284320D01*
X1235320Y1284000D01*
X1236180D01*
X1237050Y1284320D01*
X1237700Y1284870D01*
X1238030Y1285630D01*
X1237810Y1286380D01*
X1237270Y1287030D01*
X1236290Y1287470D01*
X1234990Y1287680D01*
X1234230Y1288120D01*
X1233910Y1288870D01*
X1234130Y1289630D01*
X1234670Y1290170D01*
X1235420Y1290500D01*
X1236180D01*
X1236940Y1290280D01*
X1237590Y1289740D01*
G01X1245930Y1289960D02*
X1245280Y1290280D01*
X1244530Y1290500D01*
X1243660D01*
X1242680Y1290170D01*
X1241930Y1289630D01*
X1241380Y1288980D01*
X1240950Y1287900D01*
X1240840Y1286920D01*
X1241060Y1285950D01*
X1241380Y1285300D01*
X1242030Y1284650D01*
X1242790Y1284220D01*
X1243550Y1284000D01*
X1244310D01*
X1245070Y1284220D01*
X1245720Y1284540D01*
X1246260Y1284970D01*
G01X1249290Y1289420D02*
X1249940Y1290070D01*
X1250700Y1290390D01*
X1251570Y1290500D01*
X1252650Y1290280D01*
X1253410Y1289740D01*
X1253630Y1289090D01*
X1253520Y1288440D01*
X1253080Y1287900D01*
X1250920Y1286820D01*
X1249940Y1286060D01*
X1249290Y1284970D01*
X1249070Y1284000D01*
X1253630D01*
G54D15*
G01X1182080Y965330D02*
X1184250Y974000D01*
G01X1186420D02*
X1184250Y965330D01*
G01X1181000Y968580D02*
X1187500D01*
G01Y970750D02*
X1181000D01*
G01X1188610Y967500D02*
Y974000D01*
X1191320D01*
X1192190Y973670D01*
X1192730Y973240D01*
X1192950Y972370D01*
X1192730Y971510D01*
X1192080Y970970D01*
X1191320Y970640D01*
X1188610D01*
G01X1191320D02*
X1192950Y967500D01*
G01X1199480D02*
X1195140D01*
Y974000D01*
X1199480D01*
G01X1197740Y970860D02*
X1195140D01*
G01X1201780Y967500D02*
Y974000D01*
X1205900D01*
G01X1204380Y970860D02*
X1201780D01*
G01X1207990Y967500D02*
Y974000D01*
X1210150D01*
X1211020Y973670D01*
X1211670Y973240D01*
X1212210Y972590D01*
X1212650Y971830D01*
X1212750Y970750D01*
X1212650Y969670D01*
X1212210Y968910D01*
X1211670Y968260D01*
X1211020Y967820D01*
X1210150Y967500D01*
X1207990D01*
G01X1219070D02*
X1214730D01*
Y974000D01*
X1219070D01*
G01X1217330Y970860D02*
X1214730D01*
G01X1221150Y968370D02*
X1222020Y967820D01*
X1223000Y967500D01*
X1223860D01*
X1224730Y967820D01*
X1225380Y968370D01*
X1225710Y969130D01*
X1225490Y969880D01*
X1224950Y970530D01*
X1223970Y970970D01*
X1222670Y971180D01*
X1221910Y971620D01*
X1221590Y972370D01*
X1221810Y973130D01*
X1222350Y973670D01*
X1223100Y974000D01*
X1223860D01*
X1224620Y973780D01*
X1225270Y973240D01*
M02*
