G04 ================== begin FILE IDENTIFICATION RECORD ==================*
G04 Layout Name:  CC26xx_7x7_Diff_CC2592_V1_1_0.brd*
G04 Film Name:    Bottom*
G04 File Format:  Gerber RS274X*
G04 File Origin:  Cadence Allegro 16.6-P004*
G04 Origin Date:  Wed Nov 18 15:25:57 2015*
G04 *
G04 Layer:  VIA CLASS/BOTTOM*
G04 Layer:  PIN/BOTTOM*
G04 Layer:  ETCH/BOTTOM*
G04 Layer:  BOARD GEOMETRY/OUTLINE*
G04 *
G04 Offset:    (0.000 0.000)*
G04 Mirror:    No*
G04 Mode:      Positive*
G04 Rotation:  0*
G04 FullContactRelief:  No*
G04 UndefLineWidth:     0.000*
G04 ================== end FILE IDENTIFICATION RECORD ====================*
%FSLAX44Y44*MOMM*%
%IR0*IPPOS*OFA0.00000B0.00000*MIA0B0*SFA1.00000B1.00000*%
%AMMACRO14*
4,1,40,.239,.5,
-.239,.5,
-.280218,.496131,
-.320138,.485164,
-.357547,.467431,
-.391309,.443471,
-.420397,.414013,
-.443928,.379951,
-.461186,.342321,
-.471648,.302265,
-.475,.262,
-.475,-.262,
-.471479,-.303249,
-.460849,-.343261,
-.443432,-.380818,
-.419759,-.414781,
-.390547,-.444116,
-.356685,-.467934,
-.319202,-.485509,
-.279236,-.496309,
-.239,-.5,
.239,-.5,
.280218,-.496131,
.320138,-.485164,
.357547,-.467431,
.391309,-.443471,
.420397,-.414013,
.443928,-.379951,
.461186,-.342321,
.471648,-.302265,
.475,-.262,
.475,.262,
.471479,.303249,
.460849,.343261,
.443432,.380818,
.419759,.414781,
.390547,.444116,
.356685,.467934,
.319202,.485509,
.279236,.496309,
.239,.5,
0.0*
%
%ADD14MACRO14*%
%ADD15C,1.5*%
%ADD12O,2.05X.65*%
%AMMACRO13*
4,1,40,.5,-.239,
.5,.239,
.496131,.280218,
.485164,.320138,
.467431,.357547,
.443471,.391309,
.414013,.420397,
.379951,.443928,
.342321,.461186,
.302265,.471648,
.262,.475,
-.262,.475,
-.303249,.471479,
-.343261,.460849,
-.380818,.443432,
-.414781,.419759,
-.444116,.390547,
-.467934,.356685,
-.485509,.319202,
-.496309,.279236,
-.5,.239,
-.5,-.239,
-.496131,-.280218,
-.485164,-.320138,
-.467431,-.357547,
-.443471,-.391309,
-.414013,-.420397,
-.379951,-.443928,
-.342321,-.461186,
-.302265,-.471648,
-.262,-.475,
.262,-.475,
.303249,-.471479,
.343261,-.460849,
.380818,-.443432,
.414781,-.419759,
.444116,-.390547,
.467934,-.356685,
.485509,-.319202,
.496309,-.279236,
.5,-.239,
0.0*
%
%ADD13MACRO13*%
%ADD11C,.1*%
%ADD10C,.5*%
%ADD16C,.3*%
%ADD17C,.4*%
%ADD18C,.15*%
%ADD19C,.63*%
%ADD21C,1.804*%
%ADD20O,2.354X.954*%
%ADD22C,.758*%
G75*
%LPD*%
G75*
G36*
G01X1065000Y943000D02*
Y1397000D01*
G02X1066000Y1398000I1000J0D01*
G01X1460670D01*
G02X1461670Y1397000I0J-1000D01*
G01Y943000D01*
G02X1460670Y942000I-1000J0D01*
G01X1066000D01*
G02X1065000Y943000I0J1000D01*
G37*
%LPC*%
G75*
G36*
G01X1229790Y1085710D02*
X1252210Y1063290D01*
G02X1252500Y1062590I-710J-704D01*
G01Y1044910D01*
G02X1252210Y1044210I-1000J4D01*
G01X1241290Y1033290D01*
G02X1240590Y1033000I-704J710D01*
G01X1220410D01*
G02X1219710Y1033290I4J1000D01*
G01X1207290Y1045710D01*
G02X1207000Y1046410I710J704D01*
G01Y1073590D01*
G02X1207290Y1074290I1000J-4D01*
G01X1217210Y1084210D01*
G03X1217500Y1084910I-710J704D01*
G01Y1094000D01*
G02X1218500Y1095000I1000J0D01*
G01X1219000D01*
Y1084410D01*
G02X1218710Y1083710I-1000J4D01*
G01X1208790Y1073790D01*
G03X1208500Y1073090I710J-704D01*
G01Y1046910D01*
G03X1208790Y1046210I1000J4D01*
G01X1220210Y1034790D01*
G03X1220910Y1034500I704J710D01*
G01X1240090D01*
G03X1240790Y1034790I-4J1000D01*
G01X1250710Y1044710D01*
G03X1251000Y1045410I-710J704D01*
G01Y1062090D01*
G03X1250710Y1062790I-1000J-4D01*
G01X1228290Y1085210D01*
G02X1228000Y1085910I710J704D01*
G01Y1094000D01*
G02X1229000Y1095000I1000J0D01*
G01X1229500D01*
Y1086410D01*
G03X1229790Y1085710I1000J4D01*
G37*
G36*
G01X1378890Y1106480D02*
X1374110D01*
G02X1370230Y1110370I15J3895D01*
G01Y1115630D01*
G02X1374110Y1119520I3895J-5D01*
G01X1378890D01*
G02X1382770Y1115630I-15J-3895D01*
G01Y1110370D01*
G02X1378890Y1106480I-3895J5D01*
G37*
G36*
G01X1367020Y1098110D02*
G02X1363130Y1094230I-3895J15D01*
G01X1357870D01*
G02X1353980Y1098110I5J3895D01*
G01Y1102890D01*
G02X1354960Y1105450I3893J-23D01*
G01X1355070Y1105590D01*
X1355200Y1105900D01*
X1355250Y1107530D01*
X1355150Y1107860D01*
X1355040Y1108000D01*
G02X1354230Y1110370I3084J2378D01*
G01Y1115630D01*
G02X1356420Y1119130I3896J-3D01*
G01X1356680Y1119260D01*
X1356980Y1119730D01*
Y1122040D01*
G02X1357270Y1122750I1000J6D01*
G01X1361010Y1126490D01*
X1361080Y1126640D01*
G02X1366140Y1121580I3420J-1640D01*
G01X1365990Y1121510D01*
X1365660Y1121180D01*
G03X1365360Y1120480I701J-715D01*
G01Y1118860D01*
X1365510Y1118500D01*
X1365650Y1118360D01*
G02X1366770Y1115630I-2775J-2733D01*
G01Y1110370D01*
G02X1365960Y1108000I-3894J8D01*
G01X1365850Y1107860D01*
X1365750Y1107530D01*
X1365800Y1105900D01*
X1365930Y1105590D01*
X1366040Y1105450D01*
G02X1367020Y1102890I-2913J-2583D01*
G01Y1098110D01*
G37*
G36*
G01X1123770Y1109500D02*
Y1105350D01*
X1124350Y1104770D01*
X1133040D01*
G02Y1095230I0J-4770D01*
G01X1129000D01*
G03X1128070Y1094610I-4J-1001D01*
G01X1127960Y1094330D01*
X1128080Y1093750D01*
X1128160Y1093660D01*
X1128310Y1093300D01*
Y1093070D01*
G03X1129310Y1092070I1000J0D01*
G01X1133040D01*
G02Y1082530I0J-4770D01*
G01X1119040D01*
G02X1115300Y1090260I0J4770D01*
G01X1115410Y1090410D01*
X1115520Y1090740D01*
X1115430Y1092260D01*
G03X1115140Y1092910I-998J-56D01*
G01X1111880Y1096170D01*
G03X1111200Y1096460I-705J-710D01*
G01X1110600Y1096470D01*
G03X1109960Y1096260I-27J-999D01*
G02X1107000Y1095230I-2960J3738D01*
G01X1093000D01*
G02Y1104770I0J4770D01*
G01X1097950D01*
G03X1098830Y1105300I-3J1001D01*
G01X1099790Y1107100D01*
X1099760Y1107650D01*
X1099600Y1107890D01*
G02X1102260Y1113760I3149J2111D01*
G01X1102450Y1113780D01*
X1102760Y1113950D01*
X1103880Y1115240D01*
X1104000Y1115580D01*
Y1115770D01*
G02X1122030Y1115400I9021J110D01*
G03X1122880Y1114360I997J-52D01*
G02X1123730Y1113370I-152J-990D01*
G01Y1109540D01*
X1123770Y1109500D01*
G37*
G36*
G01X1107000Y1092070D02*
G02Y1082530I0J-4770D01*
G01X1093000D01*
G02X1089070Y1084600I0J4766D01*
G03X1088250Y1085030I-822J-571D01*
G01X1085740D01*
X1085380Y1085180D01*
X1085290Y1085270D01*
X1084270Y1085280D01*
G03X1083630Y1085050I-2J-1001D01*
G02X1084020Y1090590I-2379J2951D01*
G03X1084750Y1090270I733J679D01*
G01X1086300D01*
G02X1087000Y1089980I-4J-1000D01*
G01X1087120Y1089860D01*
G03X1087820Y1089570I704J710D01*
G01X1088250D01*
G03X1089070Y1090000I-2J1001D01*
G02X1093000Y1092070I3930J-2696D01*
G01X1107000D01*
G37*
G36*
G01X1279020Y1114040D02*
Y1078460D01*
X1279100Y1078180D01*
X1279180Y1078060D01*
G02X1272820I-3180J-2060D01*
G01X1272900Y1078180D01*
X1272980Y1078460D01*
Y1114040D01*
X1272900Y1114320D01*
X1272820Y1114440D01*
G02X1279180I3180J2060D01*
G01X1279100Y1114320D01*
X1279020Y1114040D01*
G37*
G36*
G01X1136970Y1071900D02*
G02X1133040Y1069830I-3930J2696D01*
G01X1119040D01*
G02Y1079370I0J4770D01*
G01X1133040D01*
G02X1136970Y1077300I0J-4766D01*
G03X1137790Y1076870I822J571D01*
G01X1139000D01*
G03X1139730Y1077190I-3J999D01*
G02Y1072010I2770J-2590D01*
G03X1139000Y1072330I-733J-679D01*
G01X1137790D01*
G03X1136970Y1071900I2J-1001D01*
G37*
G36*
G01X1107000Y1079370D02*
G02Y1069830I0J-4770D01*
G01X1093000D01*
G02X1089070Y1071900I0J4766D01*
G03X1088250Y1072330I-822J-571D01*
G01X1087750D01*
G03X1087020Y1072010I3J-999D01*
G02Y1077190I-2770J2590D01*
G03X1087750Y1076870I733J679D01*
G01X1088250D01*
G03X1089070Y1077300I-2J1001D01*
G02X1093000Y1079370I3930J-2696D01*
G01X1107000D01*
G37*
G36*
G01X1289520Y1114840D02*
Y1071420D01*
X1289580Y1071250D01*
G02X1282420I-3580J-1250D01*
G01X1282480Y1071420D01*
Y1114840D01*
X1282420Y1115010D01*
G02X1289580I3580J1250D01*
G01X1289520Y1114840D01*
G37*
G36*
G01X1107000Y1066670D02*
G02Y1057130I0J-4770D01*
G01X1093000D01*
G02X1089670Y1058490I0J4757D01*
G03X1089090Y1058760I-690J-724D01*
G01X1088480Y1058840D01*
G03X1087860Y1058710I-115J-995D01*
G02X1087960Y1065230I-1881J3290D01*
G03X1088570Y1065090I518J856D01*
G01X1089180Y1065150D01*
G03X1089770Y1065410I-86J995D01*
G02X1093000Y1066670I3230J-3510D01*
G01X1107000D01*
G37*
G36*
G01X1133040Y1044430D02*
X1119040D01*
G02Y1053970I0J4770D01*
G01X1133040D01*
G02X1133910Y1053890I0J-4771D01*
G01X1134160Y1053840D01*
X1134620Y1053990D01*
X1135470Y1054840D01*
G03Y1056260I-704J710D01*
G01X1134620Y1057110D01*
X1134160Y1057260D01*
X1133910Y1057210D01*
G02X1133040Y1057130I-870J4691D01*
G01X1119040D01*
G02Y1066670I0J4770D01*
G01X1133040D01*
G02X1137730Y1061030I0J-4770D01*
G01X1137680Y1060780D01*
X1137830Y1060320D01*
X1138590Y1059560D01*
G03X1139290Y1059270I704J710D01*
G01X1183900D01*
G03X1184600Y1059560I-4J1000D01*
G01X1187320Y1062280D01*
X1187470Y1062660D01*
X1187460Y1062870D01*
G02X1194290Y1060740I3788J131D01*
G01X1194140Y1060540D01*
X1194070Y1060070D01*
X1194750Y1058040D01*
X1195090Y1057700D01*
X1195330Y1057630D01*
G02X1191480Y1051410I-1081J-3632D01*
G03X1190750Y1051730I-733J-679D01*
G01X1139190D01*
G03X1138490Y1051440I4J-1000D01*
G01X1137830Y1050780D01*
X1137680Y1050320D01*
X1137730Y1050070D01*
G02X1133040Y1044430I-4690J-870D01*
G37*
G36*
G01X1107000Y1053970D02*
G02Y1044430I0J-4770D01*
G01X1093000D01*
G02X1089740Y1045720I0J4764D01*
G03X1089130Y1045990I-687J-729D01*
G01X1088500Y1046030D01*
G03X1087870Y1045860I-69J-998D01*
G02X1087700Y1052250I-2120J3141D01*
G03X1088340Y1052120I508J861D01*
G01X1088960Y1052200D01*
G03X1089550Y1052500I-132J989D01*
G02X1093000Y1053970I3450J-3313D01*
G01X1107000D01*
G37*
G36*
G01X1136320Y1033040D02*
G02X1133040Y1031730I-3280J3451D01*
G01X1119040D01*
G02Y1041270I0J4770D01*
G01X1133040D01*
G02X1136320Y1039960I0J-4761D01*
G03X1136910Y1039690I689J726D01*
G01X1137510Y1039630D01*
G03X1138130Y1039760I115J993D01*
G02Y1033240I1930J-3260D01*
G03X1137510Y1033370I-505J-863D01*
G01X1136910Y1033310D01*
G03X1136320Y1033040I99J-996D01*
G37*
G36*
G01X1107000Y1041270D02*
G02Y1031730I0J-4770D01*
G01X1093000D01*
G02X1089470Y1033290I0J4774D01*
G03X1088910Y1033600I-739J-674D01*
G01X1088310Y1033710D01*
G03X1087680Y1033610I-166J-987D01*
G02X1088150Y1040110I-1699J3390D01*
G03X1088750Y1039930I573J819D01*
G01X1089360Y1039950D01*
G03X1089970Y1040180I-29J1001D01*
G02X1093000Y1041270I3030J-3666D01*
G01X1107000D01*
G37*
G36*
G01X1136320Y1020340D02*
G02X1133040Y1019030I-3280J3451D01*
G01X1119040D01*
G02Y1028570I0J4770D01*
G01X1133040D01*
G02X1136320Y1027260I0J-4761D01*
G03X1136910Y1026990I689J726D01*
G01X1137510Y1026930D01*
G03X1138130Y1027060I115J993D01*
G02Y1020540I1930J-3260D01*
G03X1137510Y1020670I-505J-863D01*
G01X1136910Y1020610D01*
G03X1136320Y1020340I99J-996D01*
G37*
G36*
G01X1107000Y1028570D02*
G02Y1019030I0J-4770D01*
G01X1093000D01*
G02X1089720Y1020340I0J4761D01*
G03X1089130Y1020610I-689J-726D01*
G01X1088530Y1020670D01*
G03X1087910Y1020540I-115J-993D01*
G02Y1027060I-1930J3260D01*
G03X1088530Y1026930I505J863D01*
G01X1089130Y1026990D01*
G03X1089720Y1027260I-99J996D01*
G02X1093000Y1028570I3280J-3451D01*
G01X1107000D01*
G37*
G36*
G01X1136270Y1007590D02*
G02X1133040Y1006330I-3230J3510D01*
G01X1119040D01*
G02Y1015870I0J4770D01*
G01X1133040D01*
G02X1136370Y1014510I0J-4757D01*
G03X1136950Y1014240I690J724D01*
G01X1137560Y1014160D01*
G03X1138180Y1014290I115J995D01*
G02X1138080Y1007770I1881J-3290D01*
G03X1137470Y1007910I-518J-856D01*
G01X1136860Y1007850D01*
G03X1136270Y1007590I86J-995D01*
G37*
G36*
G01X1136120Y994760D02*
G02X1133040Y993630I-3080J3633D01*
G01X1119040D01*
G02Y1003170I0J4770D01*
G01X1133040D01*
G02X1136520Y1001660I0J-4765D01*
G03X1137090Y1001360I726J689D01*
G01X1137690Y1001260D01*
G03X1138310Y1001360I159J989D01*
G02X1137940Y994860I1751J-3360D01*
G03X1137340Y995030I-559J-831D01*
G01X1136720Y995000D01*
G03X1136120Y994760I52J-1000D01*
G37*
G36*
G01X1362020Y1027540D02*
Y993960D01*
X1362100Y993680D01*
X1362180Y993560D01*
G02X1355820I-3180J-2060D01*
G01X1355900Y993680D01*
X1355980Y993960D01*
Y1027540D01*
X1355900Y1027820D01*
X1355820Y1027940D01*
G02X1362180I3180J2060D01*
G01X1362100Y1027820D01*
X1362020Y1027540D01*
G37*
G36*
G01X1136970Y983000D02*
G02X1133040Y980930I-3930J2696D01*
G01X1119040D01*
G02Y990470I0J4770D01*
G01X1133040D01*
G02X1136970Y988400I0J-4766D01*
G03X1137790Y987970I822J571D01*
G01X1139240D01*
G03X1140030Y988350I5J1001D01*
G02X1140470Y983180I2971J-2351D01*
G03X1139810Y983430I-662J-750D01*
G01X1137790D01*
G03X1136970Y983000I2J-1001D01*
G37*
G36*
G01X1111720Y986530D02*
G02X1107830Y980980I-3719J-1532D01*
G03X1107650Y980970I-35J-997D01*
G02X1107000Y980930I-617J4732D01*
G01X1093000D01*
G02Y990470I0J4770D01*
G01X1107000D01*
G02X1111660Y986700I0J-4765D01*
G03X1111720Y986530I969J247D01*
G37*
G36*
G01X1293030Y1245280D02*
G02X1287630Y1245960I-3030J-2279D01*
G03X1287970Y1248720I-1255J1555D01*
G02X1293370Y1248040I3030J2279D01*
G03X1293030Y1245280I1255J-1555D01*
G37*
G36*
G01X1151100Y1090170D02*
X1151180Y1090050D01*
G02X1144820I-3180J-2060D01*
G01X1144900Y1090170D01*
X1144980Y1090450D01*
Y1136840D01*
G02X1145270Y1137540I1000J-4D01*
G01X1153130Y1145400D01*
X1153260Y1145650D01*
X1153290Y1145790D01*
G02X1157790Y1141290I3710J-790D01*
G01X1157650Y1141260D01*
X1157400Y1141130D01*
X1151310Y1135040D01*
G03X1151020Y1134330I710J-704D01*
G01Y1116960D01*
G03X1151530Y1116090I1001J2D01*
G01X1153280Y1115100D01*
X1153820Y1115110D01*
X1154050Y1115250D01*
G02Y1108750I1950J-3250D01*
G01X1153820Y1108890D01*
X1153280Y1108900D01*
X1151530Y1107910D01*
G03X1151020Y1107040I491J-872D01*
G01Y1090450D01*
X1151100Y1090170D01*
G37*
G36*
G01X1411800Y980930D02*
X1397800D01*
G02X1393030Y985760I0J4770D01*
G01Y985940D01*
X1392910Y986280D01*
X1391850Y987560D01*
X1391540Y987730D01*
X1391370Y987760D01*
G02X1388780Y993500I630J3738D01*
G01X1388870Y993650D01*
X1388940Y994000D01*
X1388670Y995660D01*
X1388500Y995970D01*
X1388360Y996090D01*
G02X1392990Y1002080I2422J2912D01*
G03X1393600Y1001890I587J809D01*
G01X1394210Y1001900D01*
G03X1394820Y1002120I-16J1001D01*
G02X1395250Y1002430I2999J-3706D01*
G01X1395350Y1002490D01*
X1395720Y1002870D01*
Y1003690D01*
X1395580Y1003830D01*
G02X1395350Y1004170I697J719D01*
G01X1395280Y1004360D01*
X1395290Y1004570D01*
G03X1395230Y1005370I-3789J118D01*
G02X1395310Y1005990I983J188D01*
G03X1395000Y1007240I-896J441D01*
G02X1393030Y1011160I2799J3862D01*
G01Y1011340D01*
X1392910Y1011680D01*
X1391850Y1012960D01*
X1391540Y1013130D01*
X1391370Y1013160D01*
G02X1391430Y1020650I624J3740D01*
G01X1391640Y1020680D01*
X1391970Y1020880D01*
X1393050Y1022390D01*
X1393140Y1022760D01*
X1393100Y1022970D01*
G02X1397800Y1028570I4700J828D01*
G01X1411800D01*
X1411920D01*
X1412130Y1028560D01*
X1412500Y1028710D01*
X1413070Y1029280D01*
X1413220Y1029660D01*
X1413210Y1029870D01*
G02Y1030190I3790J160D01*
G03X1412950Y1030920I-996J57D01*
G01X1412190Y1031750D01*
G02X1411800Y1031730I-439J4747D01*
G01X1397800D01*
G02Y1041270I0J4770D01*
G01X1411800D01*
G02X1412180Y1041250I-60J-4767D01*
G01X1412370Y1041240D01*
X1412710Y1041340D01*
X1414070Y1042340D01*
X1414260Y1042640D01*
X1414300Y1042820D01*
G02X1414450Y1043340I3709J-788D01*
G03X1413220Y1044650I-934J355D01*
G02X1411800Y1044430I-1432J4548D01*
G01X1397800D01*
G02X1394800Y1045490I0J4775D01*
G03X1394180Y1045710I-626J-780D01*
G01X1378880D01*
G02X1378170Y1046000I-5J1001D01*
G01X1376000Y1048170D01*
G02X1375710Y1048880I711J705D01*
G01Y1053320D01*
X1375440Y1053790D01*
X1375200Y1053920D01*
G02X1374170Y1054700I2276J4076D01*
G01X1356120Y1072740D01*
G02X1355830Y1073450I711J705D01*
G01Y1078290D01*
G03X1355450Y1079080I-1001J5D01*
G02X1353980Y1082110I2424J3048D01*
G01Y1086890D01*
G02X1357870Y1090770I3895J-15D01*
G01X1363130D01*
G02X1367020Y1086890I-5J-3895D01*
G01Y1082110D01*
G02X1365550Y1079080I-3894J18D01*
G03X1365170Y1078290I621J-785D01*
G01Y1077320D01*
G03X1365460Y1076610I1001J-5D01*
G01X1376420Y1065660D01*
G03X1377830I705J705D01*
G01X1378170Y1066000D01*
G02X1378880Y1066290I705J-711D01*
G01X1395930D01*
X1396100Y1066360D01*
G02X1397800Y1066670I1692J-4461D01*
G01X1411800D01*
G02X1412750Y1066570I-22J-4768D01*
G03X1413890Y1067900I201J982D01*
G02X1413830Y1068340I933J351D01*
G01X1413880Y1068830D01*
G03X1412990Y1069930I-996J105D01*
G01X1412840Y1069940D01*
X1412700Y1069920D01*
G02X1411800Y1069830I-922J4678D01*
G01X1397800D01*
G02X1393110Y1075470I0J4770D01*
G01X1393160Y1075720D01*
X1393010Y1076180D01*
X1389220Y1079970D01*
G02X1388930Y1080670I710J704D01*
G01Y1082800D01*
G03X1388640Y1083500I-999J-4D01*
G01X1388210Y1083940D01*
G03X1387610Y1084230I-710J-704D01*
G02X1390980Y1090340I389J3770D01*
G01X1391120Y1090160D01*
X1391530Y1089960D01*
X1393550Y1089940D01*
X1393960Y1090130D01*
X1394100Y1090310D01*
G02X1397800Y1092070I3700J-3009D01*
G01X1411800D01*
G02X1414660Y1091120I0J-4780D01*
G01X1414960Y1090900D01*
X1415700Y1090950D01*
X1415960Y1091210D01*
G03Y1092630I-706J710D01*
G01X1413380Y1095210D01*
X1412920Y1095360D01*
X1412670Y1095310D01*
G02X1411800Y1095230I-870J4691D01*
G01X1397800D01*
G02Y1104770I0J4770D01*
G01X1411800D01*
G02X1416490Y1099130I0J-4770D01*
G01X1416440Y1098880D01*
X1416590Y1098420D01*
X1417720Y1097290D01*
G03X1419140I710J704D01*
G01X1419350Y1097500D01*
X1419470Y1098060D01*
X1419370Y1098340D01*
G02X1423840Y1104770I4470J1661D01*
G01X1437840D01*
G02X1442610Y1099830I0J-4773D01*
G01X1442600Y1099640D01*
X1442720Y1099280D01*
X1443870Y1097960D01*
X1444200Y1097790D01*
X1444400Y1097770D01*
G02X1447750Y1093440I-399J-3770D01*
G01X1447720Y1093220D01*
X1447820Y1092830D01*
X1449020Y1091340D01*
X1449380Y1091160D01*
X1449600Y1091140D01*
G02X1446640Y1084730I-235J-3780D01*
G03X1445920Y1085030I-715J-702D01*
G01X1442590D01*
G03X1441770Y1084600I2J-1001D01*
G02X1437840Y1082530I-3930J2696D01*
G01X1423840D01*
G02X1423140Y1082580I-11J4771D01*
G03X1422060Y1081250I-142J-988D01*
G02X1422230Y1080600I-3568J-1280D01*
G03X1422580Y1080010I982J184D01*
G01X1423070Y1079600D01*
G03X1423730Y1079370I638J769D01*
G01X1437840D01*
G02X1439670Y1070190I0J-4772D01*
G03X1439150Y1068830I378J-924D01*
G02X1439240Y1068530I-901J-434D01*
G01Y1068510D01*
G03X1439370Y1067940I3746J554D01*
G02X1439410Y1067640I-960J-281D01*
G02X1439370Y1067370I-999J10D01*
G03X1439900Y1066200I965J-268D01*
G02X1441970Y1064290I-2055J-4304D01*
G01X1442030Y1064180D01*
X1445980Y1060230D01*
G02X1446270Y1059530I-710J-704D01*
G01Y1058500D01*
G03X1446590Y1057770I999J3D01*
G02X1444400Y1051230I-2589J-2770D01*
G01X1444200Y1051210D01*
X1443890Y1051050D01*
X1442730Y1049760D01*
X1442610Y1049430D01*
Y1049230D01*
G02X1442530Y1048310I-4772J-49D01*
G01X1442490Y1048130D01*
X1442550Y1047790D01*
X1443370Y1046340D01*
X1443630Y1046120D01*
X1443800Y1046060D01*
G02X1443860Y1038960I-1299J-3561D01*
G01X1443710Y1038900D01*
X1443460Y1038700D01*
X1442650Y1037400D01*
X1442580Y1037090D01*
X1442590Y1036920D01*
G02X1442520Y1035600I-4750J-410D01*
G01X1442490Y1035440D01*
X1442540Y1035120D01*
X1443240Y1033720D01*
X1443470Y1033500D01*
X1443630Y1033420D01*
G02X1444590Y1027230I-1629J-3422D01*
G03X1444270Y1026500I679J-733D01*
G01Y1025470D01*
G02X1443980Y1024770I-1000J4D01*
G01X1442720Y1023510D01*
X1442580Y1023240D01*
X1442550Y1023070D01*
G02X1437840Y1019030I-4710J726D01*
G01X1423840D01*
X1423710D01*
X1422990Y1018170D01*
G03X1422770Y1017420I773J-634D01*
G02X1422780Y1017250I-3777J-307D01*
G03X1423070Y1016610I998J67D01*
G01X1423800Y1015870D01*
X1437840D01*
G02Y1006330I0J-4770D01*
G01X1423840D01*
G02X1423620Y1006340I106J4765D01*
G01X1423410D01*
X1423050Y1006210D01*
X1421690Y1004960D01*
X1421530Y1004600D01*
Y1004390D01*
Y1004370D01*
X1421520Y1004160D01*
X1421670Y1003780D01*
X1422260Y1003190D01*
X1422720Y1003040D01*
X1422970Y1003090D01*
G02X1423840Y1003170I870J-4691D01*
G01X1437840D01*
G02Y993630I0J-4770D01*
G01X1423840D01*
G02X1419150Y999270I0J4770D01*
G01X1419200Y999520D01*
X1419050Y999980D01*
X1418460Y1000570D01*
X1418080Y1000720D01*
X1417870Y1000710D01*
G02X1417480Y1000720I-98J3789D01*
G01X1416750Y999850D01*
G03X1416520Y999070I761J-648D01*
G02X1411800Y993630I-4720J-672D01*
G01X1397800D01*
G02X1396830Y993730I2J4770D01*
G03X1395660Y992490I-205J-978D01*
G02X1395740Y992130I-3657J-1001D01*
G01X1395770Y991960D01*
X1395940Y991650D01*
X1397220Y990590D01*
X1397560Y990470D01*
X1397740D01*
X1411800D01*
G02Y980930I0J-4770D01*
G37*
G54D21*
X1113020Y969830D03*
X1417820D03*
X1381000Y1027000D03*
X1417820Y1115880D03*
G54D20*
X1430840Y985700D03*
X1100000Y1011100D03*
Y998400D03*
G54D22*
X1166250Y1117750D03*
X1171000Y1160000D03*
X1195000Y1293000D03*
X1300000Y1232000D03*
%LPD*%
G75*
G36*
G01X1378710Y1047290D02*
X1377290Y1048710D01*
G02X1377000Y1049410I710J704D01*
G01Y1062590D01*
G02X1377290Y1063290I1000J-4D01*
G01X1378710Y1064710D01*
G02X1379410Y1065000I704J-710D01*
G01X1411590D01*
G02X1412290Y1064710I-4J-1000D01*
G01X1414210Y1062790D01*
G02X1414500Y1062090I-710J-704D01*
G01Y1056500D01*
X1414440Y1056340D01*
G03Y1053740I3560J-1300D01*
G01X1414500Y1053580D01*
Y1048910D01*
G02X1414210Y1048210I-1000J4D01*
G01X1413290Y1047290D01*
G02X1412590Y1047000I-704J710D01*
G01X1379410D01*
G02X1378710Y1047290I4J1000D01*
G37*
G54D10*
X1076000Y988000D03*
X1070660Y1038170D03*
X1077000Y1015000D03*
X1084250Y1074600D03*
X1070660Y1081170D03*
X1081250Y1088000D03*
X1070660Y1125170D03*
X1071000Y1157000D03*
X1070000Y1191000D03*
X1069500Y1219500D03*
X1069000Y1257000D03*
X1069500Y1300500D03*
X1070000Y1335000D03*
X1070500Y1366500D03*
X1071000Y1391000D03*
X1096000Y948000D03*
X1126000Y947000D03*
X1108000Y985000D03*
X1085980Y1023800D03*
Y1037000D03*
X1113000Y1029000D03*
X1086000Y1005000D03*
X1085980Y1062000D03*
X1085750Y1049000D03*
X1113000Y1055000D03*
Y1082000D03*
X1102750Y1110000D03*
X1093000Y1159000D03*
X1121000Y1131000D03*
X1111000Y1201000D03*
X1116000Y1178000D03*
X1095000Y1229000D03*
X1105000Y1257000D03*
X1088500Y1280500D03*
X1092000Y1374000D03*
X1120000Y1368000D03*
X1088000Y1393000D03*
X1106000D03*
X1125000Y1392000D03*
X1140060Y998000D03*
X1143000Y986000D03*
X1132000Y972000D03*
X1154000Y967500D03*
X1140060Y1011000D03*
Y1023800D03*
Y1036500D03*
X1152000Y1005000D03*
X1156000Y1025000D03*
X1142500Y1074600D03*
X1138000Y1068770D03*
X1167000Y1064000D03*
X1158000Y1047000D03*
X1156000Y1079000D03*
X1155910Y1068530D03*
X1156000Y1112000D03*
X1166250Y1117750D03*
X1148000Y1087990D03*
X1137830Y1094230D03*
X1130000Y1122000D03*
X1157000Y1145000D03*
X1144000Y1151000D03*
X1155000Y1159470D03*
X1141000Y1136000D03*
X1163370Y1200900D03*
X1155000Y1208520D03*
X1164000Y1244000D03*
X1134000Y1237000D03*
X1128000Y1283000D03*
X1140000Y1258000D03*
X1167000Y1274000D03*
X1156000Y1331000D03*
Y1315000D03*
X1163000Y1297500D03*
X1163500Y1354000D03*
X1157500Y1372000D03*
X1139000Y1380000D03*
X1161500Y1392500D03*
X1144000Y1392000D03*
X1201000Y953000D03*
X1171000Y948000D03*
X1204000Y998000D03*
X1200000Y978000D03*
X1169000Y984000D03*
X1171000Y1005000D03*
X1181000Y1020000D03*
X1169000Y1037000D03*
X1194250Y1054000D03*
X1191250Y1063000D03*
X1168000Y1079000D03*
X1189000Y1125000D03*
X1199000D03*
X1209000D03*
Y1115000D03*
X1199000D03*
X1189000D03*
Y1105000D03*
X1199000D03*
X1209000D03*
X1171000Y1160000D03*
X1209000Y1145000D03*
X1199000D03*
X1189000D03*
X1209000Y1135000D03*
X1199000D03*
X1189000D03*
X1203000Y1200000D03*
X1174000Y1189000D03*
X1191000Y1221000D03*
X1170000Y1210000D03*
X1202000Y1222000D03*
X1191000Y1233000D03*
X1169000Y1228000D03*
X1203000Y1268000D03*
X1181000Y1263000D03*
X1200060Y1277940D03*
X1189250Y1305230D03*
X1206000Y1303000D03*
X1202000Y1324000D03*
X1171000Y1316000D03*
Y1330290D03*
X1188620Y1330670D03*
X1189000Y1316000D03*
X1195000Y1293000D03*
X1199000Y1344000D03*
X1176000Y1392500D03*
X1195000Y1389000D03*
X1238000Y948000D03*
X1246000Y965000D03*
X1213000Y1033000D03*
X1248000Y1030000D03*
X1241000Y1054000D03*
X1247000Y1047000D03*
X1241000D03*
X1247000Y1054000D03*
X1219000Y1125000D03*
X1229000D03*
Y1115000D03*
X1219000D03*
Y1105000D03*
X1229000D03*
X1219000Y1145000D03*
X1229000D03*
Y1135000D03*
X1219000D03*
X1248000Y1199000D03*
X1218000Y1198800D03*
X1220000Y1182000D03*
X1247000Y1177000D03*
X1212000Y1221000D03*
X1217000Y1228000D03*
X1241500Y1244500D03*
Y1236500D03*
X1233750Y1244500D03*
X1226000Y1236500D03*
Y1244500D03*
X1234000Y1236500D03*
X1245500Y1289000D03*
X1219000Y1273000D03*
X1241500Y1252500D03*
X1234000D03*
X1226000D03*
X1245000Y1282000D03*
X1214000Y1264000D03*
X1228000Y1276000D03*
X1215000Y1326000D03*
X1219000Y1303000D03*
X1229000Y1320000D03*
X1211000Y1296000D03*
X1229000Y1328000D03*
X1246000Y1327000D03*
Y1295500D03*
Y1315500D03*
X1220000Y1316000D03*
X1246000Y1303000D03*
X1228000Y1297000D03*
X1217000Y1339000D03*
X1228000Y1337000D03*
X1227000Y1355000D03*
X1247000Y1365000D03*
Y1345000D03*
Y1354500D03*
X1212000Y1355000D03*
X1227000Y1365000D03*
X1212000Y1389000D03*
X1226000Y1388000D03*
X1248000Y1394000D03*
X1276000Y948000D03*
X1252000Y998000D03*
X1275000Y977000D03*
X1277000Y1033000D03*
X1276000Y1076000D03*
X1270000Y1064000D03*
X1256000Y1066000D03*
X1257000Y1053000D03*
X1270000Y1079000D03*
X1284500Y1049500D03*
X1286000Y1070000D03*
X1276000Y1116500D03*
X1279000Y1123000D03*
X1286000Y1116260D03*
X1288000Y1164480D03*
X1275000Y1144000D03*
X1270000Y1159000D03*
X1275000Y1130000D03*
X1270000Y1199000D03*
X1257500Y1179500D03*
X1278000Y1179000D03*
X1272000Y1170000D03*
X1290000Y1243000D03*
X1268000Y1220020D03*
X1285000Y1219000D03*
X1264000Y1229000D03*
X1252000Y1221000D03*
X1291000Y1251000D03*
X1252500Y1276000D03*
X1251000Y1266000D03*
X1265000Y1287000D03*
X1289500Y1271500D03*
X1281000Y1282000D03*
X1289000Y1259000D03*
X1278000Y1260500D03*
X1265000Y1256000D03*
X1254500Y1290500D03*
X1273000Y1328000D03*
X1291000Y1334000D03*
X1279000Y1294000D03*
X1266000Y1300000D03*
X1261000Y1320000D03*
X1287000Y1320500D03*
X1290500Y1347000D03*
X1266500Y1338500D03*
X1273000Y1352500D03*
X1260000Y1364000D03*
X1253000Y1336000D03*
X1280000Y1364000D03*
X1292000Y1383000D03*
X1267000Y1384000D03*
X1260000Y1393000D03*
X1277000D03*
X1302000Y947000D03*
X1309000Y998000D03*
X1314000Y972000D03*
X1329000Y1033000D03*
X1301500Y1033500D03*
X1293000Y1082000D03*
X1316000D03*
X1326000Y1066000D03*
X1304000Y1065000D03*
X1315000Y1049500D03*
X1328500Y1118000D03*
X1304000Y1119000D03*
X1316000Y1166000D03*
X1300000D03*
X1333000Y1145500D03*
Y1167000D03*
X1311000Y1143000D03*
X1322500Y1130000D03*
X1294000Y1128000D03*
X1323000Y1198000D03*
X1301000Y1202000D03*
X1330000Y1186000D03*
X1300000Y1232000D03*
X1333500Y1238000D03*
X1320500Y1220500D03*
X1328000Y1247500D03*
X1316500Y1242500D03*
X1332000Y1221000D03*
X1309000Y1220000D03*
X1323020Y1232000D03*
X1311500Y1263000D03*
X1333000Y1257000D03*
X1318500Y1270000D03*
X1298000Y1289500D03*
X1305500Y1276000D03*
X1332000Y1282000D03*
X1300000Y1261500D03*
X1318000Y1254500D03*
X1331000Y1324500D03*
X1324500Y1308000D03*
X1304500Y1317500D03*
X1319500Y1333500D03*
X1309500Y1303500D03*
X1325500Y1293000D03*
X1318000Y1320500D03*
X1323500Y1346500D03*
X1307500Y1353500D03*
X1334000Y1342000D03*
Y1364000D03*
X1304500Y1337500D03*
X1297000Y1364000D03*
X1316000D03*
X1329000Y1384000D03*
X1295000Y1393000D03*
X1312000D03*
X1331850Y1392800D03*
X1366000Y947000D03*
X1338000Y956000D03*
X1359000Y991500D03*
X1345500Y998000D03*
X1367000Y977000D03*
X1341000Y979000D03*
X1359000Y1030000D03*
X1370000Y1041000D03*
X1348000Y1033000D03*
X1342000Y1082000D03*
X1341000Y1053000D03*
X1375500Y1125500D03*
X1348500Y1117500D03*
X1364500Y1125000D03*
X1375500Y1163000D03*
X1347500Y1156000D03*
X1346000Y1130000D03*
X1352000Y1182000D03*
X1343000Y1197000D03*
X1356500Y1211000D03*
X1357000Y1237500D03*
X1363000Y1262000D03*
X1361000Y1295000D03*
X1370000Y1330000D03*
X1363000Y1361000D03*
X1367870Y1393140D03*
X1350370D03*
X1400000Y947000D03*
X1390780Y999000D03*
X1392000Y991500D03*
X1383500Y964500D03*
X1392000Y1016900D03*
X1417000Y1030000D03*
X1383000Y1013000D03*
X1390000Y1041000D03*
X1384500Y1050500D03*
X1390500D03*
X1384500Y1056000D03*
X1390500D03*
X1384500Y1061500D03*
X1390500D03*
X1383520Y1076000D03*
X1389000Y1070290D03*
X1404000Y1121000D03*
X1389500Y1118000D03*
X1388000Y1088000D03*
X1378500Y1144500D03*
X1412500Y1136500D03*
X1405000Y1152000D03*
X1397000Y1178000D03*
X1380370Y1201220D03*
X1415500Y1185000D03*
X1387000Y1234000D03*
X1410000Y1216000D03*
X1392000Y1269000D03*
X1410000Y1288000D03*
X1413000Y1253000D03*
X1412000Y1320000D03*
X1388000Y1302000D03*
X1394000Y1344000D03*
X1396000Y1366000D03*
X1377000Y1379000D03*
X1386000Y1393000D03*
X1403500D03*
X1427000Y947000D03*
X1418000Y993000D03*
X1455000Y981000D03*
X1437000Y972000D03*
X1417740Y1004500D03*
X1419000Y1017000D03*
X1442000Y1030000D03*
X1442500Y1042500D03*
X1418000Y1042000D03*
X1443000Y1017000D03*
X1458750Y1014000D03*
X1444000Y1055000D03*
X1418500Y1079940D03*
X1445000Y1078000D03*
Y1066000D03*
X1458750Y1050000D03*
X1418000Y1055040D03*
X1444000Y1094000D03*
X1449360Y1087360D03*
X1446500Y1108500D03*
X1457000Y1095000D03*
X1432000Y1109700D03*
X1430500Y1159500D03*
X1456000Y1153000D03*
X1457000Y1127000D03*
X1428000Y1128000D03*
X1456000Y1181000D03*
X1436500Y1206500D03*
X1456000Y1220000D03*
X1439000Y1244000D03*
X1435000Y1273000D03*
X1457000Y1261000D03*
Y1291000D03*
X1440500Y1293000D03*
X1435500Y1310500D03*
X1454000Y1327000D03*
X1424000Y1349000D03*
X1453000Y1357000D03*
X1442000Y1375000D03*
X1439000Y1393500D03*
X1420480Y1393160D03*
X1454000Y1392000D03*
G54D11*
X1113020Y969830D03*
Y1115880D03*
X1417820Y969830D03*
Y1115880D03*
G54D12*
X1126040Y985700D03*
Y998400D03*
X1100000Y985700D03*
Y998400D03*
X1126040Y1011100D03*
Y1023800D03*
Y1036500D03*
X1100000Y1011100D03*
Y1023800D03*
Y1036500D03*
X1126040Y1049200D03*
Y1061900D03*
Y1074600D03*
X1100000Y1049200D03*
Y1061900D03*
Y1074600D03*
X1126040Y1087300D03*
Y1100000D03*
X1100000Y1087300D03*
Y1100000D03*
X1404800Y985700D03*
Y998400D03*
Y1011100D03*
Y1023800D03*
Y1036500D03*
Y1049200D03*
Y1061900D03*
Y1074600D03*
Y1087300D03*
Y1100000D03*
X1430840Y985700D03*
Y998400D03*
Y1011100D03*
Y1023800D03*
Y1036500D03*
Y1049200D03*
Y1061900D03*
Y1074600D03*
Y1087300D03*
Y1100000D03*
G54D13*
X1360500Y1084500D03*
Y1100500D03*
G54D14*
X1376500Y1113000D03*
X1360500D03*
G54D15*
X1381000Y1027000D03*
G54D16*
G01X1148000Y1087990D02*
Y1136000D01*
X1157000Y1145000D01*
G01X1276000Y1076000D02*
Y1116500D01*
G01X1359000Y1030000D02*
Y991500D01*
G54D17*
G01X1286000Y1070000D02*
Y1116260D01*
G01X1364500Y1125000D02*
X1360500Y1121000D01*
Y1113000D01*
G01D02*
Y1100500D01*
G54D18*
G01X1100000Y1087300D02*
X1086470D01*
X1085770Y1088000D01*
X1081250D01*
G01X1100000Y979930D02*
Y985700D01*
G01D02*
Y991470D01*
G01X1087230Y985700D02*
X1100000D01*
G01D02*
X1112770D01*
G01X1100000Y1023800D02*
X1085980D01*
G01X1100000Y1036500D02*
X1088500D01*
X1088000Y1037000D01*
X1085980D01*
G01X1084250Y1074600D02*
X1100000D01*
G01Y1061900D02*
X1088100D01*
X1088000Y1062000D01*
X1085980D01*
G01X1100000Y1049200D02*
X1099800Y1049000D01*
X1085750D01*
G01X1126040Y1087300D02*
Y1092570D01*
X1124110Y1094500D01*
X1116760D01*
X1113540Y1097720D01*
Y1101560D01*
X1109600Y1105500D01*
X1107250D01*
X1102750Y1110000D01*
G01X1100000Y1094230D02*
Y1100000D01*
G01X1087230D02*
X1100000D01*
G01X1126040Y998400D02*
X1126440Y998000D01*
X1140060D01*
G01X1126040Y985700D02*
X1142700D01*
X1143000Y986000D01*
G01X1126040Y1011100D02*
X1138310D01*
X1138410Y1011000D01*
X1140060D01*
G01Y1023800D02*
X1126040D01*
G01X1140060Y1036500D02*
X1126040D01*
G01Y1074600D02*
X1142500D01*
G01X1126040Y1049200D02*
X1133040D01*
X1137840Y1054000D01*
X1194250D01*
G01X1126040Y1061900D02*
X1133040D01*
X1137940Y1057000D01*
X1185250D01*
X1191250Y1063000D01*
G01X1369230Y1113000D02*
X1376500D01*
G01X1404800Y998400D02*
X1397800D01*
X1397200Y999000D01*
X1390780D01*
G01X1404800Y985700D02*
X1397800D01*
X1392000Y991500D01*
G01X1404800Y1011100D02*
X1397800D01*
X1392000Y1016900D01*
G01X1404800Y1023800D02*
X1410800D01*
X1417000Y1030000D01*
G01X1404800Y1036500D02*
X1412500D01*
X1418000Y1042000D01*
G01X1404800Y1074600D02*
X1397800D01*
X1391200Y1081200D01*
Y1084800D01*
X1388000Y1088000D01*
G01X1404800Y1100000D02*
X1411800D01*
X1417800Y1094000D01*
X1444000D01*
G01X1376500Y1105480D02*
Y1113000D01*
G01D02*
Y1120520D01*
G01Y1113000D02*
X1383770D01*
G01X1430840Y998400D02*
X1423840D01*
X1417740Y1004500D01*
G01X1430840Y979930D02*
Y985700D01*
G01D02*
Y991470D01*
G01X1418070Y985700D02*
X1430840D01*
G01D02*
X1443610D01*
G01X1430840Y1011100D02*
X1430740Y1011000D01*
X1425000D01*
X1419000Y1017000D01*
G01X1430840Y1023800D02*
X1439800D01*
X1442000Y1026000D01*
Y1030000D01*
G01X1430840Y1036500D02*
X1436500D01*
X1442500Y1042500D01*
G01X1430840Y1061900D02*
X1441100D01*
X1444000Y1059000D01*
Y1055000D01*
G01X1430840Y1074600D02*
X1423840D01*
X1418500Y1079940D01*
G01X1430840Y1049200D02*
X1423840D01*
X1418000Y1055040D01*
G01X1430840Y1087300D02*
X1444780D01*
X1444840Y1087360D01*
X1449360D01*
G01X1430840Y1100000D02*
Y1105770D01*
G01X1418070Y1100000D02*
X1430840D01*
G01D02*
X1443610D01*
G54D19*
G01X1377470Y1058000D02*
X1360500Y1074970D01*
Y1084500D01*
G01X1378000Y1058000D02*
X1377470D01*
M02*
