G04 ================== begin FILE IDENTIFICATION RECORD ==================*
G04 Layout Name:  CC26xx_7x7_Diff_CC2592_V1_1_0.brd*
G04 Film Name:    drill*
G04 File Format:  Gerber RS274X*
G04 File Origin:  Cadence Allegro 16.6-P004*
G04 Origin Date:  Wed Nov 18 15:25:57 2015*
G04 *
G04 Layer:  BOARD GEOMETRY/DIMENSION*
G04 Layer:  MANUFACTURING/XSECTION_CHART*
G04 Layer:  MANUFACTURING/NCDRILL_LEGEND*
G04 Layer:  MANUFACTURING/NCDRILL_FIGURE*
G04 Layer:  MANUFACTURING/NCLEGEND-1-2*
G04 Layer:  MANUFACTURING/NCLEGEND-1-4*
G04 Layer:  BOARD GEOMETRY/OUTLINE*
G04 *
G04 Offset:    (0.000 0.000)*
G04 Mirror:    No*
G04 Mode:      Positive*
G04 Rotation:  0*
G04 FullContactRelief:  No*
G04 UndefLineWidth:     0.020*
G04 ================== end FILE IDENTIFICATION RECORD ====================*
%FSLAX44Y44*MOMM*%
%IR0*IPPOS*OFA0.00000B0.00000*MIA0B0*SFA1.00000B1.00000*%
%AMMACRO11*
1,1,.02,.5,0.0*
20,1,.02,.5,0.0,.492404,-.086824,0.0*
1,1,.02,.492404,-.086824*
20,1,.02,.492404,-.086824,.469846,-.17101,0.0*
1,1,.02,.469846,-.17101*
20,1,.02,.469846,-.17101,.433013,-.25,0.0*
1,1,.02,.433013,-.25*
20,1,.02,.433013,-.25,.383022,-.321394,0.0*
1,1,.02,.383022,-.321394*
20,1,.02,.383022,-.321394,.321394,-.383022,0.0*
1,1,.02,.321394,-.383022*
20,1,.02,.321394,-.383022,.25,-.433013,0.0*
1,1,.02,.25,-.433013*
20,1,.02,.25,-.433013,.17101,-.469846,0.0*
1,1,.02,.17101,-.469846*
20,1,.02,.17101,-.469846,.086824,-.492404,0.0*
1,1,.02,.086824,-.492404*
20,1,.02,.086824,-.492404,0.0,-.5,0.0*
1,1,.02,0.0,-.5*
20,1,.02,0.0,-.5,-.086824,-.492404,0.0*
1,1,.02,-.086824,-.492404*
20,1,.02,-.086824,-.492404,-.17101,-.469846,0.0*
1,1,.02,-.17101,-.469846*
20,1,.02,-.17101,-.469846,-.25,-.433013,0.0*
1,1,.02,-.25,-.433013*
20,1,.02,-.25,-.433013,-.321394,-.383022,0.0*
1,1,.02,-.321394,-.383022*
20,1,.02,-.321394,-.383022,-.383022,-.321394,0.0*
1,1,.02,-.383022,-.321394*
20,1,.02,-.383022,-.321394,-.433013,-.25,0.0*
1,1,.02,-.433013,-.25*
20,1,.02,-.433013,-.25,-.469846,-.17101,0.0*
1,1,.02,-.469846,-.17101*
20,1,.02,-.469846,-.17101,-.492404,-.086824,0.0*
1,1,.02,-.492404,-.086824*
20,1,.02,-.492404,-.086824,-.5,0.0,0.0*
1,1,.02,-.5,0.0*
20,1,.02,-.5,0.0,-.492404,.086824,0.0*
1,1,.02,-.492404,.086824*
20,1,.02,-.492404,.086824,-.469846,.17101,0.0*
1,1,.02,-.469846,.17101*
20,1,.02,-.469846,.17101,-.433013,.25,0.0*
1,1,.02,-.433013,.25*
20,1,.02,-.433013,.25,-.383022,.321394,0.0*
1,1,.02,-.383022,.321394*
20,1,.02,-.383022,.321394,-.321394,.383022,0.0*
1,1,.02,-.321394,.383022*
20,1,.02,-.321394,.383022,-.25,.433013,0.0*
1,1,.02,-.25,.433013*
20,1,.02,-.25,.433013,-.17101,.469846,0.0*
1,1,.02,-.17101,.469846*
20,1,.02,-.17101,.469846,-.086824,.492404,0.0*
1,1,.02,-.086824,.492404*
20,1,.02,-.086824,.492404,0.0,.5,0.0*
1,1,.02,0.0,.5*
20,1,.02,0.0,.5,.086824,.492404,0.0*
1,1,.02,.086824,.492404*
20,1,.02,.086824,.492404,.17101,.469846,0.0*
1,1,.02,.17101,.469846*
20,1,.02,.17101,.469846,.25,.433013,0.0*
1,1,.02,.25,.433013*
20,1,.02,.25,.433013,.321394,.383022,0.0*
1,1,.02,.321394,.383022*
20,1,.02,.321394,.383022,.383022,.321394,0.0*
1,1,.02,.383022,.321394*
20,1,.02,.383022,.321394,.433013,.25,0.0*
1,1,.02,.433013,.25*
20,1,.02,.433013,.25,.469846,.17101,0.0*
1,1,.02,.469846,.17101*
20,1,.02,.469846,.17101,.492404,.086824,0.0*
1,1,.02,.492404,.086824*
20,1,.02,.492404,.086824,.5,0.0,0.0*
1,1,.02,.5,0.0*
1,1,.02,.25,0.0*
20,1,.02,.25,0.0,-.25,0.0,0.0*
1,1,.02,-.25,0.0*
1,1,.02,0.0,.25*
20,1,.02,0.0,.25,0.0,-.25,0.0*
1,1,.02,0.0,-.25*
%
%ADD11MACRO11*%
%AMMACRO12*
1,1,.02,.635,0.0*
20,1,.02,.635,0.0,.625353,-.110267,0.0*
1,1,.02,.625353,-.110267*
20,1,.02,.625353,-.110267,.596705,-.217183,0.0*
1,1,.02,.596705,-.217183*
20,1,.02,.596705,-.217183,.549926,-.3175,0.0*
1,1,.02,.549926,-.3175*
20,1,.02,.549926,-.3175,.486438,-.40817,0.0*
1,1,.02,.486438,-.40817*
20,1,.02,.486438,-.40817,.40817,-.486438,0.0*
1,1,.02,.40817,-.486438*
20,1,.02,.40817,-.486438,.3175,-.549926,0.0*
1,1,.02,.3175,-.549926*
20,1,.02,.3175,-.549926,.217183,-.596705,0.0*
1,1,.02,.217183,-.596705*
20,1,.02,.217183,-.596705,.110267,-.625353,0.0*
1,1,.02,.110267,-.625353*
20,1,.02,.110267,-.625353,0.0,-.635,0.0*
1,1,.02,0.0,-.635*
20,1,.02,0.0,-.635,-.110267,-.625353,0.0*
1,1,.02,-.110267,-.625353*
20,1,.02,-.110267,-.625353,-.217183,-.596705,0.0*
1,1,.02,-.217183,-.596705*
20,1,.02,-.217183,-.596705,-.3175,-.549926,0.0*
1,1,.02,-.3175,-.549926*
20,1,.02,-.3175,-.549926,-.40817,-.486438,0.0*
1,1,.02,-.40817,-.486438*
20,1,.02,-.40817,-.486438,-.486438,-.40817,0.0*
1,1,.02,-.486438,-.40817*
20,1,.02,-.486438,-.40817,-.549926,-.3175,0.0*
1,1,.02,-.549926,-.3175*
20,1,.02,-.549926,-.3175,-.596705,-.217183,0.0*
1,1,.02,-.596705,-.217183*
20,1,.02,-.596705,-.217183,-.625353,-.110267,0.0*
1,1,.02,-.625353,-.110267*
20,1,.02,-.625353,-.110267,-.635,0.0,0.0*
1,1,.02,-.635,0.0*
20,1,.02,-.635,0.0,-.625353,.110267,0.0*
1,1,.02,-.625353,.110267*
20,1,.02,-.625353,.110267,-.596705,.217183,0.0*
1,1,.02,-.596705,.217183*
20,1,.02,-.596705,.217183,-.549926,.3175,0.0*
1,1,.02,-.549926,.3175*
20,1,.02,-.549926,.3175,-.486438,.40817,0.0*
1,1,.02,-.486438,.40817*
20,1,.02,-.486438,.40817,-.40817,.486438,0.0*
1,1,.02,-.40817,.486438*
20,1,.02,-.40817,.486438,-.3175,.549926,0.0*
1,1,.02,-.3175,.549926*
20,1,.02,-.3175,.549926,-.217183,.596705,0.0*
1,1,.02,-.217183,.596705*
20,1,.02,-.217183,.596705,-.110267,.625353,0.0*
1,1,.02,-.110267,.625353*
20,1,.02,-.110267,.625353,0.0,.635,0.0*
1,1,.02,0.0,.635*
20,1,.02,0.0,.635,.110267,.625353,0.0*
1,1,.02,.110267,.625353*
20,1,.02,.110267,.625353,.217183,.596705,0.0*
1,1,.02,.217183,.596705*
20,1,.02,.217183,.596705,.3175,.549926,0.0*
1,1,.02,.3175,.549926*
20,1,.02,.3175,.549926,.40817,.486438,0.0*
1,1,.02,.40817,.486438*
20,1,.02,.40817,.486438,.486438,.40817,0.0*
1,1,.02,.486438,.40817*
20,1,.02,.486438,.40817,.549926,.3175,0.0*
1,1,.02,.549926,.3175*
20,1,.02,.549926,.3175,.596705,.217183,0.0*
1,1,.02,.596705,.217183*
20,1,.02,.596705,.217183,.625353,.110267,0.0*
1,1,.02,.625353,.110267*
20,1,.02,.625353,.110267,.635,0.0,0.0*
1,1,.02,.635,0.0*
1,1,.02,.3175,0.0*
20,1,.02,.3175,0.0,-.3175,0.0,0.0*
1,1,.02,-.3175,0.0*
1,1,.02,0.0,.3175*
20,1,.02,0.0,.3175,0.0,-.3175,0.0*
1,1,.02,0.0,-.3175*
%
%ADD12MACRO12*%
%AMMACRO10*
1,1,.02,0.0,1.*
20,1,.02,0.0,1.,1.,-1.,0.0*
1,1,.02,1.,-1.*
20,1,.02,1.,-1.,-1.,-1.,0.0*
1,1,.02,-1.,-1.*
20,1,.02,-1.,-1.,0.0,1.,0.0*
1,1,.02,0.0,1.*
1,1,.02,.5,0.0*
20,1,.02,.5,0.0,-.5,0.0,0.0*
1,1,.02,-.5,0.0*
1,1,.02,0.0,.5*
20,1,.02,0.0,.5,0.0,-.5,0.0*
1,1,.02,0.0,-.5*
%
%ADD10MACRO10*%
%AMMACRO13*
1,1,.02,.3,0.0*
20,1,.02,.3,0.0,-.3,0.0,0.0*
1,1,.02,-.3,0.0*
1,1,.02,0.0,.3*
20,1,.02,0.0,.3,0.0,-.3,0.0*
1,1,.02,0.0,-.3*
1,1,.02,.04,.3*
20,1,.02,.04,.3,.04,.085,0.0*
1,1,.02,.04,.085*
20,1,.02,.04,.085,.06,.04,0.0*
1,1,.02,.06,.04*
20,1,.02,.06,.04,.1,.01,0.0*
1,1,.02,.1,.01*
20,1,.02,.1,.01,.15,0.0,0.0*
1,1,.02,.15,0.0*
20,1,.02,.15,0.0,.2,.01,0.0*
1,1,.02,.2,.01*
20,1,.02,.2,.01,.24,.04,0.0*
1,1,.02,.24,.04*
20,1,.02,.24,.04,.26,.085,0.0*
1,1,.02,.26,.085*
20,1,.02,.26,.085,.26,.3,0.0*
1,1,.02,.26,.3*
%
%ADD13MACRO13*%
%ADD14C,.05*%
%ADD15C,.1*%
%ADD16C,.02*%
%ADD17C,.003*%
G75*
%LPD*%
G75*
G36*
G01X1420000Y475480D02*
Y530430D01*
X1547000D01*
Y475480D01*
X1420000D01*
G37*
G36*
G01Y557900D02*
Y586160D01*
X1547000D01*
Y557900D01*
X1420000D01*
G37*
G36*
G01Y765140D02*
Y793400D01*
X1547000D01*
Y765140D01*
X1420000D01*
G37*
G36*
G01Y820870D02*
Y875820D01*
X1547000D01*
Y820870D01*
X1420000D01*
G37*
G54D10*
X1088870Y607500D03*
X1113020Y969830D03*
Y1115880D03*
X1417820Y969830D03*
Y1115880D03*
G54D11*
X1076000Y988000D03*
X1070660Y1038170D03*
X1077000Y1015000D03*
X1084250Y1074600D03*
X1070660Y1081170D03*
X1081250Y1088000D03*
X1070660Y1125170D03*
X1071000Y1157000D03*
X1070000Y1191000D03*
X1069500Y1219500D03*
X1069000Y1257000D03*
X1069500Y1300500D03*
X1070000Y1335000D03*
X1070500Y1366500D03*
X1071000Y1391000D03*
X1088870Y697500D03*
X1096000Y948000D03*
X1126000Y947000D03*
X1108000Y985000D03*
X1085980Y1023800D03*
Y1037000D03*
X1113000Y1029000D03*
X1086000Y1005000D03*
X1085980Y1062000D03*
X1085750Y1049000D03*
X1113000Y1055000D03*
Y1082000D03*
X1102750Y1110000D03*
X1093000Y1159000D03*
X1121000Y1131000D03*
X1111000Y1201000D03*
X1116000Y1178000D03*
X1095000Y1229000D03*
X1105000Y1257000D03*
X1088500Y1280500D03*
X1092000Y1374000D03*
X1120000Y1368000D03*
X1088000Y1393000D03*
X1106000D03*
X1125000Y1392000D03*
X1140060Y998000D03*
X1143000Y986000D03*
X1132000Y972000D03*
X1154000Y967500D03*
X1140060Y1011000D03*
Y1023800D03*
Y1036500D03*
X1152000Y1005000D03*
X1156000Y1025000D03*
X1142500Y1074600D03*
X1138000Y1068770D03*
X1167000Y1064000D03*
X1158000Y1047000D03*
X1156000Y1079000D03*
X1155910Y1068530D03*
X1156000Y1112000D03*
X1166250Y1117750D03*
X1148000Y1087990D03*
X1137830Y1094230D03*
X1130000Y1122000D03*
X1157000Y1145000D03*
X1144000Y1151000D03*
X1155000Y1159470D03*
X1141000Y1136000D03*
X1163370Y1200900D03*
X1155000Y1208520D03*
X1164000Y1244000D03*
X1134000Y1237000D03*
X1128000Y1283000D03*
X1140000Y1258000D03*
X1167000Y1274000D03*
X1156000Y1331000D03*
Y1315000D03*
X1163000Y1297500D03*
X1163500Y1354000D03*
X1157500Y1372000D03*
X1139000Y1380000D03*
X1161500Y1392500D03*
X1144000Y1392000D03*
X1201000Y953000D03*
X1171000Y948000D03*
X1204000Y998000D03*
X1200000Y978000D03*
X1169000Y984000D03*
X1171000Y1005000D03*
X1181000Y1020000D03*
X1169000Y1037000D03*
X1194250Y1054000D03*
X1191250Y1063000D03*
X1168000Y1079000D03*
X1171000Y1160000D03*
X1203000Y1200000D03*
X1174000Y1189000D03*
X1191000Y1221000D03*
X1170000Y1210000D03*
X1202000Y1222000D03*
X1191000Y1233000D03*
X1169000Y1228000D03*
X1203000Y1268000D03*
X1181000Y1263000D03*
X1200060Y1277940D03*
X1189250Y1305230D03*
X1206000Y1303000D03*
X1202000Y1324000D03*
X1171000Y1316000D03*
Y1330290D03*
X1188620Y1330670D03*
X1189000Y1316000D03*
X1195000Y1293000D03*
X1199000Y1344000D03*
X1176000Y1392500D03*
X1195000Y1389000D03*
X1238000Y948000D03*
X1246000Y965000D03*
X1213000Y1033000D03*
X1248000Y1030000D03*
X1241000Y1054000D03*
X1247000Y1047000D03*
X1241000D03*
X1247000Y1054000D03*
X1248000Y1199000D03*
X1218000Y1198800D03*
X1220000Y1182000D03*
X1247000Y1177000D03*
X1212000Y1221000D03*
X1217000Y1228000D03*
X1245500Y1289000D03*
X1219000Y1273000D03*
X1245000Y1282000D03*
X1214000Y1264000D03*
X1228000Y1276000D03*
X1215000Y1326000D03*
X1219000Y1303000D03*
X1229000Y1320000D03*
X1211000Y1296000D03*
X1229000Y1328000D03*
X1246000Y1327000D03*
Y1295500D03*
Y1315500D03*
X1220000Y1316000D03*
X1246000Y1303000D03*
X1228000Y1297000D03*
X1217000Y1339000D03*
X1228000Y1337000D03*
X1227000Y1355000D03*
X1247000Y1365000D03*
Y1345000D03*
Y1354500D03*
X1212000Y1355000D03*
X1227000Y1365000D03*
X1212000Y1389000D03*
X1226000Y1388000D03*
X1248000Y1394000D03*
X1276000Y948000D03*
X1252000Y998000D03*
X1275000Y977000D03*
X1277000Y1033000D03*
X1276000Y1076000D03*
X1270000Y1064000D03*
X1256000Y1066000D03*
X1257000Y1053000D03*
X1270000Y1079000D03*
X1284500Y1049500D03*
X1286000Y1070000D03*
X1276000Y1116500D03*
X1279000Y1123000D03*
X1286000Y1116260D03*
X1288000Y1164480D03*
X1275000Y1144000D03*
X1270000Y1159000D03*
X1275000Y1130000D03*
X1270000Y1199000D03*
X1257500Y1179500D03*
X1278000Y1179000D03*
X1272000Y1170000D03*
X1290000Y1243000D03*
X1268000Y1220020D03*
X1285000Y1219000D03*
X1264000Y1229000D03*
X1252000Y1221000D03*
X1291000Y1251000D03*
X1252500Y1276000D03*
X1251000Y1266000D03*
X1265000Y1287000D03*
X1289500Y1271500D03*
X1281000Y1282000D03*
X1289000Y1259000D03*
X1278000Y1260500D03*
X1265000Y1256000D03*
X1254500Y1290500D03*
X1273000Y1328000D03*
X1291000Y1334000D03*
X1279000Y1294000D03*
X1266000Y1300000D03*
X1261000Y1320000D03*
X1287000Y1320500D03*
X1290500Y1347000D03*
X1266500Y1338500D03*
X1273000Y1352500D03*
X1260000Y1364000D03*
X1253000Y1336000D03*
X1280000Y1364000D03*
X1292000Y1383000D03*
X1267000Y1384000D03*
X1260000Y1393000D03*
X1277000D03*
X1302000Y947000D03*
X1309000Y998000D03*
X1314000Y972000D03*
X1329000Y1033000D03*
X1301500Y1033500D03*
X1293000Y1082000D03*
X1316000D03*
X1326000Y1066000D03*
X1304000Y1065000D03*
X1315000Y1049500D03*
X1328500Y1118000D03*
X1304000Y1119000D03*
X1316000Y1166000D03*
X1300000D03*
X1333000Y1145500D03*
Y1167000D03*
X1311000Y1143000D03*
X1322500Y1130000D03*
X1294000Y1128000D03*
X1323000Y1198000D03*
X1301000Y1202000D03*
X1330000Y1186000D03*
X1300000Y1232000D03*
X1333500Y1238000D03*
X1320500Y1220500D03*
X1328000Y1247500D03*
X1316500Y1242500D03*
X1332000Y1221000D03*
X1309000Y1220000D03*
X1323020Y1232000D03*
X1311500Y1263000D03*
X1333000Y1257000D03*
X1318500Y1270000D03*
X1298000Y1289500D03*
X1305500Y1276000D03*
X1332000Y1282000D03*
X1300000Y1261500D03*
X1318000Y1254500D03*
X1331000Y1324500D03*
X1324500Y1308000D03*
X1304500Y1317500D03*
X1319500Y1333500D03*
X1309500Y1303500D03*
X1325500Y1293000D03*
X1318000Y1320500D03*
X1323500Y1346500D03*
X1307500Y1353500D03*
X1334000Y1342000D03*
Y1364000D03*
X1304500Y1337500D03*
X1297000Y1364000D03*
X1316000D03*
X1329000Y1384000D03*
X1295000Y1393000D03*
X1312000D03*
X1331850Y1392800D03*
X1366000Y947000D03*
X1338000Y956000D03*
X1359000Y991500D03*
X1345500Y998000D03*
X1367000Y977000D03*
X1341000Y979000D03*
X1359000Y1030000D03*
X1370000Y1041000D03*
X1348000Y1033000D03*
X1342000Y1082000D03*
X1341000Y1053000D03*
X1375500Y1125500D03*
X1348500Y1117500D03*
X1364500Y1125000D03*
X1375500Y1163000D03*
X1347500Y1156000D03*
X1346000Y1130000D03*
X1352000Y1182000D03*
X1343000Y1197000D03*
X1356500Y1211000D03*
X1357000Y1237500D03*
X1363000Y1262000D03*
X1361000Y1295000D03*
X1370000Y1330000D03*
X1363000Y1361000D03*
X1367870Y1393140D03*
X1350370D03*
X1400000Y947000D03*
X1390780Y999000D03*
X1392000Y991500D03*
X1383500Y964500D03*
X1392000Y1016900D03*
X1417000Y1030000D03*
X1383000Y1013000D03*
X1390000Y1041000D03*
X1384500Y1050500D03*
X1390500D03*
X1384500Y1056000D03*
X1390500D03*
X1384500Y1061500D03*
X1390500D03*
X1383520Y1076000D03*
X1389000Y1070290D03*
X1404000Y1121000D03*
X1389500Y1118000D03*
X1388000Y1088000D03*
X1378500Y1144500D03*
X1412500Y1136500D03*
X1405000Y1152000D03*
X1397000Y1178000D03*
X1380370Y1201220D03*
X1415500Y1185000D03*
X1387000Y1234000D03*
X1410000Y1216000D03*
X1392000Y1269000D03*
X1410000Y1288000D03*
X1413000Y1253000D03*
X1412000Y1320000D03*
X1388000Y1302000D03*
X1394000Y1344000D03*
X1396000Y1366000D03*
X1377000Y1379000D03*
X1386000Y1393000D03*
X1403500D03*
X1427000Y947000D03*
X1418000Y993000D03*
X1455000Y981000D03*
X1437000Y972000D03*
X1417740Y1004500D03*
X1419000Y1017000D03*
X1442000Y1030000D03*
X1442500Y1042500D03*
X1418000Y1042000D03*
X1443000Y1017000D03*
X1458750Y1014000D03*
X1444000Y1055000D03*
X1418500Y1079940D03*
X1445000Y1078000D03*
Y1066000D03*
X1458750Y1050000D03*
X1418000Y1055040D03*
X1444000Y1094000D03*
X1449360Y1087360D03*
X1446500Y1108500D03*
X1457000Y1095000D03*
X1432000Y1109700D03*
X1430500Y1159500D03*
X1456000Y1153000D03*
X1457000Y1127000D03*
X1428000Y1128000D03*
X1456000Y1181000D03*
X1436500Y1206500D03*
X1456000Y1220000D03*
X1439000Y1244000D03*
X1435000Y1273000D03*
X1457000Y1261000D03*
Y1291000D03*
X1440500Y1293000D03*
X1435500Y1310500D03*
X1454000Y1327000D03*
X1424000Y1349000D03*
X1453000Y1357000D03*
X1442000Y1375000D03*
X1439000Y1393500D03*
X1420480Y1393160D03*
X1454000Y1392000D03*
G54D12*
X1088870Y667500D03*
X1189000Y1125000D03*
X1199000D03*
X1209000D03*
Y1115000D03*
X1199000D03*
X1189000D03*
Y1105000D03*
X1199000D03*
X1209000D03*
Y1145000D03*
X1199000D03*
X1189000D03*
X1209000Y1135000D03*
X1199000D03*
X1189000D03*
X1219000Y1125000D03*
X1229000D03*
Y1115000D03*
X1219000D03*
Y1105000D03*
X1229000D03*
X1219000Y1145000D03*
X1229000D03*
Y1135000D03*
X1219000D03*
X1241500Y1244500D03*
Y1236500D03*
X1233750Y1244500D03*
X1226000Y1236500D03*
Y1244500D03*
X1234000Y1236500D03*
X1241500Y1252500D03*
X1234000D03*
X1226000D03*
G54D13*
X1088870Y637500D03*
X1381000Y1027000D03*
G54D14*
G01X1393620Y451410D02*
Y457910D01*
X1395780D01*
X1396650Y457580D01*
X1397300Y457150D01*
X1397840Y456500D01*
X1398280Y455740D01*
X1398380Y454660D01*
X1398280Y453580D01*
X1397840Y452820D01*
X1397300Y452170D01*
X1396650Y451730D01*
X1395780Y451410D01*
X1393620D01*
G01X1405170D02*
X1400830D01*
Y457910D01*
X1405170D01*
G01X1403430Y454770D02*
X1400830D01*
G01X1407720Y452280D02*
X1408590Y451730D01*
X1409570Y451410D01*
X1410430D01*
X1411300Y451730D01*
X1411950Y452280D01*
X1412280Y453040D01*
X1412060Y453790D01*
X1411520Y454440D01*
X1410540Y454880D01*
X1409240Y455090D01*
X1408480Y455530D01*
X1408160Y456280D01*
X1408380Y457040D01*
X1408920Y457580D01*
X1409670Y457910D01*
X1410430D01*
X1411190Y457690D01*
X1411840Y457150D01*
G01X1415700Y457910D02*
X1418300D01*
G01X1417000D02*
Y451410D01*
G01X1415700D02*
X1418300D01*
G01X1424650Y454660D02*
X1426820D01*
Y452710D01*
X1426170Y452060D01*
X1425410Y451630D01*
X1424330Y451410D01*
X1423240Y451630D01*
X1422480Y452060D01*
X1421830Y452710D01*
X1421400Y453470D01*
X1421180Y454330D01*
Y455090D01*
X1421400Y455740D01*
X1421830Y456500D01*
X1422480Y457150D01*
X1423130Y457580D01*
X1424000Y457910D01*
X1424760D01*
X1425620Y457690D01*
X1426280Y457260D01*
G01X1428510Y451410D02*
Y457910D01*
X1433490Y451410D01*
Y457910D01*
G01X1447380Y457370D02*
X1446730Y457690D01*
X1445980Y457910D01*
X1445110D01*
X1444130Y457580D01*
X1443380Y457040D01*
X1442830Y456390D01*
X1442400Y455310D01*
X1442290Y454330D01*
X1442510Y453360D01*
X1442830Y452710D01*
X1443480Y452060D01*
X1444240Y451630D01*
X1445000Y451410D01*
X1445760D01*
X1446520Y451630D01*
X1447170Y451950D01*
X1447710Y452380D01*
G01X1449830Y451410D02*
Y457910D01*
X1452540D01*
X1453410Y457580D01*
X1453950Y457150D01*
X1454170Y456280D01*
X1453950Y455420D01*
X1453300Y454880D01*
X1452540Y454550D01*
X1449830D01*
G01X1452540D02*
X1454170Y451410D01*
G01X1459000D02*
X1458130Y451520D01*
X1457380Y451950D01*
X1456720Y452600D01*
X1456290Y453360D01*
X1456070Y454230D01*
Y455090D01*
X1456290Y455960D01*
X1456720Y456720D01*
X1457380Y457370D01*
X1458130Y457800D01*
X1459000Y457910D01*
X1459870Y457800D01*
X1460620Y457370D01*
X1461280Y456720D01*
X1461710Y455960D01*
X1461930Y455090D01*
Y454230D01*
X1461710Y453360D01*
X1461280Y452600D01*
X1460620Y451950D01*
X1459870Y451520D01*
X1459000Y451410D01*
G01X1463720Y452280D02*
X1464590Y451730D01*
X1465570Y451410D01*
X1466430D01*
X1467300Y451730D01*
X1467950Y452280D01*
X1468280Y453040D01*
X1468060Y453790D01*
X1467520Y454440D01*
X1466540Y454880D01*
X1465240Y455090D01*
X1464480Y455530D01*
X1464160Y456280D01*
X1464380Y457040D01*
X1464920Y457580D01*
X1465670Y457910D01*
X1466430D01*
X1467190Y457690D01*
X1467840Y457150D01*
G01X1470720Y452280D02*
X1471590Y451730D01*
X1472570Y451410D01*
X1473430D01*
X1474300Y451730D01*
X1474950Y452280D01*
X1475280Y453040D01*
X1475060Y453790D01*
X1474520Y454440D01*
X1473540Y454880D01*
X1472240Y455090D01*
X1471480Y455530D01*
X1471160Y456280D01*
X1471380Y457040D01*
X1471920Y457580D01*
X1472670Y457910D01*
X1473430D01*
X1474190Y457690D01*
X1474840Y457150D01*
G01X1484720Y452280D02*
X1485590Y451730D01*
X1486570Y451410D01*
X1487430D01*
X1488300Y451730D01*
X1488950Y452280D01*
X1489280Y453040D01*
X1489060Y453790D01*
X1488520Y454440D01*
X1487540Y454880D01*
X1486240Y455090D01*
X1485480Y455530D01*
X1485160Y456280D01*
X1485380Y457040D01*
X1485920Y457580D01*
X1486670Y457910D01*
X1487430D01*
X1488190Y457690D01*
X1488840Y457150D01*
G01X1496170Y451410D02*
X1491830D01*
Y457910D01*
X1496170D01*
G01X1494430Y454770D02*
X1491830D01*
G01X1503380Y457370D02*
X1502730Y457690D01*
X1501980Y457910D01*
X1501110D01*
X1500130Y457580D01*
X1499380Y457040D01*
X1498830Y456390D01*
X1498400Y455310D01*
X1498290Y454330D01*
X1498510Y453360D01*
X1498830Y452710D01*
X1499480Y452060D01*
X1500240Y451630D01*
X1501000Y451410D01*
X1501760D01*
X1502520Y451630D01*
X1503170Y451950D01*
X1503710Y452380D01*
G01X1508000Y457910D02*
Y451410D01*
G01X1505510Y457910D02*
X1510490D01*
G01X1513700D02*
X1516300D01*
G01X1515000D02*
Y451410D01*
G01X1513700D02*
X1516300D01*
G01X1522000D02*
X1521130Y451520D01*
X1520380Y451950D01*
X1519720Y452600D01*
X1519290Y453360D01*
X1519070Y454230D01*
Y455090D01*
X1519290Y455960D01*
X1519720Y456720D01*
X1520380Y457370D01*
X1521130Y457800D01*
X1522000Y457910D01*
X1522870Y457800D01*
X1523620Y457370D01*
X1524280Y456720D01*
X1524710Y455960D01*
X1524930Y455090D01*
Y454230D01*
X1524710Y453360D01*
X1524280Y452600D01*
X1523620Y451950D01*
X1522870Y451520D01*
X1522000Y451410D01*
G01X1526510D02*
Y457910D01*
X1531490Y451410D01*
Y457910D01*
G01X1545380Y457370D02*
X1544730Y457690D01*
X1543980Y457910D01*
X1543110D01*
X1542130Y457580D01*
X1541380Y457040D01*
X1540830Y456390D01*
X1540400Y455310D01*
X1540290Y454330D01*
X1540510Y453360D01*
X1540830Y452710D01*
X1541480Y452060D01*
X1542240Y451630D01*
X1543000Y451410D01*
X1543760D01*
X1544520Y451630D01*
X1545170Y451950D01*
X1545710Y452380D01*
G01X1547720Y451410D02*
Y457910D01*
G01X1552280D02*
Y451410D01*
G01Y454660D02*
X1547720D01*
G01X1554290Y451410D02*
X1557000Y457910D01*
X1559710Y451410D01*
G01X1558730Y453680D02*
X1555270D01*
G01X1561830Y451410D02*
Y457910D01*
X1564540D01*
X1565410Y457580D01*
X1565950Y457150D01*
X1566170Y456280D01*
X1565950Y455420D01*
X1565300Y454880D01*
X1564540Y454550D01*
X1561830D01*
G01X1564540D02*
X1566170Y451410D01*
G01X1571000Y457910D02*
Y451410D01*
G01X1568510Y457910D02*
X1573490D01*
G01X1389250Y449240D02*
X1395750D01*
G01X1396250D02*
X1402750D01*
G01X1403250D02*
X1409750D01*
G01X1410250D02*
X1416750D01*
G01X1417250D02*
X1423750D01*
G01X1424250D02*
X1430750D01*
G01X1431250D02*
X1437750D01*
G01X1438250D02*
X1444750D01*
G01X1445250D02*
X1451750D01*
G01X1452250D02*
X1458750D01*
G01X1459250D02*
X1465750D01*
G01X1466250D02*
X1472750D01*
G01X1473250D02*
X1479750D01*
G01X1480250D02*
X1486750D01*
G01X1487250D02*
X1493750D01*
G01X1494250D02*
X1500750D01*
G01X1501250D02*
X1507750D01*
G01X1508250D02*
X1514750D01*
G01X1515250D02*
X1521750D01*
G01X1522250D02*
X1528750D01*
G01X1529250D02*
X1535750D01*
G01X1536250D02*
X1542750D01*
G01X1543250D02*
X1549750D01*
G01X1550250D02*
X1556750D01*
G01X1557250D02*
X1563750D01*
G01X1564250D02*
X1570750D01*
G01X1571250D02*
X1577750D01*
G01X1403000Y444910D02*
Y438410D01*
G01X1400510Y444910D02*
X1405490D01*
G01X1410000Y438410D02*
X1409130Y438520D01*
X1408380Y438950D01*
X1407720Y439600D01*
X1407290Y440360D01*
X1407070Y441230D01*
Y442090D01*
X1407290Y442960D01*
X1407720Y443720D01*
X1408380Y444370D01*
X1409130Y444800D01*
X1410000Y444910D01*
X1410870Y444800D01*
X1411620Y444370D01*
X1412280Y443720D01*
X1412710Y442960D01*
X1412930Y442090D01*
Y441230D01*
X1412710Y440360D01*
X1412280Y439600D01*
X1411620Y438950D01*
X1410870Y438520D01*
X1410000Y438410D01*
G01X1417000Y444910D02*
Y438410D01*
G01X1414510Y444910D02*
X1419490D01*
G01X1421290Y438410D02*
X1424000Y444910D01*
X1426710Y438410D01*
G01X1425730Y440680D02*
X1422270D01*
G01X1428830Y444910D02*
Y438410D01*
X1433170D01*
G01X1445000Y444910D02*
Y438410D01*
G01X1442510Y444910D02*
X1447490D01*
G01X1449720Y438410D02*
Y444910D01*
G01X1454280D02*
Y438410D01*
G01Y441660D02*
X1449720D01*
G01X1457700Y444910D02*
X1460300D01*
G01X1459000D02*
Y438410D01*
G01X1457700D02*
X1460300D01*
G01X1468380Y444370D02*
X1467730Y444690D01*
X1466980Y444910D01*
X1466110D01*
X1465130Y444580D01*
X1464380Y444040D01*
X1463830Y443390D01*
X1463400Y442310D01*
X1463290Y441330D01*
X1463510Y440360D01*
X1463830Y439710D01*
X1464480Y439060D01*
X1465240Y438630D01*
X1466000Y438410D01*
X1466760D01*
X1467520Y438630D01*
X1468170Y438950D01*
X1468710Y439380D01*
G01X1470620Y438410D02*
Y444910D01*
G01X1474730D02*
X1470620Y440900D01*
G01X1475380Y438410D02*
X1472460Y442740D01*
G01X1477510Y438410D02*
Y444910D01*
X1482490Y438410D01*
Y444910D01*
G01X1489170Y438410D02*
X1484830D01*
Y444910D01*
X1489170D01*
G01X1487430Y441770D02*
X1484830D01*
G01X1491720Y439280D02*
X1492590Y438730D01*
X1493570Y438410D01*
X1494430D01*
X1495300Y438730D01*
X1495950Y439280D01*
X1496280Y440040D01*
X1496060Y440790D01*
X1495520Y441440D01*
X1494540Y441880D01*
X1493240Y442090D01*
X1492480Y442530D01*
X1492160Y443280D01*
X1492380Y444040D01*
X1492920Y444580D01*
X1493670Y444910D01*
X1494430D01*
X1495190Y444690D01*
X1495840Y444150D01*
G01X1498720Y439280D02*
X1499590Y438730D01*
X1500570Y438410D01*
X1501430D01*
X1502300Y438730D01*
X1502950Y439280D01*
X1503280Y440040D01*
X1503060Y440790D01*
X1502520Y441440D01*
X1501540Y441880D01*
X1500240Y442090D01*
X1499480Y442530D01*
X1499160Y443280D01*
X1499380Y444040D01*
X1499920Y444580D01*
X1500670Y444910D01*
X1501430D01*
X1502190Y444690D01*
X1502840Y444150D01*
G01X1515000Y438410D02*
Y444910D01*
X1513700Y443610D01*
G01Y438410D02*
X1516300D01*
G01X1522000Y438190D02*
X1521780Y438300D01*
Y438520D01*
X1522000Y438630D01*
X1522220Y438520D01*
Y438300D01*
X1522000Y438190D01*
G01X1526620Y439380D02*
X1527270Y438840D01*
X1528020Y438520D01*
X1529000Y438410D01*
X1529980Y438630D01*
X1530730Y439060D01*
X1531280Y439820D01*
X1531380Y440680D01*
X1531170Y441550D01*
X1530620Y442090D01*
X1529870Y442530D01*
X1529110Y442630D01*
X1528350Y442530D01*
X1527380Y442090D01*
X1527700Y444910D01*
X1530620D01*
G01X1534160Y439170D02*
X1534920Y438630D01*
X1535780Y438410D01*
X1536650Y438630D01*
X1537410Y439280D01*
X1537950Y440250D01*
X1538170Y441230D01*
Y442420D01*
X1537950Y443390D01*
X1537410Y444260D01*
X1536760Y444690D01*
X1536000Y444910D01*
X1535130Y444690D01*
X1534480Y444260D01*
X1534050Y443610D01*
X1533830Y442740D01*
X1534050Y441990D01*
X1534590Y441230D01*
X1535240Y440790D01*
X1536000Y440680D01*
X1536870Y440900D01*
X1537520Y441440D01*
X1538170Y442420D01*
G01X1540940Y441120D02*
X1541700Y441880D01*
X1542350Y442310D01*
X1543220Y442530D01*
X1543980Y442310D01*
X1544520Y441880D01*
X1544950Y441230D01*
X1545060Y440470D01*
X1544950Y439820D01*
X1544520Y439170D01*
X1543870Y438630D01*
X1543110Y438410D01*
X1542240Y438630D01*
X1541480Y439280D01*
X1541050Y440250D01*
X1540940Y441330D01*
X1541160Y442740D01*
X1541480Y443500D01*
X1542020Y444260D01*
X1542780Y444800D01*
X1543540Y444910D01*
X1544300Y444690D01*
X1544840Y444150D01*
G01X1554180Y438410D02*
Y444910D01*
X1557000Y439490D01*
X1559820Y444910D01*
Y438410D01*
G01X1561180D02*
Y444910D01*
X1564000Y439490D01*
X1566820Y444910D01*
Y438410D01*
G01X1568870Y466600D02*
X1573630Y471370D01*
G01X1571250Y472240D02*
Y465740D01*
G01X1573630Y466600D02*
X1568870Y471370D01*
G01X1568000Y468990D02*
X1574500D01*
G01X1589970Y467690D02*
X1590840Y467140D01*
X1591820Y466820D01*
X1592680D01*
X1593550Y467140D01*
X1594200Y467690D01*
X1594530Y468450D01*
X1594310Y469200D01*
X1593770Y469850D01*
X1592790Y470290D01*
X1591490Y470500D01*
X1590730Y470940D01*
X1590410Y471690D01*
X1590630Y472450D01*
X1591170Y472990D01*
X1591920Y473320D01*
X1592680D01*
X1593440Y473100D01*
X1594090Y472560D01*
G01X1596870Y473320D02*
Y468660D01*
X1597300Y467690D01*
X1598170Y467040D01*
X1599250Y466820D01*
X1600330Y467040D01*
X1601200Y467690D01*
X1601630Y468660D01*
Y473320D01*
G01X1604080Y466820D02*
Y473320D01*
X1606790D01*
X1607660Y472990D01*
X1608200Y472560D01*
X1608420Y471690D01*
X1608200Y470830D01*
X1607550Y470290D01*
X1606790Y469960D01*
X1604080D01*
G01X1606790D02*
X1608420Y466820D01*
G01X1611190D02*
Y473320D01*
X1615310D01*
G01X1613790Y470180D02*
X1611190D01*
G01X1617540Y466820D02*
X1620250Y473320D01*
X1622960Y466820D01*
G01X1621980Y469090D02*
X1618520D01*
G01X1629630Y472780D02*
X1628980Y473100D01*
X1628230Y473320D01*
X1627360D01*
X1626380Y472990D01*
X1625630Y472450D01*
X1625080Y471800D01*
X1624650Y470720D01*
X1624540Y469740D01*
X1624760Y468770D01*
X1625080Y468120D01*
X1625730Y467470D01*
X1626490Y467040D01*
X1627250Y466820D01*
X1628010D01*
X1628770Y467040D01*
X1629420Y467360D01*
X1629960Y467790D01*
G01X1636420Y466820D02*
X1632080D01*
Y473320D01*
X1636420D01*
G01X1634680Y470180D02*
X1632080D01*
G01X1646840Y468990D02*
X1649660D01*
G01X1659540Y466820D02*
X1662250Y473320D01*
X1664960Y466820D01*
G01X1663980Y469090D02*
X1660520D01*
G01X1667950Y473320D02*
X1670550D01*
G01X1669250D02*
Y466820D01*
G01X1667950D02*
X1670550D01*
G01X1674080D02*
Y473320D01*
X1676790D01*
X1677660Y472990D01*
X1678200Y472560D01*
X1678420Y471690D01*
X1678200Y470830D01*
X1677550Y470290D01*
X1676790Y469960D01*
X1674080D01*
G01X1676790D02*
X1678420Y466820D01*
G01X1690250Y473320D02*
X1689380Y473100D01*
X1688730Y472560D01*
X1688300Y471910D01*
X1687970Y471040D01*
X1687870Y470070D01*
X1687970Y469090D01*
X1688300Y468230D01*
X1688730Y467580D01*
X1689380Y467040D01*
X1690250Y466820D01*
X1691120Y467040D01*
X1691770Y467580D01*
X1692200Y468230D01*
X1692530Y469090D01*
X1692630Y470070D01*
X1692530Y471040D01*
X1692200Y471910D01*
X1691770Y472560D01*
X1691120Y473100D01*
X1690250Y473320D01*
G01X1701430Y466820D02*
Y473320D01*
X1704250Y467900D01*
X1707070Y473320D01*
Y466820D01*
G01X1708430D02*
Y473320D01*
X1711250Y467900D01*
X1714070Y473320D01*
Y466820D01*
G01X1555080Y509460D02*
Y502960D01*
X1559420D01*
G01X1565550D02*
Y509460D01*
X1561540Y504800D01*
X1566960D01*
G01X1571250Y502740D02*
X1571030Y502850D01*
Y503070D01*
X1571250Y503180D01*
X1571470Y503070D01*
Y502850D01*
X1571250Y502740D01*
G01Y505670D02*
X1571030Y505780D01*
Y505990D01*
X1571250Y506100D01*
X1571470Y505990D01*
Y505780D01*
X1571250Y505670D01*
G01X1586120Y506430D02*
X1586550Y506750D01*
X1586870Y507290D01*
X1587090Y508050D01*
X1586870Y508700D01*
X1586440Y509130D01*
X1585680Y509460D01*
X1582760D01*
Y502960D01*
X1586330D01*
X1587090Y503390D01*
X1587530Y504040D01*
X1587740Y504800D01*
X1587530Y505560D01*
X1586870Y506210D01*
X1586120Y506430D01*
X1582760D01*
G01X1592250Y502960D02*
X1591380Y503070D01*
X1590630Y503500D01*
X1589970Y504150D01*
X1589540Y504910D01*
X1589320Y505780D01*
Y506640D01*
X1589540Y507510D01*
X1589970Y508270D01*
X1590630Y508920D01*
X1591380Y509350D01*
X1592250Y509460D01*
X1593120Y509350D01*
X1593870Y508920D01*
X1594530Y508270D01*
X1594960Y507510D01*
X1595180Y506640D01*
Y505780D01*
X1594960Y504910D01*
X1594530Y504150D01*
X1593870Y503500D01*
X1593120Y503070D01*
X1592250Y502960D01*
G01X1599250Y509460D02*
Y502960D01*
G01X1596760Y509460D02*
X1601740D01*
G01X1606250D02*
Y502960D01*
G01X1603760Y509460D02*
X1608740D01*
G01X1613250Y502960D02*
X1612380Y503070D01*
X1611630Y503500D01*
X1610970Y504150D01*
X1610540Y504910D01*
X1610320Y505780D01*
Y506640D01*
X1610540Y507510D01*
X1610970Y508270D01*
X1611630Y508920D01*
X1612380Y509350D01*
X1613250Y509460D01*
X1614120Y509350D01*
X1614870Y508920D01*
X1615530Y508270D01*
X1615960Y507510D01*
X1616180Y506640D01*
Y505780D01*
X1615960Y504910D01*
X1615530Y504150D01*
X1614870Y503500D01*
X1614120Y503070D01*
X1613250Y502960D01*
G01X1617430D02*
Y509460D01*
X1620250Y504040D01*
X1623070Y509460D01*
Y502960D01*
G01X1636630Y508920D02*
X1635980Y509240D01*
X1635230Y509460D01*
X1634360D01*
X1633380Y509130D01*
X1632630Y508590D01*
X1632080Y507940D01*
X1631650Y506860D01*
X1631540Y505880D01*
X1631760Y504910D01*
X1632080Y504260D01*
X1632730Y503610D01*
X1633490Y503180D01*
X1634250Y502960D01*
X1635010D01*
X1635770Y503180D01*
X1636420Y503500D01*
X1636960Y503930D01*
G01X1641250Y502960D02*
X1640380Y503070D01*
X1639630Y503500D01*
X1638970Y504150D01*
X1638540Y504910D01*
X1638320Y505780D01*
Y506640D01*
X1638540Y507510D01*
X1638970Y508270D01*
X1639630Y508920D01*
X1640380Y509350D01*
X1641250Y509460D01*
X1642120Y509350D01*
X1642870Y508920D01*
X1643530Y508270D01*
X1643960Y507510D01*
X1644180Y506640D01*
Y505780D01*
X1643960Y504910D01*
X1643530Y504150D01*
X1642870Y503500D01*
X1642120Y503070D01*
X1641250Y502960D01*
G01X1645760D02*
Y509460D01*
X1650740Y502960D01*
Y509460D01*
G01X1652870Y502960D02*
Y509460D01*
X1655030D01*
X1655900Y509130D01*
X1656550Y508700D01*
X1657090Y508050D01*
X1657530Y507290D01*
X1657630Y506210D01*
X1657530Y505130D01*
X1657090Y504370D01*
X1656550Y503720D01*
X1655900Y503280D01*
X1655030Y502960D01*
X1652870D01*
G01X1659870Y509460D02*
Y504800D01*
X1660300Y503830D01*
X1661170Y503180D01*
X1662250Y502960D01*
X1663330Y503180D01*
X1664200Y503830D01*
X1664630Y504800D01*
Y509460D01*
G01X1671630Y508920D02*
X1670980Y509240D01*
X1670230Y509460D01*
X1669360D01*
X1668380Y509130D01*
X1667630Y508590D01*
X1667080Y507940D01*
X1666650Y506860D01*
X1666540Y505880D01*
X1666760Y504910D01*
X1667080Y504260D01*
X1667730Y503610D01*
X1668490Y503180D01*
X1669250Y502960D01*
X1670010D01*
X1670770Y503180D01*
X1671420Y503500D01*
X1671960Y503930D01*
G01X1676250Y509460D02*
Y502960D01*
G01X1673760Y509460D02*
X1678740D01*
G01X1683250Y502960D02*
X1682380Y503070D01*
X1681630Y503500D01*
X1680970Y504150D01*
X1680540Y504910D01*
X1680320Y505780D01*
Y506640D01*
X1680540Y507510D01*
X1680970Y508270D01*
X1681630Y508920D01*
X1682380Y509350D01*
X1683250Y509460D01*
X1684120Y509350D01*
X1684870Y508920D01*
X1685530Y508270D01*
X1685960Y507510D01*
X1686180Y506640D01*
Y505780D01*
X1685960Y504910D01*
X1685530Y504150D01*
X1684870Y503500D01*
X1684120Y503070D01*
X1683250Y502960D01*
G01X1688080D02*
Y509460D01*
X1690790D01*
X1691660Y509130D01*
X1692200Y508700D01*
X1692420Y507830D01*
X1692200Y506970D01*
X1691550Y506430D01*
X1690790Y506100D01*
X1688080D01*
G01X1690790D02*
X1692420Y502960D01*
G01X1702840Y505130D02*
X1705660D01*
G01X1720630Y508920D02*
X1719980Y509240D01*
X1719230Y509460D01*
X1718360D01*
X1717380Y509130D01*
X1716630Y508590D01*
X1716080Y507940D01*
X1715650Y506860D01*
X1715540Y505880D01*
X1715760Y504910D01*
X1716080Y504260D01*
X1716730Y503610D01*
X1717490Y503180D01*
X1718250Y502960D01*
X1719010D01*
X1719770Y503180D01*
X1720420Y503500D01*
X1720960Y503930D01*
G01X1725250Y502960D02*
X1724380Y503070D01*
X1723630Y503500D01*
X1722970Y504150D01*
X1722540Y504910D01*
X1722320Y505780D01*
Y506640D01*
X1722540Y507510D01*
X1722970Y508270D01*
X1723630Y508920D01*
X1724380Y509350D01*
X1725250Y509460D01*
X1726120Y509350D01*
X1726870Y508920D01*
X1727530Y508270D01*
X1727960Y507510D01*
X1728180Y506640D01*
Y505780D01*
X1727960Y504910D01*
X1727530Y504150D01*
X1726870Y503500D01*
X1726120Y503070D01*
X1725250Y502960D01*
G01X1730080D02*
Y509460D01*
X1732680D01*
X1733550Y509130D01*
X1734200Y508380D01*
X1734420Y507510D01*
X1734200Y506640D01*
X1733660Y505990D01*
X1732680Y505670D01*
X1730080D01*
G01X1737080Y502960D02*
Y509460D01*
X1739680D01*
X1740550Y509130D01*
X1741200Y508380D01*
X1741420Y507510D01*
X1741200Y506640D01*
X1740660Y505990D01*
X1739680Y505670D01*
X1737080D01*
G01X1748420Y502960D02*
X1744080D01*
Y509460D01*
X1748420D01*
G01X1746680Y506320D02*
X1744080D01*
G01X1751080Y502960D02*
Y509460D01*
X1753790D01*
X1754660Y509130D01*
X1755200Y508700D01*
X1755420Y507830D01*
X1755200Y506970D01*
X1754550Y506430D01*
X1753790Y506100D01*
X1751080D01*
G01X1753790D02*
X1755420Y502960D01*
G01X1767250Y509460D02*
X1766380Y509240D01*
X1765730Y508700D01*
X1765300Y508050D01*
X1764970Y507180D01*
X1764870Y506210D01*
X1764970Y505230D01*
X1765300Y504370D01*
X1765730Y503720D01*
X1766380Y503180D01*
X1767250Y502960D01*
X1768120Y503180D01*
X1768770Y503720D01*
X1769200Y504370D01*
X1769530Y505230D01*
X1769630Y506210D01*
X1769530Y507180D01*
X1769200Y508050D01*
X1768770Y508700D01*
X1768120Y509240D01*
X1767250Y509460D01*
G01X1774250Y502740D02*
X1774030Y502850D01*
Y503070D01*
X1774250Y503180D01*
X1774470Y503070D01*
Y502850D01*
X1774250Y502740D01*
G01X1781250Y509460D02*
X1780380Y509240D01*
X1779730Y508700D01*
X1779300Y508050D01*
X1778970Y507180D01*
X1778870Y506210D01*
X1778970Y505230D01*
X1779300Y504370D01*
X1779730Y503720D01*
X1780380Y503180D01*
X1781250Y502960D01*
X1782120Y503180D01*
X1782770Y503720D01*
X1783200Y504370D01*
X1783530Y505230D01*
X1783630Y506210D01*
X1783530Y507180D01*
X1783200Y508050D01*
X1782770Y508700D01*
X1782120Y509240D01*
X1781250Y509460D01*
G01X1785870Y504260D02*
X1786520Y503500D01*
X1787380Y503070D01*
X1788360Y502960D01*
X1789230Y503070D01*
X1790090Y503610D01*
X1790630Y504260D01*
X1790740Y504910D01*
X1790530Y505670D01*
X1789770Y506210D01*
X1789010Y506430D01*
X1788030D01*
G01X1789010D02*
X1789660Y506750D01*
X1790200Y507290D01*
X1790420Y507940D01*
X1790200Y508590D01*
X1789660Y509130D01*
X1788680Y509460D01*
X1787710Y509350D01*
X1786730Y508920D01*
G01X1792870Y503930D02*
X1793520Y503390D01*
X1794270Y503070D01*
X1795250Y502960D01*
X1796230Y503180D01*
X1796980Y503610D01*
X1797530Y504370D01*
X1797630Y505230D01*
X1797420Y506100D01*
X1796870Y506640D01*
X1796120Y507080D01*
X1795360Y507180D01*
X1794600Y507080D01*
X1793630Y506640D01*
X1793950Y509460D01*
X1796870D01*
G01X1806430Y502960D02*
Y509460D01*
X1809250Y504040D01*
X1812070Y509460D01*
Y502960D01*
G01X1813430D02*
Y509460D01*
X1816250Y504040D01*
X1819070Y509460D01*
Y502960D01*
G01X1555080Y578530D02*
Y572030D01*
X1559420D01*
G01X1561870Y573330D02*
X1562520Y572570D01*
X1563380Y572140D01*
X1564360Y572030D01*
X1565230Y572140D01*
X1566090Y572680D01*
X1566630Y573330D01*
X1566740Y573980D01*
X1566530Y574740D01*
X1565770Y575280D01*
X1565010Y575500D01*
X1564030D01*
G01X1565010D02*
X1565660Y575820D01*
X1566200Y576360D01*
X1566420Y577010D01*
X1566200Y577660D01*
X1565660Y578200D01*
X1564680Y578530D01*
X1563710Y578420D01*
X1562730Y577990D01*
G01X1571250Y571810D02*
X1571030Y571920D01*
Y572140D01*
X1571250Y572250D01*
X1571470Y572140D01*
Y571920D01*
X1571250Y571810D01*
G01Y574740D02*
X1571030Y574850D01*
Y575060D01*
X1571250Y575170D01*
X1571470Y575060D01*
Y574850D01*
X1571250Y574740D01*
G01X1583080Y578530D02*
Y572030D01*
X1587420D01*
G01X1589870Y573330D02*
X1590520Y572570D01*
X1591380Y572140D01*
X1592360Y572030D01*
X1593230Y572140D01*
X1594090Y572680D01*
X1594630Y573330D01*
X1594740Y573980D01*
X1594530Y574740D01*
X1593770Y575280D01*
X1593010Y575500D01*
X1592030D01*
G01X1593010D02*
X1593660Y575820D01*
X1594200Y576360D01*
X1594420Y577010D01*
X1594200Y577660D01*
X1593660Y578200D01*
X1592680Y578530D01*
X1591710Y578420D01*
X1590730Y577990D01*
G01X1608630D02*
X1607980Y578310D01*
X1607230Y578530D01*
X1606360D01*
X1605380Y578200D01*
X1604630Y577660D01*
X1604080Y577010D01*
X1603650Y575930D01*
X1603540Y574950D01*
X1603760Y573980D01*
X1604080Y573330D01*
X1604730Y572680D01*
X1605490Y572250D01*
X1606250Y572030D01*
X1607010D01*
X1607770Y572250D01*
X1608420Y572570D01*
X1608960Y573000D01*
G01X1613250Y572030D02*
X1612380Y572140D01*
X1611630Y572570D01*
X1610970Y573220D01*
X1610540Y573980D01*
X1610320Y574850D01*
Y575710D01*
X1610540Y576580D01*
X1610970Y577340D01*
X1611630Y577990D01*
X1612380Y578420D01*
X1613250Y578530D01*
X1614120Y578420D01*
X1614870Y577990D01*
X1615530Y577340D01*
X1615960Y576580D01*
X1616180Y575710D01*
Y574850D01*
X1615960Y573980D01*
X1615530Y573220D01*
X1614870Y572570D01*
X1614120Y572140D01*
X1613250Y572030D01*
G01X1617760D02*
Y578530D01*
X1622740Y572030D01*
Y578530D01*
G01X1624870Y572030D02*
Y578530D01*
X1627030D01*
X1627900Y578200D01*
X1628550Y577770D01*
X1629090Y577120D01*
X1629530Y576360D01*
X1629630Y575280D01*
X1629530Y574200D01*
X1629090Y573440D01*
X1628550Y572790D01*
X1627900Y572350D01*
X1627030Y572030D01*
X1624870D01*
G01X1631870Y578530D02*
Y573870D01*
X1632300Y572900D01*
X1633170Y572250D01*
X1634250Y572030D01*
X1635330Y572250D01*
X1636200Y572900D01*
X1636630Y573870D01*
Y578530D01*
G01X1643630Y577990D02*
X1642980Y578310D01*
X1642230Y578530D01*
X1641360D01*
X1640380Y578200D01*
X1639630Y577660D01*
X1639080Y577010D01*
X1638650Y575930D01*
X1638540Y574950D01*
X1638760Y573980D01*
X1639080Y573330D01*
X1639730Y572680D01*
X1640490Y572250D01*
X1641250Y572030D01*
X1642010D01*
X1642770Y572250D01*
X1643420Y572570D01*
X1643960Y573000D01*
G01X1648250Y578530D02*
Y572030D01*
G01X1645760Y578530D02*
X1650740D01*
G01X1655250Y572030D02*
X1654380Y572140D01*
X1653630Y572570D01*
X1652970Y573220D01*
X1652540Y573980D01*
X1652320Y574850D01*
Y575710D01*
X1652540Y576580D01*
X1652970Y577340D01*
X1653630Y577990D01*
X1654380Y578420D01*
X1655250Y578530D01*
X1656120Y578420D01*
X1656870Y577990D01*
X1657530Y577340D01*
X1657960Y576580D01*
X1658180Y575710D01*
Y574850D01*
X1657960Y573980D01*
X1657530Y573220D01*
X1656870Y572570D01*
X1656120Y572140D01*
X1655250Y572030D01*
G01X1660080D02*
Y578530D01*
X1662790D01*
X1663660Y578200D01*
X1664200Y577770D01*
X1664420Y576900D01*
X1664200Y576040D01*
X1663550Y575500D01*
X1662790Y575170D01*
X1660080D01*
G01X1662790D02*
X1664420Y572030D01*
G01X1674840Y574200D02*
X1677660D01*
G01X1692630Y577990D02*
X1691980Y578310D01*
X1691230Y578530D01*
X1690360D01*
X1689380Y578200D01*
X1688630Y577660D01*
X1688080Y577010D01*
X1687650Y575930D01*
X1687540Y574950D01*
X1687760Y573980D01*
X1688080Y573330D01*
X1688730Y572680D01*
X1689490Y572250D01*
X1690250Y572030D01*
X1691010D01*
X1691770Y572250D01*
X1692420Y572570D01*
X1692960Y573000D01*
G01X1697250Y572030D02*
X1696380Y572140D01*
X1695630Y572570D01*
X1694970Y573220D01*
X1694540Y573980D01*
X1694320Y574850D01*
Y575710D01*
X1694540Y576580D01*
X1694970Y577340D01*
X1695630Y577990D01*
X1696380Y578420D01*
X1697250Y578530D01*
X1698120Y578420D01*
X1698870Y577990D01*
X1699530Y577340D01*
X1699960Y576580D01*
X1700180Y575710D01*
Y574850D01*
X1699960Y573980D01*
X1699530Y573220D01*
X1698870Y572570D01*
X1698120Y572140D01*
X1697250Y572030D01*
G01X1702080D02*
Y578530D01*
X1704680D01*
X1705550Y578200D01*
X1706200Y577450D01*
X1706420Y576580D01*
X1706200Y575710D01*
X1705660Y575060D01*
X1704680Y574740D01*
X1702080D01*
G01X1709080Y572030D02*
Y578530D01*
X1711680D01*
X1712550Y578200D01*
X1713200Y577450D01*
X1713420Y576580D01*
X1713200Y575710D01*
X1712660Y575060D01*
X1711680Y574740D01*
X1709080D01*
G01X1720420Y572030D02*
X1716080D01*
Y578530D01*
X1720420D01*
G01X1718680Y575390D02*
X1716080D01*
G01X1723080Y572030D02*
Y578530D01*
X1725790D01*
X1726660Y578200D01*
X1727200Y577770D01*
X1727420Y576900D01*
X1727200Y576040D01*
X1726550Y575500D01*
X1725790Y575170D01*
X1723080D01*
G01X1725790D02*
X1727420Y572030D01*
G01X1739250Y578530D02*
X1738380Y578310D01*
X1737730Y577770D01*
X1737300Y577120D01*
X1736970Y576250D01*
X1736870Y575280D01*
X1736970Y574300D01*
X1737300Y573440D01*
X1737730Y572790D01*
X1738380Y572250D01*
X1739250Y572030D01*
X1740120Y572250D01*
X1740770Y572790D01*
X1741200Y573440D01*
X1741530Y574300D01*
X1741630Y575280D01*
X1741530Y576250D01*
X1741200Y577120D01*
X1740770Y577770D01*
X1740120Y578310D01*
X1739250Y578530D01*
G01X1746250Y571810D02*
X1746030Y571920D01*
Y572140D01*
X1746250Y572250D01*
X1746470Y572140D01*
Y571920D01*
X1746250Y571810D01*
G01X1753250Y578530D02*
X1752380Y578310D01*
X1751730Y577770D01*
X1751300Y577120D01*
X1750970Y576250D01*
X1750870Y575280D01*
X1750970Y574300D01*
X1751300Y573440D01*
X1751730Y572790D01*
X1752380Y572250D01*
X1753250Y572030D01*
X1754120Y572250D01*
X1754770Y572790D01*
X1755200Y573440D01*
X1755530Y574300D01*
X1755630Y575280D01*
X1755530Y576250D01*
X1755200Y577120D01*
X1754770Y577770D01*
X1754120Y578310D01*
X1753250Y578530D01*
G01X1760250Y572030D02*
Y578530D01*
X1758950Y577230D01*
G01Y572030D02*
X1761550D01*
G01X1767250D02*
X1768010Y572140D01*
X1768870Y572460D01*
X1769420Y573000D01*
X1769630Y573760D01*
X1769420Y574520D01*
X1768770Y575170D01*
X1767790Y575500D01*
X1766710D01*
X1766060Y575710D01*
X1765520Y576250D01*
X1765300Y577010D01*
X1765630Y577770D01*
X1766380Y578310D01*
X1767250Y578530D01*
X1768120Y578310D01*
X1768870Y577770D01*
X1769200Y577010D01*
X1768980Y576250D01*
X1768440Y575710D01*
X1767790Y575500D01*
X1766710D01*
X1765730Y575170D01*
X1765080Y574520D01*
X1764870Y573760D01*
X1765080Y573000D01*
X1765630Y572460D01*
X1766490Y572140D01*
X1767250Y572030D01*
G01X1778430D02*
Y578530D01*
X1781250Y573110D01*
X1784070Y578530D01*
Y572030D01*
G01X1785430D02*
Y578530D01*
X1788250Y573110D01*
X1791070Y578530D01*
Y572030D01*
G01X1568870Y543950D02*
X1573630Y548720D01*
G01X1571250Y549590D02*
Y543090D01*
G01X1573630Y543950D02*
X1568870Y548720D01*
G01X1568000Y546340D02*
X1574500D01*
G01X1589870Y544170D02*
Y550670D01*
X1592030D01*
X1592900Y550340D01*
X1593550Y549910D01*
X1594090Y549260D01*
X1594530Y548500D01*
X1594630Y547420D01*
X1594530Y546340D01*
X1594090Y545580D01*
X1593550Y544930D01*
X1592900Y544490D01*
X1592030Y544170D01*
X1589870D01*
G01X1597950Y550670D02*
X1600550D01*
G01X1599250D02*
Y544170D01*
G01X1597950D02*
X1600550D01*
G01X1608420D02*
X1604080D01*
Y550670D01*
X1608420D01*
G01X1606680Y547530D02*
X1604080D01*
G01X1611080Y550670D02*
Y544170D01*
X1615420D01*
G01X1622420D02*
X1618080D01*
Y550670D01*
X1622420D01*
G01X1620680Y547530D02*
X1618080D01*
G01X1629630Y550130D02*
X1628980Y550450D01*
X1628230Y550670D01*
X1627360D01*
X1626380Y550340D01*
X1625630Y549800D01*
X1625080Y549150D01*
X1624650Y548070D01*
X1624540Y547090D01*
X1624760Y546120D01*
X1625080Y545470D01*
X1625730Y544820D01*
X1626490Y544390D01*
X1627250Y544170D01*
X1628010D01*
X1628770Y544390D01*
X1629420Y544710D01*
X1629960Y545140D01*
G01X1634250Y550670D02*
Y544170D01*
G01X1631760Y550670D02*
X1636740D01*
G01X1639080Y544170D02*
Y550670D01*
X1641790D01*
X1642660Y550340D01*
X1643200Y549910D01*
X1643420Y549040D01*
X1643200Y548180D01*
X1642550Y547640D01*
X1641790Y547310D01*
X1639080D01*
G01X1641790D02*
X1643420Y544170D01*
G01X1646950Y550670D02*
X1649550D01*
G01X1648250D02*
Y544170D01*
G01X1646950D02*
X1649550D01*
G01X1657630Y550130D02*
X1656980Y550450D01*
X1656230Y550670D01*
X1655360D01*
X1654380Y550340D01*
X1653630Y549800D01*
X1653080Y549150D01*
X1652650Y548070D01*
X1652540Y547090D01*
X1652760Y546120D01*
X1653080Y545470D01*
X1653730Y544820D01*
X1654490Y544390D01*
X1655250Y544170D01*
X1656010D01*
X1656770Y544390D01*
X1657420Y544710D01*
X1657960Y545140D01*
G01X1667840Y546340D02*
X1670660D01*
G01X1681190Y544170D02*
Y550670D01*
X1685310D01*
G01X1683790Y547530D02*
X1681190D01*
G01X1688080Y544170D02*
Y550670D01*
X1690790D01*
X1691660Y550340D01*
X1692200Y549910D01*
X1692420Y549040D01*
X1692200Y548180D01*
X1691550Y547640D01*
X1690790Y547310D01*
X1688080D01*
G01X1690790D02*
X1692420Y544170D01*
G01X1695840Y546340D02*
X1698660D01*
G01X1705550Y544170D02*
Y550670D01*
X1701540Y546010D01*
X1706960D01*
G01X1718250Y550670D02*
X1717380Y550450D01*
X1716730Y549910D01*
X1716300Y549260D01*
X1715970Y548390D01*
X1715870Y547420D01*
X1715970Y546440D01*
X1716300Y545580D01*
X1716730Y544930D01*
X1717380Y544390D01*
X1718250Y544170D01*
X1719120Y544390D01*
X1719770Y544930D01*
X1720200Y545580D01*
X1720530Y546440D01*
X1720630Y547420D01*
X1720530Y548390D01*
X1720200Y549260D01*
X1719770Y549910D01*
X1719120Y550450D01*
X1718250Y550670D01*
G01X1725250Y543950D02*
X1725030Y544060D01*
Y544280D01*
X1725250Y544390D01*
X1725470Y544280D01*
Y544060D01*
X1725250Y543950D01*
G01X1732250Y544170D02*
Y550670D01*
X1730950Y549370D01*
G01Y544170D02*
X1733550D01*
G01X1739030D02*
X1739250Y545580D01*
X1739580Y546770D01*
X1740010Y547850D01*
X1740550Y549040D01*
X1741420Y550670D01*
X1737080D01*
G01X1743870Y545140D02*
X1744520Y544600D01*
X1745270Y544280D01*
X1746250Y544170D01*
X1747230Y544390D01*
X1747980Y544820D01*
X1748530Y545580D01*
X1748630Y546440D01*
X1748420Y547310D01*
X1747870Y547850D01*
X1747120Y548290D01*
X1746360Y548390D01*
X1745600Y548290D01*
X1744630Y547850D01*
X1744950Y550670D01*
X1747870D01*
G01X1757430Y544170D02*
Y550670D01*
X1760250Y545250D01*
X1763070Y550670D01*
Y544170D01*
G01X1764430D02*
Y550670D01*
X1767250Y545250D01*
X1770070Y550670D01*
Y544170D01*
G01X1568870Y675430D02*
X1573630Y680200D01*
G01X1571250Y681070D02*
Y674570D01*
G01X1573630Y675430D02*
X1568870Y680200D01*
G01X1568000Y677820D02*
X1574500D01*
G01X1589870Y675650D02*
Y682150D01*
X1592030D01*
X1592900Y681820D01*
X1593550Y681390D01*
X1594090Y680740D01*
X1594530Y679980D01*
X1594630Y678900D01*
X1594530Y677820D01*
X1594090Y677060D01*
X1593550Y676410D01*
X1592900Y675970D01*
X1592030Y675650D01*
X1589870D01*
G01X1597950Y682150D02*
X1600550D01*
G01X1599250D02*
Y675650D01*
G01X1597950D02*
X1600550D01*
G01X1608420D02*
X1604080D01*
Y682150D01*
X1608420D01*
G01X1606680Y679010D02*
X1604080D01*
G01X1611080Y682150D02*
Y675650D01*
X1615420D01*
G01X1622420D02*
X1618080D01*
Y682150D01*
X1622420D01*
G01X1620680Y679010D02*
X1618080D01*
G01X1629630Y681610D02*
X1628980Y681930D01*
X1628230Y682150D01*
X1627360D01*
X1626380Y681820D01*
X1625630Y681280D01*
X1625080Y680630D01*
X1624650Y679550D01*
X1624540Y678570D01*
X1624760Y677600D01*
X1625080Y676950D01*
X1625730Y676300D01*
X1626490Y675870D01*
X1627250Y675650D01*
X1628010D01*
X1628770Y675870D01*
X1629420Y676190D01*
X1629960Y676620D01*
G01X1634250Y682150D02*
Y675650D01*
G01X1631760Y682150D02*
X1636740D01*
G01X1639080Y675650D02*
Y682150D01*
X1641790D01*
X1642660Y681820D01*
X1643200Y681390D01*
X1643420Y680520D01*
X1643200Y679660D01*
X1642550Y679120D01*
X1641790Y678790D01*
X1639080D01*
G01X1641790D02*
X1643420Y675650D01*
G01X1646950Y682150D02*
X1649550D01*
G01X1648250D02*
Y675650D01*
G01X1646950D02*
X1649550D01*
G01X1657630Y681610D02*
X1656980Y681930D01*
X1656230Y682150D01*
X1655360D01*
X1654380Y681820D01*
X1653630Y681280D01*
X1653080Y680630D01*
X1652650Y679550D01*
X1652540Y678570D01*
X1652760Y677600D01*
X1653080Y676950D01*
X1653730Y676300D01*
X1654490Y675870D01*
X1655250Y675650D01*
X1656010D01*
X1656770Y675870D01*
X1657420Y676190D01*
X1657960Y676620D01*
G01X1667840Y677820D02*
X1670660D01*
G01X1681190Y675650D02*
Y682150D01*
X1685310D01*
G01X1683790Y679010D02*
X1681190D01*
G01X1688080Y675650D02*
Y682150D01*
X1690790D01*
X1691660Y681820D01*
X1692200Y681390D01*
X1692420Y680520D01*
X1692200Y679660D01*
X1691550Y679120D01*
X1690790Y678790D01*
X1688080D01*
G01X1690790D02*
X1692420Y675650D01*
G01X1695840Y677820D02*
X1698660D01*
G01X1705550Y675650D02*
Y682150D01*
X1701540Y677490D01*
X1706960D01*
G01X1718250Y675650D02*
Y682150D01*
X1716950Y680850D01*
G01Y675650D02*
X1719550D01*
G01X1725250Y675430D02*
X1725030Y675540D01*
Y675760D01*
X1725250Y675870D01*
X1725470Y675760D01*
Y675540D01*
X1725250Y675430D01*
G01X1732250Y675650D02*
Y682150D01*
X1730950Y680850D01*
G01Y675650D02*
X1733550D01*
G01X1740550D02*
Y682150D01*
X1736540Y677490D01*
X1741960D01*
G01X1750430Y675650D02*
Y682150D01*
X1753250Y676730D01*
X1756070Y682150D01*
Y675650D01*
G01X1757430D02*
Y682150D01*
X1760250Y676730D01*
X1763070Y682150D01*
Y675650D01*
G01X1555080Y785770D02*
Y779270D01*
X1559420D01*
G01X1562190Y784690D02*
X1562840Y785340D01*
X1563600Y785660D01*
X1564470Y785770D01*
X1565550Y785550D01*
X1566310Y785010D01*
X1566530Y784360D01*
X1566420Y783710D01*
X1565980Y783170D01*
X1563820Y782090D01*
X1562840Y781330D01*
X1562190Y780240D01*
X1561970Y779270D01*
X1566530D01*
G01X1571250Y779050D02*
X1571030Y779160D01*
Y779380D01*
X1571250Y779490D01*
X1571470Y779380D01*
Y779160D01*
X1571250Y779050D01*
G01Y781980D02*
X1571030Y782090D01*
Y782300D01*
X1571250Y782410D01*
X1571470Y782300D01*
Y782090D01*
X1571250Y781980D01*
G01X1583080Y785770D02*
Y779270D01*
X1587420D01*
G01X1590190Y784690D02*
X1590840Y785340D01*
X1591600Y785660D01*
X1592470Y785770D01*
X1593550Y785550D01*
X1594310Y785010D01*
X1594530Y784360D01*
X1594420Y783710D01*
X1593980Y783170D01*
X1591820Y782090D01*
X1590840Y781330D01*
X1590190Y780240D01*
X1589970Y779270D01*
X1594530D01*
G01X1608630Y785230D02*
X1607980Y785550D01*
X1607230Y785770D01*
X1606360D01*
X1605380Y785440D01*
X1604630Y784900D01*
X1604080Y784250D01*
X1603650Y783170D01*
X1603540Y782190D01*
X1603760Y781220D01*
X1604080Y780570D01*
X1604730Y779920D01*
X1605490Y779490D01*
X1606250Y779270D01*
X1607010D01*
X1607770Y779490D01*
X1608420Y779810D01*
X1608960Y780240D01*
G01X1613250Y779270D02*
X1612380Y779380D01*
X1611630Y779810D01*
X1610970Y780460D01*
X1610540Y781220D01*
X1610320Y782090D01*
Y782950D01*
X1610540Y783820D01*
X1610970Y784580D01*
X1611630Y785230D01*
X1612380Y785660D01*
X1613250Y785770D01*
X1614120Y785660D01*
X1614870Y785230D01*
X1615530Y784580D01*
X1615960Y783820D01*
X1616180Y782950D01*
Y782090D01*
X1615960Y781220D01*
X1615530Y780460D01*
X1614870Y779810D01*
X1614120Y779380D01*
X1613250Y779270D01*
G01X1617760D02*
Y785770D01*
X1622740Y779270D01*
Y785770D01*
G01X1624870Y779270D02*
Y785770D01*
X1627030D01*
X1627900Y785440D01*
X1628550Y785010D01*
X1629090Y784360D01*
X1629530Y783600D01*
X1629630Y782520D01*
X1629530Y781440D01*
X1629090Y780680D01*
X1628550Y780030D01*
X1627900Y779590D01*
X1627030Y779270D01*
X1624870D01*
G01X1631870Y785770D02*
Y781110D01*
X1632300Y780140D01*
X1633170Y779490D01*
X1634250Y779270D01*
X1635330Y779490D01*
X1636200Y780140D01*
X1636630Y781110D01*
Y785770D01*
G01X1643630Y785230D02*
X1642980Y785550D01*
X1642230Y785770D01*
X1641360D01*
X1640380Y785440D01*
X1639630Y784900D01*
X1639080Y784250D01*
X1638650Y783170D01*
X1638540Y782190D01*
X1638760Y781220D01*
X1639080Y780570D01*
X1639730Y779920D01*
X1640490Y779490D01*
X1641250Y779270D01*
X1642010D01*
X1642770Y779490D01*
X1643420Y779810D01*
X1643960Y780240D01*
G01X1648250Y785770D02*
Y779270D01*
G01X1645760Y785770D02*
X1650740D01*
G01X1655250Y779270D02*
X1654380Y779380D01*
X1653630Y779810D01*
X1652970Y780460D01*
X1652540Y781220D01*
X1652320Y782090D01*
Y782950D01*
X1652540Y783820D01*
X1652970Y784580D01*
X1653630Y785230D01*
X1654380Y785660D01*
X1655250Y785770D01*
X1656120Y785660D01*
X1656870Y785230D01*
X1657530Y784580D01*
X1657960Y783820D01*
X1658180Y782950D01*
Y782090D01*
X1657960Y781220D01*
X1657530Y780460D01*
X1656870Y779810D01*
X1656120Y779380D01*
X1655250Y779270D01*
G01X1660080D02*
Y785770D01*
X1662790D01*
X1663660Y785440D01*
X1664200Y785010D01*
X1664420Y784140D01*
X1664200Y783280D01*
X1663550Y782740D01*
X1662790Y782410D01*
X1660080D01*
G01X1662790D02*
X1664420Y779270D01*
G01X1674840Y781440D02*
X1677660D01*
G01X1692630Y785230D02*
X1691980Y785550D01*
X1691230Y785770D01*
X1690360D01*
X1689380Y785440D01*
X1688630Y784900D01*
X1688080Y784250D01*
X1687650Y783170D01*
X1687540Y782190D01*
X1687760Y781220D01*
X1688080Y780570D01*
X1688730Y779920D01*
X1689490Y779490D01*
X1690250Y779270D01*
X1691010D01*
X1691770Y779490D01*
X1692420Y779810D01*
X1692960Y780240D01*
G01X1697250Y779270D02*
X1696380Y779380D01*
X1695630Y779810D01*
X1694970Y780460D01*
X1694540Y781220D01*
X1694320Y782090D01*
Y782950D01*
X1694540Y783820D01*
X1694970Y784580D01*
X1695630Y785230D01*
X1696380Y785660D01*
X1697250Y785770D01*
X1698120Y785660D01*
X1698870Y785230D01*
X1699530Y784580D01*
X1699960Y783820D01*
X1700180Y782950D01*
Y782090D01*
X1699960Y781220D01*
X1699530Y780460D01*
X1698870Y779810D01*
X1698120Y779380D01*
X1697250Y779270D01*
G01X1702080D02*
Y785770D01*
X1704680D01*
X1705550Y785440D01*
X1706200Y784690D01*
X1706420Y783820D01*
X1706200Y782950D01*
X1705660Y782300D01*
X1704680Y781980D01*
X1702080D01*
G01X1709080Y779270D02*
Y785770D01*
X1711680D01*
X1712550Y785440D01*
X1713200Y784690D01*
X1713420Y783820D01*
X1713200Y782950D01*
X1712660Y782300D01*
X1711680Y781980D01*
X1709080D01*
G01X1720420Y779270D02*
X1716080D01*
Y785770D01*
X1720420D01*
G01X1718680Y782630D02*
X1716080D01*
G01X1723080Y779270D02*
Y785770D01*
X1725790D01*
X1726660Y785440D01*
X1727200Y785010D01*
X1727420Y784140D01*
X1727200Y783280D01*
X1726550Y782740D01*
X1725790Y782410D01*
X1723080D01*
G01X1725790D02*
X1727420Y779270D01*
G01X1739250Y785770D02*
X1738380Y785550D01*
X1737730Y785010D01*
X1737300Y784360D01*
X1736970Y783490D01*
X1736870Y782520D01*
X1736970Y781540D01*
X1737300Y780680D01*
X1737730Y780030D01*
X1738380Y779490D01*
X1739250Y779270D01*
X1740120Y779490D01*
X1740770Y780030D01*
X1741200Y780680D01*
X1741530Y781540D01*
X1741630Y782520D01*
X1741530Y783490D01*
X1741200Y784360D01*
X1740770Y785010D01*
X1740120Y785550D01*
X1739250Y785770D01*
G01X1746250Y779050D02*
X1746030Y779160D01*
Y779380D01*
X1746250Y779490D01*
X1746470Y779380D01*
Y779160D01*
X1746250Y779050D01*
G01X1753250Y785770D02*
X1752380Y785550D01*
X1751730Y785010D01*
X1751300Y784360D01*
X1750970Y783490D01*
X1750870Y782520D01*
X1750970Y781540D01*
X1751300Y780680D01*
X1751730Y780030D01*
X1752380Y779490D01*
X1753250Y779270D01*
X1754120Y779490D01*
X1754770Y780030D01*
X1755200Y780680D01*
X1755530Y781540D01*
X1755630Y782520D01*
X1755530Y783490D01*
X1755200Y784360D01*
X1754770Y785010D01*
X1754120Y785550D01*
X1753250Y785770D01*
G01X1760250Y779270D02*
Y785770D01*
X1758950Y784470D01*
G01Y779270D02*
X1761550D01*
G01X1767250D02*
X1768010Y779380D01*
X1768870Y779700D01*
X1769420Y780240D01*
X1769630Y781000D01*
X1769420Y781760D01*
X1768770Y782410D01*
X1767790Y782740D01*
X1766710D01*
X1766060Y782950D01*
X1765520Y783490D01*
X1765300Y784250D01*
X1765630Y785010D01*
X1766380Y785550D01*
X1767250Y785770D01*
X1768120Y785550D01*
X1768870Y785010D01*
X1769200Y784250D01*
X1768980Y783490D01*
X1768440Y782950D01*
X1767790Y782740D01*
X1766710D01*
X1765730Y782410D01*
X1765080Y781760D01*
X1764870Y781000D01*
X1765080Y780240D01*
X1765630Y779700D01*
X1766490Y779380D01*
X1767250Y779270D01*
G01X1778430D02*
Y785770D01*
X1781250Y780350D01*
X1784070Y785770D01*
Y779270D01*
G01X1785430D02*
Y785770D01*
X1788250Y780350D01*
X1791070Y785770D01*
Y779270D01*
G01X1568870Y806920D02*
X1573630Y811690D01*
G01X1571250Y812560D02*
Y806060D01*
G01X1573630Y806920D02*
X1568870Y811690D01*
G01X1568000Y809310D02*
X1574500D01*
G01X1589870Y807140D02*
Y813640D01*
X1592030D01*
X1592900Y813310D01*
X1593550Y812880D01*
X1594090Y812230D01*
X1594530Y811470D01*
X1594630Y810390D01*
X1594530Y809310D01*
X1594090Y808550D01*
X1593550Y807900D01*
X1592900Y807460D01*
X1592030Y807140D01*
X1589870D01*
G01X1597950Y813640D02*
X1600550D01*
G01X1599250D02*
Y807140D01*
G01X1597950D02*
X1600550D01*
G01X1608420D02*
X1604080D01*
Y813640D01*
X1608420D01*
G01X1606680Y810500D02*
X1604080D01*
G01X1611080Y813640D02*
Y807140D01*
X1615420D01*
G01X1622420D02*
X1618080D01*
Y813640D01*
X1622420D01*
G01X1620680Y810500D02*
X1618080D01*
G01X1629630Y813100D02*
X1628980Y813420D01*
X1628230Y813640D01*
X1627360D01*
X1626380Y813310D01*
X1625630Y812770D01*
X1625080Y812120D01*
X1624650Y811040D01*
X1624540Y810060D01*
X1624760Y809090D01*
X1625080Y808440D01*
X1625730Y807790D01*
X1626490Y807360D01*
X1627250Y807140D01*
X1628010D01*
X1628770Y807360D01*
X1629420Y807680D01*
X1629960Y808110D01*
G01X1634250Y813640D02*
Y807140D01*
G01X1631760Y813640D02*
X1636740D01*
G01X1639080Y807140D02*
Y813640D01*
X1641790D01*
X1642660Y813310D01*
X1643200Y812880D01*
X1643420Y812010D01*
X1643200Y811150D01*
X1642550Y810610D01*
X1641790Y810280D01*
X1639080D01*
G01X1641790D02*
X1643420Y807140D01*
G01X1646950Y813640D02*
X1649550D01*
G01X1648250D02*
Y807140D01*
G01X1646950D02*
X1649550D01*
G01X1657630Y813100D02*
X1656980Y813420D01*
X1656230Y813640D01*
X1655360D01*
X1654380Y813310D01*
X1653630Y812770D01*
X1653080Y812120D01*
X1652650Y811040D01*
X1652540Y810060D01*
X1652760Y809090D01*
X1653080Y808440D01*
X1653730Y807790D01*
X1654490Y807360D01*
X1655250Y807140D01*
X1656010D01*
X1656770Y807360D01*
X1657420Y807680D01*
X1657960Y808110D01*
G01X1667840Y809310D02*
X1670660D01*
G01X1681190Y807140D02*
Y813640D01*
X1685310D01*
G01X1683790Y810500D02*
X1681190D01*
G01X1688080Y807140D02*
Y813640D01*
X1690790D01*
X1691660Y813310D01*
X1692200Y812880D01*
X1692420Y812010D01*
X1692200Y811150D01*
X1691550Y810610D01*
X1690790Y810280D01*
X1688080D01*
G01X1690790D02*
X1692420Y807140D01*
G01X1695840Y809310D02*
X1698660D01*
G01X1705550Y807140D02*
Y813640D01*
X1701540Y808980D01*
X1706960D01*
G01X1718250Y813640D02*
X1717380Y813420D01*
X1716730Y812880D01*
X1716300Y812230D01*
X1715970Y811360D01*
X1715870Y810390D01*
X1715970Y809410D01*
X1716300Y808550D01*
X1716730Y807900D01*
X1717380Y807360D01*
X1718250Y807140D01*
X1719120Y807360D01*
X1719770Y807900D01*
X1720200Y808550D01*
X1720530Y809410D01*
X1720630Y810390D01*
X1720530Y811360D01*
X1720200Y812230D01*
X1719770Y812880D01*
X1719120Y813420D01*
X1718250Y813640D01*
G01X1725250Y806920D02*
X1725030Y807030D01*
Y807250D01*
X1725250Y807360D01*
X1725470Y807250D01*
Y807030D01*
X1725250Y806920D01*
G01X1732250Y807140D02*
Y813640D01*
X1730950Y812340D01*
G01Y807140D02*
X1733550D01*
G01X1739030D02*
X1739250Y808550D01*
X1739580Y809740D01*
X1740010Y810820D01*
X1740550Y812010D01*
X1741420Y813640D01*
X1737080D01*
G01X1743870Y808110D02*
X1744520Y807570D01*
X1745270Y807250D01*
X1746250Y807140D01*
X1747230Y807360D01*
X1747980Y807790D01*
X1748530Y808550D01*
X1748630Y809410D01*
X1748420Y810280D01*
X1747870Y810820D01*
X1747120Y811260D01*
X1746360Y811360D01*
X1745600Y811260D01*
X1744630Y810820D01*
X1744950Y813640D01*
X1747870D01*
G01X1757430Y807140D02*
Y813640D01*
X1760250Y808220D01*
X1763070Y813640D01*
Y807140D01*
G01X1764430D02*
Y813640D01*
X1767250Y808220D01*
X1770070Y813640D01*
Y807140D01*
G01X1555080Y854850D02*
Y848350D01*
X1559420D01*
G01X1564250D02*
Y854850D01*
X1562950Y853550D01*
G01Y848350D02*
X1565550D01*
G01X1571250Y848130D02*
X1571030Y848240D01*
Y848460D01*
X1571250Y848570D01*
X1571470Y848460D01*
Y848240D01*
X1571250Y848130D01*
G01Y851060D02*
X1571030Y851170D01*
Y851380D01*
X1571250Y851490D01*
X1571470Y851380D01*
Y851170D01*
X1571250Y851060D01*
G01X1585250Y854850D02*
Y848350D01*
G01X1582760Y854850D02*
X1587740D01*
G01X1592250Y848350D02*
X1591380Y848460D01*
X1590630Y848890D01*
X1589970Y849540D01*
X1589540Y850300D01*
X1589320Y851170D01*
Y852030D01*
X1589540Y852900D01*
X1589970Y853660D01*
X1590630Y854310D01*
X1591380Y854740D01*
X1592250Y854850D01*
X1593120Y854740D01*
X1593870Y854310D01*
X1594530Y853660D01*
X1594960Y852900D01*
X1595180Y852030D01*
Y851170D01*
X1594960Y850300D01*
X1594530Y849540D01*
X1593870Y848890D01*
X1593120Y848460D01*
X1592250Y848350D01*
G01X1597080D02*
Y854850D01*
X1599680D01*
X1600550Y854520D01*
X1601200Y853770D01*
X1601420Y852900D01*
X1601200Y852030D01*
X1600660Y851380D01*
X1599680Y851060D01*
X1597080D01*
G01X1615630Y854310D02*
X1614980Y854630D01*
X1614230Y854850D01*
X1613360D01*
X1612380Y854520D01*
X1611630Y853980D01*
X1611080Y853330D01*
X1610650Y852250D01*
X1610540Y851270D01*
X1610760Y850300D01*
X1611080Y849650D01*
X1611730Y849000D01*
X1612490Y848570D01*
X1613250Y848350D01*
X1614010D01*
X1614770Y848570D01*
X1615420Y848890D01*
X1615960Y849320D01*
G01X1620250Y848350D02*
X1619380Y848460D01*
X1618630Y848890D01*
X1617970Y849540D01*
X1617540Y850300D01*
X1617320Y851170D01*
Y852030D01*
X1617540Y852900D01*
X1617970Y853660D01*
X1618630Y854310D01*
X1619380Y854740D01*
X1620250Y854850D01*
X1621120Y854740D01*
X1621870Y854310D01*
X1622530Y853660D01*
X1622960Y852900D01*
X1623180Y852030D01*
Y851170D01*
X1622960Y850300D01*
X1622530Y849540D01*
X1621870Y848890D01*
X1621120Y848460D01*
X1620250Y848350D01*
G01X1624760D02*
Y854850D01*
X1629740Y848350D01*
Y854850D01*
G01X1631870Y848350D02*
Y854850D01*
X1634030D01*
X1634900Y854520D01*
X1635550Y854090D01*
X1636090Y853440D01*
X1636530Y852680D01*
X1636630Y851600D01*
X1636530Y850520D01*
X1636090Y849760D01*
X1635550Y849110D01*
X1634900Y848670D01*
X1634030Y848350D01*
X1631870D01*
G01X1638870Y854850D02*
Y850190D01*
X1639300Y849220D01*
X1640170Y848570D01*
X1641250Y848350D01*
X1642330Y848570D01*
X1643200Y849220D01*
X1643630Y850190D01*
Y854850D01*
G01X1650630Y854310D02*
X1649980Y854630D01*
X1649230Y854850D01*
X1648360D01*
X1647380Y854520D01*
X1646630Y853980D01*
X1646080Y853330D01*
X1645650Y852250D01*
X1645540Y851270D01*
X1645760Y850300D01*
X1646080Y849650D01*
X1646730Y849000D01*
X1647490Y848570D01*
X1648250Y848350D01*
X1649010D01*
X1649770Y848570D01*
X1650420Y848890D01*
X1650960Y849320D01*
G01X1655250Y854850D02*
Y848350D01*
G01X1652760Y854850D02*
X1657740D01*
G01X1662250Y848350D02*
X1661380Y848460D01*
X1660630Y848890D01*
X1659970Y849540D01*
X1659540Y850300D01*
X1659320Y851170D01*
Y852030D01*
X1659540Y852900D01*
X1659970Y853660D01*
X1660630Y854310D01*
X1661380Y854740D01*
X1662250Y854850D01*
X1663120Y854740D01*
X1663870Y854310D01*
X1664530Y853660D01*
X1664960Y852900D01*
X1665180Y852030D01*
Y851170D01*
X1664960Y850300D01*
X1664530Y849540D01*
X1663870Y848890D01*
X1663120Y848460D01*
X1662250Y848350D01*
G01X1667080D02*
Y854850D01*
X1669790D01*
X1670660Y854520D01*
X1671200Y854090D01*
X1671420Y853220D01*
X1671200Y852360D01*
X1670550Y851820D01*
X1669790Y851490D01*
X1667080D01*
G01X1669790D02*
X1671420Y848350D01*
G01X1681840Y850520D02*
X1684660D01*
G01X1699630Y854310D02*
X1698980Y854630D01*
X1698230Y854850D01*
X1697360D01*
X1696380Y854520D01*
X1695630Y853980D01*
X1695080Y853330D01*
X1694650Y852250D01*
X1694540Y851270D01*
X1694760Y850300D01*
X1695080Y849650D01*
X1695730Y849000D01*
X1696490Y848570D01*
X1697250Y848350D01*
X1698010D01*
X1698770Y848570D01*
X1699420Y848890D01*
X1699960Y849320D01*
G01X1704250Y848350D02*
X1703380Y848460D01*
X1702630Y848890D01*
X1701970Y849540D01*
X1701540Y850300D01*
X1701320Y851170D01*
Y852030D01*
X1701540Y852900D01*
X1701970Y853660D01*
X1702630Y854310D01*
X1703380Y854740D01*
X1704250Y854850D01*
X1705120Y854740D01*
X1705870Y854310D01*
X1706530Y853660D01*
X1706960Y852900D01*
X1707180Y852030D01*
Y851170D01*
X1706960Y850300D01*
X1706530Y849540D01*
X1705870Y848890D01*
X1705120Y848460D01*
X1704250Y848350D01*
G01X1709080D02*
Y854850D01*
X1711680D01*
X1712550Y854520D01*
X1713200Y853770D01*
X1713420Y852900D01*
X1713200Y852030D01*
X1712660Y851380D01*
X1711680Y851060D01*
X1709080D01*
G01X1716080Y848350D02*
Y854850D01*
X1718680D01*
X1719550Y854520D01*
X1720200Y853770D01*
X1720420Y852900D01*
X1720200Y852030D01*
X1719660Y851380D01*
X1718680Y851060D01*
X1716080D01*
G01X1727420Y848350D02*
X1723080D01*
Y854850D01*
X1727420D01*
G01X1725680Y851710D02*
X1723080D01*
G01X1730080Y848350D02*
Y854850D01*
X1732790D01*
X1733660Y854520D01*
X1734200Y854090D01*
X1734420Y853220D01*
X1734200Y852360D01*
X1733550Y851820D01*
X1732790Y851490D01*
X1730080D01*
G01X1732790D02*
X1734420Y848350D01*
G01X1746250Y854850D02*
X1745380Y854630D01*
X1744730Y854090D01*
X1744300Y853440D01*
X1743970Y852570D01*
X1743870Y851600D01*
X1743970Y850620D01*
X1744300Y849760D01*
X1744730Y849110D01*
X1745380Y848570D01*
X1746250Y848350D01*
X1747120Y848570D01*
X1747770Y849110D01*
X1748200Y849760D01*
X1748530Y850620D01*
X1748630Y851600D01*
X1748530Y852570D01*
X1748200Y853440D01*
X1747770Y854090D01*
X1747120Y854630D01*
X1746250Y854850D01*
G01X1753250Y848130D02*
X1753030Y848240D01*
Y848460D01*
X1753250Y848570D01*
X1753470Y848460D01*
Y848240D01*
X1753250Y848130D01*
G01X1760250Y854850D02*
X1759380Y854630D01*
X1758730Y854090D01*
X1758300Y853440D01*
X1757970Y852570D01*
X1757870Y851600D01*
X1757970Y850620D01*
X1758300Y849760D01*
X1758730Y849110D01*
X1759380Y848570D01*
X1760250Y848350D01*
X1761120Y848570D01*
X1761770Y849110D01*
X1762200Y849760D01*
X1762530Y850620D01*
X1762630Y851600D01*
X1762530Y852570D01*
X1762200Y853440D01*
X1761770Y854090D01*
X1761120Y854630D01*
X1760250Y854850D01*
G01X1764870Y849650D02*
X1765520Y848890D01*
X1766380Y848460D01*
X1767360Y848350D01*
X1768230Y848460D01*
X1769090Y849000D01*
X1769630Y849650D01*
X1769740Y850300D01*
X1769530Y851060D01*
X1768770Y851600D01*
X1768010Y851820D01*
X1767030D01*
G01X1768010D02*
X1768660Y852140D01*
X1769200Y852680D01*
X1769420Y853330D01*
X1769200Y853980D01*
X1768660Y854520D01*
X1767680Y854850D01*
X1766710Y854740D01*
X1765730Y854310D01*
G01X1771870Y849320D02*
X1772520Y848780D01*
X1773270Y848460D01*
X1774250Y848350D01*
X1775230Y848570D01*
X1775980Y849000D01*
X1776530Y849760D01*
X1776630Y850620D01*
X1776420Y851490D01*
X1775870Y852030D01*
X1775120Y852470D01*
X1774360Y852570D01*
X1773600Y852470D01*
X1772630Y852030D01*
X1772950Y854850D01*
X1775870D01*
G01X1785430Y848350D02*
Y854850D01*
X1788250Y849430D01*
X1791070Y854850D01*
Y848350D01*
G01X1792430D02*
Y854850D01*
X1795250Y849430D01*
X1798070Y854850D01*
Y848350D01*
G01X1568870Y877760D02*
X1573630Y882530D01*
G01X1571250Y883400D02*
Y876900D01*
G01X1573630Y877760D02*
X1568870Y882530D01*
G01X1568000Y880150D02*
X1574500D01*
G01X1589970Y878850D02*
X1590840Y878300D01*
X1591820Y877980D01*
X1592680D01*
X1593550Y878300D01*
X1594200Y878850D01*
X1594530Y879610D01*
X1594310Y880360D01*
X1593770Y881010D01*
X1592790Y881450D01*
X1591490Y881660D01*
X1590730Y882100D01*
X1590410Y882850D01*
X1590630Y883610D01*
X1591170Y884150D01*
X1591920Y884480D01*
X1592680D01*
X1593440Y884260D01*
X1594090Y883720D01*
G01X1596870Y884480D02*
Y879820D01*
X1597300Y878850D01*
X1598170Y878200D01*
X1599250Y877980D01*
X1600330Y878200D01*
X1601200Y878850D01*
X1601630Y879820D01*
Y884480D01*
G01X1604080Y877980D02*
Y884480D01*
X1606790D01*
X1607660Y884150D01*
X1608200Y883720D01*
X1608420Y882850D01*
X1608200Y881990D01*
X1607550Y881450D01*
X1606790Y881120D01*
X1604080D01*
G01X1606790D02*
X1608420Y877980D01*
G01X1611190D02*
Y884480D01*
X1615310D01*
G01X1613790Y881340D02*
X1611190D01*
G01X1617540Y877980D02*
X1620250Y884480D01*
X1622960Y877980D01*
G01X1621980Y880250D02*
X1618520D01*
G01X1629630Y883940D02*
X1628980Y884260D01*
X1628230Y884480D01*
X1627360D01*
X1626380Y884150D01*
X1625630Y883610D01*
X1625080Y882960D01*
X1624650Y881880D01*
X1624540Y880900D01*
X1624760Y879930D01*
X1625080Y879280D01*
X1625730Y878630D01*
X1626490Y878200D01*
X1627250Y877980D01*
X1628010D01*
X1628770Y878200D01*
X1629420Y878520D01*
X1629960Y878950D01*
G01X1636420Y877980D02*
X1632080D01*
Y884480D01*
X1636420D01*
G01X1634680Y881340D02*
X1632080D01*
G01X1646840Y880150D02*
X1649660D01*
G01X1659540Y877980D02*
X1662250Y884480D01*
X1664960Y877980D01*
G01X1663980Y880250D02*
X1660520D01*
G01X1667950Y884480D02*
X1670550D01*
G01X1669250D02*
Y877980D01*
G01X1667950D02*
X1670550D01*
G01X1674080D02*
Y884480D01*
X1676790D01*
X1677660Y884150D01*
X1678200Y883720D01*
X1678420Y882850D01*
X1678200Y881990D01*
X1677550Y881450D01*
X1676790Y881120D01*
X1674080D01*
G01X1676790D02*
X1678420Y877980D01*
G01X1690250Y884480D02*
X1689380Y884260D01*
X1688730Y883720D01*
X1688300Y883070D01*
X1687970Y882200D01*
X1687870Y881230D01*
X1687970Y880250D01*
X1688300Y879390D01*
X1688730Y878740D01*
X1689380Y878200D01*
X1690250Y877980D01*
X1691120Y878200D01*
X1691770Y878740D01*
X1692200Y879390D01*
X1692530Y880250D01*
X1692630Y881230D01*
X1692530Y882200D01*
X1692200Y883070D01*
X1691770Y883720D01*
X1691120Y884260D01*
X1690250Y884480D01*
G01X1701430Y877980D02*
Y884480D01*
X1704250Y879060D01*
X1707070Y884480D01*
Y877980D01*
G01X1708430D02*
Y884480D01*
X1711250Y879060D01*
X1714070Y884480D01*
Y877980D01*
G54D15*
G01X1384500Y1613370D02*
Y1619870D01*
X1380490Y1615210D01*
X1385910D01*
G01X1397570Y1619870D02*
X1396700Y1619650D01*
X1396050Y1619110D01*
X1395620Y1618460D01*
X1395290Y1617590D01*
X1395190Y1616620D01*
X1395290Y1615640D01*
X1395620Y1614780D01*
X1396050Y1614130D01*
X1396700Y1613590D01*
X1397570Y1613370D01*
X1398440Y1613590D01*
X1399090Y1614130D01*
X1399520Y1614780D01*
X1399850Y1615640D01*
X1399950Y1616620D01*
X1399850Y1617590D01*
X1399520Y1618460D01*
X1399090Y1619110D01*
X1398440Y1619650D01*
X1397570Y1619870D01*
G01X1411940Y1613150D02*
X1411720Y1613260D01*
Y1613480D01*
X1411940Y1613590D01*
X1412160Y1613480D01*
Y1613260D01*
X1411940Y1613150D01*
G01X1426310Y1613370D02*
Y1619870D01*
X1425010Y1618570D01*
G01Y1613370D02*
X1427610D01*
G01X1632660Y1013820D02*
X1633200Y1014470D01*
X1633520Y1015220D01*
X1633630Y1016200D01*
X1633410Y1017180D01*
X1632980Y1017930D01*
X1632220Y1018480D01*
X1631360Y1018580D01*
X1630490Y1018370D01*
X1629950Y1017820D01*
X1629510Y1017070D01*
X1629410Y1016310D01*
X1629510Y1015550D01*
X1629950Y1014580D01*
X1627130Y1014900D01*
Y1017820D01*
G01X1633630Y1031870D02*
X1627130D01*
X1631790Y1027860D01*
Y1033280D01*
G01X1633850Y1044940D02*
X1633740Y1044720D01*
X1633520D01*
X1633410Y1044940D01*
X1633520Y1045160D01*
X1633740D01*
X1633850Y1044940D01*
G01X1633630Y1059310D02*
X1627130D01*
X1628430Y1058010D01*
G01X1633630D02*
Y1060610D01*
G54D16*
G01X1066000Y592500D02*
Y791000D01*
X1314260D01*
Y592500D01*
X1066000D01*
G01Y622500D02*
X1314260D01*
G01X1066000Y652500D02*
X1314260D01*
G01X1066000Y705500D02*
X1314260D01*
G01X1066000Y682500D02*
X1314260D01*
G01X1066000Y724250D02*
X1314260D01*
G01X1066000Y757000D02*
X1314260D01*
G01X1063500Y1479000D02*
Y938000D01*
X1464500D01*
Y1479000D01*
X1063500D01*
G01Y1504000D02*
Y1622000D01*
G01X1439000Y1597000D02*
X1063500D01*
G01X1103500Y1603250D02*
X1063500Y1597000D01*
X1103500Y1590750D01*
Y1603250D01*
G01X1111740Y719250D02*
Y592500D01*
G01X1209720Y719250D02*
Y592500D01*
G01X1275050Y719250D02*
Y592500D01*
G01X1420000Y475470D02*
Y875820D01*
G01Y530430D02*
Y557900D01*
X1547000D01*
Y530430D01*
X1420000D01*
G01Y586160D02*
Y765140D01*
X1547000D01*
Y586160D01*
X1420000D01*
G01Y793400D02*
Y820870D01*
X1547000D01*
Y793400D01*
X1420000D01*
G01X1439000Y1597000D02*
X1464500D01*
G01X1424500Y1590750D02*
X1464500Y1597000D01*
X1424500Y1603250D01*
Y1590750D01*
G01X1489500Y938000D02*
X1675000D01*
G01X1489500Y1479000D02*
X1675000D01*
G01X1464500Y1504000D02*
Y1622000D01*
G01X1547000Y475470D02*
Y875820D01*
G01X1650000Y1072000D02*
Y938000D01*
G01X1643750Y978000D02*
X1650000Y938000D01*
X1656250Y978000D01*
X1643750D01*
G01X1650000Y1072000D02*
Y1479000D01*
G01X1656250Y1439000D02*
X1650000Y1479000D01*
X1643750Y1439000D01*
X1656250D01*
G54D17*
G01X1070480Y709500D02*
Y716000D01*
X1074600D01*
G01X1073080Y712860D02*
X1070480D01*
G01X1077770Y716000D02*
X1080370D01*
G01X1079070D02*
Y709500D01*
G01X1077770D02*
X1080370D01*
G01X1086250Y712750D02*
X1088420D01*
Y710800D01*
X1087770Y710150D01*
X1087010Y709720D01*
X1085930Y709500D01*
X1084840Y709720D01*
X1084080Y710150D01*
X1083430Y710800D01*
X1083000Y711560D01*
X1082780Y712420D01*
Y713180D01*
X1083000Y713830D01*
X1083430Y714590D01*
X1084080Y715240D01*
X1084730Y715670D01*
X1085600Y716000D01*
X1086360D01*
X1087220Y715780D01*
X1087880Y715350D01*
G01X1089750Y716000D02*
Y711340D01*
X1090180Y710370D01*
X1091050Y709720D01*
X1092130Y709500D01*
X1093210Y709720D01*
X1094080Y710370D01*
X1094510Y711340D01*
Y716000D01*
G01X1096490Y709500D02*
Y716000D01*
X1099200D01*
X1100070Y715670D01*
X1100610Y715240D01*
X1100830Y714370D01*
X1100610Y713510D01*
X1099960Y712970D01*
X1099200Y712640D01*
X1096490D01*
G01X1099200D02*
X1100830Y709500D01*
G01X1107360D02*
X1103020D01*
Y716000D01*
X1107360D01*
G01X1105620Y712860D02*
X1103020D01*
G01X1102130Y743000D02*
X1104840Y749500D01*
X1107550Y743000D01*
G01X1106570Y745270D02*
X1103110D01*
G01X1109200Y749500D02*
Y743000D01*
X1113540D01*
G01X1115730Y749500D02*
Y743000D01*
X1120070D01*
G01X1128580Y749500D02*
Y744840D01*
X1129010Y743870D01*
X1129880Y743220D01*
X1130960Y743000D01*
X1132040Y743220D01*
X1132910Y743870D01*
X1133340Y744840D01*
Y749500D01*
G01X1135000Y743000D02*
Y749500D01*
X1139980Y743000D01*
Y749500D01*
G01X1142720D02*
X1145320D01*
G01X1144020D02*
Y743000D01*
G01X1142720D02*
X1145320D01*
G01X1150550Y749500D02*
Y743000D01*
G01X1148060Y749500D02*
X1153040D01*
G01X1154800Y743870D02*
X1155670Y743320D01*
X1156650Y743000D01*
X1157510D01*
X1158380Y743320D01*
X1159030Y743870D01*
X1159360Y744630D01*
X1159140Y745380D01*
X1158600Y746030D01*
X1157620Y746470D01*
X1156320Y746680D01*
X1155560Y747120D01*
X1155240Y747870D01*
X1155460Y748630D01*
X1156000Y749170D01*
X1156750Y749500D01*
X1157510D01*
X1158270Y749280D01*
X1158920Y748740D01*
G01X1167430Y743000D02*
X1170140Y749500D01*
X1172850Y743000D01*
G01X1171870Y745270D02*
X1168410D01*
G01X1174500Y743000D02*
Y749500D01*
X1177210D01*
X1178080Y749170D01*
X1178620Y748740D01*
X1178840Y747870D01*
X1178620Y747010D01*
X1177970Y746470D01*
X1177210Y746140D01*
X1174500D01*
G01X1177210D02*
X1178840Y743000D01*
G01X1185370D02*
X1181030D01*
Y749500D01*
X1185370D01*
G01X1183630Y746360D02*
X1181030D01*
G01X1194960Y749500D02*
X1197560D01*
G01X1196260D02*
Y743000D01*
G01X1194960D02*
X1197560D01*
G01X1200300D02*
Y749500D01*
X1205280Y743000D01*
Y749500D01*
G01X1213030Y743000D02*
Y749500D01*
X1215850Y744080D01*
X1218670Y749500D01*
Y743000D01*
G01X1221080Y749500D02*
X1223680D01*
G01X1222380D02*
Y743000D01*
G01X1221080D02*
X1223680D01*
G01X1226740Y749500D02*
Y743000D01*
X1231080D01*
G01X1233270Y749500D02*
Y743000D01*
X1237610D01*
G01X1240670Y749500D02*
X1243270D01*
G01X1241970D02*
Y743000D01*
G01X1240670D02*
X1243270D01*
G01X1245680D02*
Y749500D01*
X1248500Y744080D01*
X1251320Y749500D01*
Y743000D01*
G01X1257200D02*
X1252860D01*
Y749500D01*
X1257200D01*
G01X1255460Y746360D02*
X1252860D01*
G01X1261560Y749500D02*
Y743000D01*
G01X1259070Y749500D02*
X1264050D01*
G01X1270260Y743000D02*
X1265920D01*
Y749500D01*
X1270260D01*
G01X1268520Y746360D02*
X1265920D01*
G01X1272450Y743000D02*
Y749500D01*
X1275160D01*
X1276030Y749170D01*
X1276570Y748740D01*
X1276790Y747870D01*
X1276570Y747010D01*
X1275920Y746470D01*
X1275160Y746140D01*
X1272450D01*
G01X1275160D02*
X1276790Y743000D01*
G01X1278870Y743870D02*
X1279740Y743320D01*
X1280720Y743000D01*
X1281580D01*
X1282450Y743320D01*
X1283100Y743870D01*
X1283430Y744630D01*
X1283210Y745380D01*
X1282670Y746030D01*
X1281690Y746470D01*
X1280390Y746680D01*
X1279630Y747120D01*
X1279310Y747870D01*
X1279530Y748630D01*
X1280070Y749170D01*
X1280820Y749500D01*
X1281580D01*
X1282340Y749280D01*
X1282990Y748740D01*
G01X1106120Y781250D02*
Y787750D01*
X1108280D01*
X1109150Y787420D01*
X1109800Y786990D01*
X1110340Y786340D01*
X1110780Y785580D01*
X1110880Y784500D01*
X1110780Y783420D01*
X1110340Y782660D01*
X1109800Y782010D01*
X1109150Y781570D01*
X1108280Y781250D01*
X1106120D01*
G01X1112860D02*
Y787750D01*
X1115570D01*
X1116440Y787420D01*
X1116980Y786990D01*
X1117200Y786120D01*
X1116980Y785260D01*
X1116330Y784720D01*
X1115570Y784390D01*
X1112860D01*
G01X1115570D02*
X1117200Y781250D01*
G01X1120260Y787750D02*
X1122860D01*
G01X1121560D02*
Y781250D01*
G01X1120260D02*
X1122860D01*
G01X1125920Y787750D02*
Y781250D01*
X1130260D01*
G01X1132450Y787750D02*
Y781250D01*
X1136790D01*
G01X1150060Y787210D02*
X1149410Y787530D01*
X1148660Y787750D01*
X1147790D01*
X1146810Y787420D01*
X1146060Y786880D01*
X1145510Y786230D01*
X1145080Y785150D01*
X1144970Y784170D01*
X1145190Y783200D01*
X1145510Y782550D01*
X1146160Y781900D01*
X1146920Y781470D01*
X1147680Y781250D01*
X1148440D01*
X1149200Y781470D01*
X1149850Y781790D01*
X1150390Y782220D01*
G01X1151930Y781250D02*
Y787750D01*
G01X1156490D02*
Y781250D01*
G01Y784500D02*
X1151930D01*
G01X1158030Y781250D02*
X1160740Y787750D01*
X1163450Y781250D01*
G01X1162470Y783520D02*
X1159010D01*
G01X1165100Y781250D02*
Y787750D01*
X1167810D01*
X1168680Y787420D01*
X1169220Y786990D01*
X1169440Y786120D01*
X1169220Y785260D01*
X1168570Y784720D01*
X1167810Y784390D01*
X1165100D01*
G01X1167810D02*
X1169440Y781250D01*
G01X1173800Y787750D02*
Y781250D01*
G01X1171310Y787750D02*
X1176290D01*
G01X1180330Y781030D02*
X1180110Y781140D01*
Y781360D01*
X1180330Y781470D01*
X1180550Y781360D01*
Y781140D01*
X1180330Y781030D01*
G01Y783960D02*
X1180110Y784070D01*
Y784280D01*
X1180330Y784390D01*
X1180550Y784280D01*
Y784070D01*
X1180330Y783960D01*
G01X1193390Y787750D02*
Y781250D01*
G01X1190900Y787750D02*
X1195880D01*
G01X1199920Y781250D02*
X1199050Y781360D01*
X1198300Y781790D01*
X1197640Y782440D01*
X1197210Y783200D01*
X1196990Y784070D01*
Y784930D01*
X1197210Y785800D01*
X1197640Y786560D01*
X1198300Y787210D01*
X1199050Y787640D01*
X1199920Y787750D01*
X1200790Y787640D01*
X1201540Y787210D01*
X1202200Y786560D01*
X1202630Y785800D01*
X1202850Y784930D01*
Y784070D01*
X1202630Y783200D01*
X1202200Y782440D01*
X1201540Y781790D01*
X1200790Y781360D01*
X1199920Y781250D01*
G01X1204280D02*
Y787750D01*
X1206880D01*
X1207750Y787420D01*
X1208400Y786670D01*
X1208620Y785800D01*
X1208400Y784930D01*
X1207860Y784280D01*
X1206880Y783960D01*
X1204280D01*
G01X1219510Y787750D02*
Y781250D01*
G01X1217990Y785580D02*
X1221030D01*
G01X1226040Y781250D02*
X1225390Y781360D01*
X1224740Y781790D01*
X1224310Y782550D01*
X1224090Y783420D01*
X1224310Y784280D01*
X1224740Y785040D01*
X1225390Y785470D01*
X1226040Y785580D01*
X1226690Y785470D01*
X1227340Y785040D01*
X1227770Y784280D01*
X1227880Y783420D01*
X1227770Y782550D01*
X1227340Y781790D01*
X1226690Y781360D01*
X1226040Y781250D01*
G01X1239970Y784720D02*
X1240400Y785040D01*
X1240720Y785580D01*
X1240940Y786340D01*
X1240720Y786990D01*
X1240290Y787420D01*
X1239530Y787750D01*
X1236610D01*
Y781250D01*
X1240180D01*
X1240940Y781680D01*
X1241380Y782330D01*
X1241590Y783090D01*
X1241380Y783850D01*
X1240720Y784500D01*
X1239970Y784720D01*
X1236610D01*
G01X1245630Y781250D02*
X1244760Y781360D01*
X1244010Y781790D01*
X1243350Y782440D01*
X1242920Y783200D01*
X1242700Y784070D01*
Y784930D01*
X1242920Y785800D01*
X1243350Y786560D01*
X1244010Y787210D01*
X1244760Y787640D01*
X1245630Y787750D01*
X1246500Y787640D01*
X1247250Y787210D01*
X1247910Y786560D01*
X1248340Y785800D01*
X1248560Y784930D01*
Y784070D01*
X1248340Y783200D01*
X1247910Y782440D01*
X1247250Y781790D01*
X1246500Y781360D01*
X1245630Y781250D01*
G01X1252160Y787750D02*
Y781250D01*
G01X1249670Y787750D02*
X1254650D01*
G01X1258690D02*
Y781250D01*
G01X1256200Y787750D02*
X1261180D01*
G01X1265220Y781250D02*
X1264350Y781360D01*
X1263600Y781790D01*
X1262940Y782440D01*
X1262510Y783200D01*
X1262290Y784070D01*
Y784930D01*
X1262510Y785800D01*
X1262940Y786560D01*
X1263600Y787210D01*
X1264350Y787640D01*
X1265220Y787750D01*
X1266090Y787640D01*
X1266840Y787210D01*
X1267500Y786560D01*
X1267930Y785800D01*
X1268150Y784930D01*
Y784070D01*
X1267930Y783200D01*
X1267500Y782440D01*
X1266840Y781790D01*
X1266090Y781360D01*
X1265220Y781250D01*
G01X1268930D02*
Y787750D01*
X1271750Y782330D01*
X1274570Y787750D01*
Y781250D01*
G01X1154200Y604250D02*
Y610750D01*
X1152900Y609450D01*
G01Y604250D02*
X1155500D01*
G01X1160730Y604030D02*
X1160510Y604140D01*
Y604360D01*
X1160730Y604470D01*
X1160950Y604360D01*
Y604140D01*
X1160730Y604030D01*
G01X1164880Y605220D02*
X1165530Y604680D01*
X1166280Y604360D01*
X1167260Y604250D01*
X1168240Y604470D01*
X1168990Y604900D01*
X1169540Y605660D01*
X1169640Y606520D01*
X1169430Y607390D01*
X1168880Y607930D01*
X1168130Y608370D01*
X1167370Y608470D01*
X1166610Y608370D01*
X1165640Y607930D01*
X1165960Y610750D01*
X1168880D01*
G01X1154200Y670750D02*
X1153330Y670530D01*
X1152680Y669990D01*
X1152250Y669340D01*
X1151920Y668470D01*
X1151820Y667500D01*
X1151920Y666520D01*
X1152250Y665660D01*
X1152680Y665010D01*
X1153330Y664470D01*
X1154200Y664250D01*
X1155070Y664470D01*
X1155720Y665010D01*
X1156150Y665660D01*
X1156480Y666520D01*
X1156580Y667500D01*
X1156480Y668470D01*
X1156150Y669340D01*
X1155720Y669990D01*
X1155070Y670530D01*
X1154200Y670750D01*
G01X1160730Y664030D02*
X1160510Y664140D01*
Y664360D01*
X1160730Y664470D01*
X1160950Y664360D01*
Y664140D01*
X1160730Y664030D01*
G01X1165200Y669670D02*
X1165850Y670320D01*
X1166610Y670640D01*
X1167480Y670750D01*
X1168560Y670530D01*
X1169320Y669990D01*
X1169540Y669340D01*
X1169430Y668690D01*
X1168990Y668150D01*
X1166830Y667070D01*
X1165850Y666310D01*
X1165200Y665220D01*
X1164980Y664250D01*
X1169540D01*
G01X1154200Y640750D02*
X1153330Y640530D01*
X1152680Y639990D01*
X1152250Y639340D01*
X1151920Y638470D01*
X1151820Y637500D01*
X1151920Y636520D01*
X1152250Y635660D01*
X1152680Y635010D01*
X1153330Y634470D01*
X1154200Y634250D01*
X1155070Y634470D01*
X1155720Y635010D01*
X1156150Y635660D01*
X1156480Y636520D01*
X1156580Y637500D01*
X1156480Y638470D01*
X1156150Y639340D01*
X1155720Y639990D01*
X1155070Y640530D01*
X1154200Y640750D01*
G01X1160730Y634030D02*
X1160510Y634140D01*
Y634360D01*
X1160730Y634470D01*
X1160950Y634360D01*
Y634140D01*
X1160730Y634030D01*
G01X1165420Y635010D02*
X1166180Y634470D01*
X1167040Y634250D01*
X1167910Y634470D01*
X1168670Y635120D01*
X1169210Y636090D01*
X1169430Y637070D01*
Y638260D01*
X1169210Y639230D01*
X1168670Y640100D01*
X1168020Y640530D01*
X1167260Y640750D01*
X1166390Y640530D01*
X1165740Y640100D01*
X1165310Y639450D01*
X1165090Y638580D01*
X1165310Y637830D01*
X1165850Y637070D01*
X1166500Y636630D01*
X1167260Y636520D01*
X1168130Y636740D01*
X1168780Y637280D01*
X1169430Y638260D01*
G01X1154200Y700750D02*
X1153330Y700530D01*
X1152680Y699990D01*
X1152250Y699340D01*
X1151920Y698470D01*
X1151820Y697500D01*
X1151920Y696520D01*
X1152250Y695660D01*
X1152680Y695010D01*
X1153330Y694470D01*
X1154200Y694250D01*
X1155070Y694470D01*
X1155720Y695010D01*
X1156150Y695660D01*
X1156480Y696520D01*
X1156580Y697500D01*
X1156480Y698470D01*
X1156150Y699340D01*
X1155720Y699990D01*
X1155070Y700530D01*
X1154200Y700750D01*
G01X1160730Y694030D02*
X1160510Y694140D01*
Y694360D01*
X1160730Y694470D01*
X1160950Y694360D01*
Y694140D01*
X1160730Y694030D01*
G01X1165200Y699670D02*
X1165850Y700320D01*
X1166610Y700640D01*
X1167480Y700750D01*
X1168560Y700530D01*
X1169320Y699990D01*
X1169540Y699340D01*
X1169430Y698690D01*
X1168990Y698150D01*
X1166830Y697070D01*
X1165850Y696310D01*
X1165200Y695220D01*
X1164980Y694250D01*
X1169540D01*
G01X1148650Y710370D02*
X1149520Y709820D01*
X1150500Y709500D01*
X1151360D01*
X1152230Y709820D01*
X1152880Y710370D01*
X1153210Y711130D01*
X1152990Y711880D01*
X1152450Y712530D01*
X1151470Y712970D01*
X1150170Y713180D01*
X1149410Y713620D01*
X1149090Y714370D01*
X1149310Y715130D01*
X1149850Y715670D01*
X1150600Y716000D01*
X1151360D01*
X1152120Y715780D01*
X1152770Y715240D01*
G01X1156160Y716000D02*
X1158760D01*
G01X1157460D02*
Y709500D01*
G01X1156160D02*
X1158760D01*
G01X1161930Y716000D02*
X1166050D01*
X1161930Y709500D01*
X1166050D01*
G01X1172690D02*
X1168350D01*
Y716000D01*
X1172690D01*
G01X1170950Y712860D02*
X1168350D01*
G01X1210500Y604250D02*
Y610750D01*
X1215480Y604250D01*
Y610750D01*
G01X1219520Y604250D02*
X1218650Y604360D01*
X1217900Y604790D01*
X1217240Y605440D01*
X1216810Y606200D01*
X1216590Y607070D01*
Y607930D01*
X1216810Y608800D01*
X1217240Y609560D01*
X1217900Y610210D01*
X1218650Y610640D01*
X1219520Y610750D01*
X1220390Y610640D01*
X1221140Y610210D01*
X1221800Y609560D01*
X1222230Y608800D01*
X1222450Y607930D01*
Y607070D01*
X1222230Y606200D01*
X1221800Y605440D01*
X1221140Y604790D01*
X1220390Y604360D01*
X1219520Y604250D01*
G01X1223560D02*
Y610750D01*
X1228540Y604250D01*
Y610750D01*
G01X1231170Y606420D02*
X1233990D01*
G01X1236940Y604250D02*
Y610750D01*
X1239540D01*
X1240410Y610420D01*
X1241060Y609670D01*
X1241280Y608800D01*
X1241060Y607930D01*
X1240520Y607280D01*
X1239540Y606960D01*
X1236940D01*
G01X1243470Y610750D02*
Y604250D01*
X1247810D01*
G01X1249460D02*
X1252170Y610750D01*
X1254880Y604250D01*
G01X1253900Y606520D02*
X1250440D01*
G01X1258700Y610750D02*
Y604250D01*
G01X1256210Y610750D02*
X1261190D01*
G01X1267400Y604250D02*
X1263060D01*
Y610750D01*
X1267400D01*
G01X1265660Y607610D02*
X1263060D01*
G01X1269380Y604250D02*
Y610750D01*
X1271540D01*
X1272410Y610420D01*
X1273060Y609990D01*
X1273600Y609340D01*
X1274040Y608580D01*
X1274140Y607500D01*
X1274040Y606420D01*
X1273600Y605660D01*
X1273060Y605010D01*
X1272410Y604570D01*
X1271540Y604250D01*
X1269380D01*
G01X1223880Y664250D02*
Y670750D01*
X1226480D01*
X1227350Y670420D01*
X1228000Y669670D01*
X1228220Y668800D01*
X1228000Y667930D01*
X1227460Y667280D01*
X1226480Y666960D01*
X1223880D01*
G01X1230410Y670750D02*
Y664250D01*
X1234750D01*
G01X1236400D02*
X1239110Y670750D01*
X1241820Y664250D01*
G01X1240840Y666520D02*
X1237380D01*
G01X1245640Y670750D02*
Y664250D01*
G01X1243150Y670750D02*
X1248130D01*
G01X1254340Y664250D02*
X1250000D01*
Y670750D01*
X1254340D01*
G01X1252600Y667610D02*
X1250000D01*
G01X1256320Y664250D02*
Y670750D01*
X1258480D01*
X1259350Y670420D01*
X1260000Y669990D01*
X1260540Y669340D01*
X1260980Y668580D01*
X1261080Y667500D01*
X1260980Y666420D01*
X1260540Y665660D01*
X1260000Y665010D01*
X1259350Y664570D01*
X1258480Y664250D01*
X1256320D01*
G01X1223880Y634250D02*
Y640750D01*
X1226480D01*
X1227350Y640420D01*
X1228000Y639670D01*
X1228220Y638800D01*
X1228000Y637930D01*
X1227460Y637280D01*
X1226480Y636960D01*
X1223880D01*
G01X1230410Y640750D02*
Y634250D01*
X1234750D01*
G01X1236400D02*
X1239110Y640750D01*
X1241820Y634250D01*
G01X1240840Y636520D02*
X1237380D01*
G01X1245640Y640750D02*
Y634250D01*
G01X1243150Y640750D02*
X1248130D01*
G01X1254340Y634250D02*
X1250000D01*
Y640750D01*
X1254340D01*
G01X1252600Y637610D02*
X1250000D01*
G01X1256320Y634250D02*
Y640750D01*
X1258480D01*
X1259350Y640420D01*
X1260000Y639990D01*
X1260540Y639340D01*
X1260980Y638580D01*
X1261080Y637500D01*
X1260980Y636420D01*
X1260540Y635660D01*
X1260000Y635010D01*
X1259350Y634570D01*
X1258480Y634250D01*
X1256320D01*
G01X1223880Y694250D02*
Y700750D01*
X1226480D01*
X1227350Y700420D01*
X1228000Y699670D01*
X1228220Y698800D01*
X1228000Y697930D01*
X1227460Y697280D01*
X1226480Y696960D01*
X1223880D01*
G01X1230410Y700750D02*
Y694250D01*
X1234750D01*
G01X1236400D02*
X1239110Y700750D01*
X1241820Y694250D01*
G01X1240840Y696520D02*
X1237380D01*
G01X1245640Y700750D02*
Y694250D01*
G01X1243150Y700750D02*
X1248130D01*
G01X1254340Y694250D02*
X1250000D01*
Y700750D01*
X1254340D01*
G01X1252600Y697610D02*
X1250000D01*
G01X1256320Y694250D02*
Y700750D01*
X1258480D01*
X1259350Y700420D01*
X1260000Y699990D01*
X1260540Y699340D01*
X1260980Y698580D01*
X1261080Y697500D01*
X1260980Y696420D01*
X1260540Y695660D01*
X1260000Y695010D01*
X1259350Y694570D01*
X1258480Y694250D01*
X1256320D01*
G01X1223880Y709500D02*
Y716000D01*
X1226480D01*
X1227350Y715670D01*
X1228000Y714920D01*
X1228220Y714050D01*
X1228000Y713180D01*
X1227460Y712530D01*
X1226480Y712210D01*
X1223880D01*
G01X1230410Y716000D02*
Y709500D01*
X1234750D01*
G01X1236400D02*
X1239110Y716000D01*
X1241820Y709500D01*
G01X1240840Y711770D02*
X1237380D01*
G01X1245640Y716000D02*
Y709500D01*
G01X1243150Y716000D02*
X1248130D01*
G01X1254340Y709500D02*
X1250000D01*
Y716000D01*
X1254340D01*
G01X1252600Y712860D02*
X1250000D01*
G01X1256320Y709500D02*
Y716000D01*
X1258480D01*
X1259350Y715670D01*
X1260000Y715240D01*
X1260540Y714590D01*
X1260980Y713830D01*
X1261080Y712750D01*
X1260980Y711670D01*
X1260540Y710910D01*
X1260000Y710260D01*
X1259350Y709820D01*
X1258480Y709500D01*
X1256320D01*
G01X1289000Y665550D02*
X1289650Y664790D01*
X1290510Y664360D01*
X1291490Y664250D01*
X1292360Y664360D01*
X1293220Y664900D01*
X1293760Y665550D01*
X1293870Y666200D01*
X1293660Y666960D01*
X1292900Y667500D01*
X1292140Y667720D01*
X1291160D01*
G01X1292140D02*
X1292790Y668040D01*
X1293330Y668580D01*
X1293550Y669230D01*
X1293330Y669880D01*
X1292790Y670420D01*
X1291810Y670750D01*
X1290840Y670640D01*
X1289860Y670210D01*
G01X1299210Y664250D02*
Y670750D01*
X1295200Y666090D01*
X1300620D01*
G01X1285740Y695550D02*
X1286390Y694790D01*
X1287250Y694360D01*
X1288230Y694250D01*
X1289100Y694360D01*
X1289960Y694900D01*
X1290500Y695550D01*
X1290610Y696200D01*
X1290400Y696960D01*
X1289640Y697500D01*
X1288880Y697720D01*
X1287900D01*
G01X1288880D02*
X1289530Y698040D01*
X1290070Y698580D01*
X1290290Y699230D01*
X1290070Y699880D01*
X1289530Y700420D01*
X1288550Y700750D01*
X1287580Y700640D01*
X1286600Y700210D01*
G01X1292590Y696960D02*
X1293350Y697720D01*
X1294000Y698150D01*
X1294870Y698370D01*
X1295630Y698150D01*
X1296170Y697720D01*
X1296600Y697070D01*
X1296710Y696310D01*
X1296600Y695660D01*
X1296170Y695010D01*
X1295520Y694470D01*
X1294760Y694250D01*
X1293890Y694470D01*
X1293130Y695120D01*
X1292700Y696090D01*
X1292590Y697170D01*
X1292810Y698580D01*
X1293130Y699340D01*
X1293670Y700100D01*
X1294430Y700640D01*
X1295190Y700750D01*
X1295950Y700530D01*
X1296490Y699990D01*
G01X1300960Y694250D02*
X1301180Y695660D01*
X1301510Y696850D01*
X1301940Y697930D01*
X1302480Y699120D01*
X1303350Y700750D01*
X1299010D01*
G01X1288120Y709500D02*
X1287250Y709610D01*
X1286500Y710040D01*
X1285840Y710690D01*
X1285410Y711450D01*
X1285190Y712320D01*
Y713180D01*
X1285410Y714050D01*
X1285840Y714810D01*
X1286500Y715460D01*
X1287250Y715890D01*
X1288120Y716000D01*
X1288990Y715890D01*
X1289740Y715460D01*
X1290400Y714810D01*
X1290830Y714050D01*
X1291050Y713180D01*
Y712320D01*
X1290830Y711450D01*
X1290400Y710690D01*
X1289740Y710040D01*
X1288990Y709610D01*
X1288120Y709500D01*
G01X1288990Y711230D02*
X1290290Y709500D01*
G01X1294650Y716000D02*
Y709500D01*
G01X1292160Y716000D02*
X1297140D01*
G01X1301180Y709500D02*
Y712420D01*
X1299010Y716000D01*
G01X1303350D02*
X1301180Y712420D01*
G01X1295950Y604250D02*
Y610750D01*
X1291940Y606090D01*
X1297360D01*
G01X1294650Y634250D02*
Y640750D01*
X1293350Y639450D01*
G01Y634250D02*
X1295950D01*
M02*
