G04 ================== begin FILE IDENTIFICATION RECORD ==================*
G04 Layout Name:  CC26xx_7x7_Diff_CC2592_V1_1_0.brd*
G04 Film Name:    L3*
G04 File Format:  Gerber RS274X*
G04 File Origin:  Cadence Allegro 16.6-P004*
G04 Origin Date:  Wed Nov 18 15:25:57 2015*
G04 *
G04 Layer:  ETCH/L3*
G04 Layer:  PIN/L3*
G04 Layer:  VIA CLASS/L3*
G04 *
G04 Offset:    (0.000 0.000)*
G04 Mirror:    No*
G04 Mode:      Positive*
G04 Rotation:  0*
G04 FullContactRelief:  No*
G04 UndefLineWidth:     0.000*
G04 ================== end FILE IDENTIFICATION RECORD ====================*
%FSLAX44Y44*MOMM*%
%IR0*IPPOS*OFA0.00000B0.00000*MIA0B0*SFA1.00000B1.00000*%
%ADD12C,1.5*%
%ADD11C,.1*%
%ADD10C,.5*%
%ADD13C,.4*%
%ADD14C,.15*%
%ADD16C,1.804*%
%ADD15C,.758*%
G75*
%LPD*%
G75*
G36*
G01X1065000Y943010D02*
Y1397000D01*
G02X1066000Y1398000I1000J0D01*
G01X1460670D01*
G02X1461670Y1397000I0J-1000D01*
G01Y943010D01*
G02X1460670Y942010I-1000J0D01*
G01X1066000D01*
G02X1065000Y943010I0J1000D01*
G37*
%LPC*%
G75*
G36*
G01X1229860Y1085580D02*
X1252250Y1063190D01*
G02X1252540Y1062490I-710J-704D01*
G01Y1044950D01*
G02X1252250Y1044250I-1000J4D01*
G01X1241290Y1033290D01*
G02X1240590Y1033000I-704J710D01*
G01X1220410D01*
G02X1219710Y1033290I4J1000D01*
G01X1207290Y1045710D01*
G02X1207000Y1046410I710J704D01*
G01Y1073560D01*
G02X1207290Y1074260I1000J-4D01*
G01X1217250Y1084220D01*
G03X1217540Y1084920I-710J704D01*
G01Y1094130D01*
G02X1217830Y1094830I1000J-4D01*
G01X1217850Y1094850D01*
X1218210Y1095000D01*
X1218420D01*
X1219000Y1094420D01*
Y1084410D01*
G02X1218710Y1083710I-1000J4D01*
G01X1208750Y1073750D01*
G03X1208460Y1073050I710J-704D01*
G01Y1046950D01*
G03X1208750Y1046250I1000J4D01*
G01X1220240Y1034760D01*
G03X1220940Y1034470I704J710D01*
G01X1240060D01*
G03X1240760Y1034760I-4J1000D01*
G01X1250710Y1044710D01*
G03X1251000Y1045410I-710J704D01*
G01Y1062120D01*
G03X1250710Y1062820I-1000J-4D01*
G01X1228290Y1085240D01*
G02X1228000Y1085940I710J704D01*
G01Y1094000D01*
G02X1229000Y1095000I1000J0D01*
G01X1229280Y1094720D01*
G02X1229570Y1094020I-710J-704D01*
G01Y1086280D01*
G03X1229860Y1085580I1000J4D01*
G37*
G36*
G01X1368020Y1245540D02*
Y1126420D01*
X1368080Y1126250D01*
G02X1360920I-3580J-1250D01*
G01X1360980Y1126420D01*
Y1242630D01*
G03X1360690Y1243330I-1000J-4D01*
G01X1340830Y1263190D01*
G03X1340130Y1263480I-704J-710D01*
G01X1331960D01*
G02X1331250Y1263770I-6J1000D01*
G01X1289830Y1305190D01*
G03X1289130Y1305480I-704J-710D01*
G01X1202360D01*
G03X1201660Y1305190I4J-1000D01*
G01X1198810Y1302340D01*
G03X1198520Y1301640I710J-704D01*
G01Y1294420D01*
X1198580Y1294250D01*
G02X1191420I-3580J-1250D01*
G01X1191480Y1294420D01*
Y1304550D01*
G02X1191770Y1305260I1000J6D01*
G01X1198740Y1312230D01*
G02X1199450Y1312520I704J-710D01*
G01X1292040D01*
G02X1292750Y1312230I6J-1000D01*
G01X1334170Y1270810D01*
G03X1334870Y1270520I704J710D01*
G01X1343040D01*
G02X1343750Y1270230I6J-1000D01*
G01X1367730Y1246250D01*
G02X1368020Y1245540I-710J-704D01*
G37*
G36*
G01X1108360Y1108160D02*
G03X1105740Y1107670I-1036J-1711D01*
G02X1102260Y1113760I-2989J2331D01*
G03X1104000Y1115770I-259J1982D01*
G02X1108360Y1108160I9019J113D01*
G37*
G36*
G01X1387800Y1047550D02*
X1387200D01*
G03X1386640Y1047370I13J-1001D01*
G02X1381250Y1052460I-2145J3127D01*
G03X1381400Y1052970I-849J527D01*
G01Y1053530D01*
G03X1381250Y1054040I-999J-17D01*
G02Y1057960I3250J1960D01*
G03X1381400Y1058470I-849J527D01*
G01Y1059030D01*
G03X1381250Y1059540I-999J-17D01*
G02X1386640Y1064630I3245J1963D01*
G03X1387200Y1064450I573J821D01*
G01X1387800D01*
G03X1388360Y1064630I-13J1001D01*
G02X1393750Y1059540I2145J-3127D01*
G03X1393600Y1059030I849J-527D01*
G01Y1058470D01*
G03X1393750Y1057960I999J17D01*
G02Y1054040I-3250J-1960D01*
G03X1393600Y1053530I849J-527D01*
G01Y1052970D01*
G03X1393750Y1052460I999J17D01*
G02X1388360Y1047370I-3245J-1963D01*
G03X1387800Y1047550I-573J-821D01*
G37*
G36*
G01X1158590Y1114770D02*
G02X1153410I-2590J-2770D01*
G03X1153730Y1115500I-679J733D01*
G01Y1133040D01*
G02X1154020Y1133740I1000J-4D01*
G01X1160690Y1140410D01*
G03X1160980Y1141110I-710J704D01*
G01Y1141250D01*
X1159880Y1141780D01*
G03X1158930Y1141740I-438J-899D01*
G02X1158300Y1148560I-1931J3261D01*
G01X1158530Y1148480D01*
X1159010Y1148540D01*
X1160550Y1149620D01*
G03X1160980Y1150440I-570J821D01*
G01Y1166720D01*
X1161000Y1166740D01*
Y1169160D01*
G02X1161290Y1169860I1000J-4D01*
G01X1187460Y1196030D01*
G02X1188160Y1196320I704J-710D01*
G01X1274200D01*
G03X1274900Y1196610I-4J1000D01*
G01X1287460Y1209170D01*
G03X1287750Y1209870I-710J704D01*
G01X1287730Y1239710D01*
X1287570Y1240080D01*
X1287410Y1240230D01*
G02X1287630Y1245960I2589J2770D01*
G01X1287780Y1246080D01*
X1287970Y1246420D01*
X1288190Y1248190D01*
X1288090Y1248560D01*
X1287970Y1248720D01*
G02X1294030Y1253270I3028J2278D01*
G01X1294230D01*
X1294590Y1253120D01*
X1296980Y1250730D01*
G02X1297270Y1250030I-710J-704D01*
G01Y1237740D01*
G03X1297610Y1236990I1001J2D01*
G01X1298900Y1235850D01*
X1299300Y1235730D01*
X1299520Y1235760D01*
G02X1302590Y1229230I482J-3760D01*
G03X1302270Y1228500I679J-733D01*
G01Y1226950D01*
G02X1301980Y1226250I-1000J4D01*
G01X1301560Y1225830D01*
G03X1301270Y1225130I710J-704D01*
G01Y1208470D01*
G02X1300980Y1207770I-1000J4D01*
G01X1279230Y1186020D01*
G02X1278530Y1185730I-704J710D01*
G01X1195320D01*
G03X1194620Y1185440I4J-1000D01*
G01X1173560Y1164380D01*
G03X1173270Y1163680I710J-704D01*
G01Y1163290D01*
X1173430Y1162920D01*
X1173590Y1162770D01*
G02X1170690Y1156220I-2588J-2771D01*
G01X1170470Y1156240D01*
X1170090Y1156110D01*
X1168840Y1154970D01*
G03X1168520Y1154230I682J-734D01*
G01Y1121250D01*
G03X1168840Y1120520I999J3D01*
G02X1163660I-2590J-2770D01*
G03X1163980Y1121250I-679J733D01*
G01Y1134870D01*
G03X1163360Y1135800I-1001J4D01*
G01X1163080Y1135910D01*
X1162500Y1135790D01*
X1158560Y1131860D01*
G03X1158270Y1131160I710J-704D01*
G01Y1115500D01*
G03X1158590Y1114770I999J3D01*
G37*
G36*
G01X1449600Y1091140D02*
G02X1445610Y1087920I-242J-3782D01*
G03X1443760Y1090220I-1977J304D01*
G02X1447750Y1093440I242J3782D01*
G03X1449600Y1091140I1977J-304D01*
G37*
G36*
G01X1413590Y1070000D02*
X1396410D01*
G02X1395710Y1070290I4J1000D01*
G01X1393290Y1072710D01*
G02X1393000Y1073410I710J704D01*
G01Y1083050D01*
G03X1392490Y1083920I-1000J-2D01*
G01X1390730Y1084910D01*
X1390200Y1084900D01*
X1389960Y1084760D01*
G02X1391040Y1090270I-1959J3245D01*
G01X1391170Y1090090D01*
X1391540Y1089890D01*
X1393270Y1089760D01*
G03X1394050Y1090050I73J998D01*
G01X1395710Y1091710D01*
G02X1396410Y1092000I704J-710D01*
G01X1412590D01*
G02X1413290Y1091710I-4J-1000D01*
G01X1414710Y1090290D01*
G02X1415000Y1089590I-710J-704D01*
G01Y1085530D01*
G03X1415390Y1084740I1000J2D01*
G01X1416840Y1083630D01*
X1417290Y1083540D01*
X1417520Y1083600D01*
G02Y1076280I980J-3660D01*
G01X1417290Y1076340D01*
X1416840Y1076250D01*
X1415390Y1075140D01*
G03X1415000Y1074350I610J-792D01*
G01Y1071410D01*
G02X1414710Y1070710I-1000J4D01*
G01X1414290Y1070290D01*
G02X1413590Y1070000I-704J710D01*
G37*
G36*
G01X1195330Y1057630D02*
G02X1191210Y1056260I-1080J-3631D01*
G03X1190170Y1059370I-1608J1191D01*
G02X1194290Y1060740I1080J3631D01*
G03X1195330Y1057630I1608J-1191D01*
G37*
G36*
G01X1394420Y994410D02*
G02X1388780Y993500I-2424J-2912D01*
G03X1388360Y996090I-1702J1053D01*
G02X1394000Y997000I2424J2912D01*
G03X1394420Y994410I1702J-1053D01*
G37*
G54D16*
X1113020Y969830D03*
X1417820D03*
X1381000Y1027000D03*
X1417820Y1115880D03*
G54D15*
X1084250Y1074600D03*
X1081250Y1088000D03*
X1085980Y1023800D03*
Y1037000D03*
Y1062000D03*
X1085750Y1049000D03*
X1140060Y998000D03*
X1143000Y986000D03*
X1140060Y1011000D03*
Y1023800D03*
Y1036500D03*
X1142500Y1074600D03*
X1148000Y1087990D03*
X1276000Y1076000D03*
X1286000Y1070000D03*
X1276000Y1116500D03*
X1286000Y1116260D03*
X1359000Y991500D03*
Y1030000D03*
X1392000Y1016900D03*
X1417000Y1030000D03*
X1417740Y1004500D03*
X1419000Y1017000D03*
X1442000Y1030000D03*
X1442500Y1042500D03*
X1418000Y1042000D03*
X1444000Y1055000D03*
X1418000Y1055040D03*
%LPD*%
G75*
G54D10*
X1076000Y988000D03*
X1070660Y1038170D03*
X1077000Y1015000D03*
X1084250Y1074600D03*
X1070660Y1081170D03*
X1081250Y1088000D03*
X1070660Y1125170D03*
X1071000Y1157000D03*
X1070000Y1191000D03*
X1069500Y1219500D03*
X1069000Y1257000D03*
X1069500Y1300500D03*
X1070000Y1335000D03*
X1070500Y1366500D03*
X1071000Y1391000D03*
X1096000Y948000D03*
X1126000Y947000D03*
X1108000Y985000D03*
X1085980Y1023800D03*
Y1037000D03*
X1113000Y1029000D03*
X1086000Y1005000D03*
X1085980Y1062000D03*
X1085750Y1049000D03*
X1113000Y1055000D03*
Y1082000D03*
X1102750Y1110000D03*
X1093000Y1159000D03*
X1121000Y1131000D03*
X1111000Y1201000D03*
X1116000Y1178000D03*
X1095000Y1229000D03*
X1105000Y1257000D03*
X1088500Y1280500D03*
X1092000Y1374000D03*
X1120000Y1368000D03*
X1088000Y1393000D03*
X1106000D03*
X1125000Y1392000D03*
X1140060Y998000D03*
X1143000Y986000D03*
X1132000Y972000D03*
X1154000Y967500D03*
X1140060Y1011000D03*
Y1023800D03*
Y1036500D03*
X1152000Y1005000D03*
X1156000Y1025000D03*
X1142500Y1074600D03*
X1138000Y1068770D03*
X1167000Y1064000D03*
X1158000Y1047000D03*
X1156000Y1079000D03*
X1155910Y1068530D03*
X1156000Y1112000D03*
X1166250Y1117750D03*
X1148000Y1087990D03*
X1137830Y1094230D03*
X1130000Y1122000D03*
X1157000Y1145000D03*
X1144000Y1151000D03*
X1155000Y1159470D03*
X1141000Y1136000D03*
X1163370Y1200900D03*
X1155000Y1208520D03*
X1164000Y1244000D03*
X1134000Y1237000D03*
X1128000Y1283000D03*
X1140000Y1258000D03*
X1167000Y1274000D03*
X1156000Y1331000D03*
Y1315000D03*
X1163000Y1297500D03*
X1163500Y1354000D03*
X1157500Y1372000D03*
X1139000Y1380000D03*
X1161500Y1392500D03*
X1144000Y1392000D03*
X1201000Y953000D03*
X1171000Y948000D03*
X1204000Y998000D03*
X1200000Y978000D03*
X1169000Y984000D03*
X1171000Y1005000D03*
X1181000Y1020000D03*
X1169000Y1037000D03*
X1194250Y1054000D03*
X1191250Y1063000D03*
X1168000Y1079000D03*
X1189000Y1125000D03*
X1199000D03*
X1209000D03*
Y1115000D03*
X1199000D03*
X1189000D03*
Y1105000D03*
X1199000D03*
X1209000D03*
X1171000Y1160000D03*
X1209000Y1145000D03*
X1199000D03*
X1189000D03*
X1209000Y1135000D03*
X1199000D03*
X1189000D03*
X1203000Y1200000D03*
X1174000Y1189000D03*
X1191000Y1221000D03*
X1170000Y1210000D03*
X1202000Y1222000D03*
X1191000Y1233000D03*
X1169000Y1228000D03*
X1203000Y1268000D03*
X1181000Y1263000D03*
X1200060Y1277940D03*
X1189250Y1305230D03*
X1206000Y1303000D03*
X1202000Y1324000D03*
X1171000Y1316000D03*
Y1330290D03*
X1188620Y1330670D03*
X1189000Y1316000D03*
X1195000Y1293000D03*
X1199000Y1344000D03*
X1176000Y1392500D03*
X1195000Y1389000D03*
X1238000Y948000D03*
X1246000Y965000D03*
X1213000Y1033000D03*
X1248000Y1030000D03*
X1241000Y1054000D03*
X1247000Y1047000D03*
X1241000D03*
X1247000Y1054000D03*
X1219000Y1125000D03*
X1229000D03*
Y1115000D03*
X1219000D03*
Y1105000D03*
X1229000D03*
X1219000Y1145000D03*
X1229000D03*
Y1135000D03*
X1219000D03*
X1248000Y1199000D03*
X1218000Y1198800D03*
X1220000Y1182000D03*
X1247000Y1177000D03*
X1212000Y1221000D03*
X1217000Y1228000D03*
X1241500Y1244500D03*
Y1236500D03*
X1233750Y1244500D03*
X1226000Y1236500D03*
Y1244500D03*
X1234000Y1236500D03*
X1245500Y1289000D03*
X1219000Y1273000D03*
X1241500Y1252500D03*
X1234000D03*
X1226000D03*
X1245000Y1282000D03*
X1214000Y1264000D03*
X1228000Y1276000D03*
X1215000Y1326000D03*
X1219000Y1303000D03*
X1229000Y1320000D03*
X1211000Y1296000D03*
X1229000Y1328000D03*
X1246000Y1327000D03*
Y1295500D03*
Y1315500D03*
X1220000Y1316000D03*
X1246000Y1303000D03*
X1228000Y1297000D03*
X1217000Y1339000D03*
X1228000Y1337000D03*
X1227000Y1355000D03*
X1247000Y1365000D03*
Y1345000D03*
Y1354500D03*
X1212000Y1355000D03*
X1227000Y1365000D03*
X1212000Y1389000D03*
X1226000Y1388000D03*
X1248000Y1394000D03*
X1276000Y948000D03*
X1252000Y998000D03*
X1275000Y977000D03*
X1277000Y1033000D03*
X1276000Y1076000D03*
X1270000Y1064000D03*
X1256000Y1066000D03*
X1257000Y1053000D03*
X1270000Y1079000D03*
X1284500Y1049500D03*
X1286000Y1070000D03*
X1276000Y1116500D03*
X1279000Y1123000D03*
X1286000Y1116260D03*
X1288000Y1164480D03*
X1275000Y1144000D03*
X1270000Y1159000D03*
X1275000Y1130000D03*
X1270000Y1199000D03*
X1257500Y1179500D03*
X1278000Y1179000D03*
X1272000Y1170000D03*
X1290000Y1243000D03*
X1268000Y1220020D03*
X1285000Y1219000D03*
X1264000Y1229000D03*
X1252000Y1221000D03*
X1291000Y1251000D03*
X1252500Y1276000D03*
X1251000Y1266000D03*
X1265000Y1287000D03*
X1289500Y1271500D03*
X1281000Y1282000D03*
X1289000Y1259000D03*
X1278000Y1260500D03*
X1265000Y1256000D03*
X1254500Y1290500D03*
X1273000Y1328000D03*
X1291000Y1334000D03*
X1279000Y1294000D03*
X1266000Y1300000D03*
X1261000Y1320000D03*
X1287000Y1320500D03*
X1290500Y1347000D03*
X1266500Y1338500D03*
X1273000Y1352500D03*
X1260000Y1364000D03*
X1253000Y1336000D03*
X1280000Y1364000D03*
X1292000Y1383000D03*
X1267000Y1384000D03*
X1260000Y1393000D03*
X1277000D03*
X1302000Y947000D03*
X1309000Y998000D03*
X1314000Y972000D03*
X1329000Y1033000D03*
X1301500Y1033500D03*
X1293000Y1082000D03*
X1316000D03*
X1326000Y1066000D03*
X1304000Y1065000D03*
X1315000Y1049500D03*
X1328500Y1118000D03*
X1304000Y1119000D03*
X1316000Y1166000D03*
X1300000D03*
X1333000Y1145500D03*
Y1167000D03*
X1311000Y1143000D03*
X1322500Y1130000D03*
X1294000Y1128000D03*
X1323000Y1198000D03*
X1301000Y1202000D03*
X1330000Y1186000D03*
X1300000Y1232000D03*
X1333500Y1238000D03*
X1320500Y1220500D03*
X1328000Y1247500D03*
X1316500Y1242500D03*
X1332000Y1221000D03*
X1309000Y1220000D03*
X1323020Y1232000D03*
X1311500Y1263000D03*
X1333000Y1257000D03*
X1318500Y1270000D03*
X1298000Y1289500D03*
X1305500Y1276000D03*
X1332000Y1282000D03*
X1300000Y1261500D03*
X1318000Y1254500D03*
X1331000Y1324500D03*
X1324500Y1308000D03*
X1304500Y1317500D03*
X1319500Y1333500D03*
X1309500Y1303500D03*
X1325500Y1293000D03*
X1318000Y1320500D03*
X1323500Y1346500D03*
X1307500Y1353500D03*
X1334000Y1342000D03*
Y1364000D03*
X1304500Y1337500D03*
X1297000Y1364000D03*
X1316000D03*
X1329000Y1384000D03*
X1295000Y1393000D03*
X1312000D03*
X1331850Y1392800D03*
X1366000Y947000D03*
X1338000Y956000D03*
X1359000Y991500D03*
X1345500Y998000D03*
X1367000Y977000D03*
X1341000Y979000D03*
X1359000Y1030000D03*
X1370000Y1041000D03*
X1348000Y1033000D03*
X1342000Y1082000D03*
X1341000Y1053000D03*
X1375500Y1125500D03*
X1348500Y1117500D03*
X1364500Y1125000D03*
X1375500Y1163000D03*
X1347500Y1156000D03*
X1346000Y1130000D03*
X1352000Y1182000D03*
X1343000Y1197000D03*
X1356500Y1211000D03*
X1357000Y1237500D03*
X1363000Y1262000D03*
X1361000Y1295000D03*
X1370000Y1330000D03*
X1363000Y1361000D03*
X1367870Y1393140D03*
X1350370D03*
X1400000Y947000D03*
X1390780Y999000D03*
X1392000Y991500D03*
X1383500Y964500D03*
X1392000Y1016900D03*
X1417000Y1030000D03*
X1383000Y1013000D03*
X1390000Y1041000D03*
X1384500Y1050500D03*
X1390500D03*
X1384500Y1056000D03*
X1390500D03*
X1384500Y1061500D03*
X1390500D03*
X1383520Y1076000D03*
X1389000Y1070290D03*
X1404000Y1121000D03*
X1389500Y1118000D03*
X1388000Y1088000D03*
X1378500Y1144500D03*
X1412500Y1136500D03*
X1405000Y1152000D03*
X1397000Y1178000D03*
X1380370Y1201220D03*
X1415500Y1185000D03*
X1387000Y1234000D03*
X1410000Y1216000D03*
X1392000Y1269000D03*
X1410000Y1288000D03*
X1413000Y1253000D03*
X1412000Y1320000D03*
X1388000Y1302000D03*
X1394000Y1344000D03*
X1396000Y1366000D03*
X1377000Y1379000D03*
X1386000Y1393000D03*
X1403500D03*
X1427000Y947000D03*
X1418000Y993000D03*
X1455000Y981000D03*
X1437000Y972000D03*
X1417740Y1004500D03*
X1419000Y1017000D03*
X1442000Y1030000D03*
X1442500Y1042500D03*
X1418000Y1042000D03*
X1443000Y1017000D03*
X1458750Y1014000D03*
X1444000Y1055000D03*
X1418500Y1079940D03*
X1445000Y1078000D03*
Y1066000D03*
X1458750Y1050000D03*
X1418000Y1055040D03*
X1444000Y1094000D03*
X1449360Y1087360D03*
X1446500Y1108500D03*
X1457000Y1095000D03*
X1432000Y1109700D03*
X1430500Y1159500D03*
X1456000Y1153000D03*
X1457000Y1127000D03*
X1428000Y1128000D03*
X1456000Y1181000D03*
X1436500Y1206500D03*
X1456000Y1220000D03*
X1439000Y1244000D03*
X1435000Y1273000D03*
X1457000Y1261000D03*
Y1291000D03*
X1440500Y1293000D03*
X1435500Y1310500D03*
X1454000Y1327000D03*
X1424000Y1349000D03*
X1453000Y1357000D03*
X1442000Y1375000D03*
X1439000Y1393500D03*
X1420480Y1393160D03*
X1454000Y1392000D03*
G54D11*
X1113020Y969830D03*
Y1115880D03*
X1417820Y969830D03*
Y1115880D03*
G54D12*
X1381000Y1027000D03*
G54D13*
G01X1195000Y1293000D02*
Y1303510D01*
X1200490Y1309000D01*
X1291000D01*
X1333000Y1267000D01*
X1342000D01*
X1364500Y1244500D01*
Y1125000D01*
G54D14*
G01X1290000Y1243000D02*
X1290020Y1208520D01*
X1275550Y1194050D01*
X1188690D01*
X1163270Y1168630D01*
Y1165800D01*
X1163250Y1165780D01*
Y1139740D01*
X1163230D01*
X1156000Y1132510D01*
Y1112000D01*
G01X1166250Y1117750D02*
Y1164530D01*
X1166270Y1164550D01*
Y1166270D01*
X1191000Y1191000D01*
X1276750D01*
X1295000Y1209250D01*
Y1249500D01*
X1293500Y1251000D01*
X1291000D01*
G01X1300000Y1232000D02*
Y1227480D01*
X1299000Y1226480D01*
Y1209000D01*
X1278000Y1188000D01*
X1193970D01*
X1171000Y1165030D01*
Y1160000D01*
M02*
