G04 ================== begin FILE IDENTIFICATION RECORD ==================*
G04 Layout Name:  CC26xx_7x7_Diff_CC2592_V1_1_0.brd*
G04 Film Name:    paste_bottom*
G04 File Format:  Gerber RS274X*
G04 File Origin:  Cadence Allegro 16.6-P004*
G04 Origin Date:  Wed Nov 18 15:25:57 2015*
G04 *
G04 Layer:  PIN/FILMMASKBOTTOM*
G04 Layer:  BOARD GEOMETRY/OUTLINE*
G04 *
G04 Offset:    (0.000 0.000)*
G04 Mirror:    No*
G04 Mode:      Positive*
G04 Rotation:  0*
G04 FullContactRelief:  No*
G04 UndefLineWidth:     0.020*
G04 ================== end FILE IDENTIFICATION RECORD ====================*
%FSLAX44Y44*MOMM*%
%IR0*IPPOS*OFA0.00000B0.00000*MIA0B0*SFA1.00000B1.00000*%
%AMMACRO12*
4,1,40,.239,.5,
-.239,.5,
-.280218,.496131,
-.320138,.485164,
-.357547,.467431,
-.391309,.443471,
-.420397,.414013,
-.443928,.379951,
-.461186,.342321,
-.471648,.302265,
-.475,.262,
-.475,-.262,
-.471479,-.303249,
-.460849,-.343261,
-.443432,-.380818,
-.419759,-.414781,
-.390547,-.444116,
-.356685,-.467934,
-.319202,-.485509,
-.279236,-.496309,
-.239,-.5,
.239,-.5,
.280218,-.496131,
.320138,-.485164,
.357547,-.467431,
.391309,-.443471,
.420397,-.414013,
.443928,-.379951,
.461186,-.342321,
.471648,-.302265,
.475,-.262,
.475,.262,
.471479,.303249,
.460849,.343261,
.443432,.380818,
.419759,.414781,
.390547,.444116,
.356685,.467934,
.319202,.485509,
.279236,.496309,
.239,.5,
0.0*
%
%ADD12MACRO12*%
%ADD10O,2.05X.65*%
%AMMACRO11*
4,1,40,.5,-.239,
.5,.239,
.496131,.280218,
.485164,.320138,
.467431,.357547,
.443471,.391309,
.414013,.420397,
.379951,.443928,
.342321,.461186,
.302265,.471648,
.262,.475,
-.262,.475,
-.303249,.471479,
-.343261,.460849,
-.380818,.443432,
-.414781,.419759,
-.444116,.390547,
-.467934,.356685,
-.485509,.319202,
-.496309,.279236,
-.5,.239,
-.5,-.239,
-.496131,-.280218,
-.485164,-.320138,
-.467431,-.357547,
-.443471,-.391309,
-.414013,-.420397,
-.379951,-.443928,
-.342321,-.461186,
-.302265,-.471648,
-.262,-.475,
.262,-.475,
.303249,-.471479,
.343261,-.460849,
.380818,-.443432,
.414781,-.419759,
.444116,-.390547,
.467934,-.356685,
.485509,-.319202,
.496309,-.279236,
.5,-.239,
0.0*
%
%ADD11MACRO11*%
%ADD13C,.02*%
G75*
%LPD*%
G75*
G54D10*
X1126040Y985700D03*
Y998400D03*
X1100000Y985700D03*
Y998400D03*
X1126040Y1011100D03*
Y1023800D03*
Y1036500D03*
X1100000Y1011100D03*
Y1023800D03*
Y1036500D03*
X1126040Y1049200D03*
Y1061900D03*
Y1074600D03*
X1100000Y1049200D03*
Y1061900D03*
Y1074600D03*
X1126040Y1087300D03*
Y1100000D03*
X1100000Y1087300D03*
Y1100000D03*
X1404800Y985700D03*
Y998400D03*
Y1011100D03*
Y1023800D03*
Y1036500D03*
Y1049200D03*
Y1061900D03*
Y1074600D03*
Y1087300D03*
Y1100000D03*
X1430840Y985700D03*
Y998400D03*
Y1011100D03*
Y1023800D03*
Y1036500D03*
Y1049200D03*
Y1061900D03*
Y1074600D03*
Y1087300D03*
Y1100000D03*
G54D11*
X1360500Y1084500D03*
Y1100500D03*
G54D12*
X1376500Y1113000D03*
X1360500D03*
G54D13*
G01X1063500Y1479000D02*
Y938000D01*
X1464500D01*
Y1479000D01*
X1063500D01*
M02*
