G04 ================== begin FILE IDENTIFICATION RECORD ==================*
G04 Layout Name:  CC26xx_7x7_Diff_CC2592_V1_1_0.brd*
G04 Film Name:    silk_top*
G04 File Format:  Gerber RS274X*
G04 File Origin:  Cadence Allegro 16.6-P004*
G04 Origin Date:  Wed Nov 18 15:25:57 2015*
G04 *
G04 Layer:  COMPONENT VALUE/SILKSCREEN_TOP*
G04 Layer:  REF DES/SILKSCREEN_TOP*
G04 Layer:  PACKAGE GEOMETRY/SILKSCREEN_TOP*
G04 Layer:  MANUFACTURING/AUTOSILK_TOP*
G04 Layer:  BOARD GEOMETRY/OUTLINE*
G04 *
G04 Offset:    (0.000 0.000)*
G04 Mirror:    No*
G04 Mode:      Positive*
G04 Rotation:  0*
G04 FullContactRelief:  No*
G04 UndefLineWidth:     0.020*
G04 ================== end FILE IDENTIFICATION RECORD ====================*
%FSLAX44Y44*MOMM*%
%IR0*IPPOS*OFA0.00000B0.00000*MIA0B0*SFA1.00000B1.00000*%
%ADD10C,.03*%
%ADD11C,.05*%
%ADD12C,.1*%
%ADD13C,.02*%
%ADD14C,.15*%
%ADD15C,.003*%
G75*
%LPD*%
G75*
G36*
G01X1198720Y979250D02*
X1196440D01*
Y986000D01*
X1187000D01*
Y971890D01*
X1176980D01*
X1177060Y971530D01*
X1177150Y971180D01*
X1177240Y970830D01*
X1177340Y970490D01*
X1177460Y970150D01*
X1177580Y969830D01*
X1177730Y969520D01*
X1177900Y969230D01*
X1178090Y968950D01*
X1178200Y968820D01*
X1178550Y968460D01*
X1178810Y968230D01*
X1179090Y968010D01*
X1179360Y967800D01*
X1179640Y967580D01*
X1179950Y967330D01*
X1180170Y967130D01*
X1180420Y966880D01*
X1180660Y966630D01*
X1180880Y966360D01*
X1181100Y966100D01*
X1181320Y965820D01*
X1181530Y965550D01*
X1181640Y965190D01*
X1181740Y964840D01*
X1181840Y964480D01*
X1181950Y964120D01*
X1182060Y963770D01*
X1182170Y963420D01*
X1182300Y963070D01*
X1182420Y962720D01*
X1182560Y962380D01*
X1182710Y962040D01*
X1182920Y961590D01*
X1183040Y961370D01*
X1183220Y961040D01*
X1183430Y960740D01*
X1183680Y960450D01*
X1183970Y960200D01*
X1184290Y960000D01*
X1184660Y959850D01*
X1185040Y959760D01*
X1185410Y959750D01*
X1185690Y959810D01*
X1186080Y959990D01*
X1186370Y960220D01*
X1186640Y960500D01*
X1186880Y960800D01*
X1187130Y961110D01*
X1187360Y961410D01*
X1187610Y961700D01*
X1187860Y961960D01*
X1188140Y962190D01*
X1188470Y962380D01*
X1188800Y962510D01*
X1189260Y962580D01*
X1189540Y962550D01*
X1189900Y962450D01*
X1190240Y962280D01*
X1190640Y961980D01*
X1190840Y961810D01*
X1191090Y961530D01*
X1191320Y961240D01*
X1191520Y960930D01*
X1191710Y960610D01*
X1191830Y960400D01*
X1192070Y959960D01*
X1192240Y959630D01*
X1192410Y959300D01*
X1192580Y958970D01*
X1192740Y958640D01*
X1192890Y958300D01*
X1193020Y958020D01*
X1193200Y957630D01*
X1193350Y957290D01*
X1193510Y956950D01*
X1193660Y956610D01*
X1193810Y956280D01*
X1193970Y955940D01*
X1194210Y955450D01*
X1194300Y955280D01*
X1194460Y954950D01*
X1194640Y954620D01*
X1194820Y954300D01*
X1195020Y953990D01*
X1195220Y953670D01*
X1195420Y953370D01*
X1195650Y953060D01*
X1195790Y952870D01*
X1196120Y952480D01*
X1196380Y952200D01*
X1196640Y951930D01*
X1196920Y951670D01*
X1197200Y951420D01*
X1197490Y951190D01*
X1197780Y950970D01*
X1198170Y950700D01*
X1198360Y950580D01*
X1198660Y950410D01*
X1198960Y950250D01*
X1199280Y950120D01*
X1199600Y950010D01*
X1199940Y949910D01*
X1200300Y949830D01*
X1200670Y949770D01*
X1201070Y949730D01*
X1201500Y949710D01*
X1202130Y949700D01*
X1202440Y949720D01*
X1202940Y949750D01*
X1203420Y949820D01*
X1203850Y949920D01*
X1204190Y950050D01*
X1204420Y950230D01*
X1204510Y950500D01*
X1204430Y950740D01*
X1204220Y951060D01*
X1203950Y951400D01*
X1203810Y952350D01*
X1203690Y953290D01*
X1203630Y954200D01*
X1203650Y955070D01*
X1203750Y955760D01*
X1204040Y956660D01*
X1204430Y957370D01*
X1204920Y958020D01*
X1205510Y958640D01*
X1206190Y959210D01*
X1206940Y959740D01*
X1207760Y960250D01*
X1208640Y960720D01*
X1209560Y961180D01*
X1210510Y961630D01*
X1211480Y962060D01*
X1212460Y962490D01*
X1214210D01*
Y970500D01*
X1212430Y972280D01*
Y979250D01*
X1204310D01*
X1203320Y973970D01*
X1205700D01*
X1205100Y970610D01*
X1202920D01*
X1201590Y963560D01*
X1203310Y963570D01*
Y960740D01*
G02X1202590Y959820I-803J-113D01*
G01X1197040D01*
G02X1195400Y961100I-109J1551D01*
G01Y961900D01*
X1196960Y970610D01*
X1194640D01*
X1195360Y973970D01*
X1197840D01*
X1198720Y979250D01*
G37*
G36*
G01D02*
X1196440D01*
Y986000D01*
X1187000D01*
Y971890D01*
X1176980D01*
X1177060Y971530D01*
X1177150Y971180D01*
X1177240Y970830D01*
X1177340Y970490D01*
X1177460Y970150D01*
X1177580Y969830D01*
X1177730Y969520D01*
X1177900Y969230D01*
X1178090Y968950D01*
X1178200Y968820D01*
X1178550Y968460D01*
X1178810Y968230D01*
X1179090Y968010D01*
X1179360Y967800D01*
X1179640Y967580D01*
X1179950Y967330D01*
X1180170Y967130D01*
X1180420Y966880D01*
X1180660Y966630D01*
X1180880Y966360D01*
X1181100Y966100D01*
X1181320Y965820D01*
X1181530Y965550D01*
X1181640Y965190D01*
X1181740Y964840D01*
X1181840Y964480D01*
X1181950Y964120D01*
X1182060Y963770D01*
X1182170Y963420D01*
X1182300Y963070D01*
X1182420Y962720D01*
X1182560Y962380D01*
X1182710Y962040D01*
X1182920Y961590D01*
X1183040Y961370D01*
X1183220Y961040D01*
X1183430Y960740D01*
X1183680Y960450D01*
X1183970Y960200D01*
X1184290Y960000D01*
X1184660Y959850D01*
X1185040Y959760D01*
X1185410Y959750D01*
X1185690Y959810D01*
X1186080Y959990D01*
X1186370Y960220D01*
X1186640Y960500D01*
X1186880Y960800D01*
X1187130Y961110D01*
X1187360Y961410D01*
X1187610Y961700D01*
X1187860Y961960D01*
X1188140Y962190D01*
X1188470Y962380D01*
X1188800Y962510D01*
X1189260Y962580D01*
X1189540Y962550D01*
X1189900Y962450D01*
X1190240Y962280D01*
X1190640Y961980D01*
X1190840Y961810D01*
X1191090Y961530D01*
X1191320Y961240D01*
X1191520Y960930D01*
X1191710Y960610D01*
X1191830Y960400D01*
X1192070Y959960D01*
X1192240Y959630D01*
X1192410Y959300D01*
X1192580Y958970D01*
X1192740Y958640D01*
X1192890Y958300D01*
X1193020Y958020D01*
X1193200Y957630D01*
X1193350Y957290D01*
X1193510Y956950D01*
X1193660Y956610D01*
X1193810Y956280D01*
X1193970Y955940D01*
X1194210Y955450D01*
X1194300Y955280D01*
X1194460Y954950D01*
X1194640Y954620D01*
X1194820Y954300D01*
X1195020Y953990D01*
X1195220Y953670D01*
X1195420Y953370D01*
X1195650Y953060D01*
X1195790Y952870D01*
X1196120Y952480D01*
X1196380Y952200D01*
X1196640Y951930D01*
X1196920Y951670D01*
X1197200Y951420D01*
X1197490Y951190D01*
X1197780Y950970D01*
X1198170Y950700D01*
X1198360Y950580D01*
X1198660Y950410D01*
X1198960Y950250D01*
X1199280Y950120D01*
X1199600Y950010D01*
X1199940Y949910D01*
X1200300Y949830D01*
X1200670Y949770D01*
X1201070Y949730D01*
X1201500Y949710D01*
X1202130Y949700D01*
X1202440Y949720D01*
X1202940Y949750D01*
X1203420Y949820D01*
X1203850Y949920D01*
X1204190Y950050D01*
X1204420Y950230D01*
X1204510Y950500D01*
X1204430Y950740D01*
X1204220Y951060D01*
X1203950Y951400D01*
X1203810Y952350D01*
X1203690Y953290D01*
X1203630Y954200D01*
X1203650Y955070D01*
X1203750Y955760D01*
X1204040Y956660D01*
X1204430Y957370D01*
X1204920Y958020D01*
X1205510Y958640D01*
X1206190Y959210D01*
X1206940Y959740D01*
X1207760Y960250D01*
X1208640Y960720D01*
X1209560Y961180D01*
X1210510Y961630D01*
X1211480Y962060D01*
X1212460Y962490D01*
X1214210D01*
Y970500D01*
X1212430Y972280D01*
Y979250D01*
X1204310D01*
X1203320Y973970D01*
X1205700D01*
X1205100Y970610D01*
X1202920D01*
X1201590Y963560D01*
X1203310Y963570D01*
Y960740D01*
G02X1202590Y959820I-803J-113D01*
G01X1197040D01*
G02X1195400Y961100I-109J1551D01*
G01Y961900D01*
X1196960Y970610D01*
X1194640D01*
X1195360Y973970D01*
X1197840D01*
X1198720Y979250D01*
G37*
G36*
G01X1199560Y979810D02*
X1200470Y983790D01*
X1204630D01*
X1203720Y979810D01*
X1199560D01*
G37*
G36*
G01Y979250D02*
X1196390Y963570D01*
X1200550D01*
X1203720Y979250D01*
X1199560D01*
G37*
G36*
G01Y979810D02*
X1200470Y983790D01*
X1204630D01*
X1203720Y979810D01*
X1199560D01*
G37*
G36*
G01Y979250D02*
X1196390Y963570D01*
X1200550D01*
X1203720Y979250D01*
X1199560D01*
G37*
G36*
G01X1227380Y947710D02*
G03X1228170Y946920I793J3D01*
G01X1228600D01*
Y946020D01*
X1223380Y946000D01*
Y946920D01*
X1223800D01*
G03X1224600Y947710I6J794D01*
G01Y959990D01*
G03X1223800Y960780I-793J-2D01*
G01X1223380D01*
Y961460D01*
X1228520D01*
Y960780D01*
X1228170D01*
G03X1227380Y959990I1J-791D01*
G01Y947710D01*
G37*
G36*
G01X1229290Y946920D02*
X1230040D01*
G03X1230440Y947320I2J398D01*
G01Y956620D01*
G03X1230040Y957010I-397J-7D01*
G01X1229230D01*
Y957890D01*
X1232880D01*
G02X1233180Y957750I-2J-395D01*
G01X1238860Y951180D01*
Y956540D01*
G03X1238460Y956930I-396J-6D01*
G01X1237490D01*
Y957890D01*
X1241480D01*
Y956930D01*
X1240640D01*
G03X1240250Y956540I4J-394D01*
G01Y946020D01*
X1239630D01*
G02X1239330Y946150I-7J395D01*
G01X1232470Y954100D01*
Y947320D01*
G03X1232860Y946920I396J-4D01*
G01X1233460D01*
Y946020D01*
X1229290D01*
Y946920D01*
G37*
G36*
G01X1242720Y946130D02*
X1241720Y949800D01*
X1242180Y949910D01*
X1242370Y949650D01*
X1242570Y949390D01*
X1242770Y949130D01*
X1242970Y948890D01*
X1243180Y948660D01*
X1243400Y948450D01*
X1243640Y948250D01*
X1243880Y948080D01*
X1244160Y947940D01*
X1244420Y947820D01*
X1244720Y947730D01*
X1245020Y947660D01*
X1245390Y947580D01*
X1245640Y947530D01*
X1245960Y947470D01*
X1246280Y947420D01*
X1246590Y947390D01*
X1246910Y947380D01*
X1247220Y947390D01*
X1247520Y947440D01*
X1247820Y947510D01*
X1248140Y947640D01*
X1248390Y947790D01*
X1248650Y947990D01*
X1248860Y948230D01*
X1249050Y948620D01*
X1249080Y948800D01*
X1249070Y949110D01*
X1248990Y949430D01*
X1248850Y949730D01*
X1248590Y950070D01*
X1248440Y950210D01*
X1248180Y950380D01*
X1247890Y950520D01*
X1247600Y950620D01*
X1247170Y950720D01*
X1246980Y950760D01*
X1246670Y950810D01*
X1246370Y950860D01*
X1246070Y950900D01*
X1245760Y950950D01*
X1245460Y950990D01*
X1245160Y951040D01*
X1244850Y951090D01*
X1244550Y951160D01*
X1244350Y951200D01*
X1243930Y951320D01*
X1243630Y951430D01*
X1243340Y951560D01*
X1243070Y951710D01*
X1242820Y951880D01*
X1242600Y952080D01*
X1242410Y952320D01*
X1242250Y952580D01*
X1242130Y952860D01*
X1242030Y953160D01*
X1241960Y953480D01*
X1241920Y953800D01*
X1241890Y954280D01*
Y954460D01*
X1241910Y954790D01*
X1241950Y955110D01*
X1242010Y955420D01*
X1242100Y955720D01*
X1242210Y956010D01*
X1242350Y956280D01*
X1242540Y956540D01*
X1242720Y956760D01*
X1242950Y956960D01*
X1243200Y957150D01*
X1243470Y957320D01*
X1243750Y957460D01*
X1244040Y957590D01*
X1244480Y957740D01*
X1244640Y957790D01*
X1244950Y957860D01*
X1245250Y957920D01*
X1245550Y957960D01*
X1245860Y957990D01*
X1246160Y958000D01*
X1246480D01*
X1246800Y957980D01*
X1247110Y957940D01*
X1247410Y957880D01*
X1247710Y957790D01*
X1247940Y957710D01*
X1248280Y957560D01*
X1248550Y957410D01*
X1248820Y957260D01*
Y958010D01*
X1249690D01*
X1250460Y954660D01*
X1250180Y954380D01*
X1249940Y954560D01*
X1249700Y954750D01*
X1249460Y954920D01*
X1249220Y955100D01*
X1248960Y955260D01*
X1248690Y955410D01*
X1248440Y955540D01*
X1248160Y955660D01*
X1247870Y955760D01*
X1247580Y955840D01*
X1247290Y955910D01*
X1246990Y955970D01*
X1246810Y955990D01*
X1246400Y956030D01*
X1246100Y956040D01*
X1245800Y956020D01*
X1245550Y955990D01*
X1245190Y955920D01*
X1244900Y955820D01*
X1244640Y955670D01*
X1244510Y955540D01*
X1244300Y955160D01*
X1244230Y954850D01*
X1244240Y954530D01*
X1244320Y954280D01*
X1244500Y954010D01*
X1244740Y953830D01*
X1245020Y953690D01*
X1245330Y953580D01*
X1245610Y953500D01*
X1245950Y953430D01*
X1246250Y953380D01*
X1246550Y953340D01*
X1246840Y953300D01*
X1247130Y953260D01*
X1247430Y953210D01*
X1247710Y953160D01*
X1248000Y953090D01*
X1248290Y953020D01*
X1248580Y952940D01*
X1248850Y952860D01*
X1249160Y952750D01*
X1249450Y952640D01*
X1249720Y952520D01*
X1249990Y952380D01*
X1250240Y952210D01*
X1250440Y952050D01*
X1250670Y951800D01*
X1250840Y951560D01*
X1251000Y951300D01*
X1251120Y951020D01*
X1251230Y950730D01*
X1251310Y950430D01*
X1251370Y950140D01*
X1251400Y949830D01*
X1251420Y949530D01*
X1251410Y949230D01*
X1251370Y948930D01*
X1251310Y948620D01*
X1251240Y948340D01*
X1251140Y948060D01*
X1251020Y947780D01*
X1250880Y947510D01*
X1250710Y947250D01*
X1250530Y947010D01*
X1250310Y946770D01*
X1250100Y946580D01*
X1249860Y946400D01*
X1249600Y946240D01*
X1249330Y946090D01*
X1249050Y945970D01*
X1248760Y945870D01*
X1248460Y945780D01*
X1248160Y945720D01*
X1247850Y945670D01*
X1247540Y945640D01*
X1247200D01*
X1246940Y945650D01*
X1246640Y945680D01*
X1246340Y945720D01*
X1246050Y945780D01*
X1245760Y945850D01*
X1245470Y945930D01*
X1245180Y946030D01*
X1244900Y946130D01*
X1244610Y946230D01*
X1244330Y946340D01*
X1244050Y946460D01*
X1243770Y946580D01*
Y946130D01*
X1242720D01*
G37*
G36*
G01X1227380Y947710D02*
G03X1228170Y946920I793J3D01*
G01X1228600D01*
Y946020D01*
X1223380Y946000D01*
Y946920D01*
X1223800D01*
G03X1224600Y947710I6J794D01*
G01Y959990D01*
G03X1223800Y960780I-793J-2D01*
G01X1223380D01*
Y961460D01*
X1228520D01*
Y960780D01*
X1228170D01*
G03X1227380Y959990I1J-791D01*
G01Y947710D01*
G37*
G36*
G01X1229290Y946920D02*
X1230040D01*
G03X1230440Y947320I2J398D01*
G01Y956620D01*
G03X1230040Y957010I-397J-7D01*
G01X1229230D01*
Y957890D01*
X1232880D01*
G02X1233180Y957750I-2J-395D01*
G01X1238860Y951180D01*
Y956540D01*
G03X1238460Y956930I-396J-6D01*
G01X1237490D01*
Y957890D01*
X1241480D01*
Y956930D01*
X1240640D01*
G03X1240250Y956540I4J-394D01*
G01Y946020D01*
X1239630D01*
G02X1239330Y946150I-7J395D01*
G01X1232470Y954100D01*
Y947320D01*
G03X1232860Y946920I396J-4D01*
G01X1233460D01*
Y946020D01*
X1229290D01*
Y946920D01*
G37*
G36*
G01X1242720Y946130D02*
X1241720Y949800D01*
X1242180Y949910D01*
X1242370Y949650D01*
X1242570Y949390D01*
X1242770Y949130D01*
X1242970Y948890D01*
X1243180Y948660D01*
X1243400Y948450D01*
X1243640Y948250D01*
X1243880Y948080D01*
X1244160Y947940D01*
X1244420Y947820D01*
X1244720Y947730D01*
X1245020Y947660D01*
X1245390Y947580D01*
X1245640Y947530D01*
X1245960Y947470D01*
X1246280Y947420D01*
X1246590Y947390D01*
X1246910Y947380D01*
X1247220Y947390D01*
X1247520Y947440D01*
X1247820Y947510D01*
X1248140Y947640D01*
X1248390Y947790D01*
X1248650Y947990D01*
X1248860Y948230D01*
X1249050Y948620D01*
X1249080Y948800D01*
X1249070Y949110D01*
X1248990Y949430D01*
X1248850Y949730D01*
X1248590Y950070D01*
X1248440Y950210D01*
X1248180Y950380D01*
X1247890Y950520D01*
X1247600Y950620D01*
X1247170Y950720D01*
X1246980Y950760D01*
X1246670Y950810D01*
X1246370Y950860D01*
X1246070Y950900D01*
X1245760Y950950D01*
X1245460Y950990D01*
X1245160Y951040D01*
X1244850Y951090D01*
X1244550Y951160D01*
X1244350Y951200D01*
X1243930Y951320D01*
X1243630Y951430D01*
X1243340Y951560D01*
X1243070Y951710D01*
X1242820Y951880D01*
X1242600Y952080D01*
X1242410Y952320D01*
X1242250Y952580D01*
X1242130Y952860D01*
X1242030Y953160D01*
X1241960Y953480D01*
X1241920Y953800D01*
X1241890Y954280D01*
Y954460D01*
X1241910Y954790D01*
X1241950Y955110D01*
X1242010Y955420D01*
X1242100Y955720D01*
X1242210Y956010D01*
X1242350Y956280D01*
X1242540Y956540D01*
X1242720Y956760D01*
X1242950Y956960D01*
X1243200Y957150D01*
X1243470Y957320D01*
X1243750Y957460D01*
X1244040Y957590D01*
X1244480Y957740D01*
X1244640Y957790D01*
X1244950Y957860D01*
X1245250Y957920D01*
X1245550Y957960D01*
X1245860Y957990D01*
X1246160Y958000D01*
X1246480D01*
X1246800Y957980D01*
X1247110Y957940D01*
X1247410Y957880D01*
X1247710Y957790D01*
X1247940Y957710D01*
X1248280Y957560D01*
X1248550Y957410D01*
X1248820Y957260D01*
Y958010D01*
X1249690D01*
X1250460Y954660D01*
X1250180Y954380D01*
X1249940Y954560D01*
X1249700Y954750D01*
X1249460Y954920D01*
X1249220Y955100D01*
X1248960Y955260D01*
X1248690Y955410D01*
X1248440Y955540D01*
X1248160Y955660D01*
X1247870Y955760D01*
X1247580Y955840D01*
X1247290Y955910D01*
X1246990Y955970D01*
X1246810Y955990D01*
X1246400Y956030D01*
X1246100Y956040D01*
X1245800Y956020D01*
X1245550Y955990D01*
X1245190Y955920D01*
X1244900Y955820D01*
X1244640Y955670D01*
X1244510Y955540D01*
X1244300Y955160D01*
X1244230Y954850D01*
X1244240Y954530D01*
X1244320Y954280D01*
X1244500Y954010D01*
X1244740Y953830D01*
X1245020Y953690D01*
X1245330Y953580D01*
X1245610Y953500D01*
X1245950Y953430D01*
X1246250Y953380D01*
X1246550Y953340D01*
X1246840Y953300D01*
X1247130Y953260D01*
X1247430Y953210D01*
X1247710Y953160D01*
X1248000Y953090D01*
X1248290Y953020D01*
X1248580Y952940D01*
X1248850Y952860D01*
X1249160Y952750D01*
X1249450Y952640D01*
X1249720Y952520D01*
X1249990Y952380D01*
X1250240Y952210D01*
X1250440Y952050D01*
X1250670Y951800D01*
X1250840Y951560D01*
X1251000Y951300D01*
X1251120Y951020D01*
X1251230Y950730D01*
X1251310Y950430D01*
X1251370Y950140D01*
X1251400Y949830D01*
X1251420Y949530D01*
X1251410Y949230D01*
X1251370Y948930D01*
X1251310Y948620D01*
X1251240Y948340D01*
X1251140Y948060D01*
X1251020Y947780D01*
X1250880Y947510D01*
X1250710Y947250D01*
X1250530Y947010D01*
X1250310Y946770D01*
X1250100Y946580D01*
X1249860Y946400D01*
X1249600Y946240D01*
X1249330Y946090D01*
X1249050Y945970D01*
X1248760Y945870D01*
X1248460Y945780D01*
X1248160Y945720D01*
X1247850Y945670D01*
X1247540Y945640D01*
X1247200D01*
X1246940Y945650D01*
X1246640Y945680D01*
X1246340Y945720D01*
X1246050Y945780D01*
X1245760Y945850D01*
X1245470Y945930D01*
X1245180Y946030D01*
X1244900Y946130D01*
X1244610Y946230D01*
X1244330Y946340D01*
X1244050Y946460D01*
X1243770Y946580D01*
Y946130D01*
X1242720D01*
G37*
G36*
G01X1228520Y964560D02*
Y963620D01*
X1223380D01*
Y964560D01*
X1223950D01*
G03X1224440Y965050I-3J493D01*
G01Y976490D01*
G03X1223950Y976990I-493J7D01*
G01X1221030D01*
G03X1220680Y976840I5J-494D01*
G01X1219370Y975540D01*
X1219850Y978600D01*
X1232040D01*
X1232530Y975540D01*
X1231210Y976840D01*
G03X1230870Y976990I-354J-343D01*
G01X1227950D01*
G03X1227450Y976490I-5J-495D01*
G01Y965050D01*
G03X1227950Y964560I494J4D01*
G01X1228520D01*
G37*
G36*
G01X1241960Y974070D02*
X1245040Y969720D01*
G02Y969260I-324J-230D01*
G01X1241990Y964860D01*
G02X1241660Y964690I-326J227D01*
G01X1240890D01*
Y963620D01*
X1244510D01*
Y964690D01*
X1243830D01*
X1246130Y968180D01*
X1248590Y964690D01*
X1247860D01*
Y963620D01*
X1251970D01*
Y964690D01*
X1251850D01*
G02X1251530Y964860I5J395D01*
G01X1248440Y969270D01*
G02Y969710I329J220D01*
G01X1251210Y974050D01*
G02X1251540Y974240I339J-207D01*
G01X1252440D01*
Y975530D01*
X1248170D01*
Y974600D01*
Y974240D01*
X1249320D01*
X1247260Y971100D01*
X1245190Y974240D01*
X1246450D01*
Y975530D01*
X1240860D01*
Y974240D01*
X1241640D01*
G02X1241960Y974070I-6J-397D01*
G37*
G36*
G01X1238450Y971140D02*
X1238730D01*
Y968180D01*
X1238450D01*
X1238050Y968690D01*
G03X1237740Y968840I-310J-245D01*
G01X1233690D01*
Y965010D01*
X1238790D01*
G03X1239080Y965130I5J398D01*
G01X1240310Y966420D01*
X1240650D01*
X1239780Y963890D01*
G02X1239400Y963620I-377J128D01*
G01X1230340D01*
Y964050D01*
X1231450Y964630D01*
G03X1231670Y964980I-178J356D01*
G01Y973820D01*
G03X1231470Y974160I-396J-4D01*
G01X1230340Y974830D01*
Y975510D01*
X1238930D01*
G02X1239290Y975260I-7J-394D01*
G01X1240370Y972670D01*
X1239780Y972420D01*
X1238730Y973570D01*
G03X1238440Y973700I-294J-267D01*
G01X1233690D01*
Y970650D01*
X1237770D01*
G03X1238040Y970760I-3J394D01*
G01X1238450Y971140D01*
G37*
G36*
G01X1228520Y964560D02*
Y963620D01*
X1223380D01*
Y964560D01*
X1223950D01*
G03X1224440Y965050I-3J493D01*
G01Y976490D01*
G03X1223950Y976990I-493J7D01*
G01X1221030D01*
G03X1220680Y976840I5J-494D01*
G01X1219370Y975540D01*
X1219850Y978600D01*
X1232040D01*
X1232530Y975540D01*
X1231210Y976840D01*
G03X1230870Y976990I-354J-343D01*
G01X1227950D01*
G03X1227450Y976490I-5J-495D01*
G01Y965050D01*
G03X1227950Y964560I494J4D01*
G01X1228520D01*
G37*
G36*
G01X1241960Y974070D02*
X1245040Y969720D01*
G02Y969260I-324J-230D01*
G01X1241990Y964860D01*
G02X1241660Y964690I-326J227D01*
G01X1240890D01*
Y963620D01*
X1244510D01*
Y964690D01*
X1243830D01*
X1246130Y968180D01*
X1248590Y964690D01*
X1247860D01*
Y963620D01*
X1251970D01*
Y964690D01*
X1251850D01*
G02X1251530Y964860I5J395D01*
G01X1248440Y969270D01*
G02Y969710I329J220D01*
G01X1251210Y974050D01*
G02X1251540Y974240I339J-207D01*
G01X1252440D01*
Y975530D01*
X1248170D01*
Y974600D01*
Y974240D01*
X1249320D01*
X1247260Y971100D01*
X1245190Y974240D01*
X1246450D01*
Y975530D01*
X1240860D01*
Y974240D01*
X1241640D01*
G02X1241960Y974070I-6J-397D01*
G37*
G36*
G01X1238450Y971140D02*
X1238730D01*
Y968180D01*
X1238450D01*
X1238050Y968690D01*
G03X1237740Y968840I-310J-245D01*
G01X1233690D01*
Y965010D01*
X1238790D01*
G03X1239080Y965130I5J398D01*
G01X1240310Y966420D01*
X1240650D01*
X1239780Y963890D01*
G02X1239400Y963620I-377J128D01*
G01X1230340D01*
Y964050D01*
X1231450Y964630D01*
G03X1231670Y964980I-178J356D01*
G01Y973820D01*
G03X1231470Y974160I-396J-4D01*
G01X1230340Y974830D01*
Y975510D01*
X1238930D01*
G02X1239290Y975260I-7J-394D01*
G01X1240370Y972670D01*
X1239780Y972420D01*
X1238730Y973570D01*
G03X1238440Y973700I-294J-267D01*
G01X1233690D01*
Y970650D01*
X1237770D01*
G03X1238040Y970760I-3J394D01*
G01X1238450Y971140D01*
G37*
G36*
G01X1258580Y946760D02*
Y946020D01*
X1254520D01*
Y946760D01*
X1254970D01*
G03X1255360Y947140I3J387D01*
G01Y956180D01*
G03X1254970Y956570I-388J2D01*
G01X1252670D01*
G03X1252390Y956460I-9J-390D01*
G01X1251360Y955430D01*
X1251740Y957850D01*
X1261370D01*
X1261750Y955430D01*
X1260710Y956460D01*
G03X1260440Y956570I-271J-279D01*
G01X1258130D01*
G03X1257740Y956180I-1J-389D01*
G01Y947140D01*
G03X1258130Y946760I388J8D01*
G01X1258580D01*
G37*
G36*
G01X1263400Y947130D02*
Y956760D01*
G03X1263000Y957160I-397J3D01*
G01X1262270D01*
Y957830D01*
X1269650D01*
X1269890Y957790D01*
X1270130Y957750D01*
X1270250Y957730D01*
X1270360Y957700D01*
X1270510Y957660D01*
X1270600Y957640D01*
X1270710Y957600D01*
X1270830Y957550D01*
X1270940Y957500D01*
X1271050Y957450D01*
X1271160Y957390D01*
X1271260Y957330D01*
X1271370Y957260D01*
X1271460Y957190D01*
X1271560Y957120D01*
X1271660Y957040D01*
X1271750Y956950D01*
X1271800Y956900D01*
X1271920Y956770D01*
X1272000Y956680D01*
X1272070Y956580D01*
X1272140Y956480D01*
X1272210Y956370D01*
X1272270Y956260D01*
X1272320Y956150D01*
X1272370Y956040D01*
X1272410Y955930D01*
X1272450Y955810D01*
X1272480Y955680D01*
X1272500Y955580D01*
X1272520Y955460D01*
X1272530Y955340D01*
X1272540Y955220D01*
X1272550Y955100D01*
X1272560Y954610D01*
Y954500D01*
X1272570Y954360D01*
X1272580Y954120D01*
X1272590Y953990D01*
Y953870D01*
Y953750D01*
X1272580Y953630D01*
X1272570Y953510D01*
X1272550Y953450D01*
X1272540Y953390D01*
X1272530Y953350D01*
X1272510Y953280D01*
X1272480Y953220D01*
X1272460Y953160D01*
X1272430Y953110D01*
X1272400Y953060D01*
X1272340Y952950D01*
X1272270Y952840D01*
X1272190Y952750D01*
X1272110Y952650D01*
X1272020Y952560D01*
X1271930Y952480D01*
X1271840Y952400D01*
X1271770Y952350D01*
X1271640Y952270D01*
X1271540Y952210D01*
X1271450Y952160D01*
X1271340Y952100D01*
X1271240Y952060D01*
X1271030Y951960D01*
X1270930Y951920D01*
X1270820Y951870D01*
X1270710Y951820D01*
X1270600Y951760D01*
X1270480Y951700D01*
X1270370Y951630D01*
X1270250Y951560D01*
X1270120Y951470D01*
X1270080Y951430D01*
X1270050Y951410D01*
X1270020Y951390D01*
X1270000Y951370D01*
X1269980Y951340D01*
X1269970Y951320D01*
X1269960Y951290D01*
Y951280D01*
X1269970Y951260D01*
X1269980Y951240D01*
X1270000Y951220D01*
X1270020Y951200D01*
X1270050Y951180D01*
X1270110Y951140D01*
X1270220Y951080D01*
X1270300Y951030D01*
X1270360Y950990D01*
X1270420Y950960D01*
X1270480Y950920D01*
X1270530Y950880D01*
X1270580Y950850D01*
X1270670Y950770D01*
X1270750Y950690D01*
X1270830Y950610D01*
X1270910Y950530D01*
X1270990Y950430D01*
X1271060Y950360D01*
X1271130Y950270D01*
X1271210Y950180D01*
X1271280Y950080D01*
X1271350Y949980D01*
X1271500Y949780D01*
X1271570Y949680D01*
X1271630Y949580D01*
X1271700Y949470D01*
X1271730Y949410D01*
X1271880Y949150D01*
X1271990Y948930D01*
X1272100Y948720D01*
X1272220Y948500D01*
X1272280Y948400D01*
X1272340Y948300D01*
X1272390Y948240D01*
X1272480Y948100D01*
X1272560Y948010D01*
X1272630Y947910D01*
X1272710Y947820D01*
X1272800Y947730D01*
X1272970Y947560D01*
X1273180Y947350D01*
X1273320Y947220D01*
X1273500Y947060D01*
X1273750Y946840D01*
G03X1274010Y946740I262J292D01*
G01X1274510D01*
Y945990D01*
X1271760D01*
G02X1271460Y946120I-5J399D01*
G01X1270910Y946740D01*
X1270820Y946840D01*
X1270730Y946940D01*
X1270640Y947040D01*
X1270550Y947140D01*
X1270460Y947240D01*
X1270380Y947350D01*
X1270300Y947460D01*
X1270210Y947560D01*
X1270140Y947660D01*
X1270060Y947780D01*
X1269980Y947900D01*
X1269910Y948020D01*
X1269840Y948130D01*
X1269780Y948250D01*
X1269720Y948380D01*
X1269660Y948500D01*
X1269610Y948620D01*
X1269560Y948750D01*
X1269510Y948880D01*
X1269470Y949010D01*
X1269420Y949130D01*
X1269370Y949260D01*
X1269320Y949390D01*
X1269270Y949510D01*
X1269240Y949580D01*
X1269140Y949750D01*
X1269080Y949870D01*
X1269010Y949980D01*
X1268930Y950100D01*
X1268860Y950210D01*
X1268810Y950290D01*
X1268710Y950450D01*
X1268640Y950560D01*
X1268560Y950670D01*
X1268480Y950780D01*
X1268380Y950880D01*
X1268310Y950940D01*
X1268170Y951040D01*
X1268050Y951100D01*
X1267930Y951160D01*
X1267800Y951220D01*
X1265760D01*
Y952340D01*
X1268110D01*
X1268250Y952350D01*
X1268390Y952360D01*
X1268490Y952370D01*
X1268660Y952390D01*
X1268800Y952420D01*
X1268930Y952450D01*
X1269000Y952470D01*
X1269190Y952550D01*
X1269320Y952620D01*
X1269440Y952690D01*
X1269550Y952780D01*
X1269660Y952870D01*
X1269760Y952970D01*
X1269850Y953080D01*
X1269940Y953200D01*
X1270010Y953320D01*
X1270060Y953430D01*
X1270110Y953570D01*
X1270150Y953700D01*
X1270170Y953840D01*
X1270190Y953970D01*
X1270200Y954110D01*
Y954250D01*
Y954390D01*
Y954560D01*
X1270190Y954680D01*
X1270180Y954820D01*
X1270170Y954960D01*
X1270150Y955100D01*
X1270130Y955230D01*
X1270100Y955370D01*
X1270060Y955500D01*
X1270020Y955630D01*
X1269960Y955750D01*
X1269920Y955820D01*
X1269810Y955990D01*
X1269720Y956100D01*
X1269630Y956200D01*
X1269520Y956290D01*
X1269410Y956380D01*
X1269290Y956450D01*
X1269210Y956490D01*
X1269030Y956550D01*
X1268900Y956580D01*
X1268760Y956600D01*
X1268630Y956620D01*
X1268490Y956640D01*
X1265720D01*
Y947130D01*
G03X1266120Y946740I394J4D01*
G01X1267020D01*
Y945990D01*
X1262270D01*
Y946740D01*
X1263000D01*
G03X1263400Y947130I4J396D01*
G37*
G36*
G01X1277420Y946020D02*
X1282850D01*
G03X1284870Y948220I-208J2218D01*
G01Y956760D01*
G02X1285260Y957160I395J5D01*
G01X1285850D01*
Y957890D01*
X1282000D01*
Y957160D01*
X1282820D01*
G02X1283220Y956760I3J-397D01*
G01Y948850D01*
G02X1281330Y947390I-1797J372D01*
G01X1279160D01*
G02X1277450Y948850I49J1789D01*
G01Y956760D01*
G02X1277840Y957160I395J5D01*
G01X1278700D01*
Y957890D01*
X1273480D01*
Y957160D01*
X1274500D01*
G02X1274900Y956760I2J-398D01*
G01Y949140D01*
G03X1277420Y946020I3221J24D01*
G37*
G36*
G01X1286450Y946000D02*
X1290190D01*
Y946920D01*
X1289380D01*
G02X1288980Y947320I-3J397D01*
G01Y954880D01*
X1293360Y946000D01*
X1297570Y954740D01*
Y947320D01*
G02X1297170Y946920I-398J-2D01*
G01X1296710D01*
Y946020D01*
X1301240D01*
Y946920D01*
X1301070D01*
G02X1300670Y947320I-4J396D01*
G01Y956810D01*
G02X1301070Y957210I396J4D01*
G01X1301470D01*
Y957890D01*
X1297570D01*
G03X1297210Y957650I5J-397D01*
G01X1294160Y950610D01*
X1290910Y957660D01*
G03X1290550Y957890I-360J-166D01*
G01X1286450D01*
Y957160D01*
X1287370D01*
G02X1287770Y956760I4J-396D01*
G01Y947320D01*
G02X1287370Y946920I-396J-4D01*
G01X1286450D01*
Y946000D01*
G37*
G36*
G01X1258580Y946760D02*
Y946020D01*
X1254520D01*
Y946760D01*
X1254970D01*
G03X1255360Y947140I3J387D01*
G01Y956180D01*
G03X1254970Y956570I-388J2D01*
G01X1252670D01*
G03X1252390Y956460I-9J-390D01*
G01X1251360Y955430D01*
X1251740Y957850D01*
X1261370D01*
X1261750Y955430D01*
X1260710Y956460D01*
G03X1260440Y956570I-271J-279D01*
G01X1258130D01*
G03X1257740Y956180I-1J-389D01*
G01Y947140D01*
G03X1258130Y946760I388J8D01*
G01X1258580D01*
G37*
G36*
G01X1263400Y947130D02*
Y956760D01*
G03X1263000Y957160I-397J3D01*
G01X1262270D01*
Y957830D01*
X1269650D01*
X1269890Y957790D01*
X1270130Y957750D01*
X1270250Y957730D01*
X1270360Y957700D01*
X1270510Y957660D01*
X1270600Y957640D01*
X1270710Y957600D01*
X1270830Y957550D01*
X1270940Y957500D01*
X1271050Y957450D01*
X1271160Y957390D01*
X1271260Y957330D01*
X1271370Y957260D01*
X1271460Y957190D01*
X1271560Y957120D01*
X1271660Y957040D01*
X1271750Y956950D01*
X1271800Y956900D01*
X1271920Y956770D01*
X1272000Y956680D01*
X1272070Y956580D01*
X1272140Y956480D01*
X1272210Y956370D01*
X1272270Y956260D01*
X1272320Y956150D01*
X1272370Y956040D01*
X1272410Y955930D01*
X1272450Y955810D01*
X1272480Y955680D01*
X1272500Y955580D01*
X1272520Y955460D01*
X1272530Y955340D01*
X1272540Y955220D01*
X1272550Y955100D01*
X1272560Y954610D01*
Y954500D01*
X1272570Y954360D01*
X1272580Y954120D01*
X1272590Y953990D01*
Y953870D01*
Y953750D01*
X1272580Y953630D01*
X1272570Y953510D01*
X1272550Y953450D01*
X1272540Y953390D01*
X1272530Y953350D01*
X1272510Y953280D01*
X1272480Y953220D01*
X1272460Y953160D01*
X1272430Y953110D01*
X1272400Y953060D01*
X1272340Y952950D01*
X1272270Y952840D01*
X1272190Y952750D01*
X1272110Y952650D01*
X1272020Y952560D01*
X1271930Y952480D01*
X1271840Y952400D01*
X1271770Y952350D01*
X1271640Y952270D01*
X1271540Y952210D01*
X1271450Y952160D01*
X1271340Y952100D01*
X1271240Y952060D01*
X1271030Y951960D01*
X1270930Y951920D01*
X1270820Y951870D01*
X1270710Y951820D01*
X1270600Y951760D01*
X1270480Y951700D01*
X1270370Y951630D01*
X1270250Y951560D01*
X1270120Y951470D01*
X1270080Y951430D01*
X1270050Y951410D01*
X1270020Y951390D01*
X1270000Y951370D01*
X1269980Y951340D01*
X1269970Y951320D01*
X1269960Y951290D01*
Y951280D01*
X1269970Y951260D01*
X1269980Y951240D01*
X1270000Y951220D01*
X1270020Y951200D01*
X1270050Y951180D01*
X1270110Y951140D01*
X1270220Y951080D01*
X1270300Y951030D01*
X1270360Y950990D01*
X1270420Y950960D01*
X1270480Y950920D01*
X1270530Y950880D01*
X1270580Y950850D01*
X1270670Y950770D01*
X1270750Y950690D01*
X1270830Y950610D01*
X1270910Y950530D01*
X1270990Y950430D01*
X1271060Y950360D01*
X1271130Y950270D01*
X1271210Y950180D01*
X1271280Y950080D01*
X1271350Y949980D01*
X1271500Y949780D01*
X1271570Y949680D01*
X1271630Y949580D01*
X1271700Y949470D01*
X1271730Y949410D01*
X1271880Y949150D01*
X1271990Y948930D01*
X1272100Y948720D01*
X1272220Y948500D01*
X1272280Y948400D01*
X1272340Y948300D01*
X1272390Y948240D01*
X1272480Y948100D01*
X1272560Y948010D01*
X1272630Y947910D01*
X1272710Y947820D01*
X1272800Y947730D01*
X1272970Y947560D01*
X1273180Y947350D01*
X1273320Y947220D01*
X1273500Y947060D01*
X1273750Y946840D01*
G03X1274010Y946740I262J292D01*
G01X1274510D01*
Y945990D01*
X1271760D01*
G02X1271460Y946120I-5J399D01*
G01X1270910Y946740D01*
X1270820Y946840D01*
X1270730Y946940D01*
X1270640Y947040D01*
X1270550Y947140D01*
X1270460Y947240D01*
X1270380Y947350D01*
X1270300Y947460D01*
X1270210Y947560D01*
X1270140Y947660D01*
X1270060Y947780D01*
X1269980Y947900D01*
X1269910Y948020D01*
X1269840Y948130D01*
X1269780Y948250D01*
X1269720Y948380D01*
X1269660Y948500D01*
X1269610Y948620D01*
X1269560Y948750D01*
X1269510Y948880D01*
X1269470Y949010D01*
X1269420Y949130D01*
X1269370Y949260D01*
X1269320Y949390D01*
X1269270Y949510D01*
X1269240Y949580D01*
X1269140Y949750D01*
X1269080Y949870D01*
X1269010Y949980D01*
X1268930Y950100D01*
X1268860Y950210D01*
X1268810Y950290D01*
X1268710Y950450D01*
X1268640Y950560D01*
X1268560Y950670D01*
X1268480Y950780D01*
X1268380Y950880D01*
X1268310Y950940D01*
X1268170Y951040D01*
X1268050Y951100D01*
X1267930Y951160D01*
X1267800Y951220D01*
X1265760D01*
Y952340D01*
X1268110D01*
X1268250Y952350D01*
X1268390Y952360D01*
X1268490Y952370D01*
X1268660Y952390D01*
X1268800Y952420D01*
X1268930Y952450D01*
X1269000Y952470D01*
X1269190Y952550D01*
X1269320Y952620D01*
X1269440Y952690D01*
X1269550Y952780D01*
X1269660Y952870D01*
X1269760Y952970D01*
X1269850Y953080D01*
X1269940Y953200D01*
X1270010Y953320D01*
X1270060Y953430D01*
X1270110Y953570D01*
X1270150Y953700D01*
X1270170Y953840D01*
X1270190Y953970D01*
X1270200Y954110D01*
Y954250D01*
Y954390D01*
Y954560D01*
X1270190Y954680D01*
X1270180Y954820D01*
X1270170Y954960D01*
X1270150Y955100D01*
X1270130Y955230D01*
X1270100Y955370D01*
X1270060Y955500D01*
X1270020Y955630D01*
X1269960Y955750D01*
X1269920Y955820D01*
X1269810Y955990D01*
X1269720Y956100D01*
X1269630Y956200D01*
X1269520Y956290D01*
X1269410Y956380D01*
X1269290Y956450D01*
X1269210Y956490D01*
X1269030Y956550D01*
X1268900Y956580D01*
X1268760Y956600D01*
X1268630Y956620D01*
X1268490Y956640D01*
X1265720D01*
Y947130D01*
G03X1266120Y946740I394J4D01*
G01X1267020D01*
Y945990D01*
X1262270D01*
Y946740D01*
X1263000D01*
G03X1263400Y947130I4J396D01*
G37*
G36*
G01X1277420Y946020D02*
X1282850D01*
G03X1284870Y948220I-208J2218D01*
G01Y956760D01*
G02X1285260Y957160I395J5D01*
G01X1285850D01*
Y957890D01*
X1282000D01*
Y957160D01*
X1282820D01*
G02X1283220Y956760I3J-397D01*
G01Y948850D01*
G02X1281330Y947390I-1797J372D01*
G01X1279160D01*
G02X1277450Y948850I49J1789D01*
G01Y956760D01*
G02X1277840Y957160I395J5D01*
G01X1278700D01*
Y957890D01*
X1273480D01*
Y957160D01*
X1274500D01*
G02X1274900Y956760I2J-398D01*
G01Y949140D01*
G03X1277420Y946020I3221J24D01*
G37*
G36*
G01X1286450Y946000D02*
X1290190D01*
Y946920D01*
X1289380D01*
G02X1288980Y947320I-3J397D01*
G01Y954880D01*
X1293360Y946000D01*
X1297570Y954740D01*
Y947320D01*
G02X1297170Y946920I-398J-2D01*
G01X1296710D01*
Y946020D01*
X1301240D01*
Y946920D01*
X1301070D01*
G02X1300670Y947320I-4J396D01*
G01Y956810D01*
G02X1301070Y957210I396J4D01*
G01X1301470D01*
Y957890D01*
X1297570D01*
G03X1297210Y957650I5J-397D01*
G01X1294160Y950610D01*
X1290910Y957660D01*
G03X1290550Y957890I-360J-166D01*
G01X1286450D01*
Y957160D01*
X1287370D01*
G02X1287770Y956760I4J-396D01*
G01Y947320D01*
G02X1287370Y946920I-396J-4D01*
G01X1286450D01*
Y946000D01*
G37*
G36*
G01X1259630Y963620D02*
Y964690D01*
X1259970D01*
G03X1260350Y965220I5J397D01*
G01X1257550Y973040D01*
X1255660Y968170D01*
X1259230D01*
X1259640Y967030D01*
X1255220Y967020D01*
X1254520Y965230D01*
G03X1254890Y964690I370J-143D01*
G01X1254960D01*
Y963620D01*
X1252220D01*
Y964690D01*
X1252280D01*
G03X1252650Y964940I1J398D01*
G01X1256740Y975530D01*
X1259420D01*
X1263300Y964950D01*
G03X1263670Y964690I371J135D01*
G01X1264100D01*
Y963620D01*
X1259630D01*
G37*
G36*
G01X1264920Y963750D02*
X1263920Y967420D01*
X1264380Y967530D01*
X1264580Y967270D01*
X1264770Y967010D01*
X1264970Y966760D01*
X1265180Y966510D01*
X1265390Y966280D01*
X1265610Y966070D01*
X1265840Y965880D01*
X1266090Y965710D01*
X1266360Y965560D01*
X1266630Y965450D01*
X1266920Y965360D01*
X1267220Y965280D01*
X1267590Y965200D01*
X1267850Y965150D01*
X1268160Y965090D01*
X1268480Y965050D01*
X1268800Y965020D01*
X1269110Y965000D01*
X1269420Y965020D01*
X1269730Y965060D01*
X1270030Y965140D01*
X1270340Y965270D01*
X1270600Y965410D01*
X1270850Y965620D01*
X1271060Y965850D01*
X1271250Y966240D01*
X1271280Y966420D01*
Y966740D01*
X1271200Y967050D01*
X1271060Y967350D01*
X1270800Y967690D01*
X1270640Y967840D01*
X1270380Y968010D01*
X1270100Y968140D01*
X1269800Y968240D01*
X1269370Y968340D01*
X1269180Y968380D01*
X1268880Y968430D01*
X1268570Y968480D01*
X1268270Y968530D01*
X1267970Y968570D01*
X1267660Y968610D01*
X1267360Y968660D01*
X1267060Y968720D01*
X1266750Y968780D01*
X1266560Y968830D01*
X1266140Y968940D01*
X1265830Y969050D01*
X1265540Y969180D01*
X1265270Y969330D01*
X1265020Y969500D01*
X1264810Y969700D01*
X1264610Y969940D01*
X1264460Y970200D01*
X1264330Y970490D01*
X1264240Y970790D01*
X1264160Y971100D01*
X1264120Y971420D01*
X1264090Y971900D01*
Y972080D01*
X1264110Y972410D01*
X1264150Y972730D01*
X1264220Y973040D01*
X1264300Y973340D01*
X1264420Y973630D01*
X1264560Y973900D01*
X1264740Y974170D01*
X1264930Y974380D01*
X1265150Y974590D01*
X1265400Y974770D01*
X1265670Y974940D01*
X1265950Y975080D01*
X1266240Y975210D01*
X1266680Y975360D01*
X1266850Y975410D01*
X1267150Y975490D01*
X1267450Y975540D01*
X1267760Y975590D01*
X1268070Y975610D01*
X1268370Y975620D01*
X1268690D01*
X1269000Y975600D01*
X1269310Y975560D01*
X1269620Y975500D01*
X1269910Y975420D01*
X1270150Y975330D01*
X1270480Y975180D01*
X1270760Y975030D01*
X1271020Y974880D01*
Y975640D01*
X1271890D01*
X1272670Y972280D01*
X1272380Y972000D01*
X1272150Y972180D01*
X1271910Y972370D01*
X1271670Y972550D01*
X1271420Y972720D01*
X1271170Y972880D01*
X1270890Y973040D01*
X1270640Y973160D01*
X1270360Y973280D01*
X1270080Y973380D01*
X1269790Y973460D01*
X1269490Y973540D01*
X1269200Y973590D01*
X1269020Y973620D01*
X1268610Y973650D01*
X1268310Y973660D01*
X1268010Y973650D01*
X1267750Y973620D01*
X1267400Y973550D01*
X1267100Y973450D01*
X1266850Y973290D01*
X1266720Y973160D01*
X1266510Y972780D01*
X1266440Y972470D01*
X1266450Y972150D01*
X1266520Y971900D01*
X1266710Y971640D01*
X1266940Y971450D01*
X1267220Y971310D01*
X1267530Y971200D01*
X1267820Y971120D01*
X1268150Y971050D01*
X1268460Y971000D01*
X1268750Y970960D01*
X1269040Y970920D01*
X1269330Y970880D01*
X1269630Y970830D01*
X1269910Y970780D01*
X1270200Y970720D01*
X1270490Y970640D01*
X1270780Y970560D01*
X1271060Y970480D01*
X1271360Y970370D01*
X1271650Y970270D01*
X1271930Y970140D01*
X1272190Y970000D01*
X1272440Y969840D01*
X1272640Y969670D01*
X1272870Y969430D01*
X1273050Y969180D01*
X1273200Y968920D01*
X1273330Y968640D01*
X1273430Y968350D01*
X1273520Y968050D01*
X1273570Y967760D01*
X1273610Y967460D01*
X1273620Y967160D01*
X1273610Y966860D01*
X1273580Y966560D01*
X1273520Y966240D01*
X1273450Y965970D01*
X1273340Y965680D01*
X1273220Y965400D01*
X1273080Y965130D01*
X1272920Y964870D01*
X1272740Y964630D01*
X1272510Y964390D01*
X1272310Y964210D01*
X1272070Y964020D01*
X1271810Y963860D01*
X1271540Y963720D01*
X1271260Y963590D01*
X1270960Y963490D01*
X1270670Y963400D01*
X1270360Y963340D01*
X1270060Y963290D01*
X1269750Y963270D01*
X1269400Y963260D01*
X1269140Y963270D01*
X1268840Y963300D01*
X1268540Y963340D01*
X1268250Y963400D01*
X1267960Y963470D01*
X1267670Y963560D01*
X1267390Y963650D01*
X1267100Y963750D01*
X1266820Y963860D01*
X1266540Y963970D01*
X1266250Y964080D01*
X1265970Y964200D01*
Y963750D01*
X1264920D01*
G37*
G36*
G01X1259630Y963620D02*
Y964690D01*
X1259970D01*
G03X1260350Y965220I5J397D01*
G01X1257550Y973040D01*
X1255660Y968170D01*
X1259230D01*
X1259640Y967030D01*
X1255220Y967020D01*
X1254520Y965230D01*
G03X1254890Y964690I370J-143D01*
G01X1254960D01*
Y963620D01*
X1252220D01*
Y964690D01*
X1252280D01*
G03X1252650Y964940I1J398D01*
G01X1256740Y975530D01*
X1259420D01*
X1263300Y964950D01*
G03X1263670Y964690I371J135D01*
G01X1264100D01*
Y963620D01*
X1259630D01*
G37*
G36*
G01X1264920Y963750D02*
X1263920Y967420D01*
X1264380Y967530D01*
X1264580Y967270D01*
X1264770Y967010D01*
X1264970Y966760D01*
X1265180Y966510D01*
X1265390Y966280D01*
X1265610Y966070D01*
X1265840Y965880D01*
X1266090Y965710D01*
X1266360Y965560D01*
X1266630Y965450D01*
X1266920Y965360D01*
X1267220Y965280D01*
X1267590Y965200D01*
X1267850Y965150D01*
X1268160Y965090D01*
X1268480Y965050D01*
X1268800Y965020D01*
X1269110Y965000D01*
X1269420Y965020D01*
X1269730Y965060D01*
X1270030Y965140D01*
X1270340Y965270D01*
X1270600Y965410D01*
X1270850Y965620D01*
X1271060Y965850D01*
X1271250Y966240D01*
X1271280Y966420D01*
Y966740D01*
X1271200Y967050D01*
X1271060Y967350D01*
X1270800Y967690D01*
X1270640Y967840D01*
X1270380Y968010D01*
X1270100Y968140D01*
X1269800Y968240D01*
X1269370Y968340D01*
X1269180Y968380D01*
X1268880Y968430D01*
X1268570Y968480D01*
X1268270Y968530D01*
X1267970Y968570D01*
X1267660Y968610D01*
X1267360Y968660D01*
X1267060Y968720D01*
X1266750Y968780D01*
X1266560Y968830D01*
X1266140Y968940D01*
X1265830Y969050D01*
X1265540Y969180D01*
X1265270Y969330D01*
X1265020Y969500D01*
X1264810Y969700D01*
X1264610Y969940D01*
X1264460Y970200D01*
X1264330Y970490D01*
X1264240Y970790D01*
X1264160Y971100D01*
X1264120Y971420D01*
X1264090Y971900D01*
Y972080D01*
X1264110Y972410D01*
X1264150Y972730D01*
X1264220Y973040D01*
X1264300Y973340D01*
X1264420Y973630D01*
X1264560Y973900D01*
X1264740Y974170D01*
X1264930Y974380D01*
X1265150Y974590D01*
X1265400Y974770D01*
X1265670Y974940D01*
X1265950Y975080D01*
X1266240Y975210D01*
X1266680Y975360D01*
X1266850Y975410D01*
X1267150Y975490D01*
X1267450Y975540D01*
X1267760Y975590D01*
X1268070Y975610D01*
X1268370Y975620D01*
X1268690D01*
X1269000Y975600D01*
X1269310Y975560D01*
X1269620Y975500D01*
X1269910Y975420D01*
X1270150Y975330D01*
X1270480Y975180D01*
X1270760Y975030D01*
X1271020Y974880D01*
Y975640D01*
X1271890D01*
X1272670Y972280D01*
X1272380Y972000D01*
X1272150Y972180D01*
X1271910Y972370D01*
X1271670Y972550D01*
X1271420Y972720D01*
X1271170Y972880D01*
X1270890Y973040D01*
X1270640Y973160D01*
X1270360Y973280D01*
X1270080Y973380D01*
X1269790Y973460D01*
X1269490Y973540D01*
X1269200Y973590D01*
X1269020Y973620D01*
X1268610Y973650D01*
X1268310Y973660D01*
X1268010Y973650D01*
X1267750Y973620D01*
X1267400Y973550D01*
X1267100Y973450D01*
X1266850Y973290D01*
X1266720Y973160D01*
X1266510Y972780D01*
X1266440Y972470D01*
X1266450Y972150D01*
X1266520Y971900D01*
X1266710Y971640D01*
X1266940Y971450D01*
X1267220Y971310D01*
X1267530Y971200D01*
X1267820Y971120D01*
X1268150Y971050D01*
X1268460Y971000D01*
X1268750Y970960D01*
X1269040Y970920D01*
X1269330Y970880D01*
X1269630Y970830D01*
X1269910Y970780D01*
X1270200Y970720D01*
X1270490Y970640D01*
X1270780Y970560D01*
X1271060Y970480D01*
X1271360Y970370D01*
X1271650Y970270D01*
X1271930Y970140D01*
X1272190Y970000D01*
X1272440Y969840D01*
X1272640Y969670D01*
X1272870Y969430D01*
X1273050Y969180D01*
X1273200Y968920D01*
X1273330Y968640D01*
X1273430Y968350D01*
X1273520Y968050D01*
X1273570Y967760D01*
X1273610Y967460D01*
X1273620Y967160D01*
X1273610Y966860D01*
X1273580Y966560D01*
X1273520Y966240D01*
X1273450Y965970D01*
X1273340Y965680D01*
X1273220Y965400D01*
X1273080Y965130D01*
X1272920Y964870D01*
X1272740Y964630D01*
X1272510Y964390D01*
X1272310Y964210D01*
X1272070Y964020D01*
X1271810Y963860D01*
X1271540Y963720D01*
X1271260Y963590D01*
X1270960Y963490D01*
X1270670Y963400D01*
X1270360Y963340D01*
X1270060Y963290D01*
X1269750Y963270D01*
X1269400Y963260D01*
X1269140Y963270D01*
X1268840Y963300D01*
X1268540Y963340D01*
X1268250Y963400D01*
X1267960Y963470D01*
X1267670Y963560D01*
X1267390Y963650D01*
X1267100Y963750D01*
X1266820Y963860D01*
X1266540Y963970D01*
X1266250Y964080D01*
X1265970Y964200D01*
Y963750D01*
X1264920D01*
G37*
G36*
G01X1332470Y946760D02*
Y946020D01*
X1328410D01*
Y946760D01*
X1328860D01*
G03X1329250Y947140I2J388D01*
G01Y956180D01*
G03X1328860Y956570I-389J1D01*
G01X1326550D01*
G03X1326280Y956460I1J-389D01*
G01X1325240Y955430D01*
X1325620Y957850D01*
X1335260D01*
X1335640Y955430D01*
X1334600Y956460D01*
G03X1334320Y956570I-271J-280D01*
G01X1332020D01*
G03X1331630Y956180I-2J-388D01*
G01Y947140D01*
G03X1332020Y946760I387J7D01*
G01X1332470D01*
G37*
G36*
G01X1310400Y953520D02*
X1310690D01*
Y950560D01*
X1310400D01*
X1310000Y951070D01*
G03X1309690Y951220I-310J-246D01*
G01X1305640D01*
Y947390D01*
X1310740D01*
G03X1311030Y947510I6J396D01*
G01X1312260Y948800D01*
X1312610D01*
X1311730Y946270D01*
G02X1311360Y946000I-375J126D01*
G01X1302290D01*
Y946430D01*
X1303410Y947010D01*
G03X1303620Y947360I-187J350D01*
G01Y956200D01*
G03X1303420Y956540I-395J-4D01*
G01X1302290Y957210D01*
Y957890D01*
X1310880D01*
G02X1311250Y957640I1J-398D01*
G01X1312320Y955040D01*
X1311730Y954800D01*
X1310680Y955950D01*
G03X1310390Y956080I-294J-268D01*
G01X1305640D01*
Y953030D01*
X1309720D01*
G03X1310000Y953140I7J394D01*
G01X1310400Y953520D01*
G37*
G36*
G01X1312770Y946920D02*
X1313520D01*
G03X1313920Y947320I4J396D01*
G01Y956620D01*
G03X1313520Y957010I-395J-5D01*
G01X1312720D01*
Y957890D01*
X1316370D01*
G02X1316670Y957750I-2J-396D01*
G01X1322340Y951180D01*
Y956540D01*
G03X1321950Y956930I-394J-4D01*
G01X1320980D01*
Y957890D01*
X1324970D01*
Y956930D01*
X1324130D01*
G03X1323730Y956540I-4J-396D01*
G01Y946020D01*
X1323120D01*
G02X1322820Y946150I-8J394D01*
G01X1315950Y954100D01*
Y947320D01*
G03X1316350Y946920I397J-3D01*
G01X1316940D01*
Y946020D01*
X1312770D01*
Y946920D01*
G37*
G36*
G01X1332470Y946760D02*
Y946020D01*
X1328410D01*
Y946760D01*
X1328860D01*
G03X1329250Y947140I2J388D01*
G01Y956180D01*
G03X1328860Y956570I-389J1D01*
G01X1326550D01*
G03X1326280Y956460I1J-389D01*
G01X1325240Y955430D01*
X1325620Y957850D01*
X1335260D01*
X1335640Y955430D01*
X1334600Y956460D01*
G03X1334320Y956570I-271J-280D01*
G01X1332020D01*
G03X1331630Y956180I-2J-388D01*
G01Y947140D01*
G03X1332020Y946760I387J7D01*
G01X1332470D01*
G37*
G36*
G01X1310400Y953520D02*
X1310690D01*
Y950560D01*
X1310400D01*
X1310000Y951070D01*
G03X1309690Y951220I-310J-246D01*
G01X1305640D01*
Y947390D01*
X1310740D01*
G03X1311030Y947510I6J396D01*
G01X1312260Y948800D01*
X1312610D01*
X1311730Y946270D01*
G02X1311360Y946000I-375J126D01*
G01X1302290D01*
Y946430D01*
X1303410Y947010D01*
G03X1303620Y947360I-187J350D01*
G01Y956200D01*
G03X1303420Y956540I-395J-4D01*
G01X1302290Y957210D01*
Y957890D01*
X1310880D01*
G02X1311250Y957640I1J-398D01*
G01X1312320Y955040D01*
X1311730Y954800D01*
X1310680Y955950D01*
G03X1310390Y956080I-294J-268D01*
G01X1305640D01*
Y953030D01*
X1309720D01*
G03X1310000Y953140I7J394D01*
G01X1310400Y953520D01*
G37*
G36*
G01X1312770Y946920D02*
X1313520D01*
G03X1313920Y947320I4J396D01*
G01Y956620D01*
G03X1313520Y957010I-395J-5D01*
G01X1312720D01*
Y957890D01*
X1316370D01*
G02X1316670Y957750I-2J-396D01*
G01X1322340Y951180D01*
Y956540D01*
G03X1321950Y956930I-394J-4D01*
G01X1320980D01*
Y957890D01*
X1324970D01*
Y956930D01*
X1324130D01*
G03X1323730Y956540I-4J-396D01*
G01Y946020D01*
X1323120D01*
G02X1322820Y946150I-8J394D01*
G01X1315950Y954100D01*
Y947320D01*
G03X1316350Y946920I397J-3D01*
G01X1316940D01*
Y946020D01*
X1312770D01*
Y946920D01*
G37*
G36*
G01X1337150Y946200D02*
X1336160Y949860D01*
X1336620Y949980D01*
X1336810Y949710D01*
X1337000Y949450D01*
X1337200Y949200D01*
X1337410Y948960D01*
X1337620Y948730D01*
X1337840Y948520D01*
X1338070Y948320D01*
X1338320Y948150D01*
X1338590Y948000D01*
X1338860Y947890D01*
X1339150Y947800D01*
X1339460Y947720D01*
X1339820Y947650D01*
X1340080Y947600D01*
X1340400Y947540D01*
X1340710Y947490D01*
X1341030Y947460D01*
X1341340Y947450D01*
X1341650Y947460D01*
X1341960Y947500D01*
X1342260Y947580D01*
X1342580Y947710D01*
X1342830Y947860D01*
X1343080Y948060D01*
X1343300Y948300D01*
X1343480Y948680D01*
X1343520Y948870D01*
X1343510Y949180D01*
X1343430Y949500D01*
X1343290Y949800D01*
X1343030Y950140D01*
X1342870Y950280D01*
X1342610Y950450D01*
X1342330Y950580D01*
X1342030Y950680D01*
X1341600Y950790D01*
X1341420Y950820D01*
X1341110Y950880D01*
X1340810Y950930D01*
X1340500Y950970D01*
X1340200Y951010D01*
X1339900Y951060D01*
X1339590Y951110D01*
X1339290Y951160D01*
X1338980Y951220D01*
X1338790Y951270D01*
X1338370Y951390D01*
X1338070Y951500D01*
X1337780Y951620D01*
X1337500Y951770D01*
X1337250Y951950D01*
X1337040Y952150D01*
X1336840Y952390D01*
X1336690Y952650D01*
X1336560Y952930D01*
X1336470Y953230D01*
X1336400Y953550D01*
X1336350Y953870D01*
X1336330Y954350D01*
Y954530D01*
X1336340Y954850D01*
X1336380Y955170D01*
X1336450Y955490D01*
X1336540Y955790D01*
X1336650Y956070D01*
X1336790Y956340D01*
X1336970Y956610D01*
X1337160Y956820D01*
X1337390Y957030D01*
X1337640Y957220D01*
X1337900Y957380D01*
X1338180Y957530D01*
X1338480Y957660D01*
X1338920Y957810D01*
X1339080Y957860D01*
X1339380Y957930D01*
X1339690Y957990D01*
X1339990Y958030D01*
X1340300Y958060D01*
X1340600Y958070D01*
X1340920Y958060D01*
X1341230Y958040D01*
X1341540Y958010D01*
X1341850Y957940D01*
X1342150Y957860D01*
X1342380Y957780D01*
X1342710Y957630D01*
X1342990Y957480D01*
X1343260Y957320D01*
Y958080D01*
X1344130D01*
X1344900Y954730D01*
X1344620Y954440D01*
X1344380Y954630D01*
X1344140Y954810D01*
X1343900Y954990D01*
X1343650Y955160D01*
X1343400Y955320D01*
X1343130Y955480D01*
X1342870Y955600D01*
X1342590Y955720D01*
X1342310Y955820D01*
X1342020Y955910D01*
X1341730Y955980D01*
X1341430Y956040D01*
X1341250Y956060D01*
X1340840Y956100D01*
X1340540D01*
X1340240Y956090D01*
X1339980Y956060D01*
X1339630Y955990D01*
X1339340Y955890D01*
X1339080Y955740D01*
X1338950Y955610D01*
X1338740Y955230D01*
X1338670Y954910D01*
X1338680Y954600D01*
X1338760Y954350D01*
X1338940Y954080D01*
X1339180Y953900D01*
X1339460Y953750D01*
X1339760Y953650D01*
X1340050Y953570D01*
X1340390Y953500D01*
X1340690Y953450D01*
X1340980Y953400D01*
X1341280Y953370D01*
X1341560Y953330D01*
X1341860Y953280D01*
X1342140Y953230D01*
X1342430Y953160D01*
X1342720Y953090D01*
X1343010Y953010D01*
X1343290Y952920D01*
X1343600Y952820D01*
X1343880Y952710D01*
X1344160Y952590D01*
X1344430Y952440D01*
X1344670Y952280D01*
X1344880Y952110D01*
X1345100Y951870D01*
X1345280Y951630D01*
X1345430Y951370D01*
X1345560Y951090D01*
X1345670Y950800D01*
X1345750Y950500D01*
X1345810Y950200D01*
X1345840Y949900D01*
X1345850Y949600D01*
X1345840Y949300D01*
X1345810Y949000D01*
X1345750Y948680D01*
X1345680Y948410D01*
X1345580Y948120D01*
X1345460Y947840D01*
X1345310Y947580D01*
X1345150Y947320D01*
X1344970Y947080D01*
X1344750Y946840D01*
X1344540Y946650D01*
X1344300Y946470D01*
X1344040Y946300D01*
X1343770Y946160D01*
X1343490Y946040D01*
X1343200Y945930D01*
X1342900Y945850D01*
X1342600Y945780D01*
X1342290Y945740D01*
X1341980Y945710D01*
X1341640Y945700D01*
X1341370Y945720D01*
X1341070Y945740D01*
X1340780Y945790D01*
X1340480Y945850D01*
X1340190Y945920D01*
X1339900Y946000D01*
X1339620Y946090D01*
X1339330Y946190D01*
X1339050Y946300D01*
X1338770Y946410D01*
X1338490Y946530D01*
X1338200Y946640D01*
Y946200D01*
X1337150D01*
G37*
G36*
G01D02*
X1336160Y949860D01*
X1336620Y949980D01*
X1336810Y949710D01*
X1337000Y949450D01*
X1337200Y949200D01*
X1337410Y948960D01*
X1337620Y948730D01*
X1337840Y948520D01*
X1338070Y948320D01*
X1338320Y948150D01*
X1338590Y948000D01*
X1338860Y947890D01*
X1339150Y947800D01*
X1339460Y947720D01*
X1339820Y947650D01*
X1340080Y947600D01*
X1340400Y947540D01*
X1340710Y947490D01*
X1341030Y947460D01*
X1341340Y947450D01*
X1341650Y947460D01*
X1341960Y947500D01*
X1342260Y947580D01*
X1342580Y947710D01*
X1342830Y947860D01*
X1343080Y948060D01*
X1343300Y948300D01*
X1343480Y948680D01*
X1343520Y948870D01*
X1343510Y949180D01*
X1343430Y949500D01*
X1343290Y949800D01*
X1343030Y950140D01*
X1342870Y950280D01*
X1342610Y950450D01*
X1342330Y950580D01*
X1342030Y950680D01*
X1341600Y950790D01*
X1341420Y950820D01*
X1341110Y950880D01*
X1340810Y950930D01*
X1340500Y950970D01*
X1340200Y951010D01*
X1339900Y951060D01*
X1339590Y951110D01*
X1339290Y951160D01*
X1338980Y951220D01*
X1338790Y951270D01*
X1338370Y951390D01*
X1338070Y951500D01*
X1337780Y951620D01*
X1337500Y951770D01*
X1337250Y951950D01*
X1337040Y952150D01*
X1336840Y952390D01*
X1336690Y952650D01*
X1336560Y952930D01*
X1336470Y953230D01*
X1336400Y953550D01*
X1336350Y953870D01*
X1336330Y954350D01*
Y954530D01*
X1336340Y954850D01*
X1336380Y955170D01*
X1336450Y955490D01*
X1336540Y955790D01*
X1336650Y956070D01*
X1336790Y956340D01*
X1336970Y956610D01*
X1337160Y956820D01*
X1337390Y957030D01*
X1337640Y957220D01*
X1337900Y957380D01*
X1338180Y957530D01*
X1338480Y957660D01*
X1338920Y957810D01*
X1339080Y957860D01*
X1339380Y957930D01*
X1339690Y957990D01*
X1339990Y958030D01*
X1340300Y958060D01*
X1340600Y958070D01*
X1340920Y958060D01*
X1341230Y958040D01*
X1341540Y958010D01*
X1341850Y957940D01*
X1342150Y957860D01*
X1342380Y957780D01*
X1342710Y957630D01*
X1342990Y957480D01*
X1343260Y957320D01*
Y958080D01*
X1344130D01*
X1344900Y954730D01*
X1344620Y954440D01*
X1344380Y954630D01*
X1344140Y954810D01*
X1343900Y954990D01*
X1343650Y955160D01*
X1343400Y955320D01*
X1343130Y955480D01*
X1342870Y955600D01*
X1342590Y955720D01*
X1342310Y955820D01*
X1342020Y955910D01*
X1341730Y955980D01*
X1341430Y956040D01*
X1341250Y956060D01*
X1340840Y956100D01*
X1340540D01*
X1340240Y956090D01*
X1339980Y956060D01*
X1339630Y955990D01*
X1339340Y955890D01*
X1339080Y955740D01*
X1338950Y955610D01*
X1338740Y955230D01*
X1338670Y954910D01*
X1338680Y954600D01*
X1338760Y954350D01*
X1338940Y954080D01*
X1339180Y953900D01*
X1339460Y953750D01*
X1339760Y953650D01*
X1340050Y953570D01*
X1340390Y953500D01*
X1340690Y953450D01*
X1340980Y953400D01*
X1341280Y953370D01*
X1341560Y953330D01*
X1341860Y953280D01*
X1342140Y953230D01*
X1342430Y953160D01*
X1342720Y953090D01*
X1343010Y953010D01*
X1343290Y952920D01*
X1343600Y952820D01*
X1343880Y952710D01*
X1344160Y952590D01*
X1344430Y952440D01*
X1344670Y952280D01*
X1344880Y952110D01*
X1345100Y951870D01*
X1345280Y951630D01*
X1345430Y951370D01*
X1345560Y951090D01*
X1345670Y950800D01*
X1345750Y950500D01*
X1345810Y950200D01*
X1345840Y949900D01*
X1345850Y949600D01*
X1345840Y949300D01*
X1345810Y949000D01*
X1345750Y948680D01*
X1345680Y948410D01*
X1345580Y948120D01*
X1345460Y947840D01*
X1345310Y947580D01*
X1345150Y947320D01*
X1344970Y947080D01*
X1344750Y946840D01*
X1344540Y946650D01*
X1344300Y946470D01*
X1344040Y946300D01*
X1343770Y946160D01*
X1343490Y946040D01*
X1343200Y945930D01*
X1342900Y945850D01*
X1342600Y945780D01*
X1342290Y945740D01*
X1341980Y945710D01*
X1341640Y945700D01*
X1341370Y945720D01*
X1341070Y945740D01*
X1340780Y945790D01*
X1340480Y945850D01*
X1340190Y945920D01*
X1339900Y946000D01*
X1339620Y946090D01*
X1339330Y946190D01*
X1339050Y946300D01*
X1338770Y946410D01*
X1338490Y946530D01*
X1338200Y946640D01*
Y946200D01*
X1337150D01*
G37*
G54D10*
G01X1167670Y1076530D02*
X1167870Y1076930D01*
X1168000Y1077400D01*
Y1077930D01*
X1167800Y1078530D01*
X1167470Y1079000D01*
X1167070Y1079330D01*
X1166400Y1079600D01*
X1165800Y1079670D01*
X1165200Y1079530D01*
X1164800Y1079330D01*
X1164400Y1078930D01*
X1164130Y1078470D01*
X1164000Y1078000D01*
Y1077530D01*
X1164130Y1077070D01*
X1164330Y1076670D01*
X1164600Y1076330D01*
G01X1167330Y1074970D02*
X1167730Y1074570D01*
X1167930Y1074100D01*
X1168000Y1073570D01*
X1167870Y1072900D01*
X1167530Y1072430D01*
X1167130Y1072300D01*
X1166730Y1072370D01*
X1166400Y1072630D01*
X1165730Y1073970D01*
X1165270Y1074570D01*
X1164600Y1074970D01*
X1164000Y1075100D01*
Y1072300D01*
G01Y1069400D02*
X1164070Y1068930D01*
X1164270Y1068400D01*
X1164600Y1068070D01*
X1165070Y1067930D01*
X1165530Y1068070D01*
X1165930Y1068470D01*
X1166130Y1069070D01*
Y1069730D01*
X1166270Y1070130D01*
X1166600Y1070470D01*
X1167070Y1070600D01*
X1167530Y1070400D01*
X1167870Y1069930D01*
X1168000Y1069400D01*
X1167870Y1068870D01*
X1167530Y1068400D01*
X1167070Y1068200D01*
X1166600Y1068330D01*
X1166270Y1068670D01*
X1166130Y1069070D01*
Y1069730D01*
X1165930Y1070330D01*
X1165530Y1070730D01*
X1165070Y1070870D01*
X1164600Y1070730D01*
X1164270Y1070400D01*
X1164070Y1069870D01*
X1164000Y1069400D01*
G01X1156670Y1077530D02*
X1156870Y1077930D01*
X1157000Y1078400D01*
Y1078930D01*
X1156800Y1079530D01*
X1156470Y1080000D01*
X1156070Y1080330D01*
X1155400Y1080600D01*
X1154800Y1080670D01*
X1154200Y1080530D01*
X1153800Y1080330D01*
X1153400Y1079930D01*
X1153130Y1079470D01*
X1153000Y1079000D01*
Y1078530D01*
X1153130Y1078070D01*
X1153330Y1077670D01*
X1153600Y1077330D01*
G01X1153000Y1073900D02*
X1157000D01*
X1154130Y1076370D01*
Y1073030D01*
G01X1166030Y1157330D02*
X1166430Y1157130D01*
X1166900Y1157000D01*
X1167430D01*
X1168030Y1157200D01*
X1168500Y1157530D01*
X1168830Y1157930D01*
X1169100Y1158600D01*
X1169170Y1159200D01*
X1169030Y1159800D01*
X1168830Y1160200D01*
X1168430Y1160600D01*
X1167970Y1160870D01*
X1167500Y1161000D01*
X1167030D01*
X1166570Y1160870D01*
X1166170Y1160670D01*
X1165830Y1160400D01*
G01X1164670Y1160200D02*
X1164270Y1160670D01*
X1163730Y1160930D01*
X1163130Y1161000D01*
X1162600Y1160930D01*
X1162070Y1160600D01*
X1161730Y1160200D01*
X1161670Y1159800D01*
X1161800Y1159330D01*
X1162270Y1159000D01*
X1162730Y1158870D01*
X1163330D01*
G01X1162730D02*
X1162330Y1158670D01*
X1162000Y1158330D01*
X1161870Y1157930D01*
X1162000Y1157530D01*
X1162330Y1157200D01*
X1162930Y1157000D01*
X1163530Y1157070D01*
X1164130Y1157330D01*
G01X1153470Y1235670D02*
X1153070Y1235870D01*
X1152600Y1236000D01*
X1152070D01*
X1151470Y1235800D01*
X1151000Y1235470D01*
X1150670Y1235070D01*
X1150400Y1234400D01*
X1150330Y1233800D01*
X1150470Y1233200D01*
X1150670Y1232800D01*
X1151070Y1232400D01*
X1151530Y1232130D01*
X1152000Y1232000D01*
X1152470D01*
X1152930Y1232130D01*
X1153330Y1232330D01*
X1153670Y1232600D01*
G01X1156300Y1232000D02*
Y1236000D01*
X1155500Y1235200D01*
G01Y1232000D02*
X1157100D01*
G01X1160600D02*
X1161070Y1232070D01*
X1161600Y1232270D01*
X1161930Y1232600D01*
X1162070Y1233070D01*
X1161930Y1233530D01*
X1161530Y1233930D01*
X1160930Y1234130D01*
X1160270D01*
X1159870Y1234270D01*
X1159530Y1234600D01*
X1159400Y1235070D01*
X1159600Y1235530D01*
X1160070Y1235870D01*
X1160600Y1236000D01*
X1161130Y1235870D01*
X1161600Y1235530D01*
X1161800Y1235070D01*
X1161670Y1234600D01*
X1161330Y1234270D01*
X1160930Y1234130D01*
X1160270D01*
X1159670Y1233930D01*
X1159270Y1233530D01*
X1159130Y1233070D01*
X1159270Y1232600D01*
X1159600Y1232270D01*
X1160130Y1232070D01*
X1160600Y1232000D01*
G01X1153470Y1241670D02*
X1153070Y1241870D01*
X1152600Y1242000D01*
X1152070D01*
X1151470Y1241800D01*
X1151000Y1241470D01*
X1150670Y1241070D01*
X1150400Y1240400D01*
X1150330Y1239800D01*
X1150470Y1239200D01*
X1150670Y1238800D01*
X1151070Y1238400D01*
X1151530Y1238130D01*
X1152000Y1238000D01*
X1152470D01*
X1152930Y1238130D01*
X1153330Y1238330D01*
X1153670Y1238600D01*
G01X1156300Y1238000D02*
Y1242000D01*
X1155500Y1241200D01*
G01Y1238000D02*
X1157100D01*
G01X1160470D02*
X1160600Y1238870D01*
X1160800Y1239600D01*
X1161070Y1240270D01*
X1161400Y1241000D01*
X1161930Y1242000D01*
X1159270D01*
G01X1197670Y1232530D02*
X1197870Y1232930D01*
X1198000Y1233400D01*
Y1233930D01*
X1197800Y1234530D01*
X1197470Y1235000D01*
X1197070Y1235330D01*
X1196400Y1235600D01*
X1195800Y1235670D01*
X1195200Y1235530D01*
X1194800Y1235330D01*
X1194400Y1234930D01*
X1194130Y1234470D01*
X1194000Y1234000D01*
Y1233530D01*
X1194130Y1233070D01*
X1194330Y1232670D01*
X1194600Y1232330D01*
G01X1194000Y1229700D02*
X1198000D01*
X1197200Y1230500D01*
G01X1194000D02*
Y1228900D01*
G01X1194470Y1226530D02*
X1194130Y1226070D01*
X1194000Y1225530D01*
X1194130Y1225000D01*
X1194530Y1224530D01*
X1195130Y1224200D01*
X1195730Y1224070D01*
X1196470D01*
X1197070Y1224200D01*
X1197600Y1224530D01*
X1197870Y1224930D01*
X1198000Y1225400D01*
X1197870Y1225930D01*
X1197600Y1226330D01*
X1197200Y1226600D01*
X1196670Y1226730D01*
X1196200Y1226600D01*
X1195730Y1226270D01*
X1195470Y1225870D01*
X1195400Y1225400D01*
X1195530Y1224870D01*
X1195870Y1224470D01*
X1196470Y1224070D01*
G01X1190670Y1232530D02*
X1190870Y1232930D01*
X1191000Y1233400D01*
Y1233930D01*
X1190800Y1234530D01*
X1190470Y1235000D01*
X1190070Y1235330D01*
X1189400Y1235600D01*
X1188800Y1235670D01*
X1188200Y1235530D01*
X1187800Y1235330D01*
X1187400Y1234930D01*
X1187130Y1234470D01*
X1187000Y1234000D01*
Y1233530D01*
X1187130Y1233070D01*
X1187330Y1232670D01*
X1187600Y1232330D01*
G01X1187800Y1231170D02*
X1187330Y1230770D01*
X1187070Y1230230D01*
X1187000Y1229630D01*
X1187070Y1229100D01*
X1187400Y1228570D01*
X1187800Y1228230D01*
X1188200Y1228170D01*
X1188670Y1228300D01*
X1189000Y1228770D01*
X1189130Y1229230D01*
Y1229830D01*
G01Y1229230D02*
X1189330Y1228830D01*
X1189670Y1228500D01*
X1190070Y1228370D01*
X1190470Y1228500D01*
X1190800Y1228830D01*
X1191000Y1229430D01*
X1190930Y1230030D01*
X1190670Y1230630D01*
G01X1190330Y1226670D02*
X1190730Y1226270D01*
X1190930Y1225800D01*
X1191000Y1225270D01*
X1190870Y1224600D01*
X1190530Y1224130D01*
X1190130Y1224000D01*
X1189730Y1224070D01*
X1189400Y1224330D01*
X1188730Y1225670D01*
X1188270Y1226270D01*
X1187600Y1226670D01*
X1187000Y1226800D01*
Y1224000D01*
G01X1207470Y1317670D02*
X1207070Y1317870D01*
X1206600Y1318000D01*
X1206070D01*
X1205470Y1317800D01*
X1205000Y1317470D01*
X1204670Y1317070D01*
X1204400Y1316400D01*
X1204330Y1315800D01*
X1204470Y1315200D01*
X1204670Y1314800D01*
X1205070Y1314400D01*
X1205530Y1314130D01*
X1206000Y1314000D01*
X1206470D01*
X1206930Y1314130D01*
X1207330Y1314330D01*
X1207670Y1314600D01*
G01X1210300Y1314000D02*
Y1318000D01*
X1209500Y1317200D01*
G01Y1314000D02*
X1211100D01*
G01X1213130Y1314800D02*
X1213530Y1314330D01*
X1214070Y1314070D01*
X1214670Y1314000D01*
X1215200Y1314070D01*
X1215730Y1314400D01*
X1216070Y1314800D01*
X1216130Y1315200D01*
X1216000Y1315670D01*
X1215530Y1316000D01*
X1215070Y1316130D01*
X1214470D01*
G01X1215070D02*
X1215470Y1316330D01*
X1215800Y1316670D01*
X1215930Y1317070D01*
X1215800Y1317470D01*
X1215470Y1317800D01*
X1214870Y1318000D01*
X1214270Y1317930D01*
X1213670Y1317670D01*
G01X1204470Y1303670D02*
X1204070Y1303870D01*
X1203600Y1304000D01*
X1203070D01*
X1202470Y1303800D01*
X1202000Y1303470D01*
X1201670Y1303070D01*
X1201400Y1302400D01*
X1201330Y1301800D01*
X1201470Y1301200D01*
X1201670Y1300800D01*
X1202070Y1300400D01*
X1202530Y1300130D01*
X1203000Y1300000D01*
X1203470D01*
X1203930Y1300130D01*
X1204330Y1300330D01*
X1204670Y1300600D01*
G01X1206030Y1303330D02*
X1206430Y1303730D01*
X1206900Y1303930D01*
X1207430Y1304000D01*
X1208100Y1303870D01*
X1208570Y1303530D01*
X1208700Y1303130D01*
X1208630Y1302730D01*
X1208370Y1302400D01*
X1207030Y1301730D01*
X1206430Y1301270D01*
X1206030Y1300600D01*
X1205900Y1300000D01*
X1208700D01*
G01X1211600D02*
Y1304000D01*
X1210800Y1303200D01*
G01Y1300000D02*
X1212400D01*
G01X1198470Y1355670D02*
X1198070Y1355870D01*
X1197600Y1356000D01*
X1197070D01*
X1196470Y1355800D01*
X1196000Y1355470D01*
X1195670Y1355070D01*
X1195400Y1354400D01*
X1195330Y1353800D01*
X1195470Y1353200D01*
X1195670Y1352800D01*
X1196070Y1352400D01*
X1196530Y1352130D01*
X1197000Y1352000D01*
X1197470D01*
X1197930Y1352130D01*
X1198330Y1352330D01*
X1198670Y1352600D01*
G01X1200030Y1355330D02*
X1200430Y1355730D01*
X1200900Y1355930D01*
X1201430Y1356000D01*
X1202100Y1355870D01*
X1202570Y1355530D01*
X1202700Y1355130D01*
X1202630Y1354730D01*
X1202370Y1354400D01*
X1201030Y1353730D01*
X1200430Y1353270D01*
X1200030Y1352600D01*
X1199900Y1352000D01*
X1202700D01*
G01X1206400D02*
Y1356000D01*
X1203930Y1353130D01*
X1207270D01*
G01X1222330Y1181000D02*
Y1185000D01*
X1219670D01*
G01X1218170Y1184200D02*
X1217770Y1184670D01*
X1217230Y1184930D01*
X1216630Y1185000D01*
X1216100Y1184930D01*
X1215570Y1184600D01*
X1215230Y1184200D01*
X1215170Y1183800D01*
X1215300Y1183330D01*
X1215770Y1183000D01*
X1216230Y1182870D01*
X1216830D01*
G01X1216230D02*
X1215830Y1182670D01*
X1215500Y1182330D01*
X1215370Y1181930D01*
X1215500Y1181530D01*
X1215830Y1181200D01*
X1216430Y1181000D01*
X1217030Y1181070D01*
X1217630Y1181330D01*
G01X1249470Y1286670D02*
X1249070Y1286870D01*
X1248600Y1287000D01*
X1248070D01*
X1247470Y1286800D01*
X1247000Y1286470D01*
X1246670Y1286070D01*
X1246400Y1285400D01*
X1246330Y1284800D01*
X1246470Y1284200D01*
X1246670Y1283800D01*
X1247070Y1283400D01*
X1247530Y1283130D01*
X1248000Y1283000D01*
X1248470D01*
X1248930Y1283130D01*
X1249330Y1283330D01*
X1249670Y1283600D01*
G01X1252300Y1283000D02*
Y1287000D01*
X1251500Y1286200D01*
G01Y1283000D02*
X1253100D01*
G01X1255330Y1286330D02*
X1255730Y1286730D01*
X1256200Y1286930D01*
X1256730Y1287000D01*
X1257400Y1286870D01*
X1257870Y1286530D01*
X1258000Y1286130D01*
X1257930Y1285730D01*
X1257670Y1285400D01*
X1256330Y1284730D01*
X1255730Y1284270D01*
X1255330Y1283600D01*
X1255200Y1283000D01*
X1258000D01*
G01X1215470Y1274670D02*
X1215070Y1274870D01*
X1214600Y1275000D01*
X1214070D01*
X1213470Y1274800D01*
X1213000Y1274470D01*
X1212670Y1274070D01*
X1212400Y1273400D01*
X1212330Y1272800D01*
X1212470Y1272200D01*
X1212670Y1271800D01*
X1213070Y1271400D01*
X1213530Y1271130D01*
X1214000Y1271000D01*
X1214470D01*
X1214930Y1271130D01*
X1215330Y1271330D01*
X1215670Y1271600D01*
G01X1217030Y1274330D02*
X1217430Y1274730D01*
X1217900Y1274930D01*
X1218430Y1275000D01*
X1219100Y1274870D01*
X1219570Y1274530D01*
X1219700Y1274130D01*
X1219630Y1273730D01*
X1219370Y1273400D01*
X1218030Y1272730D01*
X1217430Y1272270D01*
X1217030Y1271600D01*
X1216900Y1271000D01*
X1219700D01*
G01X1221330Y1272670D02*
X1221800Y1273130D01*
X1222200Y1273400D01*
X1222730Y1273530D01*
X1223200Y1273400D01*
X1223530Y1273130D01*
X1223800Y1272730D01*
X1223870Y1272270D01*
X1223800Y1271870D01*
X1223530Y1271470D01*
X1223130Y1271130D01*
X1222670Y1271000D01*
X1222130Y1271130D01*
X1221670Y1271530D01*
X1221400Y1272130D01*
X1221330Y1272800D01*
X1221470Y1273670D01*
X1221670Y1274130D01*
X1222000Y1274600D01*
X1222470Y1274930D01*
X1222930Y1275000D01*
X1223400Y1274870D01*
X1223730Y1274530D01*
G01X1206330Y1262470D02*
X1206130Y1262070D01*
X1206000Y1261600D01*
Y1261070D01*
X1206200Y1260470D01*
X1206530Y1260000D01*
X1206930Y1259670D01*
X1207600Y1259400D01*
X1208200Y1259330D01*
X1208800Y1259470D01*
X1209200Y1259670D01*
X1209600Y1260070D01*
X1209870Y1260530D01*
X1210000Y1261000D01*
Y1261470D01*
X1209870Y1261930D01*
X1209670Y1262330D01*
X1209400Y1262670D01*
G01X1210000Y1265300D02*
X1206000D01*
X1206800Y1264500D01*
G01X1210000D02*
Y1266100D01*
G01X1208330Y1268330D02*
X1207870Y1268800D01*
X1207600Y1269200D01*
X1207470Y1269730D01*
X1207600Y1270200D01*
X1207870Y1270530D01*
X1208270Y1270800D01*
X1208730Y1270870D01*
X1209130Y1270800D01*
X1209530Y1270530D01*
X1209870Y1270130D01*
X1210000Y1269670D01*
X1209870Y1269130D01*
X1209470Y1268670D01*
X1208870Y1268400D01*
X1208200Y1268330D01*
X1207330Y1268470D01*
X1206870Y1268670D01*
X1206400Y1269000D01*
X1206070Y1269470D01*
X1206000Y1269930D01*
X1206130Y1270400D01*
X1206470Y1270730D01*
G01X1222670Y1282500D02*
Y1278500D01*
X1225330D01*
G01X1227030Y1281830D02*
X1227430Y1282230D01*
X1227900Y1282430D01*
X1228430Y1282500D01*
X1229100Y1282370D01*
X1229570Y1282030D01*
X1229700Y1281630D01*
X1229630Y1281230D01*
X1229370Y1280900D01*
X1228030Y1280230D01*
X1227430Y1279770D01*
X1227030Y1279100D01*
X1226900Y1278500D01*
X1229700D01*
G01X1242670Y1323000D02*
Y1319000D01*
X1245330D01*
G01X1248300D02*
Y1323000D01*
X1247500Y1322200D01*
G01Y1319000D02*
X1249100D01*
G01X1251130Y1319800D02*
X1251530Y1319330D01*
X1252070Y1319070D01*
X1252670Y1319000D01*
X1253200Y1319070D01*
X1253730Y1319400D01*
X1254070Y1319800D01*
X1254130Y1320200D01*
X1254000Y1320670D01*
X1253530Y1321000D01*
X1253070Y1321130D01*
X1252470D01*
G01X1253070D02*
X1253470Y1321330D01*
X1253800Y1321670D01*
X1253930Y1322070D01*
X1253800Y1322470D01*
X1253470Y1322800D01*
X1252870Y1323000D01*
X1252270Y1322930D01*
X1251670Y1322670D01*
G01X1222470Y1302670D02*
X1222070Y1302870D01*
X1221600Y1303000D01*
X1221070D01*
X1220470Y1302800D01*
X1220000Y1302470D01*
X1219670Y1302070D01*
X1219400Y1301400D01*
X1219330Y1300800D01*
X1219470Y1300200D01*
X1219670Y1299800D01*
X1220070Y1299400D01*
X1220530Y1299130D01*
X1221000Y1299000D01*
X1221470D01*
X1221930Y1299130D01*
X1222330Y1299330D01*
X1222670Y1299600D01*
G01X1224030Y1302330D02*
X1224430Y1302730D01*
X1224900Y1302930D01*
X1225430Y1303000D01*
X1226100Y1302870D01*
X1226570Y1302530D01*
X1226700Y1302130D01*
X1226630Y1301730D01*
X1226370Y1301400D01*
X1225030Y1300730D01*
X1224430Y1300270D01*
X1224030Y1299600D01*
X1223900Y1299000D01*
X1226700D01*
G01X1228130Y1299600D02*
X1228530Y1299270D01*
X1229000Y1299070D01*
X1229600Y1299000D01*
X1230200Y1299130D01*
X1230670Y1299400D01*
X1231000Y1299870D01*
X1231070Y1300400D01*
X1230930Y1300930D01*
X1230600Y1301270D01*
X1230130Y1301530D01*
X1229670Y1301600D01*
X1229200Y1301530D01*
X1228600Y1301270D01*
X1228800Y1303000D01*
X1230600D01*
G01X1241500Y1290670D02*
X1245500D01*
Y1293330D01*
G01Y1297100D02*
X1241500D01*
X1244370Y1294630D01*
Y1297970D01*
G01X1218330Y1358470D02*
X1218130Y1358070D01*
X1218000Y1357600D01*
Y1357070D01*
X1218200Y1356470D01*
X1218530Y1356000D01*
X1218930Y1355670D01*
X1219600Y1355400D01*
X1220200Y1355330D01*
X1220800Y1355470D01*
X1221200Y1355670D01*
X1221600Y1356070D01*
X1221870Y1356530D01*
X1222000Y1357000D01*
Y1357470D01*
X1221870Y1357930D01*
X1221670Y1358330D01*
X1221400Y1358670D01*
G01X1218670Y1360030D02*
X1218270Y1360430D01*
X1218070Y1360900D01*
X1218000Y1361430D01*
X1218130Y1362100D01*
X1218470Y1362570D01*
X1218870Y1362700D01*
X1219270Y1362630D01*
X1219600Y1362370D01*
X1220270Y1361030D01*
X1220730Y1360430D01*
X1221400Y1360030D01*
X1222000Y1359900D01*
Y1362700D01*
G01Y1365470D02*
X1221130Y1365600D01*
X1220400Y1365800D01*
X1219730Y1366070D01*
X1219000Y1366400D01*
X1218000Y1366930D01*
Y1364270D01*
G01X1222470Y1384670D02*
X1222070Y1384870D01*
X1221600Y1385000D01*
X1221070D01*
X1220470Y1384800D01*
X1220000Y1384470D01*
X1219670Y1384070D01*
X1219400Y1383400D01*
X1219330Y1382800D01*
X1219470Y1382200D01*
X1219670Y1381800D01*
X1220070Y1381400D01*
X1220530Y1381130D01*
X1221000Y1381000D01*
X1221470D01*
X1221930Y1381130D01*
X1222330Y1381330D01*
X1222670Y1381600D01*
G01X1225300Y1381000D02*
Y1385000D01*
X1224500Y1384200D01*
G01Y1381000D02*
X1226100D01*
G01X1228130Y1381600D02*
X1228530Y1381270D01*
X1229000Y1381070D01*
X1229600Y1381000D01*
X1230200Y1381130D01*
X1230670Y1381400D01*
X1231000Y1381870D01*
X1231070Y1382400D01*
X1230930Y1382930D01*
X1230600Y1383270D01*
X1230130Y1383530D01*
X1229670Y1383600D01*
X1229200Y1383530D01*
X1228600Y1383270D01*
X1228800Y1385000D01*
X1230600D01*
G01X1265670Y1063530D02*
X1265870Y1063930D01*
X1266000Y1064400D01*
Y1064930D01*
X1265800Y1065530D01*
X1265470Y1066000D01*
X1265070Y1066330D01*
X1264400Y1066600D01*
X1263800Y1066670D01*
X1263200Y1066530D01*
X1262800Y1066330D01*
X1262400Y1065930D01*
X1262130Y1065470D01*
X1262000Y1065000D01*
Y1064530D01*
X1262130Y1064070D01*
X1262330Y1063670D01*
X1262600Y1063330D01*
G01X1265330Y1061970D02*
X1265730Y1061570D01*
X1265930Y1061100D01*
X1266000Y1060570D01*
X1265870Y1059900D01*
X1265530Y1059430D01*
X1265130Y1059300D01*
X1264730Y1059370D01*
X1264400Y1059630D01*
X1263730Y1060970D01*
X1263270Y1061570D01*
X1262600Y1061970D01*
X1262000Y1062100D01*
Y1059300D01*
G01X1266000Y1056400D02*
X1265870Y1056930D01*
X1265530Y1057330D01*
X1265130Y1057600D01*
X1264600Y1057800D01*
X1264000Y1057870D01*
X1263400Y1057800D01*
X1262870Y1057600D01*
X1262470Y1057330D01*
X1262130Y1056930D01*
X1262000Y1056400D01*
X1262130Y1055870D01*
X1262470Y1055470D01*
X1262870Y1055200D01*
X1263400Y1055000D01*
X1264000Y1054930D01*
X1264600Y1055000D01*
X1265130Y1055200D01*
X1265530Y1055470D01*
X1265870Y1055870D01*
X1266000Y1056400D01*
G01X1254000Y1066330D02*
X1258000D01*
Y1064670D01*
X1257800Y1064130D01*
X1257530Y1063800D01*
X1257000Y1063670D01*
X1256470Y1063800D01*
X1256130Y1064200D01*
X1255930Y1064670D01*
Y1066330D01*
G01Y1064670D02*
X1254000Y1063670D01*
G01Y1060700D02*
X1258000D01*
X1257200Y1061500D01*
G01X1254000D02*
Y1059900D01*
G01X1273470Y1127670D02*
X1273070Y1127870D01*
X1272600Y1128000D01*
X1272070D01*
X1271470Y1127800D01*
X1271000Y1127470D01*
X1270670Y1127070D01*
X1270400Y1126400D01*
X1270330Y1125800D01*
X1270470Y1125200D01*
X1270670Y1124800D01*
X1271070Y1124400D01*
X1271530Y1124130D01*
X1272000Y1124000D01*
X1272470D01*
X1272930Y1124130D01*
X1273330Y1124330D01*
X1273670Y1124600D01*
G01X1274830D02*
X1275230Y1124270D01*
X1275700Y1124070D01*
X1276300Y1124000D01*
X1276900Y1124130D01*
X1277370Y1124400D01*
X1277700Y1124870D01*
X1277770Y1125400D01*
X1277630Y1125930D01*
X1277300Y1126270D01*
X1276830Y1126530D01*
X1276370Y1126600D01*
X1275900Y1126530D01*
X1275300Y1126270D01*
X1275500Y1128000D01*
X1277300D01*
G01X1270470Y1167670D02*
X1270070Y1167870D01*
X1269600Y1168000D01*
X1269070D01*
X1268470Y1167800D01*
X1268000Y1167470D01*
X1267670Y1167070D01*
X1267400Y1166400D01*
X1267330Y1165800D01*
X1267470Y1165200D01*
X1267670Y1164800D01*
X1268070Y1164400D01*
X1268530Y1164130D01*
X1269000Y1164000D01*
X1269470D01*
X1269930Y1164130D01*
X1270330Y1164330D01*
X1270670Y1164600D01*
G01X1273300Y1164000D02*
Y1168000D01*
X1272500Y1167200D01*
G01Y1164000D02*
X1274100D01*
G01X1277600Y1168000D02*
X1277070Y1167870D01*
X1276670Y1167530D01*
X1276400Y1167130D01*
X1276200Y1166600D01*
X1276130Y1166000D01*
X1276200Y1165400D01*
X1276400Y1164870D01*
X1276670Y1164470D01*
X1277070Y1164130D01*
X1277600Y1164000D01*
X1278130Y1164130D01*
X1278530Y1164470D01*
X1278800Y1164870D01*
X1279000Y1165400D01*
X1279070Y1166000D01*
X1279000Y1166600D01*
X1278800Y1167130D01*
X1278530Y1167530D01*
X1278130Y1167870D01*
X1277600Y1168000D01*
G01X1273470Y1142670D02*
X1273070Y1142870D01*
X1272600Y1143000D01*
X1272070D01*
X1271470Y1142800D01*
X1271000Y1142470D01*
X1270670Y1142070D01*
X1270400Y1141400D01*
X1270330Y1140800D01*
X1270470Y1140200D01*
X1270670Y1139800D01*
X1271070Y1139400D01*
X1271530Y1139130D01*
X1272000Y1139000D01*
X1272470D01*
X1272930Y1139130D01*
X1273330Y1139330D01*
X1273670Y1139600D01*
G01X1275170Y1139470D02*
X1275630Y1139130D01*
X1276170Y1139000D01*
X1276700Y1139130D01*
X1277170Y1139530D01*
X1277500Y1140130D01*
X1277630Y1140730D01*
Y1141470D01*
X1277500Y1142070D01*
X1277170Y1142600D01*
X1276770Y1142870D01*
X1276300Y1143000D01*
X1275770Y1142870D01*
X1275370Y1142600D01*
X1275100Y1142200D01*
X1274970Y1141670D01*
X1275100Y1141200D01*
X1275430Y1140730D01*
X1275830Y1140470D01*
X1276300Y1140400D01*
X1276830Y1140530D01*
X1277230Y1140870D01*
X1277630Y1141470D01*
G01X1271470Y1159670D02*
X1271070Y1159870D01*
X1270600Y1160000D01*
X1270070D01*
X1269470Y1159800D01*
X1269000Y1159470D01*
X1268670Y1159070D01*
X1268400Y1158400D01*
X1268330Y1157800D01*
X1268470Y1157200D01*
X1268670Y1156800D01*
X1269070Y1156400D01*
X1269530Y1156130D01*
X1270000Y1156000D01*
X1270470D01*
X1270930Y1156130D01*
X1271330Y1156330D01*
X1271670Y1156600D01*
G01X1274300Y1156000D02*
X1274770Y1156070D01*
X1275300Y1156270D01*
X1275630Y1156600D01*
X1275770Y1157070D01*
X1275630Y1157530D01*
X1275230Y1157930D01*
X1274630Y1158130D01*
X1273970D01*
X1273570Y1158270D01*
X1273230Y1158600D01*
X1273100Y1159070D01*
X1273300Y1159530D01*
X1273770Y1159870D01*
X1274300Y1160000D01*
X1274830Y1159870D01*
X1275300Y1159530D01*
X1275500Y1159070D01*
X1275370Y1158600D01*
X1275030Y1158270D01*
X1274630Y1158130D01*
X1273970D01*
X1273370Y1157930D01*
X1272970Y1157530D01*
X1272830Y1157070D01*
X1272970Y1156600D01*
X1273300Y1156270D01*
X1273830Y1156070D01*
X1274300Y1156000D01*
G01X1278470Y1278670D02*
X1278070Y1278870D01*
X1277600Y1279000D01*
X1277070D01*
X1276470Y1278800D01*
X1276000Y1278470D01*
X1275670Y1278070D01*
X1275400Y1277400D01*
X1275330Y1276800D01*
X1275470Y1276200D01*
X1275670Y1275800D01*
X1276070Y1275400D01*
X1276530Y1275130D01*
X1277000Y1275000D01*
X1277470D01*
X1277930Y1275130D01*
X1278330Y1275330D01*
X1278670Y1275600D01*
G01X1280030Y1278330D02*
X1280430Y1278730D01*
X1280900Y1278930D01*
X1281430Y1279000D01*
X1282100Y1278870D01*
X1282570Y1278530D01*
X1282700Y1278130D01*
X1282630Y1277730D01*
X1282370Y1277400D01*
X1281030Y1276730D01*
X1280430Y1276270D01*
X1280030Y1275600D01*
X1279900Y1275000D01*
X1282700D01*
G01X1284470Y1275470D02*
X1284930Y1275130D01*
X1285470Y1275000D01*
X1286000Y1275130D01*
X1286470Y1275530D01*
X1286800Y1276130D01*
X1286930Y1276730D01*
Y1277470D01*
X1286800Y1278070D01*
X1286470Y1278600D01*
X1286070Y1278870D01*
X1285600Y1279000D01*
X1285070Y1278870D01*
X1284670Y1278600D01*
X1284400Y1278200D01*
X1284270Y1277670D01*
X1284400Y1277200D01*
X1284730Y1276730D01*
X1285130Y1276470D01*
X1285600Y1276400D01*
X1286130Y1276530D01*
X1286530Y1276870D01*
X1286930Y1277470D01*
G01X1275670Y1265000D02*
Y1269000D01*
X1277330D01*
X1277870Y1268800D01*
X1278200Y1268530D01*
X1278330Y1268000D01*
X1278200Y1267470D01*
X1277800Y1267130D01*
X1277330Y1266930D01*
X1275670D01*
G01X1277330D02*
X1278330Y1265000D01*
G01X1280030Y1268330D02*
X1280430Y1268730D01*
X1280900Y1268930D01*
X1281430Y1269000D01*
X1282100Y1268870D01*
X1282570Y1268530D01*
X1282700Y1268130D01*
X1282630Y1267730D01*
X1282370Y1267400D01*
X1281030Y1266730D01*
X1280430Y1266270D01*
X1280030Y1265600D01*
X1279900Y1265000D01*
X1282700D01*
G01X1251470Y1342670D02*
X1251070Y1342870D01*
X1250600Y1343000D01*
X1250070D01*
X1249470Y1342800D01*
X1249000Y1342470D01*
X1248670Y1342070D01*
X1248400Y1341400D01*
X1248330Y1340800D01*
X1248470Y1340200D01*
X1248670Y1339800D01*
X1249070Y1339400D01*
X1249530Y1339130D01*
X1250000Y1339000D01*
X1250470D01*
X1250930Y1339130D01*
X1251330Y1339330D01*
X1251670Y1339600D01*
G01X1254300Y1339000D02*
Y1343000D01*
X1253500Y1342200D01*
G01Y1339000D02*
X1255100D01*
G01X1259400D02*
Y1343000D01*
X1256930Y1340130D01*
X1260270D01*
G01X1298470Y1131670D02*
X1298070Y1131870D01*
X1297600Y1132000D01*
X1297070D01*
X1296470Y1131800D01*
X1296000Y1131470D01*
X1295670Y1131070D01*
X1295400Y1130400D01*
X1295330Y1129800D01*
X1295470Y1129200D01*
X1295670Y1128800D01*
X1296070Y1128400D01*
X1296530Y1128130D01*
X1297000Y1128000D01*
X1297470D01*
X1297930Y1128130D01*
X1298330Y1128330D01*
X1298670Y1128600D01*
G01X1300030Y1131330D02*
X1300430Y1131730D01*
X1300900Y1131930D01*
X1301430Y1132000D01*
X1302100Y1131870D01*
X1302570Y1131530D01*
X1302700Y1131130D01*
X1302630Y1130730D01*
X1302370Y1130400D01*
X1301030Y1129730D01*
X1300430Y1129270D01*
X1300030Y1128600D01*
X1299900Y1128000D01*
X1302700D01*
G01X1304330Y1131330D02*
X1304730Y1131730D01*
X1305200Y1131930D01*
X1305730Y1132000D01*
X1306400Y1131870D01*
X1306870Y1131530D01*
X1307000Y1131130D01*
X1306930Y1130730D01*
X1306670Y1130400D01*
X1305330Y1129730D01*
X1304730Y1129270D01*
X1304330Y1128600D01*
X1304200Y1128000D01*
X1307000D01*
G01X1319470Y1191670D02*
X1319070Y1191870D01*
X1318600Y1192000D01*
X1318070D01*
X1317470Y1191800D01*
X1317000Y1191470D01*
X1316670Y1191070D01*
X1316400Y1190400D01*
X1316330Y1189800D01*
X1316470Y1189200D01*
X1316670Y1188800D01*
X1317070Y1188400D01*
X1317530Y1188130D01*
X1318000Y1188000D01*
X1318470D01*
X1318930Y1188130D01*
X1319330Y1188330D01*
X1319670Y1188600D01*
G01X1321030Y1191330D02*
X1321430Y1191730D01*
X1321900Y1191930D01*
X1322430Y1192000D01*
X1323100Y1191870D01*
X1323570Y1191530D01*
X1323700Y1191130D01*
X1323630Y1190730D01*
X1323370Y1190400D01*
X1322030Y1189730D01*
X1321430Y1189270D01*
X1321030Y1188600D01*
X1320900Y1188000D01*
X1323700D01*
G01X1325130Y1188800D02*
X1325530Y1188330D01*
X1326070Y1188070D01*
X1326670Y1188000D01*
X1327200Y1188070D01*
X1327730Y1188400D01*
X1328070Y1188800D01*
X1328130Y1189200D01*
X1328000Y1189670D01*
X1327530Y1190000D01*
X1327070Y1190130D01*
X1326470D01*
G01X1327070D02*
X1327470Y1190330D01*
X1327800Y1190670D01*
X1327930Y1191070D01*
X1327800Y1191470D01*
X1327470Y1191800D01*
X1326870Y1192000D01*
X1326270Y1191930D01*
X1325670Y1191670D01*
G01X1308470Y1275670D02*
X1308070Y1275870D01*
X1307600Y1276000D01*
X1307070D01*
X1306470Y1275800D01*
X1306000Y1275470D01*
X1305670Y1275070D01*
X1305400Y1274400D01*
X1305330Y1273800D01*
X1305470Y1273200D01*
X1305670Y1272800D01*
X1306070Y1272400D01*
X1306530Y1272130D01*
X1307000Y1272000D01*
X1307470D01*
X1307930Y1272130D01*
X1308330Y1272330D01*
X1308670Y1272600D01*
G01X1309830Y1272800D02*
X1310230Y1272330D01*
X1310770Y1272070D01*
X1311370Y1272000D01*
X1311900Y1272070D01*
X1312430Y1272400D01*
X1312770Y1272800D01*
X1312830Y1273200D01*
X1312700Y1273670D01*
X1312230Y1274000D01*
X1311770Y1274130D01*
X1311170D01*
G01X1311770D02*
X1312170Y1274330D01*
X1312500Y1274670D01*
X1312630Y1275070D01*
X1312500Y1275470D01*
X1312170Y1275800D01*
X1311570Y1276000D01*
X1310970Y1275930D01*
X1310370Y1275670D01*
G01X1314330Y1273670D02*
X1314800Y1274130D01*
X1315200Y1274400D01*
X1315730Y1274530D01*
X1316200Y1274400D01*
X1316530Y1274130D01*
X1316800Y1273730D01*
X1316870Y1273270D01*
X1316800Y1272870D01*
X1316530Y1272470D01*
X1316130Y1272130D01*
X1315670Y1272000D01*
X1315130Y1272130D01*
X1314670Y1272530D01*
X1314400Y1273130D01*
X1314330Y1273800D01*
X1314470Y1274670D01*
X1314670Y1275130D01*
X1315000Y1275600D01*
X1315470Y1275930D01*
X1315930Y1276000D01*
X1316400Y1275870D01*
X1316730Y1275530D01*
G01X1308470Y1269670D02*
X1308070Y1269870D01*
X1307600Y1270000D01*
X1307070D01*
X1306470Y1269800D01*
X1306000Y1269470D01*
X1305670Y1269070D01*
X1305400Y1268400D01*
X1305330Y1267800D01*
X1305470Y1267200D01*
X1305670Y1266800D01*
X1306070Y1266400D01*
X1306530Y1266130D01*
X1307000Y1266000D01*
X1307470D01*
X1307930Y1266130D01*
X1308330Y1266330D01*
X1308670Y1266600D01*
G01X1309830Y1266800D02*
X1310230Y1266330D01*
X1310770Y1266070D01*
X1311370Y1266000D01*
X1311900Y1266070D01*
X1312430Y1266400D01*
X1312770Y1266800D01*
X1312830Y1267200D01*
X1312700Y1267670D01*
X1312230Y1268000D01*
X1311770Y1268130D01*
X1311170D01*
G01X1311770D02*
X1312170Y1268330D01*
X1312500Y1268670D01*
X1312630Y1269070D01*
X1312500Y1269470D01*
X1312170Y1269800D01*
X1311570Y1270000D01*
X1310970Y1269930D01*
X1310370Y1269670D01*
G01X1315470Y1266000D02*
X1315600Y1266870D01*
X1315800Y1267600D01*
X1316070Y1268270D01*
X1316400Y1269000D01*
X1316930Y1270000D01*
X1314270D01*
G01X1309470Y1262670D02*
X1309070Y1262870D01*
X1308600Y1263000D01*
X1308070D01*
X1307470Y1262800D01*
X1307000Y1262470D01*
X1306670Y1262070D01*
X1306400Y1261400D01*
X1306330Y1260800D01*
X1306470Y1260200D01*
X1306670Y1259800D01*
X1307070Y1259400D01*
X1307530Y1259130D01*
X1308000Y1259000D01*
X1308470D01*
X1308930Y1259130D01*
X1309330Y1259330D01*
X1309670Y1259600D01*
G01X1310830Y1259800D02*
X1311230Y1259330D01*
X1311770Y1259070D01*
X1312370Y1259000D01*
X1312900Y1259070D01*
X1313430Y1259400D01*
X1313770Y1259800D01*
X1313830Y1260200D01*
X1313700Y1260670D01*
X1313230Y1261000D01*
X1312770Y1261130D01*
X1312170D01*
G01X1312770D02*
X1313170Y1261330D01*
X1313500Y1261670D01*
X1313630Y1262070D01*
X1313500Y1262470D01*
X1313170Y1262800D01*
X1312570Y1263000D01*
X1311970Y1262930D01*
X1311370Y1262670D01*
G01X1316600Y1259000D02*
X1317070Y1259070D01*
X1317600Y1259270D01*
X1317930Y1259600D01*
X1318070Y1260070D01*
X1317930Y1260530D01*
X1317530Y1260930D01*
X1316930Y1261130D01*
X1316270D01*
X1315870Y1261270D01*
X1315530Y1261600D01*
X1315400Y1262070D01*
X1315600Y1262530D01*
X1316070Y1262870D01*
X1316600Y1263000D01*
X1317130Y1262870D01*
X1317600Y1262530D01*
X1317800Y1262070D01*
X1317670Y1261600D01*
X1317330Y1261270D01*
X1316930Y1261130D01*
X1316270D01*
X1315670Y1260930D01*
X1315270Y1260530D01*
X1315130Y1260070D01*
X1315270Y1259600D01*
X1315600Y1259270D01*
X1316130Y1259070D01*
X1316600Y1259000D01*
G01X1289670Y1260000D02*
Y1264000D01*
X1291330D01*
X1291870Y1263800D01*
X1292200Y1263530D01*
X1292330Y1263000D01*
X1292200Y1262470D01*
X1291800Y1262130D01*
X1291330Y1261930D01*
X1289670D01*
G01X1291330D02*
X1292330Y1260000D01*
G01X1295300D02*
Y1264000D01*
X1294500Y1263200D01*
G01Y1260000D02*
X1296100D01*
G01X1298130Y1260800D02*
X1298530Y1260330D01*
X1299070Y1260070D01*
X1299670Y1260000D01*
X1300200Y1260070D01*
X1300730Y1260400D01*
X1301070Y1260800D01*
X1301130Y1261200D01*
X1301000Y1261670D01*
X1300530Y1262000D01*
X1300070Y1262130D01*
X1299470D01*
G01X1300070D02*
X1300470Y1262330D01*
X1300800Y1262670D01*
X1300930Y1263070D01*
X1300800Y1263470D01*
X1300470Y1263800D01*
X1299870Y1264000D01*
X1299270Y1263930D01*
X1298670Y1263670D01*
G01X1289670Y1272000D02*
Y1276000D01*
X1291330D01*
X1291870Y1275800D01*
X1292200Y1275530D01*
X1292330Y1275000D01*
X1292200Y1274470D01*
X1291800Y1274130D01*
X1291330Y1273930D01*
X1289670D01*
G01X1291330D02*
X1292330Y1272000D01*
G01X1295300D02*
Y1276000D01*
X1294500Y1275200D01*
G01Y1272000D02*
X1296100D01*
G01X1298130Y1272600D02*
X1298530Y1272270D01*
X1299000Y1272070D01*
X1299600Y1272000D01*
X1300200Y1272130D01*
X1300670Y1272400D01*
X1301000Y1272870D01*
X1301070Y1273400D01*
X1300930Y1273930D01*
X1300600Y1274270D01*
X1300130Y1274530D01*
X1299670Y1274600D01*
X1299200Y1274530D01*
X1298600Y1274270D01*
X1298800Y1276000D01*
X1300600D01*
G01X1289670Y1266000D02*
Y1270000D01*
X1291330D01*
X1291870Y1269800D01*
X1292200Y1269530D01*
X1292330Y1269000D01*
X1292200Y1268470D01*
X1291800Y1268130D01*
X1291330Y1267930D01*
X1289670D01*
G01X1291330D02*
X1292330Y1266000D01*
G01X1295300D02*
Y1270000D01*
X1294500Y1269200D01*
G01Y1266000D02*
X1296100D01*
G01X1300400D02*
Y1270000D01*
X1297930Y1267130D01*
X1301270D01*
G54D11*
G01X1072190Y1188500D02*
Y1195000D01*
X1076310D01*
G01X1074790Y1191860D02*
X1072190D01*
G01X1079950Y1195000D02*
X1082550D01*
G01X1081250D02*
Y1188500D01*
G01X1079950D02*
X1082550D01*
G01X1085870D02*
Y1195000D01*
X1088030D01*
X1088900Y1194670D01*
X1089550Y1194240D01*
X1090090Y1193590D01*
X1090530Y1192830D01*
X1090630Y1191750D01*
X1090530Y1190670D01*
X1090090Y1189910D01*
X1089550Y1189260D01*
X1088900Y1188820D01*
X1088030Y1188500D01*
X1085870D01*
G01X1092870Y1195000D02*
Y1190340D01*
X1093300Y1189370D01*
X1094170Y1188720D01*
X1095250Y1188500D01*
X1096330Y1188720D01*
X1097200Y1189370D01*
X1097630Y1190340D01*
Y1195000D01*
G01X1099870Y1189800D02*
X1100520Y1189040D01*
X1101380Y1188610D01*
X1102360Y1188500D01*
X1103230Y1188610D01*
X1104090Y1189150D01*
X1104630Y1189800D01*
X1104740Y1190450D01*
X1104530Y1191210D01*
X1103770Y1191750D01*
X1103010Y1191970D01*
X1102030D01*
G01X1103010D02*
X1103660Y1192290D01*
X1104200Y1192830D01*
X1104420Y1193480D01*
X1104200Y1194130D01*
X1103660Y1194670D01*
X1102680Y1195000D01*
X1101710Y1194890D01*
X1100730Y1194460D01*
G01X1096190Y949000D02*
Y955500D01*
X1100310D01*
G01X1098790Y952360D02*
X1096190D01*
G01X1103950Y955500D02*
X1106550D01*
G01X1105250D02*
Y949000D01*
G01X1103950D02*
X1106550D01*
G01X1109870D02*
Y955500D01*
X1112030D01*
X1112900Y955170D01*
X1113550Y954740D01*
X1114090Y954090D01*
X1114530Y953330D01*
X1114630Y952250D01*
X1114530Y951170D01*
X1114090Y950410D01*
X1113550Y949760D01*
X1112900Y949320D01*
X1112030Y949000D01*
X1109870D01*
G01X1116870Y955500D02*
Y950840D01*
X1117300Y949870D01*
X1118170Y949220D01*
X1119250Y949000D01*
X1120330Y949220D01*
X1121200Y949870D01*
X1121630Y950840D01*
Y955500D01*
G01X1126250Y949000D02*
Y955500D01*
X1124950Y954200D01*
G01Y949000D02*
X1127550D01*
G01X1143700Y1363080D02*
X1144350Y1363630D01*
X1144780Y1364270D01*
X1145000Y1365030D01*
X1144780Y1365900D01*
X1144350Y1366550D01*
X1143700Y1367200D01*
X1142830Y1367420D01*
X1138500D01*
G01X1145000Y1372250D02*
X1138500D01*
X1139800Y1370950D01*
G01X1145000D02*
Y1373550D01*
G01X1128540Y1386000D02*
X1131250Y1392500D01*
X1133960Y1386000D01*
G01X1132980Y1388270D02*
X1129520D01*
G01X1138250Y1386000D02*
Y1392500D01*
X1136950Y1391200D01*
G01Y1386000D02*
X1139550D01*
G01X1203870Y1224500D02*
Y1219840D01*
X1204300Y1218870D01*
X1205170Y1218220D01*
X1206250Y1218000D01*
X1207330Y1218220D01*
X1208200Y1218870D01*
X1208630Y1219840D01*
Y1224500D01*
G01X1211190Y1223420D02*
X1211840Y1224070D01*
X1212600Y1224390D01*
X1213470Y1224500D01*
X1214550Y1224280D01*
X1215310Y1223740D01*
X1215530Y1223090D01*
X1215420Y1222440D01*
X1214980Y1221900D01*
X1212820Y1220820D01*
X1211840Y1220060D01*
X1211190Y1218970D01*
X1210970Y1218000D01*
X1215530D01*
G01X1232630Y1030960D02*
X1231980Y1031280D01*
X1231230Y1031500D01*
X1230360D01*
X1229380Y1031170D01*
X1228630Y1030630D01*
X1228080Y1029980D01*
X1227650Y1028900D01*
X1227540Y1027920D01*
X1227760Y1026950D01*
X1228080Y1026300D01*
X1228730Y1025650D01*
X1229490Y1025220D01*
X1230250Y1025000D01*
X1231010D01*
X1231770Y1025220D01*
X1232420Y1025540D01*
X1232960Y1025970D01*
G01X1237250Y1025000D02*
Y1031500D01*
X1235950Y1030200D01*
G01Y1025000D02*
X1238550D01*
G01X1208080Y1036500D02*
Y1030000D01*
X1212420D01*
G01X1217250D02*
Y1036500D01*
X1215950Y1035200D01*
G01Y1030000D02*
X1218550D01*
G01X1242630Y1048960D02*
X1241980Y1049280D01*
X1241230Y1049500D01*
X1240360D01*
X1239380Y1049170D01*
X1238630Y1048630D01*
X1238080Y1047980D01*
X1237650Y1046900D01*
X1237540Y1045920D01*
X1237760Y1044950D01*
X1238080Y1044300D01*
X1238730Y1043650D01*
X1239490Y1043220D01*
X1240250Y1043000D01*
X1241010D01*
X1241770Y1043220D01*
X1242420Y1043540D01*
X1242960Y1043970D01*
G01X1247030Y1043000D02*
X1247250Y1044410D01*
X1247580Y1045600D01*
X1248010Y1046680D01*
X1248550Y1047870D01*
X1249420Y1049500D01*
X1245080D01*
G01X1242630Y1056960D02*
X1241980Y1057280D01*
X1241230Y1057500D01*
X1240360D01*
X1239380Y1057170D01*
X1238630Y1056630D01*
X1238080Y1055980D01*
X1237650Y1054900D01*
X1237540Y1053920D01*
X1237760Y1052950D01*
X1238080Y1052300D01*
X1238730Y1051650D01*
X1239490Y1051220D01*
X1240250Y1051000D01*
X1241010D01*
X1241770Y1051220D01*
X1242420Y1051540D01*
X1242960Y1051970D01*
G01X1245190Y1053710D02*
X1245950Y1054470D01*
X1246600Y1054900D01*
X1247470Y1055120D01*
X1248230Y1054900D01*
X1248770Y1054470D01*
X1249200Y1053820D01*
X1249310Y1053060D01*
X1249200Y1052410D01*
X1248770Y1051760D01*
X1248120Y1051220D01*
X1247360Y1051000D01*
X1246490Y1051220D01*
X1245730Y1051870D01*
X1245300Y1052840D01*
X1245190Y1053920D01*
X1245410Y1055330D01*
X1245730Y1056090D01*
X1246270Y1056850D01*
X1247030Y1057390D01*
X1247790Y1057500D01*
X1248550Y1057280D01*
X1249090Y1056740D01*
G01X1255130Y1173500D02*
Y1178160D01*
X1254700Y1179130D01*
X1253830Y1179780D01*
X1252750Y1180000D01*
X1251670Y1179780D01*
X1250800Y1179130D01*
X1250370Y1178160D01*
Y1173500D01*
G01X1245750Y1180000D02*
Y1173500D01*
X1247050Y1174800D01*
G01Y1180000D02*
X1244450D01*
G01X1275000Y1181750D02*
X1277920D01*
X1281500Y1183920D01*
G01Y1179580D02*
X1277920Y1181750D01*
G01X1280420Y1176810D02*
X1281070Y1176160D01*
X1281390Y1175400D01*
X1281500Y1174530D01*
X1281280Y1173450D01*
X1280740Y1172690D01*
X1280090Y1172470D01*
X1279440Y1172580D01*
X1278900Y1173020D01*
X1277820Y1175180D01*
X1277060Y1176160D01*
X1275970Y1176810D01*
X1275000Y1177030D01*
Y1172470D01*
G01X1344630Y1069960D02*
X1343980Y1070280D01*
X1343230Y1070500D01*
X1342360D01*
X1341380Y1070170D01*
X1340630Y1069630D01*
X1340080Y1068980D01*
X1339650Y1067900D01*
X1339540Y1066920D01*
X1339760Y1065950D01*
X1340080Y1065300D01*
X1340730Y1064650D01*
X1341490Y1064220D01*
X1342250Y1064000D01*
X1343010D01*
X1343770Y1064220D01*
X1344420Y1064540D01*
X1344960Y1064970D01*
G01X1347190Y1069420D02*
X1347840Y1070070D01*
X1348600Y1070390D01*
X1349470Y1070500D01*
X1350550Y1070280D01*
X1351310Y1069740D01*
X1351530Y1069090D01*
X1351420Y1068440D01*
X1350980Y1067900D01*
X1348820Y1066820D01*
X1347840Y1066060D01*
X1347190Y1064970D01*
X1346970Y1064000D01*
X1351530D01*
G01X1335190Y1051000D02*
Y1057500D01*
X1339310D01*
G01X1337790Y1054360D02*
X1335190D01*
G01X1342080Y1057500D02*
Y1051000D01*
X1346420D01*
G01X1351250D02*
Y1057500D01*
X1349950Y1056200D01*
G01Y1051000D02*
X1352550D01*
G01X1386190Y948000D02*
Y954500D01*
X1390310D01*
G01X1388790Y951360D02*
X1386190D01*
G01X1393950Y954500D02*
X1396550D01*
G01X1395250D02*
Y948000D01*
G01X1393950D02*
X1396550D01*
G01X1399870D02*
Y954500D01*
X1402030D01*
X1402900Y954170D01*
X1403550Y953740D01*
X1404090Y953090D01*
X1404530Y952330D01*
X1404630Y951250D01*
X1404530Y950170D01*
X1404090Y949410D01*
X1403550Y948760D01*
X1402900Y948320D01*
X1402030Y948000D01*
X1399870D01*
G01X1406870Y954500D02*
Y949840D01*
X1407300Y948870D01*
X1408170Y948220D01*
X1409250Y948000D01*
X1410330Y948220D01*
X1411200Y948870D01*
X1411630Y949840D01*
Y954500D01*
G01X1414190Y953420D02*
X1414840Y954070D01*
X1415600Y954390D01*
X1416470Y954500D01*
X1417550Y954280D01*
X1418310Y953740D01*
X1418530Y953090D01*
X1418420Y952440D01*
X1417980Y951900D01*
X1415820Y950820D01*
X1414840Y950060D01*
X1414190Y948970D01*
X1413970Y948000D01*
X1418530D01*
G01X1391480Y1017500D02*
Y1023100D01*
X1392680D01*
X1393160Y1022820D01*
X1393520Y1022450D01*
X1393820Y1021890D01*
X1394060Y1021230D01*
X1394120Y1020300D01*
X1394060Y1019370D01*
X1393820Y1018710D01*
X1393520Y1018150D01*
X1393160Y1017780D01*
X1392680Y1017500D01*
X1391480D01*
G01X1396180Y1023100D02*
X1397620D01*
G01X1396900D02*
Y1017500D01*
G01X1396180D02*
X1397620D01*
G01X1401000D02*
X1400520Y1017590D01*
X1400100Y1017970D01*
X1399740Y1018530D01*
X1399500Y1019180D01*
X1399380Y1019930D01*
Y1020670D01*
X1399500Y1021420D01*
X1399740Y1022070D01*
X1400100Y1022630D01*
X1400520Y1023010D01*
X1401000Y1023100D01*
X1401480Y1023010D01*
X1401900Y1022630D01*
X1402260Y1022070D01*
X1402500Y1021420D01*
X1402620Y1020670D01*
Y1019930D01*
X1402500Y1019180D01*
X1402260Y1018530D01*
X1401900Y1017970D01*
X1401480Y1017590D01*
X1401000Y1017500D01*
G01X1403960Y1022170D02*
X1404320Y1022730D01*
X1404740Y1023010D01*
X1405220Y1023100D01*
X1405820Y1022910D01*
X1406240Y1022450D01*
X1406360Y1021890D01*
X1406300Y1021330D01*
X1406060Y1020860D01*
X1404860Y1019930D01*
X1404320Y1019270D01*
X1403960Y1018340D01*
X1403840Y1017500D01*
X1406360D01*
G01X1408060Y1022170D02*
X1408420Y1022730D01*
X1408840Y1023010D01*
X1409320Y1023100D01*
X1409920Y1022910D01*
X1410340Y1022450D01*
X1410460Y1021890D01*
X1410400Y1021330D01*
X1410160Y1020860D01*
X1408960Y1019930D01*
X1408420Y1019270D01*
X1408060Y1018340D01*
X1407940Y1017500D01*
X1410460D01*
G54D12*
G01X1080000Y969000D02*
G02Y945000I0J-12000D01*
G02Y969000I0J12000D01*
G01X1086000Y1220000D02*
G02Y1196000I0J-12000D01*
G02Y1220000I0J12000D01*
G01X1077500Y1286500D02*
Y1361500D01*
X1152500D01*
Y1286500D01*
X1077500D01*
G01X1114750Y1203000D02*
Y1205920D01*
X1112580Y1209500D01*
G01X1116920D02*
X1114750Y1205920D01*
G01X1122250Y1203000D02*
Y1209500D01*
X1120950Y1208200D01*
G01Y1203000D02*
X1123550D01*
G01X1159500Y1091000D02*
Y1089000D01*
G01X1150500Y1091000D02*
Y1089000D01*
G01X1159500Y1091000D02*
Y1089000D01*
G01X1161000Y1157500D02*
X1159000D01*
G01X1161000Y1148500D02*
X1159000D01*
G01X1161500Y1197000D02*
Y1199000D01*
G01X1152500Y1197000D02*
Y1199000D01*
G01X1129000Y1204500D02*
Y1214000D01*
X1129500Y1214500D01*
G01X1147000D02*
Y1204500D01*
G01X1153500Y1222000D02*
Y1220000D01*
G01X1162500Y1222000D02*
Y1220000D01*
G01X1168500Y1091000D02*
Y1089000D01*
G01X1177000Y1088250D02*
X1171500D01*
Y1093750D01*
G01Y1156750D02*
Y1162250D01*
X1177000D01*
G01X1197000Y1236500D02*
Y1234500D01*
G01X1187500Y1247500D02*
Y1245500D01*
G01X1197500Y1247500D02*
Y1245500D01*
G01X1206000Y1283500D02*
Y1281500D01*
G01X1197000Y1254500D02*
Y1256500D01*
G01X1177000Y1269500D02*
Y1253000D01*
G01X1198000Y1290500D02*
Y1292500D01*
G01X1177000Y1329500D02*
Y1313000D01*
G01X1225500Y1047500D02*
Y1044500D01*
G01X1236500D02*
Y1047500D01*
G01X1237500Y1072500D02*
Y1069500D01*
G01X1236500D02*
Y1072500D01*
G01X1225500D02*
Y1069500D01*
G01X1208000Y1064500D02*
Y1061500D01*
G01X1224000Y1064500D02*
Y1061500D01*
G01X1240000Y1088250D02*
X1245500D01*
Y1093750D01*
G01Y1156750D02*
Y1158750D01*
X1242000Y1162250D01*
X1240000D01*
G01X1234500Y1187000D02*
X1232500D01*
G01X1234500Y1177000D02*
X1232500D01*
G01X1241500Y1205000D02*
X1226000D01*
X1225000Y1206000D01*
G01X1207000Y1236500D02*
Y1234500D01*
G01X1212000Y1230500D02*
Y1228500D01*
X1217500Y1223000D01*
X1219500D01*
G01X1240000Y1271500D02*
X1242000D01*
G01X1240000Y1280500D02*
X1242000D01*
G01X1216000Y1283500D02*
Y1281500D01*
G01X1207000Y1254500D02*
Y1256500D01*
G01X1231500Y1282000D02*
X1233500D01*
G01X1219500Y1266000D02*
X1212000D01*
Y1258500D01*
G01X1241500Y1324000D02*
Y1326000D01*
G01X1232500Y1324000D02*
Y1326000D01*
G01X1234000Y1317500D02*
X1232000D01*
G01X1234000Y1308500D02*
X1232000D01*
G01X1208000Y1290500D02*
Y1292500D01*
G01X1224000Y1290500D02*
Y1292500D01*
G01X1214000Y1290500D02*
Y1292500D01*
G01X1231500Y1292000D02*
X1233500D01*
G01X1242000Y1299500D02*
Y1301500D01*
G01X1232000Y1299500D02*
Y1301500D01*
G01X1240000Y1332500D02*
X1242000D01*
G01X1240000Y1341500D02*
X1242000D01*
G01X1232000D02*
X1234000D01*
G01X1232000Y1350500D02*
X1234000D01*
G01X1242000Y1349500D02*
Y1351500D01*
G01X1232000Y1349500D02*
Y1351500D01*
G01X1240000Y1380500D02*
X1242000D01*
G01X1240000Y1389500D02*
X1242000D01*
G01X1225000Y1377500D02*
X1241500D01*
G01X1248500Y1069500D02*
Y1072500D01*
G01X1258500Y1082000D02*
Y1080000D01*
G01X1267500Y1082000D02*
Y1080000D01*
G01X1249500Y1082000D02*
Y1080000D01*
G01X1258500Y1082000D02*
Y1080000D01*
G01X1262000Y1125500D02*
X1264000D01*
G01X1262000Y1134500D02*
X1264000D01*
G01X1258000Y1161500D02*
X1260000D01*
G01X1262000Y1138500D02*
X1264000D01*
G01X1262000Y1147500D02*
X1264000D01*
G01X1258000Y1153500D02*
X1260000D01*
G01X1258000Y1162500D02*
X1260000D01*
G01X1284500Y1164000D02*
Y1166500D01*
X1285500Y1167500D01*
G01X1258000Y1170500D02*
X1260000D01*
G01X1301500Y1204500D02*
X1285000D01*
G01X1277500Y1227000D02*
X1279500D01*
G01X1277500Y1237000D02*
X1279500D01*
G01X1277500Y1246000D02*
X1279500D01*
G01X1277500Y1238000D02*
X1279500D01*
G01X1255500Y1230500D02*
Y1223000D01*
X1248000D01*
G01X1266000Y1272000D02*
X1268000D01*
G01X1266000Y1282000D02*
X1268000D01*
G01Y1271500D02*
X1266000D01*
G01X1268000Y1261500D02*
X1266000D01*
G01X1277500Y1256000D02*
X1279500D01*
G01X1277500Y1248000D02*
X1279500D01*
G01X1248000Y1266000D02*
X1255500D01*
Y1258500D01*
G01X1285000Y1377500D02*
X1301500D01*
G01X1298000Y1137500D02*
X1300000D01*
G01X1298000Y1146500D02*
X1300000D01*
G01X1313000Y1167500D02*
Y1164000D01*
G01X1299000Y1148000D02*
X1298500D01*
G01X1293000Y1183500D02*
X1295000D01*
G01X1293000Y1192500D02*
X1295000D01*
G01X1299000Y1183500D02*
X1298500D01*
G01X1305500Y1247000D02*
X1303500D01*
G01X1305500Y1237000D02*
X1303500D01*
G01X1312500Y1236000D02*
X1310500D01*
G01X1312500Y1226000D02*
X1310500D01*
G01X1305500Y1258000D02*
X1303500D01*
G01X1305500Y1248000D02*
X1303500D01*
G01X1381000Y1038500D02*
G02X1392500Y1027000I0J-11500D01*
G02X1381000Y1015500I-11500J0D01*
G02X1369500Y1027000I0J11500D01*
G02X1381000Y1038500I11500J0D01*
G01X1365500Y1070500D02*
X1368500D01*
G01Y1062500D02*
X1365500D01*
G01Y1049500D02*
X1368500D01*
G01Y1081500D02*
X1365500D01*
G01X1349500Y1269500D02*
Y1253000D01*
G01Y1329500D02*
Y1313000D01*
G01X1414000Y1169430D02*
X1407500D01*
X1412920Y1172250D01*
X1407500Y1175070D01*
X1414000D01*
G01Y1179750D02*
X1413890Y1178880D01*
X1413460Y1178130D01*
X1412810Y1177470D01*
X1412050Y1177040D01*
X1411180Y1176820D01*
X1410320D01*
X1409450Y1177040D01*
X1408690Y1177470D01*
X1408040Y1178130D01*
X1407610Y1178880D01*
X1407500Y1179750D01*
X1407610Y1180620D01*
X1408040Y1181370D01*
X1408690Y1182030D01*
X1409450Y1182460D01*
X1410320Y1182680D01*
X1411180D01*
X1412050Y1182460D01*
X1412810Y1182030D01*
X1413460Y1181370D01*
X1413890Y1180620D01*
X1414000Y1179750D01*
G01Y1184870D02*
X1407500D01*
Y1187030D01*
X1407830Y1187900D01*
X1408260Y1188550D01*
X1408910Y1189090D01*
X1409670Y1189530D01*
X1410750Y1189630D01*
X1411830Y1189530D01*
X1412590Y1189090D01*
X1413240Y1188550D01*
X1413680Y1187900D01*
X1414000Y1187030D01*
Y1184870D01*
G01Y1196920D02*
Y1192580D01*
X1407500D01*
Y1196920D01*
G01X1410640Y1195180D02*
Y1192580D01*
G01X1407500Y1200080D02*
X1414000D01*
Y1204420D01*
G01X1414220Y1209750D02*
X1414110Y1209530D01*
X1413890D01*
X1413780Y1209750D01*
X1413890Y1209970D01*
X1414110D01*
X1414220Y1209750D01*
G01X1411290D02*
X1411180Y1209530D01*
X1410970D01*
X1410860Y1209750D01*
X1410970Y1209970D01*
X1411180D01*
X1411290Y1209750D01*
G01X1407500Y1224750D02*
X1414000D01*
G01X1407500Y1222260D02*
Y1227240D01*
G01Y1230950D02*
Y1233550D01*
G01Y1232250D02*
X1414000D01*
G01Y1230950D02*
Y1233550D01*
G01Y1237370D02*
X1407500D01*
Y1239530D01*
X1407830Y1240400D01*
X1408260Y1241050D01*
X1408910Y1241590D01*
X1409670Y1242030D01*
X1410750Y1242130D01*
X1411830Y1242030D01*
X1412590Y1241590D01*
X1413240Y1241050D01*
X1413680Y1240400D01*
X1414000Y1239530D01*
Y1237370D01*
G01X1408040Y1249630D02*
X1407720Y1248980D01*
X1407500Y1248230D01*
Y1247360D01*
X1407830Y1246380D01*
X1408370Y1245630D01*
X1409020Y1245080D01*
X1410100Y1244650D01*
X1411080Y1244540D01*
X1412050Y1244760D01*
X1412700Y1245080D01*
X1413350Y1245730D01*
X1413780Y1246490D01*
X1414000Y1247250D01*
Y1248010D01*
X1413780Y1248770D01*
X1413460Y1249420D01*
X1413030Y1249960D01*
G01X1411830Y1253340D02*
Y1256160D01*
G01X1408040Y1264630D02*
X1407720Y1263980D01*
X1407500Y1263230D01*
Y1262360D01*
X1407830Y1261380D01*
X1408370Y1260630D01*
X1409020Y1260080D01*
X1410100Y1259650D01*
X1411080Y1259540D01*
X1412050Y1259760D01*
X1412700Y1260080D01*
X1413350Y1260730D01*
X1413780Y1261490D01*
X1414000Y1262250D01*
Y1263010D01*
X1413780Y1263770D01*
X1413460Y1264420D01*
X1413030Y1264960D01*
G01X1408040Y1272130D02*
X1407720Y1271480D01*
X1407500Y1270730D01*
Y1269860D01*
X1407830Y1268880D01*
X1408370Y1268130D01*
X1409020Y1267580D01*
X1410100Y1267150D01*
X1411080Y1267040D01*
X1412050Y1267260D01*
X1412700Y1267580D01*
X1413350Y1268230D01*
X1413780Y1268990D01*
X1414000Y1269750D01*
Y1270510D01*
X1413780Y1271270D01*
X1413460Y1271920D01*
X1413030Y1272460D01*
G01X1408580Y1275190D02*
X1407930Y1275840D01*
X1407610Y1276600D01*
X1407500Y1277470D01*
X1407720Y1278550D01*
X1408260Y1279310D01*
X1408910Y1279530D01*
X1409560Y1279420D01*
X1410100Y1278980D01*
X1411180Y1276820D01*
X1411940Y1275840D01*
X1413030Y1275190D01*
X1414000Y1274970D01*
Y1279530D01*
G01X1411290Y1282690D02*
X1410530Y1283450D01*
X1410100Y1284100D01*
X1409880Y1284970D01*
X1410100Y1285730D01*
X1410530Y1286270D01*
X1411180Y1286700D01*
X1411940Y1286810D01*
X1412590Y1286700D01*
X1413240Y1286270D01*
X1413780Y1285620D01*
X1414000Y1284860D01*
X1413780Y1283990D01*
X1413130Y1283230D01*
X1412160Y1282800D01*
X1411080Y1282690D01*
X1409670Y1282910D01*
X1408910Y1283230D01*
X1408150Y1283770D01*
X1407610Y1284530D01*
X1407500Y1285290D01*
X1407720Y1286050D01*
X1408260Y1286590D01*
G01X1413030Y1289870D02*
X1413570Y1290520D01*
X1413890Y1291270D01*
X1414000Y1292250D01*
X1413780Y1293230D01*
X1413350Y1293980D01*
X1412590Y1294530D01*
X1411730Y1294630D01*
X1410860Y1294420D01*
X1410320Y1293870D01*
X1409880Y1293120D01*
X1409780Y1292360D01*
X1409880Y1291600D01*
X1410320Y1290630D01*
X1407500Y1290950D01*
Y1293870D01*
G01Y1299750D02*
X1407720Y1298880D01*
X1408260Y1298230D01*
X1408910Y1297800D01*
X1409780Y1297470D01*
X1410750Y1297370D01*
X1411730Y1297470D01*
X1412590Y1297800D01*
X1413240Y1298230D01*
X1413780Y1298880D01*
X1414000Y1299750D01*
X1413780Y1300620D01*
X1413240Y1301270D01*
X1412590Y1301700D01*
X1411730Y1302030D01*
X1410750Y1302130D01*
X1409780Y1302030D01*
X1408910Y1301700D01*
X1408260Y1301270D01*
X1407720Y1300620D01*
X1407500Y1299750D01*
G01X1411830Y1305840D02*
Y1308660D01*
G01X1408040Y1317130D02*
X1407720Y1316480D01*
X1407500Y1315730D01*
Y1314860D01*
X1407830Y1313880D01*
X1408370Y1313130D01*
X1409020Y1312580D01*
X1410100Y1312150D01*
X1411080Y1312040D01*
X1412050Y1312260D01*
X1412700Y1312580D01*
X1413350Y1313230D01*
X1413780Y1313990D01*
X1414000Y1314750D01*
Y1315510D01*
X1413780Y1316270D01*
X1413460Y1316920D01*
X1413030Y1317460D01*
G01X1408040Y1324630D02*
X1407720Y1323980D01*
X1407500Y1323230D01*
Y1322360D01*
X1407830Y1321380D01*
X1408370Y1320630D01*
X1409020Y1320080D01*
X1410100Y1319650D01*
X1411080Y1319540D01*
X1412050Y1319760D01*
X1412700Y1320080D01*
X1413350Y1320730D01*
X1413780Y1321490D01*
X1414000Y1322250D01*
Y1323010D01*
X1413780Y1323770D01*
X1413460Y1324420D01*
X1413030Y1324960D01*
G01X1408580Y1327690D02*
X1407930Y1328340D01*
X1407610Y1329100D01*
X1407500Y1329970D01*
X1407720Y1331050D01*
X1408260Y1331810D01*
X1408910Y1332030D01*
X1409560Y1331920D01*
X1410100Y1331480D01*
X1411180Y1329320D01*
X1411940Y1328340D01*
X1413030Y1327690D01*
X1414000Y1327470D01*
Y1332030D01*
G01X1413030Y1334870D02*
X1413570Y1335520D01*
X1413890Y1336270D01*
X1414000Y1337250D01*
X1413780Y1338230D01*
X1413350Y1338980D01*
X1412590Y1339530D01*
X1411730Y1339630D01*
X1410860Y1339420D01*
X1410320Y1338870D01*
X1409880Y1338120D01*
X1409780Y1337360D01*
X1409880Y1336600D01*
X1410320Y1335630D01*
X1407500Y1335950D01*
Y1338870D01*
G01X1413240Y1342910D02*
X1413780Y1343670D01*
X1414000Y1344530D01*
X1413780Y1345400D01*
X1413130Y1346160D01*
X1412160Y1346700D01*
X1411180Y1346920D01*
X1409990D01*
X1409020Y1346700D01*
X1408150Y1346160D01*
X1407720Y1345510D01*
X1407500Y1344750D01*
X1407720Y1343880D01*
X1408150Y1343230D01*
X1408800Y1342800D01*
X1409670Y1342580D01*
X1410420Y1342800D01*
X1411180Y1343340D01*
X1411620Y1343990D01*
X1411730Y1344750D01*
X1411510Y1345620D01*
X1410970Y1346270D01*
X1409990Y1346920D01*
G01X1408580Y1350190D02*
X1407930Y1350840D01*
X1407610Y1351600D01*
X1407500Y1352470D01*
X1407720Y1353550D01*
X1408260Y1354310D01*
X1408910Y1354530D01*
X1409560Y1354420D01*
X1410100Y1353980D01*
X1411180Y1351820D01*
X1411940Y1350840D01*
X1413030Y1350190D01*
X1414000Y1349970D01*
Y1354530D01*
G01X1411830Y1358340D02*
Y1361160D01*
G01X1414000Y1369420D02*
Y1365080D01*
X1407500D01*
Y1369420D01*
G01X1410640Y1367680D02*
Y1365080D01*
G01X1414000Y1371930D02*
X1407500D01*
X1412920Y1374750D01*
X1407500Y1377570D01*
X1414000D01*
G01Y1379870D02*
X1407500D01*
G01Y1383980D02*
X1411510Y1379870D01*
G01X1414000Y1384630D02*
X1409670Y1381710D01*
G01X1445000Y967000D02*
G02Y943000I0J-12000D01*
G02Y967000I0J12000D01*
G01X1427000Y1170080D02*
X1420500D01*
Y1172680D01*
X1420830Y1173550D01*
X1421580Y1174200D01*
X1422450Y1174420D01*
X1423320Y1174200D01*
X1423970Y1173660D01*
X1424290Y1172680D01*
Y1170080D01*
G01X1421040Y1182130D02*
X1420720Y1181480D01*
X1420500Y1180730D01*
Y1179860D01*
X1420830Y1178880D01*
X1421370Y1178130D01*
X1422020Y1177580D01*
X1423100Y1177150D01*
X1424080Y1177040D01*
X1425050Y1177260D01*
X1425700Y1177580D01*
X1426350Y1178230D01*
X1426780Y1178990D01*
X1427000Y1179750D01*
Y1180510D01*
X1426780Y1181270D01*
X1426460Y1181920D01*
X1426030Y1182460D01*
G01X1423530Y1188120D02*
X1423210Y1188550D01*
X1422670Y1188870D01*
X1421910Y1189090D01*
X1421260Y1188870D01*
X1420830Y1188440D01*
X1420500Y1187680D01*
Y1184760D01*
X1427000D01*
Y1188330D01*
X1426570Y1189090D01*
X1425920Y1189530D01*
X1425160Y1189740D01*
X1424400Y1189530D01*
X1423750Y1188870D01*
X1423530Y1188120D01*
Y1184760D01*
G01X1427220Y1194750D02*
X1427110Y1194530D01*
X1426890D01*
X1426780Y1194750D01*
X1426890Y1194970D01*
X1427110D01*
X1427220Y1194750D01*
G01X1424290D02*
X1424180Y1194530D01*
X1423970D01*
X1423860Y1194750D01*
X1423970Y1194970D01*
X1424180D01*
X1424290Y1194750D01*
G01X1427000Y1207580D02*
X1420500D01*
Y1210290D01*
X1420830Y1211160D01*
X1421260Y1211700D01*
X1422130Y1211920D01*
X1422990Y1211700D01*
X1423530Y1211050D01*
X1423860Y1210290D01*
Y1207580D01*
G01Y1210290D02*
X1427000Y1211920D01*
G01Y1219420D02*
Y1215080D01*
X1420500D01*
Y1219420D01*
G01X1423640Y1217680D02*
Y1215080D01*
G01X1420500Y1222040D02*
X1427000Y1224750D01*
X1420500Y1227460D01*
G01X1427000Y1239750D02*
X1420500D01*
X1421800Y1238450D01*
G01X1427000D02*
Y1241050D01*
G01X1427220Y1247250D02*
X1427110Y1247030D01*
X1426890D01*
X1426780Y1247250D01*
X1426890Y1247470D01*
X1427110D01*
X1427220Y1247250D01*
G01X1427000Y1254750D02*
X1420500D01*
X1421800Y1253450D01*
G01X1427000D02*
Y1256050D01*
G01X1427220Y1262250D02*
X1427110Y1262030D01*
X1426890D01*
X1426780Y1262250D01*
X1426890Y1262470D01*
X1427110D01*
X1427220Y1262250D01*
G01X1420500Y1269750D02*
X1420720Y1268880D01*
X1421260Y1268230D01*
X1421910Y1267800D01*
X1422780Y1267470D01*
X1423750Y1267370D01*
X1424730Y1267470D01*
X1425590Y1267800D01*
X1426240Y1268230D01*
X1426780Y1268880D01*
X1427000Y1269750D01*
X1426780Y1270620D01*
X1426240Y1271270D01*
X1425590Y1271700D01*
X1424730Y1272030D01*
X1423750Y1272130D01*
X1422780Y1272030D01*
X1421910Y1271700D01*
X1421260Y1271270D01*
X1420720Y1270620D01*
X1420500Y1269750D01*
G54D13*
G01X1063500Y1479000D02*
Y938000D01*
X1464500D01*
Y1479000D01*
X1063500D01*
G54D14*
G01X1354970Y1368870D02*
X1355840Y1368320D01*
X1356820Y1368000D01*
X1357680D01*
X1358550Y1368320D01*
X1359200Y1368870D01*
X1359530Y1369630D01*
X1359310Y1370380D01*
X1358770Y1371030D01*
X1357790Y1371470D01*
X1356490Y1371680D01*
X1355730Y1372120D01*
X1355410Y1372870D01*
X1355630Y1373630D01*
X1356170Y1374170D01*
X1356920Y1374500D01*
X1357680D01*
X1358440Y1374280D01*
X1359090Y1373740D01*
G01X1367430Y1373960D02*
X1366780Y1374280D01*
X1366030Y1374500D01*
X1365160D01*
X1364180Y1374170D01*
X1363430Y1373630D01*
X1362880Y1372980D01*
X1362450Y1371900D01*
X1362340Y1370920D01*
X1362560Y1369950D01*
X1362880Y1369300D01*
X1363530Y1368650D01*
X1364290Y1368220D01*
X1365050Y1368000D01*
X1365810D01*
X1366570Y1368220D01*
X1367220Y1368540D01*
X1367760Y1368970D01*
G01X1370790Y1373420D02*
X1371440Y1374070D01*
X1372200Y1374390D01*
X1373070Y1374500D01*
X1374150Y1374280D01*
X1374910Y1373740D01*
X1375130Y1373090D01*
X1375020Y1372440D01*
X1374580Y1371900D01*
X1372420Y1370820D01*
X1371440Y1370060D01*
X1370790Y1368970D01*
X1370570Y1368000D01*
X1375130D01*
G54D15*
G01X1181020Y967430D02*
X1181070Y967700D01*
G01X1181130D02*
X1181070Y967430D01*
G01X1181000Y967530D02*
X1181150D01*
G01Y967600D02*
X1181000D01*
G01X1181200Y967500D02*
Y967700D01*
X1181270D01*
X1181290Y967690D01*
X1181300Y967680D01*
X1181310Y967650D01*
X1181300Y967620D01*
X1181290Y967610D01*
X1181270Y967600D01*
X1181200D01*
G01X1181270D02*
X1181310Y967500D01*
G01X1181490D02*
X1181380D01*
Y967700D01*
X1181490D01*
G01X1181450Y967600D02*
X1181380D01*
G01X1181570Y967500D02*
Y967700D01*
X1181660D01*
G01X1181630Y967600D02*
X1181570D01*
G01X1181740Y967500D02*
Y967700D01*
X1181790D01*
X1181810Y967690D01*
X1181830Y967680D01*
X1181840Y967660D01*
X1181850Y967630D01*
Y967600D01*
Y967570D01*
X1181840Y967540D01*
X1181830Y967520D01*
X1181810Y967510D01*
X1181790Y967500D01*
X1181740D01*
G01X1182030D02*
X1181920D01*
Y967700D01*
X1182030D01*
G01X1181990Y967600D02*
X1181920D01*
G01X1182100Y967530D02*
X1182120Y967510D01*
X1182140Y967500D01*
X1182170D01*
X1182190Y967510D01*
X1182200Y967530D01*
X1182210Y967550D01*
X1182200Y967570D01*
X1182190Y967590D01*
X1182170Y967610D01*
X1182140D01*
X1182120Y967630D01*
X1182110Y967650D01*
X1182120Y967670D01*
X1182130Y967690D01*
X1182150Y967700D01*
X1182170D01*
X1182180Y967690D01*
X1182200Y967680D01*
M02*
