G04 ================== begin FILE IDENTIFICATION RECORD ==================*
G04 Layout Name:  CC26xx_7x7_Diff_CC2592_V1_1_0.brd*
G04 Film Name:    silk_bottom*
G04 File Format:  Gerber RS274X*
G04 File Origin:  Cadence Allegro 16.6-P004*
G04 Origin Date:  Wed Nov 18 15:25:57 2015*
G04 *
G04 Layer:  REF DES/SILKSCREEN_BOTTOM*
G04 Layer:  PACKAGE GEOMETRY/SILKSCREEN_BOTTOM*
G04 Layer:  MANUFACTURING/AUTOSILK_BOTTOM*
G04 Layer:  BOARD GEOMETRY/OUTLINE*
G04 *
G04 Offset:    (0.000 0.000)*
G04 Mirror:    No*
G04 Mode:      Positive*
G04 Rotation:  0*
G04 FullContactRelief:  No*
G04 UndefLineWidth:     0.020*
G04 ================== end FILE IDENTIFICATION RECORD ====================*
%FSLAX44Y44*MOMM*%
%IR0*IPPOS*OFA0.00000B0.00000*MIA0B0*SFA1.00000B1.00000*%
%ADD10C,.05*%
%ADD11C,.1*%
%ADD12C,.02*%
G75*
%LPD*%
G75*
G54D10*
G01X1350000Y1100810D02*
X1343500D01*
Y1096690D01*
G01X1346640Y1098210D02*
Y1100810D01*
G01X1343500Y1093920D02*
X1350000D01*
Y1089580D01*
G01X1344580Y1086810D02*
X1343930Y1086160D01*
X1343610Y1085400D01*
X1343500Y1084530D01*
X1343720Y1083450D01*
X1344260Y1082690D01*
X1344910Y1082470D01*
X1345560Y1082580D01*
X1346100Y1083020D01*
X1347180Y1085180D01*
X1347940Y1086160D01*
X1349030Y1086810D01*
X1350000Y1087030D01*
Y1082470D01*
G01X1359630Y1131040D02*
X1358980Y1130720D01*
X1358230Y1130500D01*
X1357360D01*
X1356380Y1130830D01*
X1355630Y1131370D01*
X1355080Y1132020D01*
X1354650Y1133100D01*
X1354540Y1134080D01*
X1354760Y1135050D01*
X1355080Y1135700D01*
X1355730Y1136350D01*
X1356490Y1136780D01*
X1357250Y1137000D01*
X1358010D01*
X1358770Y1136780D01*
X1359420Y1136460D01*
X1359960Y1136030D01*
G01X1364250Y1137000D02*
Y1130500D01*
X1362950Y1131800D01*
G01Y1137000D02*
X1365550D01*
G01X1371250D02*
Y1130500D01*
X1369950Y1131800D01*
G01Y1137000D02*
X1372550D01*
G54D11*
G01X1084920Y973000D02*
Y979500D01*
X1082320D01*
X1081450Y979170D01*
X1080800Y978420D01*
X1080580Y977550D01*
X1080800Y976680D01*
X1081340Y976030D01*
X1082320Y975710D01*
X1084920D01*
G01X1075250Y973000D02*
Y979500D01*
X1076550Y978200D01*
G01Y973000D02*
X1073950D01*
G01X1121500Y975500D02*
X1130000D01*
Y980500D01*
G01X1096000D02*
Y975500D01*
X1104500D01*
G01X1122000Y1110000D02*
X1130000D01*
Y1105000D01*
G01X1105500Y1110000D02*
X1094500D01*
X1089500Y1105000D01*
G01X1370000Y1107500D02*
X1367000D01*
G01Y1118500D02*
X1370000D01*
G01X1354000Y1091000D02*
Y1094000D01*
G01X1367000D02*
Y1091000D01*
G01X1401920Y960000D02*
Y966500D01*
X1399320D01*
X1398450Y966170D01*
X1397800Y965420D01*
X1397580Y964550D01*
X1397800Y963680D01*
X1398340Y963030D01*
X1399320Y962710D01*
X1401920D01*
G01X1394310Y965420D02*
X1393660Y966070D01*
X1392900Y966390D01*
X1392030Y966500D01*
X1390950Y966280D01*
X1390190Y965740D01*
X1389970Y965090D01*
X1390080Y964440D01*
X1390520Y963900D01*
X1392680Y962820D01*
X1393660Y962060D01*
X1394310Y960970D01*
X1394530Y960000D01*
X1389970D01*
G01X1400800Y980500D02*
Y975500D01*
X1409300D01*
G01X1410300Y1110000D02*
X1399300D01*
X1394300Y1105000D01*
G01X1426300Y975500D02*
X1434800D01*
Y980500D01*
G01X1426800Y1110000D02*
X1434800D01*
Y1105000D01*
G01X1428000Y1142190D02*
X1421500D01*
Y1146310D01*
G01X1424640Y1144790D02*
Y1142190D01*
G01X1428000Y1151750D02*
X1427890Y1150880D01*
X1427460Y1150130D01*
X1426810Y1149470D01*
X1426050Y1149040D01*
X1425180Y1148820D01*
X1424320D01*
X1423450Y1149040D01*
X1422690Y1149470D01*
X1422040Y1150130D01*
X1421610Y1150880D01*
X1421500Y1151750D01*
X1421610Y1152620D01*
X1422040Y1153370D01*
X1422690Y1154030D01*
X1423450Y1154460D01*
X1424320Y1154680D01*
X1425180D01*
X1426050Y1154460D01*
X1426810Y1154030D01*
X1427460Y1153370D01*
X1427890Y1152620D01*
X1428000Y1151750D01*
G01Y1157080D02*
X1421500D01*
Y1159790D01*
X1421830Y1160660D01*
X1422260Y1161200D01*
X1423130Y1161420D01*
X1423990Y1161200D01*
X1424530Y1160550D01*
X1424860Y1159790D01*
Y1157080D01*
G01Y1159790D02*
X1428000Y1161420D01*
G01Y1176420D02*
Y1172080D01*
X1421500D01*
Y1176420D01*
G01X1424640Y1174680D02*
Y1172080D01*
G01X1421500Y1179040D02*
X1428000Y1181750D01*
X1421500Y1184460D01*
G01X1428000Y1186540D02*
X1421500Y1189250D01*
X1428000Y1191960D01*
G01X1425730Y1190980D02*
Y1187520D01*
G01X1421500Y1194580D02*
X1428000D01*
Y1198920D01*
G01X1421500Y1201870D02*
X1426160D01*
X1427130Y1202300D01*
X1427780Y1203170D01*
X1428000Y1204250D01*
X1427780Y1205330D01*
X1427130Y1206200D01*
X1426160Y1206630D01*
X1421500D01*
G01X1428000Y1209040D02*
X1421500Y1211750D01*
X1428000Y1214460D01*
G01X1425730Y1213480D02*
Y1210020D01*
G01X1421500Y1219250D02*
X1428000D01*
G01X1421500Y1216760D02*
Y1221740D01*
G01Y1225450D02*
Y1228050D01*
G01Y1226750D02*
X1428000D01*
G01Y1225450D02*
Y1228050D01*
G01Y1234250D02*
X1427890Y1233380D01*
X1427460Y1232630D01*
X1426810Y1231970D01*
X1426050Y1231540D01*
X1425180Y1231320D01*
X1424320D01*
X1423450Y1231540D01*
X1422690Y1231970D01*
X1422040Y1232630D01*
X1421610Y1233380D01*
X1421500Y1234250D01*
X1421610Y1235120D01*
X1422040Y1235870D01*
X1422690Y1236530D01*
X1423450Y1236960D01*
X1424320Y1237180D01*
X1425180D01*
X1426050Y1236960D01*
X1426810Y1236530D01*
X1427460Y1235870D01*
X1427890Y1235120D01*
X1428000Y1234250D01*
G01Y1239260D02*
X1421500D01*
X1428000Y1244240D01*
X1421500D01*
G01X1428000Y1256750D02*
X1427890Y1255880D01*
X1427460Y1255130D01*
X1426810Y1254470D01*
X1426050Y1254040D01*
X1425180Y1253820D01*
X1424320D01*
X1423450Y1254040D01*
X1422690Y1254470D01*
X1422040Y1255130D01*
X1421610Y1255880D01*
X1421500Y1256750D01*
X1421610Y1257620D01*
X1422040Y1258370D01*
X1422690Y1259030D01*
X1423450Y1259460D01*
X1424320Y1259680D01*
X1425180D01*
X1426050Y1259460D01*
X1426810Y1259030D01*
X1427460Y1258370D01*
X1427890Y1257620D01*
X1428000Y1256750D01*
G01Y1261760D02*
X1421500D01*
X1428000Y1266740D01*
X1421500D01*
G01Y1269580D02*
X1428000D01*
Y1273920D01*
G01Y1279250D02*
X1425080D01*
X1421500Y1277080D01*
G01Y1281420D02*
X1425080Y1279250D01*
G01X1429950Y1285990D02*
X1428430Y1287510D01*
X1426920D01*
Y1285990D01*
X1428430D01*
Y1287510D01*
G01X1425830D02*
X1424320D01*
Y1285990D01*
X1425830D01*
Y1287510D01*
G01X1441000Y1141760D02*
X1434500D01*
X1441000Y1146740D01*
X1434500D01*
G01X1441000Y1151750D02*
X1440890Y1150880D01*
X1440460Y1150130D01*
X1439810Y1149470D01*
X1439050Y1149040D01*
X1438180Y1148820D01*
X1437320D01*
X1436450Y1149040D01*
X1435690Y1149470D01*
X1435040Y1150130D01*
X1434610Y1150880D01*
X1434500Y1151750D01*
X1434610Y1152620D01*
X1435040Y1153370D01*
X1435690Y1154030D01*
X1436450Y1154460D01*
X1437320Y1154680D01*
X1438180D01*
X1439050Y1154460D01*
X1439810Y1154030D01*
X1440460Y1153370D01*
X1440890Y1152620D01*
X1441000Y1151750D01*
G01X1434500Y1159250D02*
X1441000D01*
G01X1434500Y1156760D02*
Y1161740D01*
G01X1441000Y1172190D02*
X1434500D01*
Y1176310D01*
G01X1437640Y1174790D02*
Y1172190D01*
G01X1435040Y1184130D02*
X1434720Y1183480D01*
X1434500Y1182730D01*
Y1181860D01*
X1434830Y1180880D01*
X1435370Y1180130D01*
X1436020Y1179580D01*
X1437100Y1179150D01*
X1438080Y1179040D01*
X1439050Y1179260D01*
X1439700Y1179580D01*
X1440350Y1180230D01*
X1440780Y1180990D01*
X1441000Y1181750D01*
Y1182510D01*
X1440780Y1183270D01*
X1440460Y1183920D01*
X1440030Y1184460D01*
G01X1435040Y1191630D02*
X1434720Y1190980D01*
X1434500Y1190230D01*
Y1189360D01*
X1434830Y1188380D01*
X1435370Y1187630D01*
X1436020Y1187080D01*
X1437100Y1186650D01*
X1438080Y1186540D01*
X1439050Y1186760D01*
X1439700Y1187080D01*
X1440350Y1187730D01*
X1440780Y1188490D01*
X1441000Y1189250D01*
Y1190010D01*
X1440780Y1190770D01*
X1440460Y1191420D01*
X1440030Y1191960D01*
G01X1441000Y1201540D02*
X1434500Y1204250D01*
X1441000Y1206960D01*
G01X1438730Y1205980D02*
Y1202520D01*
G01X1441000Y1209580D02*
X1434500D01*
Y1212180D01*
X1434830Y1213050D01*
X1435580Y1213700D01*
X1436450Y1213920D01*
X1437320Y1213700D01*
X1437970Y1213160D01*
X1438290Y1212180D01*
Y1209580D01*
G01X1441000Y1217080D02*
X1434500D01*
Y1219680D01*
X1434830Y1220550D01*
X1435580Y1221200D01*
X1436450Y1221420D01*
X1437320Y1221200D01*
X1437970Y1220660D01*
X1438290Y1219680D01*
Y1217080D01*
G01X1441000Y1224580D02*
X1434500D01*
Y1227290D01*
X1434830Y1228160D01*
X1435260Y1228700D01*
X1436130Y1228920D01*
X1436990Y1228700D01*
X1437530Y1228050D01*
X1437860Y1227290D01*
Y1224580D01*
G01Y1227290D02*
X1441000Y1228920D01*
G01Y1234250D02*
X1440890Y1233380D01*
X1440460Y1232630D01*
X1439810Y1231970D01*
X1439050Y1231540D01*
X1438180Y1231320D01*
X1437320D01*
X1436450Y1231540D01*
X1435690Y1231970D01*
X1435040Y1232630D01*
X1434610Y1233380D01*
X1434500Y1234250D01*
X1434610Y1235120D01*
X1435040Y1235870D01*
X1435690Y1236530D01*
X1436450Y1236960D01*
X1437320Y1237180D01*
X1438180D01*
X1439050Y1236960D01*
X1439810Y1236530D01*
X1440460Y1235870D01*
X1440890Y1235120D01*
X1441000Y1234250D01*
G01X1434500Y1239040D02*
X1441000Y1241750D01*
X1434500Y1244460D01*
G01X1441000Y1251420D02*
Y1247080D01*
X1434500D01*
Y1251420D01*
G01X1437640Y1249680D02*
Y1247080D01*
G01X1441000Y1254370D02*
X1434500D01*
Y1256530D01*
X1434830Y1257400D01*
X1435260Y1258050D01*
X1435910Y1258590D01*
X1436670Y1259030D01*
X1437750Y1259130D01*
X1438830Y1259030D01*
X1439590Y1258590D01*
X1440240Y1258050D01*
X1440680Y1257400D01*
X1441000Y1256530D01*
Y1254370D01*
G01Y1269690D02*
X1434500D01*
Y1273810D01*
G01X1437640Y1272290D02*
Y1269690D01*
G01X1441000Y1279250D02*
X1440890Y1278380D01*
X1440460Y1277630D01*
X1439810Y1276970D01*
X1439050Y1276540D01*
X1438180Y1276320D01*
X1437320D01*
X1436450Y1276540D01*
X1435690Y1276970D01*
X1435040Y1277630D01*
X1434610Y1278380D01*
X1434500Y1279250D01*
X1434610Y1280120D01*
X1435040Y1280870D01*
X1435690Y1281530D01*
X1436450Y1281960D01*
X1437320Y1282180D01*
X1438180D01*
X1439050Y1281960D01*
X1439810Y1281530D01*
X1440460Y1280870D01*
X1440890Y1280120D01*
X1441000Y1279250D01*
G01Y1284580D02*
X1434500D01*
Y1287290D01*
X1434830Y1288160D01*
X1435260Y1288700D01*
X1436130Y1288920D01*
X1436990Y1288700D01*
X1437530Y1288050D01*
X1437860Y1287290D01*
Y1284580D01*
G01Y1287290D02*
X1441000Y1288920D01*
G01Y1299580D02*
X1434500D01*
Y1302290D01*
X1434830Y1303160D01*
X1435260Y1303700D01*
X1436130Y1303920D01*
X1436990Y1303700D01*
X1437530Y1303050D01*
X1437860Y1302290D01*
Y1299580D01*
G01Y1302290D02*
X1441000Y1303920D01*
G01Y1311420D02*
Y1307080D01*
X1434500D01*
Y1311420D01*
G01X1437640Y1309680D02*
Y1307080D01*
G01X1440130Y1314470D02*
X1440680Y1315340D01*
X1441000Y1316320D01*
Y1317180D01*
X1440680Y1318050D01*
X1440130Y1318700D01*
X1439370Y1319030D01*
X1438620Y1318810D01*
X1437970Y1318270D01*
X1437530Y1317290D01*
X1437320Y1315990D01*
X1436880Y1315230D01*
X1436130Y1314910D01*
X1435370Y1315130D01*
X1434830Y1315670D01*
X1434500Y1316420D01*
Y1317180D01*
X1434720Y1317940D01*
X1435260Y1318590D01*
G01X1441000Y1321540D02*
X1434500Y1324250D01*
X1441000Y1326960D01*
G01X1438730Y1325980D02*
Y1322520D01*
G01X1434500Y1329580D02*
X1441000D01*
Y1333920D01*
G01Y1341420D02*
Y1337080D01*
X1434500D01*
Y1341420D01*
G01X1437640Y1339680D02*
Y1337080D01*
G54D12*
G01X1063500Y1479000D02*
Y938000D01*
X1464500D01*
Y1479000D01*
X1063500D01*
M02*
