G04 ================== begin FILE IDENTIFICATION RECORD ==================*
G04 Layout Name:  CC26xx_7x7_Diff_CC2592_V1_1_0.brd*
G04 Film Name:    Top*
G04 File Format:  Gerber RS274X*
G04 File Origin:  Cadence Allegro 16.6-P004*
G04 Origin Date:  Wed Nov 18 15:25:57 2015*
G04 *
G04 Layer:  VIA CLASS/TOP*
G04 Layer:  PIN/TOP*
G04 Layer:  ETCH/TOP*
G04 Layer:  BOARD GEOMETRY/OUTLINE*
G04 *
G04 Offset:    (0.000 0.000)*
G04 Mirror:    No*
G04 Mode:      Positive*
G04 Rotation:  0*
G04 FullContactRelief:  No*
G04 UndefLineWidth:     0.000*
G04 ================== end FILE IDENTIFICATION RECORD ====================*
%FSLAX44Y44*MOMM*%
%IR0*IPPOS*OFA0.00000B0.00000*MIA0B0*SFA1.00000B1.00000*%
%ADD35O,1.X.35*%
%AMMACRO31*
4,1,40,-.676,-.239,
-.676,.239,
-.672069,.280271,
-.661031,.320231,
-.643221,.357669,
-.619181,.391444,
-.589641,.420532,
-.555499,.444049,
-.517792,.46128,
-.477666,.471701,
-.437,.475,
.437,.475,
.478317,.47159,
.518414,.461058,
.556073,.443723,
.59015,.420111,
.619609,.390941,
.643555,.357099,
.66126,.319613,
.672187,.279621,
.676,.239,
.676,-.239,
.672069,-.280271,
.661031,-.320231,
.643221,-.357669,
.619181,-.391444,
.589641,-.420532,
.555499,-.444049,
.517792,-.46128,
.477666,-.471701,
.437,-.475,
-.437,-.475,
-.478317,-.47159,
-.518414,-.461058,
-.556073,-.443723,
-.59015,-.420111,
-.619609,-.390941,
-.643555,-.357099,
-.66126,-.319613,
-.672187,-.279621,
-.676,-.239,
0.0*
%
%ADD31MACRO31*%
%ADD28R,1.X.5*%
%AMMACRO37*
4,1,40,.275,.135,
.275,-.135,
.272949,-.158443,
.266859,-.181173,
.256913,-.2025,
.243416,-.221776,
.226776,-.238416,
.2075,-.251913,
.186173,-.261859,
.163443,-.267949,
.14,-.27,
-.14,-.27,
-.163443,-.267949,
-.186173,-.261859,
-.2075,-.251913,
-.226776,-.238416,
-.243416,-.221776,
-.256913,-.2025,
-.266859,-.181173,
-.272949,-.158443,
-.275,-.135,
-.275,.135,
-.272949,.158443,
-.266859,.181173,
-.256913,.2025,
-.243416,.221776,
-.226776,.238416,
-.2075,.251913,
-.186173,.261859,
-.163443,.267949,
-.14,.27,
.14,.27,
.163443,.267949,
.186173,.261859,
.2075,.251913,
.226776,.238416,
.243416,.221776,
.256913,.2025,
.266859,.181173,
.272949,.158443,
.275,.135,
0.0*
%
%ADD37MACRO37*%
%ADD36O,.35X1.*%
%AMMACRO16*
4,1,40,.135,-.275,
-.135,-.275,
-.158443,-.272949,
-.181173,-.266859,
-.2025,-.256913,
-.221776,-.243416,
-.238416,-.226776,
-.251913,-.2075,
-.261859,-.186173,
-.267949,-.163443,
-.27,-.14,
-.27,.14,
-.267949,.163443,
-.261859,.186173,
-.251913,.2075,
-.238416,.226776,
-.221776,.243416,
-.2025,.256913,
-.181173,.266859,
-.158443,.272949,
-.135,.275,
.135,.275,
.158443,.272949,
.181173,.266859,
.2025,.256913,
.221776,.243416,
.238416,.226776,
.251913,.2075,
.261859,.186173,
.267949,.163443,
.27,.14,
.27,-.14,
.267949,-.163443,
.261859,-.186173,
.251913,-.2075,
.238416,-.226776,
.221776,-.243416,
.2025,-.256913,
.181173,-.266859,
.158443,-.272949,
.135,-.275,
0.0*
%
%ADD16MACRO16*%
%AMMACRO38*
4,1,40,.325,.16,
.325,-.16,
.322569,-.187784,
.315351,-.214723,
.303564,-.24,
.287567,-.262846,
.267846,-.282567,
.245,-.298564,
.219723,-.310351,
.192784,-.317569,
.165,-.32,
-.165,-.32,
-.192784,-.317569,
-.219723,-.310351,
-.245,-.298564,
-.267846,-.282567,
-.287567,-.262846,
-.303564,-.24,
-.315351,-.214723,
-.322569,-.187784,
-.325,-.16,
-.325,.16,
-.322569,.187784,
-.315351,.214723,
-.303564,.24,
-.287567,.262846,
-.267846,.282567,
-.245,.298564,
-.219723,.310351,
-.192784,.317569,
-.165,.32,
.165,.32,
.192784,.317569,
.219723,.310351,
.245,.298564,
.267846,.282567,
.287567,.262846,
.303564,.24,
.315351,.214723,
.322569,.187784,
.325,.16,
0.0*
%
%ADD38MACRO38*%
%AMMACRO29*
4,1,41,.45,.188,
.45,-.188,
.447065,-.220551,
.438521,-.252099,
.42463,-.281683,
.405812,-.308406,
.38264,-.331455,
.355817,-.35013,
.326159,-.363863,
.294567,-.372238,
.262,-.375,
-.262,-.375,
-.294567,-.372238,
-.326159,-.363863,
-.355817,-.35013,
-.38264,-.331455,
-.405812,-.308406,
-.42463,-.281683,
-.438521,-.252099,
-.447065,-.220551,
-.45,-.188,
-.45,.188,
-.447065,.220551,
-.438521,.252099,
-.42463,.281683,
-.405812,.308406,
-.38264,.331455,
-.355817,.35013,
-.326159,.363863,
-.294567,.372238,
-.262,.375,
-.262,.375,
.262,.375,
.294567,.372238,
.326159,.363863,
.355817,.35013,
.38264,.331455,
.405812,.308406,
.42463,.281683,
.438521,.252099,
.447065,.220551,
.45,.188,
0.0*
%
%ADD29MACRO29*%
%AMMACRO24*
4,1,40,.16,-.325,
-.16,-.325,
-.187784,-.322569,
-.214723,-.315351,
-.24,-.303564,
-.262846,-.287567,
-.282567,-.267846,
-.298564,-.245,
-.310351,-.219723,
-.317569,-.192784,
-.32,-.165,
-.32,.165,
-.317569,.192784,
-.310351,.219723,
-.298564,.245,
-.282567,.267846,
-.262846,.287567,
-.24,.303564,
-.214723,.315351,
-.187784,.322569,
-.16,.325,
.16,.325,
.187784,.322569,
.214723,.315351,
.24,.303564,
.262846,.287567,
.282567,.267846,
.298564,.245,
.310351,.219723,
.317569,.192784,
.32,.165,
.32,-.165,
.317569,-.192784,
.310351,-.219723,
.298564,-.245,
.282567,-.267846,
.262846,-.287567,
.24,-.303564,
.214723,-.315351,
.187784,-.322569,
.16,-.325,
0.0*
%
%ADD24MACRO24*%
%ADD10C,1.*%
%ADD45C,1.5*%
%AMMACRO13*
4,1,16,3.555,1.175,
-3.555,1.175,
-3.555,-1.175,
-1.652,-1.175,
-1.417658,-.90644,
-1.140242,-.682652,
-.828179,-.510438,
-.490953,-.395029,
-.13881,-.339932,
.217551,-.346821,
.567302,-.415486,
.899816,-.543843,
1.204989,-.727989,
1.47355,-.962331,
1.652,-1.175,
3.555,-1.175,
3.555,1.175,
0.0*
%
%ADD13MACRO13*%
%ADD15C,1.75*%
%ADD34R,2.25X2.25*%
%ADD22R,5.25X5.25*%
%AMMACRO19*
4,1,40,-.9,.25,
-.9,-.25,
-.896202,-.293412,
-.884923,-.335505,
-.866506,-.375,
-.841511,-.410697,
-.810697,-.441511,
-.775,-.466506,
-.735505,-.484923,
-.693412,-.496202,
-.65,-.5,
.65,-.5,
.693412,-.496202,
.735505,-.484923,
.775,-.466506,
.810697,-.441511,
.841511,-.410697,
.866506,-.375,
.884923,-.335505,
.896202,-.293412,
.9,-.25,
.9,.25,
.896202,.293412,
.884923,.335505,
.866506,.375,
.841511,.410697,
.810697,.441511,
.775,.466506,
.735505,.484923,
.693412,.496202,
.65,.5,
-.65,.5,
-.693412,.496202,
-.735505,.484923,
-.775,.466506,
-.810697,.441511,
-.841511,.410697,
-.866506,.375,
-.884923,.335505,
-.896202,.293412,
-.9,.25,
0.0*
%
%ADD19MACRO19*%
%AMMACRO39*
4,1,41,-1.9,0.0,
-1.9,-.25,
-1.896202,-.293412,
-1.884923,-.335505,
-1.866506,-.375,
-1.841511,-.410697,
-1.810697,-.441511,
-1.775,-.466506,
-1.735505,-.484923,
-1.693412,-.496202,
-1.65,-.5,
1.65,-.5,
1.693412,-.496202,
1.735505,-.484923,
1.775,-.466506,
1.810697,-.441511,
1.841511,-.410697,
1.866506,-.375,
1.884923,-.335505,
1.896202,-.293412,
1.9,-.25,
1.9,.25,
1.896202,.293412,
1.884923,.335505,
1.866506,.375,
1.841511,.410697,
1.810697,.441511,
1.775,.466506,
1.735505,.484923,
1.693412,.496202,
1.65,.5,
-1.65,.5,
-1.693412,.496202,
-1.735505,.484923,
-1.775,.466506,
-1.810697,.441511,
-1.841511,.410697,
-1.866506,.375,
-1.884923,.335505,
-1.896202,.293412,
-1.9,.25,
-1.9,0.0,
0.0*
%
%ADD39MACRO39*%
%AMMACRO27*
4,1,6,2.275,1.275,
2.275,2.275,
-2.275,2.275,
-2.275,-2.275,
-1.275,-2.275,
-1.275,1.275,
2.275,1.275,
0.0*
%
%ADD27MACRO27*%
%AMMACRO43*
4,1,6,1.275,-2.275,
2.275,-2.275,
2.275,2.275,
-2.275,2.275,
-2.275,1.275,
1.275,1.275,
1.275,-2.275,
0.0*
%
%ADD43MACRO43*%
%AMMACRO44*
4,1,40,.239,-.5,
-.239,-.5,
-.280218,-.496131,
-.320138,-.485164,
-.357547,-.467431,
-.391309,-.443471,
-.420397,-.414013,
-.443928,-.379951,
-.461186,-.342321,
-.471648,-.302265,
-.475,-.262,
-.475,.262,
-.471479,.303249,
-.460849,.343261,
-.443432,.380818,
-.419759,.414781,
-.390547,.444116,
-.356685,.467934,
-.319202,.485509,
-.279236,.496309,
-.239,.5,
.239,.5,
.280218,.496131,
.320138,.485164,
.357547,.467431,
.391309,.443471,
.420397,.414013,
.443928,.379951,
.461186,.342321,
.471648,.302265,
.475,.262,
.475,-.262,
.471479,-.303249,
.460849,-.343261,
.443432,-.380818,
.419759,-.414781,
.390547,-.444116,
.356685,-.467934,
.319202,-.485509,
.279236,-.496309,
.239,-.5,
0.0*
%
%ADD44MACRO44*%
%AMMACRO18*
4,1,40,-.135,.275,
.135,.275,
.158443,.272949,
.181173,.266859,
.2025,.256913,
.221776,.243416,
.238416,.226776,
.251913,.2075,
.261859,.186173,
.267949,.163443,
.27,.14,
.27,-.14,
.267949,-.163443,
.261859,-.186173,
.251913,-.2075,
.238416,-.226776,
.221776,-.243416,
.2025,-.256913,
.181173,-.266859,
.158443,-.272949,
.135,-.275,
-.135,-.275,
-.158443,-.272949,
-.181173,-.266859,
-.2025,-.256913,
-.221776,-.243416,
-.238416,-.226776,
-.251913,-.2075,
-.261859,-.186173,
-.267949,-.163443,
-.27,-.14,
-.27,.14,
-.267949,.163443,
-.261859,.186173,
-.251913,.2075,
-.238416,.226776,
-.221776,.243416,
-.2025,.256913,
-.181173,.266859,
-.158443,.272949,
-.135,.275,
0.0*
%
%ADD18MACRO18*%
%AMMACRO17*
4,1,40,-.275,-.135,
-.275,.135,
-.272949,.158443,
-.266859,.181173,
-.256913,.2025,
-.243416,.221776,
-.226776,.238416,
-.2075,.251913,
-.186173,.261859,
-.163443,.267949,
-.14,.27,
.14,.27,
.163443,.267949,
.186173,.261859,
.2075,.251913,
.226776,.238416,
.243416,.221776,
.256913,.2025,
.266859,.181173,
.272949,.158443,
.275,.135,
.275,-.135,
.272949,-.158443,
.266859,-.181173,
.256913,-.2025,
.243416,-.221776,
.226776,-.238416,
.2075,-.251913,
.186173,-.261859,
.163443,-.267949,
.14,-.27,
-.14,-.27,
-.163443,-.267949,
-.186173,-.261859,
-.2075,-.251913,
-.226776,-.238416,
-.243416,-.221776,
-.256913,-.2025,
-.266859,-.181173,
-.272949,-.158443,
-.275,-.135,
0.0*
%
%ADD17MACRO17*%
%AMMACRO32*
4,1,40,-.325,-.16,
-.325,.16,
-.322569,.187784,
-.315351,.214723,
-.303564,.24,
-.287567,.262846,
-.267846,.282567,
-.245,.298564,
-.219723,.310351,
-.192784,.317569,
-.165,.32,
.165,.32,
.192784,.317569,
.219723,.310351,
.245,.298564,
.267846,.282567,
.287567,.262846,
.303564,.24,
.315351,.214723,
.322569,.187784,
.325,.16,
.325,-.16,
.322569,-.187784,
.315351,-.214723,
.303564,-.24,
.287567,-.262846,
.267846,-.282567,
.245,-.298564,
.219723,-.310351,
.192784,-.317569,
.165,-.32,
-.165,-.32,
-.192784,-.317569,
-.219723,-.310351,
-.245,-.298564,
-.267846,-.282567,
-.287567,-.262846,
-.303564,-.24,
-.315351,-.214723,
-.322569,-.187784,
-.325,-.16,
0.0*
%
%ADD32MACRO32*%
%AMMACRO30*
4,1,41,-.45,-.188,
-.45,.188,
-.447065,.220551,
-.438521,.252099,
-.42463,.281683,
-.405812,.308406,
-.38264,.331455,
-.355817,.35013,
-.326159,.363863,
-.294567,.372238,
-.262,.375,
-.262,.375,
.262,.375,
.294567,.372238,
.326159,.363863,
.355817,.35013,
.38264,.331455,
.405812,.308406,
.42463,.281683,
.438521,.252099,
.447065,.220551,
.45,.188,
.45,-.188,
.447065,-.220551,
.438521,-.252099,
.42463,-.281683,
.405812,-.308406,
.38264,-.331455,
.355817,-.35013,
.326159,-.363863,
.294567,-.372238,
.262,-.375,
-.262,-.375,
-.294567,-.372238,
-.326159,-.363863,
-.355817,-.35013,
-.38264,-.331455,
-.405812,-.308406,
-.42463,-.281683,
-.438521,-.252099,
-.447065,-.220551,
-.45,-.188,
0.0*
%
%ADD30MACRO30*%
%AMMACRO25*
4,1,40,-.16,.325,
.16,.325,
.187784,.322569,
.214723,.315351,
.24,.303564,
.262846,.287567,
.282567,.267846,
.298564,.245,
.310351,.219723,
.317569,.192784,
.32,.165,
.32,-.165,
.317569,-.192784,
.310351,-.219723,
.298564,-.245,
.282567,-.267846,
.262846,-.287567,
.24,-.303564,
.214723,-.315351,
.187784,-.322569,
.16,-.325,
-.16,-.325,
-.187784,-.322569,
-.214723,-.315351,
-.24,-.303564,
-.262846,-.287567,
-.282567,-.267846,
-.298564,-.245,
-.310351,-.219723,
-.317569,-.192784,
-.32,-.165,
-.32,.165,
-.317569,.192784,
-.310351,.219723,
-.298564,.245,
-.282567,.267846,
-.262846,.287567,
-.24,.303564,
-.214723,.315351,
-.187784,.322569,
-.16,.325,
0.0*
%
%ADD25MACRO25*%
%ADD21O,.8X.3*%
%ADD20O,.3X.8*%
%ADD14C,.1*%
%ADD11C,.5*%
%ADD40R,.46X.5*%
%AMMACRO12*
4,1,16,-3.555,-1.175,
3.555,-1.175,
3.555,1.175,
1.652,1.175,
1.417658,.90644,
1.140242,.682652,
.828179,.510438,
.490953,.395029,
.13881,.339932,
-.217551,.346821,
-.567302,.415486,
-.899816,.543843,
-1.204989,.727989,
-1.47355,.962331,
-1.652,1.175,
-3.555,1.175,
-3.555,-1.175,
0.0*
%
%ADD12MACRO12*%
%AMMACRO41*
4,1,45,0.0,-.7,
.312,-.7,
.361931,-.695719,
.410361,-.682833,
.455817,-.661732,
.496918,-.633059,
.532416,-.597684,
.561232,-.556683,
.582491,-.511301,
.595545,-.462916,
.6,-.413,
.6,-.412,
.6,.412,
.595719,.461931,
.582833,.510361,
.561732,.555817,
.533059,.596918,
.497684,.632416,
.456683,.661232,
.411301,.682491,
.362916,.695545,
.313,.7,
.312,.7,
-.312,.7,
-.361931,.695719,
-.410361,.682833,
-.455817,.661732,
-.496918,.633059,
-.532416,.597684,
-.561232,.556683,
-.582491,.511301,
-.595545,.462916,
-.6,.413,
-.6,.412,
-.6,-.412,
-.595719,-.461931,
-.582833,-.510361,
-.561732,-.555817,
-.533059,-.596918,
-.497684,-.632416,
-.456683,-.661232,
-.411301,-.682491,
-.362916,-.695545,
-.313,-.7,
-.312,-.7,
0.0,-.7,
0.0*
%
%ADD41MACRO41*%
%AMMACRO42*
4,1,6,-2.275,-1.275,
-2.275,-2.275,
2.275,-2.275,
2.275,2.275,
1.275,2.275,
1.275,-1.275,
-2.275,-1.275,
0.0*
%
%ADD42MACRO42*%
%AMMACRO23*
4,1,6,-1.275,2.275,
-2.275,2.275,
-2.275,-2.275,
2.275,-2.275,
2.275,-1.275,
-1.275,-1.275,
-1.275,2.275,
0.0*
%
%ADD23MACRO23*%
%AMMACRO33*
4,1,41,1.9,0.0,
1.9,.25,
1.896202,.293412,
1.884923,.335505,
1.866506,.375,
1.841511,.410697,
1.810697,.441511,
1.775,.466506,
1.735505,.484923,
1.693412,.496202,
1.65,.5,
-1.65,.5,
-1.693412,.496202,
-1.735505,.484923,
-1.775,.466506,
-1.810697,.441511,
-1.841511,.410697,
-1.866506,.375,
-1.884923,.335505,
-1.896202,.293412,
-1.9,.25,
-1.9,-.25,
-1.896202,-.293412,
-1.884923,-.335505,
-1.866506,-.375,
-1.841511,-.410697,
-1.810697,-.441511,
-1.775,-.466506,
-1.735505,-.484923,
-1.693412,-.496202,
-1.65,-.5,
1.65,-.5,
1.693412,-.496202,
1.735505,-.484923,
1.775,-.466506,
1.810697,-.441511,
1.841511,-.410697,
1.866506,-.375,
1.884923,-.335505,
1.896202,-.293412,
1.9,-.25,
1.9,0.0,
0.0*
%
%ADD33MACRO33*%
%AMMACRO26*
4,1,41,0.0,-1.9,
.25,-1.9,
.293412,-1.896202,
.335505,-1.884923,
.375,-1.866506,
.410697,-1.841511,
.441511,-1.810697,
.466506,-1.775,
.484923,-1.735505,
.496202,-1.693412,
.5,-1.65,
.5,1.65,
.496202,1.693412,
.484923,1.735505,
.466506,1.775,
.441511,1.810697,
.410697,1.841511,
.375,1.866506,
.335505,1.884923,
.293412,1.896202,
.25,1.9,
-.25,1.9,
-.293412,1.896202,
-.335505,1.884923,
-.375,1.866506,
-.410697,1.841511,
-.441511,1.810697,
-.466506,1.775,
-.484923,1.735505,
-.496202,1.693412,
-.5,1.65,
-.5,-1.65,
-.496202,-1.693412,
-.484923,-1.735505,
-.466506,-1.775,
-.441511,-1.810697,
-.410697,-1.841511,
-.375,-1.866506,
-.335505,-1.884923,
-.293412,-1.896202,
-.25,-1.9,
0.0,-1.9,
0.0*
%
%ADD26MACRO26*%
%ADD46C,.2*%
%ADD47C,.3*%
%ADD48C,.4*%
%ADD49C,.6*%
%ADD50C,.15*%
%ADD51C,.28*%
%ADD52C,1.804*%
%ADD53C,.758*%
G75*
%LPD*%
G75*
G36*
G01X1187780Y1249350D02*
G03X1190900Y1246230I3120J0D01*
G01X1194100D01*
G03X1196340Y1247180I-2J3120D01*
G02X1197060Y1247480I715J-701D01*
G01X1197440D01*
G02X1198160Y1247180I5J-1001D01*
G03X1198190Y1247150I2220J2190D01*
G02X1198480Y1246440I-711J-705D01*
G01Y1244560D01*
G02X1198190Y1243850I-1001J-5D01*
G03X1197280Y1241650I2209J-2202D01*
G01Y1238350D01*
G03X1200400Y1235230I3120J0D01*
G01X1203600D01*
G03X1206470Y1237120I2J3121D01*
G02X1207390Y1237730I921J-390D01*
G01X1215270D01*
G03X1216400Y1237920I-11J3521D01*
G01X1216560Y1237980D01*
X1218500D01*
G03X1221070Y1243270I0J3269D01*
G01X1220960Y1243410D01*
X1220860Y1243710D01*
Y1245290D01*
X1220960Y1245590D01*
X1221070Y1245730D01*
G03Y1249770I-2570J2020D01*
G01X1220960Y1249910D01*
X1220860Y1250210D01*
Y1251790D01*
X1220960Y1252090D01*
X1221070Y1252230D01*
G03X1218500Y1257520I-2570J2021D01*
G01X1216560D01*
X1216400Y1257580D01*
G03X1214100I-1150J-3330D01*
G01X1213940Y1257520D01*
X1212000D01*
G03X1208820Y1255020I0J-3272D01*
G01X1208740Y1254680D01*
X1208200Y1254250D01*
X1206570D01*
X1206160Y1254440D01*
X1206020Y1254620D01*
G03X1203600Y1255770I-2419J-1970D01*
G01X1200400D01*
G03X1198160Y1254820I2J-3120D01*
G02X1197440Y1254520I-715J701D01*
G01X1197050D01*
G02X1196340Y1254820I4J1000D01*
G03X1196310Y1254850I-2221J-2191D01*
G01X1196170Y1254990D01*
X1196020Y1255350D01*
Y1256070D01*
X1196030Y1256080D01*
Y1279160D01*
G02X1196320Y1279860I1000J-4D01*
G01X1199070Y1282610D01*
X1199710Y1282710D01*
X1199990Y1282560D01*
G03X1201400Y1282230I1397J2792D01*
G01X1204620D01*
G03X1206200Y1282670I-18J3121D01*
G02X1206720Y1282810I511J-861D01*
G01X1207280D01*
G02X1207800Y1282670I9J-1001D01*
G03X1209380Y1282230I1598J2681D01*
G01X1212620D01*
G03X1214200Y1282670I-18J3121D01*
G02X1214720Y1282810I511J-861D01*
G01X1215280D01*
G02X1215800Y1282670I9J-1001D01*
G03X1217380Y1282230I1598J2681D01*
G01X1220610D01*
G03X1222560Y1282920I-7J3121D01*
G02X1223170Y1283140I627J-782D01*
G01X1223810D01*
G02X1224440Y1282930I18J-997D01*
G03X1226350Y1282280I1906J2471D01*
G01X1229650D01*
G03X1230760Y1282490I-15J3118D01*
G01X1230780D01*
X1231010Y1282580D01*
X1231480Y1282520D01*
X1233050Y1281440D01*
G02X1233480Y1280610I-571J-822D01*
G01Y1279470D01*
X1233390Y1279180D01*
X1233290Y1279050D01*
G03X1232730Y1277350I2300J-1700D01*
G01Y1274650D01*
G03X1233290Y1272950I2860J0D01*
G01X1233390Y1272820D01*
X1233480Y1272530D01*
Y1263000D01*
G03X1233670Y1261850I3521J-9D01*
G01X1233730Y1261690D01*
Y1259750D01*
G03X1240270I3270J0D01*
G01Y1261690D01*
X1240330Y1261850D01*
G03X1240520Y1263000I-3331J1141D01*
G01Y1272530D01*
X1240610Y1272820D01*
X1240710Y1272950D01*
G03X1241270Y1274650I-2300J1700D01*
G01Y1277350D01*
G03X1240710Y1279050I-2860J0D01*
G01X1240610Y1279180D01*
X1240520Y1279470D01*
Y1282440D01*
G02X1240820Y1283160I1001J5D01*
G03X1241770Y1285400I-2170J2242D01*
G01Y1288610D01*
G03X1241080Y1290560I-3121J-7D01*
G02X1240860Y1291170I782J627D01*
G01Y1291810D01*
G02X1241070Y1292440I997J18D01*
G03X1241720Y1294350I-2471J1906D01*
G01Y1297650D01*
G03X1241060Y1299570I-3120J1D01*
G02X1240850Y1300180I790J613D01*
G01Y1300820D01*
G02X1241060Y1301430I1000J-3D01*
G03X1241720Y1303350I-2460J1919D01*
G01Y1306650D01*
G03X1241050Y1308580I-3120J-2D01*
G02X1240840Y1309110I788J619D01*
G01X1240800Y1309720D01*
G02X1240920Y1310280I995J80D01*
G03X1241270Y1311650I-2518J1373D01*
G01Y1314350D01*
G03X1240710Y1316050I-2860J0D01*
G01X1240610Y1316180D01*
X1240520Y1316470D01*
Y1317540D01*
X1240610Y1317830D01*
X1240700Y1317950D01*
G03X1241220Y1319600I-2358J1650D01*
G01Y1322410D01*
G03X1240670Y1324090I-2871J-10D01*
G02X1240480Y1324680I811J587D01*
G01Y1325320D01*
G02X1240670Y1325910I1001J3D01*
G03X1241220Y1327590I-2321J1690D01*
G01Y1330400D01*
G03X1240700Y1332050I-2878J0D01*
G01X1240610Y1332170D01*
X1240520Y1332460D01*
Y1333530D01*
X1240610Y1333820D01*
X1240710Y1333950D01*
G03X1241270Y1335650I-2300J1700D01*
G01Y1338350D01*
G03X1240710Y1340050I-2860J0D01*
G01X1240610Y1340180D01*
X1240520Y1340470D01*
Y1340950D01*
G02X1240870Y1341710I999J1D01*
G03X1242080Y1344350I-2271J2638D01*
G01Y1347650D01*
G03X1241120Y1350040I-3478J-9D01*
G02X1240850Y1350730I731J684D01*
G01Y1350820D01*
G02X1241060Y1351430I1000J-3D01*
G03X1241720Y1353350I-2460J1919D01*
G01Y1356660D01*
G03X1240430Y1359180I-3121J-7D01*
G01X1240240Y1359310D01*
X1240020Y1359740D01*
Y1380800D01*
G02X1240340Y1381540I1001J6D01*
G03X1241270Y1383650I-1929J2110D01*
G01Y1386350D01*
G03X1240340Y1388460I-2859J0D01*
G02X1240020Y1389200I681J734D01*
G01Y1391400D01*
X1240600Y1391980D01*
X1240820D01*
Y1397000D01*
G02X1241820Y1398000I1000J0D01*
G01X1460660D01*
G02X1461660Y1397000I0J-1000D01*
G01Y943000D01*
G02X1460660Y942000I-1000J0D01*
G01X1066000D01*
G02X1065000Y943000I0J1000D01*
G01Y1397000D01*
G02X1066000Y1398000I1000J0D01*
G01X1196330D01*
X1196910Y1397420D01*
Y1397210D01*
X1208910D01*
X1209490Y1397790D01*
Y1398000D01*
X1218330D01*
X1218910Y1397420D01*
Y1397210D01*
X1232180D01*
G02X1233180Y1396210I0J-1000D01*
G01Y1392560D01*
X1233760Y1391980D01*
X1233980D01*
Y1389200D01*
G02X1233660Y1388460I-1001J-6D01*
G03X1232730Y1386350I1929J-2110D01*
G01Y1383650D01*
G03X1233660Y1381540I2859J0D01*
G02X1233980Y1380800I-681J-734D01*
G01Y1359740D01*
X1233760Y1359310D01*
X1233570Y1359180D01*
G03X1232280Y1356660I1831J-2527D01*
G01Y1353350D01*
G03X1232360Y1352670I3118J22D01*
G01Y1352650D01*
G02X1232170Y1351820I-978J-213D01*
G01X1231190Y1350600D01*
G02X1230410Y1350220I-784J619D01*
G01X1227590D01*
G03X1225450Y1349260I3J-2873D01*
G01X1225320Y1349100D01*
X1224920Y1348920D01*
X1212020D01*
G03X1211320Y1348630I4J-1000D01*
G01X1189920Y1327230D01*
G02X1189220Y1326940I-704J710D01*
G01X1136850D01*
X1136830Y1326920D01*
X1125250D01*
X1124740Y1327280D01*
X1124630Y1327570D01*
G03Y1320430I-9630J-3570D01*
G01X1124740Y1320720D01*
X1125250Y1321080D01*
X1139250D01*
X1139270Y1321100D01*
X1191640D01*
G03X1192340Y1321390I-4J1000D01*
G01X1213740Y1342790D01*
G02X1214440Y1343080I704J-710D01*
G01X1224920D01*
X1225320Y1342900D01*
X1225450Y1342740D01*
G03X1227590Y1341780I2143J1913D01*
G01X1230400D01*
G03X1231940Y1342230I0J2860D01*
G02X1232480Y1342390I543J-840D01*
G01X1232520D01*
G03X1233130Y1341710I2874J1965D01*
G02X1233480Y1340950I-649J-760D01*
G01Y1340470D01*
X1233390Y1340180D01*
X1233290Y1340050D01*
G03X1232730Y1338350I2300J-1700D01*
G01Y1335650D01*
G03X1233290Y1333950I2860J0D01*
G01X1233390Y1333820D01*
X1233480Y1333530D01*
Y1332460D01*
X1233390Y1332170D01*
X1233300Y1332050D01*
G03X1232780Y1330400I2358J-1650D01*
G01Y1327590D01*
G03X1233330Y1325910I2871J10D01*
G02X1233520Y1325320I-811J-587D01*
G01Y1324680D01*
G02X1233330Y1324090I-1001J-3D01*
G03X1232780Y1322410I2321J-1690D01*
G01Y1319600D01*
G03X1233300Y1317950I2878J0D01*
G01X1233390Y1317830D01*
X1233480Y1317540D01*
Y1316470D01*
X1233390Y1316180D01*
X1233290Y1316050D01*
G03X1232730Y1314350I2300J-1700D01*
G01Y1311650D01*
G03X1233080Y1310280I2868J3D01*
G02X1233200Y1309720I-875J-480D01*
G01X1233160Y1309110D01*
G02X1232950Y1308580I-998J89D01*
G03X1232280Y1306650I2450J-1932D01*
G01Y1303350D01*
G03X1232940Y1301430I3120J-1D01*
G02X1233150Y1300820I-790J-613D01*
G01Y1300180D01*
G02X1232940Y1299570I-1000J3D01*
G03X1232280Y1297650I2460J-1919D01*
G01Y1294350D01*
G03X1232310Y1293950I3118J33D01*
G01Y1293930D01*
X1232340Y1293700D01*
X1232190Y1293270D01*
X1230890Y1291970D01*
G02X1230070Y1291690I-701J713D01*
G01X1230060D01*
G03X1229650Y1291720I-432J-3088D01*
G01X1226350D01*
G03X1224440Y1291070I-4J-3121D01*
G02X1223810Y1290860I-612J787D01*
G01X1223170D01*
G02X1222560Y1291080I17J1002D01*
G03X1220610Y1291770I-1957J-2431D01*
G01X1217380D01*
G03X1215800Y1291330I18J-3121D01*
G02X1215280Y1291190I-511J861D01*
G01X1214720D01*
G02X1214200Y1291330I-9J1001D01*
G03X1212620Y1291770I-1598J-2681D01*
G01X1209380D01*
G03X1207800Y1291330I18J-3121D01*
G02X1207280Y1291190I-511J861D01*
G01X1206720D01*
G02X1206200Y1291330I-9J1001D01*
G03X1204620Y1291770I-1598J-2681D01*
G01X1201400D01*
G03X1201010Y1291740I44J-3117D01*
G01X1200990D01*
X1200800Y1291720D01*
X1200420Y1291820D01*
X1199140Y1292800D01*
G02X1198760Y1293480I616J790D01*
G03X1191420Y1291750I-3760J-484D01*
G01X1191480Y1291580D01*
Y1285390D01*
G02X1191190Y1284690I-1000J4D01*
G01X1189280Y1282780D01*
G03X1188990Y1282080I710J-704D01*
G01Y1259000D01*
X1188980Y1258990D01*
Y1255560D01*
G02X1188690Y1254850I-1001J-5D01*
G03X1187780Y1252650I2209J-2202D01*
G01Y1249350D01*
G37*
G36*
G01X1128400Y1405900D02*
Y1467600D01*
X1384200D01*
Y1455500D01*
X1220200D01*
Y1437500D01*
X1230200D01*
Y1432480D01*
X1239300Y1419280D01*
Y1398500D01*
X1234700D01*
Y1417850D01*
X1229490Y1425400D01*
X1198200D01*
Y1437500D01*
X1208200D01*
Y1445500D01*
X1150200D01*
Y1418800D01*
X1230200D01*
Y1398500D01*
X1220200D01*
Y1405900D01*
X1208200D01*
Y1398500D01*
X1198200D01*
Y1405900D01*
X1128400D01*
G37*
%LPC*%
G75*
G36*
G01X1085500Y1218020D02*
X1086500D01*
G02X1086000Y1197980I-507J-10014D01*
G02X1085500Y1218020I7J10026D01*
G37*
G36*
G01X1079500Y967020D02*
X1080500D01*
G02X1080000Y946980I-507J-10014D01*
G02X1079500Y967020I7J10026D01*
G37*
G36*
G01X1444500Y965020D02*
X1445500D01*
G02X1445000Y944980I-507J-10014D01*
G02X1444500Y965020I7J10026D01*
G37*
G36*
G01X1304770Y1243600D02*
Y1240400D01*
G02X1301990Y1237300I-3120J1D01*
G03X1301660Y1235410I111J-993D01*
G02X1302010Y1235220I-1632J-3424D01*
G03X1302550Y1235060I543J840D01*
G01X1303130Y1235070D01*
G03X1303660Y1235230I-12J998D01*
G02X1305340Y1235720I1679J-2632D01*
G01X1308650D01*
G02X1311770Y1232600I0J-3120D01*
G01Y1229400D01*
G02X1308650Y1226280I-3120J0D01*
G01X1305350D01*
G02X1302730Y1227710I2J3119D01*
G03X1302250Y1228100I-840J-544D01*
G01X1301660Y1228320D01*
G03X1301030Y1228350I-360J-931D01*
G02X1297240Y1229410I-1023J3648D01*
G03X1296500Y1229730I-733J-680D01*
G01X1288410D01*
G03X1287500Y1229150I-2J-1001D01*
G01Y1229140D01*
G02X1284650Y1227280I-2853J1259D01*
G01X1281350D01*
G02X1279430Y1227940I-1J3120D01*
G03X1278820Y1228150I-613J-790D01*
G01X1278180D01*
G03X1277570Y1227940I3J-1000D01*
G02X1275650Y1227280I-1919J2460D01*
G01X1272350D01*
G02X1269500Y1229130I0J3120D01*
G01Y1229150D01*
G03X1268590Y1229730I-908J-421D01*
G01X1268200D01*
G02X1267500Y1230020I4J1000D01*
G01X1265330Y1232190D01*
G03X1264630Y1232480I-704J-710D01*
G01X1258240D01*
G03X1257600Y1232250I-2J-1001D01*
G02X1255500Y1231480I-2100J2479D01*
G01X1249000D01*
G02X1246430Y1236770I0J3269D01*
G01X1246540Y1236910D01*
X1246640Y1237210D01*
Y1238790D01*
X1246540Y1239090D01*
X1246430Y1239230D01*
G02Y1243270I2570J2020D01*
G01X1246540Y1243410D01*
X1246640Y1243710D01*
Y1245290D01*
X1246540Y1245590D01*
X1246430Y1245730D01*
G02Y1249770I2570J2020D01*
G01X1246540Y1249910D01*
X1246640Y1250210D01*
Y1251790D01*
X1246540Y1252090D01*
X1246430Y1252230D01*
G02X1249000Y1257520I2570J2021D01*
G01X1251560D01*
G03X1252330Y1257880I2J1000D01*
G01X1257620Y1264210D01*
X1257740Y1264560D01*
X1257730Y1264750D01*
Y1268100D01*
G02X1258660Y1270320I3119J-2D01*
G03X1258960Y1271030I-700J714D01*
G01Y1272470D01*
G03X1258660Y1273180I-1000J-4D01*
G02X1257730Y1275400I2189J2222D01*
G01Y1278600D01*
G02X1260850Y1281720I3120J0D01*
G01X1264150D01*
G02X1267270Y1278600I0J-3120D01*
G01Y1275400D01*
G02X1266340Y1273180I-3119J2D01*
G03X1266040Y1272470I700J-714D01*
G01Y1271030D01*
G03X1266340Y1270320I1000J4D01*
G02X1267270Y1268100I-2189J-2222D01*
G01Y1264900D01*
G02X1264150Y1261780I-3120J0D01*
G01X1261980D01*
G03X1261210Y1261420I-2J-1000D01*
G01X1257790Y1257330D01*
Y1256610D01*
X1258020Y1256330D01*
G02X1258460Y1252870I-2521J-2079D01*
G03X1258520Y1251910I906J-425D01*
G01X1259440Y1250480D01*
G03X1260280Y1250020I841J539D01*
G01X1266130D01*
G03X1266830Y1250310I-4J1000D01*
G01X1268980Y1252460D01*
G03X1269260Y1253020I-710J705D01*
G01Y1253030D01*
G02X1272350Y1255720I3090J-430D01*
G01X1275650D01*
G02X1277570Y1255060I1J-3120D01*
G03X1278180Y1254850I613J790D01*
G01X1278820D01*
G03X1279430Y1255060I-3J1000D01*
G02X1281350Y1255720I1919J-2460D01*
G01X1284650D01*
G02X1286900Y1254760I-1J-3120D01*
G01X1287010Y1254640D01*
X1287300Y1254490D01*
X1288810Y1254250D01*
X1289110Y1254290D01*
X1289260Y1254370D01*
G02X1293560Y1253800I1741J-3369D01*
G01X1293690Y1253680D01*
X1294040Y1253540D01*
X1294230D01*
G03X1295230Y1254540I0J1000D01*
G01Y1254600D01*
G02X1298350Y1257720I3120J0D01*
G01X1301650D01*
G02X1304770Y1254600I0J-3120D01*
G01Y1251400D01*
G02X1303670Y1249020I-3121J-2D01*
G01X1303500Y1248880D01*
X1303320Y1248480D01*
Y1246740D01*
G03X1303670Y1245980I1000J0D01*
G02X1304770Y1243600I-2021J-2378D01*
G37*
G36*
G01X1224230Y1180390D02*
Y1183600D01*
G02X1225180Y1185840I3120J-2D01*
G03X1225480Y1186560I-701J715D01*
G01Y1216830D01*
Y1216890D01*
G02X1226500Y1219580I3513J206D01*
G01X1226690Y1219770D01*
G03X1226980Y1220470I-710J704D01*
G01Y1226000D01*
G02X1227170Y1227150I3521J9D01*
G01X1227230Y1227310D01*
Y1229250D01*
G02X1232520Y1231820I3269J0D01*
G01X1232660Y1231710D01*
X1232960Y1231610D01*
X1234540D01*
X1234840Y1231710D01*
X1234980Y1231820D01*
G02X1240270Y1229250I2021J-2570D01*
G01Y1227310D01*
X1240330Y1227150D01*
G02X1240520Y1226000I-3331J-1141D01*
G01Y1220300D01*
G03X1240810Y1219600I1000J4D01*
G01X1242160Y1218250D01*
G02X1242270Y1216960I-704J-710D01*
G01X1241700Y1216160D01*
G03X1241520Y1215580I821J-573D01*
G01Y1186560D01*
G03X1241820Y1185840I1001J-5D01*
G02X1242770Y1183600I-2170J-2242D01*
G01Y1180390D01*
G02X1242410Y1178940I-3121J5D01*
G01X1242350Y1178830D01*
X1242290Y1178600D01*
Y1175970D01*
G02X1242260Y1175720I-1000J-7D01*
G01X1242060Y1174930D01*
X1242290Y1174330D01*
X1242550Y1174160D01*
G02X1244450Y1172550I-6324J-9389D01*
G01X1244500Y1172500D01*
X1246620Y1170800D01*
G02X1247000Y1170020I-619J-784D01*
G01Y1162430D01*
G02X1246680Y1161700I-1000J3D01*
G01X1246590Y1161290D01*
X1246750Y1160900D01*
G03X1247680Y1160270I929J370D01*
G01X1250240D01*
G03X1251110Y1160770I4J1000D01*
G02X1251310Y1161080I2506J-1397D01*
G03X1251510Y1161680I-800J600D01*
G01Y1162320D01*
G03X1251310Y1162920I-1001J0D01*
G02X1250730Y1164650I2290J1730D01*
G01Y1167350D01*
G02X1253550Y1170220I2870J0D01*
G01X1253560D01*
G03X1254240Y1170510I-25J1000D01*
G01X1281460Y1197730D01*
G02X1282160Y1198020I704J-710D01*
G01X1306830D01*
G02X1307530Y1197730I-4J-1000D01*
G01X1326730Y1178530D01*
G02X1327020Y1177830I-710J-704D01*
G01Y1147160D01*
G02X1326730Y1146460I-1000J4D01*
G01X1313540Y1133270D01*
G02X1312840Y1132980I-704J710D01*
G01X1290520D01*
G03X1289520Y1131980I0J-1000D01*
G01Y1117680D01*
X1289580Y1117510D01*
G02X1289780Y1115950I-3579J-1252D01*
G01X1289760Y1115740D01*
X1289900Y1115340D01*
X1291030Y1114100D01*
G03X1291770Y1113780I734J681D01*
G01X1406800D01*
G03X1407510Y1114080I-4J999D01*
G01X1408510Y1115090D01*
G03X1408800Y1115790I-709J704D01*
G01Y1115800D01*
G02X1418870Y1106920I9020J79D01*
G01X1418590Y1106890D01*
X1418140Y1106530D01*
X1417450Y1104550D01*
G03X1417690Y1103520I948J-322D01*
G01X1436980Y1084230D01*
G02X1437270Y1083530I-710J-704D01*
G01Y1046350D01*
G03X1437560Y1045650I1000J4D01*
G01X1438150Y1045060D01*
G03X1438850Y1044770I704J710D01*
G01X1439000D01*
G03X1439730Y1045090I-3J1000D01*
G02X1443310Y1046200I2766J-2591D01*
G01X1443530Y1046150D01*
X1443960Y1046260D01*
X1445360Y1047380D01*
G03X1445730Y1048160I-630J777D01*
G01Y1049650D01*
G03X1445440Y1050350I-1000J-4D01*
G01X1444720Y1051070D01*
X1444330Y1051220D01*
X1444130Y1051210D01*
G02X1445790Y1058340I-129J3788D01*
G01X1446030Y1058210D01*
X1446550Y1058220D01*
X1448250Y1059250D01*
G03X1448730Y1060100I-520J854D01*
G01Y1077650D01*
G03X1448440Y1078350I-1000J-4D01*
G01X1442020Y1084770D01*
G02X1441730Y1085470I710J704D01*
G01Y1090510D01*
G03X1441410Y1091240I-1000J-3D01*
G02X1447750Y1093440I2593J2762D01*
G03X1447960Y1092650I988J-160D01*
G01X1448890Y1091510D01*
G03X1449600Y1091140I778J626D01*
G02X1453150Y1087230I-238J-3782D01*
G01X1453140Y1087030D01*
X1453290Y1086640D01*
X1455980Y1083950D01*
G02X1456270Y1083250I-710J-704D01*
G01Y1006470D01*
G02X1455980Y1005770I-1000J4D01*
G01X1428890Y978680D01*
G02X1428190Y978390I-704J710D01*
G01X1426680D01*
G03X1425780Y977840I-6J-1001D01*
G01X1424850Y975980D01*
X1424900Y975430D01*
X1425070Y975200D01*
G02X1410570I-7250J-5370D01*
G01X1410740Y975430D01*
X1410790Y975980D01*
X1409860Y977840D01*
G03X1408960Y978390I-894J-451D01*
G01X1385310D01*
G02X1384610Y978680I4J1000D01*
G01X1362850Y1000440D01*
G03X1362150Y1000730I-704J-710D01*
G01X1208680D01*
X1208670Y1000720D01*
X1204720D01*
G02X1204020Y1001010I4J1000D01*
G01X1175020Y1030010D01*
G02X1174730Y1030710I710J704D01*
G01Y1089630D01*
G03X1174440Y1090330I-1000J-4D01*
G01X1171770Y1093000D01*
G02X1171480Y1093700I710J704D01*
G01Y1093810D01*
G03X1170670Y1094790I-1000J-2D01*
G01X1170630D01*
G03X1169790Y1094590I-211J-978D01*
G01X1168590Y1093610D01*
G03X1168220Y1092830I630J-776D01*
G01Y1092600D01*
G02X1165350Y1089730I-2870J0D01*
G01X1162650D01*
G02X1160790Y1090410I0J2884D01*
G01X1160650Y1090530D01*
X1160320Y1090650D01*
X1158680D01*
X1158350Y1090530D01*
X1158210Y1090410D01*
G02X1156350Y1089730I-1860J2204D01*
G01X1154420D01*
G03X1153720Y1089440I4J-1000D01*
G01X1151880Y1087600D01*
X1151740Y1087340D01*
X1151710Y1087200D01*
G02X1151180Y1085930I-3705J801D01*
G03X1151020Y1085390I840J-543D01*
G01Y1046660D01*
G03X1151310Y1045960I1000J4D01*
G01X1202460Y994810D01*
G03X1203160Y994520I704J710D01*
G01X1356400D01*
G03X1356940Y994680I-3J1000D01*
G02Y988320I2060J-3180D01*
G03X1356400Y988480I-543J-840D01*
G01X1200660D01*
G02X1199960Y988770I4J1000D01*
G01X1145270Y1043460D01*
G02X1144980Y1044160I710J704D01*
G01Y1045350D01*
G03X1144690Y1046060I-1000J6D01*
G01X1142560Y1048180D01*
G02X1142270Y1048860I710J705D01*
G01Y1048870D01*
G03X1141470Y1049820I-1000J-30D01*
G01X1141080Y1049900D01*
G02X1140580Y1050170I205J978D01*
G01X1139560Y1051180D01*
G02X1139270Y1051880I710J704D01*
G01Y1068950D01*
G02X1139640Y1069720I1000J-7D01*
G01X1140110Y1070100D01*
G03X1140270Y1071510I-622J785D01*
G01X1140200Y1071590D01*
X1140110Y1071660D01*
G02X1139910Y1077360I2392J2937D01*
G03X1140230Y1078090I-680J733D01*
G01Y1093840D01*
G02X1140520Y1094540I1000J-4D01*
G01X1148550Y1102570D01*
G02X1149250Y1102860I704J-710D01*
G01X1150240D01*
G03X1150940Y1103150I-4J1000D01*
G01X1153830Y1106040D01*
G03X1154120Y1106810I-707J706D01*
G01X1154020Y1108510D01*
X1153820Y1108890D01*
X1153650Y1109020D01*
G02X1152870Y1109860I2357J2971D01*
G01X1152750Y1110040D01*
X1152360Y1110270D01*
X1150610Y1110440D01*
G03X1149810Y1110150I-91J-997D01*
G01X1146980Y1107320D01*
X1146970D01*
X1134480Y1094820D01*
G03X1134350Y1093560I704J-709D01*
G01X1134570Y1093230D01*
G02X1134730Y1092680I-841J-543D01*
G01Y1045750D01*
G03X1135020Y1045050I1000J4D01*
G01X1137740Y1042330D01*
G02X1137980Y1041940I-710J-706D01*
G01X1138050Y1041720D01*
X1139340Y1040430D01*
X1139730Y1040280D01*
X1139930Y1040290D01*
G02X1142180Y1033360I130J-3788D01*
G01X1142070Y1033290D01*
X1141990Y1033190D01*
G03X1142070Y1031790I748J-660D01*
G01X1142390Y1031500D01*
G02X1142730Y1030750I-660J-751D01*
G01Y1029550D01*
G02X1142390Y1028800I-1000J1D01*
G01X1142070Y1028510D01*
G03X1141990Y1027110I668J-740D01*
G01X1142070Y1027010D01*
X1142180Y1026940D01*
G02X1141370Y1020240I-2120J-3143D01*
G01X1141240Y1020200D01*
X1141130Y1020120D01*
G03X1140910Y1018720I586J-809D01*
G01X1141100Y1018450D01*
G02X1141270Y1018090I-801J-599D01*
G01X1141310Y1017900D01*
X1141270Y1017690D01*
G03X1141210Y1016820I3728J-694D01*
G01X1141220Y1016630D01*
X1141170Y1016470D01*
G02X1140990Y1016140I-953J306D01*
G01X1140970Y1016120D01*
G03X1141110Y1014720I776J-629D01*
G01X1141240Y1014610D01*
X1141390Y1014550D01*
G02Y1007450I-1330J-3550D01*
G01X1141240Y1007390D01*
X1141110Y1007280D01*
G03X1140970Y1005880I636J-771D01*
G01X1140990Y1005860D01*
G02X1141170Y1005530I-773J-636D01*
G01X1141220Y1005370D01*
X1141210Y1005180D01*
G03X1141660Y1003210I3787J-171D01*
G02X1141710Y1002380I-881J-470D01*
G03X1142110Y1001190I938J-347D01*
G02X1141560Y994520I-2049J-3189D01*
G01X1141330Y994420D01*
X1141030Y994040D01*
X1140670Y992160D01*
G03X1140940Y991270I982J-188D01*
G01X1142280Y989930D01*
X1142670Y989780D01*
X1142870Y989790D01*
G02X1139210Y986130I130J-3790D01*
G01X1139220Y986330D01*
X1139070Y986720D01*
X1117020Y1008770D01*
G02X1116730Y1009470I710J704D01*
G01Y1100090D01*
G02X1117020Y1100790I1000J-4D01*
G01X1155080Y1138850D01*
G03X1155370Y1139640I-706J708D01*
G01X1155240Y1141170D01*
G03X1154820Y1141900I-996J-87D01*
G02X1157600Y1148740I2181J3098D01*
G01X1157680Y1148730D01*
X1158050D01*
G03X1158750Y1149020I-4J1000D01*
G01X1159780Y1150050D01*
X1159920Y1150590D01*
X1159840Y1150850D01*
G02X1159730Y1151650I2762J787D01*
G01Y1154350D01*
G02X1162600Y1157220I2870J0D01*
G01X1165410D01*
G02X1166320Y1157070I-6J-2871D01*
G03X1167550Y1158430I320J947D01*
G02X1167440Y1161300I3450J1569D01*
G01X1167530Y1161540D01*
X1167460Y1162010D01*
X1166380Y1163560D01*
G03X1165560Y1163980I-815J-581D01*
G01X1146850D01*
G03X1146150Y1163690I4J-1000D01*
G01X1110740Y1128280D01*
G03X1110540Y1127160I710J-705D01*
G01X1111470Y1125160D01*
X1111990Y1124850D01*
X1112310Y1124870D01*
G02X1108360Y1108160I712J-8990D01*
G03X1107650Y1108290I-523J-853D01*
G01X1106340Y1108040D01*
G03X1105750Y1107680I194J-981D01*
G01X1105740Y1107670D01*
G02X1102440Y1106220I-2992J2329D01*
G01X1102230Y1106240D01*
X1101830Y1106100D01*
X1100590Y1104970D01*
G03X1100270Y1104230I681J-734D01*
G01Y1035290D01*
G02X1099980Y1034590I-1000J4D01*
G01X1089910Y1024520D01*
X1089760Y1024130D01*
X1089770Y1023930D01*
G02X1086110Y1027590I-3790J-130D01*
G01X1086310Y1027580D01*
X1086700Y1027730D01*
X1092000Y1033030D01*
G03X1092210Y1034120I-711J702D01*
G01X1092100Y1034400D01*
X1091600Y1034730D01*
X1089470D01*
G03X1088740Y1034410I3J-1000D01*
G02X1088370Y1039950I-2760J2598D01*
G03X1089000Y1039720I638J769D01*
G01X1089610Y1039730D01*
G03X1090310Y1040020I-4J999D01*
G01X1092440Y1042150D01*
G03X1092730Y1042850I-710J704D01*
G01Y1050350D01*
G03X1092110Y1051280I-1001J4D01*
G01X1091830Y1051390D01*
X1091250Y1051280D01*
X1089680Y1049710D01*
X1089530Y1049320D01*
X1089540Y1049120D01*
G02X1085880Y1052790I-3790J-119D01*
G01X1086080Y1052780D01*
X1086470Y1052930D01*
X1088010Y1054470D01*
X1088020D01*
X1089440Y1055890D01*
G03X1089730Y1056590I-710J704D01*
G01Y1058080D01*
G03X1088730Y1059080I-1000J0D01*
G01X1088570D01*
X1088280Y1058990D01*
X1088160Y1058900D01*
G02X1083390Y1064760I-2177J3100D01*
G03X1083710Y1065490I-680J733D01*
G01Y1067050D01*
G02X1084000Y1067750I1000J-4D01*
G01X1084100Y1067850D01*
X1084240Y1068350D01*
X1083710Y1070540D01*
X1083360Y1070910D01*
X1083110Y1070990D01*
G02X1081660Y1077360I1143J3610D01*
G03X1081980Y1078090I-680J733D01*
G01Y1079650D01*
G02X1082270Y1080350I1000J-4D01*
G01X1083440Y1081520D01*
G03X1083730Y1082220I-710J704D01*
G01Y1082230D01*
G03X1083410Y1082970I-1001J6D01*
G01X1082170Y1084100D01*
X1081770Y1084240D01*
X1081560Y1084220D01*
G02X1078660Y1090760I-307J3777D01*
G03X1078980Y1091490I-680J733D01*
G01Y1128030D01*
G02X1079270Y1128730I1000J-4D01*
G01X1136770Y1186230D01*
G02X1137470Y1186520I704J-710D01*
G01X1193860D01*
G03X1194790Y1187140I4J1001D01*
G01X1194900Y1187420D01*
X1194790Y1188000D01*
X1191350Y1191440D01*
G03X1190650Y1191730I-704J-710D01*
G01X1161740D01*
G03X1160860Y1191220I-7J-1002D01*
G01Y1191210D01*
G02X1158350Y1189730I-2510J1388D01*
G01X1155650D01*
G02X1153140Y1191210I0J2868D01*
G01Y1191220D01*
G03X1152260Y1191730I-873J-492D01*
G01X1151750D01*
G02X1151050Y1192020I4J1000D01*
G01X1150740Y1192330D01*
G03X1149960Y1192620I-707J-709D01*
G01X1148240Y1192490D01*
X1147860Y1192280D01*
X1147730Y1192100D01*
G02X1144500Y1190480I-3230J2410D01*
G01X1131500D01*
G02X1127480Y1194500I0J4020D01*
G01Y1199500D01*
G02X1131500Y1203520I4020J0D01*
G01X1144500D01*
G02X1148470Y1200120I0J-4018D01*
G03X1149460Y1199270I989J150D01*
G01X1149810D01*
G02X1150510Y1198980I-4J-1000D01*
G01X1151490Y1198000D01*
G03X1152100Y1197720I697J715D01*
G01X1153540Y1197580D01*
X1153890Y1197670D01*
X1154030Y1197770D01*
G02X1155650Y1198270I1620J-2374D01*
G01X1158350D01*
G02X1160860Y1196790I0J-2868D01*
G01Y1196780D01*
G03X1161740Y1196270I873J492D01*
G01X1169110D01*
G03X1170040Y1196890I4J1001D01*
G01X1170150Y1197170D01*
X1170040Y1197750D01*
X1160970Y1206820D01*
G02X1160680Y1207520I710J704D01*
G01Y1218650D01*
G03X1160390Y1219350I-1000J-4D01*
G01X1159300Y1220440D01*
G03X1158600Y1220730I-704J-710D01*
G01X1156650D01*
G02X1155030Y1221230I0J2874D01*
G01X1154890Y1221330D01*
X1154540Y1221420D01*
X1153100Y1221280D01*
G03X1152490Y1221000I87J-995D01*
G01X1151510Y1220020D01*
G02X1150810Y1219730I-704J710D01*
G01X1149460D01*
G03X1148470Y1218880I-1J-1000D01*
G02X1144500Y1215480I-3970J618D01*
G01X1131500D01*
G02X1127480Y1219500I0J4020D01*
G01Y1224500D01*
G02X1131500Y1228520I4020J0D01*
G01X1144500D01*
G02X1147990Y1226490I0J-4015D01*
G01Y1226480D01*
G03X1148730Y1226000I858J513D01*
G01X1150300Y1225790D01*
G03X1151140Y1226070I137J989D01*
G01X1152050Y1226980D01*
G02X1152750Y1227270I704J-710D01*
G01X1153260D01*
G03X1154140Y1227780I7J1002D01*
G01Y1227790D01*
G02X1156650Y1229270I2510J-1388D01*
G01X1159350D01*
G02X1162220Y1226400I0J-2870D01*
G01Y1224350D01*
G03X1162510Y1223650I1000J4D01*
G01X1164930Y1221230D01*
G02X1165220Y1220530I-710J-704D01*
G01Y1209400D01*
G03X1165510Y1208700I1000J4D01*
G01X1172650Y1201560D01*
G03X1173350Y1201270I704J710D01*
G01X1193530D01*
G02X1194230Y1200980I-4J-1000D01*
G01X1219920Y1175290D01*
G03X1220620Y1175000I704J710D01*
G01X1223710D01*
G03X1224710Y1176000I0J1000D01*
G01Y1178600D01*
X1224650Y1178830D01*
X1224590Y1178940D01*
G02X1224230Y1180390I2761J1455D01*
G37*
G54D52*
X1113020Y969830D03*
G54D53*
X1364500Y1125000D03*
%LPD*%
G75*
G36*
G01X1400150Y989220D02*
X1399560Y989810D01*
G02X1399270Y990510I710J704D01*
G01Y1000030D01*
G03X1398980Y1000730I-1000J-4D01*
G01X1398970Y1000750D01*
X1398850Y1001330D01*
X1398960Y1001610D01*
G02X1399890Y1002230I926J-381D01*
G01X1414240D01*
G02X1414970Y1001910I-3J-999D01*
G03Y1007090I2770J2590D01*
G02X1414240Y1006770I-733J679D01*
G01X1397600D01*
G02X1396900Y1007060I4J1000D01*
G01X1394980Y1008980D01*
G03X1394280Y1009270I-704J-710D01*
G01X1382100D01*
G02X1381400Y1009560I4J1000D01*
G01X1370980Y1019980D01*
G03X1370280Y1020270I-704J-710D01*
G01X1370060D01*
X1369560Y1020600D01*
X1369450Y1020880D01*
G02X1369660Y1021970I921J388D01*
G01X1370250Y1022560D01*
G02X1371070Y1022850I711J-705D01*
G01X1372850Y1022640D01*
X1373240Y1022400D01*
X1373360Y1022210D01*
G03X1372470Y1029940I7639J4796D01*
G01X1372370Y1029640D01*
X1371850Y1029270D01*
X1370950D01*
G03X1370250Y1028980I4J-1000D01*
G01X1364830Y1023560D01*
G02X1364130Y1023270I-704J710D01*
G01X1214350D01*
G02X1213650Y1023560I4J1000D01*
G01X1207560Y1029650D01*
G02X1207270Y1030350I710J704D01*
G01Y1047220D01*
G02X1207720Y1048050I999J-5D01*
G01X1209340Y1049110D01*
X1209830Y1049160D01*
X1210070Y1049050D01*
G03X1210710Y1048840I1531J3585D01*
G01X1211050Y1048760D01*
X1211480Y1048210D01*
Y1043540D01*
G03X1211770Y1042830I1002J-5D01*
G01X1219830Y1034770D01*
G03X1220540Y1034480I705J712D01*
G01X1226070D01*
X1226350Y1034400D01*
X1226480Y1034310D01*
G03X1228370Y1033730I1898J2814D01*
G01X1233630D01*
G03X1236340Y1035080I-1J3396D01*
G01X1236480Y1035270D01*
X1236900Y1035480D01*
X1256040D01*
G03X1256750Y1035770I6J1000D01*
G01X1287490Y1066510D01*
X1287640Y1066580D01*
G03X1289740Y1070640I-1638J3420D01*
G01X1289700Y1070860D01*
X1289810Y1071280D01*
X1290940Y1072620D01*
G02X1291710Y1072980I768J-639D01*
G01X1352270D01*
X1352800Y1072590D01*
X1352890Y1072270D01*
G03X1355320Y1069710I3732J1109D01*
G01X1355620Y1069600D01*
X1355980Y1069090D01*
Y1062910D01*
X1355620Y1062400D01*
X1355320Y1062290D01*
G03X1352730Y1058630I1303J-3669D01*
G01Y1053370D01*
G03X1355320Y1049710I3893J9D01*
G01X1355620Y1049600D01*
X1355980Y1049090D01*
Y1032460D01*
X1355900Y1032180D01*
X1355820Y1032060D01*
G03X1362180I3180J-2060D01*
G01X1362100Y1032180D01*
X1362020Y1032460D01*
Y1049090D01*
X1362380Y1049600D01*
X1362680Y1049710D01*
G03X1365270Y1053370I-1303J3669D01*
G01Y1058630D01*
G03X1362680Y1062290I-3893J-9D01*
G01X1362380Y1062400D01*
X1362020Y1062910D01*
Y1069090D01*
X1362380Y1069600D01*
X1362680Y1069710D01*
G03X1365270Y1073370I-1303J3669D01*
G01Y1078630D01*
G03X1361390Y1082520I-3895J-5D01*
G01X1356610D01*
G03X1352890Y1079730I15J-3895D01*
G01X1352800Y1079410D01*
X1352270Y1079020D01*
X1278460D01*
X1278180Y1079100D01*
X1278060Y1079180D01*
G03X1272290Y1076790I-2063J-3180D01*
G01X1272260Y1076650D01*
X1272130Y1076400D01*
X1269420Y1073690D01*
G02X1268710Y1073400I-704J710D01*
G01X1262240D01*
G02X1261530Y1073690I-6J1000D01*
G01X1258510Y1076710D01*
G02X1258220Y1077420I710J704D01*
G01Y1078400D01*
G03X1257670Y1080090I-2871J0D01*
G02X1257480Y1080680I808J586D01*
G01Y1081320D01*
G02X1257670Y1081910I998J4D01*
G03X1257690Y1081930I-1995J2015D01*
G02X1259310I810J-578D01*
G03X1261650Y1080730I2340J1682D01*
G01X1264350D01*
G03X1266860Y1082210I0J2868D01*
G01X1267000Y1082460D01*
X1267460Y1082730D01*
X1268250D01*
G03X1268950Y1083020I-4J1000D01*
G01X1270370Y1084440D01*
G02X1271070Y1084730I704J-710D01*
G01X1378880D01*
G02X1379580Y1084440I-4J-1000D01*
G01X1381000Y1083020D01*
G03X1381700Y1082730I704J710D01*
G01X1382430D01*
G02X1383130Y1082440I-4J-1000D01*
G01X1394440Y1071130D01*
G02X1394730Y1070430I-710J-704D01*
G01Y1066500D01*
G02X1394110Y1065580I-999J4D01*
G01X1393830Y1065460D01*
X1393250Y1065580D01*
X1392830Y1066000D01*
G03X1392120Y1066290I-705J-711D01*
G01X1371880D01*
G03X1371170Y1066000I-5J-1001D01*
G01X1369000Y1063830D01*
G03X1368710Y1063120I711J-705D01*
G01Y1048880D01*
G03X1369000Y1048170I1001J-5D01*
G01X1371170Y1046000D01*
G03X1371880Y1045710I705J711D01*
G01X1392120D01*
G03X1392830Y1046000I5J1001D01*
G01X1393030Y1046200D01*
G02X1394120Y1046420I709J-704D01*
G01X1394400Y1046300D01*
X1394730Y1045810D01*
Y1023250D01*
G02X1394440Y1022550I-1000J4D01*
G01X1392720Y1020830D01*
X1392340Y1020680D01*
X1392130Y1020690D01*
G03X1395790Y1017030I-130J-3790D01*
G01X1395780Y1017240D01*
X1395930Y1017620D01*
X1398980Y1020670D01*
G03X1399270Y1021370I-710J704D01*
G01Y1072310D01*
G03X1398980Y1073010I-1000J-4D01*
G01X1390050Y1081940D01*
G02X1389760Y1082720I706J706D01*
G01X1389880Y1084460D01*
X1390080Y1084830D01*
X1390270Y1084960D01*
G03X1391700Y1088810I-2272J3034D01*
G01X1391650Y1089030D01*
X1391760Y1089470D01*
X1392880Y1090860D01*
G02X1393660Y1091230I777J-630D01*
G01X1397650D01*
G02X1398350Y1090940I-4J-1000D01*
G01X1406740Y1082550D01*
G02X1407030Y1081850I-710J-704D01*
G01Y1077640D01*
G03X1407320Y1076940I1000J4D01*
G01X1415440Y1068820D01*
G02X1415730Y1068120I-710J-704D01*
G01Y1058540D01*
G02X1415410Y1057810I-999J3D01*
G03X1418480Y1051280I2588J-2770D01*
G01X1418700Y1051310D01*
X1419100Y1051190D01*
X1420390Y1050050D01*
G02X1420730Y1049300I-661J-752D01*
G01Y1048350D01*
G02X1420440Y1047650I-1000J4D01*
G01X1418720Y1045930D01*
X1418340Y1045780D01*
X1418130Y1045790D01*
G03X1417490Y1038240I-130J-3791D01*
G01X1417780Y1038210D01*
X1418210Y1037850D01*
X1418880Y1035880D01*
G02X1418640Y1034850I-948J-322D01*
G01X1417720Y1033930D01*
X1417340Y1033780D01*
X1417130Y1033790D01*
G03X1416000Y1026350I-125J-3787D01*
G01X1416330Y1026250D01*
X1416730Y1025720D01*
Y1020500D01*
G02X1416410Y1019770I-999J3D01*
G03X1421590I2590J-2770D01*
G02X1421270Y1020500I679J733D01*
G01Y1023650D01*
G02X1421560Y1024350I1000J-4D01*
G01X1430980Y1033770D01*
G03X1431270Y1034470I-710J704D01*
G01Y1035110D01*
G02X1431890Y1036040I1001J4D01*
G01X1432170Y1036150D01*
X1432750Y1036030D01*
X1438070Y1030720D01*
X1438220Y1030340D01*
X1438210Y1030130D01*
G03X1443130Y1026380I3789J-131D01*
G01X1443370Y1026460D01*
X1443830Y1026380D01*
X1445320Y1025280D01*
G02X1445730Y1024470I-589J-807D01*
G01Y1010850D01*
G02X1445440Y1010150I-1000J4D01*
G01X1424510Y989220D01*
G02X1423810Y988930I-704J710D01*
G01X1400850D01*
G02X1400150Y989220I4J1000D01*
G37*
G36*
G01X1236480Y1042730D02*
X1236340Y1042920D01*
G03X1233630Y1044270I-2711J-2046D01*
G01X1228370D01*
G03X1226480Y1043690I8J-3394D01*
G01X1226350Y1043600D01*
X1226070Y1043520D01*
X1224290D01*
G02X1223580Y1043810I-6J1001D01*
G01X1220810Y1046580D01*
G02X1220520Y1047290I711J704D01*
G01Y1048210D01*
X1220950Y1048760D01*
X1221290Y1048840D01*
G03X1224280Y1052600I-907J3790D01*
G01Y1057400D01*
G03X1220370Y1061270I-3898J-28D01*
G01X1211630D01*
G03X1211130Y1061240I-17J-3899D01*
G01X1211060Y1061230D01*
X1211000D01*
G02X1210000Y1062230I0J1000D01*
G01Y1063770D01*
G02X1211000Y1064770I1000J0D01*
G01X1211060D01*
X1211130Y1064760D01*
G03X1211630Y1064730I483J3869D01*
G01X1220370D01*
G03X1224280Y1068600I12J3898D01*
G01Y1071150D01*
G02X1224730Y1071990I1000J5D01*
G01X1226330Y1073050D01*
X1226820Y1073100D01*
X1227060Y1073000D01*
G03X1228370Y1072730I1327J3123D01*
G01X1233630D01*
G03X1235750Y1073480I-8J3394D01*
G01X1235880Y1073580D01*
X1236200Y1073700D01*
X1237800D01*
X1238120Y1073580D01*
X1238250Y1073480D01*
G03X1240370Y1072730I2128J2644D01*
G01X1245630D01*
G03X1247120Y1073080I-11J3394D01*
G01X1247360Y1073190D01*
X1247860Y1073170D01*
X1249530Y1072130D01*
G02X1250000Y1071280I-530J-848D01*
G01Y1043520D01*
G02X1249000Y1042520I-1000J0D01*
G01X1236900D01*
X1236480Y1042730D01*
G37*
G36*
G01X1232000Y1179000D02*
Y1175020D01*
G03Y1174980I1000J-20D01*
G01X1232500Y1162520D01*
G02Y1162480I-1000J-20D01*
G01Y1159000D01*
G02X1231500Y1158000I-1000J0D01*
G01X1230500D01*
G02X1229500Y1159000I0J1000D01*
G01Y1162370D01*
G03X1229470Y1162620I-1000J7D01*
G01X1226030Y1175880D01*
G02X1226000Y1176130I970J243D01*
G01Y1179000D01*
G02X1227000Y1180000I1000J0D01*
G01X1231000D01*
G02X1232000Y1179000I0J-1000D01*
G37*
G36*
G01X1236000Y1180000D02*
X1240000D01*
G02X1241000Y1179000I0J-1000D01*
G01Y1176130D01*
G02X1240970Y1175880I-1000J-7D01*
G01X1237530Y1162620D01*
G03X1237500Y1162370I970J-243D01*
G01Y1159000D01*
G02X1236500Y1158000I-1000J0D01*
G01X1235500D01*
G02X1234500Y1159000I0J1000D01*
G01Y1162480D01*
G02Y1162520I1000J20D01*
G01X1235000Y1175980D01*
G03Y1176020I-1000J20D01*
G01Y1179000D01*
G02X1236000Y1180000I1000J0D01*
G37*
G36*
G01X1278600Y1072980D02*
X1281590D01*
G02X1282520Y1072370I8J-1001D01*
G01X1282670Y1072000D01*
G03X1282410Y1071490I3323J-2015D01*
G02X1282190Y1071170I-919J396D01*
G01X1254700Y1043680D01*
G02X1253610Y1043470I-702J711D01*
G01X1253330Y1043580D01*
X1253000Y1044080D01*
Y1071270D01*
G02X1253620Y1072200I1001J4D01*
G01X1253900Y1072310D01*
X1254480Y1072200D01*
X1259030Y1067650D01*
G03X1259730Y1067360I704J710D01*
G01X1271220D01*
G03X1271920Y1067650I-4J1000D01*
G01X1276390Y1072120D01*
X1276650Y1072260D01*
X1276790Y1072290D01*
G03X1278060Y1072820I-801J3705D01*
G02X1278600Y1072980I543J-840D01*
G37*
G36*
G01X1279470Y1114780D02*
Y1114970D01*
X1279540Y1115140D01*
G03X1273940Y1119680I-3538J1359D01*
G01X1273820Y1119600D01*
X1273540Y1119520D01*
X1268690D01*
G02X1267980Y1119810I-6J1000D01*
G01X1262790Y1125000D01*
G02X1262500Y1125690I710J704D01*
G01X1262490Y1126310D01*
G02X1262690Y1126920I1000J10D01*
G03X1263270Y1128650I-2290J1730D01*
G01Y1131350D01*
G03X1263230Y1131820I-2869J-7D01*
G01X1263220Y1131900D01*
Y1131980D01*
G02X1264220Y1132980I1000J0D01*
G01X1281480D01*
G02X1282480Y1131980I0J-1000D01*
G01Y1117680D01*
X1282420Y1117510D01*
G03X1282400Y1115090I3581J-1240D01*
G01X1282440Y1114940D01*
Y1114780D01*
G02X1281440Y1113780I-1000J0D01*
G01X1280470D01*
G02X1279470Y1114780I0J1000D01*
G37*
G36*
G01X1305030Y1191690D02*
X1320690Y1176030D01*
G02X1320980Y1175320I-710J-704D01*
G01Y1149670D01*
G02X1320690Y1148960I-1000J-6D01*
G01X1311040Y1139310D01*
G02X1310330Y1139020I-704J710D01*
G01X1300220D01*
G02X1299220Y1140020I0J1000D01*
G01Y1140100D01*
X1299230Y1140180D01*
G03X1299270Y1140650I-2829J477D01*
G01Y1143150D01*
G02X1299560Y1143850I1000J-4D01*
G01X1301860Y1146150D01*
X1302480Y1146250D01*
X1302770Y1146110D01*
G03X1304670Y1145680I1896J3966D01*
G01X1310930D01*
G03X1315320Y1150070I-5J4395D01*
G01Y1158330D01*
G03X1310930Y1162720I-4395J-5D01*
G01X1304670D01*
G03X1300280Y1158330I5J-4395D01*
G01Y1151400D01*
G02X1299990Y1150700I-1000J4D01*
G01X1295800Y1146510D01*
G02X1295100Y1146220I-704J710D01*
G01X1293600D01*
G03X1291110Y1144770I0J-2863D01*
G01X1290970Y1144540D01*
X1290510Y1144270D01*
X1288340D01*
G02X1287640Y1144560I4J1000D01*
G01X1281410Y1150790D01*
G02Y1152200I709J705D01*
G01X1283230Y1154020D01*
G03X1283520Y1154720I-710J704D01*
G01Y1165900D01*
G02X1283810Y1166600I1000J-4D01*
G01X1285610Y1168400D01*
X1286050Y1168550D01*
X1286290Y1168520D01*
G03X1286870Y1168480I592J4355D01*
G01X1293130D01*
G03X1297520Y1172870I-5J4395D01*
G01Y1181130D01*
G03X1295100Y1185050I-4395J-6D01*
G02X1294680Y1185450I451J894D01*
G01X1294390Y1185960D01*
G02X1294270Y1186500I879J479D01*
G01Y1189350D01*
G03X1294250Y1189720I-2872J30D01*
G01X1294220Y1189940D01*
X1294340Y1190340D01*
X1295480Y1191640D01*
G02X1296230Y1191980I751J-659D01*
G01X1304320D01*
G02X1305030Y1191690I6J-1000D01*
G37*
G36*
G01X1259250Y1156270D02*
Y1156320D01*
X1259260Y1156370D01*
G03X1259270Y1156650I-2861J242D01*
G01Y1159350D01*
G03X1258690Y1161080I-2870J0D01*
G02X1258490Y1161680I801J600D01*
G01Y1162320D01*
G02X1258690Y1162920I1001J0D01*
G03X1259270Y1164650I-2290J1730D01*
G01Y1166580D01*
G02X1259560Y1167290I1000J6D01*
G01X1283960Y1191690D01*
G02X1284670Y1191980I704J-710D01*
G01X1285090D01*
G02X1286090Y1190980I0J-1000D01*
G01Y1190760D01*
X1286000Y1190560D01*
G03X1285730Y1189350I2599J-1215D01*
G01Y1186650D01*
Y1186500D01*
G02X1285610Y1185960I-999J-61D01*
G01X1285320Y1185450D01*
G02X1284900Y1185050I-871J494D01*
G03X1282480Y1181130I1975J-3926D01*
G01Y1172870D01*
G03X1282520Y1172290I4395J12D01*
G01X1282550Y1172050D01*
X1282400Y1171610D01*
X1279270Y1168480D01*
G03X1278980Y1167780I710J-704D01*
G01Y1156600D01*
G02X1278690Y1155900I-1000J4D01*
G01X1278350Y1155560D01*
G02X1277650Y1155270I-704J710D01*
G01X1260250D01*
G02X1259250Y1156270I0J1000D01*
G37*
G36*
G01X1265960Y1139310D02*
X1263560Y1141710D01*
G02X1263270Y1142420I710J704D01*
G01Y1144350D01*
G03X1263160Y1145130I-2869J-7D01*
G01X1263100Y1145360D01*
X1263180Y1145820D01*
X1264290Y1147280D01*
G02X1265080Y1147680I799J-599D01*
G01X1277690D01*
G02X1278390Y1147390I-4J-1000D01*
G01X1284920Y1140860D01*
G02Y1139440I-706J-710D01*
G01X1284790Y1139310D01*
X1284610Y1139230D01*
G03X1284390Y1139130I1345J-3251D01*
G01X1284280Y1139070D01*
X1284060Y1139020D01*
X1266670D01*
G02X1265960Y1139310I-6J1000D01*
G37*
G36*
G01X1370290Y1063290D02*
X1371710Y1064710D01*
G02X1372410Y1065000I704J-710D01*
G01X1391590D01*
G02X1392290Y1064710I-4J-1000D01*
G01X1393710Y1063290D01*
G02X1394000Y1062590I-710J-704D01*
G01Y1049410D01*
G02X1393710Y1048710I-1000J4D01*
G01X1392290Y1047290D01*
G02X1391590Y1047000I-704J710D01*
G01X1372410D01*
G02X1371710Y1047290I4J1000D01*
G01X1370290Y1048710D01*
G02X1370000Y1049410I710J704D01*
G01Y1062590D01*
G02X1370290Y1063290I1000J-4D01*
G37*
G54D10*
X1080000Y957000D03*
X1086000Y1208000D03*
X1445000Y955000D03*
G54D11*
X1076000Y988000D03*
X1070660Y1038170D03*
X1077000Y1015000D03*
X1084250Y1074600D03*
X1070660Y1081170D03*
X1081250Y1088000D03*
X1070660Y1125170D03*
X1071000Y1157000D03*
X1070000Y1191000D03*
X1069500Y1219500D03*
X1069000Y1257000D03*
X1069500Y1300500D03*
X1070000Y1335000D03*
X1070500Y1366500D03*
X1071000Y1391000D03*
X1096000Y948000D03*
X1126000Y947000D03*
X1108000Y985000D03*
X1085980Y1023800D03*
Y1037000D03*
X1113000Y1029000D03*
X1086000Y1005000D03*
X1085980Y1062000D03*
X1085750Y1049000D03*
X1113000Y1055000D03*
Y1082000D03*
X1102750Y1110000D03*
X1093000Y1159000D03*
X1121000Y1131000D03*
X1111000Y1201000D03*
X1116000Y1178000D03*
X1095000Y1229000D03*
X1105000Y1257000D03*
X1088500Y1280500D03*
X1092000Y1374000D03*
X1120000Y1368000D03*
X1088000Y1393000D03*
X1106000D03*
X1125000Y1392000D03*
X1140060Y998000D03*
X1143000Y986000D03*
X1132000Y972000D03*
X1154000Y967500D03*
X1140060Y1011000D03*
Y1023800D03*
Y1036500D03*
X1152000Y1005000D03*
X1156000Y1025000D03*
X1142500Y1074600D03*
X1138000Y1068770D03*
X1167000Y1064000D03*
X1158000Y1047000D03*
X1156000Y1079000D03*
X1155910Y1068530D03*
X1156000Y1112000D03*
X1166250Y1117750D03*
X1148000Y1087990D03*
X1137830Y1094230D03*
X1130000Y1122000D03*
X1157000Y1145000D03*
X1144000Y1151000D03*
X1155000Y1159470D03*
X1141000Y1136000D03*
X1163370Y1200900D03*
X1155000Y1208520D03*
X1164000Y1244000D03*
X1134000Y1237000D03*
X1128000Y1283000D03*
X1140000Y1258000D03*
X1167000Y1274000D03*
X1156000Y1331000D03*
Y1315000D03*
X1163000Y1297500D03*
X1163500Y1354000D03*
X1157500Y1372000D03*
X1139000Y1380000D03*
X1161500Y1392500D03*
X1144000Y1392000D03*
X1201000Y953000D03*
X1171000Y948000D03*
X1204000Y998000D03*
X1200000Y978000D03*
X1169000Y984000D03*
X1171000Y1005000D03*
X1181000Y1020000D03*
X1169000Y1037000D03*
X1194250Y1054000D03*
X1191250Y1063000D03*
X1168000Y1079000D03*
X1189000Y1125000D03*
X1199000D03*
X1209000D03*
Y1115000D03*
X1199000D03*
X1189000D03*
Y1105000D03*
X1199000D03*
X1209000D03*
X1171000Y1160000D03*
X1209000Y1145000D03*
X1199000D03*
X1189000D03*
X1209000Y1135000D03*
X1199000D03*
X1189000D03*
X1203000Y1200000D03*
X1174000Y1189000D03*
X1191000Y1221000D03*
X1170000Y1210000D03*
X1202000Y1222000D03*
X1191000Y1233000D03*
X1169000Y1228000D03*
X1203000Y1268000D03*
X1181000Y1263000D03*
X1200060Y1277940D03*
X1189250Y1305230D03*
X1206000Y1303000D03*
X1202000Y1324000D03*
X1171000Y1316000D03*
Y1330290D03*
X1188620Y1330670D03*
X1189000Y1316000D03*
X1195000Y1293000D03*
X1199000Y1344000D03*
X1176000Y1392500D03*
X1195000Y1389000D03*
X1238000Y948000D03*
X1246000Y965000D03*
X1213000Y1033000D03*
X1248000Y1030000D03*
X1241000Y1054000D03*
X1247000Y1047000D03*
X1241000D03*
X1247000Y1054000D03*
X1219000Y1125000D03*
X1229000D03*
Y1115000D03*
X1219000D03*
Y1105000D03*
X1229000D03*
X1219000Y1145000D03*
X1229000D03*
Y1135000D03*
X1219000D03*
X1248000Y1199000D03*
X1218000Y1198800D03*
X1220000Y1182000D03*
X1247000Y1177000D03*
X1212000Y1221000D03*
X1217000Y1228000D03*
X1241500Y1244500D03*
Y1236500D03*
X1233750Y1244500D03*
X1226000Y1236500D03*
Y1244500D03*
X1234000Y1236500D03*
X1245500Y1289000D03*
X1219000Y1273000D03*
X1241500Y1252500D03*
X1234000D03*
X1226000D03*
X1245000Y1282000D03*
X1214000Y1264000D03*
X1228000Y1276000D03*
X1215000Y1326000D03*
X1219000Y1303000D03*
X1229000Y1320000D03*
X1211000Y1296000D03*
X1229000Y1328000D03*
X1246000Y1327000D03*
Y1295500D03*
Y1315500D03*
X1220000Y1316000D03*
X1246000Y1303000D03*
X1228000Y1297000D03*
X1217000Y1339000D03*
X1228000Y1337000D03*
X1227000Y1355000D03*
X1247000Y1365000D03*
Y1345000D03*
Y1354500D03*
X1212000Y1355000D03*
X1227000Y1365000D03*
X1212000Y1389000D03*
X1226000Y1388000D03*
X1248000Y1394000D03*
X1276000Y948000D03*
X1252000Y998000D03*
X1275000Y977000D03*
X1277000Y1033000D03*
X1276000Y1076000D03*
X1270000Y1064000D03*
X1256000Y1066000D03*
X1257000Y1053000D03*
X1270000Y1079000D03*
X1284500Y1049500D03*
X1286000Y1070000D03*
X1276000Y1116500D03*
X1279000Y1123000D03*
X1286000Y1116260D03*
X1288000Y1164480D03*
X1275000Y1144000D03*
X1270000Y1159000D03*
X1275000Y1130000D03*
X1270000Y1199000D03*
X1257500Y1179500D03*
X1278000Y1179000D03*
X1272000Y1170000D03*
X1290000Y1243000D03*
X1268000Y1220020D03*
X1285000Y1219000D03*
X1264000Y1229000D03*
X1252000Y1221000D03*
X1291000Y1251000D03*
X1252500Y1276000D03*
X1251000Y1266000D03*
X1265000Y1287000D03*
X1289500Y1271500D03*
X1281000Y1282000D03*
X1289000Y1259000D03*
X1278000Y1260500D03*
X1265000Y1256000D03*
X1254500Y1290500D03*
X1273000Y1328000D03*
X1291000Y1334000D03*
X1279000Y1294000D03*
X1266000Y1300000D03*
X1261000Y1320000D03*
X1287000Y1320500D03*
X1290500Y1347000D03*
X1266500Y1338500D03*
X1273000Y1352500D03*
X1260000Y1364000D03*
X1253000Y1336000D03*
X1280000Y1364000D03*
X1292000Y1383000D03*
X1267000Y1384000D03*
X1260000Y1393000D03*
X1277000D03*
X1302000Y947000D03*
X1309000Y998000D03*
X1314000Y972000D03*
X1329000Y1033000D03*
X1301500Y1033500D03*
X1293000Y1082000D03*
X1316000D03*
X1326000Y1066000D03*
X1304000Y1065000D03*
X1315000Y1049500D03*
X1328500Y1118000D03*
X1304000Y1119000D03*
X1316000Y1166000D03*
X1300000D03*
X1333000Y1145500D03*
Y1167000D03*
X1311000Y1143000D03*
X1322500Y1130000D03*
X1294000Y1128000D03*
X1323000Y1198000D03*
X1301000Y1202000D03*
X1330000Y1186000D03*
X1300000Y1232000D03*
X1333500Y1238000D03*
X1320500Y1220500D03*
X1328000Y1247500D03*
X1316500Y1242500D03*
X1332000Y1221000D03*
X1309000Y1220000D03*
X1323020Y1232000D03*
X1311500Y1263000D03*
X1333000Y1257000D03*
X1318500Y1270000D03*
X1298000Y1289500D03*
X1305500Y1276000D03*
X1332000Y1282000D03*
X1300000Y1261500D03*
X1318000Y1254500D03*
X1331000Y1324500D03*
X1324500Y1308000D03*
X1304500Y1317500D03*
X1319500Y1333500D03*
X1309500Y1303500D03*
X1325500Y1293000D03*
X1318000Y1320500D03*
X1323500Y1346500D03*
X1307500Y1353500D03*
X1334000Y1342000D03*
Y1364000D03*
X1304500Y1337500D03*
X1297000Y1364000D03*
X1316000D03*
X1329000Y1384000D03*
X1295000Y1393000D03*
X1312000D03*
X1331850Y1392800D03*
X1366000Y947000D03*
X1338000Y956000D03*
X1359000Y991500D03*
X1345500Y998000D03*
X1367000Y977000D03*
X1341000Y979000D03*
X1359000Y1030000D03*
X1370000Y1041000D03*
X1348000Y1033000D03*
X1342000Y1082000D03*
X1341000Y1053000D03*
X1375500Y1125500D03*
X1348500Y1117500D03*
X1364500Y1125000D03*
X1375500Y1163000D03*
X1347500Y1156000D03*
X1346000Y1130000D03*
X1352000Y1182000D03*
X1343000Y1197000D03*
X1356500Y1211000D03*
X1357000Y1237500D03*
X1363000Y1262000D03*
X1361000Y1295000D03*
X1370000Y1330000D03*
X1363000Y1361000D03*
X1367870Y1393140D03*
X1350370D03*
X1400000Y947000D03*
X1390780Y999000D03*
X1392000Y991500D03*
X1383500Y964500D03*
X1392000Y1016900D03*
X1417000Y1030000D03*
X1383000Y1013000D03*
X1390000Y1041000D03*
X1384500Y1050500D03*
X1390500D03*
X1384500Y1056000D03*
X1390500D03*
X1384500Y1061500D03*
X1390500D03*
X1383520Y1076000D03*
X1389000Y1070290D03*
X1404000Y1121000D03*
X1389500Y1118000D03*
X1388000Y1088000D03*
X1378500Y1144500D03*
X1412500Y1136500D03*
X1405000Y1152000D03*
X1397000Y1178000D03*
X1380370Y1201220D03*
X1415500Y1185000D03*
X1387000Y1234000D03*
X1410000Y1216000D03*
X1392000Y1269000D03*
X1410000Y1288000D03*
X1413000Y1253000D03*
X1412000Y1320000D03*
X1388000Y1302000D03*
X1394000Y1344000D03*
X1396000Y1366000D03*
X1377000Y1379000D03*
X1386000Y1393000D03*
X1403500D03*
X1427000Y947000D03*
X1418000Y993000D03*
X1455000Y981000D03*
X1437000Y972000D03*
X1417740Y1004500D03*
X1419000Y1017000D03*
X1442000Y1030000D03*
X1442500Y1042500D03*
X1418000Y1042000D03*
X1443000Y1017000D03*
X1458750Y1014000D03*
X1444000Y1055000D03*
X1418500Y1079940D03*
X1445000Y1078000D03*
Y1066000D03*
X1458750Y1050000D03*
X1418000Y1055040D03*
X1444000Y1094000D03*
X1449360Y1087360D03*
X1446500Y1108500D03*
X1457000Y1095000D03*
X1432000Y1109700D03*
X1430500Y1159500D03*
X1456000Y1153000D03*
X1457000Y1127000D03*
X1428000Y1128000D03*
X1456000Y1181000D03*
X1436500Y1206500D03*
X1456000Y1220000D03*
X1439000Y1244000D03*
X1435000Y1273000D03*
X1457000Y1261000D03*
Y1291000D03*
X1440500Y1293000D03*
X1435500Y1310500D03*
X1454000Y1327000D03*
X1424000Y1349000D03*
X1453000Y1357000D03*
X1442000Y1375000D03*
X1439000Y1393500D03*
X1420480Y1393160D03*
X1454000Y1392000D03*
G54D20*
X1206000Y1090500D03*
X1201000D03*
X1196000D03*
X1191000D03*
X1186000D03*
X1181000D03*
Y1160000D03*
X1186000D03*
X1191000D03*
X1196000D03*
X1201000D03*
X1206000D03*
X1236000Y1090500D03*
X1231000D03*
X1226000D03*
X1221000D03*
X1216000D03*
X1211000D03*
Y1160000D03*
X1216000D03*
X1221000D03*
X1226000D03*
X1231000D03*
X1236000D03*
G54D12*
X1115000Y1300200D03*
G54D21*
X1173750Y1097750D03*
Y1102750D03*
Y1107750D03*
Y1112750D03*
Y1117750D03*
Y1122750D03*
Y1127750D03*
Y1132750D03*
Y1137750D03*
Y1142750D03*
Y1147750D03*
Y1152750D03*
X1243250Y1122750D03*
Y1117750D03*
Y1112750D03*
Y1107750D03*
Y1102750D03*
Y1097750D03*
Y1152750D03*
Y1147750D03*
Y1142750D03*
Y1137750D03*
Y1132750D03*
Y1127750D03*
G54D30*
X1243000Y1064000D03*
Y1078000D03*
X1231000Y1064000D03*
Y1078000D03*
G54D40*
X1237000Y1396000D03*
G54D22*
X1208500Y1125250D03*
G54D13*
X1115000Y1347800D03*
G54D31*
X1216000Y1055000D03*
Y1071000D03*
G54D50*
G01Y1160000D02*
Y1164010D01*
X1213760Y1166250D01*
X1211810D01*
X1193810Y1184250D01*
X1138000D01*
X1081250Y1127500D01*
Y1088000D01*
G01X1173750Y1142750D02*
X1166440D01*
X1151720Y1128030D01*
Y1128020D01*
X1142290Y1118590D01*
X1142280D01*
X1122000Y1098310D01*
Y1016060D01*
X1140060Y998000D01*
G01X1173750Y1147750D02*
X1167190D01*
X1119000Y1099560D01*
Y1010000D01*
X1143000Y986000D01*
G01X1191000Y1160000D02*
Y1165810D01*
X1187560Y1169250D01*
X1144250D01*
X1098000Y1123000D01*
Y1035820D01*
X1085980Y1023800D01*
G01X1196000Y1160000D02*
Y1165060D01*
X1188810Y1172250D01*
X1143000D01*
X1095000Y1124250D01*
Y1041500D01*
X1090500Y1037000D01*
X1085980D01*
G01X1211000Y1160000D02*
Y1162810D01*
X1192560Y1181250D01*
X1139250D01*
X1086000Y1128000D01*
Y1080870D01*
X1084250Y1079120D01*
Y1074600D01*
G01X1206000Y1160000D02*
Y1163560D01*
X1191310Y1178250D01*
X1140500D01*
X1089000Y1126750D01*
Y1069540D01*
X1085980Y1066520D01*
Y1062000D01*
G01X1201000Y1160000D02*
Y1164310D01*
X1190060Y1175250D01*
X1141750D01*
X1092000Y1125500D01*
Y1055240D01*
X1088960Y1052200D01*
X1088950D01*
X1085750Y1049000D01*
G01X1186000Y1160000D02*
Y1165250D01*
X1185000Y1166250D01*
X1145500D01*
X1102750Y1123500D01*
Y1110000D01*
G01X1173750Y1137750D02*
X1165690D01*
X1154720Y1126780D01*
Y1126770D01*
X1143540Y1115590D01*
X1143530D01*
X1125000Y1097060D01*
Y1026060D01*
X1140060Y1011000D01*
G01X1173750Y1132750D02*
X1164940D01*
X1157720Y1125530D01*
Y1125520D01*
X1144790Y1112590D01*
X1144780D01*
X1128000Y1095810D01*
Y1035860D01*
X1140060Y1023800D01*
G01X1173750Y1127750D02*
X1164190D01*
X1160720Y1124280D01*
Y1124270D01*
X1146040Y1109590D01*
X1146030D01*
X1131000Y1094560D01*
Y1045560D01*
X1140060Y1036500D01*
G01X1173750Y1112750D02*
X1163750D01*
X1151590Y1100590D01*
X1149780D01*
X1142500Y1093310D01*
Y1074600D01*
G01X1173750Y1122750D02*
X1163750D01*
X1156000Y1115000D01*
Y1112000D01*
G01X1173750Y1102750D02*
X1167730D01*
X1164000Y1099020D01*
Y1094000D01*
G01X1221000Y1160000D02*
Y1165000D01*
X1192000Y1194000D01*
X1157000D01*
G01X1138000Y1197000D02*
X1149280D01*
X1152280Y1194000D01*
X1157000D01*
G01X1226000Y1160000D02*
Y1166000D01*
X1193000Y1199000D01*
X1172000D01*
X1162950Y1208050D01*
Y1220000D01*
X1158000Y1224950D01*
Y1225000D01*
G01X1138000Y1222000D02*
X1150280D01*
X1153280Y1225000D01*
X1158000D01*
G01X1181000Y1090500D02*
Y1083730D01*
X1180000Y1082730D01*
Y1032490D01*
X1206490Y1006000D01*
X1364750D01*
X1387090Y983660D01*
X1426410D01*
X1451000Y1008250D01*
Y1079000D01*
X1444000Y1086000D01*
Y1094000D01*
G01X1173750Y1097750D02*
Y1094230D01*
X1177000Y1090980D01*
Y1031240D01*
X1205250Y1002990D01*
X1207730D01*
X1207740Y1003000D01*
X1363500D01*
X1385840Y980660D01*
X1427660D01*
X1454000Y1007000D01*
Y1082720D01*
X1449360Y1087360D01*
G01X1206000Y1090500D02*
Y1084000D01*
X1199000Y1077000D01*
Y1026500D01*
X1210500Y1015000D01*
X1368500D01*
X1379500Y1004000D01*
X1392500D01*
X1397000Y999500D01*
Y989160D01*
X1399500Y986660D01*
X1425160D01*
X1448000Y1009500D01*
Y1051000D01*
X1444000Y1055000D01*
G01X1211000Y1090500D02*
Y1084480D01*
X1202000Y1075480D01*
Y1027750D01*
X1211750Y1018000D01*
X1369750D01*
X1380750Y1007000D01*
X1393750D01*
X1396250Y1004500D01*
X1417740D01*
G01X1216000Y1090500D02*
Y1084480D01*
X1205000Y1073480D01*
Y1029000D01*
X1213000Y1021000D01*
X1365480D01*
X1371480Y1027000D01*
X1381000D01*
G01X1191000Y1090500D02*
Y1084480D01*
X1186000Y1079480D01*
Y1034990D01*
X1208990Y1012000D01*
X1367250D01*
X1380250Y999000D01*
X1390780D01*
G01X1186000Y1090500D02*
Y1084480D01*
X1183000Y1081480D01*
Y1033740D01*
X1207740Y1009000D01*
X1366000D01*
X1383500Y991500D01*
X1392000D01*
G01X1201000Y1090500D02*
Y1084480D01*
X1196000Y1079480D01*
Y1060270D01*
X1194250Y1058520D01*
Y1054000D01*
G01X1196000Y1090500D02*
Y1084480D01*
X1191250Y1079730D01*
Y1063000D01*
G01X1173750Y1117750D02*
X1166250D01*
G01X1181000Y1160000D02*
X1171000D01*
G01X1215880Y1180380D02*
X1203000Y1193250D01*
Y1200000D01*
G01X1203050Y1241250D02*
X1202000Y1242300D01*
G01D02*
Y1240000D01*
G01Y1251000D02*
X1202270Y1250730D01*
G01X1231000Y1090500D02*
Y1086000D01*
X1232750Y1084250D01*
X1237560D01*
X1238310Y1085000D01*
X1254000D01*
G01X1243250Y1107750D02*
X1249270D01*
X1257520Y1099500D01*
X1401500D01*
X1415300Y1085700D01*
Y1083140D01*
X1418500Y1079940D01*
G01X1243250Y1112750D02*
X1249270D01*
X1259520Y1102500D01*
X1402750D01*
X1426000Y1079250D01*
Y1039000D01*
X1417000Y1030000D01*
G01X1243250Y1117750D02*
X1250020D01*
X1262260Y1105510D01*
X1403990D01*
X1429000Y1080500D01*
Y1035000D01*
X1419000Y1025000D01*
Y1017000D01*
G01X1243250Y1122750D02*
X1249270D01*
X1263510Y1108510D01*
X1405240D01*
X1432000Y1081750D01*
Y1040000D01*
X1442000Y1030000D01*
G01X1243250Y1102750D02*
X1249270D01*
X1255520Y1096500D01*
X1400250D01*
X1412300Y1084450D01*
Y1079420D01*
X1423000Y1068720D01*
Y1047000D01*
X1418000Y1042000D01*
G01X1236000Y1090500D02*
X1380980D01*
X1383480Y1088000D01*
X1388000D01*
G01X1243250Y1097750D02*
X1249270D01*
X1253520Y1093500D01*
X1399000D01*
X1409300Y1083200D01*
Y1078170D01*
X1418000Y1069470D01*
Y1055040D01*
G01X1243250Y1142750D02*
X1249270D01*
X1256470Y1149950D01*
X1279040D01*
X1286990Y1142000D01*
X1294500D01*
X1295000Y1142500D01*
G01X1243250Y1127750D02*
X1249270D01*
X1265510Y1111510D01*
X1406490D01*
X1435000Y1083000D01*
Y1045000D01*
X1437500Y1042500D01*
X1442500D01*
G01X1243250Y1147750D02*
X1249750D01*
X1255000Y1153000D01*
X1279000D01*
X1281250Y1155250D01*
Y1167250D01*
X1290000Y1176000D01*
Y1177000D01*
G01X1243250Y1152750D02*
Y1156270D01*
X1244980Y1158000D01*
X1255000D01*
G01X1229000Y1182000D02*
Y1173000D01*
G01X1238000Y1182000D02*
Y1173000D01*
G01X1392000Y1016900D02*
X1397000Y1021900D01*
Y1071780D01*
X1383780Y1085000D01*
X1382230D01*
X1380230Y1087000D01*
X1269720D01*
X1267720Y1085000D01*
X1263000D01*
G01X1254000D02*
X1263000D01*
G01X1283000Y1232000D02*
X1300000D01*
G01X1283000Y1243000D02*
X1290000D01*
G01X1252250Y1247750D02*
X1267480D01*
X1270730Y1251000D01*
X1274000D01*
G01X1252250Y1241250D02*
X1260980D01*
X1262730Y1243000D01*
X1274000D01*
G01X1252250Y1234750D02*
X1265980D01*
X1268730Y1232000D01*
X1274000D01*
G01X1291000Y1251000D02*
X1283000D01*
G01X1262500Y1277000D02*
Y1266500D01*
G01D02*
X1252250Y1254250D01*
G01X1295000Y1142000D02*
Y1142500D01*
G01X1307800Y1154200D02*
X1306700D01*
X1295000Y1142500D01*
G01X1290000Y1177000D02*
Y1188000D01*
G01X1307000Y1231000D02*
X1306000Y1232000D01*
X1300000D01*
G01Y1242000D02*
X1299000Y1243000D01*
X1290000D01*
G01X1300000Y1253000D02*
X1298000Y1251000D01*
X1291000D01*
G54D23*
X1199500Y1227500D03*
G54D41*
X1290000Y1154200D03*
Y1177000D03*
X1307800Y1154200D03*
Y1177000D03*
G54D14*
X1113020Y969830D03*
Y1115880D03*
X1417820Y969830D03*
Y1115880D03*
G54D32*
X1229000Y1182000D03*
X1238000D03*
X1262500Y1266500D03*
X1271500D03*
X1300000Y1242000D03*
X1309000D03*
X1307000Y1231000D03*
X1316000D03*
X1300000Y1253000D03*
X1309000D03*
G54D51*
G01X1115000Y1324000D02*
X1138040D01*
X1138060Y1324020D01*
X1190840D01*
X1212820Y1346000D01*
X1229000D01*
G54D33*
X1263250Y1209750D03*
G54D42*
X1327000Y1227500D03*
G54D15*
X1115000Y1324000D03*
G54D24*
X1202000Y1231000D03*
Y1240000D03*
X1192500Y1242000D03*
Y1251000D03*
X1211000Y1278000D03*
Y1287000D03*
G54D25*
X1203000D03*
X1202000Y1260000D03*
Y1251000D03*
X1203000Y1296000D03*
X1219000Y1287000D03*
Y1296000D03*
X1237000Y1305000D03*
Y1296000D03*
Y1355000D03*
Y1346000D03*
G54D43*
X1327000Y1355000D03*
G54D34*
X1233750Y1244500D03*
G54D16*
X1164000Y1086000D03*
Y1094000D03*
X1155000Y1086000D03*
Y1094000D03*
X1158000Y1217000D03*
Y1225000D03*
X1263000Y1077000D03*
X1254000D03*
X1263000Y1085000D03*
X1254000D03*
G54D26*
X1181750Y1291250D03*
X1344750D03*
G54D17*
X1156000Y1153000D03*
X1164000D03*
X1229000Y1313000D03*
X1237000D03*
G54D44*
X1375000Y1076000D03*
X1359000D03*
X1375000Y1056000D03*
X1359000D03*
G54D35*
X1215250Y1234750D03*
Y1241250D03*
Y1247750D03*
X1252250D03*
Y1241250D03*
Y1234750D03*
X1215250Y1254250D03*
X1252250D03*
G54D18*
X1157000Y1202000D03*
Y1194000D03*
X1237000Y1329000D03*
Y1321000D03*
G54D27*
X1199500Y1355000D03*
G54D45*
X1381000Y1027000D03*
G54D36*
X1243500Y1226000D03*
X1237000D03*
X1230500D03*
X1224000D03*
Y1263000D03*
X1230500D03*
X1237000D03*
X1243500D03*
G54D46*
G01X1173750Y1107750D02*
X1163980D01*
X1155000Y1098770D01*
Y1094000D01*
G01X1173750Y1152750D02*
X1164250D01*
X1164000Y1153000D01*
G54D19*
X1138000Y1197000D03*
Y1222000D03*
G54D37*
X1245000Y1276000D03*
X1237000D03*
X1245000Y1337000D03*
X1237000D03*
Y1346000D03*
X1229000D03*
X1245000Y1385000D03*
X1237000D03*
X1267000Y1130000D03*
X1259000D03*
X1263000Y1166000D03*
X1255000D03*
X1267000Y1143000D03*
X1259000D03*
X1263000Y1158000D03*
X1255000D03*
X1290000Y1188000D03*
X1303000Y1142000D03*
X1295000D03*
X1298000Y1188000D03*
G54D28*
X1203200Y1396000D03*
X1225200D03*
G54D47*
G01X1359000Y991500D02*
X1201500D01*
X1148000Y1045000D01*
Y1087990D01*
G01D02*
X1154010Y1094000D01*
X1155000D01*
G01X1164000Y1153000D02*
Y1150000D01*
X1159710Y1145710D01*
X1157710D01*
X1157000Y1145000D01*
G01X1221000Y1090500D02*
Y1083530D01*
X1216000Y1078530D01*
Y1071000D01*
G01X1226000Y1090500D02*
Y1084000D01*
X1231000Y1079000D01*
Y1078000D01*
G01D02*
X1243000D01*
G01D02*
X1253000D01*
X1254000Y1077000D01*
G01X1243250Y1132750D02*
X1250250D01*
X1253000Y1130000D01*
X1259000D01*
G01X1243250Y1137750D02*
X1253700D01*
X1258950Y1143000D01*
X1259000D01*
G01X1237000Y1355000D02*
Y1385000D01*
G01D02*
Y1396000D01*
G01X1254000Y1077000D02*
Y1076950D01*
X1260570Y1070380D01*
X1270380D01*
X1276000Y1076000D01*
G01X1359000D02*
X1276000D01*
G01X1259000Y1130000D02*
Y1124520D01*
X1267020Y1116500D01*
X1276000D01*
G01X1286000Y1136000D02*
X1312000D01*
X1324000Y1148000D01*
Y1176990D01*
X1305990Y1195000D01*
X1283000D01*
X1255000Y1167000D01*
Y1166000D01*
G01X1259000Y1143000D02*
Y1142000D01*
X1265000Y1136000D01*
X1286000D01*
G01X1255000Y1158000D02*
Y1166000D01*
G01X1359000Y1030000D02*
Y1056000D01*
G01D02*
Y1076000D01*
G54D29*
X1231000Y1039000D03*
Y1053000D03*
G54D38*
X1237000Y1287000D03*
X1228000D03*
X1283000Y1232000D03*
X1274000D03*
X1283000Y1243000D03*
X1274000D03*
X1271500Y1277000D03*
X1262500D03*
X1283000Y1251000D03*
X1274000D03*
G54D48*
G01X1215250Y1241250D02*
X1203050D01*
G01X1202000Y1242300D02*
Y1251000D01*
G01X1195050Y1287000D02*
X1195000Y1287050D01*
Y1293000D01*
G01X1202270Y1250730D02*
X1215250D01*
G01X1195050Y1287000D02*
Y1283570D01*
X1192510Y1281030D01*
Y1257540D01*
X1192500Y1257530D01*
Y1251000D01*
G01X1203000Y1287000D02*
X1195050D01*
G01X1211000D02*
X1203000D01*
G01X1192500Y1251000D02*
X1202000D01*
G01X1286000Y1070000D02*
X1255000Y1039000D01*
X1231000D01*
G01X1230500Y1226000D02*
Y1218600D01*
X1228990Y1217090D01*
X1229000Y1217050D01*
Y1182000D01*
G01X1237000Y1226000D02*
Y1218430D01*
X1238170Y1217260D01*
X1238050Y1217090D01*
X1238000Y1217000D01*
Y1182000D01*
G01X1215250Y1250730D02*
Y1247750D01*
G01X1237000Y1296000D02*
Y1287000D01*
G01Y1276000D02*
Y1263000D01*
G01Y1287000D02*
Y1276000D01*
G01X1215250Y1254250D02*
Y1250730D01*
G01X1219000Y1287000D02*
X1211000D01*
G01X1219000D02*
X1228000D01*
G01X1237000Y1321000D02*
Y1313000D01*
G01D02*
Y1305000D01*
G01Y1337000D02*
Y1329000D01*
G01Y1346000D02*
Y1337000D01*
G01X1286000Y1116260D02*
Y1136000D01*
G54D39*
X1263250Y1372750D03*
G54D49*
G01X1216000Y1055000D02*
Y1045000D01*
X1222000Y1039000D01*
X1231000D01*
M02*
