G04 ================== begin FILE IDENTIFICATION RECORD ==================*
G04 Layout Name:  DevPack_Debug.brd*
G04 Film Name:    assembly_top*
G04 File Format:  Gerber RS274X*
G04 File Origin:  Cadence Allegro 16.6-S019*
G04 Origin Date:  Fri Oct 16 16:25:00 2015*
G04 *
G04 Layer:  REF DES/ASSEMBLY_TOP*
G04 Layer:  PACKAGE GEOMETRY/ASSEMBLY_TOP*
G04 Layer:  BOARD GEOMETRY/OUTLINE*
G04 *
G04 Offset:    (0.0000 0.0000)*
G04 Mirror:    No*
G04 Mode:      Positive*
G04 Rotation:  0*
G04 FullContactRelief:  No*
G04 UndefLineWidth:     0.1000*
G04 ================== end FILE IDENTIFICATION RECORD ====================*
%FSLAX25Y25*MOMM*%
%IR0*IPPOS*OFA0.00000B0.00000*MIA0B0*SFA1.00000B1.00000*%
%ADD10C,.13*%
%ADD11C,.15*%
%ADD12C,.003*%
%ADD13C,.03*%
%ADD14C,.05*%
%ADD15C,.1*%
G75*
%LPD*%
G75*
G36*
G01X2372000Y1331000D02*
X2444700D01*
Y1353000D01*
X2372000D01*
Y1331000D01*
G37*
G36*
G01X2473000Y1330000D02*
X2545700D01*
Y1352000D01*
X2473000D01*
Y1330000D01*
G37*
G54D10*
G01X77000Y485400D02*
X82500Y475200D01*
X89100Y468400D01*
X96800Y465000D01*
X105600Y468400D01*
X112200Y475200D01*
X118800Y485400D01*
X121000Y499000D01*
Y567000D01*
G01X188200Y465000D02*
Y567000D01*
X147500Y493900D01*
X202500D01*
G54D11*
G01X757000Y3002400D02*
X764000Y2989700D01*
X772400Y2981230D01*
X782200Y2977000D01*
X793400Y2981230D01*
X801800Y2989700D01*
X810200Y3002400D01*
X813000Y3019330D01*
Y3104000D01*
G01X851200Y3002400D02*
X859600Y2987580D01*
X870800Y2979120D01*
X883400Y2977000D01*
X894600Y2979120D01*
X905800Y2989700D01*
X912800Y3002400D01*
X914200Y3015100D01*
X911400Y3029910D01*
X901600Y3040500D01*
X891800Y3044730D01*
X879200D01*
G01X891800D02*
X900200Y3051080D01*
X907200Y3061660D01*
X910000Y3074370D01*
X907200Y3087070D01*
X900200Y3097650D01*
X887600Y3104000D01*
X875000Y3101880D01*
X862400Y3093420D01*
G01X2698570Y607870D02*
Y734870D01*
X2732170D01*
X2743370Y728520D01*
X2751770Y713700D01*
X2754570Y696770D01*
X2751770Y679840D01*
X2744770Y667140D01*
X2732170Y660780D01*
X2698570D01*
G01X2792770Y626920D02*
X2801170Y616330D01*
X2810970Y609990D01*
X2823570Y607870D01*
X2836170Y612100D01*
X2845970Y620570D01*
X2852970Y635380D01*
X2854370Y652320D01*
X2851570Y669250D01*
X2844570Y679840D01*
X2834770Y688300D01*
X2824970Y690420D01*
X2815170Y688300D01*
X2802570Y679840D01*
X2806770Y734870D01*
X2844570D01*
G01X1337570Y601290D02*
Y728290D01*
X1371170D01*
X1382370Y721940D01*
X1390770Y707120D01*
X1393570Y690190D01*
X1390770Y673260D01*
X1383770Y660560D01*
X1371170Y654200D01*
X1337570D01*
G01X1431770Y626690D02*
X1440170Y611870D01*
X1451370Y603410D01*
X1463970Y601290D01*
X1475170Y603410D01*
X1486370Y613990D01*
X1493370Y626690D01*
X1494770Y639390D01*
X1491970Y654200D01*
X1482170Y664790D01*
X1472370Y669020D01*
X1459770D01*
G01X1472370D02*
X1480770Y675370D01*
X1487770Y685950D01*
X1490570Y698660D01*
X1487770Y711360D01*
X1480770Y721940D01*
X1468170Y728290D01*
X1455570Y726170D01*
X1442970Y717710D01*
G01X3228570Y1725580D02*
Y1852580D01*
X3262170D01*
X3273370Y1846230D01*
X3281770Y1831410D01*
X3284570Y1814480D01*
X3281770Y1797550D01*
X3274770Y1784850D01*
X3262170Y1778490D01*
X3228570D01*
G01X3370370Y1725580D02*
Y1852580D01*
X3318570Y1761560D01*
X3388570D01*
G54D12*
G01X445260Y1888320D02*
X445760Y1891000D01*
G01X446260D02*
X445760Y1888320D01*
G01X445010Y1889320D02*
X446510D01*
G01Y1889990D02*
X445010D01*
G01X447060Y1888990D02*
Y1891000D01*
X447680D01*
X447880Y1890900D01*
X448010Y1890770D01*
X448060Y1890500D01*
X448010Y1890230D01*
X447860Y1890060D01*
X447680Y1889960D01*
X447060D01*
G01X447680D02*
X448060Y1888990D01*
G01X449860D02*
X448860D01*
Y1891000D01*
X449860D01*
G01X449460Y1890030D02*
X448860D01*
G01X450680Y1888990D02*
Y1891000D01*
X451640D01*
G01X451280Y1890030D02*
X450680D01*
G01X452410Y1888990D02*
Y1891000D01*
X452910D01*
X453110Y1890900D01*
X453260Y1890770D01*
X453390Y1890560D01*
X453490Y1890330D01*
X453510Y1889990D01*
X453490Y1889660D01*
X453390Y1889430D01*
X453260Y1889220D01*
X453110Y1889090D01*
X452910Y1888990D01*
X452410D01*
G01X455260D02*
X454260D01*
Y1891000D01*
X455260D01*
G01X454860Y1890030D02*
X454260D01*
G01X456030Y1889260D02*
X456240Y1889090D01*
X456460Y1888990D01*
X456660D01*
X456860Y1889090D01*
X457010Y1889260D01*
X457090Y1889490D01*
X457040Y1889730D01*
X456910Y1889930D01*
X456680Y1890060D01*
X456390Y1890130D01*
X456210Y1890260D01*
X456130Y1890500D01*
X456190Y1890730D01*
X456310Y1890900D01*
X456480Y1891000D01*
X456660D01*
X456840Y1890930D01*
X456990Y1890770D01*
G54D13*
G01X871500Y2330670D02*
X873000Y2332670D01*
X874000Y2335000D01*
Y2337670D01*
X872500Y2340670D01*
X870000Y2343000D01*
X867000Y2344670D01*
X862000Y2346000D01*
X857500Y2346330D01*
X853000Y2345670D01*
X850000Y2344670D01*
X847000Y2342670D01*
X845000Y2340330D01*
X844000Y2338000D01*
Y2335670D01*
X845000Y2333330D01*
X846500Y2331330D01*
X848500Y2329670D01*
G01X844000Y2321670D02*
X874000D01*
Y2313330D01*
X872500Y2310670D01*
X870500Y2309000D01*
X866500Y2308330D01*
X862500Y2309000D01*
X860000Y2311000D01*
X858500Y2313330D01*
Y2321670D01*
G01Y2313330D02*
X844000Y2308330D01*
G01X850000Y2299330D02*
X846500Y2297330D01*
X844500Y2294670D01*
X844000Y2291670D01*
X844500Y2289000D01*
X847000Y2286330D01*
X850000Y2284670D01*
X853000Y2284330D01*
X856500Y2285000D01*
X859000Y2287330D01*
X860000Y2289670D01*
Y2292670D01*
G01Y2289670D02*
X861500Y2287670D01*
X864000Y2286000D01*
X867000Y2285330D01*
X870000Y2286000D01*
X872500Y2287670D01*
X874000Y2290670D01*
X873500Y2293670D01*
X871500Y2296670D01*
G01X2003330Y1716000D02*
X2004330Y1717500D01*
X2005000Y1719250D01*
Y1721250D01*
X2004000Y1723500D01*
X2002330Y1725250D01*
X2000330Y1726500D01*
X1997000Y1727500D01*
X1994000Y1727750D01*
X1991000Y1727250D01*
X1989000Y1726500D01*
X1987000Y1725000D01*
X1985670Y1723250D01*
X1985000Y1721500D01*
Y1719750D01*
X1985670Y1718000D01*
X1986670Y1716500D01*
X1988000Y1715250D01*
G01X1985000Y1703500D02*
X2005000D01*
X2001000Y1706500D01*
G01X1985000D02*
Y1700500D01*
G01X2005000Y1685500D02*
X2004330Y1687500D01*
X2002670Y1689000D01*
X2000670Y1690000D01*
X1998000Y1690750D01*
X1995000Y1691000D01*
X1992000Y1690750D01*
X1989330Y1690000D01*
X1987330Y1689000D01*
X1985670Y1687500D01*
X1985000Y1685500D01*
X1985670Y1683500D01*
X1987330Y1682000D01*
X1989330Y1681000D01*
X1992000Y1680250D01*
X1995000Y1680000D01*
X1998000Y1680250D01*
X2000670Y1681000D01*
X2002670Y1682000D01*
X2004330Y1683500D01*
X2005000Y1685500D01*
G01X1898000Y1724500D02*
X1918000D01*
Y1718250D01*
X1917000Y1716250D01*
X1915670Y1715000D01*
X1913000Y1714500D01*
X1910330Y1715000D01*
X1908670Y1716500D01*
X1907670Y1718250D01*
Y1724500D01*
G01Y1718250D02*
X1898000Y1714500D01*
G01Y1701500D02*
X1918000D01*
X1914000Y1704500D01*
G01X1898000D02*
Y1698500D01*
G01X1918000Y1683500D02*
X1917330Y1685500D01*
X1915670Y1687000D01*
X1913670Y1688000D01*
X1911000Y1688750D01*
X1908000Y1689000D01*
X1905000Y1688750D01*
X1902330Y1688000D01*
X1900330Y1687000D01*
X1898670Y1685500D01*
X1898000Y1683500D01*
X1898670Y1681500D01*
X1900330Y1680000D01*
X1902330Y1679000D01*
X1905000Y1678250D01*
X1908000Y1678000D01*
X1911000Y1678250D01*
X1913670Y1679000D01*
X1915670Y1680000D01*
X1917330Y1681500D01*
X1918000Y1683500D01*
G01X1810000Y1726500D02*
X1830000D01*
Y1720250D01*
X1829000Y1718250D01*
X1827670Y1717000D01*
X1825000Y1716500D01*
X1822330Y1717000D01*
X1820670Y1718500D01*
X1819670Y1720250D01*
Y1726500D01*
G01Y1720250D02*
X1810000Y1716500D01*
G01Y1703500D02*
X1830000D01*
X1826000Y1706500D01*
G01X1810000D02*
Y1700500D01*
G01Y1685500D02*
X1830000D01*
X1826000Y1688500D01*
G01X1810000D02*
Y1682500D01*
G01X1721000Y1727500D02*
X1741000D01*
Y1721250D01*
X1740000Y1719250D01*
X1738670Y1718000D01*
X1736000Y1717500D01*
X1733330Y1718000D01*
X1731670Y1719500D01*
X1730670Y1721250D01*
Y1727500D01*
G01Y1721250D02*
X1721000Y1717500D01*
G01Y1704500D02*
X1741000D01*
X1737000Y1707500D01*
G01X1721000D02*
Y1701500D01*
G01X1737670Y1691250D02*
X1739670Y1689750D01*
X1740670Y1688000D01*
X1741000Y1686000D01*
X1740330Y1683500D01*
X1738670Y1681750D01*
X1736670Y1681250D01*
X1734670Y1681500D01*
X1733000Y1682500D01*
X1729670Y1687500D01*
X1727330Y1689750D01*
X1724000Y1691250D01*
X1721000Y1691750D01*
Y1681250D01*
G01X2066000Y1541500D02*
X2086000D01*
Y1535250D01*
X2085000Y1533250D01*
X2083670Y1532000D01*
X2081000Y1531500D01*
X2078330Y1532000D01*
X2076670Y1533500D01*
X2075670Y1535250D01*
Y1541500D01*
G01Y1535250D02*
X2066000Y1531500D01*
G01X2082670Y1523250D02*
X2084670Y1521750D01*
X2085670Y1520000D01*
X2086000Y1518000D01*
X2085330Y1515500D01*
X2083670Y1513750D01*
X2081670Y1513250D01*
X2079670Y1513500D01*
X2078000Y1514500D01*
X2074670Y1519500D01*
X2072330Y1521750D01*
X2069000Y1523250D01*
X2066000Y1523750D01*
Y1513250D01*
G01X2153000Y1544500D02*
X2173000D01*
Y1538250D01*
X2172000Y1536250D01*
X2170670Y1535000D01*
X2168000Y1534500D01*
X2165330Y1535000D01*
X2163670Y1536500D01*
X2162670Y1538250D01*
Y1544500D01*
G01Y1538250D02*
X2153000Y1534500D01*
G01X2157000Y1527000D02*
X2154670Y1525500D01*
X2153330Y1523500D01*
X2153000Y1521250D01*
X2153330Y1519250D01*
X2155000Y1517250D01*
X2157000Y1516000D01*
X2159000Y1515750D01*
X2161330Y1516250D01*
X2163000Y1518000D01*
X2163670Y1519750D01*
Y1522000D01*
G01Y1519750D02*
X2164670Y1518250D01*
X2166330Y1517000D01*
X2168330Y1516500D01*
X2170330Y1517000D01*
X2172000Y1518250D01*
X2173000Y1520500D01*
X2172670Y1522750D01*
X2171330Y1525000D01*
G01X2741500Y1468000D02*
Y1488000D01*
X2747750D01*
X2749750Y1487000D01*
X2751000Y1485670D01*
X2751500Y1483000D01*
X2751000Y1480330D01*
X2749500Y1478670D01*
X2747750Y1477670D01*
X2741500D01*
G01X2747750D02*
X2751500Y1468000D01*
G01X2764500D02*
X2766250Y1468330D01*
X2768250Y1469330D01*
X2769500Y1471000D01*
X2770000Y1473330D01*
X2769500Y1475670D01*
X2768000Y1477670D01*
X2765750Y1478670D01*
X2763250D01*
X2761750Y1479330D01*
X2760500Y1481000D01*
X2760000Y1483330D01*
X2760750Y1485670D01*
X2762500Y1487330D01*
X2764500Y1488000D01*
X2766500Y1487330D01*
X2768250Y1485670D01*
X2769000Y1483330D01*
X2768500Y1481000D01*
X2767250Y1479330D01*
X2765750Y1478670D01*
X2763250D01*
X2761000Y1477670D01*
X2759500Y1475670D01*
X2759000Y1473330D01*
X2759500Y1471000D01*
X2760750Y1469330D01*
X2762750Y1468330D01*
X2764500Y1468000D01*
G01X2539500Y1559000D02*
Y1579000D01*
X2545750D01*
X2547750Y1578000D01*
X2549000Y1576670D01*
X2549500Y1574000D01*
X2549000Y1571330D01*
X2547500Y1569670D01*
X2545750Y1568670D01*
X2539500D01*
G01X2545750D02*
X2549500Y1559000D01*
G01X2558250Y1561330D02*
X2560000Y1559670D01*
X2562000Y1559000D01*
X2564000Y1559670D01*
X2565750Y1561670D01*
X2567000Y1564670D01*
X2567500Y1567670D01*
Y1571330D01*
X2567000Y1574330D01*
X2565750Y1577000D01*
X2564250Y1578330D01*
X2562500Y1579000D01*
X2560500Y1578330D01*
X2559000Y1577000D01*
X2558000Y1575000D01*
X2557500Y1572330D01*
X2558000Y1570000D01*
X2559250Y1567670D01*
X2560750Y1566330D01*
X2562500Y1566000D01*
X2564500Y1566670D01*
X2566000Y1568330D01*
X2567500Y1571330D01*
G01X2345000Y1632500D02*
X2365000D01*
Y1626250D01*
X2364000Y1624250D01*
X2362670Y1623000D01*
X2360000Y1622500D01*
X2357330Y1623000D01*
X2355670Y1624500D01*
X2354670Y1626250D01*
Y1632500D01*
G01Y1626250D02*
X2345000Y1622500D01*
G01Y1609500D02*
X2365000D01*
X2361000Y1612500D01*
G01X2345000D02*
Y1606500D01*
G01X2348000Y1597000D02*
X2346330Y1595500D01*
X2345330Y1593750D01*
X2345000Y1591500D01*
X2345670Y1589250D01*
X2347000Y1587500D01*
X2349330Y1586250D01*
X2352000Y1586000D01*
X2354670Y1586500D01*
X2356330Y1587750D01*
X2357670Y1589500D01*
X2358000Y1591250D01*
X2357670Y1593000D01*
X2356330Y1595250D01*
X2365000Y1594500D01*
Y1587750D01*
G01X2250000Y1728500D02*
X2270000D01*
Y1722250D01*
X2269000Y1720250D01*
X2267670Y1719000D01*
X2265000Y1718500D01*
X2262330Y1719000D01*
X2260670Y1720500D01*
X2259670Y1722250D01*
Y1728500D01*
G01Y1722250D02*
X2250000Y1718500D01*
G01Y1705500D02*
X2270000D01*
X2266000Y1708500D01*
G01X2250000D02*
Y1702500D01*
G01X2258330Y1692250D02*
X2260670Y1690500D01*
X2262000Y1689000D01*
X2262670Y1687000D01*
X2262000Y1685250D01*
X2260670Y1684000D01*
X2258670Y1683000D01*
X2256330Y1682750D01*
X2254330Y1683000D01*
X2252330Y1684000D01*
X2250670Y1685500D01*
X2250000Y1687250D01*
X2250670Y1689250D01*
X2252670Y1691000D01*
X2255670Y1692000D01*
X2259000Y1692250D01*
X2263330Y1691750D01*
X2265670Y1691000D01*
X2268000Y1689750D01*
X2269670Y1688000D01*
X2270000Y1686250D01*
X2269330Y1684500D01*
X2267670Y1683250D01*
G01X1629000Y1728500D02*
X1649000D01*
Y1722250D01*
X1648000Y1720250D01*
X1646670Y1719000D01*
X1644000Y1718500D01*
X1641330Y1719000D01*
X1639670Y1720500D01*
X1638670Y1722250D01*
Y1728500D01*
G01Y1722250D02*
X1629000Y1718500D01*
G01Y1705500D02*
X1649000D01*
X1645000Y1708500D01*
G01X1629000D02*
Y1702500D01*
G01Y1688000D02*
X1633330Y1687500D01*
X1637000Y1686750D01*
X1640330Y1685750D01*
X1644000Y1684500D01*
X1649000Y1682500D01*
Y1692500D01*
G01X1407290Y1544870D02*
X1427290D01*
Y1538620D01*
X1426290Y1536620D01*
X1424960Y1535370D01*
X1422290Y1534870D01*
X1419620Y1535370D01*
X1417960Y1536870D01*
X1416960Y1538620D01*
Y1544870D01*
G01Y1538620D02*
X1407290Y1534870D01*
G01Y1521870D02*
X1427290D01*
X1423290Y1524870D01*
G01X1407290D02*
Y1518870D01*
G01Y1503870D02*
X1407620Y1502120D01*
X1408620Y1500120D01*
X1410290Y1498870D01*
X1412620Y1498370D01*
X1414960Y1498870D01*
X1416960Y1500370D01*
X1417960Y1502620D01*
Y1505120D01*
X1418620Y1506620D01*
X1420290Y1507870D01*
X1422620Y1508370D01*
X1424960Y1507620D01*
X1426620Y1505870D01*
X1427290Y1503870D01*
X1426620Y1501870D01*
X1424960Y1500120D01*
X1422620Y1499370D01*
X1420290Y1499870D01*
X1418620Y1501120D01*
X1417960Y1502620D01*
Y1505120D01*
X1416960Y1507370D01*
X1414960Y1508870D01*
X1412620Y1509370D01*
X1410290Y1508870D01*
X1408620Y1507620D01*
X1407620Y1505620D01*
X1407290Y1503870D01*
G01X2041670Y1199000D02*
Y1177500D01*
X2043000Y1173000D01*
X2045670Y1170000D01*
X2049000Y1169000D01*
X2052330Y1170000D01*
X2055000Y1173000D01*
X2056330Y1177500D01*
Y1199000D01*
G01X2064670Y1175000D02*
X2066670Y1171500D01*
X2069330Y1169500D01*
X2072330Y1169000D01*
X2075000Y1169500D01*
X2077670Y1172000D01*
X2079330Y1175000D01*
X2079670Y1178000D01*
X2079000Y1181500D01*
X2076670Y1184000D01*
X2074330Y1185000D01*
X2071330D01*
G01X2074330D02*
X2076330Y1186500D01*
X2078000Y1189000D01*
X2078670Y1192000D01*
X2078000Y1195000D01*
X2076330Y1197500D01*
X2073330Y1199000D01*
X2070330Y1198500D01*
X2067330Y1196500D01*
G54D14*
G01X56600Y316000D02*
Y372010D01*
X79390D01*
G01X70990Y344940D02*
X56600D01*
G01X101790Y372010D02*
X116180D01*
G01X108980D02*
Y316000D01*
G01X101790D02*
X116180D01*
G01X136780D02*
Y372010D01*
X148780D01*
X153570Y369210D01*
X157170Y365480D01*
X160170Y359880D01*
X162570Y353340D01*
X163170Y344000D01*
X162570Y334670D01*
X160170Y328130D01*
X157170Y322530D01*
X153570Y318800D01*
X148780Y316000D01*
X136780D01*
G01X177770Y372010D02*
Y331870D01*
X180170Y323470D01*
X184970Y317870D01*
X190960Y316000D01*
X196960Y317870D01*
X201760Y323470D01*
X204160Y331870D01*
Y372010D01*
G01X218760Y327200D02*
X222360Y320670D01*
X227160Y316930D01*
X232560Y316000D01*
X237350Y316930D01*
X242150Y321600D01*
X245150Y327200D01*
X245750Y332800D01*
X244550Y339340D01*
X240350Y344000D01*
X236150Y345870D01*
X230760D01*
G01X236150D02*
X239750Y348670D01*
X242750Y353340D01*
X243950Y358940D01*
X242750Y364540D01*
X239750Y369210D01*
X234350Y372010D01*
X228960Y371080D01*
X223560Y367340D01*
G01X272920Y2082630D02*
X277720Y2077960D01*
X283120Y2075160D01*
X287920D01*
X292720Y2077960D01*
X296320Y2082630D01*
X298120Y2089160D01*
X296920Y2095690D01*
X293920Y2101290D01*
X288520Y2105030D01*
X281320Y2106890D01*
X277120Y2110630D01*
X275320Y2117160D01*
X276520Y2123690D01*
X279520Y2128360D01*
X283720Y2131160D01*
X287920D01*
X292120Y2129290D01*
X295720Y2124630D01*
G01X308520Y2131160D02*
X316920Y2075160D01*
X326520Y2131160D01*
X336120Y2075160D01*
X344520Y2131160D01*
G01X367520Y2075160D02*
Y2131160D01*
X360320Y2119960D01*
G01Y2075160D02*
X374720D01*
G01X80600Y2925000D02*
Y2981010D01*
X103390D01*
G01X94990Y2953940D02*
X80600D01*
G01X125790Y2981010D02*
X140180D01*
G01X132980D02*
Y2925000D01*
G01X125790D02*
X140180D01*
G01X160780D02*
Y2981010D01*
X172780D01*
X177570Y2978210D01*
X181170Y2974480D01*
X184170Y2968880D01*
X186570Y2962340D01*
X187170Y2953000D01*
X186570Y2943670D01*
X184170Y2937130D01*
X181170Y2931530D01*
X177570Y2927800D01*
X172780Y2925000D01*
X160780D01*
G01X201770Y2981010D02*
Y2940870D01*
X204170Y2932470D01*
X208970Y2926870D01*
X214960Y2925000D01*
X220960Y2926870D01*
X225760Y2932470D01*
X228160Y2940870D01*
Y2981010D01*
G01X255950Y2925000D02*
Y2981010D01*
X248760Y2969810D01*
G01Y2925000D02*
X263150D01*
G01X2372670Y1208200D02*
X2369870Y1204600D01*
X2368000Y1200400D01*
Y1195600D01*
X2370800Y1190200D01*
X2375470Y1186000D01*
X2381070Y1183000D01*
X2390400Y1180600D01*
X2398800Y1180000D01*
X2407200Y1181200D01*
X2412800Y1183000D01*
X2418400Y1186600D01*
X2422130Y1190800D01*
X2424000Y1195000D01*
Y1199200D01*
X2422130Y1203400D01*
X2419330Y1207000D01*
X2415600Y1210000D01*
G01X2424000Y1224000D02*
X2368000D01*
Y1239000D01*
X2370800Y1243800D01*
X2374530Y1246800D01*
X2382000Y1248000D01*
X2389470Y1246800D01*
X2394130Y1243200D01*
X2396930Y1239000D01*
Y1224000D01*
G01Y1239000D02*
X2424000Y1248000D01*
G01X2377330Y1265600D02*
X2371730Y1269200D01*
X2368930Y1273400D01*
X2368000Y1278200D01*
X2369870Y1284200D01*
X2374530Y1288400D01*
X2380130Y1289600D01*
X2385730Y1289000D01*
X2390400Y1286600D01*
X2399730Y1274600D01*
X2406270Y1269200D01*
X2415600Y1265600D01*
X2424000Y1264400D01*
Y1289600D01*
G01X2082000Y2400000D02*
Y2456000D01*
X2096400D01*
X2101200Y2453200D01*
X2104800Y2446670D01*
X2106000Y2439200D01*
X2104800Y2431730D01*
X2101800Y2426130D01*
X2096400Y2423330D01*
X2082000D01*
G01X2123600Y2446670D02*
X2127200Y2452270D01*
X2131400Y2455070D01*
X2136200Y2456000D01*
X2142200Y2454130D01*
X2146400Y2449470D01*
X2147600Y2443870D01*
X2147000Y2438270D01*
X2144600Y2433600D01*
X2132600Y2424270D01*
X2127200Y2417730D01*
X2123600Y2408400D01*
X2122400Y2400000D01*
X2147600D01*
G01X2483670Y1211200D02*
X2480870Y1207600D01*
X2479000Y1203400D01*
Y1198600D01*
X2481800Y1193200D01*
X2486470Y1189000D01*
X2492070Y1186000D01*
X2501400Y1183600D01*
X2509800Y1183000D01*
X2518200Y1184200D01*
X2523800Y1186000D01*
X2529400Y1189600D01*
X2533130Y1193800D01*
X2535000Y1198000D01*
Y1202200D01*
X2533130Y1206400D01*
X2530330Y1210000D01*
X2526600Y1213000D01*
G01X2535000Y1227000D02*
X2479000D01*
Y1242000D01*
X2481800Y1246800D01*
X2485530Y1249800D01*
X2493000Y1251000D01*
X2500470Y1249800D01*
X2505130Y1246200D01*
X2507930Y1242000D01*
Y1227000D01*
G01Y1242000D02*
X2535000Y1251000D01*
G01Y1280000D02*
X2479000D01*
X2490200Y1272800D01*
G01X2535000D02*
Y1287200D01*
G01X3488600Y279000D02*
Y335010D01*
X3511390D01*
G01X3502990Y307940D02*
X3488600D01*
G01X3533790Y335010D02*
X3548180D01*
G01X3540980D02*
Y279000D01*
G01X3533790D02*
X3548180D01*
G01X3568780D02*
Y335010D01*
X3580780D01*
X3585570Y332210D01*
X3589170Y328480D01*
X3592170Y322880D01*
X3594570Y316340D01*
X3595170Y307000D01*
X3594570Y297670D01*
X3592170Y291130D01*
X3589170Y285530D01*
X3585570Y281800D01*
X3580780Y279000D01*
X3568780D01*
G01X3609770Y335010D02*
Y294870D01*
X3612170Y286470D01*
X3616970Y280870D01*
X3622960Y279000D01*
X3628960Y280870D01*
X3633760Y286470D01*
X3636160Y294870D01*
Y335010D01*
G01X3652560Y325680D02*
X3656160Y331280D01*
X3660360Y334080D01*
X3665150Y335010D01*
X3671150Y333140D01*
X3675350Y328480D01*
X3676550Y322880D01*
X3675950Y317270D01*
X3673550Y312610D01*
X3661560Y303270D01*
X3656160Y296740D01*
X3652560Y287400D01*
X3651360Y279000D01*
X3676550D01*
G01X3802000Y442000D02*
Y386000D01*
G01X3788200Y442000D02*
X3815800D01*
G01X3831000Y386000D02*
Y442000D01*
X3845400D01*
X3850200Y439200D01*
X3853800Y432670D01*
X3855000Y425200D01*
X3853800Y417730D01*
X3850800Y412130D01*
X3845400Y409330D01*
X3831000D01*
G01X3884000Y386000D02*
Y442000D01*
X3876800Y430800D01*
G01Y386000D02*
X3891200D01*
G54D15*
G01X0Y3270000D02*
Y0D01*
X4000000D01*
Y2900000D01*
X1700000D01*
Y3270000D01*
X0D01*
G01X285260Y1737250D02*
X98030D01*
Y1430000D01*
Y1252000D01*
Y1112500D01*
Y934500D01*
Y627250D01*
X285260D01*
X297000D01*
X392000D01*
X512000Y747250D01*
Y934500D01*
Y1112500D01*
Y1252000D01*
Y1430000D01*
Y1617250D01*
X392000Y1737250D01*
X297000D01*
X285260D01*
G01X209230Y906650D02*
Y886350D01*
G01X245000Y906650D02*
Y886350D01*
G01X227890Y887850D02*
X230770Y886350D01*
G01X191000D02*
Y906650D01*
G01X82000Y886350D02*
Y906650D01*
G01X230770Y886350D02*
X242320D01*
G01X245000D02*
X256790D01*
G01X257250D02*
X256790D01*
G01X257250D02*
X261000D01*
G01X82000D02*
X92000D01*
G01X98030D02*
X92000D01*
G01X168340D02*
X167000D01*
G01X168340D02*
X173340D01*
G01X191000D02*
X173340D01*
G01X191000D02*
X201720D01*
G01D02*
X207470D01*
G01X230770D02*
X209230D01*
G01X207470D02*
X209230D01*
G01X245000D02*
X242320D01*
G01X398600D02*
Y906650D01*
G01X389670Y886350D02*
X387970Y887440D01*
G01X542000Y906650D02*
Y886350D01*
G01X394580D02*
X389670D01*
G01X394580D02*
X395800D01*
G01D02*
X398600D01*
G01X404000D02*
X398600D01*
G01X404000D02*
X434540D01*
G01D02*
X443940D01*
G01X446400D02*
X443940D01*
G01X446400D02*
X447000D01*
G01X512000D02*
X532000D01*
G01D02*
X542000D01*
G01X367000D02*
X367050D01*
G01X389670D02*
X367050D01*
G01X97900Y685760D02*
X98030D01*
G01X97900Y650560D02*
X98030D01*
G01X97900Y719870D02*
X98030D01*
G01X392000Y879720D02*
X383000Y883000D01*
G01X367000Y885000D02*
G03X369000Y883000I2000J0D01*
G01X383000D02*
X369000D01*
G01X452000Y727250D02*
X443000Y736250D01*
G01X452000Y802250D02*
X443000Y793250D01*
G01X392000Y727250D02*
X383000Y736250D01*
G01Y696250D02*
X392000Y687250D01*
G01X222000Y724750D02*
X210260Y713010D01*
G01X159500Y724750D02*
X147760Y713010D01*
G01X159500Y804750D02*
X147760Y816490D01*
G01X222000Y677250D02*
X210260Y665510D01*
G01X285260D02*
X297000Y677250D01*
G01X159500Y804750D02*
Y724750D01*
G01X222000Y804750D02*
X159500D01*
G01Y724750D02*
X222000D01*
G01X392000Y802250D02*
X452000D01*
G01D02*
Y727250D01*
G01D02*
X392000D01*
G01X297000Y677250D02*
Y627250D01*
G01X392000Y687250D02*
X312000D01*
G01X222000Y677250D02*
X297000D01*
G01X392000Y727250D02*
Y687250D01*
G01X261000Y908500D02*
Y884500D01*
G01X447000Y908500D02*
Y884500D01*
G01X222000Y724750D02*
Y677250D01*
G01X392000Y879720D02*
Y864750D01*
G01X447000Y884500D02*
X367060D01*
G01X222000Y804750D02*
X210260Y816490D01*
G01Y883000D02*
X213000D01*
G01X222000Y879720D02*
X213000Y883000D01*
G01X222000Y879720D02*
Y804750D01*
G01X167000Y908500D02*
Y884500D01*
G01D02*
X261000D01*
G01X383000Y793250D02*
X392000Y802250D01*
G01Y864750D02*
X383000D01*
G01X392000D02*
Y802250D01*
G01X312000Y687250D02*
X321000Y696250D01*
G01X155030Y908000D02*
Y885000D01*
G01D02*
G03X157030Y883000I2000J0D01*
G01D02*
X210260D01*
G01Y816490D02*
Y883000D01*
G01X147760Y816490D02*
X210260D01*
G01X147760Y713010D02*
Y816490D01*
G01X210260Y713010D02*
X147760D01*
G01X210260Y665510D02*
Y713010D01*
G01X285260Y665510D02*
X210260D01*
G01X285260Y627250D02*
Y665510D01*
G01X312000Y687250D02*
Y948500D01*
G01X367000Y908000D02*
Y885000D01*
G01D02*
Y864750D01*
G01X383000D02*
X367000D01*
G01X383000Y793250D02*
Y864750D01*
G01X443000Y793250D02*
X383000D01*
G01X443000Y736250D02*
Y793250D01*
G01X383000Y736250D02*
X443000D01*
G01X383000Y696250D02*
Y736250D01*
G01X321000Y696250D02*
X383000D01*
G01X321000Y948500D02*
Y696250D01*
G01X806790Y154590D02*
Y368090D01*
Y989160D01*
X886180D01*
Y838120D01*
X1075880D01*
X1737700D01*
X1927400D01*
Y989160D01*
X2006790D01*
Y368090D01*
Y154590D01*
X1957610D01*
Y79210D01*
X1918270D01*
Y154590D01*
X1906330D01*
Y79210D01*
X1737700D01*
X1676720D01*
X1661820Y94110D01*
Y202280D01*
X1151760D01*
Y94110D01*
X1136860Y79210D01*
X1075880D01*
X907250D01*
Y154590D01*
X895310D01*
Y79210D01*
X855970D01*
Y154590D01*
X806790D01*
G01X907250Y368090D02*
Y154590D01*
G01X855970D02*
X895310D01*
G01X907250Y368090D02*
X806790D01*
G01X700000Y2499850D02*
Y2409850D01*
G02X680000Y2389850I-20000J0D01*
G01X580000D01*
G02X560000Y2409850I0J20000D01*
G01Y2499850D01*
Y2509850D01*
X700000D01*
Y2499850D01*
G01X300000Y2699850D02*
Y2589850D01*
G03X320000Y2569850I20000J0D01*
G01X464000D01*
X475000D01*
Y2719850D01*
X464000D01*
X320000D01*
G03X300000Y2699850I0J-20000D01*
G01X700000Y2509850D02*
X560000D01*
Y2539850D01*
Y2569850D01*
G03X540000I-10000J0D01*
G01X530000D01*
X475000D01*
Y3259850D01*
X530000D01*
X1170000D01*
X1225000D01*
Y2569850D01*
X1170000D01*
X1160000D01*
G03X1140000I-10000J0D01*
G01Y2539850D01*
Y2509850D01*
X1000000D01*
Y2539850D01*
Y2569850D01*
G03X980000I-10000J0D01*
G01X720000D01*
G03X700000I-10000J0D01*
G01Y2539850D01*
Y2509850D01*
G01X400000Y2644850D02*
G03I-25000J0D01*
G01X655000Y2464850D02*
G03I-25000J0D01*
G01X889000Y2388000D02*
X830000D01*
G01X809500Y2410500D02*
Y2265500D01*
G01D02*
X909500D01*
G01D02*
Y2410500D01*
G01D02*
X809500D01*
G01X842000Y2390500D02*
G03I-12500J0D01*
G01X98030Y1478150D02*
X92000D01*
X82000D01*
Y1457850D01*
X92000D01*
X98030D01*
Y1478150D01*
G01X512000D02*
X532000D01*
X542000D01*
Y1457850D01*
X532000D01*
X512000D01*
Y1478150D01*
G01X209230Y1160650D02*
Y1140350D01*
G01X245000Y1160650D02*
Y1140350D01*
G01X230770Y1160650D02*
X227890Y1159150D01*
G01Y1141850D02*
X230770Y1140350D01*
G01X191000D02*
Y1160650D01*
G01X82000Y1140350D02*
Y1160650D01*
G01X201720D02*
X207470D01*
G01X201720D02*
X191000D01*
G01D02*
X173340D01*
G01X168340D02*
X173340D01*
G01X168340D02*
X167000D01*
G01X98030D02*
X92000D01*
G01D02*
X82000D01*
G01X257250D02*
X261000D01*
G01X256790D02*
X257250D01*
G01X245000D02*
X256790D01*
G01X230770D02*
X242320D01*
G01X230770D02*
X209230D01*
G01X230770Y1140350D02*
X242320D01*
G01X245000D02*
X256790D01*
G01X257250D02*
X256790D01*
G01X257250D02*
X261000D01*
G01X82000D02*
X92000D01*
G01X98030D02*
X92000D01*
G01X168340D02*
X167000D01*
G01X168340D02*
X173340D01*
G01X191000D02*
X173340D01*
G01X191000D02*
X201720D01*
G01D02*
X207470D01*
G01X230770D02*
X209230D01*
G01X207470D02*
X209230D01*
G01X207470Y1160650D02*
X209230D01*
G01X245000Y1140350D02*
X242320D01*
G01X245000Y1160650D02*
X242320D01*
G01X230770Y906650D02*
X227890Y905150D01*
G01X201720Y906650D02*
X207470D01*
G01X201720D02*
X191000D01*
G01D02*
X173340D01*
G01X168340D02*
X173340D01*
G01X168340D02*
X167000D01*
G01X98030D02*
X92000D01*
G01D02*
X82000D01*
G01X257250D02*
X261000D01*
G01X256790D02*
X257250D01*
G01X245000D02*
X256790D01*
G01X230770D02*
X242320D01*
G01X230770D02*
X209230D01*
G01X207470D02*
X209230D01*
G01X245000D02*
X242320D01*
G01X209230Y1414650D02*
Y1394350D01*
G01X245000Y1414650D02*
Y1394350D01*
G01X230770Y1414650D02*
X227890Y1413150D01*
G01Y1395850D02*
X230770Y1394350D01*
G01X191000D02*
Y1414650D01*
G01X82000Y1394350D02*
Y1414650D01*
G01X201720D02*
X207470D01*
G01X201720D02*
X191000D01*
G01D02*
X173340D01*
G01X168340D02*
X173340D01*
G01X168340D02*
X167000D01*
G01X98030D02*
X92000D01*
G01D02*
X82000D01*
G01X257250D02*
X261000D01*
G01X256790D02*
X257250D01*
G01X245000D02*
X256790D01*
G01X230770D02*
X242320D01*
G01X230770D02*
X209230D01*
G01X230770Y1394350D02*
X242320D01*
G01X245000D02*
X256790D01*
G01X257250D02*
X256790D01*
G01X257250D02*
X261000D01*
G01X82000D02*
X92000D01*
G01X98030D02*
X92000D01*
G01X168340D02*
X167000D01*
G01X168340D02*
X173340D01*
G01X191000D02*
X173340D01*
G01X191000D02*
X201720D01*
G01D02*
X207470D01*
G01X230770D02*
X209230D01*
G01X207470D02*
X209230D01*
G01X207470Y1414650D02*
X209230D01*
G01X245000Y1394350D02*
X242320D01*
G01X245000Y1414650D02*
X242320D01*
G01X209230Y1287650D02*
Y1267350D01*
G01X245000Y1287650D02*
Y1267350D01*
G01X230770Y1287650D02*
X227890Y1286150D01*
G01Y1268850D02*
X230770Y1267350D01*
G01X191000D02*
Y1287650D01*
G01X82000Y1267350D02*
Y1287650D01*
G01X201720D02*
X207470D01*
G01X201720D02*
X191000D01*
G01D02*
X173340D01*
G01X168340D02*
X173340D01*
G01X168340D02*
X167000D01*
G01X98030D02*
X92000D01*
G01D02*
X82000D01*
G01X257250D02*
X261000D01*
G01X256790D02*
X257250D01*
G01X245000D02*
X256790D01*
G01X230770D02*
X242320D01*
G01X230770D02*
X209230D01*
G01X230770Y1267350D02*
X242320D01*
G01X245000D02*
X256790D01*
G01X257250D02*
X256790D01*
G01X257250D02*
X261000D01*
G01X82000D02*
X92000D01*
G01X98030D02*
X92000D01*
G01X168340D02*
X167000D01*
G01X168340D02*
X173340D01*
G01X191000D02*
X173340D01*
G01X191000D02*
X201720D01*
G01D02*
X207470D01*
G01X230770D02*
X209230D01*
G01X207470D02*
X209230D01*
G01X207470Y1287650D02*
X209230D01*
G01X245000Y1267350D02*
X242320D01*
G01X245000Y1287650D02*
X242320D01*
G01X209230Y1224150D02*
Y1203850D01*
G01X245000Y1224150D02*
Y1203850D01*
G01X230770Y1224150D02*
X227890Y1222650D01*
G01Y1205350D02*
X230770Y1203850D01*
G01X191000D02*
Y1224150D01*
G01X82000Y1203850D02*
Y1224150D01*
G01X201720D02*
X207470D01*
G01X201720D02*
X191000D01*
G01D02*
X173340D01*
G01X168340D02*
X173340D01*
G01X168340D02*
X167000D01*
G01X98030D02*
X92000D01*
G01D02*
X82000D01*
G01X257250D02*
X261000D01*
G01X256790D02*
X257250D01*
G01X245000D02*
X256790D01*
G01X230770D02*
X242320D01*
G01X230770D02*
X209230D01*
G01X230770Y1203850D02*
X242320D01*
G01X245000D02*
X256790D01*
G01X257250D02*
X256790D01*
G01X257250D02*
X261000D01*
G01X82000D02*
X92000D01*
G01X98030D02*
X92000D01*
G01X168340D02*
X167000D01*
G01X168340D02*
X173340D01*
G01X191000D02*
X173340D01*
G01X191000D02*
X201720D01*
G01D02*
X207470D01*
G01X230770D02*
X209230D01*
G01X207470D02*
X209230D01*
G01X207470Y1224150D02*
X209230D01*
G01X245000Y1203850D02*
X242320D01*
G01X245000Y1224150D02*
X242320D01*
G01X209230Y1033650D02*
Y1013350D01*
G01X245000Y1033650D02*
Y1013350D01*
G01X230770Y1033650D02*
X227890Y1032150D01*
G01Y1014850D02*
X230770Y1013350D01*
G01X191000D02*
Y1033650D01*
G01X82000Y1013350D02*
Y1033650D01*
G01X201720D02*
X207470D01*
G01X201720D02*
X191000D01*
G01D02*
X173340D01*
G01X168340D02*
X173340D01*
G01X168340D02*
X167000D01*
G01X98030D02*
X92000D01*
G01D02*
X82000D01*
G01X257250D02*
X261000D01*
G01X256790D02*
X257250D01*
G01X245000D02*
X256790D01*
G01X230770D02*
X242320D01*
G01X230770D02*
X209230D01*
G01X230770Y1013350D02*
X242320D01*
G01X245000D02*
X256790D01*
G01X257250D02*
X256790D01*
G01X257250D02*
X261000D01*
G01X82000D02*
X92000D01*
G01X98030D02*
X92000D01*
G01X168340D02*
X167000D01*
G01X168340D02*
X173340D01*
G01X191000D02*
X173340D01*
G01X191000D02*
X201720D01*
G01D02*
X207470D01*
G01X230770D02*
X209230D01*
G01X207470D02*
X209230D01*
G01X207470Y1033650D02*
X209230D01*
G01X245000Y1013350D02*
X242320D01*
G01X245000Y1033650D02*
X242320D01*
G01X209230Y1351150D02*
Y1330850D01*
G01X245000Y1351150D02*
Y1330850D01*
G01X230770Y1351150D02*
X227890Y1349650D01*
G01Y1332350D02*
X230770Y1330850D01*
G01X191000D02*
Y1351150D01*
G01X82000Y1330850D02*
Y1351150D01*
G01X201720D02*
X207470D01*
G01X201720D02*
X191000D01*
G01D02*
X173340D01*
G01X168340D02*
X173340D01*
G01X168340D02*
X167000D01*
G01X98030D02*
X92000D01*
G01D02*
X82000D01*
G01X257250D02*
X261000D01*
G01X256790D02*
X257250D01*
G01X245000D02*
X256790D01*
G01X230770D02*
X242320D01*
G01X230770D02*
X209230D01*
G01X230770Y1330850D02*
X242320D01*
G01X245000D02*
X256790D01*
G01X257250D02*
X256790D01*
G01X257250D02*
X261000D01*
G01X82000D02*
X92000D01*
G01X98030D02*
X92000D01*
G01X168340D02*
X167000D01*
G01X168340D02*
X173340D01*
G01X191000D02*
X173340D01*
G01X191000D02*
X201720D01*
G01D02*
X207470D01*
G01X230770D02*
X209230D01*
G01X207470D02*
X209230D01*
G01X207470Y1351150D02*
X209230D01*
G01X245000Y1330850D02*
X242320D01*
G01X245000Y1351150D02*
X242320D01*
G01X209230Y970150D02*
Y949850D01*
G01X245000Y970150D02*
Y949850D01*
G01X230770Y970150D02*
X227890Y968650D01*
G01Y951350D02*
X230770Y949850D01*
G01X191000D02*
Y970150D01*
G01X82000Y949850D02*
Y970150D01*
G01X201720D02*
X207470D01*
G01X201720D02*
X191000D01*
G01D02*
X173340D01*
G01X168340D02*
X173340D01*
G01X168340D02*
X167000D01*
G01X98030D02*
X92000D01*
G01D02*
X82000D01*
G01X257250D02*
X261000D01*
G01X256790D02*
X257250D01*
G01X245000D02*
X256790D01*
G01X230770D02*
X242320D01*
G01X230770D02*
X209230D01*
G01X230770Y949850D02*
X242320D01*
G01X245000D02*
X256790D01*
G01X257250D02*
X256790D01*
G01X257250D02*
X261000D01*
G01X82000D02*
X92000D01*
G01X98030D02*
X92000D01*
G01X168340D02*
X167000D01*
G01X168340D02*
X173340D01*
G01X191000D02*
X173340D01*
G01X191000D02*
X201720D01*
G01D02*
X207470D01*
G01X230770D02*
X209230D01*
G01X207470D02*
X209230D01*
G01X207470Y970150D02*
X209230D01*
G01X245000Y949850D02*
X242320D01*
G01X245000Y970150D02*
X242320D01*
G01X209230Y1097150D02*
Y1076850D01*
G01X245000Y1097150D02*
Y1076850D01*
G01X230770Y1097150D02*
X227890Y1095650D01*
G01Y1078350D02*
X230770Y1076850D01*
G01X191000D02*
Y1097150D01*
G01X82000Y1076850D02*
Y1097150D01*
G01X201720D02*
X207470D01*
G01X201720D02*
X191000D01*
G01D02*
X173340D01*
G01X168340D02*
X173340D01*
G01X168340D02*
X167000D01*
G01X98030D02*
X92000D01*
G01D02*
X82000D01*
G01X257250D02*
X261000D01*
G01X256790D02*
X257250D01*
G01X245000D02*
X256790D01*
G01X230770D02*
X242320D01*
G01X230770D02*
X209230D01*
G01X230770Y1076850D02*
X242320D01*
G01X245000D02*
X256790D01*
G01X257250D02*
X256790D01*
G01X257250D02*
X261000D01*
G01X82000D02*
X92000D01*
G01X98030D02*
X92000D01*
G01X168340D02*
X167000D01*
G01X168340D02*
X173340D01*
G01X191000D02*
X173340D01*
G01X191000D02*
X201720D01*
G01D02*
X207470D01*
G01X230770D02*
X209230D01*
G01X207470D02*
X209230D01*
G01X207470Y1097150D02*
X209230D01*
G01X245000Y1076850D02*
X242320D01*
G01X245000Y1097150D02*
X242320D01*
G01X209230Y1478150D02*
Y1457850D01*
G01X245000Y1478150D02*
Y1457850D01*
G01X230770Y1478150D02*
X227890Y1476650D01*
G01Y1459350D02*
X230770Y1457850D01*
G01X191000D02*
Y1478150D01*
G01X201720D02*
X207470D01*
G01X201720D02*
X191000D01*
G01D02*
X173340D01*
G01X168340D02*
X173340D01*
G01X168340D02*
X167000D01*
G01X257250D02*
X261000D01*
G01X256790D02*
X257250D01*
G01X245000D02*
X256790D01*
G01X230770D02*
X242320D01*
G01X230770D02*
X209230D01*
G01X230770Y1457850D02*
X242320D01*
G01X245000D02*
X256790D01*
G01X257250D02*
X256790D01*
G01X257250D02*
X261000D01*
G01X168340D02*
X167000D01*
G01X168340D02*
X173340D01*
G01X191000D02*
X173340D01*
G01X191000D02*
X201720D01*
G01D02*
X207470D01*
G01X230770D02*
X209230D01*
G01X207470D02*
X209230D01*
G01X207470Y1478150D02*
X209230D01*
G01X245000Y1457850D02*
X242320D01*
G01X245000Y1478150D02*
X242320D01*
G01X398600Y1013350D02*
Y1033650D01*
G01X387970Y1032560D02*
X389670Y1033650D01*
G01Y1013350D02*
X387970Y1014440D01*
G01X542000Y1033650D02*
Y1013350D01*
G01Y1033650D02*
X532000D01*
G01X512000D02*
X532000D01*
G01X447000D02*
X446400D01*
G01X443940D02*
X446400D01*
G01X443940D02*
X434540D01*
G01X404000D02*
X434540D01*
G01X398600D02*
X404000D01*
G01X395800D02*
X398600D01*
G01X395800D02*
X394580D01*
G01X389670D02*
X394580D01*
G01X389670D02*
X367050D01*
G01D02*
X367000D01*
G01X394580Y1013350D02*
X389670D01*
G01X394580D02*
X395800D01*
G01D02*
X398600D01*
G01X404000D02*
X398600D01*
G01X404000D02*
X434540D01*
G01D02*
X443940D01*
G01X446400D02*
X443940D01*
G01X446400D02*
X447000D01*
G01X512000D02*
X532000D01*
G01D02*
X542000D01*
G01X367000D02*
X367050D01*
G01X389670D02*
X367050D01*
G01X398600Y1457850D02*
Y1478150D01*
G01X387970Y1477060D02*
X389670Y1478150D01*
G01Y1457850D02*
X387970Y1458940D01*
G01X447000Y1478150D02*
X446400D01*
G01X443940D02*
X446400D01*
G01X443940D02*
X434540D01*
G01X404000D02*
X434540D01*
G01X398600D02*
X404000D01*
G01X395800D02*
X398600D01*
G01X395800D02*
X394580D01*
G01X389670D02*
X394580D01*
G01X389670D02*
X367050D01*
G01D02*
X367000D01*
G01X394580Y1457850D02*
X389670D01*
G01X394580D02*
X395800D01*
G01D02*
X398600D01*
G01X404000D02*
X398600D01*
G01X404000D02*
X434540D01*
G01D02*
X443940D01*
G01X446400D02*
X443940D01*
G01X446400D02*
X447000D01*
G01X367000D02*
X367050D01*
G01X389670D02*
X367050D01*
G01X398600Y1140350D02*
Y1160650D01*
G01X387970Y1159560D02*
X389670Y1160650D01*
G01Y1140350D02*
X387970Y1141440D01*
G01X542000Y1160650D02*
Y1140350D01*
G01Y1160650D02*
X532000D01*
G01X512000D02*
X532000D01*
G01X447000D02*
X446400D01*
G01X443940D02*
X446400D01*
G01X443940D02*
X434540D01*
G01X404000D02*
X434540D01*
G01X398600D02*
X404000D01*
G01X395800D02*
X398600D01*
G01X395800D02*
X394580D01*
G01X389670D02*
X394580D01*
G01X389670D02*
X367050D01*
G01D02*
X367000D01*
G01X394580Y1140350D02*
X389670D01*
G01X394580D02*
X395800D01*
G01D02*
X398600D01*
G01X404000D02*
X398600D01*
G01X404000D02*
X434540D01*
G01D02*
X443940D01*
G01X446400D02*
X443940D01*
G01X446400D02*
X447000D01*
G01X512000D02*
X532000D01*
G01D02*
X542000D01*
G01X367000D02*
X367050D01*
G01X389670D02*
X367050D01*
G01X398600Y1330850D02*
Y1351150D01*
G01X387970Y1350060D02*
X389670Y1351150D01*
G01Y1330850D02*
X387970Y1331940D01*
G01X542000Y1351150D02*
Y1330850D01*
G01Y1351150D02*
X532000D01*
G01X512000D02*
X532000D01*
G01X447000D02*
X446400D01*
G01X443940D02*
X446400D01*
G01X443940D02*
X434540D01*
G01X404000D02*
X434540D01*
G01X398600D02*
X404000D01*
G01X395800D02*
X398600D01*
G01X395800D02*
X394580D01*
G01X389670D02*
X394580D01*
G01X389670D02*
X367050D01*
G01D02*
X367000D01*
G01X394580Y1330850D02*
X389670D01*
G01X394580D02*
X395800D01*
G01D02*
X398600D01*
G01X404000D02*
X398600D01*
G01X404000D02*
X434540D01*
G01D02*
X443940D01*
G01X446400D02*
X443940D01*
G01X446400D02*
X447000D01*
G01X512000D02*
X532000D01*
G01D02*
X542000D01*
G01X367000D02*
X367050D01*
G01X389670D02*
X367050D01*
G01X398600Y949850D02*
Y970150D01*
G01X387970Y969060D02*
X389670Y970150D01*
G01Y949850D02*
X387970Y950940D01*
G01X542000Y970150D02*
Y949850D01*
G01Y970150D02*
X532000D01*
G01X512000D02*
X532000D01*
G01X447000D02*
X446400D01*
G01X443940D02*
X446400D01*
G01X443940D02*
X434540D01*
G01X404000D02*
X434540D01*
G01X398600D02*
X404000D01*
G01X395800D02*
X398600D01*
G01X395800D02*
X394580D01*
G01X389670D02*
X394580D01*
G01X389670D02*
X367050D01*
G01D02*
X367000D01*
G01X394580Y949850D02*
X389670D01*
G01X394580D02*
X395800D01*
G01D02*
X398600D01*
G01X404000D02*
X398600D01*
G01X404000D02*
X434540D01*
G01D02*
X443940D01*
G01X446400D02*
X443940D01*
G01X446400D02*
X447000D01*
G01X512000D02*
X532000D01*
G01D02*
X542000D01*
G01X367000D02*
X367050D01*
G01X389670D02*
X367050D01*
G01X398600Y1394350D02*
Y1414650D01*
G01X387970Y1413560D02*
X389670Y1414650D01*
G01Y1394350D02*
X387970Y1395440D01*
G01X542000Y1414650D02*
Y1394350D01*
G01Y1414650D02*
X532000D01*
G01X512000D02*
X532000D01*
G01X447000D02*
X446400D01*
G01X443940D02*
X446400D01*
G01X443940D02*
X434540D01*
G01X404000D02*
X434540D01*
G01X398600D02*
X404000D01*
G01X395800D02*
X398600D01*
G01X395800D02*
X394580D01*
G01X389670D02*
X394580D01*
G01X389670D02*
X367050D01*
G01D02*
X367000D01*
G01X394580Y1394350D02*
X389670D01*
G01X394580D02*
X395800D01*
G01D02*
X398600D01*
G01X404000D02*
X398600D01*
G01X404000D02*
X434540D01*
G01D02*
X443940D01*
G01X446400D02*
X443940D01*
G01X446400D02*
X447000D01*
G01X512000D02*
X532000D01*
G01D02*
X542000D01*
G01X367000D02*
X367050D01*
G01X389670D02*
X367050D01*
G01X398600Y1076850D02*
Y1097150D01*
G01X387970Y1096060D02*
X389670Y1097150D01*
G01Y1076850D02*
X387970Y1077940D01*
G01X542000Y1097150D02*
Y1076850D01*
G01Y1097150D02*
X532000D01*
G01X512000D02*
X532000D01*
G01X447000D02*
X446400D01*
G01X443940D02*
X446400D01*
G01X443940D02*
X434540D01*
G01X404000D02*
X434540D01*
G01X398600D02*
X404000D01*
G01X395800D02*
X398600D01*
G01X395800D02*
X394580D01*
G01X389670D02*
X394580D01*
G01X389670D02*
X367050D01*
G01D02*
X367000D01*
G01X394580Y1076850D02*
X389670D01*
G01X394580D02*
X395800D01*
G01D02*
X398600D01*
G01X404000D02*
X398600D01*
G01X404000D02*
X434540D01*
G01D02*
X443940D01*
G01X446400D02*
X443940D01*
G01X446400D02*
X447000D01*
G01X512000D02*
X532000D01*
G01D02*
X542000D01*
G01X367000D02*
X367050D01*
G01X389670D02*
X367050D01*
G01X387970Y905560D02*
X389670Y906650D01*
G01X542000D02*
X532000D01*
G01X512000D02*
X532000D01*
G01X447000D02*
X446400D01*
G01X443940D02*
X446400D01*
G01X443940D02*
X434540D01*
G01X404000D02*
X434540D01*
G01X398600D02*
X404000D01*
G01X395800D02*
X398600D01*
G01X395800D02*
X394580D01*
G01X389670D02*
X394580D01*
G01X389670D02*
X367050D01*
G01D02*
X367000D01*
G01X398600Y1203850D02*
Y1224150D01*
G01X387970Y1223060D02*
X389670Y1224150D01*
G01Y1203850D02*
X387970Y1204940D01*
G01X542000Y1224150D02*
Y1203850D01*
G01Y1224150D02*
X532000D01*
G01X512000D02*
X532000D01*
G01X447000D02*
X446400D01*
G01X443940D02*
X446400D01*
G01X443940D02*
X434540D01*
G01X404000D02*
X434540D01*
G01X398600D02*
X404000D01*
G01X395800D02*
X398600D01*
G01X395800D02*
X394580D01*
G01X389670D02*
X394580D01*
G01X389670D02*
X367050D01*
G01D02*
X367000D01*
G01X394580Y1203850D02*
X389670D01*
G01X394580D02*
X395800D01*
G01D02*
X398600D01*
G01X404000D02*
X398600D01*
G01X404000D02*
X434540D01*
G01D02*
X443940D01*
G01X446400D02*
X443940D01*
G01X446400D02*
X447000D01*
G01X512000D02*
X532000D01*
G01D02*
X542000D01*
G01X367000D02*
X367050D01*
G01X389670D02*
X367050D01*
G01X398600Y1267350D02*
Y1287650D01*
G01X387970Y1286560D02*
X389670Y1287650D01*
G01Y1267350D02*
X387970Y1268440D01*
G01X542000Y1287650D02*
Y1267350D01*
G01Y1287650D02*
X532000D01*
G01X512000D02*
X532000D01*
G01X447000D02*
X446400D01*
G01X443940D02*
X446400D01*
G01X443940D02*
X434540D01*
G01X404000D02*
X434540D01*
G01X398600D02*
X404000D01*
G01X395800D02*
X398600D01*
G01X395800D02*
X394580D01*
G01X389670D02*
X394580D01*
G01X389670D02*
X367050D01*
G01D02*
X367000D01*
G01X394580Y1267350D02*
X389670D01*
G01X394580D02*
X395800D01*
G01D02*
X398600D01*
G01X404000D02*
X398600D01*
G01X404000D02*
X434540D01*
G01D02*
X443940D01*
G01X446400D02*
X443940D01*
G01X446400D02*
X447000D01*
G01X512000D02*
X532000D01*
G01D02*
X542000D01*
G01X367000D02*
X367050D01*
G01X389670D02*
X367050D01*
G01X97900Y1588830D02*
X98030D01*
G01X97900Y1687250D02*
X98030D01*
G01X383000Y1481500D02*
X392000Y1484780D01*
G01Y1451220D02*
X383000Y1454500D01*
G01Y1418000D02*
X392000Y1421280D01*
G01Y1387720D02*
X383000Y1391000D01*
G01Y1354500D02*
X392000Y1357780D01*
G01Y1324220D02*
X383000Y1327500D01*
G01Y1291000D02*
X392000Y1294280D01*
G01Y1260720D02*
X383000Y1264000D01*
G01Y1227500D02*
X392000Y1230780D01*
G01Y1197220D02*
X383000Y1200500D01*
G01Y1164000D02*
X392000Y1167280D01*
G01Y1133720D02*
X383000Y1137000D01*
G01Y1100500D02*
X392000Y1103780D01*
G01Y1070220D02*
X383000Y1073500D01*
G01Y1037000D02*
X392000Y1040280D01*
G01Y1006720D02*
X383000Y1010000D01*
G01Y973500D02*
X392000Y976780D01*
G01Y943220D02*
X383000Y946500D01*
G01X369000Y1481500D02*
G03X367000Y1479500I0J-2000D01*
G01Y1456500D02*
G03X369000Y1454500I2000J0D01*
G01Y1418000D02*
G03X367000Y1416000I0J-2000D01*
G01Y1393000D02*
G03X369000Y1391000I2000J0D01*
G01Y1354500D02*
G03X367000Y1352500I0J-2000D01*
G01Y1329500D02*
G03X369000Y1327500I2000J0D01*
G01Y1291000D02*
G03X367000Y1289000I0J-2000D01*
G01Y1266000D02*
G03X369000Y1264000I2000J0D01*
G01Y1227500D02*
G03X367000Y1225500I0J-2000D01*
G01Y1202500D02*
G03X369000Y1200500I2000J0D01*
G01Y1164000D02*
G03X367000Y1162000I0J-2000D01*
G01Y1139000D02*
G03X369000Y1137000I2000J0D01*
G01Y1100500D02*
G03X367000Y1098500I0J-2000D01*
G01Y1075500D02*
G03X369000Y1073500I2000J0D01*
G01Y1037000D02*
G03X367000Y1035000I0J-2000D01*
G01Y1012000D02*
G03X369000Y1010000I2000J0D01*
G01Y973500D02*
G03X367000Y971500I0J-2000D01*
G01Y948500D02*
G03X369000Y946500I2000J0D01*
G01Y1481500D02*
X383000D01*
G01Y1454500D02*
X369000D01*
G01Y1418000D02*
X383000D01*
G01Y1391000D02*
X369000D01*
G01Y1354500D02*
X383000D01*
G01Y1327500D02*
X369000D01*
G01Y1291000D02*
X383000D01*
G01Y1264000D02*
X369000D01*
G01Y1227500D02*
X383000D01*
G01Y1200500D02*
X369000D01*
G01Y1164000D02*
X383000D01*
G01Y1137000D02*
X369000D01*
G01Y1100500D02*
X383000D01*
G01Y1073500D02*
X369000D01*
G01Y1037000D02*
X383000D01*
G01Y1010000D02*
X369000D01*
G01Y973500D02*
X383000D01*
G01Y946500D02*
X369000D01*
G01X383000Y910000D02*
X392000Y913280D01*
G01X369000Y910000D02*
G03X367000Y908000I0J-2000D01*
G01X369000Y910000D02*
X383000D01*
G01X443000Y1628250D02*
X452000Y1637250D01*
G01X443000Y1571250D02*
X452000Y1562250D01*
G01X383000Y1628250D02*
X392000Y1637250D01*
G01Y1677250D02*
X383000Y1668250D01*
G01X159500Y1554750D02*
X147760Y1543010D01*
G01X159500Y1644750D02*
X147760Y1656490D01*
G01X222000Y1644750D02*
X210260Y1656490D01*
G01Y1698990D02*
X222000Y1687250D01*
G01X297000D02*
X285260Y1698990D01*
G01X159500Y1554750D02*
X222000D01*
G01X159500Y1644750D02*
Y1554750D01*
G01X222000Y1644750D02*
X159500D01*
G01X392000Y1637250D02*
X452000D01*
G01D02*
Y1562250D01*
G01D02*
X392000D01*
G01X312000Y1677250D02*
X392000D01*
G01X297000Y1737250D02*
Y1687250D01*
G01D02*
X222000D01*
G01X285260Y1737250D02*
X297000D01*
G01X447000Y1480000D02*
Y1456000D01*
G01Y972000D02*
Y948000D01*
G01Y1035500D02*
Y1011500D01*
G01Y1099000D02*
Y1075000D01*
G01Y1162500D02*
Y1138500D01*
G01Y1226000D02*
Y1202000D01*
G01Y1289500D02*
Y1265500D01*
G01Y1353000D02*
Y1329000D01*
G01Y1416500D02*
Y1392500D01*
G01X261000Y972000D02*
Y948000D01*
G01Y1035500D02*
Y1011500D01*
G01Y1099000D02*
Y1075000D01*
G01Y1162500D02*
Y1138500D01*
G01Y1226000D02*
Y1202000D01*
G01Y1289500D02*
Y1265500D01*
G01Y1353000D02*
Y1329000D01*
G01Y1416500D02*
Y1392500D01*
G01Y1480000D02*
Y1456000D01*
G01X512000Y1112500D02*
X484000D01*
G01D02*
Y934500D01*
G01D02*
X512000D01*
G01Y1430000D02*
X484000D01*
G01D02*
Y1252000D01*
G01D02*
X512000D01*
G01X392000Y1677250D02*
Y1637250D01*
G01X222000Y1687250D02*
Y1644750D01*
G01X367060Y908500D02*
X447000D01*
G01X392000Y943220D02*
Y913280D01*
G01Y1006720D02*
Y976780D01*
G01Y1070220D02*
Y1040280D01*
G01Y1133720D02*
Y1103780D01*
G01Y1197220D02*
Y1167280D01*
G01Y1260720D02*
Y1230780D01*
G01Y1324220D02*
Y1294280D01*
G01Y1387720D02*
Y1357780D01*
G01Y1562250D02*
X383000Y1571250D01*
G01X392000Y1499750D02*
X383000D01*
G01X392000Y1562250D02*
Y1499750D01*
G01D02*
Y1484780D01*
G01Y1451220D02*
Y1421280D01*
G01X447000Y948000D02*
X367060D01*
G01Y972000D02*
X447000D01*
G01Y1011500D02*
X367060D01*
G01Y1035500D02*
X447000D01*
G01Y1075000D02*
X367060D01*
G01Y1099000D02*
X447000D01*
G01Y1138500D02*
X367060D01*
G01Y1162500D02*
X447000D01*
G01Y1202000D02*
X367060D01*
G01Y1226000D02*
X447000D01*
G01Y1265500D02*
X367060D01*
G01Y1289500D02*
X447000D01*
G01Y1329000D02*
X367060D01*
G01Y1353000D02*
X447000D01*
G01Y1392500D02*
X367060D01*
G01Y1416500D02*
X447000D01*
G01Y1456000D02*
X367060D01*
G01Y1480000D02*
X447000D01*
G01X213000Y910000D02*
X222000Y913280D01*
G01X210260Y910000D02*
X213000D01*
G01X210260Y946500D02*
X213000D01*
G01X222000Y943220D02*
X213000Y946500D01*
G01X222000Y943220D02*
Y913280D01*
G01X213000Y973500D02*
X222000Y976780D01*
G01X210260Y973500D02*
X213000D01*
G01X210260Y1010000D02*
X213000D01*
G01X222000Y1006720D02*
X213000Y1010000D01*
G01X222000Y1006720D02*
Y976780D01*
G01X213000Y1037000D02*
X222000Y1040280D01*
G01X210260Y1037000D02*
X213000D01*
G01X210260Y1073500D02*
X213000D01*
G01X222000Y1070220D02*
X213000Y1073500D01*
G01X222000Y1070220D02*
Y1040280D01*
G01X213000Y1100500D02*
X222000Y1103780D01*
G01X210260Y1100500D02*
X213000D01*
G01X210260Y1137000D02*
X213000D01*
G01X222000Y1133720D02*
X213000Y1137000D01*
G01X222000Y1133720D02*
Y1103780D01*
G01X213000Y1164000D02*
X222000Y1167280D01*
G01X210260Y1164000D02*
X213000D01*
G01X210260Y1200500D02*
X213000D01*
G01X222000Y1197220D02*
X213000Y1200500D01*
G01X222000Y1197220D02*
Y1167280D01*
G01X213000Y1227500D02*
X222000Y1230780D01*
G01X210260Y1227500D02*
X213000D01*
G01X210260Y1264000D02*
X213000D01*
G01X222000Y1260720D02*
X213000Y1264000D01*
G01X222000Y1260720D02*
Y1230780D01*
G01X213000Y1291000D02*
X222000Y1294280D01*
G01X210260Y1291000D02*
X213000D01*
G01X210260Y1327500D02*
X213000D01*
G01X222000Y1324220D02*
X213000Y1327500D01*
G01X222000Y1324220D02*
Y1294280D01*
G01X213000Y1354500D02*
X222000Y1357780D01*
G01X210260Y1354500D02*
X213000D01*
G01X210260Y1391000D02*
X213000D01*
G01X222000Y1387720D02*
X213000Y1391000D01*
G01X222000Y1387720D02*
Y1357780D01*
G01Y1554750D02*
X210260Y1543010D01*
G01X213000Y1481500D02*
X222000Y1484780D01*
G01X210260Y1481500D02*
X213000D01*
G01Y1418000D02*
X222000Y1421280D01*
G01X210260Y1418000D02*
X213000D01*
G01X210260Y1454500D02*
X213000D01*
G01X222000Y1451220D02*
X213000Y1454500D01*
G01X222000Y1554750D02*
Y1484780D01*
G01Y1451220D02*
Y1421280D01*
G01X167000Y972000D02*
Y948000D01*
G01Y1035500D02*
Y1011500D01*
G01Y1099000D02*
Y1075000D01*
G01Y1162500D02*
Y1138500D01*
G01X261000Y1162500D02*
X167000D01*
G01Y1226000D02*
Y1202000D01*
G01D02*
X261000D01*
G01X167000Y1289500D02*
Y1265500D01*
G01Y1353000D02*
Y1329000D01*
G01Y1416500D02*
Y1392500D01*
G01Y1480000D02*
Y1456000D01*
G01X261000Y1480000D02*
X167000D01*
G01X261000Y908500D02*
X167000D01*
G01X261000Y972000D02*
X167000D01*
G01Y948000D02*
X261000D01*
G01Y1035500D02*
X167000D01*
G01Y1011500D02*
X261000D01*
G01Y1099000D02*
X167000D01*
G01Y1075000D02*
X261000D01*
G01X167000Y1138500D02*
X261000D01*
G01X321000Y948500D02*
X312000D01*
G01X261000Y1226000D02*
X167000D01*
G01X261000Y1289500D02*
X167000D01*
G01Y1265500D02*
X261000D01*
G01Y1353000D02*
X167000D01*
G01Y1329000D02*
X261000D01*
G01Y1416500D02*
X167000D01*
G01Y1392500D02*
X261000D01*
G01X167000Y1456000D02*
X261000D01*
G01X126030Y1252000D02*
Y1430000D01*
G01D02*
X98030D01*
G01X285260Y1698990D02*
Y1737250D01*
G01X210260Y1698990D02*
X285260D01*
G01X210260Y1656490D02*
Y1698990D01*
G01X147760Y1656490D02*
X210260D01*
G01X147760Y1543010D02*
Y1656490D01*
G01X210260Y1543010D02*
X147760D01*
G01X210260Y1481500D02*
Y1543010D01*
G01Y1481500D02*
X157030D01*
G01D02*
G03X155030Y1479500I0J-2000D01*
G01D02*
Y1456500D01*
G01D02*
G03X157030Y1454500I2000J0D01*
G01D02*
X210260D01*
G01Y1418000D02*
Y1454500D01*
G01Y1418000D02*
X157030D01*
G01D02*
G03X155030Y1416000I0J-2000D01*
G01D02*
Y1393000D01*
G01D02*
G03X157030Y1391000I2000J0D01*
G01D02*
X210260D01*
G01Y1354500D02*
Y1391000D01*
G01Y1354500D02*
X157030D01*
G01D02*
G03X155030Y1352500I0J-2000D01*
G01D02*
Y1329500D01*
G01D02*
G03X157030Y1327500I2000J0D01*
G01D02*
X210260D01*
G01Y1291000D02*
Y1327500D01*
G01Y1291000D02*
X157030D01*
G01D02*
G03X155030Y1289000I0J-2000D01*
G01D02*
Y1266000D01*
G01D02*
G03X157030Y1264000I2000J0D01*
G01D02*
X210260D01*
G01Y1227500D02*
Y1264000D01*
G01Y1227500D02*
X157030D01*
G01D02*
G03X155030Y1225500I0J-2000D01*
G01D02*
Y1202500D01*
G01D02*
G03X157030Y1200500I2000J0D01*
G01D02*
X210260D01*
G01Y1164000D02*
Y1200500D01*
G01Y1164000D02*
X157030D01*
G01D02*
G03X155030Y1162000I0J-2000D01*
G01D02*
Y1139000D01*
G01D02*
G03X157030Y1137000I2000J0D01*
G01D02*
X210260D01*
G01Y1100500D02*
Y1137000D01*
G01Y1100500D02*
X157030D01*
G01D02*
G03X155030Y1098500I0J-2000D01*
G01D02*
Y1075500D01*
G01D02*
G03X157030Y1073500I2000J0D01*
G01D02*
X210260D01*
G01Y1037000D02*
Y1073500D01*
G01Y1037000D02*
X157030D01*
G01D02*
G03X155030Y1035000I0J-2000D01*
G01D02*
Y1012000D01*
G01D02*
G03X157030Y1010000I2000J0D01*
G01D02*
X210260D01*
G01Y973500D02*
Y1010000D01*
G01Y973500D02*
X157030D01*
G01D02*
G03X155030Y971500I0J-2000D01*
G01D02*
Y948500D01*
G01D02*
G03X157030Y946500I2000J0D01*
G01D02*
X210260D01*
G01Y910000D02*
Y946500D01*
G01Y910000D02*
X157030D01*
G01D02*
G03X155030Y908000I0J-2000D01*
G01X98030Y934500D02*
X126030D01*
G01D02*
Y1112500D01*
G01D02*
X98030D01*
G01Y1252000D02*
X126030D01*
G01X321000Y1668250D02*
X312000Y1677250D01*
G01Y1416000D02*
X321000D01*
G01X312000Y1098500D02*
X321000D01*
G01Y1266000D02*
X312000D01*
G01Y1098500D02*
Y948500D01*
G01Y1416000D02*
Y1677250D01*
G01Y1416000D02*
Y1266000D01*
G01Y1098500D02*
Y1266000D01*
G01X330000D02*
Y1416000D01*
G01D02*
X321000D01*
G01Y1668250D02*
Y1416000D01*
G01X383000Y1668250D02*
X321000D01*
G01X383000Y1628250D02*
Y1668250D01*
G01X443000Y1628250D02*
X383000D01*
G01X443000Y1571250D02*
Y1628250D01*
G01X383000Y1571250D02*
X443000D01*
G01X383000Y1499750D02*
Y1571250D01*
G01Y1499750D02*
X367000D01*
G01D02*
Y1479500D01*
G01D02*
Y1456500D01*
G01D02*
Y1416000D01*
G01D02*
Y1393000D01*
G01D02*
Y1352500D01*
G01D02*
Y1329500D01*
G01D02*
Y1289000D01*
G01D02*
Y1266000D01*
G01D02*
Y1225500D01*
G01D02*
Y1202500D01*
G01D02*
Y1162000D01*
G01D02*
Y1139000D01*
G01D02*
Y1098500D01*
G01D02*
Y1075500D01*
G01D02*
Y1035000D01*
G01D02*
Y1012000D01*
G01D02*
Y971500D01*
G01D02*
Y948500D01*
G01D02*
Y908000D01*
G01X321000Y948500D02*
X330000D01*
G01D02*
Y1098500D01*
G01D02*
X321000D01*
G01Y1266000D02*
Y1098500D01*
G01Y1266000D02*
X330000D01*
G01X95420Y2054210D02*
X395420D01*
G01Y2314210D02*
X95420D01*
G01X282920Y2184210D02*
G03I-37500J0D01*
G01X395420Y2069210D02*
X398060D01*
G01D02*
X398990D01*
G01D02*
X410780D01*
G01D02*
X415420D01*
G01X410780Y2119210D02*
Y2069210D01*
G01X415420Y2119210D02*
Y2069210D01*
G01Y2119210D02*
X410780D01*
G01D02*
X398990D01*
G01D02*
X398060D01*
G01D02*
X395420D01*
G01Y2054210D02*
Y2314210D01*
G01Y2299210D02*
X398060D01*
G01D02*
X398990D01*
G01D02*
X410780D01*
G01Y2249210D02*
Y2299210D01*
G01D02*
X415420D01*
G01Y2249210D02*
Y2299210D01*
G01X398060Y2249210D02*
X395420D01*
G01X398990D02*
X398060D01*
G01X410780D02*
X398990D01*
G01X415420D02*
X410780D01*
G01X95420Y2314210D02*
Y2054210D01*
G01Y2069210D02*
X92780D01*
G01D02*
X91850D01*
G01D02*
X80060D01*
G01Y2119210D02*
Y2069210D01*
G01D02*
X75420D01*
G01Y2119210D02*
Y2069210D01*
G01X92780Y2119210D02*
X95420D01*
G01X91850D02*
X92780D01*
G01X80060D02*
X91850D01*
G01X75420D02*
X80060D01*
G01X95420Y2299210D02*
X92780D01*
G01D02*
X91850D01*
G01D02*
X80060D01*
G01D02*
X75420D01*
G01X80060Y2249210D02*
Y2299210D01*
G01X75420Y2249210D02*
Y2299210D01*
G01Y2249210D02*
X80060D01*
G01D02*
X91850D01*
G01D02*
X92780D01*
G01D02*
X95420D01*
G01X470160Y3302850D02*
X451000Y3279760D01*
X466390Y3266990D01*
X475000Y3259850D01*
X505000D01*
G03X494520Y3282640I-28999J470D01*
G01X470160Y3302850D01*
G01X530000Y3266930D02*
Y3259850D01*
X1170000D01*
Y3266930D01*
Y3290380D01*
G03X1150000Y3302850I-19998J-9800D01*
G01X550000D01*
G03X530000Y3290380I-2J-22270D01*
G01Y3266930D01*
G01X300000Y3119850D02*
Y3009850D01*
G03X320000Y2989850I20000J0D01*
G01X464000D01*
X475000D01*
Y3139850D01*
X464000D01*
X320000D01*
G03X300000Y3119850I0J-20000D01*
G01X1170000Y3266930D02*
G03X1150000Y3279400I-19380J-8809D01*
G01X546500Y3279210D01*
G03X530000Y3266930I4J-17231D01*
G01X647500Y3175260D02*
G03X627500Y3196680I-21470J0D01*
G01X647500Y3175260D02*
G03X627500Y3187850I-20326J-10108D01*
G01X597500Y3196680D02*
G03X577500Y3175260I1470J-21420D01*
G01X597500Y3187850D02*
G03X577500Y3175260I326J-22698D01*
G01X400000Y3064850D02*
G03I-25000J0D01*
G01X625000Y3154850D02*
Y3015850D01*
G01Y3154850D02*
G03X624140Y3159850I-14999J-6D01*
G01X890490Y2879850D02*
X809510D01*
G01X577500Y3169190D02*
Y3175260D01*
G01X597500Y3187860D02*
X627500D01*
G01X577500Y3159850D02*
X647500D01*
G01X577500Y3169190D02*
Y3159850D01*
G01X647500Y3169190D02*
Y3159850D01*
G01Y3175260D02*
Y3169190D01*
G01X756000Y2867850D02*
G03X751000Y2872850I-5000J0D01*
G01D02*
X618000D01*
G01D02*
G03X613000Y2867850I0J-5000D01*
G01D02*
Y2837850D01*
G01D02*
G03X618000Y2832850I5000J0D01*
G01D02*
X696000D01*
G01X706000Y2822850D02*
G03X696000Y2832850I-10000J0D01*
G01X706000Y2822850D02*
Y2776160D01*
G01X696710Y2766180D02*
G03X706000Y2776160I-711J9976D01*
G01X696710Y2766180D02*
X617640Y2760520D01*
G01D02*
G03X613000Y2755530I361J-4988D01*
G01Y2731850D02*
Y2755530D01*
G01Y2731850D02*
G03X618000Y2726850I5000J0D01*
G01D02*
X751000D01*
G01D02*
G03X756000Y2731850I0J5000D01*
G01X809000Y2899850D02*
Y2884850D01*
G01D02*
G03X834000Y2859850I25000J0D01*
G01D02*
X866000D01*
G01D02*
G03X891000Y2884850I0J25000D01*
G01D02*
Y2899850D01*
G01X597500Y3196690D02*
X627500D01*
G01X577500Y3161850D02*
X565500D01*
G01D02*
G03Y3135850I0J-13000D01*
G01D02*
X577500D01*
G01D02*
Y3015850D01*
G01D02*
X647500D01*
G01D02*
Y3135850D01*
G01D02*
X659500D01*
G01D02*
G03Y3161850I0J13000D01*
G01D02*
X647500D01*
G01X1082000Y2872850D02*
X949000D01*
G01D02*
G03X944000Y2867850I0J-5000D01*
G01Y2731850D02*
Y2867850D01*
G01Y2731850D02*
G03X949000Y2726850I5000J0D01*
G01D02*
X1082000D01*
G01X756000Y2731850D02*
Y2867850D01*
G01X693000Y2739850D02*
Y2726850D01*
G01X675000Y2739850D02*
Y2726850D01*
G01X944000Y2739850D02*
X1087000D01*
G01X613000D02*
X756000D01*
G01X2398790Y1038580D02*
X2412190Y1088580D01*
X2435390D01*
X2448790Y1038580D01*
Y920300D01*
Y895300D01*
Y837540D01*
X2398790D01*
Y895300D01*
Y920300D01*
Y1038580D01*
G01X2123790Y154010D02*
Y367510D01*
Y988580D01*
X2203180D01*
Y837540D01*
X2392880D01*
X3054700D01*
X3244400D01*
Y988580D01*
X3323790D01*
Y367510D01*
Y154010D01*
X3274610D01*
Y78630D01*
X3235270D01*
Y154010D01*
X3223330D01*
Y78630D01*
X3054700D01*
X2993720D01*
X2978820Y93530D01*
Y201700D01*
X2468760D01*
Y93530D01*
X2453860Y78630D01*
X2392880D01*
X2224250D01*
Y154010D01*
X2212310D01*
Y78630D01*
X2172970D01*
Y154010D01*
X2123790D01*
G01X2224250Y367510D02*
Y154010D01*
G01X2172970D02*
X2212310D01*
G01X2468760Y372210D02*
Y201700D01*
G01X2224250Y367510D02*
X2123790D01*
G01X2392880Y78630D02*
Y837540D01*
G01X2899440Y545060D02*
X2548140D01*
G01X2899440Y494480D02*
X2548140D01*
G01D02*
Y545060D01*
G01Y372230D02*
Y494480D01*
G01X2899440Y372230D02*
X2548140D01*
G01X2468760Y372210D02*
X2978820D01*
G01X2648790Y895300D02*
Y837540D01*
G01X2598790Y895300D02*
Y837540D01*
G01X1081790Y1039160D02*
X1095190Y1089160D01*
X1118390D01*
X1131790Y1039160D01*
Y920880D01*
Y895880D01*
Y838120D01*
X1081790D01*
Y895880D01*
Y920880D01*
Y1039160D01*
G01X1906330Y154590D02*
X1957610D01*
G01X1906330Y368090D02*
Y154590D01*
G01X1151760Y372790D02*
Y202280D01*
G01X1661820Y372790D02*
Y202280D01*
G01X1075880Y79210D02*
Y838120D01*
G01X1582440Y545640D02*
X1231140D01*
G01X1582440Y495060D02*
X1231140D01*
G01D02*
Y545640D01*
G01Y372810D02*
Y495060D01*
G01X1582440Y372810D02*
X1231140D01*
G01X1151760Y372790D02*
X1661820D01*
G01X1906330Y368090D02*
X2006790D01*
G01X1737700Y79210D02*
Y838120D01*
G01X1582440Y372810D02*
Y495060D01*
G01D02*
Y545640D01*
G01X1531790Y895880D02*
Y838120D01*
G01X1481790Y895880D02*
Y838120D01*
G01X1731790Y895880D02*
Y838120D01*
G01X1681790Y895880D02*
Y838120D01*
G01X1331790Y895880D02*
Y838120D01*
G01X1281790Y895880D02*
Y838120D01*
G01X1140000Y2499850D02*
Y2409850D01*
G02X1120000Y2389850I-20000J0D01*
G01X1020000D01*
G02X1000000Y2409850I0J20000D01*
G01Y2499850D01*
Y2509850D01*
X1140000D01*
Y2499850D01*
G01X1400000Y2699850D02*
Y2589850D01*
G02X1380000Y2569850I-20000J0D01*
G01X1236000D01*
X1225000D01*
Y2719850D01*
X1236000D01*
X1380000D01*
G02X1400000Y2699850I0J-20000D01*
G01X1350000Y2644850D02*
G03I-25000J0D01*
G01X1095000Y2464850D02*
G03I-25000J0D01*
G01X1969000Y1641000D02*
Y1666000D01*
G01D02*
X2019000D01*
G01D02*
Y1641000D01*
G01Y1636000D02*
Y1596000D01*
G01X1969000D02*
Y1636000D01*
G01X2019000Y1591000D02*
Y1566000D01*
G01D02*
X1969000D01*
G01D02*
Y1591000D01*
G01Y1636000D02*
Y1641000D01*
G01Y1591000D02*
Y1596000D01*
G01X2019000D02*
Y1591000D01*
G01Y1641000D02*
Y1636000D01*
G01X1969000Y1591000D02*
X2019000D01*
G01Y1641000D02*
X1969000D01*
G01X1933000Y1591000D02*
Y1566000D01*
G01D02*
X1883000D01*
G01D02*
Y1591000D01*
G01Y1596000D02*
Y1636000D01*
G01X1933000D02*
Y1596000D01*
G01X1883000Y1641000D02*
Y1666000D01*
G01D02*
X1933000D01*
G01D02*
Y1641000D01*
G01Y1596000D02*
Y1591000D01*
G01Y1641000D02*
Y1636000D01*
G01X1883000D02*
Y1641000D01*
G01Y1591000D02*
Y1596000D01*
G01X1933000Y1641000D02*
X1883000D01*
G01Y1591000D02*
X1933000D01*
G01X1844000Y1592000D02*
Y1567000D01*
G01D02*
X1794000D01*
G01D02*
Y1592000D01*
G01Y1597000D02*
Y1637000D01*
G01X1844000D02*
Y1597000D01*
G01X1794000Y1642000D02*
Y1667000D01*
G01D02*
X1844000D01*
G01D02*
Y1642000D01*
G01Y1597000D02*
Y1592000D01*
G01Y1642000D02*
Y1637000D01*
G01X1794000D02*
Y1642000D01*
G01Y1592000D02*
Y1597000D01*
G01X1844000Y1642000D02*
X1794000D01*
G01Y1592000D02*
X1844000D01*
G01X1703000Y1642000D02*
Y1667000D01*
G01D02*
X1753000D01*
G01D02*
Y1642000D01*
G01Y1637000D02*
Y1597000D01*
G01X1703000D02*
Y1637000D01*
G01X1753000Y1592000D02*
Y1567000D01*
G01D02*
X1703000D01*
G01D02*
Y1592000D01*
G01Y1637000D02*
Y1642000D01*
G01Y1592000D02*
Y1597000D01*
G01X1753000D02*
Y1592000D01*
G01Y1642000D02*
Y1637000D01*
G01X1703000Y1592000D02*
X1753000D01*
G01Y1642000D02*
X1703000D01*
G01X2056000Y1640000D02*
Y1665000D01*
G01D02*
X2106000D01*
G01D02*
Y1640000D01*
G01Y1635000D02*
Y1595000D01*
G01X2056000D02*
Y1635000D01*
G01X2106000Y1590000D02*
Y1565000D01*
G01D02*
X2056000D01*
G01D02*
Y1590000D01*
G01Y1635000D02*
Y1640000D01*
G01Y1590000D02*
Y1595000D01*
G01X2106000D02*
Y1590000D01*
G01Y1640000D02*
Y1635000D01*
G01X2056000Y1590000D02*
X2106000D01*
G01Y1640000D02*
X2056000D01*
G01X2142000D02*
Y1665000D01*
G01D02*
X2192000D01*
G01D02*
Y1640000D01*
G01Y1635000D02*
Y1595000D01*
G01X2142000D02*
Y1635000D01*
G01X2192000Y1590000D02*
Y1565000D01*
G01D02*
X2142000D01*
G01D02*
Y1590000D01*
G01Y1635000D02*
Y1640000D01*
G01Y1590000D02*
Y1595000D01*
G01X2192000D02*
Y1590000D01*
G01Y1640000D02*
Y1635000D01*
G01X2142000Y1590000D02*
X2192000D01*
G01Y1640000D02*
X2142000D01*
G01X2629000Y1448000D02*
X2604000D01*
G01D02*
Y1498000D01*
G01D02*
X2629000D01*
G01X2634000D02*
X2674000D01*
G01Y1448000D02*
X2634000D01*
G01X2679000Y1498000D02*
X2704000D01*
G01D02*
Y1448000D01*
G01D02*
X2679000D01*
G01X2634000D02*
X2629000D01*
G01X2679000D02*
X2674000D01*
G01Y1498000D02*
X2679000D01*
G01X2629000D02*
X2634000D01*
G01X2679000Y1448000D02*
Y1498000D01*
G01X2629000D02*
Y1448000D01*
G01X2429000Y1537000D02*
X2404000D01*
G01D02*
Y1587000D01*
G01D02*
X2429000D01*
G01X2434000D02*
X2474000D01*
G01Y1537000D02*
X2434000D01*
G01X2479000Y1587000D02*
X2504000D01*
G01D02*
Y1537000D01*
G01D02*
X2479000D01*
G01X2434000D02*
X2429000D01*
G01X2479000D02*
X2474000D01*
G01Y1587000D02*
X2479000D01*
G01X2429000D02*
X2434000D01*
G01X2479000Y1537000D02*
Y1587000D01*
G01X2429000D02*
Y1537000D01*
G01X2383000Y1681000D02*
Y1656000D01*
G01D02*
X2333000D01*
G01D02*
Y1681000D01*
G01Y1686000D02*
Y1726000D01*
G01X2383000D02*
Y1686000D01*
G01X2333000Y1731000D02*
Y1756000D01*
G01D02*
X2383000D01*
G01D02*
Y1731000D01*
G01Y1686000D02*
Y1681000D01*
G01Y1731000D02*
Y1726000D01*
G01X2333000D02*
Y1731000D01*
G01Y1681000D02*
Y1686000D01*
G01X2383000Y1731000D02*
X2333000D01*
G01Y1681000D02*
X2383000D01*
G01X2287000Y1591000D02*
Y1566000D01*
G01D02*
X2237000D01*
G01D02*
Y1591000D01*
G01Y1596000D02*
Y1636000D01*
G01X2287000D02*
Y1596000D01*
G01X2237000Y1641000D02*
Y1666000D01*
G01D02*
X2287000D01*
G01D02*
Y1641000D01*
G01Y1596000D02*
Y1591000D01*
G01Y1641000D02*
Y1636000D01*
G01X2237000D02*
Y1641000D01*
G01Y1591000D02*
Y1596000D01*
G01X2287000Y1641000D02*
X2237000D01*
G01Y1591000D02*
X2287000D01*
G01X1615000Y1642000D02*
Y1667000D01*
G01D02*
X1665000D01*
G01D02*
Y1642000D01*
G01Y1637000D02*
Y1597000D01*
G01X1615000D02*
Y1637000D01*
G01X1665000Y1592000D02*
Y1567000D01*
G01D02*
X1615000D01*
G01D02*
Y1592000D01*
G01Y1637000D02*
Y1642000D01*
G01Y1592000D02*
Y1597000D01*
G01X1665000D02*
Y1592000D01*
G01Y1642000D02*
Y1637000D01*
G01X1615000Y1592000D02*
X1665000D01*
G01Y1642000D02*
X1615000D01*
G01X1437710Y1592790D02*
Y1567790D01*
G01D02*
X1387710D01*
G01D02*
Y1592790D01*
G01Y1597790D02*
Y1637790D01*
G01X1437710D02*
Y1597790D01*
G01X1387710Y1642790D02*
Y1667790D01*
G01D02*
X1437710D01*
G01D02*
Y1642790D01*
G01Y1597790D02*
Y1592790D01*
G01Y1642790D02*
Y1637790D01*
G01X1387710D02*
Y1642790D01*
G01Y1592790D02*
Y1597790D01*
G01X1437710Y1642790D02*
X1387710D01*
G01Y1592790D02*
X1437710D01*
G01X2373000Y1477000D02*
X2443000D01*
G01X2373000Y1457000D02*
Y1477000D01*
G01X2443000D02*
Y1457000D01*
G01X2373000Y1307000D02*
X2443000D01*
G01X2373000Y1327000D02*
Y1307000D01*
G01X2443000D02*
Y1327000D01*
G01X2448000D02*
Y1457000D01*
G01D02*
X2368000D01*
G01X2444000Y1453000D02*
X2448000Y1457000D01*
G01X2368000D02*
Y1327000D01*
G01X2372000Y1453000D02*
X2368000Y1457000D01*
G01X2372000Y1331000D02*
Y1453000D01*
G01D02*
X2444000D01*
G01D02*
Y1353000D01*
G01X2444700Y1330300D02*
X2448000Y1327000D01*
G01X2368000D02*
X2448000D01*
G01X2372000Y1331000D02*
X2368000Y1327000D01*
G01X2422000Y1331000D02*
X2372000D01*
G01X2444700Y1353700D02*
Y1330300D01*
G01D02*
X2421300D01*
G01X2422000Y1331000D02*
X2444000Y1353000D01*
G01D02*
X2444700Y1353700D01*
G01X2421300Y1330300D02*
X2422000Y1331000D01*
G01X3340580Y2387000D02*
X3331660Y2402290D01*
X3311340D01*
X3302420Y2387000D01*
X3213580D01*
X3204660Y2402290D01*
X3184340D01*
X3175420Y2387000D01*
X3086580D01*
X3077660Y2402290D01*
X3057340D01*
X3048420Y2387000D01*
X2959580D01*
X2950660Y2402290D01*
X2930340D01*
X2921420Y2387000D01*
X2832580D01*
X2823660Y2402290D01*
X2803340D01*
X2794420Y2387000D01*
X2705580D01*
X2696660Y2402290D01*
X2676340D01*
X2667420Y2387000D01*
X2578580D01*
X2569660Y2402290D01*
X2549340D01*
X2540420Y2387000D01*
X2451580D01*
X2442660Y2402290D01*
X2422340D01*
X2413420Y2387000D01*
X2324580D01*
X2315660Y2402290D01*
X2295340D01*
X2286420Y2387000D01*
X2178500D01*
Y2730000D01*
X2286420D01*
X2295340Y2714710D01*
X2315660D01*
X2324580Y2730000D01*
X2413420D01*
X2422340Y2714710D01*
X2442660D01*
X2451580Y2730000D01*
X2540420D01*
X2549340Y2714710D01*
X2569660D01*
X2578580Y2730000D01*
X2667420D01*
X2676340Y2714710D01*
X2696660D01*
X2705580Y2730000D01*
X2794420D01*
X2803340Y2714710D01*
X2823660D01*
X2832580Y2730000D01*
X2921420D01*
X2930340Y2714710D01*
X2950660D01*
X2959580Y2730000D01*
X3048420D01*
X3057340Y2714710D01*
X3077660D01*
X3086580Y2730000D01*
X3175420D01*
X3184340Y2714710D01*
X3204660D01*
X3213580Y2730000D01*
X3302420D01*
X3311340Y2714710D01*
X3331660D01*
X3340580Y2730000D01*
X3448500D01*
Y2387000D01*
X3340580D01*
G01X2221680Y2515320D02*
X2262320Y2474680D01*
G01X2221680D02*
X2262320Y2515320D01*
G01X2249120Y2502120D02*
X2262320Y2515320D01*
G01Y2474680D02*
X2249120Y2487880D01*
G01X2221680Y2474680D02*
X2234880Y2487880D01*
G01Y2502120D02*
X2221680Y2515320D01*
G01Y2601680D02*
X2234880Y2614880D01*
G01X2249120D02*
X2262320Y2601680D01*
G01X2249120Y2629120D02*
X2262320Y2642320D01*
G01X2221680D02*
X2234880Y2629120D01*
G01X2376120Y2502120D02*
X2389320Y2515320D01*
G01Y2474680D02*
X2376120Y2487880D01*
G01X2348680Y2474680D02*
X2361880Y2487880D01*
G01Y2502120D02*
X2348680Y2515320D01*
G01Y2601680D02*
X2361880Y2614880D01*
G01X2376120D02*
X2389320Y2601680D01*
G01X2376120Y2629120D02*
X2389320Y2642320D01*
G01X2348680D02*
X2361880Y2629120D01*
G01X2503120Y2502120D02*
X2516320Y2515320D01*
G01Y2474680D02*
X2503120Y2487880D01*
G01X2475680Y2474680D02*
X2488880Y2487880D01*
G01Y2502120D02*
X2475680Y2515320D01*
G01Y2601680D02*
X2488880Y2614880D01*
G01X2503120D02*
X2516320Y2601680D01*
G01X2503120Y2629120D02*
X2516320Y2642320D01*
G01X2475680D02*
X2488880Y2629120D01*
G01X2630120Y2502120D02*
X2643320Y2515320D01*
G01Y2474680D02*
X2630120Y2487880D01*
G01X2602680Y2474680D02*
X2615880Y2487880D01*
G01Y2502120D02*
X2602680Y2515320D01*
G01Y2601680D02*
X2615880Y2614880D01*
G01X2630120D02*
X2643320Y2601680D01*
G01X2630120Y2629120D02*
X2643320Y2642320D01*
G01X2602680D02*
X2615880Y2629120D01*
G01X2757120Y2502120D02*
X2770320Y2515320D01*
G01Y2474680D02*
X2757120Y2487880D01*
G01X2729680Y2474680D02*
X2742880Y2487880D01*
G01Y2502120D02*
X2729680Y2515320D01*
G01Y2601680D02*
X2742880Y2614880D01*
G01X2757120D02*
X2770320Y2601680D01*
G01X2757120Y2629120D02*
X2770320Y2642320D01*
G01X2729680D02*
X2742880Y2629120D01*
G01X2249120Y2502120D02*
Y2487880D01*
G01D02*
X2234880D01*
G01D02*
Y2502120D01*
G01D02*
X2249120D01*
G01X2221680Y2515320D02*
Y2474680D01*
G01X2262320D02*
Y2515320D01*
G01D02*
X2221680D01*
G01Y2474680D02*
X2262320D01*
G01X2249120Y2614880D02*
X2234880D01*
G01D02*
Y2629120D01*
G01D02*
X2249120D01*
G01D02*
Y2614880D01*
G01X2221680Y2642320D02*
Y2601680D01*
G01X2262320D02*
Y2642320D01*
G01D02*
X2221680D01*
G01Y2601680D02*
X2262320D01*
G01X2376120Y2502120D02*
Y2487880D01*
G01D02*
X2361880D01*
G01D02*
Y2502120D01*
G01D02*
X2376120D01*
G01X2348680Y2515320D02*
Y2474680D01*
G01X2389320D02*
Y2515320D01*
G01D02*
X2348680D01*
G01Y2474680D02*
X2389320D01*
G01X2376120Y2614880D02*
X2361880D01*
G01D02*
Y2629120D01*
G01D02*
X2376120D01*
G01D02*
Y2614880D01*
G01X2348680Y2642320D02*
Y2601680D01*
G01X2389320D02*
Y2642320D01*
G01D02*
X2348680D01*
G01Y2601680D02*
X2389320D01*
G01X2503120Y2502120D02*
Y2487880D01*
G01D02*
X2488880D01*
G01D02*
Y2502120D01*
G01D02*
X2503120D01*
G01X2475680Y2515320D02*
Y2474680D01*
G01X2516320D02*
Y2515320D01*
G01D02*
X2475680D01*
G01Y2474680D02*
X2516320D01*
G01X2503120Y2614880D02*
X2488880D01*
G01D02*
Y2629120D01*
G01D02*
X2503120D01*
G01D02*
Y2614880D01*
G01X2475680Y2642320D02*
Y2601680D01*
G01X2516320D02*
Y2642320D01*
G01D02*
X2475680D01*
G01Y2601680D02*
X2516320D01*
G01X2630120Y2502120D02*
Y2487880D01*
G01D02*
X2615880D01*
G01D02*
Y2502120D01*
G01D02*
X2630120D01*
G01X2602680Y2515320D02*
Y2474680D01*
G01X2643320D02*
Y2515320D01*
G01D02*
X2602680D01*
G01Y2474680D02*
X2643320D01*
G01X2630120Y2614880D02*
X2615880D01*
G01D02*
Y2629120D01*
G01D02*
X2630120D01*
G01D02*
Y2614880D01*
G01X2602680Y2642320D02*
Y2601680D01*
G01X2643320D02*
Y2642320D01*
G01D02*
X2602680D01*
G01Y2601680D02*
X2643320D01*
G01X2757120Y2502120D02*
Y2487880D01*
G01D02*
X2742880D01*
G01D02*
Y2502120D01*
G01D02*
X2757120D01*
G01X2729680Y2515320D02*
Y2474680D01*
G01X2770320D02*
Y2515320D01*
G01D02*
X2729680D01*
G01Y2474680D02*
X2770320D01*
G01X2757120Y2614880D02*
X2742880D01*
G01D02*
Y2629120D01*
G01D02*
X2757120D01*
G01D02*
Y2614880D01*
G01X2729680Y2642320D02*
Y2601680D01*
G01X2770320D02*
Y2642320D01*
G01D02*
X2729680D01*
G01Y2601680D02*
X2770320D01*
G01X2275020Y2495000D02*
G03I-33020J0D01*
G01X2262320Y2484530D02*
G03Y2505470I-20320J10470D01*
G01X2252470Y2515320D02*
G03X2231530I-10470J-20320D01*
G01X2221680Y2505470D02*
G03Y2484530I20320J-10470D01*
G01X2231530Y2474680D02*
G03X2252470I10470J20320D01*
G01X2275020Y2622000D02*
G03I-33020J0D01*
G01X2221680Y2632470D02*
G03Y2611530I20320J-10470D01*
G01X2231530Y2601680D02*
G03X2252470I10470J20320D01*
G01X2262320Y2611530D02*
G03Y2632470I-20320J10470D01*
G01X2252470Y2642320D02*
G03X2231530I-10470J-20320D01*
G01X2402020Y2495000D02*
G03I-33020J0D01*
G01X2389320Y2484530D02*
G03Y2505470I-20320J10470D01*
G01X2379470Y2515320D02*
G03X2358530I-10470J-20320D01*
G01X2348680Y2505470D02*
G03Y2484530I20320J-10470D01*
G01X2358530Y2474680D02*
G03X2379470I10470J20320D01*
G01X2402020Y2622000D02*
G03I-33020J0D01*
G01X2348680Y2632470D02*
G03Y2611530I20320J-10470D01*
G01X2358530Y2601680D02*
G03X2379470I10470J20320D01*
G01X2389320Y2611530D02*
G03Y2632470I-20320J10470D01*
G01X2379470Y2642320D02*
G03X2358530I-10470J-20320D01*
G01X2529020Y2495000D02*
G03I-33020J0D01*
G01X2516320Y2484530D02*
G03Y2505470I-20320J10470D01*
G01X2506470Y2515320D02*
G03X2485530I-10470J-20320D01*
G01X2475680Y2505470D02*
G03Y2484530I20320J-10470D01*
G01X2485530Y2474680D02*
G03X2506470I10470J20320D01*
G01X2529020Y2622000D02*
G03I-33020J0D01*
G01X2475680Y2632470D02*
G03Y2611530I20320J-10470D01*
G01X2485530Y2601680D02*
G03X2506470I10470J20320D01*
G01X2516320Y2611530D02*
G03Y2632470I-20320J10470D01*
G01X2506470Y2642320D02*
G03X2485530I-10470J-20320D01*
G01X2656020Y2495000D02*
G03I-33020J0D01*
G01X2643320Y2484530D02*
G03Y2505470I-20320J10470D01*
G01X2633470Y2515320D02*
G03X2612530I-10470J-20320D01*
G01X2602680Y2505470D02*
G03Y2484530I20320J-10470D01*
G01X2612530Y2474680D02*
G03X2633470I10470J20320D01*
G01X2656020Y2622000D02*
G03I-33020J0D01*
G01X2602680Y2632470D02*
G03Y2611530I20320J-10470D01*
G01X2612530Y2601680D02*
G03X2633470I10470J20320D01*
G01X2643320Y2611530D02*
G03Y2632470I-20320J10470D01*
G01X2633470Y2642320D02*
G03X2612530I-10470J-20320D01*
G01X2783020Y2495000D02*
G03I-33020J0D01*
G01X2770320Y2484530D02*
G03Y2505470I-20320J10470D01*
G01X2760470Y2515320D02*
G03X2739530I-10470J-20320D01*
G01X2729680Y2505470D02*
G03Y2484530I20320J-10470D01*
G01X2739530Y2474680D02*
G03X2760470I10470J20320D01*
G01X2783020Y2622000D02*
G03I-33020J0D01*
G01X2729680Y2632470D02*
G03Y2611530I20320J-10470D01*
G01X2739530Y2601680D02*
G03X2760470I10470J20320D01*
G01X2770320Y2611530D02*
G03Y2632470I-20320J10470D01*
G01X2760470Y2642320D02*
G03X2739530I-10470J-20320D01*
G01X2117000Y1103000D02*
G03I-25000J0D01*
G01X1999500Y1068000D02*
X2124500D01*
G01X2003750Y1072250D02*
X1999500Y1068000D01*
G01X2120250Y1072250D02*
X2003750D01*
G01X2124500Y1068000D02*
X2120250Y1072250D01*
G01X2003750Y1263750D02*
X2120250D01*
G01X1999500Y1268000D02*
X2003750Y1263750D01*
G01X2124500Y1268000D02*
X1999500D01*
G01X2120250Y1263750D02*
X2124500Y1268000D01*
G01X1999500Y1115500D02*
Y1090500D01*
G01X2003750Y1072250D02*
Y1263750D01*
G01X1999500Y1268000D02*
Y1245500D01*
G01Y1220500D02*
Y1115500D01*
G01Y1090500D02*
Y1068000D01*
G01Y1245500D02*
Y1220500D01*
G01Y1115500D02*
X1972000D01*
G01X1962000D02*
X1942000D01*
G01Y1090500D02*
Y1115500D01*
G01X1962000Y1245500D02*
X1942000D01*
G01Y1220500D02*
Y1245500D01*
G01X1962000Y1220500D02*
X1942000D01*
G01X1999500Y1245500D02*
X1972000D01*
G01X1999500Y1220500D02*
X1972000D01*
G01X1962000Y1090500D02*
X1942000D01*
G01X1999500D02*
X1972000D01*
G01X2182000Y1155500D02*
Y1180500D01*
G01Y1090500D02*
Y1115500D01*
G01Y1220500D02*
Y1245500D01*
G01X2162000Y1220500D02*
X2182000D01*
G01X2162000Y1155500D02*
X2182000D01*
G01X2162000Y1090500D02*
X2182000D01*
G01X2162000Y1115500D02*
X2182000D01*
G01X2162000Y1180500D02*
X2182000D01*
G01X2162000Y1245500D02*
X2182000D01*
G01X2124500D02*
Y1268000D01*
G01Y1180500D02*
Y1220500D01*
G01Y1115500D02*
Y1155500D01*
G01Y1068000D02*
Y1090500D01*
G01X2120250Y1263750D02*
Y1072250D01*
G01X2124500Y1090500D02*
Y1115500D01*
G01Y1155500D02*
Y1180500D01*
G01Y1220500D02*
Y1245500D01*
G01Y1090500D02*
X2152000D01*
G01X2124500Y1115500D02*
X2152000D01*
G01X2124500Y1155500D02*
X2152000D01*
G01X2124500Y1180500D02*
X2152000D01*
G01X2124500Y1220500D02*
X2152000D01*
G01X2124500Y1245500D02*
X2152000D01*
G01X1962000Y1115500D02*
Y1090500D01*
G01Y1115500D02*
X1972000D01*
G01Y1220500D02*
X1962000D01*
G01Y1245500D02*
Y1220500D01*
G01Y1245500D02*
X1972000D01*
G01Y1090500D02*
X1962000D01*
G01X2162000D02*
Y1115500D01*
G01Y1090500D02*
X2152000D01*
G01Y1115500D02*
X2162000D01*
G01Y1155500D02*
Y1180500D01*
G01Y1155500D02*
X2152000D01*
G01Y1180500D02*
X2162000D01*
G01Y1220500D02*
Y1245500D01*
G01Y1220500D02*
X2152000D01*
G01Y1245500D02*
X2162000D01*
G01X2474000Y1476000D02*
X2544000D01*
G01X2474000Y1456000D02*
Y1476000D01*
G01X2544000D02*
Y1456000D01*
G01X2474000Y1306000D02*
X2544000D01*
G01X2474000Y1326000D02*
Y1306000D01*
G01X2544000D02*
Y1326000D01*
G01X2549000D02*
Y1456000D01*
G01D02*
X2469000D01*
G01X2545000Y1452000D02*
X2549000Y1456000D01*
G01X2469000D02*
Y1326000D01*
G01X2473000Y1452000D02*
X2469000Y1456000D01*
G01X2473000Y1330000D02*
Y1452000D01*
G01D02*
X2545000D01*
G01D02*
Y1352000D01*
G01X2545700Y1329300D02*
X2549000Y1326000D01*
G01X2469000D02*
X2549000D01*
G01X2473000Y1330000D02*
X2469000Y1326000D01*
G01X2523000Y1330000D02*
X2473000D01*
G01X2545700Y1352700D02*
Y1329300D01*
G01D02*
X2522300D01*
G01X2523000Y1330000D02*
X2545000Y1352000D01*
G01D02*
X2545700Y1352700D01*
G01X2522300Y1329300D02*
X2523000Y1330000D01*
G01X2648790Y895300D02*
X2598790D01*
G01X2648790Y1038580D02*
X2598790D01*
G01X2612190Y1088580D02*
X2598790Y1038580D01*
G01X2648790Y895300D02*
Y920300D01*
G01D02*
Y1038580D01*
G01D02*
X2635390Y1088580D01*
G01X2612190D02*
X2635390D01*
G01X2598790Y920300D02*
Y1038580D01*
G01Y895300D02*
Y920300D01*
G01X2448790Y895300D02*
X2398790D01*
G01X2448790Y1038580D02*
X2398790D01*
G01X1531790Y895880D02*
X1481790D01*
G01X1531790D02*
Y920880D01*
G01D02*
Y1039160D01*
G01X1481790Y920880D02*
Y1039160D01*
G01Y895880D02*
Y920880D01*
G01X1531790Y1039160D02*
X1481790D01*
G01X1495190Y1089160D02*
X1481790Y1039160D01*
G01X1531790D02*
X1518390Y1089160D01*
G01X1495190D02*
X1518390D01*
G01X1731790Y895880D02*
X1681790D01*
G01X1731790Y1039160D02*
X1681790D01*
G01X1695190Y1089160D02*
X1681790Y1039160D01*
G01X1731790Y895880D02*
Y920880D01*
G01D02*
Y1039160D01*
G01D02*
X1718390Y1089160D01*
G01X1695190D02*
X1718390D01*
G01X1681790Y920880D02*
Y1039160D01*
G01Y895880D02*
Y920880D01*
G01X1331790Y895880D02*
X1281790D01*
G01X1331790Y1039160D02*
X1281790D01*
G01X1295190Y1089160D02*
X1281790Y1039160D01*
G01X1331790Y895880D02*
Y920880D01*
G01D02*
Y1039160D01*
G01D02*
X1318390Y1089160D01*
G01X1295190D02*
X1318390D01*
G01X1281790Y920880D02*
Y1039160D01*
G01Y895880D02*
Y920880D01*
G01X1131790Y895880D02*
X1081790D01*
G01X1131790Y1039160D02*
X1081790D01*
G01X1249000Y3279760D02*
X1233610Y3266990D01*
X1225000Y3259850D01*
X1195000D01*
Y3260320D01*
G02X1205480Y3282640I29001J3D01*
G01X1214450Y3290080D01*
X1229840Y3302850D01*
X1249000Y3279760D01*
G01X1400000Y3119850D02*
Y3009850D01*
G02X1380000Y2989850I-20000J0D01*
G01X1236000D01*
X1225000D01*
Y3139850D01*
X1236000D01*
X1380000D01*
G02X1400000Y3119850I0J-20000D01*
G01X1122500Y3175260D02*
G03X1102500Y3196680I-21470J0D01*
G01X1122500Y3175260D02*
G03X1102500Y3187850I-20326J-10108D01*
G01X1072500Y3196680D02*
G03X1052500Y3175260I1470J-21420D01*
G01X1072500Y3187850D02*
G03X1052500Y3175260I326J-22698D01*
G01X1350000Y3064850D02*
G03I-25000J0D01*
G01X1075860Y3159850D02*
G03X1075000Y3154850I14139J-5006D01*
G01Y3015850D02*
Y3154850D01*
G01X1025000Y2739850D02*
Y2726850D01*
G01X1007000Y2739850D02*
Y2726850D01*
G01X1122500Y3175260D02*
Y3169190D01*
G01D02*
Y3159850D01*
G01D02*
X1052500D01*
G01Y3169190D02*
Y3159850D01*
G01Y3169190D02*
Y3175260D01*
G01X1102500Y3187860D02*
X1072500D01*
G01X1052500Y3161850D02*
X1040500D01*
G01D02*
G03Y3135850I0J-13000D01*
G01D02*
X1052500D01*
G01D02*
Y3015850D01*
G01D02*
X1122500D01*
G01D02*
Y3135850D01*
G01D02*
X1134500D01*
G01D02*
G03Y3161850I0J13000D01*
G01D02*
X1122500D01*
G01X1102500Y3196690D02*
X1072500D01*
G01X1087000Y2755530D02*
G03X1082360Y2760520I-5001J2D01*
G01D02*
X1003290Y2766180D01*
G01X994000Y2776160D02*
G03X1003290Y2766180I10001J-4D01*
G01X994000Y2776160D02*
Y2822850D01*
G01X1004000Y2832850D02*
G03X994000Y2822850I0J-10000D01*
G01X1004000Y2832850D02*
X1082000D01*
G01D02*
G03X1087000Y2837850I0J5000D01*
G01D02*
Y2867850D01*
G01D02*
G03X1082000Y2872850I-5000J0D01*
G01Y2726850D02*
G03X1087000Y2731850I0J5000D01*
G01D02*
Y2755530D01*
G01X3928500Y555500D02*
Y595500D01*
Y645500D01*
Y675500D01*
X3918500D01*
X3763500D01*
Y625500D01*
Y400500D01*
Y350500D01*
X3918500D01*
X3928500D01*
Y380500D01*
Y430500D01*
Y470500D01*
Y555500D01*
G01Y513000D02*
X3846000D01*
G01X3928500Y645500D02*
X3918500D01*
G01Y555500D02*
Y625500D01*
G01Y675500D02*
Y625500D01*
G01X3928500Y555500D02*
X3918500D01*
G01Y380500D02*
X3928500D01*
G01X3918500Y400500D02*
Y350500D01*
G01Y470500D02*
X3928500D01*
G01X3918500Y400500D02*
Y470500D01*
G01X3223330Y154010D02*
X3274610D01*
G01X3223330Y367510D02*
Y154010D01*
G01X2978820Y372210D02*
Y201700D01*
G01X3223330Y367510D02*
X3323790D01*
G01X3054700Y78630D02*
Y837540D01*
G01X2899440Y372230D02*
Y494480D01*
G01D02*
Y545060D01*
G01X2848790Y895300D02*
Y837540D01*
G01X2798790Y895300D02*
Y837540D01*
G01X3048790Y895300D02*
Y837540D01*
G01X2998790Y895300D02*
Y837540D01*
G01X2884120Y2502120D02*
X2897320Y2515320D01*
G01Y2474680D02*
X2884120Y2487880D01*
G01X2856680Y2474680D02*
X2869880Y2487880D01*
G01Y2502120D02*
X2856680Y2515320D01*
G01Y2601680D02*
X2869880Y2614880D01*
G01X2884120D02*
X2897320Y2601680D01*
G01X2884120Y2629120D02*
X2897320Y2642320D01*
G01X2856680D02*
X2869880Y2629120D01*
G01X3011120Y2502120D02*
X3024320Y2515320D01*
G01Y2474680D02*
X3011120Y2487880D01*
G01X2983680Y2474680D02*
X2996880Y2487880D01*
G01Y2502120D02*
X2983680Y2515320D01*
G01Y2601680D02*
X2996880Y2614880D01*
G01X3011120D02*
X3024320Y2601680D01*
G01X3011120Y2629120D02*
X3024320Y2642320D01*
G01X2983680D02*
X2996880Y2629120D01*
G01X3138120Y2502120D02*
X3151320Y2515320D01*
G01Y2474680D02*
X3138120Y2487880D01*
G01X3110680Y2474680D02*
X3123880Y2487880D01*
G01Y2502120D02*
X3110680Y2515320D01*
G01Y2601680D02*
X3123880Y2614880D01*
G01X3138120D02*
X3151320Y2601680D01*
G01X3138120Y2629120D02*
X3151320Y2642320D01*
G01X3110680D02*
X3123880Y2629120D01*
G01X3265120Y2502120D02*
X3278320Y2515320D01*
G01Y2474680D02*
X3265120Y2487880D01*
G01X3237680Y2474680D02*
X3250880Y2487880D01*
G01Y2502120D02*
X3237680Y2515320D01*
G01Y2601680D02*
X3250880Y2614880D01*
G01X3265120D02*
X3278320Y2601680D01*
G01X3265120Y2629120D02*
X3278320Y2642320D01*
G01X3237680D02*
X3250880Y2629120D01*
G01X2884120Y2502120D02*
Y2487880D01*
G01D02*
X2869880D01*
G01D02*
Y2502120D01*
G01D02*
X2884120D01*
G01X2856680Y2515320D02*
Y2474680D01*
G01X2897320D02*
Y2515320D01*
G01D02*
X2856680D01*
G01Y2474680D02*
X2897320D01*
G01X2884120Y2614880D02*
X2869880D01*
G01D02*
Y2629120D01*
G01D02*
X2884120D01*
G01D02*
Y2614880D01*
G01X2856680Y2642320D02*
Y2601680D01*
G01X2897320D02*
Y2642320D01*
G01D02*
X2856680D01*
G01Y2601680D02*
X2897320D01*
G01X3011120Y2502120D02*
Y2487880D01*
G01D02*
X2996880D01*
G01D02*
Y2502120D01*
G01D02*
X3011120D01*
G01X2983680Y2515320D02*
Y2474680D01*
G01X3024320D02*
Y2515320D01*
G01D02*
X2983680D01*
G01Y2474680D02*
X3024320D01*
G01X3011120Y2614880D02*
X2996880D01*
G01D02*
Y2629120D01*
G01D02*
X3011120D01*
G01D02*
Y2614880D01*
G01X2983680Y2642320D02*
Y2601680D01*
G01X3024320D02*
Y2642320D01*
G01D02*
X2983680D01*
G01Y2601680D02*
X3024320D01*
G01X3138120Y2502120D02*
Y2487880D01*
G01D02*
X3123880D01*
G01D02*
Y2502120D01*
G01D02*
X3138120D01*
G01X3110680Y2515320D02*
Y2474680D01*
G01X3151320D02*
Y2515320D01*
G01D02*
X3110680D01*
G01Y2474680D02*
X3151320D01*
G01X3138120Y2614880D02*
X3123880D01*
G01D02*
Y2629120D01*
G01D02*
X3138120D01*
G01D02*
Y2614880D01*
G01X3110680Y2642320D02*
Y2601680D01*
G01X3151320D02*
Y2642320D01*
G01D02*
X3110680D01*
G01Y2601680D02*
X3151320D01*
G01X3265120Y2502120D02*
Y2487880D01*
G01D02*
X3250880D01*
G01D02*
Y2502120D01*
G01D02*
X3265120D01*
G01X3237680Y2515320D02*
Y2474680D01*
G01X3278320D02*
Y2515320D01*
G01D02*
X3237680D01*
G01Y2474680D02*
X3278320D01*
G01X3265120Y2614880D02*
X3250880D01*
G01D02*
Y2629120D01*
G01D02*
X3265120D01*
G01D02*
Y2614880D01*
G01X3237680Y2642320D02*
Y2601680D01*
G01X3278320D02*
Y2642320D01*
G01D02*
X3237680D01*
G01Y2601680D02*
X3278320D01*
G01X3392120Y2502120D02*
X3405320Y2515320D01*
G01Y2474680D02*
X3392120Y2487880D01*
G01X3364680Y2474680D02*
X3377880Y2487880D01*
G01Y2502120D02*
X3364680Y2515320D01*
G01Y2601680D02*
X3377880Y2614880D01*
G01X3392120D02*
X3405320Y2601680D01*
G01X3392120Y2629120D02*
X3405320Y2642320D01*
G01X3364680D02*
X3377880Y2629120D01*
G01X3392120Y2502120D02*
Y2487880D01*
G01D02*
X3377880D01*
G01D02*
Y2502120D01*
G01D02*
X3392120D01*
G01X3364680Y2515320D02*
Y2474680D01*
G01X3405320D02*
Y2515320D01*
G01D02*
X3364680D01*
G01Y2474680D02*
X3405320D01*
G01X3392120Y2614880D02*
X3377880D01*
G01D02*
Y2629120D01*
G01D02*
X3392120D01*
G01D02*
Y2614880D01*
G01X3364680Y2642320D02*
Y2601680D01*
G01X3405320D02*
Y2642320D01*
G01D02*
X3364680D01*
G01Y2601680D02*
X3405320D01*
G01X2910020Y2495000D02*
G03I-33020J0D01*
G01X2897320Y2484530D02*
G03Y2505470I-20320J10470D01*
G01X2887470Y2515320D02*
G03X2866530I-10470J-20320D01*
G01X2856680Y2505470D02*
G03Y2484530I20320J-10470D01*
G01X2866530Y2474680D02*
G03X2887470I10470J20320D01*
G01X2910020Y2622000D02*
G03I-33020J0D01*
G01X2856680Y2632470D02*
G03Y2611530I20320J-10470D01*
G01X2866530Y2601680D02*
G03X2887470I10470J20320D01*
G01X2897320Y2611530D02*
G03Y2632470I-20320J10470D01*
G01X2887470Y2642320D02*
G03X2866530I-10470J-20320D01*
G01X3037020Y2495000D02*
G03I-33020J0D01*
G01X3024320Y2484530D02*
G03Y2505470I-20320J10470D01*
G01X3014470Y2515320D02*
G03X2993530I-10470J-20320D01*
G01X2983680Y2505470D02*
G03Y2484530I20320J-10470D01*
G01X2993530Y2474680D02*
G03X3014470I10470J20320D01*
G01X3037020Y2622000D02*
G03I-33020J0D01*
G01X2983680Y2632470D02*
G03Y2611530I20320J-10470D01*
G01X2993530Y2601680D02*
G03X3014470I10470J20320D01*
G01X3024320Y2611530D02*
G03Y2632470I-20320J10470D01*
G01X3014470Y2642320D02*
G03X2993530I-10470J-20320D01*
G01X3164020Y2495000D02*
G03I-33020J0D01*
G01X3151320Y2484530D02*
G03Y2505470I-20320J10470D01*
G01X3141470Y2515320D02*
G03X3120530I-10470J-20320D01*
G01X3110680Y2505470D02*
G03Y2484530I20320J-10470D01*
G01X3120530Y2474680D02*
G03X3141470I10470J20320D01*
G01X3164020Y2622000D02*
G03I-33020J0D01*
G01X3110680Y2632470D02*
G03Y2611530I20320J-10470D01*
G01X3120530Y2601680D02*
G03X3141470I10470J20320D01*
G01X3151320Y2611530D02*
G03Y2632470I-20320J10470D01*
G01X3141470Y2642320D02*
G03X3120530I-10470J-20320D01*
G01X3291020Y2495000D02*
G03I-33020J0D01*
G01X3278320Y2484530D02*
G03Y2505470I-20320J10470D01*
G01X3268470Y2515320D02*
G03X3247530I-10470J-20320D01*
G01X3237680Y2505470D02*
G03Y2484530I20320J-10470D01*
G01X3247530Y2474680D02*
G03X3268470I10470J20320D01*
G01X3291020Y2622000D02*
G03I-33020J0D01*
G01X3237680Y2632470D02*
G03Y2611530I20320J-10470D01*
G01X3247530Y2601680D02*
G03X3268470I10470J20320D01*
G01X3278320Y2611530D02*
G03Y2632470I-20320J10470D01*
G01X3268470Y2642320D02*
G03X3247530I-10470J-20320D01*
G01X3418020Y2495000D02*
G03I-33020J0D01*
G01X3405320Y2484530D02*
G03Y2505470I-20320J10470D01*
G01X3395470Y2515320D02*
G03X3374530I-10470J-20320D01*
G01X3364680Y2505470D02*
G03Y2484530I20320J-10470D01*
G01X3374530Y2474680D02*
G03X3395470I10470J20320D01*
G01X3418020Y2622000D02*
G03I-33020J0D01*
G01X3364680Y2632470D02*
G03Y2611530I20320J-10470D01*
G01X3374530Y2601680D02*
G03X3395470I10470J20320D01*
G01X3405320Y2611530D02*
G03Y2632470I-20320J10470D01*
G01X3395470Y2642320D02*
G03X3374530I-10470J-20320D01*
G01X2848790Y895300D02*
X2798790D01*
G01X2848790D02*
Y920300D01*
G01D02*
Y1038580D01*
G01X2798790Y920300D02*
Y1038580D01*
G01Y895300D02*
Y920300D01*
G01X2848790Y1038580D02*
X2798790D01*
G01X2812190Y1088580D02*
X2798790Y1038580D01*
G01X2848790D02*
X2835390Y1088580D01*
G01X2812190D02*
X2835390D01*
G01X3048790Y895300D02*
X2998790D01*
G01X3048790Y1038580D02*
X2998790D01*
G01X3012190Y1088580D02*
X2998790Y1038580D01*
G01X3048790Y895300D02*
Y920300D01*
G01D02*
Y1038580D01*
G01D02*
X3035390Y1088580D01*
G01X3012190D02*
X3035390D01*
G01X2998790Y920300D02*
Y1038580D01*
G01Y895300D02*
Y920300D01*
G01X2961130Y1457790D02*
X2911130Y1471190D01*
Y1494390D01*
X2961130Y1507790D01*
X3079410D01*
X3104410D01*
X3162170D01*
Y1457790D01*
X3104410D01*
X3079410D01*
X2961130D01*
G01X3845700Y1182790D02*
X3632200D01*
X3011130D01*
Y1262180D01*
X3162170D01*
Y1451880D01*
Y2113700D01*
Y2303400D01*
X3011130D01*
Y2382790D01*
X3632200D01*
X3845700D01*
Y2333610D01*
X3921080D01*
Y2294270D01*
X3845700D01*
Y2282330D01*
X3921080D01*
Y2113700D01*
Y2052720D01*
X3906180Y2037820D01*
X3798010D01*
Y1527760D01*
X3906180D01*
X3921080Y1512860D01*
Y1451880D01*
Y1283250D01*
X3845700D01*
Y1271310D01*
X3921080D01*
Y1231970D01*
X3845700D01*
Y1182790D01*
G01Y2282330D02*
Y2333610D01*
G01X3632200Y2282330D02*
X3845700D01*
G01X3632200Y1283250D02*
X3845700D01*
G01Y1231970D02*
Y1271310D01*
G01X3627500Y1527760D02*
X3798010D01*
G01X3627500Y2037820D02*
X3798010D01*
G01X3632200Y1283250D02*
Y1182790D01*
G01X3921080Y1451880D02*
X3162170D01*
G01X3454650Y1958440D02*
Y1607140D01*
G01X3505230Y1958440D02*
Y1607140D01*
G01D02*
X3454650D01*
G01X3627480D02*
X3505230D01*
G01X3627480Y1958440D02*
Y1607140D01*
G01X3627500Y1527760D02*
Y2037820D01*
G01X3632200Y2282330D02*
Y2382790D01*
G01X3921080Y2113700D02*
X3162170D01*
G01X3627480Y1958440D02*
X3505230D01*
G01D02*
X3454650D01*
G01X3104410Y1907790D02*
X3162170D01*
G01X3104410D02*
Y1857790D01*
G01Y1907790D02*
X3079410D01*
G01D02*
X2961130D01*
G01X3079410Y1857790D02*
X2961130D01*
G01X3104410D02*
X3079410D01*
G01X3104410D02*
X3162170D01*
G01X2961130Y1907790D02*
Y1857790D01*
G01X2911130Y1871190D02*
X2961130Y1857790D01*
G01Y1907790D02*
X2911130Y1894390D01*
G01Y1871190D02*
Y1894390D01*
G01X3104410Y2107790D02*
Y2057790D01*
G01X2961130Y2107790D02*
Y2057790D01*
G01X2911130Y2071190D02*
X2961130Y2057790D01*
G01X3104410Y2107790D02*
X3162170D01*
G01X3104410D02*
X3079410D01*
G01D02*
X2961130D01*
G01D02*
X2911130Y2094390D01*
G01Y2071190D02*
Y2094390D01*
G01X3079410Y2057790D02*
X2961130D01*
G01X3104410D02*
X3079410D01*
G01X3104410D02*
X3162170D01*
G01X3104410Y1707790D02*
Y1657790D01*
G01X2961130Y1707790D02*
Y1657790D01*
G01X2911130Y1671190D02*
X2961130Y1657790D01*
G01X3104410Y1707790D02*
X3162170D01*
G01X3104410D02*
X3079410D01*
G01D02*
X2961130D01*
G01D02*
X2911130Y1694390D01*
G01Y1671190D02*
Y1694390D01*
G01X3079410Y1657790D02*
X2961130D01*
G01X3104410D02*
X3079410D01*
G01X3104410D02*
X3162170D01*
G01X3104410Y1507790D02*
Y1457790D01*
G01X2961130Y1507790D02*
Y1457790D01*
M02*
