G04 ================== begin FILE IDENTIFICATION RECORD ==================*
G04 Layout Name:  DevPack_Debug.brd*
G04 Film Name:    Bottom*
G04 File Format:  Gerber RS274X*
G04 File Origin:  Cadence Allegro 16.6-S019*
G04 Origin Date:  Fri Oct 16 16:25:00 2015*
G04 *
G04 Layer:  BOARD GEOMETRY/OUTLINE*
G04 Layer:  VIA CLASS/BOTTOM*
G04 Layer:  PIN/BOTTOM*
G04 Layer:  ETCH/BOTTOM*
G04 *
G04 Offset:    (0.0000 0.0000)*
G04 Mirror:    No*
G04 Mode:      Positive*
G04 Rotation:  0*
G04 FullContactRelief:  No*
G04 UndefLineWidth:     0.1000*
G04 ================== end FILE IDENTIFICATION RECORD ====================*
%FSLAX25Y25*MOMM*%
%IR0*IPPOS*OFA0.00000B0.00000*MIA0B0*SFA1.00000B1.00000*%
%ADD17O,1.5X.2*%
%ADD18O,.2X1.5*%
%AMMACRO21*
4,1,40,-.08,-.18,
.08,-.18,
.093892,-.178785,
.107362,-.175175,
.12,-.169282,
.131423,-.161284,
.141284,-.151423,
.149282,-.14,
.155175,-.127362,
.158785,-.113892,
.16,-.1,
.16,.1,
.158785,.113892,
.155175,.127362,
.149282,.14,
.141284,.151423,
.131423,.161284,
.12,.169282,
.107362,.175175,
.093892,.178785,
.08,.18,
-.08,.18,
-.093892,.178785,
-.107362,.175175,
-.12,.169282,
-.131423,.161284,
-.141284,.151423,
-.149282,.14,
-.155175,.127362,
-.158785,.113892,
-.16,.1,
-.16,-.1,
-.158785,-.113892,
-.155175,-.127362,
-.149282,-.14,
-.141284,-.151423,
-.131423,-.161284,
-.12,-.169282,
-.107362,-.175175,
-.093892,-.178785,
-.08,-.18,
0.0*
%
%ADD21MACRO21*%
%AMMACRO26*
4,1,40,-.135,-.275,
.135,-.275,
.158443,-.272949,
.181173,-.266859,
.2025,-.256913,
.221776,-.243416,
.238416,-.226776,
.251913,-.2075,
.261859,-.186173,
.267949,-.163443,
.27,-.14,
.27,.14,
.267949,.163443,
.261859,.186173,
.251913,.2075,
.238416,.226776,
.221776,.243416,
.2025,.256913,
.181173,.266859,
.158443,.272949,
.135,.275,
-.135,.275,
-.158443,.272949,
-.181173,.266859,
-.2025,.256913,
-.221776,.243416,
-.238416,.226776,
-.251913,.2075,
-.261859,.186173,
-.267949,.163443,
-.27,.14,
-.27,-.14,
-.267949,-.163443,
-.261859,-.186173,
-.251913,-.2075,
-.238416,-.226776,
-.221776,-.243416,
-.2025,-.256913,
-.181173,-.266859,
-.158443,-.272949,
-.135,-.275,
0.0*
%
%ADD26MACRO26*%
%AMMACRO19*
4,1,40,.325,-.16,
.325,.16,
.322569,.187784,
.315351,.214723,
.303564,.24,
.287567,.262846,
.267846,.282567,
.245,.298564,
.219723,.310351,
.192784,.317569,
.165,.32,
-.165,.32,
-.192784,.317569,
-.219723,.310351,
-.245,.298564,
-.267846,.282567,
-.287567,.262846,
-.303564,.24,
-.315351,.214723,
-.322569,.187784,
-.325,.16,
-.325,-.16,
-.322569,-.187784,
-.315351,-.214723,
-.303564,-.24,
-.287567,-.262846,
-.267846,-.282567,
-.245,-.298564,
-.219723,-.310351,
-.192784,-.317569,
-.165,-.32,
.165,-.32,
.192784,-.317569,
.219723,-.310351,
.245,-.298564,
.267846,-.282567,
.287567,-.262846,
.303564,-.24,
.315351,-.214723,
.322569,-.187784,
.325,-.16,
0.0*
%
%ADD19MACRO19*%
%ADD12C,.1*%
%AMMACRO20*
4,1,40,-.16,-.325,
.16,-.325,
.187784,-.322569,
.214723,-.315351,
.24,-.303564,
.262846,-.287567,
.282567,-.267846,
.298564,-.245,
.310351,-.219723,
.317569,-.192784,
.32,-.165,
.32,.165,
.317569,.192784,
.310351,.219723,
.298564,.245,
.282567,.267846,
.262846,.287567,
.24,.303564,
.214723,.315351,
.187784,.322569,
.16,.325,
-.16,.325,
-.187784,.322569,
-.214723,.315351,
-.24,.303564,
-.262846,.287567,
-.282567,.267846,
-.298564,.245,
-.310351,.219723,
-.317569,.192784,
-.32,.165,
-.32,-.165,
-.317569,-.192784,
-.310351,-.219723,
-.298564,-.245,
-.282567,-.267846,
-.262846,-.287567,
-.24,-.303564,
-.214723,-.315351,
-.187784,-.322569,
-.16,-.325,
0.0*
%
%ADD20MACRO20*%
%ADD14C,.5*%
%ADD29C,.8*%
%AMMACRO28*
4,1,41,-.7,0.0,
-.7,.3125,
-.695632,.362424,
-.682662,.410831,
-.661482,.45625,
-.632738,.497301,
-.597301,.532738,
-.55625,.561482,
-.510831,.582662,
-.462424,.595632,
-.4125,.6,
.4125,.6,
.462424,.595632,
.510831,.582662,
.55625,.561482,
.597301,.532738,
.632738,.497301,
.661482,.45625,
.682662,.410831,
.695632,.362424,
.7,.3125,
.7,-.3125,
.695632,-.362424,
.682662,-.410831,
.661482,-.45625,
.632738,-.497301,
.597301,-.532738,
.55625,-.561482,
.510831,-.582662,
.462424,-.595632,
.4125,-.6,
-.4125,-.6,
-.462424,-.595632,
-.510831,-.582662,
-.55625,-.561482,
-.597301,-.532738,
-.632738,-.497301,
-.661482,-.45625,
-.682662,-.410831,
-.695632,-.362424,
-.7,-.3125,
-.7,0.0,
0.0*
%
%ADD28MACRO28*%
%AMMACRO13*
4,1,41,.8,0.0,
.8,-.1188,
.798757,-.132908,
.795083,-.146586,
.78909,-.159418,
.780959,-.171015,
.770938,-.181023,
.759332,-.18914,
.746492,-.195117,
.73281,-.198774,
.7188,-.2,
-.7188,-.2,
-.732908,-.198757,
-.746586,-.195083,
-.759418,-.18909,
-.771015,-.180959,
-.781023,-.170938,
-.78914,-.159332,
-.795117,-.146492,
-.798774,-.13281,
-.8,-.1188,
-.8,.1188,
-.798757,.132908,
-.795083,.146586,
-.78909,.159418,
-.780959,.171015,
-.770938,.181023,
-.759332,.18914,
-.746492,.195117,
-.73281,.198774,
-.7188,.2,
.7188,.2,
.732908,.198757,
.746586,.195083,
.759418,.18909,
.771015,.180959,
.781023,.170938,
.78914,.159332,
.795117,.146492,
.798774,.13281,
.8,.1188,
.8,0.0,
0.0*
%
%ADD13MACRO13*%
%AMMACRO25*
4,1,40,.08,.18,
-.08,.18,
-.093892,.178785,
-.107362,.175175,
-.12,.169282,
-.131423,.161284,
-.141284,.151423,
-.149282,.14,
-.155175,.127362,
-.158785,.113892,
-.16,.1,
-.16,-.1,
-.158785,-.113892,
-.155175,-.127362,
-.149282,-.14,
-.141284,-.151423,
-.131423,-.161284,
-.12,-.169282,
-.107362,-.175175,
-.093892,-.178785,
-.08,-.18,
.08,-.18,
.093892,-.178785,
.107362,-.175175,
.12,-.169282,
.131423,-.161284,
.141284,-.151423,
.149282,-.14,
.155175,-.127362,
.158785,-.113892,
.16,-.1,
.16,.1,
.158785,.113892,
.155175,.127362,
.149282,.14,
.141284,.151423,
.131423,.161284,
.12,.169282,
.107362,.175175,
.093892,.178785,
.08,.18,
0.0*
%
%ADD25MACRO25*%
%AMMACRO24*
4,1,40,-.18,.08,
-.18,-.08,
-.178785,-.093892,
-.175175,-.107362,
-.169282,-.12,
-.161284,-.131423,
-.151423,-.141284,
-.14,-.149282,
-.127362,-.155175,
-.113892,-.158785,
-.1,-.16,
.1,-.16,
.113892,-.158785,
.127362,-.155175,
.14,-.149282,
.151423,-.141284,
.161284,-.131423,
.169282,-.12,
.175175,-.107362,
.178785,-.093892,
.18,-.08,
.18,.08,
.178785,.093892,
.175175,.107362,
.169282,.12,
.161284,.131423,
.151423,.141284,
.14,.149282,
.127362,.155175,
.113892,.158785,
.1,.16,
-.1,.16,
-.113892,.158785,
-.127362,.155175,
-.14,.149282,
-.151423,.141284,
-.161284,.131423,
-.169282,.12,
-.175175,.107362,
-.178785,.093892,
-.18,.08,
0.0*
%
%ADD24MACRO24*%
%AMMACRO22*
4,1,41,0.0,.425,
.1188,.425,
.132908,.423757,
.146586,.420083,
.159418,.41409,
.171015,.405959,
.181023,.395938,
.18914,.384332,
.195117,.371492,
.198774,.35781,
.2,.3438,
.2,-.3438,
.198757,-.357908,
.195083,-.371586,
.18909,-.384418,
.180959,-.396015,
.170938,-.406023,
.159332,-.41414,
.146492,-.420117,
.13281,-.423774,
.1188,-.425,
-.1188,-.425,
-.132908,-.423757,
-.146586,-.420083,
-.159418,-.41409,
-.171015,-.405959,
-.181023,-.395938,
-.18914,-.384332,
-.195117,-.371492,
-.198774,-.35781,
-.2,-.3438,
-.2,.3438,
-.198757,.357908,
-.195083,.371586,
-.18909,.384418,
-.180959,.396015,
-.170938,.406023,
-.159332,.41414,
-.146492,.420117,
-.13281,.423774,
-.1188,.425,
0.0,.425,
0.0*
%
%ADD22MACRO22*%
%AMMACRO27*
4,1,40,.135,.275,
-.135,.275,
-.158443,.272949,
-.181173,.266859,
-.2025,.256913,
-.221776,.243416,
-.238416,.226776,
-.251913,.2075,
-.261859,.186173,
-.267949,.163443,
-.27,.14,
-.27,-.14,
-.267949,-.163443,
-.261859,-.186173,
-.251913,-.2075,
-.238416,-.226776,
-.221776,-.243416,
-.2025,-.256913,
-.181173,-.266859,
-.158443,-.272949,
-.135,-.275,
.135,-.275,
.158443,-.272949,
.181173,-.266859,
.2025,-.256913,
.221776,-.243416,
.238416,-.226776,
.251913,-.2075,
.261859,-.186173,
.267949,-.163443,
.27,-.14,
.27,.14,
.267949,.163443,
.261859,.186173,
.251913,.2075,
.238416,.226776,
.221776,.243416,
.2025,.256913,
.181173,.266859,
.158443,.272949,
.135,.275,
0.0*
%
%ADD27MACRO27*%
%AMMACRO16*
4,1,40,.16,.325,
-.16,.325,
-.187784,.322569,
-.214723,.315351,
-.24,.303564,
-.262846,.287567,
-.282567,.267846,
-.298564,.245,
-.310351,.219723,
-.317569,.192784,
-.32,.165,
-.32,-.165,
-.317569,-.192784,
-.310351,-.219723,
-.298564,-.245,
-.282567,-.267846,
-.262846,-.287567,
-.24,-.303564,
-.214723,-.315351,
-.187784,-.322569,
-.16,-.325,
.16,-.325,
.187784,-.322569,
.214723,-.315351,
.24,-.303564,
.262846,-.287567,
.282567,-.267846,
.298564,-.245,
.310351,-.219723,
.317569,-.192784,
.32,-.165,
.32,.165,
.317569,.192784,
.310351,.219723,
.298564,.245,
.282567,.267846,
.262846,.287567,
.24,.303564,
.214723,.315351,
.187784,.322569,
.16,.325,
0.0*
%
%ADD16MACRO16*%
%AMMACRO15*
4,1,40,-.325,.16,
-.325,-.16,
-.322569,-.187784,
-.315351,-.214723,
-.303564,-.24,
-.287567,-.262846,
-.267846,-.282567,
-.245,-.298564,
-.219723,-.310351,
-.192784,-.317569,
-.165,-.32,
.165,-.32,
.192784,-.317569,
.219723,-.310351,
.245,-.298564,
.267846,-.282567,
.287567,-.262846,
.303564,-.24,
.315351,-.214723,
.322569,-.187784,
.325,-.16,
.325,.16,
.322569,.187784,
.315351,.214723,
.303564,.24,
.287567,.262846,
.267846,.282567,
.245,.298564,
.219723,.310351,
.192784,.317569,
.165,.32,
-.165,.32,
-.192784,.317569,
-.219723,.310351,
-.245,.298564,
-.267846,.282567,
-.287567,.262846,
-.303564,.24,
-.315351,.214723,
-.322569,.187784,
-.325,.16,
0.0*
%
%ADD15MACRO15*%
%ADD11C,1.*%
%ADD23R,2.5X1.65*%
%ADD10C,1.27*%
%ADD30C,.2*%
%ADD31C,.3*%
%ADD32C,.4*%
%ADD33C,.15*%
%ADD34O,.5006X1.8006*%
G75*
%LPD*%
G75*
G36*
G01X3766200Y1227960D02*
X3768010D01*
X3770490Y1227650D01*
G03X3837450Y1294130I13515J53349D01*
G01X3837160Y1295300D01*
Y1298170D01*
G02X3840090Y1305240I9990J2D01*
G01X3866090Y1331240D01*
G03X3869020Y1338310I-7060J7068D01*
G01Y1439090D01*
G03X3866090Y1446160I-9990J2D01*
G01X3829220Y1483030D01*
G02X3826300Y1489690I7063J7067D01*
G01X3826060Y1495630D01*
G02X3828040Y1502010I9984J399D01*
G01X3828050Y1502020D01*
G03X3828080Y1567940I-44051J32980D01*
G01X3826590Y1569930D01*
X3825830Y1574840D01*
X3832060Y1592820D01*
G02X3838890Y1599200I9443J-3263D01*
G01X3838900D01*
G03X3763370Y1690130I-16899J62797D01*
G01Y1690120D01*
G02X3756040Y1684600I-9004J4330D01*
G01X3739950Y1681850D01*
G02X3731210Y1684630I-1680J9848D01*
G01X3635260Y1780590D01*
G03X3628190Y1783520I-7068J-7060D01*
G01X3386470D01*
G02X3379400Y1786450I-2J9990D01*
G01X3242430Y1923420D01*
G02X3240260Y1934310I7062J7068D01*
G01X3240270D01*
G02X3249500Y1940480I9230J-3818D01*
G01X3353530D01*
G02X3360600Y1937550I2J-9990D01*
G01X3382740Y1915410D01*
G03X3389810Y1912480I7068J7060D01*
G01X3397930D01*
X3402910Y1909230D01*
X3404100Y1906510D01*
G03X3432500Y1887970I28400J12482D01*
G01X3465500D01*
G03X3496530Y1919000I0J31030D01*
G01Y1951000D01*
G03X3495040Y1960480I-31027J-20D01*
G02X3495500Y1967770I9511J3059D01*
G01X3501280Y1980110D01*
G02X3506600Y1985140I9047J-4240D01*
G03X3534030Y2025750I-16346J40610D01*
G01Y2088250D01*
G03X3513810Y2125150I-43780J0D01*
G01X3513800D01*
G02X3509190Y2133570I5382J8419D01*
G01Y2150430D01*
G02X3513800Y2158850I9992J1D01*
G01X3513810D01*
G03X3534030Y2195750I-23560J36900D01*
G01Y2258250D01*
G03X3490250Y2302030I-43780J0D01*
G01X3407750D01*
G03X3363970Y2258250I0J-43780D01*
G01Y2195750D01*
G03X3384190Y2158850I43780J0D01*
G01X3384200D01*
G02X3388810Y2150430I-5382J-8419D01*
G01Y2133570D01*
G02X3384200Y2125150I-9992J-1D01*
G01X3384190D01*
G03X3363970Y2088250I23560J-36900D01*
G01Y2025720D01*
G03X3366230Y2011840I43784J5D01*
G02X3364860Y2002820I-9471J-3176D01*
G01X3355390Y1989670D01*
G02X3347280Y1985520I-8105J5840D01*
G01X2915070D01*
G02X2905840Y1991690I0J9988D01*
G01X2905830D01*
G02X2908000Y2002580I9232J3822D01*
G01X2993090Y2087670D01*
G03X2996020Y2094740I-7060J7068D01*
G01Y2198210D01*
G02X2998950Y2205280I9990J2D01*
G01X3007720Y2214050D01*
G02X3014790Y2216980I7068J-7060D01*
G01X3027210D01*
G02X3034280Y2214050I2J-9990D01*
G01X3048740Y2199590D01*
X3049450Y2198220D01*
G03X3077000Y2181470I27550J14282D01*
G01X3109000D01*
G03X3120740Y2183780I-8J31028D01*
G01X3122560Y2184530D01*
X3129690D01*
G02X3132870Y2184010I-1J-9990D01*
G01X3141280Y2181190D01*
G02X3144610Y2179300I-3175J-9472D01*
G01X3148770Y2175730D01*
X3149630Y2174200D01*
G03X3187750Y2151970I38120J21569D01*
G01X3270250D01*
G03X3314030Y2195750I0J43780D01*
G01Y2258250D01*
G03X3270250Y2302030I-43780J0D01*
G01X3187750D01*
G03X3150030Y2280480I0J-43787D01*
G01X3149050Y2278810D01*
X3146010Y2276470D01*
X3134910Y2273320D01*
G02X3132180Y2272940I-2729J9610D01*
G01X3123620D01*
X3121670Y2273810D01*
G03X3109000Y2276530I-12703J-28304D01*
G01X3077000D01*
G03X3053320Y2265560I0J-31043D01*
G01X3051900Y2263880D01*
X3047900Y2262020D01*
X2996130D01*
G03X2989060Y2259090I-2J-9990D01*
G01X2953910Y2223940D01*
G03X2950980Y2216870I7060J-7068D01*
G01Y2113400D01*
G02X2948050Y2106330I-9990J-2D01*
G01X2920540Y2078820D01*
G02X2909650Y2076650I-7068J7062D01*
G01Y2076660D01*
G02X2903480Y2085890I3818J9230D01*
G01Y2178990D01*
G03X2893490Y2188980I-9990J0D01*
G01X2879520D01*
G02X2869530Y2198970I0J9990D01*
G01Y2228000D01*
G03X2863820Y2245940I-31037J0D01*
G01Y2245950D01*
G02X2861980Y2251720I8148J5777D01*
G01Y2262500D01*
G02X2862090Y2264010I9991J31D01*
G01X2862420Y2266140D01*
X2863290Y2268290D01*
X2863940Y2269220D01*
G03X2869530Y2286980I-25450J17770D01*
G01Y2298220D01*
G02X2879520Y2308210I9990J0D01*
G01X2882840D01*
X2888130Y2304270D01*
X2889090Y2301100D01*
G03X2962910Y2313340I36120J10885D01*
G01X2962830Y2315420D01*
X2964360Y2319300D01*
X3008110Y2363050D01*
G02X3015180Y2365980I7068J-7060D01*
G01X3389280D01*
X3389290Y2365970D01*
X3428650D01*
G03X3435720Y2368900I2J9990D01*
G01X3510590Y2443770D01*
G03X3513520Y2450840I-7060J7068D01*
G01Y2673190D01*
G03X3510590Y2680260I-9990J2D01*
G01X3446760Y2744090D01*
G03X3439690Y2747020I-7068J-7060D01*
G01X2974310D01*
G03X2967240Y2744090I-2J-9990D01*
G01X2961260Y2738100D01*
G02X2947130Y2738090I-7070J7059D01*
G01X2947120Y2738100D01*
G02X2944200Y2744810I7064J7065D01*
G01Y2744820D01*
G03X2868780Y2743940I-37700J-1319D01*
G01Y2743930D01*
X2868750Y2741620D01*
G02X2865830Y2734690I-9989J129D01*
G01X2865190Y2734050D01*
X2834340D01*
G03X2827270Y2731120I-2J-9990D01*
G01X2827200Y2731050D01*
G02X2813080Y2731040I-7065J7063D01*
G01X2813070Y2731050D01*
G03X2806010Y2733980I-7068J-7059D01*
G01X2566990D01*
G03X2559930Y2731050I8J-9989D01*
G01X2559920Y2731040D01*
G02X2545800Y2731050I-7055J7073D01*
G01X2501260Y2775590D01*
G03X2494190Y2778520I-7068J-7060D01*
G01X2130980D01*
G02X2126990Y2779350I-3J9990D01*
G01X2121710Y2781650D01*
X2120400Y2782940D01*
G03X2063300Y2777910I-26398J-26941D01*
G01X2063290Y2777900D01*
X2063280Y2777890D01*
G02X2058090Y2774150I-8127J5807D01*
G01X2052450Y2772420D01*
G02X2047800Y2772120I-2950J9543D01*
G01X2045880Y2772460D01*
X2045140Y2772710D01*
X2045110Y2772720D01*
G03X2004320Y2761490I-12106J-35721D01*
G01X2004060Y2761190D01*
X2004050Y2761180D01*
X2003760Y2760840D01*
X2003030Y2760110D01*
G02X1996470Y2757190I-7072J7058D01*
G01X1981750Y2756440D01*
G02X1974170Y2759350I-519J9976D01*
G01X1935440Y2798090D01*
G03X1928370Y2801020I-7068J-7060D01*
G01X1869710D01*
G02X1859720Y2811010I0J9990D01*
G01Y2840000D01*
G02X1869710Y2849990I9990J0D01*
G01X3940000D01*
G02X3949990Y2840000I0J-9990D01*
G01Y237470D01*
G02X3943020Y227950I-9990J2D01*
G01X3925010Y222240D01*
G02X3914930Y224690I-3024J9520D01*
G01X3913660Y225960D01*
X3913180Y226630D01*
G03X3816000Y279020I-101946J-72777D01*
G01X3806000D01*
G03X3685980Y154090I4348J-124293D01*
G02Y154030I-9990J-30D01*
G03X3708960Y81540I125259J-179D01*
G01Y81530D01*
G02X3709670Y71170I-8157J-5763D01*
G01X3701500Y55400D01*
G02X3692630Y50010I-8867J4599D01*
G01X60000D01*
G02X50010Y60000I0J9990D01*
G01Y66080D01*
G02X54530Y74440I9990J0D01*
G01X68280Y83440D01*
G02X75750Y84860I5460J-8365D01*
G01X77970Y84410D01*
X78870Y84030D01*
G03X148660Y191270I25127J59977D01*
G01X147220Y192630D01*
X144760Y198120D01*
G02X143890Y202200I9121J4078D01*
G01Y212800D01*
G02X144760Y216880I9991J2D01*
G01X147210Y222350D01*
X148660Y223720D01*
G03X151280Y226340I-44660J47280D01*
G01X152650Y227790D01*
X158120Y230240D01*
G02X162200Y231110I4078J-9121D01*
G01X172800D01*
G02X176880Y230240I2J-9991D01*
G01X182350Y227790D01*
X183720Y226340D01*
G03X278280I47280J44660D01*
G01X279650Y227790D01*
X285120Y230240D01*
G02X289200Y231110I4078J-9121D01*
G01X299800D01*
G02X303880Y230240I2J-9991D01*
G01X309350Y227790D01*
X310720Y226340D01*
G03X405280I47280J44660D01*
G01X406650Y227790D01*
X412120Y230240D01*
G02X416200Y231110I4078J-9121D01*
G01X426800D01*
G02X430880Y230240I2J-9991D01*
G01X436350Y227790D01*
X437720Y226340D01*
G03X440340Y223720I47280J44660D01*
G01X441790Y222350D01*
X444240Y216880D01*
G02X445110Y212800I-9121J-4078D01*
G01Y202200D01*
G02X444240Y198120I-9991J-2D01*
G01X441790Y192650D01*
X440340Y191280D01*
G03X529660I44660J-47280D01*
G01X528210Y192650D01*
X525760Y198120D01*
G02X524890Y202200I9121J4078D01*
G01Y212800D01*
G02X525760Y216880I9991J2D01*
G01X528210Y222350D01*
X529660Y223720D01*
G03X532280Y226340I-44660J47280D01*
G01X533650Y227790D01*
X539120Y230240D01*
G02X543200Y231110I4078J-9121D01*
G01X553800D01*
G02X557880Y230240I2J-9991D01*
G01X563350Y227790D01*
X564720Y226350D01*
X564820Y226250D01*
G03X673370Y292510I47181J44752D01*
G02X675730Y302880I9426J3308D01*
G01X707400Y334550D01*
G02X714470Y337480I7068J-7060D01*
G01X1286810D01*
G03X1293880Y340410I2J9990D01*
G01X1453820Y500360D01*
G02X1463570Y502920I7065J-7062D01*
G01X1477740Y498970D01*
G02X1482230Y496300I-2684J-9623D01*
G01X1485610Y492810D01*
G02X1487980Y488820I-7169J-6957D01*
G01Y488810D01*
G03X1488410Y487490I36075J11022D01*
G01X1488980Y485880D01*
Y402630D01*
G03X1491910Y395560I9990J-2D01*
G01X1760560Y126910D01*
G03X1767630Y123980I7068J7060D01*
G01X2538370D01*
G03X2545440Y126910I2J9990D01*
G01X2600090Y181560D01*
G03X2603020Y188630I-7060J7068D01*
G01Y196470D01*
G02X2603810Y200370I9991J6D01*
G01X2606020Y205570D01*
X2607220Y206860D01*
G03X2615530Y228000I-22734J21140D01*
G01Y260020D01*
G03X2609900Y277840I-31034J-6D01*
G01X2609190Y278850D01*
X2607720Y282690D01*
G02X2607090Y285480I9327J3572D01*
G01X2606620Y291350D01*
X2607200Y294150D01*
X2607880Y295420D01*
G03X2611530Y310000I-27368J14598D01*
G01Y342000D01*
G03X2607620Y357070I-31027J-8D01*
G01X2607610Y357080D01*
G02X2606360Y362160I8739J4844D01*
G01X2606460Y366470D01*
G02X2606870Y369080I9987J-232D01*
G01X2607940Y372700D01*
X2608500Y373700D01*
Y373710D01*
X2608610Y373900D01*
G03X2612530Y388990I-27112J15097D01*
G01Y421030D01*
G03X2612230Y425330I-31032J-5D01*
G01Y425340D01*
G02X2613900Y432390I9893J1379D01*
G01X2620520Y441990D01*
G02X2623130Y444580I8221J-5674D01*
G01X2627460Y447520D01*
X2628980Y447960D01*
G03X2633380Y449700I-6965J24045D01*
G01X2634340Y450190D01*
X2637940Y451130D01*
G02X2640460Y451450I2508J-9671D01*
G01X2643540D01*
G02X2646060Y451130I12J-9991D01*
G01X2649660Y450190D01*
X2650630Y449700D01*
G03X2673370I11370J22300D01*
G01X2674340Y450190D01*
X2677940Y451130D01*
G02X2680460Y451450I2508J-9671D01*
G01X2683540D01*
G02X2686060Y451130I12J-9991D01*
G01X2689660Y450190D01*
X2690630Y449700D01*
G03X2713370I11370J22300D01*
G01X2714340Y450190D01*
X2717940Y451130D01*
G02X2720460Y451450I2508J-9671D01*
G01X2723540D01*
G02X2726060Y451130I12J-9991D01*
G01X2729660Y450190D01*
X2730630Y449700D01*
G03X2753370I11370J22300D01*
G01X2754340Y450190D01*
X2757940Y451130D01*
G02X2760460Y451450I2508J-9671D01*
G01X2762150D01*
X2765080Y450530D01*
X2766340Y449640D01*
G03X2769040Y447970I15686J22344D01*
G01X2771040Y446890D01*
X2773710Y443210D01*
X2776260Y429190D01*
G02X2774300Y421250I-9830J-1785D01*
G01X2774290Y421240D01*
G03X2778300Y370390I29710J-23240D01*
G02X2781480Y363080I-6810J-7309D01*
G01Y248810D01*
G03X2784410Y241740I9990J-2D01*
G01X2789140Y237010D01*
G02X2792070Y229940I-7060J-7068D01*
G01Y227790D01*
X2791900Y226880D01*
G03X2835270Y257200I37093J-6880D01*
G02X2829860Y259990I1656J9852D01*
G01X2829450Y260400D01*
G02X2826520Y267470I7060J7068D01*
G01Y363080D01*
G02X2829700Y370390I9990J1D01*
G03X2832790Y422370I-25700J27610D01*
G01X2831430Y423970D01*
X2830240Y427990D01*
X2832320Y444470D01*
G02X2835170Y450280I9911J-1258D01*
G01X2836440Y451550D01*
X2837010Y451980D01*
G03X2847030Y472000I-14990J20020D01*
G01Y482990D01*
G02X2857020Y492980I9990J0D01*
G01X2912320D01*
G02X2914420Y492760I15J-9991D01*
G01X2917380Y492120D01*
X2918200Y491790D01*
G03X2929970Y489470I11774J28715D01*
G01X2962000D01*
G03X2982460Y497170I0J31033D01*
G01X2983790Y498340D01*
X2987060Y499610D01*
X3001660Y499950D01*
G02X3008130Y497760I225J-9988D01*
G03X3027500Y490970I19370J24234D01*
G01X3060500D01*
G03X3079620Y497560I0J31032D01*
G01X3080940Y498600D01*
X3084090Y499680D01*
X3093910D01*
X3097060Y498600D01*
X3098380Y497560D01*
G03X3117500Y490970I19120J24442D01*
G01X3150500D01*
G03X3181530Y522000I0J31030D01*
G01Y554000D01*
G03X3164500Y581690I-31026J0D01*
G01X3161970Y582970D01*
X3159020Y587770D01*
Y598920D01*
G03X3156090Y605990I-9990J2D01*
G01X3120990Y641090D01*
G03X3113920Y644020I-7068J-7060D01*
G01X3075730D01*
G02X3067050Y649070I2J9988D01*
G01X3058680Y663760D01*
G02X3057730Y671350I8681J4941D01*
G01X3058490Y674130D01*
X3059030Y675130D01*
G03X3059300Y698380I-22030J11882D01*
G01X3058810Y699340D01*
X3057870Y702940D01*
G02X3057550Y705460I9671J2508D01*
G01Y708540D01*
G02X3057870Y711060I9991J12D01*
G01X3058810Y714660D01*
X3059300Y715630D01*
G03Y738370I-22300J11370D01*
G01X3058810Y739340D01*
X3057870Y742940D01*
G02X3057550Y745460I9671J2508D01*
G01Y748540D01*
G02X3057870Y751060I9991J12D01*
G01X3058810Y754660D01*
X3059300Y755630D01*
G03Y778370I-22300J11370D01*
G01X3058810Y779340D01*
X3057870Y782940D01*
G02X3057550Y785460I9671J2508D01*
G01Y788540D01*
G02X3057870Y791060I9991J12D01*
G01X3058810Y794660D01*
X3059300Y795630D01*
G03Y818370I-22300J11370D01*
G01X3058810Y819340D01*
X3057870Y822940D01*
G02X3057550Y825460I9671J2508D01*
G01Y828540D01*
G02X3057870Y831060I9991J12D01*
G01X3058810Y834660D01*
X3059300Y835630D01*
G03Y858370I-22300J11370D01*
G01X3058810Y859340D01*
X3057870Y862940D01*
G02X3057550Y865460I9671J2508D01*
G01Y868540D01*
G02X3057870Y871060I9991J12D01*
G01X3058810Y874650D01*
X3059300Y875620D01*
G03X3061870Y884210I-22308J11354D01*
G01X3062070Y886040D01*
X3063760Y889310D01*
X3075080Y899440D01*
G02X3081740Y901980I6656J-7450D01*
G01X3218100D01*
G02X3226760Y896970I0J-9989D01*
G01X3235150Y882380D01*
G02X3236140Y874790I-8654J-4988D01*
G01X3235390Y872020D01*
X3234830Y870990D01*
G03X3305720Y852560I33167J-17977D01*
G01Y852570D01*
X3305750Y854880D01*
G02X3308670Y861810I9989J-129D01*
G01X3309310Y862450D01*
X3608120D01*
G03X3615190Y865380I2J9990D01*
G01X3628910Y879100D01*
G02X3637760Y881860I7060J-7068D01*
G01X3653940Y878910D01*
G02X3661250Y873200I-1792J-9828D01*
G03X3758260Y952940I59251J26797D01*
G01X3757590Y953430D01*
X3757000Y954020D01*
G02Y968150I7063J7065D01*
G01X3759760Y970910D01*
G02X3766830Y973840I7068J-7060D01*
G01X3769700D01*
X3770870Y973550D01*
G03X3730260Y1038850I13131J53444D01*
G02X3710740I-9760J2154D01*
G03X3704090Y1055480I-53741J-11845D01*
G01X3702300Y1058430D01*
X3703130Y1065280D01*
X3741090Y1103240D01*
G03X3744020Y1110310I-7060J7068D01*
G01Y1208700D01*
G02X3747960Y1216650I9991J0D01*
G01X3760150Y1225920D01*
G02X3766200Y1227960I6049J-7950D01*
G37*
G36*
G01X1232660Y487770D02*
X1217360Y489160D01*
G02X1210040Y493430I898J9948D01*
G03X1174290Y509420I-31037J-21433D01*
G02X1167120Y511280I-1254J9915D01*
G01X1156040Y519430D01*
G02X1152120Y525700I5908J8054D01*
G03X1077380Y521780I-37122J-6697D01*
G01Y521770D01*
G02X1067420Y512520I-9962J739D01*
G01X1060330D01*
G02X1050340Y522510I0J9990D01*
G01Y525410D01*
X1051890Y527850D01*
G03X1018650Y585700I-31888J20152D01*
G02X1011230Y588620I-356J9982D01*
G01X979250Y620590D01*
G03X972190Y623520I-7067J-7058D01*
G01X890820D01*
G03X883760Y620590I7J-9988D01*
G01X843610Y580450D01*
G02X836540Y577520I-7068J7060D01*
G01X396470D01*
G02X389400Y580450I-2J9990D01*
G01X307420Y662430D01*
G02X304490Y669500I7060J7068D01*
G01Y694540D01*
G02X310660Y703770I9991J-1D01*
G02X321550Y701600I3822J-9230D01*
G01X353750Y669410D01*
G03X360810Y666480I7067J7058D01*
G01X482190D01*
G03X489250Y669410I-7J9988D01*
G01X538430Y718580D01*
G02X545500Y721510I7068J-7060D01*
G01X790190D01*
G03X797250Y724440I-7J9988D01*
G01X823370Y750550D01*
G02X830440Y753480I7068J-7060D01*
G01X873080D01*
G02X880390Y750300I1J-9990D01*
G03X945680Y774230I27611J25700D01*
G02X950020Y782000I9976J-475D01*
G01X963180Y791010D01*
G02X972000Y792240I5645J-8242D01*
G03X985350Y790300I12012J35758D01*
G02X992770Y787380I356J-9982D01*
G01X1003750Y776410D01*
G03X1010810Y773480I7067J7058D01*
G01X1214330D01*
G02X1221400Y770550I2J-9990D01*
G01X1324550Y667410D01*
G03X1331610Y664480I7067J7058D01*
G01X1355910D01*
X1357700Y663760D01*
G03X1367000Y661970I9296J23241D01*
G01X1387820D01*
G02X1397050Y655800I-1J-9991D01*
G02X1394880Y644910I-9230J-3822D01*
G01X1240620Y490650D01*
G02X1232660Y487770I-7058J7068D01*
G37*
G36*
G01X582930Y835470D02*
G03X578700Y844440I-35934J-11463D01*
G02X577140Y850730I8394J5420D01*
G01X578220Y862950D01*
G02X580850Y868870I9949J-876D01*
G03X585650Y876760I-16985J15738D01*
G01X585660Y876770D01*
G02X590150Y882080I9396J-3392D01*
G01X601520Y888490D01*
G02X608390Y889580I4903J-8706D01*
G03X614500Y888970I6122J30419D01*
G01X647500D01*
G03X678530Y920000I0J31030D01*
G01Y952000D01*
G03X673030Y969630I-31028J-7D01*
G02X672410Y979950I8223J5673D01*
G01X680630Y995630D01*
G02X689480Y1000980I8848J-4641D01*
G01X929030D01*
G02X936100Y998050I2J-9990D01*
G01X957570Y976580D01*
G02X959740Y965690I-7060J-7068D01*
G02X950510Y959520I-9231J3821D01*
G01X937920D01*
G02X930610Y962700I-1J9990D01*
G03X868020Y951110I-27609J-25700D01*
G01X867260Y949230D01*
X749480Y831450D01*
G02X742410Y828520I-7068J7060D01*
G01X592450D01*
G02X582930Y835470I-3J9991D01*
G37*
G36*
G01X1085400Y912450D02*
X954750Y1043090D01*
G03X947690Y1046020I-7067J-7058D01*
G01X727430D01*
G02X718200Y1052190I1J9991D01*
G02X720370Y1063080I9230J3822D01*
G01X866320Y1209040D01*
G02X877700Y1210980I7060J-7069D01*
G01X877710D01*
G03X928010Y1228680I16293J34020D01*
G01X928750Y1230220D01*
X1067580Y1369050D01*
G02X1074640Y1371980I7068J-7059D01*
G01X1085180D01*
X1086790Y1371410D01*
G03X1111810I12510J35590D01*
G01X1113420Y1371980D01*
X1124510D01*
G02X1131450Y1369180I4J-9991D01*
G03X1153000Y1360470I21556J22318D01*
G01X1185000D01*
G03X1204120Y1367060I0J31032D01*
G02X1210270Y1369180I6153J-7870D01*
G01X1216730D01*
G02X1222880Y1367060I-3J-9990D01*
G03X1242000Y1360470I19120J24442D01*
G01X1274000D01*
G03X1301690Y1377500I0J31026D01*
G02X1310610Y1382980I8914J-4511D01*
G01X1322940D01*
X1323940Y1381980D01*
X1326080D01*
X1338860Y1370550D01*
G02X1342130Y1364220I-6659J-7450D01*
G01Y1364210D01*
G03X1345170Y1354750I24875J2775D01*
G02X1346450Y1349860I-8709J-4892D01*
G01Y1344140D01*
G02X1345170Y1339250I-9989J2D01*
G03X1367000Y1301970I21830J-12249D01*
G01X1497000D01*
G03X1518830Y1339250I0J25031D01*
G02X1517550Y1344140I8709J4892D01*
G01Y1349860D01*
G02X1518830Y1354750I9989J-2D01*
G03X1521870Y1364210I-21835J12235D01*
G01Y1364220D01*
G02X1525140Y1370550I9929J-1120D01*
G01X1535080Y1379440D01*
G02X1541740Y1381980I6656J-7451D01*
G01X1545500D01*
G02X1552560Y1379050I-7J-9988D01*
G01X1570050Y1361560D01*
G02X1572980Y1354500I-7058J-7067D01*
G01Y1300500D01*
G02X1570050Y1293440I-9988J7D01*
G01X1551560Y1274950D01*
G02X1544500Y1272020I-7067J7058D01*
G01X1497600D01*
G03X1497000Y1272030I-717J-25018D01*
G01X1367000D01*
G03X1366400Y1272020I117J-25028D01*
G01X1328070D01*
G03X1321010Y1269090I8J-9989D01*
G01X1292910Y1240990D01*
G03X1289980Y1233930I7059J-7068D01*
G01Y940070D01*
G03X1292910Y933010I9989J8D01*
G01X1299340Y926580D01*
G02X1301500Y915690I-7067J-7061D01*
G02X1292270Y909520I-9230J3819D01*
G01X1092470D01*
G02X1085400Y912450I-2J9990D01*
G37*
G36*
G01X759910Y1222870D02*
X758310Y1224480D01*
X757550Y1226600D01*
G03X753630Y1234550I-35555J-12590D01*
G02X752020Y1239990I8380J5438D01*
G01Y1378290D01*
G03X749090Y1385350I-9989J-8D01*
G01X667520Y1466930D01*
G02Y1481050I7063J7060D01*
G01X721880Y1535420D01*
G03X724810Y1542480I-7059J7068D01*
G01Y1553450D01*
G02X728950Y1561550I9990J2D01*
G03X741820Y1586710I-18158J25160D01*
G01Y1619710D01*
G03X735230Y1638830I-31032J0D01*
G02X733110Y1644980I7870J6153D01*
G01Y1651440D01*
G02X735230Y1657590I9990J-3D01*
G03X741820Y1676710I-24442J19120D01*
G01Y1709710D01*
G03X739260Y1722040I-31028J-11D01*
G01Y1722050D01*
G02X740080Y1731500I9169J3965D01*
G01X749250Y1745470D01*
G02X757600Y1749980I8353J-5480D01*
G01X809730D01*
G02X816790Y1747050I-7J-9989D01*
G01X956940Y1606910D01*
G03X964000Y1603980I7068J7059D01*
G01X999010D01*
G02X1004450Y1602370I2J-9990D01*
G03X1020390Y1596560I20557J31627D01*
G01X1020400D01*
G02X1027840Y1591630I-1218J-9917D01*
G01X1035810Y1577770D01*
G02X1036330Y1568850I-8664J-4980D01*
G03X1036690Y1538340I34672J-14848D01*
G01Y1538330D01*
G02X1034660Y1527120I-9090J-4143D01*
G01X796910Y1289360D01*
G03X793980Y1282300I7058J-7067D01*
G01Y1246960D01*
G02X791050Y1239890I-9990J-2D01*
G01X774040Y1222870D01*
G02X759910I-7065J7066D01*
G37*
G36*
G01X50010Y1453670D02*
Y2961120D01*
G02X55240Y2969910I9991J6D01*
G01X70690Y2978280D01*
G02X80900Y2977870I4761J-8779D01*
G03X223290Y3183880I68338J104980D01*
G02X219700Y3195040I5904J8057D01*
G01X225610Y3213110D01*
G02X235100Y3219990I9494J-3110D01*
G01X1640000D01*
G02X1649990Y3210000I0J-9990D01*
G01Y2847710D01*
G02X1640000Y2837720I-9990J0D01*
G01X1635480D01*
X1634020Y2838180D01*
G03X1627090Y2839240I-6926J-22096D01*
G01X1603330D01*
G03X1596400Y2838180I-4J-23156D01*
G01X1594940Y2837720D01*
X1570480D01*
X1569020Y2838180D01*
G03X1562090Y2839240I-6926J-22096D01*
G01X1538330D01*
G03X1531400Y2838180I-4J-23156D01*
G01X1529940Y2837720D01*
X1505480D01*
X1504020Y2838180D01*
G03X1497090Y2839240I-6926J-22096D01*
G01X1473330D01*
G03X1462950Y2836780I6J-23155D01*
G02X1458470Y2835720I-4478J8930D01*
G01X1446950D01*
G02X1442470Y2836780I-2J9990D01*
G03X1432090Y2839240I-10386J-20695D01*
G01X1408330D01*
G03X1397950Y2836780I6J-23155D01*
G02X1393470Y2835720I-4478J8930D01*
G01X1289270D01*
G03X1279280Y2825730I0J-9990D01*
G01Y2692710D01*
G02X1269290Y2682720I-9990J0D01*
G01X1044270D01*
G03X1034280Y2672730I0J-9990D01*
G01Y2546710D01*
G03X1044360Y2536720I9989J-2D01*
G01X1221620Y2538280D01*
X1325990D01*
G02X1335980Y2528290I0J-9990D01*
G01Y2491990D01*
G03X1338910Y2484930I9989J8D01*
G01X1364220Y2459620D01*
G03X1371280Y2456690I7068J7059D01*
G01X1375200D01*
G02X1385180Y2446890I-7J-9989D01*
G03X1392170Y2430750I23154J444D01*
G02X1395190Y2423600I-6968J-7156D01*
G01Y2421790D01*
X1396710Y2418120D01*
X1426920Y2387910D01*
G03X1433980Y2384980I7068J7059D01*
G01X1622010D01*
G02X1631240Y2378810I-1J-9991D01*
G02X1629070Y2367920I-9230J-3822D01*
G01X1621100Y2359950D01*
G02X1614030Y2357020I-7068J7060D01*
G01X1350340D01*
G03X1343280Y2354090I7J-9988D01*
G01X1290630Y2301450D01*
G02X1283560Y2298520I-7068J7060D01*
G01X1044470D01*
G02X1037400Y2301450I-2J9990D01*
G01X1012450Y2326400D01*
G02X1009520Y2333470I7060J7068D01*
G01Y2384750D01*
G02X1015690Y2393980I9990J-1D01*
G02X1026580Y2391810I3822J-9230D01*
G01X1027490Y2390910D01*
G03X1034550Y2387980I7067J7058D01*
G01X1114740D01*
G02X1121130Y2385660I-10J-9988D01*
G03X1141000Y2378470I19863J23842D01*
G01X1173000D01*
G03X1192870Y2385660I7J31032D01*
G02X1199260Y2387980I6400J-7668D01*
G01X1237700D01*
G03Y2468020I0J40020D01*
G01X1193530D01*
G02X1188530Y2469360I-2J9991D01*
G03X1173000Y2473530I-15537J-26858D01*
G01X1141000D01*
G03X1125470Y2469360I7J-31028D01*
G02X1120470Y2468020I-4998J8651D01*
G01X1067700D01*
G02X1060640Y2470950I8J9989D01*
G01X885490Y2646090D01*
G03X878430Y2649020I-7067J-7058D01*
G01X684360D01*
G03X677300Y2646090I7J-9988D01*
G01X596700Y2565500D01*
G03X653300Y2508900I28300J-28300D01*
G01X710450Y2566050D01*
G02X717510Y2568980I7068J-7059D01*
G01X740010D01*
G02X749240Y2562810I-1J-9991D01*
G02X747070Y2551920I-9230J-3822D01*
G01X661410Y2466250D01*
G03X658480Y2459190I7058J-7067D01*
G01Y2450050D01*
G02X652510Y2440910I-9989J5D01*
G01Y2440900D01*
G03X633970Y2412500I12482J-28400D01*
G01Y2379500D01*
G03X640560Y2360380I31032J0D01*
G02X642680Y2354230I-7870J-6153D01*
G01Y2347770D01*
G02X640560Y2341620I-9990J3D01*
G03X633970Y2322500I24442J-19120D01*
G01Y2289500D01*
G03X665000Y2258470I31030J0D01*
G01X697000D01*
G03X721040Y2269880I0J31030D01*
G01Y2269890D01*
G02X726850Y2273370I7735J-6325D01*
G01X739350Y2275840D01*
G02X746040Y2274830I1942J-9799D01*
G01X746050D01*
G03X744520Y2340300I17952J33172D01*
G02X737990Y2338960I-5158J8555D01*
G01X725540Y2340680D01*
G02X719620Y2343740I1364J9896D01*
G03X719320Y2344060I-22787J-21063D01*
G01Y2354230D01*
G02X721440Y2360380I9990J-3D01*
G03X728030Y2379500I-24442J19120D01*
G01Y2412500D01*
G03X719720Y2433630I-31019J0D01*
G02X717050Y2440620I7319J6801D01*
G01X717300Y2454490D01*
G02X720230Y2461380I9988J-180D01*
G01X757910Y2499060D01*
G02X766450Y2501870I7058J-7068D01*
G01X782350Y2499490D01*
G02X789690Y2494300I-1480J-9878D01*
G03X799670Y2482360I33309J17701D01*
G02X803240Y2476710I-6175J-7854D01*
G01X806010Y2464410D01*
G02X805210Y2457770I-9746J-2194D01*
G03X840350Y2403300I33789J-16772D01*
G02X847770Y2400380I356J-9982D01*
G01X873750Y2374400D01*
G02X876680Y2367330I-7060J-7068D01*
G01Y2263130D01*
G03X879610Y2256070I9988J7D01*
G01X939280Y2196400D01*
G03X946340Y2193470I7067J7058D01*
G01X1158450D01*
G02X1168440Y2183480I0J-9990D01*
G01Y2181340D01*
X1167560Y2179400D01*
G03X1166820Y2177600I34506J-15238D01*
G02X1162440Y2172510I-9324J3594D01*
G01X1156890Y2169360D01*
G02X1150290Y2168190I-4943J8681D01*
G03X1106300Y2129650I-6293J-37192D01*
G02X1103380Y2122230I-9982J-356D01*
G01X1098910Y2117750D01*
G03X1095980Y2110690I7058J-7067D01*
G01Y1983990D01*
G02X1089810Y1974760I-9991J1D01*
G02X1078920Y1976930I-3822J9230D01*
G01X958250Y2097590D01*
G03X951190Y2100520I-7067J-7058D01*
G01X509920D01*
G02X502610Y2103700I-1J9990D01*
G03Y2052300I-27610J-25700D01*
G02X509920Y2055480I7309J-6810D01*
G01X932530D01*
G02X939600Y2052550I2J-9990D01*
G01X989820Y2002330D01*
G02X991990Y1991440I-7060J-7068D01*
G02X982760Y1985270I-9231J3821D01*
G01X597560D01*
G03X590500Y1982340I7J-9988D01*
G01X588640Y1980490D01*
X587210D01*
X282910Y1676180D01*
G03X279980Y1669120I7058J-7067D01*
G01Y1629890D01*
G02X273700Y1620610I-9990J-4D01*
G01X256450Y1613720D01*
G02X245510Y1616110I-3704J9277D01*
G01X245500D01*
G03Y1533390I-43500J-41360D01*
G01X245510D01*
G02X256450Y1535780I7236J-6887D01*
G01X273700Y1528890D01*
G02X279980Y1519610I-3710J-9276D01*
G01Y1519490D01*
G02X276740Y1512130I-9989J4D01*
G01X265880Y1502170D01*
G02X258260Y1499580I-6752J7362D01*
G03X217300Y1460650I-3262J-37580D01*
G02X214380Y1453230I-9982J-356D01*
G01X203610Y1442460D01*
G02X196540Y1439530I-7068J7060D01*
G01X60120D01*
X60040D01*
X52950Y1446600D01*
G02X50010Y1453670I7049J7078D01*
G37*
G36*
G01X499940Y1591440D02*
X483800Y1594310D01*
G02X476480Y1599950I1747J9838D01*
G01Y1599960D01*
G03X377120Y1614610I-54477J-25212D01*
G02X366600Y1611740I-7463J6641D01*
G01X361960Y1613220D01*
G02X355020Y1622740I3051J9514D01*
G01Y1638030D01*
G02X357950Y1645100I9990J2D01*
G01X619400Y1906550D01*
G02X626470Y1909480I7068J-7060D01*
G01X904530D01*
G02X911600Y1906550I2J-9990D01*
G01X923380Y1894770D01*
G02X926300Y1887350I-7062J-7064D01*
G03X1000430Y1876230I37696J-1352D01*
G02X1004230Y1881740I9650J-2590D01*
G01X1009400Y1885470D01*
G02X1015820Y1887340I5842J-8102D01*
G03X1034660Y1891160I2172J37658D01*
G02X1044350Y1890680I4413J-8962D01*
G01X1058770Y1881710D01*
G02X1063480Y1873230I-5280J-8481D01*
G01Y1688660D01*
G02X1059310Y1680550I-9989J9D01*
G01X1046110Y1671080D01*
G02X1037090Y1669730I-5825J8114D01*
G03X1004450Y1665630I-12089J-35730D01*
G02X999010Y1664020I-5438J8380D01*
G01X988870D01*
G02X981810Y1666950I7J9989D01*
G01X841660Y1807090D01*
G03X834600Y1810020I-7068J-7059D01*
G01X713080D01*
G03X706020Y1807090I8J-9989D01*
G01X667700Y1768770D01*
G03X664770Y1761710I7059J-7068D01*
G01Y1742970D01*
G02X660630Y1734870I-9990J-2D01*
G03X647760Y1709710I18158J-25160D01*
G01Y1676710D01*
G03X648050Y1672480I31030J2D01*
G02X645220Y1664050I-9897J-1368D01*
G01X633950Y1652780D01*
G02X625520Y1649950I-7062J7067D01*
G03X621290Y1650240I-4232J-30740D01*
G01X588290D01*
G03X558810Y1628900I0J-31032D01*
G01Y1628890D01*
G02X549320Y1622020I-9491J3120D01*
G01X540700D01*
G03X533640Y1619090I8J-9989D01*
G01X508760Y1594210D01*
G02X499940Y1591440I-7064J7066D01*
G37*
G36*
G01X1789580Y196950D02*
X1657570Y328960D01*
G02Y343080I7064J7060D01*
G01X1669540Y355050D01*
G02X1676600Y357980I7068J-7059D01*
G01X1697500D01*
G02X1704560Y355060I2J-9991D01*
G03X1726500Y345970I21940J21933D01*
G01X1759500D01*
G03X1790530Y377000I0J31030D01*
G01Y409000D01*
G03X1786880Y423610I-31032J8D01*
G02X1786090Y431060I8812J4701D01*
G01X1789910Y444420D01*
G02X1794520Y450320I9601J-2751D01*
G03X1796290Y451450I-12573J21645D01*
G01X1804860D01*
G02X1809750Y450170I-2J-9989D01*
G03X1834250I12250J21830D01*
G02X1839140Y451450I4892J-8709D01*
G01X1844860D01*
G02X1849750Y450170I-2J-9989D01*
G03X1874250I12250J21830D01*
G02X1879140Y451450I4892J-8709D01*
G01X1884860D01*
G02X1889750Y450170I-2J-9989D01*
G03X1914250I12250J21830D01*
G02X1919140Y451450I4892J-8709D01*
G01X1924860D01*
G02X1929750Y450170I-2J-9989D01*
G03X1954250I12250J21830D01*
G02X1959140Y451450I4892J-8709D01*
G01X1964860D01*
G02X1969750Y450170I-2J-9989D01*
G03X1994250I12250J21830D01*
G02X1999140Y451450I4892J-8709D01*
G01X2004860D01*
G02X2009750Y450170I-2J-9989D01*
G03X2034250I12250J21830D01*
G02X2039140Y451450I4892J-8709D01*
G01X2044860D01*
G02X2049750Y450170I-2J-9989D01*
G03X2074250I12250J21830D01*
G02X2079140Y451450I4892J-8709D01*
G01X2084860D01*
G02X2089750Y450170I-2J-9989D01*
G03X2114250I12250J21830D01*
G02X2119140Y451450I4892J-8709D01*
G01X2124860D01*
G02X2129750Y450170I-2J-9989D01*
G03X2167030Y472000I12249J21830D01*
G01Y602000D01*
G03X2129750Y623830I-25031J0D01*
G02X2124860Y622550I-4892J8709D01*
G01X2119140D01*
G02X2114250Y623830I2J9989D01*
G03X2103400Y626990I-12244J-21832D01*
G01X2103390D01*
G02X2096690Y630100I559J9976D01*
G01X2087250Y640080D01*
G02X2084520Y646950I7261J6863D01*
G01Y709190D01*
G03X2081590Y716250I-9988J-7D01*
G01X2007250Y790590D01*
G03X2000190Y793520I-7067J-7058D01*
G01X1846920D01*
G02X1839610Y796700I-1J9990D01*
G03X1787820Y799950I-27610J-25700D01*
G02X1777180Y798570I-6404J7668D01*
G01X1760780Y806240D01*
G02X1755020Y815290I4231J9051D01*
G01Y822690D01*
G03X1752090Y829750I-9988J-7D01*
G01X1709790Y872060D01*
G03X1709980Y873990I-9800J1939D01*
G01Y882030D01*
G03X1707050Y889100I-9990J2D01*
G01X1689070Y907080D01*
G02Y921200I7067J7060D01*
G01X1694590Y926730D01*
G03X1697520Y933790I-7058J7067D01*
G01Y1358190D01*
G03X1694590Y1365250I-9988J-7D01*
G01X1611620Y1448230D01*
G02X1608700Y1455650I7062J7064D01*
G03X1549710Y1488130I-37695J1347D01*
G01X1549700D01*
G02X1541260Y1486790I-5636J8249D01*
G01X1526420Y1491130D01*
G02X1520030Y1496800I2798J9590D01*
G03X1518830Y1499250I-23045J-9769D01*
G02X1517550Y1504140I8709J4892D01*
G01Y1509860D01*
G02X1518830Y1514750I9989J-2D01*
G03X1497000Y1552030I-21830J12249D01*
G01X1367000D01*
G03X1345170Y1514750I0J-25031D01*
G02X1346450Y1509860I-8709J-4892D01*
G01Y1504140D01*
G02X1345170Y1499250I-9989J2D01*
G03Y1474750I21830J-12250D01*
G02X1346450Y1469860I-8709J-4892D01*
G01Y1464140D01*
G02X1345170Y1459250I-9989J2D01*
G03X1342190Y1450340I21828J-12254D01*
G02X1338870Y1444150I-9901J1325D01*
G01X1328960Y1435490D01*
G02X1322390Y1433020I-6576J7520D01*
G01X1310610D01*
G02X1301690Y1438500I-6J9991D01*
G03X1274000Y1455530I-27690J-13996D01*
G01X1242000D01*
G03X1224890Y1450380I9J-31027D01*
G02X1215390Y1449550I-5514J8334D01*
G01X1210030Y1451890D01*
G02X1204020Y1461050I3979J9162D01*
G01Y1463640D01*
G02X1206950Y1470700I9989J-8D01*
G01X1230090Y1493850D01*
G03X1233020Y1500910I-7059J7067D01*
G01Y2013360D01*
G02X1235950Y2020420I9989J-8D01*
G01X1409580Y2194050D01*
G02X1416640Y2196980I7068J-7059D01*
G01X1696500D01*
G02X1703560Y2194060I2J-9991D01*
G03X1711500Y2188310I21941J21940D01*
G02X1716980Y2179390I-4511J-8914D01*
G01Y2176660D01*
G02X1706990Y2166670I-9990J0D01*
G01X1706270D01*
X1705560Y2166780D01*
G03X1689750Y2163830I-3557J-24778D01*
G02X1684860Y2162550I-4892J8709D01*
G01X1679140D01*
G02X1674250Y2163830I2J9989D01*
G03X1636970Y2142000I-12249J-21830D01*
G01Y2012000D01*
G03X1660600Y1987010I25029J0D01*
G01X1660610D01*
G02X1667310Y1983900I-559J-9976D01*
G01X1676750Y1973920D01*
G02X1679480Y1967050I-7261J-6863D01*
G01Y1965250D01*
X1681000Y1961580D01*
X1716000Y1926580D01*
G02X1718170Y1915690I-7060J-7068D01*
G02X1708940Y1909520I-9231J3821D01*
G01X1508090D01*
X1506300Y1910240D01*
G03X1497000Y1912030I-9296J-23241D01*
G01X1367000D01*
G03X1345170Y1874750I0J-25031D01*
G02X1346450Y1869860I-8709J-4892D01*
G01Y1864140D01*
G02X1345170Y1859250I-9989J2D01*
G03Y1834750I21830J-12250D01*
G02X1346450Y1829860I-8709J-4892D01*
G01Y1824140D01*
G02X1345170Y1819250I-9989J2D01*
G03Y1794750I21830J-12250D01*
G02X1346450Y1789860I-8709J-4892D01*
G01Y1784140D01*
G02X1345170Y1779250I-9989J2D01*
G03X1342550Y1761650I21831J-12245D01*
G01X1342780Y1760600D01*
Y1759510D01*
G02X1332790Y1749520I-9990J0D01*
G01X1330810D01*
G03X1323750Y1746590I7J-9988D01*
G01X1301410Y1724250D01*
G03X1298480Y1717190I7058J-7067D01*
G01Y1712660D01*
G02X1294470Y1704660I-9990J2D01*
G03X1329010Y1638680I22600J-30200D01*
G02X1335490Y1638630I3167J-9475D01*
G01X1341510Y1636510D01*
G02X1346410Y1632770I-3316J-9425D01*
G03X1346450Y1632710I20842J13852D01*
G01Y1624140D01*
G02X1345170Y1619250I-9989J2D01*
G03X1367000Y1581970I21830J-12249D01*
G01X1497000D01*
G03X1518830Y1619250I0J25031D01*
G02X1517550Y1624140I8709J4892D01*
G01Y1629860D01*
G02X1518830Y1634750I9989J-2D01*
G03X1497000Y1672030I-21830J12249D01*
G01X1367000D01*
G03X1365000Y1671950I0J-25040D01*
G01X1357200Y1678090D01*
G02X1353680Y1683540I6177J7851D01*
G03X1352010Y1688680I-36618J-9056D01*
G02X1362900Y1702310I9256J3770D01*
G03X1367000Y1701970I4111J24689D01*
G01X1497000D01*
G03X1521990Y1725600I0J25029D01*
G01Y1725610D01*
G02X1525100Y1732310I9976J-559D01*
G01X1535080Y1741750D01*
G02X1541950Y1744480I6863J-7261D01*
G01X1589730D01*
G02X1596800Y1741550I2J-9990D01*
G01X1597380Y1740970D01*
G02X1600300Y1733550I-7062J-7064D01*
G03X1667410Y1708590I37695J-1348D01*
G02X1675200Y1712320I7786J-6261D01*
G01X1690800D01*
G02X1698590Y1708590I4J-9991D01*
G03X1758390Y1709860I29412J23612D01*
G02X1766440Y1713940I8055J-5912D01*
G01X1782560D01*
G02X1790610Y1709860I-5J-9992D01*
G03X1846760Y1704650I30390J22341D01*
G01X1846770D01*
G02X1853980Y1707340I6828J-7292D01*
G01X1868180Y1706780D01*
G02X1875170Y1703540I-381J-9982D01*
G03X1933920Y1707400I27829J25461D01*
G02X1941880Y1711670I8194J-5720D01*
G01X1957990Y1712050D01*
G02X1966130Y1708160I227J-9988D01*
G03X1994650Y1768900I29868J23042D01*
G02X1987230Y1771820I-356J9982D01*
G01X1939130Y1819920D01*
G02X1936960Y1830810I7060J7068D01*
G02X1946190Y1836980I9231J-3821D01*
G01X2067230D01*
G03X2074290Y1839910I-8J9989D01*
G01X2164090Y1929710D01*
G03X2167020Y1936770I-7059J7068D01*
G01Y2011400D01*
G03X2167030Y2012000I-25018J717D01*
G01Y2142000D01*
G03X2167020Y2142600I-25028J-117D01*
G01Y2151500D01*
G03X2124750Y2169620I-25019J0D01*
G02X2120170Y2167140I-6882J7241D01*
G01X2114480Y2165790D01*
G02X2109270Y2165950I-2309J9719D01*
G03X2089750Y2163830I-7274J-23950D01*
G02X2084860Y2162550I-4892J8709D01*
G01X2079140D01*
G02X2074250Y2163830I2J9989D01*
G03X2049750I-12250J-21830D01*
G02X2044860Y2162550I-4892J8709D01*
G01X2039140D01*
G02X2034250Y2163830I2J9989D01*
G03X2009750I-12250J-21830D01*
G02X2004860Y2162550I-4892J8709D01*
G01X1999140D01*
G02X1994250Y2163830I2J9989D01*
G03X1969750I-12250J-21830D01*
G02X1964860Y2162550I-4892J8709D01*
G01X1959140D01*
G02X1954250Y2163830I2J9989D01*
G03X1929750I-12250J-21830D01*
G02X1924860Y2162550I-4892J8709D01*
G01X1919140D01*
G02X1914250Y2163830I2J9989D01*
G03X1889750I-12250J-21830D01*
G02X1884860Y2162550I-4892J8709D01*
G01X1879140D01*
G02X1874250Y2163830I2J9989D01*
G03X1849750I-12250J-21830D01*
G02X1844860Y2162550I-4892J8709D01*
G01X1839140D01*
G02X1834250Y2163830I2J9989D01*
G03X1809750I-12250J-21830D01*
G02X1804860Y2162550I-4892J8709D01*
G01X1799140D01*
G02X1794250Y2163830I2J9989D01*
G03X1778440Y2166780I-12253J-21828D01*
G01X1777730Y2166670D01*
X1777010D01*
G02X1767020Y2176660I0J9990D01*
G01Y2179390D01*
G02X1772500Y2188310I9991J6D01*
G03X1789530Y2216000I-13996J27690D01*
G01Y2248000D01*
G03X1780070Y2270310I-31037J0D01*
G02X1777020Y2277490I6939J7186D01*
G01Y2281880D01*
X1777590Y2283490D01*
G03X1778960Y2303510I-35591J12492D01*
G02X1781020Y2311820I9792J1983D01*
G01X1790820Y2323810D01*
G02X1798550Y2327480I7736J-6319D01*
G01X2061530D01*
G02X2068600Y2324550I2J-9990D01*
G01X2204750Y2188410D01*
G02X2207670Y2181270I-7071J-7059D01*
G01X2207570Y2167040D01*
G02X2204550Y2159940I-9990J57D01*
G03X2196970Y2142000I17440J-17940D01*
G01Y2012000D01*
G03X2234250Y1990170I25031J0D01*
G02X2239140Y1991450I4892J-8709D01*
G01X2244860D01*
G02X2249750Y1990170I-2J-9989D01*
G03X2274250I12250J21830D01*
G02X2279140Y1991450I4892J-8709D01*
G01X2284860D01*
G02X2289750Y1990170I-2J-9989D01*
G03X2314250I12250J21830D01*
G02X2319140Y1991450I4892J-8709D01*
G01X2324860D01*
G02X2329750Y1990170I-2J-9989D01*
G03X2354250I12250J21830D01*
G02X2359140Y1991450I4892J-8709D01*
G01X2364860D01*
G02X2369750Y1990170I-2J-9989D01*
G03X2394250I12250J21830D01*
G02X2399140Y1991450I4892J-8709D01*
G01X2404860D01*
G02X2409750Y1990170I-2J-9989D01*
G03X2419210Y1987130I12235J21835D01*
G01X2419220D01*
G02X2425550Y1983860I-1120J-9929D01*
G01X2434440Y1973920D01*
G02X2436980Y1967260I-7451J-6656D01*
G01Y1809770D01*
G03X2439910Y1802710I9989J8D01*
G01X2524050Y1718560D01*
G02X2526980Y1711500I-7058J-7067D01*
G01Y1696150D01*
G02X2523550Y1688610I-9992J-5D01*
G01X2512160Y1678710D01*
G02X2504220Y1676360I-6550J7542D01*
G03X2471320Y1613370I-5223J-37359D01*
G02X2473980Y1606590I-7329J-6787D01*
G01Y831470D01*
G03X2476910Y824410I9989J8D01*
G01X2489240Y812080D01*
G02X2491400Y801190I-7067J-7061D01*
G02X2482170Y795020I-9230J3819D01*
G01X2261770D01*
G03X2254710Y792090I8J-9989D01*
G01X2199910Y737290D01*
G03X2196980Y730230I7059J-7068D01*
G01Y602600D01*
G03X2196970Y602000I25018J-717D01*
G01Y472000D01*
G03X2234250Y450170I25031J0D01*
G02X2239140Y451450I4892J-8709D01*
G01X2244860D01*
G02X2249750Y450170I-2J-9989D01*
G03X2274250I12250J21830D01*
G02X2279140Y451450I4892J-8709D01*
G01X2284860D01*
G02X2289750Y450170I-2J-9989D01*
G03X2314250I12250J21830D01*
G02X2319140Y451450I4892J-8709D01*
G01X2324860D01*
G02X2329750Y450170I-2J-9989D01*
G03X2354250I12250J21830D01*
G02X2359140Y451450I4892J-8709D01*
G01X2364860D01*
G02X2369750Y450170I-2J-9989D01*
G03X2394250I12250J21830D01*
G02X2399140Y451450I4892J-8709D01*
G01X2404860D01*
G02X2409750Y450170I-2J-9989D01*
G03X2417590Y447360I12248J21830D01*
G02X2423950Y443340I-1764J-9832D01*
G01X2432070Y432000D01*
G02X2433820Y424680I-8124J-5811D01*
G01Y424670D01*
G03X2433470Y420000I30682J-4648D01*
G01Y388000D01*
G03X2437510Y372700I31027J9D01*
G02X2438810Y367770I-8693J-4929D01*
G01Y362230D01*
G02X2437510Y357300I-9993J-1D01*
G03X2433470Y342000I26987J-15309D01*
G01Y310000D01*
G03X2437400Y294890I31029J4D01*
G02X2438640Y289430I-8731J-4854D01*
G01X2438290Y283520D01*
G02X2436400Y278240I-9973J592D01*
G03X2430470Y260000I25087J-18240D01*
G01Y228000D01*
G03X2431660Y219490I31024J0D01*
G02X2430030Y210730I-9607J-2744D01*
G01X2420410Y197990D01*
G02X2412440Y194020I-7972J6020D01*
G01X1796640D01*
G02X1789580Y196950I8J9989D01*
G37*
G36*
G01X2445480Y463340D02*
G03X2447030Y472000I-23478J8671D01*
G01Y602000D01*
G03X2409750Y623830I-25031J0D01*
G02X2404860Y622550I-4892J8709D01*
G01X2399140D01*
G02X2394250Y623830I2J9989D01*
G03X2369750I-12250J-21830D01*
G02X2364860Y622550I-4892J8709D01*
G01X2359140D01*
G02X2354250Y623830I2J9989D01*
G03X2329750I-12250J-21830D01*
G02X2324860Y622550I-4892J8709D01*
G01X2319140D01*
G02X2314250Y623830I2J9989D01*
G03X2289750I-12250J-21830D01*
G02X2284860Y622550I-4892J8709D01*
G01X2279140D01*
G02X2274250Y623830I2J9989D01*
G03X2264790Y626870I-12235J-21835D01*
G01X2264780D01*
G02X2258450Y630140I1120J9929D01*
G01X2249560Y640080D01*
G02X2247020Y646740I7451J6656D01*
G01Y709500D01*
G02X2249950Y716560I9988J-7D01*
G01X2275440Y742050D01*
G02X2282500Y744980I7067J-7058D01*
G01X2427510D01*
G02X2435650Y740780I-1J-9991D01*
G01X2445090Y727490D01*
G02X2446380Y718410I-8142J-5788D01*
G03X2470130Y670200I35620J-12407D01*
G02X2476980Y660710I-3141J-9485D01*
G01Y602600D01*
G03X2476970Y602000I25018J-717D01*
G01Y472000D01*
G03X2476980Y471400I25028J117D01*
G01Y461020D01*
G02X2466990Y451030I-9990J0D01*
G01X2464500D01*
G03X2457210Y450160I6J-31029D01*
G02X2445480Y463340I-2353J9716D01*
G37*
G36*
G01X2847030Y553010D02*
Y602000D01*
G03X2809750Y623830I-25031J0D01*
G02X2804860Y622550I-4892J8709D01*
G01X2799140D01*
G02X2794250Y623830I2J9989D01*
G03X2784790Y626870I-12235J-21835D01*
G01X2784780D01*
G02X2778450Y630140I1120J9929D01*
G01X2769560Y640080D01*
G02X2767020Y646740I7451J6656D01*
G01Y659230D01*
G03X2764090Y666290I-9989J-8D01*
G01X2694950Y735440D01*
G02X2692020Y742500I7058J7067D01*
G01Y991470D01*
G02X2698190Y1000700I9989J0D01*
G02X2709080Y998540I3829J-9227D01*
G01X2786000Y921620D01*
G02X2788850Y915760I-7067J-7060D01*
G01X2790340Y903520D01*
G02X2788980Y897150I-9916J-1213D01*
G03X2788300Y895810I8541J-5177D01*
G03X2790460Y884920I9227J-3829D01*
G01X2836050Y839330D01*
G02X2838980Y832270I-7059J-7067D01*
G01Y661770D01*
G03X2841910Y654710I9989J8D01*
G01X2904660Y591950D01*
G02X2907590Y584980I-7058J-7068D01*
G01X2907640Y578810D01*
G02X2905530Y572580I-9989J-89D01*
G03X2898970Y553500I24467J-19080D01*
G01Y553010D01*
G02X2888980Y543020I-9990J0D01*
G01X2857020D01*
G02X2847030Y553010I0J9990D01*
G37*
G36*
G01X1874250Y623830D02*
G03X1859150Y626870I-12251J-21829D01*
G01X1858590Y626800D01*
X1858010D01*
G02X1848020Y636790I0J9990D01*
G01Y639360D01*
X1820290Y667090D01*
G03X1813230Y670020I-7068J-7059D01*
G01X1753770D01*
G03X1746710Y667090I8J-9989D01*
G01X1719910Y640290D01*
G03X1716980Y633230I7059J-7068D01*
G01Y632520D01*
X1711130Y626670D01*
X1706270D01*
X1705560Y626780D01*
G03X1692110Y624990I-3547J-24778D01*
G01X1692100D01*
G02X1681090Y627100I-3948J9177D01*
G01X1681080Y627110D01*
G02Y641240I7067J7065D01*
G01X1752090Y712250D01*
G03X1755020Y719310I-7058J7067D01*
G01Y726710D01*
G02X1760780Y735760I9991J-1D01*
G01X1777180Y743430D01*
G02X1787820Y742050I4236J-9048D01*
G03X1839610Y745300I24180J28950D01*
G02X1846920Y748480I7309J-6810D01*
G01X1981530D01*
G02X1988600Y745550I2J-9990D01*
G01X2012860Y721290D01*
G02X2015400Y711500I-7068J-7058D01*
G01X2010630Y694700D01*
G02X2003320Y687710I-9608J2730D01*
G03X1975750Y640570I8680J-36709D01*
G02X1975400Y634030I-9601J-2766D01*
G01X1972970Y628090D01*
G02X1968940Y623350I-9248J3780D01*
G03X1967710Y622550I13026J-21373D01*
G01X1959140D01*
G02X1954250Y623830I2J9989D01*
G03X1929750I-12250J-21830D01*
G02X1924860Y622550I-4892J8709D01*
G01X1919140D01*
G02X1914250Y623830I2J9989D01*
G03X1889750I-12250J-21830D01*
G02X1884860Y622550I-4892J8709D01*
G01X1879140D01*
G02X1874250Y623830I2J9989D01*
G37*
G36*
G01X2594250D02*
G03X2584790Y626870I-12235J-21835D01*
G01X2584780D01*
G02X2578450Y630140I1120J9929D01*
G01X2569560Y640080D01*
G02X2567020Y646740I7451J6656D01*
G01Y710170D01*
G02X2573190Y719400I9989J0D01*
G02X2584080Y717240I3829J-9227D01*
G01X2658770Y642540D01*
G02Y628410I-7060J-7065D01*
G02X2654640Y625920I-7071J7058D01*
G03X2649750Y623830I7336J-23930D01*
G02X2644860Y622550I-4892J8709D01*
G01X2639140D01*
G02X2634250Y623830I2J9989D01*
G03X2609750I-12250J-21830D01*
G02X2604860Y622550I-4892J8709D01*
G01X2599140D01*
G02X2594250Y623830I2J9989D01*
G37*
G36*
G01X1588620Y677580D02*
X1614100Y703070D01*
G03X1617030Y710130I-7058J7067D01*
G01Y768680D01*
G03X1614100Y775740I-9988J-7D01*
G01X1599060Y790790D01*
G02Y804910I7066J7060D01*
G01Y804920D01*
G03X1601990Y811980I-7059J7068D01*
G01Y847610D01*
G02X1608160Y856840I9991J-1D01*
G02X1619050Y854670I3822J-9230D01*
G01X1659550Y814170D01*
G02X1662480Y807100I-7060J-7068D01*
G01Y804120D01*
G02X1659300Y796810I-9990J-1D01*
G03X1670960Y734190I25700J-27610D01*
G02X1677030Y726920I-3717J-9272D01*
G01X1680380Y710570D01*
G02X1677660Y701500I-9788J-2007D01*
G01X1639600Y663450D01*
G02X1632530Y660520I-7068J7060D01*
G01X1595680D01*
G02X1586450Y666690I1J9991D01*
G02X1588620Y677580I9230J3822D01*
G37*
G36*
G01X2887740Y2331980D02*
X2874130Y2332450D01*
G02X2869700Y2333660I346J9982D01*
G01X2864060Y2336720D01*
X2862800Y2338310D01*
G03X2838500Y2350030I-24300J-19332D01*
G01X2805500D01*
G03X2787460Y2344250I0J-31042D01*
G01X2786280Y2343410D01*
X2781810Y2341870D01*
G02X2778560Y2341320I-3269J9437D01*
G01X2775440D01*
G02X2772190Y2341870I19J9987D01*
G01X2767720Y2343410D01*
X2766540Y2344250D01*
G03X2748500Y2350030I-18040J-25262D01*
G01X2715500D01*
G03X2689670Y2336190I0J-31024D01*
G02X2682780Y2331840I-8315J5538D01*
G01X2668040Y2329710D01*
G02X2660210Y2331940I-1417J9887D01*
G01X2660200D01*
G03X2611540Y2331720I-24200J-28937D01*
G01X2610260Y2330630D01*
X2605340Y2328710D01*
G02X2601700Y2328020I-3648J9299D01*
G01X2582070D01*
G03X2575010Y2325090I8J-9989D01*
G01X2563860Y2313950D01*
G02X2556800Y2311020I-7067J7058D01*
G01X2291500D01*
G02X2284600Y2313790I4J9989D01*
G01X2130290Y2468090D01*
G03X2123230Y2471020I-7068J-7059D01*
G01X1706730D01*
G02X1697500Y2477190I0J9988D01*
G01X1697490D01*
G02X1699660Y2488080I9232J3822D01*
G01X1734670Y2523090D01*
G03X1737600Y2530160I-7060J7068D01*
G01Y2580740D01*
G02X1740020Y2587260I9990J1D01*
G01Y2587270D01*
G03X1745610Y2602290I-17432J15038D01*
G01Y2618290D01*
G03X1740020Y2633310I-23022J-18D01*
G01Y2633320D01*
G02X1737600Y2639840I7570J6519D01*
G01Y2657610D01*
G02X1747590Y2667600I9990J0D01*
G01X1747600D01*
X1749520Y2667410D01*
X1749540D01*
G03X1754000Y2666970I4480J22588D01*
G01X1770000D01*
G03X1793030Y2690000I0J23030D01*
G01Y2710010D01*
G03X1792890Y2712580I-23032J34D01*
G01X1792830Y2713130D01*
Y2713690D01*
G02X1802820Y2723680I9990J0D01*
G01X1804040D01*
X1804560Y2723630D01*
G03X1807470Y2723470I3019J28367D01*
G01X1834500D01*
G03X1843140Y2724810I0J28524D01*
G01X1844620Y2725280D01*
X1849880D01*
G03X1856870Y2728130I3J9990D01*
G02X1863860Y2730980I6987J-7140D01*
G01X1899350D01*
G02X1906420Y2728050I2J-9990D01*
G01X2015560Y2618910D01*
G03X2022630Y2615980I7068J7060D01*
G01X2168710D01*
G02X2178470Y2608120I0J-9990D01*
G03X2289290Y2577350I63535J13876D01*
G01X2290650Y2578790D01*
X2296100Y2581240D01*
G02X2300190Y2582110I4078J-9122D01*
G01X2310810D01*
G02X2314900Y2581240I12J-9992D01*
G01X2320350Y2578790D01*
X2321710Y2577350D01*
G03X2324350Y2574710I47290J44650D01*
G01X2325790Y2573350D01*
X2328240Y2567900D01*
G02X2329110Y2563810I-9122J-4078D01*
G01Y2553190D01*
G02X2328240Y2549100I-9992J-12D01*
G01X2325790Y2543650D01*
X2324350Y2542290D01*
G03X2416290Y2450350I44650J-47290D01*
G01X2417650Y2451790D01*
X2423100Y2454240D01*
G02X2427190Y2455110I4078J-9122D01*
G01X2437810D01*
G02X2441900Y2454240I12J-9992D01*
G01X2447350Y2451790D01*
X2448710Y2450350D01*
G03X2543290I47290J44650D01*
G01X2544650Y2451790D01*
X2550100Y2454240D01*
G02X2554190Y2455110I4078J-9122D01*
G01X2564810D01*
G02X2568900Y2454240I12J-9992D01*
G01X2574350Y2451790D01*
X2575710Y2450350D01*
G03X2670290I47290J44650D01*
G01X2671650Y2451790D01*
X2677100Y2454240D01*
G02X2681190Y2455110I4078J-9122D01*
G01X2691810D01*
G02X2695900Y2454240I12J-9992D01*
G01X2701350Y2451790D01*
X2702710Y2450350D01*
G03X2797290I47290J44650D01*
G01X2798650Y2451790D01*
X2804100Y2454240D01*
G02X2808190Y2455110I4078J-9122D01*
G01X2818810D01*
G02X2822900Y2454240I12J-9992D01*
G01X2828350Y2451790D01*
X2829710Y2450350D01*
G03X2866940Y2430750I47282J44652D01*
G02X2873420Y2426830I-1545J-9870D01*
G01X2881670Y2415700D01*
G02X2883640Y2409750I-8019J-5956D01*
G01Y2408260D01*
X2883560Y2407640D01*
G03X2897690Y2373340I37437J-4638D01*
G01X2899300Y2372080D01*
X2902350Y2366510D01*
G02X2903570Y2362170I-8761J-4804D01*
G01X2904180Y2348760D01*
G02X2901260Y2341230I-9979J-461D01*
G01X2900760Y2340730D01*
X2900490Y2340500D01*
G03X2895860Y2335700I24731J-28488D01*
G01Y2335690D01*
G02X2887740Y2331980I-7774J6274D01*
G37*
G36*
G01X1518830Y1074750D02*
G03Y1099250I-21830J12250D01*
G02X1517550Y1104140I8709J4892D01*
G01Y1109860D01*
G02X1518830Y1114750I9989J-2D01*
G03Y1139250I-21830J12250D01*
G02X1517550Y1144140I8709J4892D01*
G01Y1149860D01*
G02X1518830Y1154750I9989J-2D01*
G03Y1179250I-21830J12250D01*
G02X1517550Y1184140I8709J4892D01*
G01Y1189860D01*
G02X1518830Y1194750I9989J-2D01*
G03X1521870Y1204210I-21835J12235D01*
G01Y1204230D01*
G02X1525140Y1210550I9927J-1130D01*
G01X1535080Y1219440D01*
G02X1541740Y1221980I6656J-7450D01*
G01X1565220D01*
G03X1572290Y1224910I2J9990D01*
G01X1620090Y1272710D01*
G03X1623020Y1279780I-7060J7068D01*
G01Y1349000D01*
G02X1629190Y1358230I9988J0D01*
G01Y1358240D01*
G02X1640080Y1356070I3822J-9232D01*
G01X1649550Y1346600D01*
G02X1652480Y1339530I-7060J-7068D01*
G01Y952460D01*
G02X1649550Y945390I-9990J-2D01*
G01X1648640Y944480D01*
X1641510D01*
G02X1634440Y947410I-2J9990D01*
G01X1595260Y986590D01*
G03X1588190Y989520I-7068J-7060D01*
G01X1541940D01*
G02X1535080Y992250I3J9991D01*
G01X1525100Y1001690D01*
G02X1521990Y1008390I6864J7258D01*
G01Y1008400D01*
G03X1518830Y1019250I-24992J-1394D01*
G02X1517550Y1024140I8709J4892D01*
G01Y1029860D01*
G02X1518830Y1034750I9989J-2D01*
G03Y1059250I-21830J12250D01*
G02X1517550Y1064140I8709J4892D01*
G01Y1069860D01*
G02X1518830Y1074750I9989J-2D01*
G37*
G36*
G01X2853390Y974500D02*
X2767950Y1059940D01*
G02X2765020Y1067000I7058J7067D01*
G01Y1241500D01*
G02X2767950Y1248560I9988J-7D01*
G01X2778440Y1259050D01*
G02X2785500Y1261980I7067J-7058D01*
G01X2906400D01*
G03X2907000Y1261970I717J25018D01*
G01X3037000D01*
G03X3037600Y1261980I-117J25028D01*
G01X3072390D01*
G02X3081310Y1256500I6J-9991D01*
G03X3083380Y1252990I27705J13974D01*
G02X3084330Y1243450I-8245J-5638D01*
G01X3082060Y1238100D01*
G02X3072870Y1232020I-9193J3910D01*
G01X3037600D01*
G03X3037000Y1232030I-717J-25018D01*
G01X2907000D01*
G03X2906400Y1232020I117J-25028D01*
G01X2871770D01*
X2870340Y1232460D01*
G03X2869140Y1159980I-11041J-36067D01*
G02X2875480Y1159600I2603J-9647D01*
G01X2881330Y1157240D01*
G02X2885990Y1153400I-3726J-9269D01*
G03X2886450Y1152710I21053J13537D01*
G01Y1144140D01*
G02X2885170Y1139250I-9989J2D01*
G03Y1114750I21830J-12250D01*
G02X2886450Y1109860I-8709J-4892D01*
G01Y1104140D01*
G02X2885170Y1099250I-9989J2D01*
G03Y1074750I21830J-12250D01*
G02X2886450Y1069860I-8709J-4892D01*
G01Y1064140D01*
G02X2885170Y1059250I-9989J2D01*
G03Y1034750I21830J-12250D01*
G02X2886450Y1029860I-8709J-4892D01*
G01Y1024140D01*
G02X2885170Y1019250I-9989J2D01*
G03Y994750I21830J-12250D01*
G02X2886450Y989860I-8709J-4892D01*
G01Y984140D01*
G02X2885170Y979250I-9989J2D01*
G03X2885050Y979030I21914J-12096D01*
G02X2877700Y973940I-8761J4799D01*
G01X2861860Y971670D01*
G02X2853390Y974500I-1403J9890D01*
G37*
G36*
G01X2065950Y1935570D02*
G03X2007390Y1939700I-30947J-21569D01*
G02X2000080Y1936520I-7309J6810D01*
G01X1865840D01*
G02X1858770Y1939450I-2J9990D01*
G01X1826380Y1971840D01*
G02Y1985960I7066J7060D01*
G01X1828010Y1987590D01*
X1830180Y1988350D01*
G03X1834250Y1990170I-8142J23668D01*
G02X1839140Y1991450I4892J-8709D01*
G01X1844860D01*
G02X1849750Y1990170I-2J-9989D01*
G03X1874250I12250J21830D01*
G02X1879140Y1991450I4892J-8709D01*
G01X1884860D01*
G02X1889750Y1990170I-2J-9989D01*
G03X1914250I12250J21830D01*
G02X1919140Y1991450I4892J-8709D01*
G01X1924860D01*
G02X1929750Y1990170I-2J-9989D01*
G03X1954250I12250J21830D01*
G02X1959140Y1991450I4892J-8709D01*
G01X1964860D01*
G02X1969750Y1990170I-2J-9989D01*
G03X1994250I12250J21830D01*
G02X1999140Y1991450I4892J-8709D01*
G01X2004860D01*
G02X2009750Y1990170I-2J-9989D01*
G03X2034250I12250J21830D01*
G02X2039140Y1991450I4892J-8709D01*
G01X2044860D01*
G02X2049750Y1990170I-2J-9989D01*
G03X2074250I12250J21830D01*
G02X2079140Y1991450I4892J-8709D01*
G01X2084860D01*
G02X2089750Y1990170I-2J-9989D01*
G03X2099210Y1987130I12235J21835D01*
G01X2099220D01*
G02X2105550Y1983860I-1120J-9929D01*
G01X2114440Y1973920D01*
G02X2116980Y1967260I-7451J-6656D01*
G01Y1957500D01*
G02X2114050Y1950440I-9988J7D01*
G01X2096480Y1932860D01*
G02X2088530Y1929970I-7068J7063D01*
G01X2073260Y1931330D01*
G02X2065950Y1935570I886J9948D01*
G37*
G36*
G01X2809750Y1990170D02*
G03X2811740Y1989170I12223J21843D01*
G01X2813410Y1988420D01*
X2814710Y1987120D01*
G02Y1972990I-7062J-7065D01*
G01X2762170Y1920450D01*
G02X2755100Y1917520I-7068J7060D01*
G01X2661340D01*
G02X2653890Y1920860I5J9989D01*
G01X2643960Y1931980D01*
G02X2641480Y1939760I7446J6659D01*
G03X2629000Y1972250I-37481J4245D01*
G02X2631730Y1988940I6622J7485D01*
G03X2634250Y1990170I-9702J23074D01*
G02X2639140Y1991450I4892J-8709D01*
G01X2644860D01*
G02X2649750Y1990170I-2J-9989D01*
G03X2674250I12250J21830D01*
G02X2679140Y1991450I4892J-8709D01*
G01X2684860D01*
G02X2689750Y1990170I-2J-9989D01*
G03X2714250I12250J21830D01*
G02X2719140Y1991450I4892J-8709D01*
G01X2724860D01*
G02X2729750Y1990170I-2J-9989D01*
G03X2754250I12250J21830D01*
G02X2759140Y1991450I4892J-8709D01*
G01X2764860D01*
G02X2769750Y1990170I-2J-9989D01*
G03X2794250I12250J21830D01*
G02X2799140Y1991450I4892J-8709D01*
G01X2804860D01*
G02X2809750Y1990170I-2J-9989D01*
G37*
G36*
G01X2634680Y1339950D02*
X2634670D01*
G03X2605450Y1355690I-30673J-21950D01*
G02X2598770Y1358610I386J9984D01*
G01X2579950Y1377440D01*
G02X2577020Y1384500I7058J7067D01*
G01Y1732230D01*
G03X2574090Y1739290I-9989J-8D01*
G01X2489950Y1823440D01*
G02X2487020Y1830500I7058J7067D01*
G01Y1894010D01*
G02X2493190Y1903240I9991J-1D01*
G02X2504080Y1901070I3822J-9230D01*
G01X2559750Y1845410D01*
G03X2566810Y1842480I7067J7058D01*
G01X2648700D01*
G02X2656710Y1838460I0J-9990D01*
G01X2666290Y1825610D01*
G02X2667850Y1816780I-8011J-5968D01*
G03X2715600Y1770110I36148J-10778D01*
G01X2715610D01*
G02X2723610Y1769290I3068J-9506D01*
G01X2736430Y1762020D01*
G02X2741240Y1755560I-4930J-8691D01*
G03X2776550Y1726310I36762J8440D01*
G02X2783230Y1723390I-386J-9984D01*
G01X2829240Y1677370D01*
G02X2832170Y1670310I-7058J-7067D01*
G01Y1440690D01*
G02X2829240Y1433630I-9988J7D01*
G01X2741080Y1345460D01*
G02X2730190Y1343300I-7061J7067D01*
G02X2724020Y1352530I3819J9230D01*
G01Y1510290D01*
G02X2726680Y1517070I9989J-7D01*
G03X2671320I-27680J25630D01*
G02X2673980Y1510290I-7329J-6787D01*
G01Y1350500D01*
G02X2671050Y1343440I-9988J7D01*
G01X2665060Y1337450D01*
G02X2657180Y1334560I-7060J7063D01*
G01X2641980Y1335810D01*
G02X2634680Y1339950I821J9954D01*
G37*
G36*
G01X1520160Y2445010D02*
Y2445370D01*
X1520180Y2445710D01*
G03X1520240Y2447330I-23093J1666D01*
G01Y2516090D01*
G03X1497090Y2539240I-23155J-5D01*
G01X1473330D01*
G03X1461070Y2535730I-3J-23156D01*
G02X1455790Y2534210I-5297J8469D01*
G01X1449630D01*
G02X1444350Y2535730I17J9989D01*
G03X1432090Y2539240I-12257J-19646D01*
G01X1408330D01*
G03X1404410Y2538900I33J-23153D01*
G01X1403570Y2538760D01*
X1402710D01*
G02X1392720Y2548750I0J9990D01*
G01Y2705290D01*
G02X1402710Y2715280I9990J0D01*
G01X1507730D01*
G03X1517720Y2725270I0J9990D01*
G01Y2725280D01*
X1531160D01*
X1532420Y2724950D01*
G03X1538330Y2724180I5922J22384D01*
G01X1562090D01*
G03X1568000Y2724950I-12J23154D01*
G01X1569260Y2725280D01*
X1596160D01*
X1597420Y2724950D01*
G03X1603330Y2724180I5922J22384D01*
G01X1627090D01*
G03X1633000Y2724950I-12J23154D01*
G01X1634260Y2725280D01*
X1671670D01*
G02X1681660Y2715290I0J-9990D01*
G01Y2714500D01*
X1681540Y2713720D01*
G03X1681260Y2710130I22751J-3580D01*
G01Y2690130D01*
G03X1685450Y2676880I23031J-4D01*
G02X1687270Y2671140I-8169J-5749D01*
G01Y2670640D01*
X1687560Y2670350D01*
Y2639850D01*
G02X1685140Y2633330I-9990J-1D01*
G03X1679550Y2618290I17438J-15040D01*
G01Y2602290D01*
G03X1685140Y2587250I23028J0D01*
G02X1687560Y2580730I-7570J-6519D01*
G01Y2550880D01*
G02X1684630Y2543820I-9988J7D01*
G01X1672490Y2531670D01*
G02X1665300Y2528750I-7059J7069D01*
G01X1650980Y2528930D01*
G02X1643870Y2532040I134J9988D01*
G03X1627090Y2539240I-16781J-15956D01*
G01X1603330D01*
G03X1580180Y2516090I5J-23155D01*
G01Y2447330D01*
G03X1580240Y2445710I23153J46D01*
G01X1580260Y2445370D01*
Y2445010D01*
G02X1570270Y2435020I-9990J0D01*
G01X1530150D01*
G02X1520160Y2445010I0J9990D01*
G37*
G36*
G01X1047000Y2660010D02*
G02X1056990Y2670000I9990J0D01*
G01X1282010D01*
G03X1292000Y2679990I0J9990D01*
G01Y2813010D01*
G02X1301990Y2823000I9990J0D01*
G01X1495010D01*
G02X1505000Y2813010I0J-9990D01*
G01Y2739230D01*
G02X1495010Y2729240I-9990J0D01*
G01X1387670D01*
G03X1377680Y2719250I0J-9990D01*
G01Y2560990D01*
G02X1367690Y2551000I-9990J0D01*
G01X1221530D01*
X1221450D01*
X1057080Y2549550D01*
G02X1047000Y2559540I-90J9990D01*
G01Y2660010D01*
G37*
G36*
G01X1847000Y2747990D02*
G02X1837010Y2738000I-9990J0D01*
G01X1534990D01*
G02X1525000Y2747990I0J9990D01*
G01Y2815010D01*
G02X1534990Y2825000I9990J0D01*
G01X1837010D01*
G02X1847000Y2815010I0J-9990D01*
G01Y2747990D01*
G37*
G36*
G01X3673130Y1206610D02*
G03X3642760Y1207160I-16143J-52610D01*
G01Y1207150D01*
G02X3633110Y1209740I-2582J9652D01*
G01X3524450Y1318400D01*
G02X3521520Y1325470I7060J7068D01*
G01Y1512510D01*
G02X3527690Y1521740I9991J-1D01*
G02X3538580Y1519570I3822J-9230D01*
G01X3608810Y1449340D01*
G02X3610240Y1437010I-7061J-7067D01*
G03X3671240Y1354840I46761J-29013D01*
G01Y1354850D01*
G02X3680890Y1352260I2582J-9652D01*
G01X3696050Y1337100D01*
G02X3698980Y1330030I-7060J-7068D01*
G01Y1225720D01*
G02X3694930Y1217690I-9990J2D01*
G01X3682000Y1208130D01*
G02X3673130Y1206610I-5942J8032D01*
G37*
G36*
G01X3407490Y1738480D02*
X3555460D01*
G02X3564580Y1732580I5J-9990D01*
G01X3572050Y1715940D01*
G02X3570400Y1705210I-9114J-4090D01*
G03X3682490Y1647930I48600J-43209D01*
G02X3685180Y1652840I9756J-2153D01*
G02X3699310I7065J-7064D01*
G01X3703550Y1648600D01*
G02X3706480Y1641530I-7060J-7068D01*
G01Y1584810D01*
G03X3709410Y1577750I9988J7D01*
G01X3728260Y1558890D01*
G02X3730850Y1549240I-7062J-7068D01*
G01X3730840D01*
G03X3731060Y1519970I53159J-14236D01*
G02X3729420Y1511220I-9608J-2728D01*
G01X3719810Y1498490D01*
G02X3711840Y1494520I-7973J6021D01*
G01X3631470D01*
G02X3624400Y1497450I-2J9990D01*
G01X3400430Y1721420D01*
G02X3398260Y1732310I7060J7068D01*
G02X3407490Y1738480I9231J-3821D01*
G37*
G36*
G01X3075080Y954560D02*
X3065140Y963450D01*
G02X3061870Y969780I6659J7450D01*
G01Y969790D01*
G03X3058830Y979250I-24875J-2775D01*
G02X3057550Y984140I8709J4892D01*
G01Y989860D01*
G02X3058830Y994750I9989J-2D01*
G03Y1019250I-21830J12250D01*
G02X3057550Y1024140I8709J4892D01*
G01Y1029860D01*
G02X3058830Y1034750I9989J-2D01*
G03Y1059250I-21830J12250D01*
G02X3057550Y1064140I8709J4892D01*
G01Y1069860D01*
G02X3058830Y1074750I9989J-2D01*
G03Y1099250I-21830J12250D01*
G02X3057550Y1104140I8709J4892D01*
G01Y1109860D01*
G02X3058830Y1114750I9989J-2D01*
G03Y1139250I-21830J12250D01*
G02X3057550Y1144140I8709J4892D01*
G01Y1149860D01*
G02X3058830Y1154750I9989J-2D01*
G03X3061450Y1161650I-21834J12238D01*
G02X3080420Y1163410I9765J-2133D01*
G03X3109000Y1144470I28580J12093D01*
G01X3141000D01*
G03X3159550Y1150630I-6J31028D01*
G02X3165520Y1152610I5971J-8012D01*
G01X3177480D01*
G02X3183450Y1150630I-1J-9992D01*
G03X3202000Y1144470I18556J24868D01*
G01X3234000D01*
G03X3252550Y1150630I-6J31028D01*
G02X3258520Y1152610I5971J-8012D01*
G01X3270480D01*
G02X3276450Y1150630I-1J-9992D01*
G03X3295000Y1144470I18556J24868D01*
G01X3327000D01*
G03X3358030Y1175500I0J31030D01*
G01Y1208500D01*
G03X3327000Y1239530I-31030J0D01*
G01X3295000D01*
G03X3276450Y1233370I6J-31028D01*
G02X3270480Y1231390I-5971J8012D01*
G01X3258520D01*
G02X3252550Y1233370I1J9992D01*
G03X3234000Y1239530I-18556J-24868D01*
G01X3226730D01*
G02X3216740Y1249520I0J9990D01*
G01Y1249530D01*
G02X3222180Y1258420I9991J-5D01*
G01X3222190D01*
G03X3239010Y1275680I-17190J33578D01*
G01X3239750Y1277220D01*
X3305090Y1342570D01*
G03X3308020Y1349630I-7059J7067D01*
G01Y1568370D01*
G03X3305090Y1575430I-9989J-7D01*
G01X3170380Y1710140D01*
X3169660Y1711560D01*
G03X3146040Y1728270I-27665J-14056D01*
G02X3140280Y1731110I1302J9902D01*
G01X3111020Y1760360D01*
Y1761060D01*
X3104660Y1767420D01*
G02X3102500Y1778310I7067J7061D01*
G02X3111730Y1784480I9230J-3819D01*
G01X3181530D01*
G02X3188600Y1781550I2J-9990D01*
G01X3439550Y1530600D01*
G02X3442480Y1523530I-7060J-7068D01*
G01Y1222810D01*
G03X3445410Y1215750I9988J7D01*
G01X3591250Y1069910D01*
G03X3598310Y1066980I7067J7058D01*
G01X3599310D01*
G02X3609300Y1056990I0J-9990D01*
G01Y1054540D01*
X3608170Y1052380D01*
G03X3603260Y1015160I48830J-25375D01*
G02X3600570Y1005950I-9758J-2148D01*
G01X3549560Y954950D01*
G02X3542500Y952020I-7067J7058D01*
G01X3081740D01*
G02X3075080Y954560I-4J9991D01*
G37*
G36*
G01X3061670Y1322010D02*
Y1322730D01*
X3061780Y1323440D01*
G03X3058830Y1339250I-24778J3557D01*
G02X3057550Y1344140I8709J4892D01*
G01Y1349860D01*
G02X3058830Y1354750I9989J-2D01*
G03Y1379250I-21830J12250D01*
G02X3057550Y1384140I8709J4892D01*
G01Y1389860D01*
G02X3058830Y1394750I9989J-2D01*
G03Y1419250I-21830J12250D01*
G02X3057550Y1424140I8709J4892D01*
G01Y1429860D01*
G02X3058830Y1434750I9989J-2D01*
G03Y1459250I-21830J12250D01*
G02X3057550Y1464140I8709J4892D01*
G01Y1469860D01*
G02X3058830Y1474750I9989J-2D01*
G03Y1499250I-21830J12250D01*
G02X3057550Y1504140I8709J4892D01*
G01Y1509860D01*
G02X3058830Y1514750I9989J-2D01*
G03Y1539250I-21830J12250D01*
G02X3057550Y1544140I8709J4892D01*
G01Y1549860D01*
G02X3058830Y1554750I9989J-2D01*
G03Y1579250I-21830J12250D01*
G02X3057550Y1584140I8709J4892D01*
G01Y1589860D01*
G02X3058830Y1594750I9989J-2D01*
G03Y1619250I-21830J12250D01*
G02X3057550Y1624140I8709J4892D01*
G01Y1629860D01*
G02X3058830Y1634750I9989J-2D01*
G03X3059090Y1635230I-21878J12161D01*
G02X3066060Y1640350I8817J-4699D01*
G01X3081410Y1643220D01*
G02X3089760Y1640980I1842J-9817D01*
G03X3110000Y1633470I20240J23519D01*
G01X3142000D01*
G03X3143380Y1633500I16J31030D01*
G02X3150890Y1630580I443J-9979D01*
G01X3235050Y1546420D01*
G02X3237980Y1539360I-7059J-7068D01*
G01Y1378640D01*
G02X3235050Y1371580I-9989J8D01*
G01X3193420Y1329950D01*
G02X3186360Y1327020I-7068J7059D01*
G01X3164660D01*
G02X3158900Y1328850I3J9989D01*
G03X3141000Y1334530I-17896J-25351D01*
G01X3109000D01*
G03X3081310Y1317500I0J-31026D01*
G02X3072390Y1312020I-8914J4511D01*
G01X3071660D01*
G02X3061670Y1322010I0J9990D01*
G37*
%LPC*%
G75*
G36*
G01X2407020Y1805010D02*
Y1235990D01*
G03X2408630Y1230550I9990J-2D01*
G02X2345370I-31630J-20550D01*
G03X2346980Y1235990I-8380J5438D01*
G01Y1805010D01*
G03X2345370Y1810450I-9990J2D01*
G02X2408630I31630J20550D01*
G03X2407020Y1805010I8380J-5438D01*
G37*
G54D34*
X1582000Y2077000D03*
%LPD*%
G75*
G54D10*
X133000Y534000D03*
X149000Y3083000D03*
X3811000Y154000D03*
G54D11*
X612000Y271000D03*
Y144000D03*
X485000Y271000D03*
Y144000D03*
X358000Y271000D03*
Y144000D03*
X231000Y271000D03*
Y144000D03*
X104000Y271000D03*
Y144000D03*
X2750000Y2622000D03*
X2623000D03*
X2496000D03*
X2369000D03*
X2242000D03*
X2750000Y2495000D03*
X2623000D03*
X2496000D03*
X2369000D03*
X2242000D03*
X3385000Y2622000D03*
X3258000D03*
X3131000D03*
X3004000D03*
X2877000D03*
X3385000Y2495000D03*
X3258000D03*
X3131000D03*
X3004000D03*
X2877000D03*
G54D20*
X1169000Y1318000D03*
Y1408000D03*
X1258000Y1318000D03*
Y1408000D03*
X3125000Y1102000D03*
Y1192000D03*
X3218000Y1102000D03*
Y1192000D03*
X3126000Y1591000D03*
Y1681000D03*
X3093000Y2139000D03*
Y2229000D03*
X3311000Y1102000D03*
Y1192000D03*
G54D30*
G01X2742000Y537000D02*
Y653000D01*
X2667000Y728000D01*
Y1304000D01*
X2699000Y1336000D01*
Y1542700D01*
G01X2499000Y1639000D02*
Y837700D01*
X2702000Y634700D01*
Y537000D01*
G01X2222000D02*
Y724000D01*
X2268000Y770000D01*
X2493000D01*
X2542000Y721000D01*
Y537000D01*
G01X1822000D02*
X1823000Y538000D01*
Y629000D01*
X1807000Y645000D01*
X1760000D01*
X1742000Y627000D01*
Y537000D01*
G01D02*
Y394000D01*
X1743000Y393000D01*
G01X2542000Y406000D02*
Y537000D01*
G01D02*
X2582000D01*
G01X2564000Y326000D02*
Y404000D01*
X2565000Y405000D01*
G01X2564000Y326000D02*
Y248000D01*
X2568000Y244000D01*
G01X2502000Y406000D02*
Y537000D01*
G01X2481000Y326000D02*
Y404000D01*
G01X2478000Y244000D02*
Y258000D01*
X2481000Y261000D01*
Y326000D01*
G01X2502000Y537000D02*
Y686000D01*
X2482000Y706000D01*
G01X1361000Y2556000D02*
Y2498220D01*
X1377510Y2481710D01*
X1420210D01*
G01X2778000Y1764000D02*
X2857190Y1684810D01*
Y1426190D01*
X2704500Y1273500D01*
Y1038500D01*
X2864000Y879000D01*
Y668000D01*
X2913000Y619000D01*
X3107700D01*
X3134000Y592700D01*
Y538000D01*
G01X2636000Y2303000D02*
X2588300D01*
X2571300Y2286000D01*
X2277000D01*
X2117000Y2446000D01*
X1693000D01*
X1657000Y2410000D01*
X1440210D01*
X1420210Y2430000D01*
Y2481710D01*
G01X2972000Y927000D02*
X2865500D01*
X2740000Y1052500D01*
Y1256000D01*
X2771000Y1287000D01*
X2972000D01*
G01X2142000Y2151500D02*
Y2077000D01*
G01X1742000D02*
Y2232000D01*
G01X2142000Y2077000D02*
Y1943000D01*
X2061000Y1862000D01*
X1858400D01*
X1742000Y1978400D01*
Y2077000D01*
G01X1432000Y1247000D02*
X1334300D01*
X1315000Y1227700D01*
Y946300D01*
X1334300Y927000D01*
X1432000D01*
G01X1258000Y1408000D02*
X1333300D01*
X1334300Y1407000D01*
X1432000D01*
G01D02*
Y1447000D01*
G01Y1247000D02*
X1559000D01*
X1598000Y1286000D01*
Y1369000D01*
X1560000Y1407000D01*
X1432000D01*
G01X2582000Y2077000D02*
Y1966000D01*
X2604000Y1944000D01*
G01X2582000Y2151500D02*
Y2077000D01*
G01X2972000Y1767000D02*
X2874300D01*
X2825300Y1816000D01*
X2714000D01*
X2704000Y1806000D01*
G01X2604000Y1318000D02*
X2552000Y1370000D01*
Y1726000D01*
X2462000Y1816000D01*
Y2077000D01*
G01X1712290Y2700130D02*
X1761870D01*
X1762000Y2700000D01*
G01X1615210Y2481710D02*
X1657910D01*
X1712580Y2536380D01*
Y2610290D01*
G01D02*
Y2680710D01*
X1712290Y2681000D01*
Y2700130D01*
G01X3043000Y537000D02*
X2946000D01*
G01X2822000D02*
Y521000D01*
X2825000Y518000D01*
X2927000D01*
X2946000Y537000D01*
G01X3043000D02*
X3044000Y538000D01*
G01X3052000D02*
X3051000Y537000D01*
X3043000D01*
G01X2972000Y927000D02*
X3557000D01*
X3657000Y1027000D01*
G01X2972000Y1767000D02*
X3069700D01*
X3086000Y1750700D01*
Y1750000D01*
X3126000Y1710000D01*
Y1681000D01*
G01X2972000Y1287000D02*
X3125000D01*
G01X3218000Y1192000D02*
X3311000D01*
G01X3125000D02*
X3218000D01*
G01X2972000Y1207000D02*
X3110000D01*
X3125000Y1192000D01*
G01X2859300Y1196390D02*
X2871390D01*
X2882000Y1207000D01*
X2972000D01*
G54D12*
G01X0Y3270000D02*
Y0D01*
X4000000D01*
Y2900000D01*
X1700000D01*
Y3270000D01*
X0D01*
X202000Y789750D03*
X422000D03*
X202000Y1574750D03*
X422000D03*
X3720500Y900000D03*
X3822000Y1662000D03*
X3619000D03*
G54D21*
X1762000Y2700000D03*
Y2756000D03*
G54D31*
G01X694790Y1603210D02*
Y1550780D01*
X612010Y1468000D01*
G01X722000Y1214000D02*
Y1369990D01*
X623990Y1468000D01*
X612010D01*
G01X492000Y1214000D02*
X722000D01*
G01X492000Y1468000D02*
Y1535000D01*
X549000Y1592000D01*
X593580D01*
X604790Y1603210D01*
G01X1025000Y1634000D02*
X972300D01*
X826300Y1780000D01*
X721380D01*
X694790Y1753410D01*
Y1693210D01*
G01X2377000Y1210000D02*
Y1831000D01*
G54D22*
X1615210Y2481710D03*
X1550210D03*
X1485210D03*
X1420210D03*
X1615210Y2781710D03*
X1550210D03*
X1485210D03*
X1420210D03*
G54D13*
X492000Y896500D03*
X132000D03*
X492000Y960000D03*
X132000D03*
X492000Y1023500D03*
X132000D03*
X492000Y1087000D03*
X132000D03*
X492000Y1150500D03*
X132000D03*
X492000Y1214000D03*
X132000D03*
X492000Y1277500D03*
X132000D03*
X492000Y1341000D03*
X132000D03*
X492000Y1404500D03*
X132000D03*
X492000Y1468000D03*
X132000D03*
G54D32*
G01X1099300Y1407000D02*
X1056000D01*
X894000Y1245000D01*
G01X1524000Y500000D02*
Y413000D01*
X1600980Y336020D01*
G01D02*
X1778000Y159000D01*
X2528000D01*
X2568000Y199000D01*
Y244000D01*
G01X1600980Y336020D02*
X1657960Y393000D01*
X1743000D01*
G01X1742000Y2232000D02*
X1398000D01*
X1198000Y2032000D01*
Y1511280D01*
X1169000Y1482280D01*
Y1408000D01*
G01X1742000Y2232000D02*
Y2296000D01*
G01X1258000Y1408000D02*
X1192000D01*
X1191000Y1407000D01*
X1168000D01*
G01D02*
X1099300D01*
G01X2242000Y2622000D02*
X2232000D01*
X2203000Y2651000D01*
X2033000D01*
X1918000Y2766000D01*
X1821000D01*
G01X3205000Y1292000D02*
X3130000D01*
X3125000Y1287000D01*
G01X3205000Y1292000D02*
X3273000Y1360000D01*
Y1558000D01*
X3150000Y1681000D01*
X3126000D01*
G54D23*
X1517710Y2631710D03*
G54D14*
G01X1159000Y2428000D02*
X1046990D01*
X865990Y2609000D01*
X696800D01*
X625000Y2537200D01*
G01X1237700Y2428000D02*
X1159000D01*
G01D02*
X1157000Y2426000D01*
X946000Y550000D03*
X132000Y838800D03*
X321000Y441000D03*
X284000Y500000D03*
X250000Y927000D03*
X561000Y651000D03*
X861000Y659000D03*
X749000Y866300D03*
X699540Y149410D03*
X294000Y82000D03*
X171360Y79690D03*
X715000Y244000D03*
X984000Y828000D03*
X908000Y776000D03*
X947000Y887000D03*
X547000Y824000D03*
X609700Y1404500D03*
X255000Y1462000D03*
X250000Y1087000D03*
X606500Y1150500D03*
X606000Y1087000D03*
X964000Y1886000D03*
X250500Y1296500D03*
X616500Y1277500D03*
X254500Y1023500D03*
X816000Y2012000D03*
X477000Y2654000D03*
X803000Y1531000D03*
X650000Y1839000D03*
X803000D03*
X805000Y1685000D03*
X498000D03*
X78000Y1646000D03*
X278000Y1954000D03*
Y2415000D03*
X451000Y2498000D03*
X136000Y1648000D03*
Y1956000D03*
Y2417000D03*
X830000Y2235300D03*
X116000Y1537000D03*
X597000Y2612000D03*
X802000Y965000D03*
X815000Y1085000D03*
X885000Y1169000D03*
X625000Y2537200D03*
X823000Y2512000D03*
X946700Y2288000D03*
X839000Y2441000D03*
X764000Y2308000D03*
X249700Y1214000D03*
X252000Y1150500D03*
X613000Y1341000D03*
X903000Y937000D03*
X613500Y1023500D03*
X475000Y2078000D03*
X249490Y1365000D03*
X722000Y1214000D03*
X612010Y1468000D03*
X894000Y1245000D03*
X425000Y2878000D03*
X136000D03*
X1179000Y472000D03*
X2012000Y651000D03*
X1115000Y519000D03*
X2804000Y398000D03*
X1020000Y548000D03*
X2721000Y909000D03*
X2599000Y659000D03*
X1934000Y686000D03*
X1962000Y929000D03*
X2476000Y83000D03*
X2325000D03*
X1822000Y222000D03*
X1457000Y461000D03*
X1031000Y126000D03*
X2741000Y754000D03*
X2151000Y841000D03*
X2148000Y659000D03*
X1056000Y730000D03*
X1645000Y713000D03*
X1234000Y595000D03*
X1522000Y123000D03*
X1229000Y125000D03*
X2728000Y329000D03*
X2730010Y405000D03*
X2313000Y367000D03*
X2318000Y303000D03*
X1831780Y315000D03*
X2350000Y667000D03*
X1547010Y735000D03*
X1427500Y578500D03*
X1812000Y771000D03*
X1685000Y769200D03*
X1524000Y500000D03*
X2482000Y706000D03*
X1144000Y2131000D03*
X2033000Y2737000D03*
X1202000Y2164000D03*
X1606000Y1187000D03*
X1292000Y1496000D03*
X1507000Y2595000D03*
X1505000Y2682000D03*
X1015000Y2156000D03*
X1311000Y2395000D03*
X1025000Y1744000D03*
X1237000Y2336000D03*
X1934000Y2580000D03*
X1838000Y2579000D03*
X1768580Y2524000D03*
X1282000Y1862990D03*
X1432000Y1976000D03*
X1623000Y1960000D03*
X1514000Y2062000D03*
X2612000Y1556000D03*
X2278000Y1773000D03*
X2195000Y1016000D03*
X2244020Y2407320D03*
X2015000Y2543000D03*
X2169000Y1309000D03*
X2304000Y1308000D03*
X2446000Y1688000D03*
X2098000Y1773000D03*
X1957000Y1962000D03*
X1879000D03*
X2793000Y1470000D03*
X2692000Y1740000D03*
X2613000Y1801000D03*
X2801000Y1237000D03*
X1908000Y1500800D03*
X1295000Y1598000D03*
X2319000Y2348000D03*
X1923000Y2506000D03*
X2016000Y2282000D03*
X2712000Y1948000D03*
X2381000Y1922000D03*
X1795000Y1217000D03*
X1799000Y1003000D03*
X1198000Y986000D03*
X1205000Y1136000D03*
X2262000Y1500800D03*
X1832000Y2301700D03*
X1547000Y1567000D03*
X2192000Y1964000D03*
X1544700Y1687000D03*
X1728000Y1501800D03*
X1994000Y1500800D03*
X1547010Y1317000D03*
X1169000Y1247800D03*
X1231310Y1240730D03*
X2791000Y1546000D03*
X1155000Y2644000D03*
X1154000Y2581000D03*
X1077000D03*
Y2644000D03*
X2778000Y1764000D03*
X2636000Y2303000D03*
X1237700Y2428000D03*
X2699000Y1542700D03*
X2499000Y1639000D03*
X1903000Y1729000D03*
X1821000Y1732200D03*
X1728000D03*
X1071000Y1554000D03*
X1571000Y1457000D03*
X1018000Y1925000D03*
X1742000Y2296000D03*
X1099300Y1407000D03*
X2604000Y1944000D03*
X2704000Y1806000D03*
X2604000Y1318000D03*
X1996000Y1731200D03*
X2035000Y1914000D03*
X1638000Y1732200D03*
X1317070Y1674460D03*
X2377000Y1831000D03*
Y1210000D03*
X1025000Y1634000D03*
X2094000Y2756000D03*
X1590000Y3064000D03*
X1506000Y3163000D03*
X1432000Y2877000D03*
X2679000Y2823000D03*
X2170000D03*
X2829000Y220000D03*
X2876000Y578000D03*
X3652000Y763000D03*
X3662000Y462000D03*
X3298000Y474000D03*
X3148000Y773000D03*
X2891000Y383000D03*
X3124000Y101000D03*
X3600000Y205000D03*
X3602000Y91000D03*
X3268000Y853000D03*
X2925210Y2312000D03*
X2921000Y2403000D03*
X3030000Y2320000D03*
X3906000Y2476000D03*
X3670000Y2480000D03*
Y2155000D03*
X3672000Y1832000D03*
X3864000Y1791000D03*
X3852000Y2168000D03*
X3593000Y1573000D03*
X3908000Y1388000D03*
X3575000Y1035000D03*
X3285000Y1031800D03*
X3126000D03*
X3218000Y1033000D03*
X3023300Y2172800D03*
X3522000Y1696000D03*
X3903000Y1003000D03*
X3902000Y1531000D03*
X3569000Y1339000D03*
X2828000Y2379000D03*
X3609200Y1940000D03*
X3209000Y1404000D03*
X2906500Y2743500D03*
X3205000Y1292000D03*
X2859300Y1196390D03*
X3668000Y2774000D03*
X3341000Y2821000D03*
X3128000Y2822000D03*
X3887000Y2785000D03*
G54D33*
G01X946000Y550000D02*
X900800D01*
X871800Y521000D01*
X361000D01*
X132000Y750000D01*
Y838800D01*
G01D02*
Y896500D01*
G01X321000Y441000D02*
X332000Y452000D01*
X1157000D01*
X1177000Y472000D01*
X1179000D01*
G01X1115000Y519000D02*
X1086000Y490000D01*
X307000D01*
X297000Y500000D01*
X284000D01*
G01X1020000Y548000D02*
X967000Y601000D01*
X896010D01*
X850010Y555000D01*
X383000D01*
X281970Y656030D01*
Y895030D01*
X250000Y927000D01*
G01X249700Y1214000D02*
X294900D01*
X353000Y1155900D01*
Y744430D01*
X378430Y719000D01*
X464000D01*
X521000Y776000D01*
X774000D01*
X826000Y828000D01*
X984000D01*
G01X252000Y1150500D02*
X297200D01*
X323000Y1124700D01*
Y732000D01*
X366000Y689000D01*
X477000D01*
X532030Y744030D01*
X785000D01*
X816970Y776000D01*
X908000D01*
G01X1432000Y727000D02*
X1340990D01*
X1240990Y827000D01*
X1054140D01*
X994140Y887000D01*
X947000D01*
G01X1427500Y578500D02*
X1239000Y390000D01*
X379610D01*
X353110Y363500D01*
X323500D01*
X231000Y271000D01*
G01X239000Y284000D02*
X231000Y276000D01*
Y271000D01*
G01X547000Y824000D02*
Y821000D01*
X562000Y806000D01*
X755880D01*
X886880Y937000D01*
X903000D01*
G01X1643010Y906990D02*
X1732500Y817500D01*
Y724500D01*
X1646000Y638000D01*
X1559620D01*
X1281620Y360000D01*
X701000D01*
X612000Y271000D01*
G01X104000D02*
X226500Y393500D01*
X340680D01*
X367180Y420000D01*
X1201820D01*
X1413820Y632000D01*
X1511190D01*
X1594510Y715320D01*
Y763490D01*
X1551000Y807000D01*
X1432000D01*
G01X492000Y1214000D02*
X421500D01*
X389500Y1182000D01*
Y930000D01*
X423000Y896500D01*
X492000D01*
G01X609700Y1404500D02*
X492000D01*
G01X132000D02*
X197500D01*
X255000Y1462000D01*
G01X132000Y1087000D02*
X250000D01*
G01X606500Y1150500D02*
X492000D01*
G01X1144000Y2131000D02*
X1118500Y2105500D01*
Y1534320D01*
X1090680Y1506500D01*
X1045890D01*
X816500Y1277110D01*
Y1233490D01*
X733510Y1150500D01*
X606500D01*
G01X606000Y1087000D02*
X712440D01*
X846500Y1221060D01*
Y1264680D01*
X1058310Y1476490D01*
X1103100D01*
X1148500Y1521890D01*
Y2065300D01*
X1202000Y2118800D01*
Y2164000D01*
G01X606000Y1087000D02*
X492000D01*
G01X250500Y1296500D02*
X332500Y1378500D01*
Y1651500D01*
X613000Y1932000D01*
X918000D01*
X964000Y1886000D01*
G01X132000Y1277500D02*
X231500D01*
X250500Y1296500D01*
G01X492000Y1277500D02*
X616500D01*
G01X132000Y1023500D02*
X254500D01*
G01X132000Y960000D02*
X217000D01*
X250000Y927000D01*
G01X132000Y1468000D02*
Y1521000D01*
X116000Y1537000D01*
G01X2742000Y2077000D02*
Y2150570D01*
X2670570Y2222000D01*
X2247560D01*
X2230000Y2239560D01*
Y2239570D01*
X2088570Y2381000D01*
X1716990D01*
X1640490Y2304500D01*
X1367960D01*
X1309450Y2245990D01*
X988710D01*
X946700Y2288000D01*
G01D02*
Y2414300D01*
X849000Y2512000D01*
X823000D01*
G01X2702000Y2077000D02*
Y2148140D01*
X2658140Y2192000D01*
X2233000D01*
X2075000Y2350000D01*
X1728420D01*
X1652920Y2274500D01*
X1380390D01*
X1321880Y2215990D01*
X951530D01*
X899200Y2268320D01*
Y2380800D01*
X839000Y2441000D01*
G01X2782000Y2077000D02*
Y2153000D01*
X2683000Y2252000D01*
X2260000D01*
X2101000Y2411000D01*
X1704000D01*
X1627500Y2334500D01*
X1355530D01*
X1297030Y2276000D01*
X1031000D01*
X987000Y2320000D01*
Y2420810D01*
X848310Y2559500D01*
X786500D01*
X681000Y2454000D01*
Y2396000D01*
G01X683000Y2308000D02*
X681000Y2306000D01*
G01X674000Y2304000D02*
X678000Y2308000D01*
X683000D01*
G01X764000D02*
X683000D01*
G01X249700Y1214000D02*
X132000D01*
G01X252000Y1150500D02*
X132000D01*
G01X492000Y1341000D02*
X613000D01*
G01X903000Y937000D02*
X986570D01*
X1066570Y857000D01*
X1351030D01*
X1361030Y847000D01*
X1432000D01*
G01X613500Y1023500D02*
X942500D01*
X1079000Y887000D01*
X1432000D01*
G01X613500Y1023500D02*
X492000D01*
G01X1071000Y1554000D02*
Y1559000D01*
X1086000Y1574000D01*
Y1938000D01*
X946000Y2078000D01*
X475000D01*
G01X492000Y960000D02*
X634000D01*
X631000Y957000D01*
Y936000D01*
G01X249490Y1365000D02*
X302500Y1418010D01*
Y1663930D01*
X596540Y1957970D01*
X597970D01*
X602750Y1962750D01*
X980250D01*
X1018000Y1925000D01*
G01X132000Y1341000D02*
X225000D01*
X249000Y1365000D01*
X249490D01*
G01X2022000Y537000D02*
Y641000D01*
X2012000Y651000D01*
G01X2655000Y405000D02*
X2730010D01*
G01X2735000Y758000D02*
X2739000Y754000D01*
X2741000D01*
G01X984000Y828000D02*
X1016000Y796000D01*
X1227800D01*
X1336800Y687000D01*
X1432000D01*
G01Y767000D02*
X1510000D01*
X1542000Y735000D01*
X1547010D01*
G01X1432000Y767000D02*
X1394430D01*
G01X1812000Y771000D02*
X1995000D01*
X2062000Y704000D01*
Y537000D01*
G01X1685000Y769200D02*
Y820570D01*
X1618570Y887000D01*
X1432000D01*
G01Y807000D02*
X1430570D01*
G01X2565000Y405000D02*
X2543000D01*
X2542000Y406000D01*
G01X2481000Y404000D02*
X2500000D01*
X2502000Y406000D01*
G01X2033000Y2737000D02*
X2075500Y2694500D01*
X2423500D01*
X2496000Y2622000D01*
G01X2623000D02*
X2489000Y2756000D01*
X2094000D01*
G01X2636000Y2303000D02*
X2732000D01*
G01X1903000Y1729000D02*
X1745000Y1887000D01*
X1432000D01*
G01X1821000Y1732200D02*
X1706200Y1847000D01*
X1432000D01*
G01X1728000Y1732200D02*
X1653200Y1807000D01*
X1432000D01*
G01X2906500Y2743500D02*
X2874530Y2711530D01*
X2839530D01*
X2750000Y2622000D01*
G01X1571000Y1457000D02*
X1675000Y1353000D01*
Y938980D01*
X1643010Y906990D01*
G01X1432000Y967000D02*
X1583000D01*
X1643010Y906990D01*
G01X1403940Y967000D02*
X1432000D01*
G01X1168000Y1407000D02*
X1169000Y1408000D01*
G01X1996000Y1731200D02*
X1897700Y1829500D01*
X1844930D01*
X1702000Y1972430D01*
Y2077000D01*
G01X2035000Y1914000D02*
X1852370D01*
X1782000Y1984370D01*
Y2077000D01*
G01X3449000Y1935000D02*
X3395000D01*
X3367000Y1963000D01*
X2879000D01*
X2781000Y1865000D01*
X2572000D01*
X2502000Y1935000D01*
Y2077000D01*
G01X2542000D02*
Y1937430D01*
X2584430Y1895000D01*
X2768570D01*
X2973500Y2099930D01*
Y2211680D01*
X3001320Y2239500D01*
X3040680D01*
X3068500Y2211680D01*
X3085250D01*
X3093000Y2219430D01*
Y2229000D01*
G01X1432000Y1767000D02*
X1603200D01*
X1638000Y1732200D01*
G01X1317070Y1674460D02*
X1321000Y1678390D01*
Y1712000D01*
X1336000Y1727000D01*
X1432000D01*
G01X2804000Y398000D02*
Y254000D01*
X2829000Y229000D01*
Y220000D01*
G01X3268000Y853000D02*
X3299970Y884970D01*
X3602930D01*
X3690460Y972500D01*
X3729500D01*
X3784000Y1027000D01*
G01X2877000Y2622000D02*
X2979500Y2724500D01*
X3434500D01*
X3491000Y2668000D01*
Y2456030D01*
X3423460Y2388490D01*
X3398620D01*
X3398610Y2388500D01*
X3001710D01*
X2925210Y2312000D01*
G01X2921000Y2403000D02*
X2936000D01*
X2951500Y2418500D01*
X3411040D01*
X3461000Y2468460D01*
Y2653000D01*
X3419500Y2694500D01*
X3076500D01*
X3004000Y2622000D01*
G01X2972000Y1807000D02*
X3195000D01*
X3465000Y1537000D01*
Y1228000D01*
X3603500Y1089500D01*
X3695500D01*
X3721500Y1115500D01*
Y1343500D01*
X3657000Y1408000D01*
G01X3784000Y1535000D02*
X3729000Y1590000D01*
Y1655000D01*
X3623000Y1761000D01*
X3373000D01*
X3207000Y1927000D01*
X2972000D01*
G01X3657000Y1154000D02*
X3499000Y1312000D01*
Y1548570D01*
X3200570Y1847000D01*
X2972000D01*
G01Y1887000D02*
X3203000D01*
X3618000Y1472000D01*
X3808400D01*
X3846500Y1433900D01*
Y1343500D01*
X3784000Y1281000D01*
G01X3449000Y2057000D02*
Y1935000D01*
G01X3229000Y2227000D02*
X3095000D01*
X3093000Y2229000D01*
G01X2822000Y2077000D02*
Y2212000D01*
G01Y2303000D02*
Y2212000D01*
G54D15*
X631000Y936000D03*
X721000D03*
X604790Y1603210D03*
X2391000Y404000D03*
X2481000D03*
X2391000Y326000D03*
X2481000D03*
G54D24*
X1712580Y2610290D03*
X1768580D03*
G54D16*
X681000Y2396000D03*
Y2306000D03*
X694790Y1693210D03*
Y1603210D03*
X1157000Y2426000D03*
Y2336000D03*
X2946000Y537000D03*
Y447000D03*
X3125000Y1377000D03*
Y1287000D03*
G54D25*
X1712290Y2700130D03*
Y2756130D03*
G54D26*
X1821000Y2686000D03*
Y2766000D03*
G54D17*
X1432000Y887000D03*
Y847000D03*
Y807000D03*
Y767000D03*
Y727000D03*
Y687000D03*
Y1927000D03*
Y1887000D03*
Y1847000D03*
Y1807000D03*
Y1767000D03*
Y1727000D03*
Y1687000D03*
Y1647000D03*
Y1607000D03*
Y1567000D03*
Y1527000D03*
Y1487000D03*
Y1447000D03*
Y1407000D03*
Y1367000D03*
Y1327000D03*
Y1287000D03*
Y1247000D03*
Y1207000D03*
Y1167000D03*
Y1127000D03*
Y1087000D03*
Y1047000D03*
Y1007000D03*
Y967000D03*
Y927000D03*
X2972000Y687000D03*
Y727000D03*
Y767000D03*
Y807000D03*
Y847000D03*
Y887000D03*
Y927000D03*
Y967000D03*
Y1007000D03*
Y1047000D03*
Y1087000D03*
Y1127000D03*
Y1167000D03*
Y1207000D03*
Y1247000D03*
Y1287000D03*
Y1327000D03*
Y1367000D03*
Y1407000D03*
Y1447000D03*
Y1487000D03*
Y1527000D03*
Y1567000D03*
Y1607000D03*
Y1647000D03*
Y1687000D03*
Y1727000D03*
Y1767000D03*
Y1807000D03*
Y1847000D03*
Y1887000D03*
Y1927000D03*
G54D27*
X1325000Y2870000D03*
Y2790000D03*
G54D18*
X1582000Y537000D03*
X1622000D03*
X1662000D03*
X1702000D03*
X1742000D03*
X1782000D03*
X1822000D03*
X1862000D03*
X1902000D03*
X1942000D03*
X1982000D03*
X2022000D03*
X2062000D03*
X2102000D03*
X2142000D03*
X2182000D03*
X2222000D03*
X2262000D03*
X2302000D03*
X2342000D03*
X2382000D03*
X2422000D03*
X2462000D03*
X2502000D03*
X2542000D03*
X2582000D03*
X2622000D03*
X2662000D03*
X2702000D03*
X2742000D03*
X2782000D03*
Y2077000D03*
X2742000D03*
X2702000D03*
X2662000D03*
X2622000D03*
X2582000D03*
X2542000D03*
X2502000D03*
X2462000D03*
X2422000D03*
X2382000D03*
X2342000D03*
X2302000D03*
X2262000D03*
X2222000D03*
X2182000D03*
X2142000D03*
X2102000D03*
X2062000D03*
X2022000D03*
X1982000D03*
X1942000D03*
X1902000D03*
X1862000D03*
X1822000D03*
X1782000D03*
X1742000D03*
X1702000D03*
X1662000D03*
X1622000D03*
X1582000D03*
X2822000Y537000D03*
Y2077000D03*
G54D28*
X3449000Y2227000D03*
X3229000D03*
Y2057000D03*
X3449000D03*
G54D19*
X2654000Y326000D03*
X2564000D03*
X2655000Y405000D03*
X2565000D03*
X1833000Y393000D03*
X1743000D03*
X2568000Y244000D03*
X2478000D03*
X1832000Y2232000D03*
X1742000D03*
X2732000Y2303000D03*
X3134000Y538000D03*
X3044000D03*
X3539000Y1935000D03*
X3449000D03*
X2912000Y2212000D03*
X2822000D03*
Y2303000D03*
G54D29*
X3784000Y1535000D03*
Y1408000D03*
Y1281000D03*
Y1154000D03*
Y1027000D03*
X3657000Y1535000D03*
Y1408000D03*
Y1281000D03*
Y1154000D03*
Y1027000D03*
M02*
