G04 ================== begin FILE IDENTIFICATION RECORD ==================*
G04 Layout Name:  DevPack_Debug.brd*
G04 Film Name:    mech_drawing*
G04 File Format:  Gerber RS274X*
G04 File Origin:  Cadence Allegro 16.6-S019*
G04 Origin Date:  Fri Oct 16 16:25:00 2015*
G04 *
G04 Layer:  BOARD GEOMETRY/NCROUTE_PATH*
G04 Layer:  DRAWING FORMAT/OUTLINE*
G04 Layer:  MANUFACTURING/NCDRILL_LEGEND*
G04 Layer:  MANUFACTURING/NCLEGEND-1-2*
G04 Layer:  MANUFACTURING/XSECTION_CHART*
G04 Layer:  BOARD GEOMETRY/DIMENSION*
G04 Layer:  BOARD GEOMETRY/OUTLINE*
G04 *
G04 Offset:    (0.0000 0.0000)*
G04 Mirror:    No*
G04 Mode:      Positive*
G04 Rotation:  0*
G04 FullContactRelief:  No*
G04 UndefLineWidth:     0.1000*
G04 ================== end FILE IDENTIFICATION RECORD ====================*
%FSLAX25Y25*MOMM*%
%IR0*IPPOS*OFA0.00000B0.00000*MIA0B0*SFA1.00000B1.00000*%
%AMMACRO13*
1,1,.1,.25,0.0*
20,1,.1,.25,0.0,.125,.216506,0.0*
1,1,.1,.125,.216506*
20,1,.1,.125,.216506,-.125,.216506,0.0*
1,1,.1,-.125,.216506*
20,1,.1,-.125,.216506,-.25,0.0,0.0*
1,1,.1,-.25,0.0*
20,1,.1,-.25,0.0,-.125,-.216506,0.0*
1,1,.1,-.125,-.216506*
20,1,.1,-.125,-.216506,.125,-.216506,0.0*
1,1,.1,.125,-.216506*
20,1,.1,.125,-.216506,.25,0.0,0.0*
1,1,.1,.25,0.0*
1,1,.1,-.0833,-.125*
20,1,.1,-.0833,-.125,-.0833,.125,0.0*
1,1,.1,-.0833,.125*
20,1,.1,-.0833,.125,.0167,.125,0.0*
1,1,.1,.0167,.125*
20,1,.1,.0167,.125,.05,.1125,0.0*
1,1,.1,.05,.1125*
20,1,.1,.05,.1125,.075,.0833,0.0*
1,1,.1,.075,.0833*
20,1,.1,.075,.0833,.0833,.05,0.0*
1,1,.1,.0833,.05*
20,1,.1,.0833,.05,.075,.0167,0.0*
1,1,.1,.075,.0167*
20,1,.1,.075,.0167,.0542,-.0083,0.0*
1,1,.1,.0542,-.0083*
20,1,.1,.0542,-.0083,.0167,-.0208,0.0*
1,1,.1,.0167,-.0208*
20,1,.1,.0167,-.0208,-.0833,-.0208,0.0*
1,1,.1,-.0833,-.0208*
%
%ADD13MACRO13*%
%AMMACRO11*
1,1,.1,.09995,0.0*
20,1,.1,.09995,0.0,-.09995,0.0,0.0*
1,1,.1,-.09995,0.0*
1,1,.1,0.0,.09995*
20,1,.1,0.0,.09995,0.0,-.09995,0.0*
1,1,.1,0.0,-.09995*
1,1,.1,.0133,.0999*
20,1,.1,.0133,.0999,.0133,.0283,0.0*
1,1,.1,.0133,.0283*
20,1,.1,.0133,.0283,.02,.0133,0.0*
1,1,.1,.02,.0133*
20,1,.1,.02,.0133,.0333,.0033,0.0*
1,1,.1,.0333,.0033*
20,1,.1,.0333,.0033,.0499,0.0,0.0*
1,1,.1,.0499,0.0*
20,1,.1,.0499,0.0,.0666,.0033,0.0*
1,1,.1,.0666,.0033*
20,1,.1,.0666,.0033,.0799,.0133,0.0*
1,1,.1,.0799,.0133*
20,1,.1,.0799,.0133,.0866,.0283,0.0*
1,1,.1,.0866,.0283*
20,1,.1,.0866,.0283,.0866,.0999,0.0*
1,1,.1,.0866,.0999*
%
%ADD11MACRO11*%
%AMMACRO12*
1,1,.1,.635,0.0*
20,1,.1,.635,0.0,.625353,-.110267,0.0*
1,1,.1,.625353,-.110267*
20,1,.1,.625353,-.110267,.596705,-.217183,0.0*
1,1,.1,.596705,-.217183*
20,1,.1,.596705,-.217183,.549926,-.3175,0.0*
1,1,.1,.549926,-.3175*
20,1,.1,.549926,-.3175,.486438,-.40817,0.0*
1,1,.1,.486438,-.40817*
20,1,.1,.486438,-.40817,.40817,-.486438,0.0*
1,1,.1,.40817,-.486438*
20,1,.1,.40817,-.486438,.3175,-.549926,0.0*
1,1,.1,.3175,-.549926*
20,1,.1,.3175,-.549926,.217183,-.596705,0.0*
1,1,.1,.217183,-.596705*
20,1,.1,.217183,-.596705,.110267,-.625353,0.0*
1,1,.1,.110267,-.625353*
20,1,.1,.110267,-.625353,0.0,-.635,0.0*
1,1,.1,0.0,-.635*
20,1,.1,0.0,-.635,-.110267,-.625353,0.0*
1,1,.1,-.110267,-.625353*
20,1,.1,-.110267,-.625353,-.217183,-.596705,0.0*
1,1,.1,-.217183,-.596705*
20,1,.1,-.217183,-.596705,-.3175,-.549926,0.0*
1,1,.1,-.3175,-.549926*
20,1,.1,-.3175,-.549926,-.40817,-.486438,0.0*
1,1,.1,-.40817,-.486438*
20,1,.1,-.40817,-.486438,-.486438,-.40817,0.0*
1,1,.1,-.486438,-.40817*
20,1,.1,-.486438,-.40817,-.549926,-.3175,0.0*
1,1,.1,-.549926,-.3175*
20,1,.1,-.549926,-.3175,-.596705,-.217183,0.0*
1,1,.1,-.596705,-.217183*
20,1,.1,-.596705,-.217183,-.625353,-.110267,0.0*
1,1,.1,-.625353,-.110267*
20,1,.1,-.625353,-.110267,-.635,0.0,0.0*
1,1,.1,-.635,0.0*
20,1,.1,-.635,0.0,-.625353,.110267,0.0*
1,1,.1,-.625353,.110267*
20,1,.1,-.625353,.110267,-.596705,.217183,0.0*
1,1,.1,-.596705,.217183*
20,1,.1,-.596705,.217183,-.549926,.3175,0.0*
1,1,.1,-.549926,.3175*
20,1,.1,-.549926,.3175,-.486438,.40817,0.0*
1,1,.1,-.486438,.40817*
20,1,.1,-.486438,.40817,-.40817,.486438,0.0*
1,1,.1,-.40817,.486438*
20,1,.1,-.40817,.486438,-.3175,.549926,0.0*
1,1,.1,-.3175,.549926*
20,1,.1,-.3175,.549926,-.217183,.596705,0.0*
1,1,.1,-.217183,.596705*
20,1,.1,-.217183,.596705,-.110267,.625353,0.0*
1,1,.1,-.110267,.625353*
20,1,.1,-.110267,.625353,0.0,.635,0.0*
1,1,.1,0.0,.635*
20,1,.1,0.0,.635,.110267,.625353,0.0*
1,1,.1,.110267,.625353*
20,1,.1,.110267,.625353,.217183,.596705,0.0*
1,1,.1,.217183,.596705*
20,1,.1,.217183,.596705,.3175,.549926,0.0*
1,1,.1,.3175,.549926*
20,1,.1,.3175,.549926,.40817,.486438,0.0*
1,1,.1,.40817,.486438*
20,1,.1,.40817,.486438,.486438,.40817,0.0*
1,1,.1,.486438,.40817*
20,1,.1,.486438,.40817,.549926,.3175,0.0*
1,1,.1,.549926,.3175*
20,1,.1,.549926,.3175,.596705,.217183,0.0*
1,1,.1,.596705,.217183*
20,1,.1,.596705,.217183,.625353,.110267,0.0*
1,1,.1,.625353,.110267*
20,1,.1,.625353,.110267,.635,0.0,0.0*
1,1,.1,.635,0.0*
1,1,.1,.3175,0.0*
20,1,.1,.3175,0.0,-.3175,0.0,0.0*
1,1,.1,-.3175,0.0*
1,1,.1,0.0,.3175*
20,1,.1,0.0,.3175,0.0,-.3175,0.0*
1,1,.1,0.0,-.3175*
%
%ADD12MACRO12*%
%AMMACRO10*
1,1,.1,.2,0.0*
20,1,.1,.2,0.0,.196962,-.03473,0.0*
1,1,.1,.196962,-.03473*
20,1,.1,.196962,-.03473,.187939,-.068404,0.0*
1,1,.1,.187939,-.068404*
20,1,.1,.187939,-.068404,.173205,-.1,0.0*
1,1,.1,.173205,-.1*
20,1,.1,.173205,-.1,.153209,-.128558,0.0*
1,1,.1,.153209,-.128558*
20,1,.1,.153209,-.128558,.128558,-.153209,0.0*
1,1,.1,.128558,-.153209*
20,1,.1,.128558,-.153209,.1,-.173205,0.0*
1,1,.1,.1,-.173205*
20,1,.1,.1,-.173205,.068404,-.187939,0.0*
1,1,.1,.068404,-.187939*
20,1,.1,.068404,-.187939,.03473,-.196962,0.0*
1,1,.1,.03473,-.196962*
20,1,.1,.03473,-.196962,0.0,-.2,0.0*
1,1,.1,0.0,-.2*
20,1,.1,0.0,-.2,-.03473,-.196962,0.0*
1,1,.1,-.03473,-.196962*
20,1,.1,-.03473,-.196962,-.068404,-.187939,0.0*
1,1,.1,-.068404,-.187939*
20,1,.1,-.068404,-.187939,-.1,-.173205,0.0*
1,1,.1,-.1,-.173205*
20,1,.1,-.1,-.173205,-.128558,-.153209,0.0*
1,1,.1,-.128558,-.153209*
20,1,.1,-.128558,-.153209,-.153209,-.128558,0.0*
1,1,.1,-.153209,-.128558*
20,1,.1,-.153209,-.128558,-.173205,-.1,0.0*
1,1,.1,-.173205,-.1*
20,1,.1,-.173205,-.1,-.187939,-.068404,0.0*
1,1,.1,-.187939,-.068404*
20,1,.1,-.187939,-.068404,-.196962,-.03473,0.0*
1,1,.1,-.196962,-.03473*
20,1,.1,-.196962,-.03473,-.2,0.0,0.0*
1,1,.1,-.2,0.0*
20,1,.1,-.2,0.0,-.196962,.03473,0.0*
1,1,.1,-.196962,.03473*
20,1,.1,-.196962,.03473,-.187939,.068404,0.0*
1,1,.1,-.187939,.068404*
20,1,.1,-.187939,.068404,-.173205,.1,0.0*
1,1,.1,-.173205,.1*
20,1,.1,-.173205,.1,-.153209,.128558,0.0*
1,1,.1,-.153209,.128558*
20,1,.1,-.153209,.128558,-.128558,.153209,0.0*
1,1,.1,-.128558,.153209*
20,1,.1,-.128558,.153209,-.1,.173205,0.0*
1,1,.1,-.1,.173205*
20,1,.1,-.1,.173205,-.068404,.187939,0.0*
1,1,.1,-.068404,.187939*
20,1,.1,-.068404,.187939,-.03473,.196962,0.0*
1,1,.1,-.03473,.196962*
20,1,.1,-.03473,.196962,0.0,.2,0.0*
1,1,.1,0.0,.2*
20,1,.1,0.0,.2,.03473,.196962,0.0*
1,1,.1,.03473,.196962*
20,1,.1,.03473,.196962,.068404,.187939,0.0*
1,1,.1,.068404,.187939*
20,1,.1,.068404,.187939,.1,.173205,0.0*
1,1,.1,.1,.173205*
20,1,.1,.1,.173205,.128558,.153209,0.0*
1,1,.1,.128558,.153209*
20,1,.1,.128558,.153209,.153209,.128558,0.0*
1,1,.1,.153209,.128558*
20,1,.1,.153209,.128558,.173205,.1,0.0*
1,1,.1,.173205,.1*
20,1,.1,.173205,.1,.187939,.068404,0.0*
1,1,.1,.187939,.068404*
20,1,.1,.187939,.068404,.196962,.03473,0.0*
1,1,.1,.196962,.03473*
20,1,.1,.196962,.03473,.2,0.0,0.0*
1,1,.1,.2,0.0*
1,1,.1,-.0867,-.1*
20,1,.1,-.0867,-.1,-.0867,.1,0.0*
1,1,.1,-.0867,.1*
20,1,.1,-.0867,.1,0.0,-.0667,0.0*
1,1,.1,0.0,-.0667*
20,1,.1,0.0,-.0667,.0867,.1,0.0*
1,1,.1,.0867,.1*
20,1,.1,.0867,.1,.0867,-.1,0.0*
1,1,.1,.0867,-.1*
%
%ADD10MACRO10*%
%AMMACRO14*
1,1,.1,0.0,.09995*
20,1,.1,0.0,.09995,.09995,-.09995,0.0*
1,1,.1,.09995,-.09995*
20,1,.1,.09995,-.09995,-.09995,-.09995,0.0*
1,1,.1,-.09995,-.09995*
20,1,.1,-.09995,-.09995,0.0,.09995,0.0*
1,1,.1,0.0,.09995*
1,1,.1,-.0499,.05*
20,1,.1,-.0499,.05,-.0266,-.0499,0.0*
1,1,.1,-.0266,-.0499*
20,1,.1,-.0266,-.0499,0.0,.05,0.0*
1,1,.1,0.0,.05*
20,1,.1,0.0,.05,.0267,-.0499,0.0*
1,1,.1,.0267,-.0499*
20,1,.1,.0267,-.0499,.05,.05,0.0*
1,1,.1,.05,.05*
%
%ADD14MACRO14*%
%ADD15C,1.6*%
%ADD16C,.1*%
G75*
%LPD*%
G75*
G36*
G01X3598540Y8305990D02*
Y9548490D01*
X5630540D01*
Y8305990D01*
X3598540D01*
G37*
G36*
G01Y12139990D02*
Y13382490D01*
X5630540D01*
Y12139990D01*
X3598540D01*
G37*
G54D10*
X612000Y271000D03*
Y144000D03*
X485000Y271000D03*
Y144000D03*
X358000Y271000D03*
Y144000D03*
X231000Y271000D03*
Y144000D03*
X104000Y271000D03*
Y144000D03*
X7193420Y2505090D03*
G54D11*
X202000Y789750D03*
X422000D03*
X202000Y1574750D03*
X422000D03*
X7193420Y1077710D03*
G54D12*
X946000Y550000D03*
X132000Y838800D03*
X321000Y441000D03*
X284000Y500000D03*
X250000Y927000D03*
X561000Y651000D03*
X861000Y659000D03*
X749000Y866300D03*
X699540Y149410D03*
X294000Y82000D03*
X171360Y79690D03*
X715000Y244000D03*
X984000Y828000D03*
X908000Y776000D03*
X947000Y887000D03*
X547000Y824000D03*
X609700Y1404500D03*
X255000Y1462000D03*
X250000Y1087000D03*
X606500Y1150500D03*
X606000Y1087000D03*
X964000Y1886000D03*
X250500Y1296500D03*
X616500Y1277500D03*
X254500Y1023500D03*
X816000Y2012000D03*
X477000Y2654000D03*
X803000Y1531000D03*
X650000Y1839000D03*
X803000D03*
X805000Y1685000D03*
X498000D03*
X78000Y1646000D03*
X278000Y1954000D03*
Y2415000D03*
X451000Y2498000D03*
X136000Y1648000D03*
Y1956000D03*
Y2417000D03*
X830000Y2235300D03*
X116000Y1537000D03*
X597000Y2612000D03*
X802000Y965000D03*
X815000Y1085000D03*
X885000Y1169000D03*
X625000Y2537200D03*
X823000Y2512000D03*
X946700Y2288000D03*
X839000Y2441000D03*
X764000Y2308000D03*
X249700Y1214000D03*
X252000Y1150500D03*
X613000Y1341000D03*
X903000Y937000D03*
X613500Y1023500D03*
X475000Y2078000D03*
X249490Y1365000D03*
X722000Y1214000D03*
X612010Y1468000D03*
X894000Y1245000D03*
X425000Y2878000D03*
X136000D03*
X1179000Y472000D03*
X2012000Y651000D03*
X1115000Y519000D03*
X2804000Y398000D03*
X1020000Y548000D03*
X2721000Y909000D03*
X2599000Y659000D03*
X1934000Y686000D03*
X1962000Y929000D03*
X2476000Y83000D03*
X2325000D03*
X1822000Y222000D03*
X1457000Y461000D03*
X1031000Y126000D03*
X2741000Y754000D03*
X2151000Y841000D03*
X2148000Y659000D03*
X1056000Y730000D03*
X1645000Y713000D03*
X1234000Y595000D03*
X1522000Y123000D03*
X1229000Y125000D03*
X2728000Y329000D03*
X2730010Y405000D03*
X2313000Y367000D03*
X2318000Y303000D03*
X1831780Y315000D03*
X2350000Y667000D03*
X1547010Y735000D03*
X1427500Y578500D03*
X1812000Y771000D03*
X1685000Y769200D03*
X1524000Y500000D03*
X2482000Y706000D03*
X1144000Y2131000D03*
X2033000Y2737000D03*
X1202000Y2164000D03*
X1606000Y1187000D03*
X1292000Y1496000D03*
X1507000Y2595000D03*
X1505000Y2682000D03*
X1015000Y2156000D03*
X1311000Y2395000D03*
X1025000Y1744000D03*
X1237000Y2336000D03*
X1934000Y2580000D03*
X1838000Y2579000D03*
X1768580Y2524000D03*
X1282000Y1862990D03*
X1432000Y1976000D03*
X1623000Y1960000D03*
X1514000Y2062000D03*
X2612000Y1556000D03*
X2278000Y1773000D03*
X2195000Y1016000D03*
X2244020Y2407320D03*
X2015000Y2543000D03*
X2169000Y1309000D03*
X2304000Y1308000D03*
X2446000Y1688000D03*
X2098000Y1773000D03*
X1957000Y1962000D03*
X1879000D03*
X2793000Y1470000D03*
X2692000Y1740000D03*
X2613000Y1801000D03*
X2801000Y1237000D03*
X1908000Y1500800D03*
X1295000Y1598000D03*
X2319000Y2348000D03*
X1923000Y2506000D03*
X2016000Y2282000D03*
X2712000Y1948000D03*
X2381000Y1922000D03*
X1795000Y1217000D03*
X1799000Y1003000D03*
X1198000Y986000D03*
X1205000Y1136000D03*
X2262000Y1500800D03*
X1832000Y2301700D03*
X1547000Y1567000D03*
X2192000Y1964000D03*
X1544700Y1687000D03*
X1728000Y1501800D03*
X1994000Y1500800D03*
X1547010Y1317000D03*
X1169000Y1247800D03*
X1231310Y1240730D03*
X2791000Y1546000D03*
X1155000Y2644000D03*
X1154000Y2581000D03*
X1077000D03*
Y2644000D03*
X2778000Y1764000D03*
X2636000Y2303000D03*
X1237700Y2428000D03*
X2699000Y1542700D03*
X2499000Y1639000D03*
X1903000Y1729000D03*
X1821000Y1732200D03*
X1728000D03*
X1071000Y1554000D03*
X1571000Y1457000D03*
X1018000Y1925000D03*
X1742000Y2296000D03*
X1099300Y1407000D03*
X2604000Y1944000D03*
X2704000Y1806000D03*
X2604000Y1318000D03*
X1996000Y1731200D03*
X2035000Y1914000D03*
X1638000Y1732200D03*
X1317070Y1674460D03*
X2377000Y1831000D03*
Y1210000D03*
X1025000Y1634000D03*
X2094000Y2756000D03*
X1590000Y3064000D03*
X1506000Y3163000D03*
X1432000Y2877000D03*
X2679000Y2823000D03*
X2170000D03*
X2829000Y220000D03*
X2876000Y578000D03*
X3652000Y763000D03*
X3662000Y462000D03*
X3298000Y474000D03*
X3148000Y773000D03*
X2891000Y383000D03*
X3124000Y101000D03*
X3600000Y205000D03*
X3602000Y91000D03*
X3268000Y853000D03*
X2925210Y2312000D03*
X2921000Y2403000D03*
X3030000Y2320000D03*
X3906000Y2476000D03*
X3670000Y2480000D03*
Y2155000D03*
X3672000Y1832000D03*
X3864000Y1791000D03*
X3852000Y2168000D03*
X3593000Y1573000D03*
X3908000Y1388000D03*
X3575000Y1035000D03*
X3285000Y1031800D03*
X3126000D03*
X3218000Y1033000D03*
X3023300Y2172800D03*
X3522000Y1696000D03*
X3903000Y1003000D03*
X3902000Y1531000D03*
X3569000Y1339000D03*
X2828000Y2379000D03*
X3609200Y1940000D03*
X3209000Y1404000D03*
X2906500Y2743500D03*
X3205000Y1292000D03*
X2859300Y1196390D03*
X3668000Y2774000D03*
X3341000Y2821000D03*
X3128000Y2822000D03*
X3887000Y2785000D03*
X7193420Y3218780D03*
G54D13*
X2750000Y2622000D03*
X2623000D03*
X2496000D03*
X2369000D03*
X2242000D03*
X2750000Y2495000D03*
X2623000D03*
X2496000D03*
X2369000D03*
X2242000D03*
X3385000Y2622000D03*
X3258000D03*
X3131000D03*
X3004000D03*
X2877000D03*
X3385000Y2495000D03*
X3258000D03*
X3131000D03*
X3004000D03*
X2877000D03*
X7193420Y1791400D03*
G54D14*
X3720500Y900000D03*
X3822000Y1662000D03*
X3619000D03*
X7193420Y364020D03*
G54D15*
G01X1160000Y3259500D02*
Y2779500D01*
X540000D01*
Y3259500D01*
G54D16*
G01X0Y3270000D02*
Y0D01*
X4000000D01*
Y2900000D01*
X1700000D01*
Y3270000D01*
X0D01*
G01Y3445320D02*
Y4218000D01*
G01X1700000Y3968000D02*
X0D01*
G01X400000Y4030500D02*
X0Y3968000D01*
X400000Y3905500D01*
Y4030500D01*
G01X0Y3260220D02*
Y5610000D01*
G01X1250280Y5360000D02*
X0D01*
G01X400000Y5422500D02*
X0Y5360000D01*
X400000Y5297500D01*
Y5422500D01*
G01X591930Y7141830D02*
Y7459330D01*
X670660D01*
X702150Y7443450D01*
X725770Y7422290D01*
X745460Y7390540D01*
X761200Y7353490D01*
X765140Y7300580D01*
X761200Y7247660D01*
X745460Y7210620D01*
X725770Y7178860D01*
X702150Y7157700D01*
X670660Y7141830D01*
X591930D01*
G01X1072150D02*
X914680D01*
Y7459330D01*
X1072150D01*
G01X1009160Y7305880D02*
X914680D01*
G01X1225630Y7184150D02*
X1257120Y7157700D01*
X1292550Y7141830D01*
X1324040D01*
X1355530Y7157700D01*
X1379150Y7184150D01*
X1390960Y7221210D01*
X1383090Y7258240D01*
X1363410Y7289990D01*
X1327980Y7311170D01*
X1280740Y7321750D01*
X1253180Y7342910D01*
X1241370Y7379950D01*
X1249250Y7417000D01*
X1268930Y7443450D01*
X1296480Y7459330D01*
X1324040D01*
X1351600Y7448750D01*
X1375220Y7422290D01*
G01X1575940Y7459330D02*
X1670410D01*
G01X1623170D02*
Y7141830D01*
G01X1575940D02*
X1670410D01*
G01X1961670Y7300580D02*
X2040410D01*
Y7205330D01*
X2016790Y7173570D01*
X1989230Y7152410D01*
X1949870Y7141830D01*
X1910500Y7152410D01*
X1882940Y7173570D01*
X1859320Y7205330D01*
X1843570Y7242370D01*
X1835700Y7284700D01*
Y7321750D01*
X1843570Y7353490D01*
X1859320Y7390540D01*
X1882940Y7422290D01*
X1906560Y7443450D01*
X1938050Y7459330D01*
X1965610D01*
X1997100Y7448750D01*
X2020720Y7427580D01*
G01X2162400Y7141830D02*
Y7459330D01*
X2343470Y7141830D01*
Y7459330D01*
G01X2969300Y7432870D02*
X2945680Y7448750D01*
X2918130Y7459330D01*
X2886630D01*
X2851200Y7443450D01*
X2823650Y7417000D01*
X2803960Y7385240D01*
X2788210Y7332330D01*
X2784280Y7284700D01*
X2792160Y7237080D01*
X2803960Y7205330D01*
X2827580Y7173570D01*
X2855140Y7152410D01*
X2882690Y7141830D01*
X2910250D01*
X2937810Y7152410D01*
X2961430Y7168280D01*
X2981110Y7189440D01*
G01X3118840Y7141830D02*
Y7459330D01*
X3217260D01*
X3248750Y7443450D01*
X3268430Y7422290D01*
X3276310Y7379950D01*
X3268430Y7337620D01*
X3244810Y7311170D01*
X3217260Y7295280D01*
X3118840D01*
G01X3217260D02*
X3276310Y7141830D01*
G01X3512450D02*
X3480960Y7147120D01*
X3453410Y7168280D01*
X3429790Y7200040D01*
X3414040Y7237080D01*
X3406170Y7279410D01*
Y7321750D01*
X3414040Y7364080D01*
X3429790Y7401120D01*
X3453410Y7432870D01*
X3480960Y7454040D01*
X3512450Y7459330D01*
X3543940Y7454040D01*
X3571500Y7432870D01*
X3595120Y7401120D01*
X3610870Y7364080D01*
X3618740Y7321750D01*
Y7279410D01*
X3610870Y7237080D01*
X3595120Y7200040D01*
X3571500Y7168280D01*
X3543940Y7147120D01*
X3512450Y7141830D01*
G01X3744670Y7184150D02*
X3776160Y7157700D01*
X3811590Y7141830D01*
X3843080D01*
X3874570Y7157700D01*
X3898190Y7184150D01*
X3910000Y7221210D01*
X3902130Y7258240D01*
X3882450Y7289990D01*
X3847020Y7311170D01*
X3799780Y7321750D01*
X3772220Y7342910D01*
X3760410Y7379950D01*
X3768290Y7417000D01*
X3787970Y7443450D01*
X3815520Y7459330D01*
X3843080D01*
X3870640Y7448750D01*
X3894260Y7422290D01*
G01X4059550Y7184150D02*
X4091040Y7157700D01*
X4126470Y7141830D01*
X4157960D01*
X4189450Y7157700D01*
X4213070Y7184150D01*
X4224880Y7221210D01*
X4217010Y7258240D01*
X4197330Y7289990D01*
X4161900Y7311170D01*
X4114660Y7321750D01*
X4087100Y7342910D01*
X4075290Y7379950D01*
X4083170Y7417000D01*
X4102850Y7443450D01*
X4130400Y7459330D01*
X4157960D01*
X4185520Y7448750D01*
X4209140Y7422290D01*
G01X4689310Y7184150D02*
X4720800Y7157700D01*
X4756230Y7141830D01*
X4787720D01*
X4819210Y7157700D01*
X4842830Y7184150D01*
X4854640Y7221210D01*
X4846770Y7258240D01*
X4827090Y7289990D01*
X4791660Y7311170D01*
X4744420Y7321750D01*
X4716860Y7342910D01*
X4705050Y7379950D01*
X4712930Y7417000D01*
X4732610Y7443450D01*
X4760160Y7459330D01*
X4787720D01*
X4815280Y7448750D01*
X4838900Y7422290D01*
G01X5165590Y7141830D02*
X5008120D01*
Y7459330D01*
X5165590D01*
G01X5102600Y7305880D02*
X5008120D01*
G01X5488340Y7432870D02*
X5464720Y7448750D01*
X5437170Y7459330D01*
X5405670D01*
X5370240Y7443450D01*
X5342690Y7417000D01*
X5323000Y7385240D01*
X5307250Y7332330D01*
X5303320Y7284700D01*
X5311200Y7237080D01*
X5323000Y7205330D01*
X5346620Y7173570D01*
X5374180Y7152410D01*
X5401730Y7141830D01*
X5429290D01*
X5456850Y7152410D01*
X5480470Y7168280D01*
X5500150Y7189440D01*
G01X5716610Y7459330D02*
Y7141830D01*
G01X5626080Y7459330D02*
X5807150D01*
G01X5984260D02*
X6078730D01*
G01X6031490D02*
Y7141830D01*
G01X5984260D02*
X6078730D01*
G01X6346370D02*
X6314880Y7147120D01*
X6287330Y7168280D01*
X6263710Y7200040D01*
X6247960Y7237080D01*
X6240090Y7279410D01*
Y7321750D01*
X6247960Y7364080D01*
X6263710Y7401120D01*
X6287330Y7432870D01*
X6314880Y7454040D01*
X6346370Y7459330D01*
X6377860Y7454040D01*
X6405420Y7432870D01*
X6429040Y7401120D01*
X6444790Y7364080D01*
X6452660Y7321750D01*
Y7279410D01*
X6444790Y7237080D01*
X6429040Y7200040D01*
X6405420Y7168280D01*
X6377860Y7147120D01*
X6346370Y7141830D01*
G01X6570720D02*
Y7459330D01*
X6751790Y7141830D01*
Y7459330D01*
G01X7377620Y7432870D02*
X7354000Y7448750D01*
X7326450Y7459330D01*
X7294950D01*
X7259520Y7443450D01*
X7231970Y7417000D01*
X7212280Y7385240D01*
X7196530Y7332330D01*
X7192600Y7284700D01*
X7200480Y7237080D01*
X7212280Y7205330D01*
X7235900Y7173570D01*
X7263460Y7152410D01*
X7291010Y7141830D01*
X7318570D01*
X7346130Y7152410D01*
X7369750Y7168280D01*
X7389430Y7189440D01*
G01X7523230Y7141830D02*
Y7459330D01*
G01X7688560D02*
Y7141830D01*
G01Y7300580D02*
X7523230D01*
G01X7822360Y7141830D02*
X7920770Y7459330D01*
X8019190Y7141830D01*
G01X7983760Y7252950D02*
X7857790D01*
G01X8156920Y7141830D02*
Y7459330D01*
X8255340D01*
X8286830Y7443450D01*
X8306510Y7422290D01*
X8314390Y7379950D01*
X8306510Y7337620D01*
X8282890Y7311170D01*
X8255340Y7295280D01*
X8156920D01*
G01X8255340D02*
X8314390Y7141830D01*
G01X8550530Y7459330D02*
Y7141830D01*
G01X8460000Y7459330D02*
X8641070D01*
G01X403000Y7036000D02*
X639190D01*
G01X717880D02*
X954070D01*
G01X1032760D02*
X1268950D01*
G01X1347640D02*
X1583830D01*
G01X1662520D02*
X1898710D01*
G01X1977400D02*
X2213590D01*
G01X2292280D02*
X2528470D01*
G01X2607160D02*
X2843350D01*
G01X2922040D02*
X3158230D01*
G01X3236920D02*
X3473110D01*
G01X3551800D02*
X3787990D01*
G01X3866680D02*
X4102870D01*
G01X4181560D02*
X4417750D01*
G01X4496440D02*
X4732630D01*
G01X4811320D02*
X5047510D01*
G01X5126200D02*
X5362390D01*
G01X5441080D02*
X5677270D01*
G01X5755960D02*
X5992150D01*
G01X6070840D02*
X6307030D01*
G01X6385720D02*
X6621910D01*
G01X6700600D02*
X6936790D01*
G01X7015480D02*
X7251670D01*
G01X7330360D02*
X7566550D01*
G01X7645240D02*
X7881430D01*
G01X7960120D02*
X8196310D01*
G01X8275000D02*
X8511190D01*
G01X8589880D02*
X8826070D01*
G01X1937340Y3270000D02*
X5155000D01*
G01X2005760Y2900000D02*
X5155000D01*
G01X2652550Y4126750D02*
Y4444250D01*
X2605320Y4380750D01*
G01Y4126750D02*
X2699790D01*
G01X2959560D02*
X2967430Y4195540D01*
X2979250Y4253740D01*
X2994990Y4306670D01*
X3014670Y4364870D01*
X3046170Y4444250D01*
X2888700D01*
G01X2495110Y3481170D02*
X2487240Y3486460D01*
Y3497040D01*
X2495110Y3502330D01*
X2502990Y3497040D01*
Y3486460D01*
X2495110Y3481170D01*
G01X2735200Y3624030D02*
X2762760Y3661090D01*
X2786380Y3682250D01*
X2817870Y3692830D01*
X2845430Y3682250D01*
X2865110Y3661090D01*
X2880850Y3629330D01*
X2884790Y3592290D01*
X2880850Y3560540D01*
X2865110Y3528780D01*
X2841480Y3502330D01*
X2813930Y3491750D01*
X2782440Y3502330D01*
X2754880Y3534070D01*
X2739140Y3581710D01*
X2735200Y3634620D01*
X2743070Y3703410D01*
X2754880Y3740460D01*
X2774560Y3777500D01*
X2802120Y3803960D01*
X2829680Y3809250D01*
X2857230Y3798670D01*
X2876920Y3772210D01*
G01X3117000Y3491750D02*
X3124870Y3560540D01*
X3136690Y3618740D01*
X3152430Y3671670D01*
X3172110Y3729870D01*
X3203610Y3809250D01*
X3046140D01*
G01X1700000Y3352700D02*
Y4218000D01*
G01X1902720Y3968000D02*
X1700000D01*
G01X1300000Y3905500D02*
X1700000Y3968000D01*
X1300000Y4030500D01*
Y3905500D01*
G01X2258920Y3491750D02*
X2140830D01*
Y3809250D01*
X2258920D01*
G01X2204790Y5518750D02*
Y5836250D01*
X2059140Y5608710D01*
X2255970D01*
G01X2472430Y5836250D02*
X2440940Y5825670D01*
X2417320Y5799210D01*
X2401580Y5767460D01*
X2389770Y5725120D01*
X2385830Y5677500D01*
X2389770Y5629870D01*
X2401580Y5587540D01*
X2417320Y5555780D01*
X2440940Y5529330D01*
X2472430Y5518750D01*
X2503920Y5529330D01*
X2527550Y5555780D01*
X2543290Y5587540D01*
X2555100Y5629870D01*
X2559040Y5677500D01*
X2555100Y5725120D01*
X2543290Y5767460D01*
X2527550Y5799210D01*
X2503920Y5825670D01*
X2472430Y5836250D01*
G01X1842670Y4883750D02*
Y5201250D01*
X1795440Y5137750D01*
G01Y4883750D02*
X1889910D01*
G01X2157550Y4873170D02*
X2149680Y4878460D01*
Y4889040D01*
X2157550Y4894330D01*
X2165430Y4889040D01*
Y4878460D01*
X2157550Y4873170D01*
G01X2385830Y4931360D02*
X2409450Y4904910D01*
X2437000Y4889040D01*
X2472430Y4883750D01*
X2507870Y4894330D01*
X2535420Y4915490D01*
X2555100Y4952540D01*
X2559040Y4994870D01*
X2551170Y5037200D01*
X2531480Y5063670D01*
X2503920Y5084830D01*
X2476370Y5090120D01*
X2448820Y5084830D01*
X2413390Y5063670D01*
X2425200Y5201250D01*
X2531480D01*
G01X2779440Y4883750D02*
X2787310Y4952540D01*
X2799130Y5010740D01*
X2814870Y5063670D01*
X2834550Y5121870D01*
X2866050Y5201250D01*
X2708580D01*
G01X1606480Y4883750D02*
X1488390D01*
Y5201250D01*
X1606480D01*
G01X1308290Y6824330D02*
Y6506830D01*
G01X1217760Y6824330D02*
X1398830D01*
G01X1623170Y6506830D02*
X1591680Y6512120D01*
X1564130Y6533280D01*
X1540510Y6565040D01*
X1524760Y6602080D01*
X1516890Y6644410D01*
Y6686750D01*
X1524760Y6729080D01*
X1540510Y6766120D01*
X1564130Y6797870D01*
X1591680Y6819040D01*
X1623170Y6824330D01*
X1654660Y6819040D01*
X1682220Y6797870D01*
X1705840Y6766120D01*
X1721590Y6729080D01*
X1729460Y6686750D01*
Y6644410D01*
X1721590Y6602080D01*
X1705840Y6565040D01*
X1682220Y6533280D01*
X1654660Y6512120D01*
X1623170Y6506830D01*
G01X1938050Y6824330D02*
Y6506830D01*
G01X1847520Y6824330D02*
X2028590D01*
G01X2154520Y6506830D02*
X2252930Y6824330D01*
X2351350Y6506830D01*
G01X2315920Y6617950D02*
X2189950D01*
G01X2489080Y6824330D02*
Y6506830D01*
X2646550D01*
G01X3197570Y6824330D02*
Y6506830D01*
G01X3107040Y6824330D02*
X3288110D01*
G01X3429790Y6506830D02*
Y6824330D01*
G01X3595120D02*
Y6506830D01*
G01Y6665580D02*
X3429790D01*
G01X3780100Y6824330D02*
X3874570D01*
G01X3827330D02*
Y6506830D01*
G01X3780100D02*
X3874570D01*
G01X4228820Y6797870D02*
X4205200Y6813750D01*
X4177650Y6824330D01*
X4146150D01*
X4110720Y6808450D01*
X4083170Y6782000D01*
X4063480Y6750240D01*
X4047730Y6697330D01*
X4043800Y6649700D01*
X4051680Y6602080D01*
X4063480Y6570330D01*
X4087100Y6538570D01*
X4114660Y6517410D01*
X4142210Y6506830D01*
X4169770D01*
X4197330Y6517410D01*
X4220950Y6533280D01*
X4240630Y6554440D01*
G01X4370490Y6506830D02*
Y6824330D01*
G01X4520080D02*
X4370490Y6628530D01*
G01X4543700Y6506830D02*
X4437410Y6718490D01*
G01X4681440Y6506830D02*
Y6824330D01*
X4862510Y6506830D01*
Y6824330D01*
G01X5165590Y6506830D02*
X5008120D01*
Y6824330D01*
X5165590D01*
G01X5102600Y6670880D02*
X5008120D01*
G01X5319070Y6549150D02*
X5350560Y6522700D01*
X5385990Y6506830D01*
X5417480D01*
X5448970Y6522700D01*
X5472590Y6549150D01*
X5484400Y6586210D01*
X5476530Y6623240D01*
X5456850Y6654990D01*
X5421420Y6676170D01*
X5374180Y6686750D01*
X5346620Y6707910D01*
X5334810Y6744950D01*
X5342690Y6782000D01*
X5362370Y6808450D01*
X5389920Y6824330D01*
X5417480D01*
X5445040Y6813750D01*
X5468660Y6787290D01*
G01X5633950Y6549150D02*
X5665440Y6522700D01*
X5700870Y6506830D01*
X5732360D01*
X5763850Y6522700D01*
X5787470Y6549150D01*
X5799280Y6586210D01*
X5791410Y6623240D01*
X5771730Y6654990D01*
X5736300Y6676170D01*
X5689060Y6686750D01*
X5661500Y6707910D01*
X5649690Y6744950D01*
X5657570Y6782000D01*
X5677250Y6808450D01*
X5704800Y6824330D01*
X5732360D01*
X5759920Y6813750D01*
X5783540Y6787290D01*
G01X6346370Y6824330D02*
X6314880Y6813750D01*
X6291260Y6787290D01*
X6275520Y6755540D01*
X6263710Y6713200D01*
X6259770Y6665580D01*
X6263710Y6617950D01*
X6275520Y6575620D01*
X6291260Y6543860D01*
X6314880Y6517410D01*
X6346370Y6506830D01*
X6377860Y6517410D01*
X6401490Y6543860D01*
X6417230Y6575620D01*
X6429040Y6617950D01*
X6432980Y6665580D01*
X6429040Y6713200D01*
X6417230Y6755540D01*
X6401490Y6787290D01*
X6377860Y6813750D01*
X6346370Y6824330D01*
G01X6661250Y6496250D02*
X6653380Y6501540D01*
Y6512120D01*
X6661250Y6517410D01*
X6669130Y6512120D01*
Y6501540D01*
X6661250Y6496250D01*
G01X6976130Y6506830D02*
X7003690Y6512120D01*
X7035180Y6527990D01*
X7054870Y6554440D01*
X7062740Y6591500D01*
X7054870Y6628530D01*
X7031250Y6660280D01*
X6995820Y6676170D01*
X6956450D01*
X6932830Y6686750D01*
X6913150Y6713200D01*
X6905280Y6750240D01*
X6917090Y6787290D01*
X6944640Y6813750D01*
X6976130Y6824330D01*
X7007620Y6813750D01*
X7035180Y6787290D01*
X7046990Y6750240D01*
X7039120Y6713200D01*
X7019440Y6686750D01*
X6995820Y6676170D01*
X6956450D01*
X6921020Y6660280D01*
X6897400Y6628530D01*
X6889530Y6591500D01*
X6897400Y6554440D01*
X6917090Y6527990D01*
X6948580Y6512120D01*
X6976130Y6506830D01*
G01X7503540D02*
Y6824330D01*
X7605890Y6559750D01*
X7708250Y6824330D01*
Y6506830D01*
G01X7818420D02*
Y6824330D01*
X7920770Y6559750D01*
X8023130Y6824330D01*
Y6506830D01*
G01X4214270Y0D02*
X5161000D01*
G01X4438670Y1112750D02*
Y1430250D01*
X4391440Y1366750D01*
G01Y1112750D02*
X4485910D01*
G01X4753550Y1102170D02*
X4745680Y1107460D01*
Y1118040D01*
X4753550Y1123330D01*
X4761430Y1118040D01*
Y1107460D01*
X4753550Y1102170D01*
G01X5068430Y1112750D02*
Y1430250D01*
X5021200Y1366750D01*
G01Y1112750D02*
X5115670D01*
G01X5430550D02*
Y1430250D01*
X5284900Y1202710D01*
X5481730D01*
G01X4202480Y1112750D02*
X4084390D01*
Y1430250D01*
X4202480D01*
G01X4179980Y2900000D02*
X5161000D01*
G01X4503510Y4478250D02*
X4527130Y4441200D01*
X4558620Y4420040D01*
X4594050Y4414750D01*
X4625550Y4420040D01*
X4657040Y4446490D01*
X4676720Y4478250D01*
X4680650Y4510000D01*
X4672780Y4547030D01*
X4645230Y4573500D01*
X4617670Y4584090D01*
X4582240D01*
G01X4617670D02*
X4641290Y4599960D01*
X4660970Y4626410D01*
X4668850Y4658160D01*
X4660970Y4689920D01*
X4641290Y4716370D01*
X4605860Y4732250D01*
X4570430Y4726960D01*
X4535000Y4705790D01*
G01X4904990Y4404170D02*
X4897120Y4409460D01*
Y4420040D01*
X4904990Y4425330D01*
X4912870Y4420040D01*
Y4409460D01*
X4904990Y4404170D01*
G01X5212000Y4414750D02*
X5219870Y4483540D01*
X5231690Y4541740D01*
X5247430Y4594670D01*
X5267110Y4652870D01*
X5298610Y4732250D01*
X5141140D01*
G01X4590110Y3769170D02*
X4582240Y3774460D01*
Y3785040D01*
X4590110Y3790330D01*
X4597990Y3785040D01*
Y3774460D01*
X4590110Y3769170D01*
G01X4904990Y3779750D02*
Y4097250D01*
X4857760Y4033750D01*
G01Y3779750D02*
X4952230D01*
G01X5133270Y3827360D02*
X5156890Y3800910D01*
X5184440Y3785040D01*
X5219870Y3779750D01*
X5255310Y3790330D01*
X5282860Y3811490D01*
X5302540Y3848540D01*
X5306480Y3890870D01*
X5298610Y3933200D01*
X5278920Y3959670D01*
X5251360Y3980830D01*
X5223810Y3986120D01*
X5196260Y3980830D01*
X5160830Y3959670D01*
X5172640Y4097250D01*
X5278920D01*
G01X4353920Y3779750D02*
X4235830D01*
Y4097250D01*
X4353920D01*
G01X3361070Y3491750D02*
X3479160D01*
Y3809250D01*
X3361070D01*
G01X4000000Y2934060D02*
Y5610000D01*
G01X3379720Y5360000D02*
X4000000D01*
G01X3600000Y5297500D02*
X4000000Y5360000D01*
X3600000Y5422500D01*
Y5297500D01*
G01X3023510Y4883750D02*
X3141600D01*
Y5201250D01*
X3023510D01*
G01X3598540Y9548490D02*
Y12139990D01*
X5630540D01*
Y9548490D01*
X3598540D01*
G01X6052000Y7170D02*
Y5653000D01*
X18332200D01*
Y7170D01*
X6052000D01*
G01Y720860D02*
X18332200D01*
G01X4911000Y874630D02*
Y0D01*
G01X4848500Y400000D02*
X4911000Y0D01*
X4973500Y400000D01*
X4848500D01*
G01X6052000Y2148240D02*
X18332200D01*
G01X6052000Y1434550D02*
X18332200D01*
G01X4678760Y2012330D02*
X4702380Y2044080D01*
X4729940Y2059960D01*
X4761430Y2065250D01*
X4800790Y2054670D01*
X4828350Y2028210D01*
X4836220Y1996460D01*
X4832290Y1964700D01*
X4816540Y1938250D01*
X4737810Y1885330D01*
X4702380Y1848290D01*
X4678760Y1795360D01*
X4670890Y1747750D01*
X4836220D01*
G01X5001510Y1784780D02*
X5029070Y1758330D01*
X5060560Y1747750D01*
X5092050Y1758330D01*
X5119610Y1790070D01*
X5139290Y1837710D01*
X5147170Y1885330D01*
Y1943540D01*
X5139290Y1991160D01*
X5119610Y2033500D01*
X5095990Y2054670D01*
X5068430Y2065250D01*
X5036940Y2054670D01*
X5013320Y2033500D01*
X4997580Y2001750D01*
X4989700Y1959410D01*
X4997580Y1922380D01*
X5017260Y1885330D01*
X5040880Y1864160D01*
X5068430Y1858870D01*
X5099920Y1869450D01*
X5123550Y1895910D01*
X5147170Y1943540D01*
G01X4911000Y2303370D02*
Y2900000D01*
G01X4973500Y2500000D02*
X4911000Y2900000D01*
X4848500Y2500000D01*
X4973500D01*
G01X5619510Y1112750D02*
X5737600D01*
Y1430250D01*
X5619510D01*
G01X4905000Y2100000D02*
Y2900000D01*
G01X4967500Y2500000D02*
X4905000Y2900000D01*
X4842500Y2500000D01*
X4967500D01*
G01X6331420Y3813060D02*
Y4130560D01*
X6481010D01*
G01X6425900Y3977110D02*
X6331420D01*
G01X6673860Y4130560D02*
X6768330D01*
G01X6721090D02*
Y3813060D01*
G01X6673860D02*
X6768330D01*
G01X7059590Y3971810D02*
X7138330D01*
Y3876560D01*
X7114710Y3844800D01*
X7087150Y3823640D01*
X7047790Y3813060D01*
X7008420Y3823640D01*
X6980860Y3844800D01*
X6957240Y3876560D01*
X6941490Y3913600D01*
X6933620Y3955930D01*
Y3992980D01*
X6941490Y4024720D01*
X6957240Y4061770D01*
X6980860Y4093520D01*
X7004480Y4114680D01*
X7035970Y4130560D01*
X7063530D01*
X7095020Y4119980D01*
X7118640Y4098810D01*
G01X7264250Y4130560D02*
Y3903020D01*
X7280000Y3855380D01*
X7311490Y3823640D01*
X7350850Y3813060D01*
X7390220Y3823640D01*
X7421710Y3855380D01*
X7437460Y3903020D01*
Y4130560D01*
G01X7587000Y3813060D02*
Y4130560D01*
X7685420D01*
X7716910Y4114680D01*
X7736590Y4093520D01*
X7744470Y4051180D01*
X7736590Y4008850D01*
X7712970Y3982400D01*
X7685420Y3966510D01*
X7587000D01*
G01X7685420D02*
X7744470Y3813060D01*
G01X8059350D02*
X7901880D01*
Y4130560D01*
X8059350D01*
G01X7996360Y3977110D02*
X7901880D01*
G01X6052000Y4289310D02*
X18332200D01*
G01X6052000Y3575620D02*
X18332200D01*
G01X6052000Y2861930D02*
X18332200D01*
G01X4905000Y3541630D02*
Y3270000D01*
G01X4842500Y3670000D02*
X4905000Y3270000D01*
X4967500Y3670000D01*
X4842500D01*
G01X5456070Y3779750D02*
X5574160D01*
Y4097250D01*
X5456070D01*
G01X6052000Y5003000D02*
X18332200D01*
G01X6606670Y7872080D02*
X6779880Y8104910D01*
G01X6693270Y8147240D02*
Y7829740D01*
G01X6779880Y7872080D02*
X6606670Y8104910D01*
G01X6575180Y7988490D02*
X6811370D01*
G01X7555250Y7924980D02*
X7586740Y7898530D01*
X7622170Y7882660D01*
X7653660D01*
X7685150Y7898530D01*
X7708770Y7924980D01*
X7720580Y7962040D01*
X7712710Y7999070D01*
X7693030Y8030820D01*
X7657600Y8052000D01*
X7610360Y8062580D01*
X7582800Y8083740D01*
X7570990Y8120780D01*
X7578870Y8157830D01*
X7598550Y8184280D01*
X7626100Y8200160D01*
X7653660D01*
X7681220Y8189580D01*
X7704840Y8163120D01*
G01X7866190Y8200160D02*
Y7972620D01*
X7881940Y7924980D01*
X7913430Y7893240D01*
X7952790Y7882660D01*
X7992160Y7893240D01*
X8023650Y7924980D01*
X8039400Y7972620D01*
Y8200160D01*
G01X8188940Y7882660D02*
Y8200160D01*
X8287360D01*
X8318850Y8184280D01*
X8338530Y8163120D01*
X8346410Y8120780D01*
X8338530Y8078450D01*
X8314910Y8052000D01*
X8287360Y8036110D01*
X8188940D01*
G01X8287360D02*
X8346410Y7882660D01*
G01X8507760D02*
Y8200160D01*
X8657350D01*
G01X8602240Y8046710D02*
X8507760D01*
G01X8799020Y7882660D02*
X8897430Y8200160D01*
X8995850Y7882660D01*
G01X8960420Y7993780D02*
X8834450D01*
G01X9298920Y8173700D02*
X9275300Y8189580D01*
X9247750Y8200160D01*
X9216250D01*
X9180820Y8184280D01*
X9153270Y8157830D01*
X9133580Y8126070D01*
X9117830Y8073160D01*
X9113900Y8025530D01*
X9121780Y7977910D01*
X9133580Y7946160D01*
X9157200Y7914400D01*
X9184760Y7893240D01*
X9212310Y7882660D01*
X9239870D01*
X9267430Y7893240D01*
X9291050Y7909110D01*
X9310730Y7930270D01*
G01X9605930Y7882660D02*
X9448460D01*
Y8200160D01*
X9605930D01*
G01X9542940Y8046710D02*
X9448460D01*
G01X10105780Y7988490D02*
X10208130D01*
G01X10688300Y7882660D02*
X10786710Y8200160D01*
X10885130Y7882660D01*
G01X10849700Y7993780D02*
X10723730D01*
G01X11054360Y8200160D02*
X11148830D01*
G01X11101590D02*
Y7882660D01*
G01X11054360D02*
X11148830D01*
G01X11337740D02*
Y8200160D01*
X11436160D01*
X11467650Y8184280D01*
X11487330Y8163120D01*
X11495210Y8120780D01*
X11487330Y8078450D01*
X11463710Y8052000D01*
X11436160Y8036110D01*
X11337740D01*
G01X11436160D02*
X11495210Y7882660D01*
G01X12046230Y8200160D02*
X12014740Y8189580D01*
X11991120Y8163120D01*
X11975380Y8131370D01*
X11963570Y8089030D01*
X11959630Y8041410D01*
X11963570Y7993780D01*
X11975380Y7951450D01*
X11991120Y7919690D01*
X12014740Y7893240D01*
X12046230Y7882660D01*
X12077720Y7893240D01*
X12101350Y7919690D01*
X12117090Y7951450D01*
X12128900Y7993780D01*
X12132840Y8041410D01*
X12128900Y8089030D01*
X12117090Y8131370D01*
X12101350Y8163120D01*
X12077720Y8189580D01*
X12046230Y8200160D01*
G01X12573640Y7882660D02*
Y8200160D01*
X12675990Y7935580D01*
X12778350Y8200160D01*
Y7882660D01*
G01X12888520D02*
Y8200160D01*
X12990870Y7935580D01*
X13093230Y8200160D01*
Y7882660D01*
G01X5984780Y9244740D02*
Y8927240D01*
X6142250D01*
G01X6303600Y9191820D02*
X6327220Y9223570D01*
X6354780Y9239450D01*
X6386270Y9244740D01*
X6425630Y9234160D01*
X6453190Y9207700D01*
X6461060Y9175950D01*
X6457130Y9144190D01*
X6441380Y9117740D01*
X6362650Y9064820D01*
X6327220Y9027780D01*
X6303600Y8974850D01*
X6295730Y8927240D01*
X6461060D01*
G01X6693270Y8916660D02*
X6685400Y8921950D01*
Y8932530D01*
X6693270Y8937820D01*
X6701150Y8932530D01*
Y8921950D01*
X6693270Y8916660D01*
G01Y9059520D02*
X6685400Y9064820D01*
Y9075400D01*
X6693270Y9080690D01*
X6701150Y9075400D01*
Y9064820D01*
X6693270Y9059520D01*
G01X7354520Y9096580D02*
X7370270Y9112450D01*
X7382080Y9138900D01*
X7389960Y9175950D01*
X7382080Y9207700D01*
X7366340Y9228860D01*
X7338780Y9244740D01*
X7232500D01*
Y8927240D01*
X7362400D01*
X7389960Y8948400D01*
X7405700Y8980160D01*
X7413570Y9017200D01*
X7405700Y9054230D01*
X7382080Y9085990D01*
X7354520Y9096580D01*
X7232500D01*
G01X7637910Y8927240D02*
X7606420Y8932530D01*
X7578870Y8953690D01*
X7555250Y8985450D01*
X7539500Y9022490D01*
X7531630Y9064820D01*
Y9107160D01*
X7539500Y9149490D01*
X7555250Y9186530D01*
X7578870Y9218280D01*
X7606420Y9239450D01*
X7637910Y9244740D01*
X7669400Y9239450D01*
X7696960Y9218280D01*
X7720580Y9186530D01*
X7736330Y9149490D01*
X7744200Y9107160D01*
Y9064820D01*
X7736330Y9022490D01*
X7720580Y8985450D01*
X7696960Y8953690D01*
X7669400Y8932530D01*
X7637910Y8927240D01*
G01X7952790Y9244740D02*
Y8927240D01*
G01X7862260Y9244740D02*
X8043330D01*
G01X8267670D02*
Y8927240D01*
G01X8177140Y9244740D02*
X8358210D01*
G01X8582550Y8927240D02*
X8551060Y8932530D01*
X8523510Y8953690D01*
X8499890Y8985450D01*
X8484140Y9022490D01*
X8476270Y9064820D01*
Y9107160D01*
X8484140Y9149490D01*
X8499890Y9186530D01*
X8523510Y9218280D01*
X8551060Y9239450D01*
X8582550Y9244740D01*
X8614040Y9239450D01*
X8641600Y9218280D01*
X8665220Y9186530D01*
X8680970Y9149490D01*
X8688840Y9107160D01*
Y9064820D01*
X8680970Y9022490D01*
X8665220Y8985450D01*
X8641600Y8953690D01*
X8614040Y8932530D01*
X8582550Y8927240D01*
G01X8795080D02*
Y9244740D01*
X8897430Y8980160D01*
X8999790Y9244740D01*
Y8927240D01*
G01X9613800Y9218280D02*
X9590180Y9234160D01*
X9562630Y9244740D01*
X9531130D01*
X9495700Y9228860D01*
X9468150Y9202410D01*
X9448460Y9170650D01*
X9432710Y9117740D01*
X9428780Y9070110D01*
X9436660Y9022490D01*
X9448460Y8990740D01*
X9472080Y8958980D01*
X9499640Y8937820D01*
X9527190Y8927240D01*
X9554750D01*
X9582310Y8937820D01*
X9605930Y8953690D01*
X9625610Y8974850D01*
G01X9842070Y8927240D02*
X9810580Y8932530D01*
X9783030Y8953690D01*
X9759410Y8985450D01*
X9743660Y9022490D01*
X9735790Y9064820D01*
Y9107160D01*
X9743660Y9149490D01*
X9759410Y9186530D01*
X9783030Y9218280D01*
X9810580Y9239450D01*
X9842070Y9244740D01*
X9873560Y9239450D01*
X9901120Y9218280D01*
X9924740Y9186530D01*
X9940490Y9149490D01*
X9948360Y9107160D01*
Y9064820D01*
X9940490Y9022490D01*
X9924740Y8985450D01*
X9901120Y8953690D01*
X9873560Y8932530D01*
X9842070Y8927240D01*
G01X10066420D02*
Y9244740D01*
X10247490Y8927240D01*
Y9244740D01*
G01X10385230Y8927240D02*
Y9244740D01*
X10463960D01*
X10495450Y9228860D01*
X10519070Y9207700D01*
X10538760Y9175950D01*
X10554500Y9138900D01*
X10558440Y9085990D01*
X10554500Y9033070D01*
X10538760Y8996030D01*
X10519070Y8964270D01*
X10495450Y8943110D01*
X10463960Y8927240D01*
X10385230D01*
G01X10700110Y9244740D02*
Y9017200D01*
X10715860Y8969560D01*
X10747350Y8937820D01*
X10786710Y8927240D01*
X10826080Y8937820D01*
X10857570Y8969560D01*
X10873320Y9017200D01*
Y9244740D01*
G01X11188200Y9218280D02*
X11164580Y9234160D01*
X11137030Y9244740D01*
X11105530D01*
X11070100Y9228860D01*
X11042550Y9202410D01*
X11022860Y9170650D01*
X11007110Y9117740D01*
X11003180Y9070110D01*
X11011060Y9022490D01*
X11022860Y8990740D01*
X11046480Y8958980D01*
X11074040Y8937820D01*
X11101590Y8927240D01*
X11129150D01*
X11156710Y8937820D01*
X11180330Y8953690D01*
X11200010Y8974850D01*
G01X11416470Y9244740D02*
Y8927240D01*
G01X11325940Y9244740D02*
X11507010D01*
G01X11731350Y8927240D02*
X11699860Y8932530D01*
X11672310Y8953690D01*
X11648690Y8985450D01*
X11632940Y9022490D01*
X11625070Y9064820D01*
Y9107160D01*
X11632940Y9149490D01*
X11648690Y9186530D01*
X11672310Y9218280D01*
X11699860Y9239450D01*
X11731350Y9244740D01*
X11762840Y9239450D01*
X11790400Y9218280D01*
X11814020Y9186530D01*
X11829770Y9149490D01*
X11837640Y9107160D01*
Y9064820D01*
X11829770Y9022490D01*
X11814020Y8985450D01*
X11790400Y8953690D01*
X11762840Y8932530D01*
X11731350Y8927240D01*
G01X11967500D02*
Y9244740D01*
X12065920D01*
X12097410Y9228860D01*
X12117090Y9207700D01*
X12124970Y9165360D01*
X12117090Y9123030D01*
X12093470Y9096580D01*
X12065920Y9080690D01*
X11967500D01*
G01X12065920D02*
X12124970Y8927240D01*
G01X12624820Y9033070D02*
X12727170D01*
G01X13392360Y9218280D02*
X13368740Y9234160D01*
X13341190Y9244740D01*
X13309690D01*
X13274260Y9228860D01*
X13246710Y9202410D01*
X13227020Y9170650D01*
X13211270Y9117740D01*
X13207340Y9070110D01*
X13215220Y9022490D01*
X13227020Y8990740D01*
X13250640Y8958980D01*
X13278200Y8937820D01*
X13305750Y8927240D01*
X13333310D01*
X13360870Y8937820D01*
X13384490Y8953690D01*
X13404170Y8974850D01*
G01X13620630Y8927240D02*
X13589140Y8932530D01*
X13561590Y8953690D01*
X13537970Y8985450D01*
X13522220Y9022490D01*
X13514350Y9064820D01*
Y9107160D01*
X13522220Y9149490D01*
X13537970Y9186530D01*
X13561590Y9218280D01*
X13589140Y9239450D01*
X13620630Y9244740D01*
X13652120Y9239450D01*
X13679680Y9218280D01*
X13703300Y9186530D01*
X13719050Y9149490D01*
X13726920Y9107160D01*
Y9064820D01*
X13719050Y9022490D01*
X13703300Y8985450D01*
X13679680Y8953690D01*
X13652120Y8932530D01*
X13620630Y8927240D01*
G01X13856780D02*
Y9244740D01*
X13951260D01*
X13982750Y9228860D01*
X14006370Y9191820D01*
X14014250Y9149490D01*
X14006370Y9107160D01*
X13986690Y9075400D01*
X13951260Y9059520D01*
X13856780D01*
G01X14171660Y8927240D02*
Y9244740D01*
X14266140D01*
X14297630Y9228860D01*
X14321250Y9191820D01*
X14329130Y9149490D01*
X14321250Y9107160D01*
X14301570Y9075400D01*
X14266140Y9059520D01*
X14171660D01*
G01X14644010Y8927240D02*
X14486540D01*
Y9244740D01*
X14644010D01*
G01X14581020Y9091290D02*
X14486540D01*
G01X14801420Y8927240D02*
Y9244740D01*
X14899840D01*
X14931330Y9228860D01*
X14951010Y9207700D01*
X14958890Y9165360D01*
X14951010Y9123030D01*
X14927390Y9096580D01*
X14899840Y9080690D01*
X14801420D01*
G01X14899840D02*
X14958890Y8927240D01*
G01X15509910Y9244740D02*
X15478420Y9234160D01*
X15454800Y9207700D01*
X15439060Y9175950D01*
X15427250Y9133610D01*
X15423310Y9085990D01*
X15427250Y9038360D01*
X15439060Y8996030D01*
X15454800Y8964270D01*
X15478420Y8937820D01*
X15509910Y8927240D01*
X15541400Y8937820D01*
X15565030Y8964270D01*
X15580770Y8996030D01*
X15592580Y9038360D01*
X15596520Y9085990D01*
X15592580Y9133610D01*
X15580770Y9175950D01*
X15565030Y9207700D01*
X15541400Y9234160D01*
X15509910Y9244740D01*
G01X15824790Y8916660D02*
X15816920Y8921950D01*
Y8932530D01*
X15824790Y8937820D01*
X15832670Y8932530D01*
Y8921950D01*
X15824790Y8916660D01*
G01X16139670Y9244740D02*
X16108180Y9234160D01*
X16084560Y9207700D01*
X16068820Y9175950D01*
X16057010Y9133610D01*
X16053070Y9085990D01*
X16057010Y9038360D01*
X16068820Y8996030D01*
X16084560Y8964270D01*
X16108180Y8937820D01*
X16139670Y8927240D01*
X16171160Y8937820D01*
X16194790Y8964270D01*
X16210530Y8996030D01*
X16222340Y9038360D01*
X16226280Y9085990D01*
X16222340Y9133610D01*
X16210530Y9175950D01*
X16194790Y9207700D01*
X16171160Y9234160D01*
X16139670Y9244740D01*
G01X16367950Y8990740D02*
X16391570Y8953690D01*
X16423060Y8932530D01*
X16458490Y8927240D01*
X16489990Y8932530D01*
X16521480Y8958980D01*
X16541160Y8990740D01*
X16545090Y9022490D01*
X16537220Y9059520D01*
X16509670Y9085990D01*
X16482110Y9096580D01*
X16446680D01*
G01X16482110D02*
X16505730Y9112450D01*
X16525410Y9138900D01*
X16533290Y9170650D01*
X16525410Y9202410D01*
X16505730Y9228860D01*
X16470300Y9244740D01*
X16434870Y9239450D01*
X16399440Y9218280D01*
G01X16682830Y8974850D02*
X16706450Y8948400D01*
X16734000Y8932530D01*
X16769430Y8927240D01*
X16804870Y8937820D01*
X16832420Y8958980D01*
X16852100Y8996030D01*
X16856040Y9038360D01*
X16848170Y9080690D01*
X16828480Y9107160D01*
X16800920Y9128320D01*
X16773370Y9133610D01*
X16745820Y9128320D01*
X16710390Y9107160D01*
X16722200Y9244740D01*
X16828480D01*
G01X17296840Y8927240D02*
Y9244740D01*
X17399190Y8980160D01*
X17501550Y9244740D01*
Y8927240D01*
G01X17611720D02*
Y9244740D01*
X17714070Y8980160D01*
X17816430Y9244740D01*
Y8927240D01*
G01X6606670Y10833660D02*
X6779880Y11066490D01*
G01X6693270Y11108820D02*
Y10791320D01*
G01X6779880Y10833660D02*
X6606670Y11066490D01*
G01X6575180Y10950070D02*
X6811370D01*
G01X7551310Y10844240D02*
Y11161740D01*
X7630040D01*
X7661530Y11145860D01*
X7685150Y11124700D01*
X7704840Y11092950D01*
X7720580Y11055900D01*
X7724520Y11002990D01*
X7720580Y10950070D01*
X7704840Y10913030D01*
X7685150Y10881270D01*
X7661530Y10860110D01*
X7630040Y10844240D01*
X7551310D01*
G01X7905560Y11161740D02*
X8000030D01*
G01X7952790D02*
Y10844240D01*
G01X7905560D02*
X8000030D01*
G01X8346410D02*
X8188940D01*
Y11161740D01*
X8346410D01*
G01X8283420Y11008290D02*
X8188940D01*
G01X8503820Y11161740D02*
Y10844240D01*
X8661290D01*
G01X8976170D02*
X8818700D01*
Y11161740D01*
X8976170D01*
G01X8913180Y11008290D02*
X8818700D01*
G01X9298920Y11135280D02*
X9275300Y11151160D01*
X9247750Y11161740D01*
X9216250D01*
X9180820Y11145860D01*
X9153270Y11119410D01*
X9133580Y11087650D01*
X9117830Y11034740D01*
X9113900Y10987110D01*
X9121780Y10939490D01*
X9133580Y10907740D01*
X9157200Y10875980D01*
X9184760Y10854820D01*
X9212310Y10844240D01*
X9239870D01*
X9267430Y10854820D01*
X9291050Y10870690D01*
X9310730Y10891850D01*
G01X9527190Y11161740D02*
Y10844240D01*
G01X9436660Y11161740D02*
X9617730D01*
G01X9763340Y10844240D02*
Y11161740D01*
X9861760D01*
X9893250Y11145860D01*
X9912930Y11124700D01*
X9920810Y11082360D01*
X9912930Y11040030D01*
X9889310Y11013580D01*
X9861760Y10997690D01*
X9763340D01*
G01X9861760D02*
X9920810Y10844240D01*
G01X10109720Y11161740D02*
X10204190D01*
G01X10156950D02*
Y10844240D01*
G01X10109720D02*
X10204190D01*
G01X10558440Y11135280D02*
X10534820Y11151160D01*
X10507270Y11161740D01*
X10475770D01*
X10440340Y11145860D01*
X10412790Y11119410D01*
X10393100Y11087650D01*
X10377350Y11034740D01*
X10373420Y10987110D01*
X10381300Y10939490D01*
X10393100Y10907740D01*
X10416720Y10875980D01*
X10444280Y10854820D01*
X10471830Y10844240D01*
X10499390D01*
X10526950Y10854820D01*
X10550570Y10870690D01*
X10570250Y10891850D01*
G01X11050420Y10950070D02*
X11152770D01*
G01X11656560Y10844240D02*
Y11161740D01*
X11806150D01*
G01X11751040Y11008290D02*
X11656560D01*
G01X11967500Y10844240D02*
Y11161740D01*
X12065920D01*
X12097410Y11145860D01*
X12117090Y11124700D01*
X12124970Y11082360D01*
X12117090Y11040030D01*
X12093470Y11013580D01*
X12065920Y10997690D01*
X11967500D01*
G01X12065920D02*
X12124970Y10844240D01*
G01X12309940Y10950070D02*
X12412290D01*
G01X12723230Y10844240D02*
Y11161740D01*
X12577580Y10934200D01*
X12774410D01*
G01X13305750Y11161740D02*
X13274260Y11151160D01*
X13250640Y11124700D01*
X13234900Y11092950D01*
X13223090Y11050610D01*
X13219150Y11002990D01*
X13223090Y10955360D01*
X13234900Y10913030D01*
X13250640Y10881270D01*
X13274260Y10854820D01*
X13305750Y10844240D01*
X13337240Y10854820D01*
X13360870Y10881270D01*
X13376610Y10913030D01*
X13388420Y10955360D01*
X13392360Y11002990D01*
X13388420Y11050610D01*
X13376610Y11092950D01*
X13360870Y11124700D01*
X13337240Y11151160D01*
X13305750Y11161740D01*
G01X13620630Y10833660D02*
X13612760Y10838950D01*
Y10849530D01*
X13620630Y10854820D01*
X13628510Y10849530D01*
Y10838950D01*
X13620630Y10833660D01*
G01X13927640Y10844240D02*
X13935510Y10913030D01*
X13947330Y10971230D01*
X13963070Y11024160D01*
X13982750Y11082360D01*
X14014250Y11161740D01*
X13856780D01*
G01X14163790Y10907740D02*
X14187410Y10870690D01*
X14218900Y10849530D01*
X14254330Y10844240D01*
X14285830Y10849530D01*
X14317320Y10875980D01*
X14337000Y10907740D01*
X14340930Y10939490D01*
X14333060Y10976520D01*
X14305510Y11002990D01*
X14277950Y11013580D01*
X14242520D01*
G01X14277950D02*
X14301570Y11029450D01*
X14321250Y11055900D01*
X14329130Y11087650D01*
X14321250Y11119410D01*
X14301570Y11145860D01*
X14266140Y11161740D01*
X14230710Y11156450D01*
X14195280Y11135280D01*
G01X14777800Y10844240D02*
Y11161740D01*
X14880150Y10897160D01*
X14982510Y11161740D01*
Y10844240D01*
G01X15092680D02*
Y11161740D01*
X15195030Y10897160D01*
X15297390Y11161740D01*
Y10844240D01*
G01X6606670Y13477740D02*
X6779880Y13710570D01*
G01X6693270Y13752900D02*
Y13435400D01*
G01X6779880Y13477740D02*
X6606670Y13710570D01*
G01X6575180Y13594150D02*
X6811370D01*
G01X7555250Y13530640D02*
X7586740Y13504190D01*
X7622170Y13488320D01*
X7653660D01*
X7685150Y13504190D01*
X7708770Y13530640D01*
X7720580Y13567700D01*
X7712710Y13604730D01*
X7693030Y13636480D01*
X7657600Y13657660D01*
X7610360Y13668240D01*
X7582800Y13689400D01*
X7570990Y13726440D01*
X7578870Y13763490D01*
X7598550Y13789940D01*
X7626100Y13805820D01*
X7653660D01*
X7681220Y13795240D01*
X7704840Y13768780D01*
G01X7866190Y13805820D02*
Y13578280D01*
X7881940Y13530640D01*
X7913430Y13498900D01*
X7952790Y13488320D01*
X7992160Y13498900D01*
X8023650Y13530640D01*
X8039400Y13578280D01*
Y13805820D01*
G01X8188940Y13488320D02*
Y13805820D01*
X8287360D01*
X8318850Y13789940D01*
X8338530Y13768780D01*
X8346410Y13726440D01*
X8338530Y13684110D01*
X8314910Y13657660D01*
X8287360Y13641770D01*
X8188940D01*
G01X8287360D02*
X8346410Y13488320D01*
G01X8507760D02*
Y13805820D01*
X8657350D01*
G01X8602240Y13652370D02*
X8507760D01*
G01X8799020Y13488320D02*
X8897430Y13805820D01*
X8995850Y13488320D01*
G01X8960420Y13599440D02*
X8834450D01*
G01X9298920Y13779360D02*
X9275300Y13795240D01*
X9247750Y13805820D01*
X9216250D01*
X9180820Y13789940D01*
X9153270Y13763490D01*
X9133580Y13731730D01*
X9117830Y13678820D01*
X9113900Y13631190D01*
X9121780Y13583570D01*
X9133580Y13551820D01*
X9157200Y13520060D01*
X9184760Y13498900D01*
X9212310Y13488320D01*
X9239870D01*
X9267430Y13498900D01*
X9291050Y13514770D01*
X9310730Y13535930D01*
G01X9605930Y13488320D02*
X9448460D01*
Y13805820D01*
X9605930D01*
G01X9542940Y13652370D02*
X9448460D01*
G01X10105780Y13594150D02*
X10208130D01*
G01X10688300Y13488320D02*
X10786710Y13805820D01*
X10885130Y13488320D01*
G01X10849700Y13599440D02*
X10723730D01*
G01X11054360Y13805820D02*
X11148830D01*
G01X11101590D02*
Y13488320D01*
G01X11054360D02*
X11148830D01*
G01X11337740D02*
Y13805820D01*
X11436160D01*
X11467650Y13789940D01*
X11487330Y13768780D01*
X11495210Y13726440D01*
X11487330Y13684110D01*
X11463710Y13657660D01*
X11436160Y13641770D01*
X11337740D01*
G01X11436160D02*
X11495210Y13488320D01*
G01X12046230Y13805820D02*
X12014740Y13795240D01*
X11991120Y13768780D01*
X11975380Y13737030D01*
X11963570Y13694690D01*
X11959630Y13647070D01*
X11963570Y13599440D01*
X11975380Y13557110D01*
X11991120Y13525350D01*
X12014740Y13498900D01*
X12046230Y13488320D01*
X12077720Y13498900D01*
X12101350Y13525350D01*
X12117090Y13557110D01*
X12128900Y13599440D01*
X12132840Y13647070D01*
X12128900Y13694690D01*
X12117090Y13737030D01*
X12101350Y13768780D01*
X12077720Y13795240D01*
X12046230Y13805820D01*
G01X12573640Y13488320D02*
Y13805820D01*
X12675990Y13541240D01*
X12778350Y13805820D01*
Y13488320D01*
G01X12888520D02*
Y13805820D01*
X12990870Y13541240D01*
X13093230Y13805820D01*
Y13488320D01*
G01X5984780Y13078740D02*
Y12761240D01*
X6142250D01*
G01X6378390D02*
Y13078740D01*
X6331160Y13015240D01*
G01Y12761240D02*
X6425630D01*
G01X6693270Y12750660D02*
X6685400Y12755950D01*
Y12766530D01*
X6693270Y12771820D01*
X6701150Y12766530D01*
Y12755950D01*
X6693270Y12750660D01*
G01Y12893520D02*
X6685400Y12898820D01*
Y12909400D01*
X6693270Y12914690D01*
X6701150Y12909400D01*
Y12898820D01*
X6693270Y12893520D01*
G01X7323030Y13078740D02*
Y12761240D01*
G01X7232500Y13078740D02*
X7413570D01*
G01X7637910Y12761240D02*
X7606420Y12766530D01*
X7578870Y12787690D01*
X7555250Y12819450D01*
X7539500Y12856490D01*
X7531630Y12898820D01*
Y12941160D01*
X7539500Y12983490D01*
X7555250Y13020530D01*
X7578870Y13052280D01*
X7606420Y13073450D01*
X7637910Y13078740D01*
X7669400Y13073450D01*
X7696960Y13052280D01*
X7720580Y13020530D01*
X7736330Y12983490D01*
X7744200Y12941160D01*
Y12898820D01*
X7736330Y12856490D01*
X7720580Y12819450D01*
X7696960Y12787690D01*
X7669400Y12766530D01*
X7637910Y12761240D01*
G01X7874060D02*
Y13078740D01*
X7968540D01*
X8000030Y13062860D01*
X8023650Y13025820D01*
X8031530Y12983490D01*
X8023650Y12941160D01*
X8003970Y12909400D01*
X7968540Y12893520D01*
X7874060D01*
G01X8669160Y13052280D02*
X8645540Y13068160D01*
X8617990Y13078740D01*
X8586490D01*
X8551060Y13062860D01*
X8523510Y13036410D01*
X8503820Y13004650D01*
X8488070Y12951740D01*
X8484140Y12904110D01*
X8492020Y12856490D01*
X8503820Y12824740D01*
X8527440Y12792980D01*
X8555000Y12771820D01*
X8582550Y12761240D01*
X8610110D01*
X8637670Y12771820D01*
X8661290Y12787690D01*
X8680970Y12808850D01*
G01X8897430Y12761240D02*
X8865940Y12766530D01*
X8838390Y12787690D01*
X8814770Y12819450D01*
X8799020Y12856490D01*
X8791150Y12898820D01*
Y12941160D01*
X8799020Y12983490D01*
X8814770Y13020530D01*
X8838390Y13052280D01*
X8865940Y13073450D01*
X8897430Y13078740D01*
X8928920Y13073450D01*
X8956480Y13052280D01*
X8980100Y13020530D01*
X8995850Y12983490D01*
X9003720Y12941160D01*
Y12898820D01*
X8995850Y12856490D01*
X8980100Y12819450D01*
X8956480Y12787690D01*
X8928920Y12766530D01*
X8897430Y12761240D01*
G01X9121780D02*
Y13078740D01*
X9302850Y12761240D01*
Y13078740D01*
G01X9440590Y12761240D02*
Y13078740D01*
X9519320D01*
X9550810Y13062860D01*
X9574430Y13041700D01*
X9594120Y13009950D01*
X9609860Y12972900D01*
X9613800Y12919990D01*
X9609860Y12867070D01*
X9594120Y12830030D01*
X9574430Y12798270D01*
X9550810Y12777110D01*
X9519320Y12761240D01*
X9440590D01*
G01X9755470Y13078740D02*
Y12851200D01*
X9771220Y12803560D01*
X9802710Y12771820D01*
X9842070Y12761240D01*
X9881440Y12771820D01*
X9912930Y12803560D01*
X9928680Y12851200D01*
Y13078740D01*
G01X10243560Y13052280D02*
X10219940Y13068160D01*
X10192390Y13078740D01*
X10160890D01*
X10125460Y13062860D01*
X10097910Y13036410D01*
X10078220Y13004650D01*
X10062470Y12951740D01*
X10058540Y12904110D01*
X10066420Y12856490D01*
X10078220Y12824740D01*
X10101840Y12792980D01*
X10129400Y12771820D01*
X10156950Y12761240D01*
X10184510D01*
X10212070Y12771820D01*
X10235690Y12787690D01*
X10255370Y12808850D01*
G01X10471830Y13078740D02*
Y12761240D01*
G01X10381300Y13078740D02*
X10562370D01*
G01X10786710Y12761240D02*
X10755220Y12766530D01*
X10727670Y12787690D01*
X10704050Y12819450D01*
X10688300Y12856490D01*
X10680430Y12898820D01*
Y12941160D01*
X10688300Y12983490D01*
X10704050Y13020530D01*
X10727670Y13052280D01*
X10755220Y13073450D01*
X10786710Y13078740D01*
X10818200Y13073450D01*
X10845760Y13052280D01*
X10869380Y13020530D01*
X10885130Y12983490D01*
X10893000Y12941160D01*
Y12898820D01*
X10885130Y12856490D01*
X10869380Y12819450D01*
X10845760Y12787690D01*
X10818200Y12766530D01*
X10786710Y12761240D01*
G01X11022860D02*
Y13078740D01*
X11121280D01*
X11152770Y13062860D01*
X11172450Y13041700D01*
X11180330Y12999360D01*
X11172450Y12957030D01*
X11148830Y12930580D01*
X11121280Y12914690D01*
X11022860D01*
G01X11121280D02*
X11180330Y12761240D01*
G01X11680180Y12867070D02*
X11782530D01*
G01X12447720Y13052280D02*
X12424100Y13068160D01*
X12396550Y13078740D01*
X12365050D01*
X12329620Y13062860D01*
X12302070Y13036410D01*
X12282380Y13004650D01*
X12266630Y12951740D01*
X12262700Y12904110D01*
X12270580Y12856490D01*
X12282380Y12824740D01*
X12306000Y12792980D01*
X12333560Y12771820D01*
X12361110Y12761240D01*
X12388670D01*
X12416230Y12771820D01*
X12439850Y12787690D01*
X12459530Y12808850D01*
G01X12675990Y12761240D02*
X12644500Y12766530D01*
X12616950Y12787690D01*
X12593330Y12819450D01*
X12577580Y12856490D01*
X12569710Y12898820D01*
Y12941160D01*
X12577580Y12983490D01*
X12593330Y13020530D01*
X12616950Y13052280D01*
X12644500Y13073450D01*
X12675990Y13078740D01*
X12707480Y13073450D01*
X12735040Y13052280D01*
X12758660Y13020530D01*
X12774410Y12983490D01*
X12782280Y12941160D01*
Y12898820D01*
X12774410Y12856490D01*
X12758660Y12819450D01*
X12735040Y12787690D01*
X12707480Y12766530D01*
X12675990Y12761240D01*
G01X12912140D02*
Y13078740D01*
X13006620D01*
X13038110Y13062860D01*
X13061730Y13025820D01*
X13069610Y12983490D01*
X13061730Y12941160D01*
X13042050Y12909400D01*
X13006620Y12893520D01*
X12912140D01*
G01X13227020Y12761240D02*
Y13078740D01*
X13321500D01*
X13352990Y13062860D01*
X13376610Y13025820D01*
X13384490Y12983490D01*
X13376610Y12941160D01*
X13356930Y12909400D01*
X13321500Y12893520D01*
X13227020D01*
G01X13699370Y12761240D02*
X13541900D01*
Y13078740D01*
X13699370D01*
G01X13636380Y12925290D02*
X13541900D01*
G01X13856780Y12761240D02*
Y13078740D01*
X13955200D01*
X13986690Y13062860D01*
X14006370Y13041700D01*
X14014250Y12999360D01*
X14006370Y12957030D01*
X13982750Y12930580D01*
X13955200Y12914690D01*
X13856780D01*
G01X13955200D02*
X14014250Y12761240D01*
G01X14565270Y13078740D02*
X14533780Y13068160D01*
X14510160Y13041700D01*
X14494420Y13009950D01*
X14482610Y12967610D01*
X14478670Y12919990D01*
X14482610Y12872360D01*
X14494420Y12830030D01*
X14510160Y12798270D01*
X14533780Y12771820D01*
X14565270Y12761240D01*
X14596760Y12771820D01*
X14620390Y12798270D01*
X14636130Y12830030D01*
X14647940Y12872360D01*
X14651880Y12919990D01*
X14647940Y12967610D01*
X14636130Y13009950D01*
X14620390Y13041700D01*
X14596760Y13068160D01*
X14565270Y13078740D01*
G01X14880150Y12750660D02*
X14872280Y12755950D01*
Y12766530D01*
X14880150Y12771820D01*
X14888030Y12766530D01*
Y12755950D01*
X14880150Y12750660D01*
G01X15195030Y13078740D02*
X15163540Y13068160D01*
X15139920Y13041700D01*
X15124180Y13009950D01*
X15112370Y12967610D01*
X15108430Y12919990D01*
X15112370Y12872360D01*
X15124180Y12830030D01*
X15139920Y12798270D01*
X15163540Y12771820D01*
X15195030Y12761240D01*
X15226520Y12771820D01*
X15250150Y12798270D01*
X15265890Y12830030D01*
X15277700Y12872360D01*
X15281640Y12919990D01*
X15277700Y12967610D01*
X15265890Y13009950D01*
X15250150Y13041700D01*
X15226520Y13068160D01*
X15195030Y13078740D01*
G01X15423310Y12824740D02*
X15446930Y12787690D01*
X15478420Y12766530D01*
X15513850Y12761240D01*
X15545350Y12766530D01*
X15576840Y12792980D01*
X15596520Y12824740D01*
X15600450Y12856490D01*
X15592580Y12893520D01*
X15565030Y12919990D01*
X15537470Y12930580D01*
X15502040D01*
G01X15537470D02*
X15561090Y12946450D01*
X15580770Y12972900D01*
X15588650Y13004650D01*
X15580770Y13036410D01*
X15561090Y13062860D01*
X15525660Y13078740D01*
X15490230Y13073450D01*
X15454800Y13052280D01*
G01X15738190Y12808850D02*
X15761810Y12782400D01*
X15789360Y12766530D01*
X15824790Y12761240D01*
X15860230Y12771820D01*
X15887780Y12792980D01*
X15907460Y12830030D01*
X15911400Y12872360D01*
X15903530Y12914690D01*
X15883840Y12941160D01*
X15856280Y12962320D01*
X15828730Y12967610D01*
X15801180Y12962320D01*
X15765750Y12941160D01*
X15777560Y13078740D01*
X15883840D01*
G01X16352200Y12761240D02*
Y13078740D01*
X16454550Y12814160D01*
X16556910Y13078740D01*
Y12761240D01*
G01X16667080D02*
Y13078740D01*
X16769430Y12814160D01*
X16871790Y13078740D01*
Y12761240D01*
G01X7842800Y4526750D02*
X7941210Y4844250D01*
X8039630Y4526750D01*
G01X8004200Y4637870D02*
X7878230D01*
G01X8177360Y4844250D02*
Y4526750D01*
X8334830D01*
G01X8492240Y4844250D02*
Y4526750D01*
X8649710D01*
G01X9114130Y4844250D02*
Y4616710D01*
X9129880Y4569070D01*
X9161370Y4537330D01*
X9200730Y4526750D01*
X9240100Y4537330D01*
X9271590Y4569070D01*
X9287340Y4616710D01*
Y4844250D01*
G01X9425080Y4526750D02*
Y4844250D01*
X9606150Y4526750D01*
Y4844250D01*
G01X9783260D02*
X9877730D01*
G01X9830490D02*
Y4526750D01*
G01X9783260D02*
X9877730D01*
G01X10145370Y4844250D02*
Y4526750D01*
G01X10054840Y4844250D02*
X10235910D01*
G01X10377590Y4569070D02*
X10409080Y4542620D01*
X10444510Y4526750D01*
X10476000D01*
X10507490Y4542620D01*
X10531110Y4569070D01*
X10542920Y4606130D01*
X10535050Y4643160D01*
X10515370Y4674910D01*
X10479940Y4696090D01*
X10432700Y4706670D01*
X10405140Y4727830D01*
X10393330Y4764870D01*
X10401210Y4801920D01*
X10420890Y4828370D01*
X10448440Y4844250D01*
X10476000D01*
X10503560Y4833670D01*
X10527180Y4807210D01*
G01X10991600Y4526750D02*
X11090010Y4844250D01*
X11188430Y4526750D01*
G01X11153000Y4637870D02*
X11027030D01*
G01X11326160Y4526750D02*
Y4844250D01*
X11424580D01*
X11456070Y4828370D01*
X11475750Y4807210D01*
X11483630Y4764870D01*
X11475750Y4722540D01*
X11452130Y4696090D01*
X11424580Y4680200D01*
X11326160D01*
G01X11424580D02*
X11483630Y4526750D01*
G01X11798510D02*
X11641040D01*
Y4844250D01*
X11798510D01*
G01X11735520Y4690800D02*
X11641040D01*
G01X12302300Y4844250D02*
X12396770D01*
G01X12349530D02*
Y4526750D01*
G01X12302300D02*
X12396770D01*
G01X12573880D02*
Y4844250D01*
X12754950Y4526750D01*
Y4844250D01*
G01X13191820Y4526750D02*
Y4844250D01*
X13294170Y4579670D01*
X13396530Y4844250D01*
Y4526750D01*
G01X13561820Y4844250D02*
X13656290D01*
G01X13609050D02*
Y4526750D01*
G01X13561820D02*
X13656290D01*
G01X13845200Y4844250D02*
Y4526750D01*
X14002670D01*
G01X14160080Y4844250D02*
Y4526750D01*
X14317550D01*
G01X14506460Y4844250D02*
X14600930D01*
G01X14553690D02*
Y4526750D01*
G01X14506460D02*
X14600930D01*
G01X14766220D02*
Y4844250D01*
X14868570Y4579670D01*
X14970930Y4844250D01*
Y4526750D01*
G01X15262190D02*
X15104720D01*
Y4844250D01*
X15262190D01*
G01X15199200Y4690800D02*
X15104720D01*
G01X15498330Y4844250D02*
Y4526750D01*
G01X15407800Y4844250D02*
X15588870D01*
G01X15891950Y4526750D02*
X15734480D01*
Y4844250D01*
X15891950D01*
G01X15828960Y4690800D02*
X15734480D01*
G01X16049360Y4526750D02*
Y4844250D01*
X16147780D01*
X16179270Y4828370D01*
X16198950Y4807210D01*
X16206830Y4764870D01*
X16198950Y4722540D01*
X16175330Y4696090D01*
X16147780Y4680200D01*
X16049360D01*
G01X16147780D02*
X16206830Y4526750D01*
G01X16360310Y4569070D02*
X16391800Y4542620D01*
X16427230Y4526750D01*
X16458720D01*
X16490210Y4542620D01*
X16513830Y4569070D01*
X16525640Y4606130D01*
X16517770Y4643160D01*
X16498090Y4674910D01*
X16462660Y4696090D01*
X16415420Y4706670D01*
X16387860Y4727830D01*
X16376050Y4764870D01*
X16383930Y4801920D01*
X16403610Y4828370D01*
X16431160Y4844250D01*
X16458720D01*
X16486280Y4833670D01*
X16509900Y4807210D01*
G01X8169490Y5176750D02*
Y5494250D01*
X8248220D01*
X8279710Y5478370D01*
X8303330Y5457210D01*
X8323020Y5425460D01*
X8338760Y5388410D01*
X8342700Y5335500D01*
X8338760Y5282580D01*
X8323020Y5245540D01*
X8303330Y5213780D01*
X8279710Y5192620D01*
X8248220Y5176750D01*
X8169490D01*
G01X8492240D02*
Y5494250D01*
X8590660D01*
X8622150Y5478370D01*
X8641830Y5457210D01*
X8649710Y5414870D01*
X8641830Y5372540D01*
X8618210Y5346090D01*
X8590660Y5330200D01*
X8492240D01*
G01X8590660D02*
X8649710Y5176750D01*
G01X8838620Y5494250D02*
X8933090D01*
G01X8885850D02*
Y5176750D01*
G01X8838620D02*
X8933090D01*
G01X9122000Y5494250D02*
Y5176750D01*
X9279470D01*
G01X9436880Y5494250D02*
Y5176750D01*
X9594350D01*
G01X10231980Y5467790D02*
X10208360Y5483670D01*
X10180810Y5494250D01*
X10149310D01*
X10113880Y5478370D01*
X10086330Y5451920D01*
X10066640Y5420160D01*
X10050890Y5367250D01*
X10046960Y5319620D01*
X10054840Y5272000D01*
X10066640Y5240250D01*
X10090260Y5208490D01*
X10117820Y5187330D01*
X10145370Y5176750D01*
X10172930D01*
X10200490Y5187330D01*
X10224110Y5203200D01*
X10243790Y5224360D01*
G01X10377590Y5176750D02*
Y5494250D01*
G01X10542920D02*
Y5176750D01*
G01Y5335500D02*
X10377590D01*
G01X10676720Y5176750D02*
X10775130Y5494250D01*
X10873550Y5176750D01*
G01X10838120Y5287870D02*
X10712150D01*
G01X11011280Y5176750D02*
Y5494250D01*
X11109700D01*
X11141190Y5478370D01*
X11160870Y5457210D01*
X11168750Y5414870D01*
X11160870Y5372540D01*
X11137250Y5346090D01*
X11109700Y5330200D01*
X11011280D01*
G01X11109700D02*
X11168750Y5176750D01*
G01X11404890Y5494250D02*
Y5176750D01*
G01X11314360Y5494250D02*
X11495430D01*
G01X11719770Y5166170D02*
X11711900Y5171460D01*
Y5182040D01*
X11719770Y5187330D01*
X11727650Y5182040D01*
Y5171460D01*
X11719770Y5166170D01*
G01Y5309030D02*
X11711900Y5314330D01*
Y5324910D01*
X11719770Y5330200D01*
X11727650Y5324910D01*
Y5314330D01*
X11719770Y5309030D01*
G01X12349530Y5494250D02*
Y5176750D01*
G01X12259000Y5494250D02*
X12440070D01*
G01X12664410Y5176750D02*
X12632920Y5182040D01*
X12605370Y5203200D01*
X12581750Y5234960D01*
X12566000Y5272000D01*
X12558130Y5314330D01*
Y5356670D01*
X12566000Y5399000D01*
X12581750Y5436040D01*
X12605370Y5467790D01*
X12632920Y5488960D01*
X12664410Y5494250D01*
X12695900Y5488960D01*
X12723460Y5467790D01*
X12747080Y5436040D01*
X12762830Y5399000D01*
X12770700Y5356670D01*
Y5314330D01*
X12762830Y5272000D01*
X12747080Y5234960D01*
X12723460Y5203200D01*
X12695900Y5182040D01*
X12664410Y5176750D01*
G01X12900560D02*
Y5494250D01*
X12995040D01*
X13026530Y5478370D01*
X13050150Y5441330D01*
X13058030Y5399000D01*
X13050150Y5356670D01*
X13030470Y5324910D01*
X12995040Y5309030D01*
X12900560D01*
G01X13609050Y5494250D02*
Y5176750D01*
G01X13553940Y5388410D02*
X13664170D01*
G01X13923930Y5176750D02*
X13900320Y5182040D01*
X13876700Y5203200D01*
X13860950Y5240250D01*
X13853080Y5282580D01*
X13860950Y5324910D01*
X13876700Y5361960D01*
X13900320Y5383120D01*
X13923930Y5388410D01*
X13947550Y5383120D01*
X13971170Y5361960D01*
X13986920Y5324910D01*
X13990860Y5282580D01*
X13986920Y5240250D01*
X13971170Y5203200D01*
X13947550Y5182040D01*
X13923930Y5176750D01*
G01X14585180Y5346090D02*
X14600930Y5361960D01*
X14612740Y5388410D01*
X14620620Y5425460D01*
X14612740Y5457210D01*
X14597000Y5478370D01*
X14569440Y5494250D01*
X14463160D01*
Y5176750D01*
X14593060D01*
X14620620Y5197910D01*
X14636360Y5229670D01*
X14644230Y5266710D01*
X14636360Y5303740D01*
X14612740Y5335500D01*
X14585180Y5346090D01*
X14463160D01*
G01X14868570Y5176750D02*
X14837080Y5182040D01*
X14809530Y5203200D01*
X14785910Y5234960D01*
X14770160Y5272000D01*
X14762290Y5314330D01*
Y5356670D01*
X14770160Y5399000D01*
X14785910Y5436040D01*
X14809530Y5467790D01*
X14837080Y5488960D01*
X14868570Y5494250D01*
X14900060Y5488960D01*
X14927620Y5467790D01*
X14951240Y5436040D01*
X14966990Y5399000D01*
X14974860Y5356670D01*
Y5314330D01*
X14966990Y5272000D01*
X14951240Y5234960D01*
X14927620Y5203200D01*
X14900060Y5182040D01*
X14868570Y5176750D01*
G01X15183450Y5494250D02*
Y5176750D01*
G01X15092920Y5494250D02*
X15273990D01*
G01X15498330D02*
Y5176750D01*
G01X15407800Y5494250D02*
X15588870D01*
G01X15813210Y5176750D02*
X15781720Y5182040D01*
X15754170Y5203200D01*
X15730550Y5234960D01*
X15714800Y5272000D01*
X15706930Y5314330D01*
Y5356670D01*
X15714800Y5399000D01*
X15730550Y5436040D01*
X15754170Y5467790D01*
X15781720Y5488960D01*
X15813210Y5494250D01*
X15844700Y5488960D01*
X15872260Y5467790D01*
X15895880Y5436040D01*
X15911630Y5399000D01*
X15919500Y5356670D01*
Y5314330D01*
X15911630Y5272000D01*
X15895880Y5234960D01*
X15872260Y5203200D01*
X15844700Y5182040D01*
X15813210Y5176750D01*
G01X16025740D02*
Y5494250D01*
X16128090Y5229670D01*
X16230450Y5494250D01*
Y5176750D01*
G01X8334850Y4289310D02*
Y7170D01*
G01X10420910Y1236460D02*
X10389420Y1225880D01*
X10365800Y1199420D01*
X10350060Y1167670D01*
X10338250Y1125330D01*
X10334310Y1077710D01*
X10338250Y1030080D01*
X10350060Y987750D01*
X10365800Y955990D01*
X10389420Y929540D01*
X10420910Y918960D01*
X10452400Y929540D01*
X10476030Y955990D01*
X10491770Y987750D01*
X10503580Y1030080D01*
X10507520Y1077710D01*
X10503580Y1125330D01*
X10491770Y1167670D01*
X10476030Y1199420D01*
X10452400Y1225880D01*
X10420910Y1236460D01*
G01X10735790Y908380D02*
X10727920Y913670D01*
Y924250D01*
X10735790Y929540D01*
X10743670Y924250D01*
Y913670D01*
X10735790Y908380D01*
G01X10983750Y955990D02*
X11011310Y929540D01*
X11042800Y918960D01*
X11074290Y929540D01*
X11101850Y961280D01*
X11121530Y1008920D01*
X11129410Y1056540D01*
Y1114750D01*
X11121530Y1162370D01*
X11101850Y1204710D01*
X11078230Y1225880D01*
X11050670Y1236460D01*
X11019180Y1225880D01*
X10995560Y1204710D01*
X10979820Y1172960D01*
X10971940Y1130620D01*
X10979820Y1093590D01*
X10999500Y1056540D01*
X11023120Y1035370D01*
X11050670Y1030080D01*
X11082160Y1040660D01*
X11105790Y1067120D01*
X11129410Y1114750D01*
G01X10420910Y205270D02*
Y522770D01*
X10373680Y459270D01*
G01Y205270D02*
X10468150D01*
G01X10735790Y194690D02*
X10727920Y199980D01*
Y210560D01*
X10735790Y215850D01*
X10743670Y210560D01*
Y199980D01*
X10735790Y194690D01*
G01X11050670Y522770D02*
X11019180Y512190D01*
X10995560Y485730D01*
X10979820Y453980D01*
X10968010Y411640D01*
X10964070Y364020D01*
X10968010Y316390D01*
X10979820Y274060D01*
X10995560Y242300D01*
X11019180Y215850D01*
X11050670Y205270D01*
X11082160Y215850D01*
X11105790Y242300D01*
X11121530Y274060D01*
X11133340Y316390D01*
X11137280Y364020D01*
X11133340Y411640D01*
X11121530Y453980D01*
X11105790Y485730D01*
X11082160Y512190D01*
X11050670Y522770D01*
G01X10263470Y2663840D02*
X10231980Y2653260D01*
X10208360Y2626800D01*
X10192620Y2595050D01*
X10180810Y2552710D01*
X10176870Y2505090D01*
X10180810Y2457460D01*
X10192620Y2415130D01*
X10208360Y2383370D01*
X10231980Y2356920D01*
X10263470Y2346340D01*
X10294960Y2356920D01*
X10318590Y2383370D01*
X10334330Y2415130D01*
X10346140Y2457460D01*
X10350080Y2505090D01*
X10346140Y2552710D01*
X10334330Y2595050D01*
X10318590Y2626800D01*
X10294960Y2653260D01*
X10263470Y2663840D01*
G01X10578350Y2335760D02*
X10570480Y2341050D01*
Y2351630D01*
X10578350Y2356920D01*
X10586230Y2351630D01*
Y2341050D01*
X10578350Y2335760D01*
G01X10818440Y2478620D02*
X10846000Y2515680D01*
X10869620Y2536840D01*
X10901110Y2547420D01*
X10928670Y2536840D01*
X10948350Y2515680D01*
X10964090Y2483920D01*
X10968030Y2446880D01*
X10964090Y2415130D01*
X10948350Y2383370D01*
X10924720Y2356920D01*
X10897170Y2346340D01*
X10865680Y2356920D01*
X10838120Y2388660D01*
X10822380Y2436300D01*
X10818440Y2489210D01*
X10826310Y2558000D01*
X10838120Y2595050D01*
X10857800Y2632090D01*
X10885360Y2658550D01*
X10912920Y2663840D01*
X10940470Y2653260D01*
X10960160Y2626800D01*
G01X11121510Y2393950D02*
X11145130Y2367500D01*
X11172680Y2351630D01*
X11208110Y2346340D01*
X11243550Y2356920D01*
X11271100Y2378080D01*
X11290780Y2415130D01*
X11294720Y2457460D01*
X11286850Y2499790D01*
X11267160Y2526260D01*
X11239600Y2547420D01*
X11212050Y2552710D01*
X11184500Y2547420D01*
X11149070Y2526260D01*
X11160880Y2663840D01*
X11267160D01*
G01X10263470Y1950150D02*
X10231980Y1939570D01*
X10208360Y1913110D01*
X10192620Y1881360D01*
X10180810Y1839020D01*
X10176870Y1791400D01*
X10180810Y1743770D01*
X10192620Y1701440D01*
X10208360Y1669680D01*
X10231980Y1643230D01*
X10263470Y1632650D01*
X10294960Y1643230D01*
X10318590Y1669680D01*
X10334330Y1701440D01*
X10346140Y1743770D01*
X10350080Y1791400D01*
X10346140Y1839020D01*
X10334330Y1881360D01*
X10318590Y1913110D01*
X10294960Y1939570D01*
X10263470Y1950150D01*
G01X10578350Y1622070D02*
X10570480Y1627360D01*
Y1637940D01*
X10578350Y1643230D01*
X10586230Y1637940D01*
Y1627360D01*
X10578350Y1622070D01*
G01X10885360Y1632650D02*
X10893230Y1701440D01*
X10905050Y1759640D01*
X10920790Y1812570D01*
X10940470Y1870770D01*
X10971970Y1950150D01*
X10814500D01*
G01X11121510Y1680260D02*
X11145130Y1653810D01*
X11172680Y1637940D01*
X11208110Y1632650D01*
X11243550Y1643230D01*
X11271100Y1664390D01*
X11290780Y1701440D01*
X11294720Y1743770D01*
X11286850Y1786100D01*
X11267160Y1812570D01*
X11239600Y1833730D01*
X11212050Y1839020D01*
X11184500Y1833730D01*
X11149070Y1812570D01*
X11160880Y1950150D01*
X11267160D01*
G01X10180810Y3855380D02*
X10212300Y3828930D01*
X10247730Y3813060D01*
X10279220D01*
X10310710Y3828930D01*
X10334330Y3855380D01*
X10346140Y3892440D01*
X10338270Y3929470D01*
X10318590Y3961220D01*
X10283160Y3982400D01*
X10235920Y3992980D01*
X10208360Y4014140D01*
X10196550Y4051180D01*
X10204430Y4088230D01*
X10224110Y4114680D01*
X10251660Y4130560D01*
X10279220D01*
X10306780Y4119980D01*
X10330400Y4093520D01*
G01X10531120Y4130560D02*
X10625590D01*
G01X10578350D02*
Y3813060D01*
G01X10531120D02*
X10625590D01*
G01X10818440Y4130560D02*
X10968030D01*
X10818440Y3813060D01*
X10968030D01*
G01X11286850D02*
X11129380D01*
Y4130560D01*
X11286850D01*
G01X11223860Y3977110D02*
X11129380D01*
G01X10420910Y3377530D02*
X10389420Y3366950D01*
X10365800Y3340490D01*
X10350060Y3308740D01*
X10338250Y3266400D01*
X10334310Y3218780D01*
X10338250Y3171150D01*
X10350060Y3128820D01*
X10365800Y3097060D01*
X10389420Y3070610D01*
X10420910Y3060030D01*
X10452400Y3070610D01*
X10476030Y3097060D01*
X10491770Y3128820D01*
X10503580Y3171150D01*
X10507520Y3218780D01*
X10503580Y3266400D01*
X10491770Y3308740D01*
X10476030Y3340490D01*
X10452400Y3366950D01*
X10420910Y3377530D01*
G01X10735790Y3049450D02*
X10727920Y3054740D01*
Y3065320D01*
X10735790Y3070610D01*
X10743670Y3065320D01*
Y3054740D01*
X10735790Y3049450D01*
G01X10975880Y3324610D02*
X10999500Y3356360D01*
X11027060Y3372240D01*
X11058550Y3377530D01*
X11097910Y3366950D01*
X11125470Y3340490D01*
X11133340Y3308740D01*
X11129410Y3276980D01*
X11113660Y3250530D01*
X11034930Y3197610D01*
X10999500Y3160570D01*
X10975880Y3107640D01*
X10968010Y3060030D01*
X11133340D01*
G01X13242980Y918960D02*
Y1236460D01*
X13424050Y918960D01*
Y1236460D01*
G01X13648390Y918960D02*
X13616900Y924250D01*
X13589350Y945410D01*
X13565730Y977170D01*
X13549980Y1014210D01*
X13542110Y1056540D01*
Y1098880D01*
X13549980Y1141210D01*
X13565730Y1178250D01*
X13589350Y1210000D01*
X13616900Y1231170D01*
X13648390Y1236460D01*
X13679880Y1231170D01*
X13707440Y1210000D01*
X13731060Y1178250D01*
X13746810Y1141210D01*
X13754680Y1098880D01*
Y1056540D01*
X13746810Y1014210D01*
X13731060Y977170D01*
X13707440Y945410D01*
X13679880Y924250D01*
X13648390Y918960D01*
G01X13872740D02*
Y1236460D01*
X14053810Y918960D01*
Y1236460D01*
G01X14226980Y1024790D02*
X14329330D01*
G01X14514300Y918960D02*
Y1236460D01*
X14608780D01*
X14640270Y1220580D01*
X14663890Y1183540D01*
X14671770Y1141210D01*
X14663890Y1098880D01*
X14644210Y1067120D01*
X14608780Y1051240D01*
X14514300D01*
G01X14829180Y1236460D02*
Y918960D01*
X14986650D01*
G01X15124380D02*
X15222790Y1236460D01*
X15321210Y918960D01*
G01X15285780Y1030080D02*
X15159810D01*
G01X15537670Y1236460D02*
Y918960D01*
G01X15447140Y1236460D02*
X15628210D01*
G01X15931290Y918960D02*
X15773820D01*
Y1236460D01*
X15931290D01*
G01X15868300Y1083010D02*
X15773820D01*
G01X16080830Y918960D02*
Y1236460D01*
X16159560D01*
X16191050Y1220580D01*
X16214670Y1199420D01*
X16234360Y1167670D01*
X16250100Y1130620D01*
X16254040Y1077710D01*
X16250100Y1024790D01*
X16234360Y987750D01*
X16214670Y955990D01*
X16191050Y934830D01*
X16159560Y918960D01*
X16080830D01*
G01X13242980Y205270D02*
Y522770D01*
X13424050Y205270D01*
Y522770D01*
G01X13648390Y205270D02*
X13616900Y210560D01*
X13589350Y231720D01*
X13565730Y263480D01*
X13549980Y300520D01*
X13542110Y342850D01*
Y385190D01*
X13549980Y427520D01*
X13565730Y464560D01*
X13589350Y496310D01*
X13616900Y517480D01*
X13648390Y522770D01*
X13679880Y517480D01*
X13707440Y496310D01*
X13731060Y464560D01*
X13746810Y427520D01*
X13754680Y385190D01*
Y342850D01*
X13746810Y300520D01*
X13731060Y263480D01*
X13707440Y231720D01*
X13679880Y210560D01*
X13648390Y205270D01*
G01X13872740D02*
Y522770D01*
X14053810Y205270D01*
Y522770D01*
G01X14226980Y311100D02*
X14329330D01*
G01X14514300Y205270D02*
Y522770D01*
X14608780D01*
X14640270Y506890D01*
X14663890Y469850D01*
X14671770Y427520D01*
X14663890Y385190D01*
X14644210Y353430D01*
X14608780Y337550D01*
X14514300D01*
G01X14829180Y522770D02*
Y205270D01*
X14986650D01*
G01X15124380D02*
X15222790Y522770D01*
X15321210Y205270D01*
G01X15285780Y316390D02*
X15159810D01*
G01X15537670Y522770D02*
Y205270D01*
G01X15447140Y522770D02*
X15628210D01*
G01X15931290Y205270D02*
X15773820D01*
Y522770D01*
X15931290D01*
G01X15868300Y369320D02*
X15773820D01*
G01X16080830Y205270D02*
Y522770D01*
X16159560D01*
X16191050Y506890D01*
X16214670Y485730D01*
X16234360Y453980D01*
X16250100Y416930D01*
X16254040Y364020D01*
X16250100Y311100D01*
X16234360Y274060D01*
X16214670Y242300D01*
X16191050Y221140D01*
X16159560Y205270D01*
X16080830D01*
G01X13136740Y4289310D02*
Y7170D01*
G01X13884540Y2346340D02*
Y2663840D01*
X13979020D01*
X14010510Y2647960D01*
X14034130Y2610920D01*
X14042010Y2568590D01*
X14034130Y2526260D01*
X14014450Y2494500D01*
X13979020Y2478620D01*
X13884540D01*
G01X14199420Y2663840D02*
Y2346340D01*
X14356890D01*
G01X14494620D02*
X14593030Y2663840D01*
X14691450Y2346340D01*
G01X14656020Y2457460D02*
X14530050D01*
G01X14907910Y2663840D02*
Y2346340D01*
G01X14817380Y2663840D02*
X14998450D01*
G01X15301530Y2346340D02*
X15144060D01*
Y2663840D01*
X15301530D01*
G01X15238540Y2510390D02*
X15144060D01*
G01X15451070Y2346340D02*
Y2663840D01*
X15529800D01*
X15561290Y2647960D01*
X15584910Y2626800D01*
X15604600Y2595050D01*
X15620340Y2558000D01*
X15624280Y2505090D01*
X15620340Y2452170D01*
X15604600Y2415130D01*
X15584910Y2383370D01*
X15561290Y2362210D01*
X15529800Y2346340D01*
X15451070D01*
G01X13884540Y1632650D02*
Y1950150D01*
X13979020D01*
X14010510Y1934270D01*
X14034130Y1897230D01*
X14042010Y1854900D01*
X14034130Y1812570D01*
X14014450Y1780810D01*
X13979020Y1764930D01*
X13884540D01*
G01X14199420Y1950150D02*
Y1632650D01*
X14356890D01*
G01X14494620D02*
X14593030Y1950150D01*
X14691450Y1632650D01*
G01X14656020Y1743770D02*
X14530050D01*
G01X14907910Y1950150D02*
Y1632650D01*
G01X14817380Y1950150D02*
X14998450D01*
G01X15301530Y1632650D02*
X15144060D01*
Y1950150D01*
X15301530D01*
G01X15238540Y1796700D02*
X15144060D01*
G01X15451070Y1632650D02*
Y1950150D01*
X15529800D01*
X15561290Y1934270D01*
X15584910Y1913110D01*
X15604600Y1881360D01*
X15620340Y1844310D01*
X15624280Y1791400D01*
X15620340Y1738480D01*
X15604600Y1701440D01*
X15584910Y1669680D01*
X15561290Y1648520D01*
X15529800Y1632650D01*
X15451070D01*
G01X13884540Y3813060D02*
Y4130560D01*
X13979020D01*
X14010510Y4114680D01*
X14034130Y4077640D01*
X14042010Y4035310D01*
X14034130Y3992980D01*
X14014450Y3961220D01*
X13979020Y3945340D01*
X13884540D01*
G01X14199420Y4130560D02*
Y3813060D01*
X14356890D01*
G01X14494620D02*
X14593030Y4130560D01*
X14691450Y3813060D01*
G01X14656020Y3924180D02*
X14530050D01*
G01X14907910Y4130560D02*
Y3813060D01*
G01X14817380Y4130560D02*
X14998450D01*
G01X15301530Y3813060D02*
X15144060D01*
Y4130560D01*
X15301530D01*
G01X15238540Y3977110D02*
X15144060D01*
G01X15451070Y3813060D02*
Y4130560D01*
X15529800D01*
X15561290Y4114680D01*
X15584910Y4093520D01*
X15604600Y4061770D01*
X15620340Y4024720D01*
X15624280Y3971810D01*
X15620340Y3918890D01*
X15604600Y3881850D01*
X15584910Y3850090D01*
X15561290Y3828930D01*
X15529800Y3813060D01*
X15451070D01*
G01X13884540Y3060030D02*
Y3377530D01*
X13979020D01*
X14010510Y3361650D01*
X14034130Y3324610D01*
X14042010Y3282280D01*
X14034130Y3239950D01*
X14014450Y3208190D01*
X13979020Y3192310D01*
X13884540D01*
G01X14199420Y3377530D02*
Y3060030D01*
X14356890D01*
G01X14494620D02*
X14593030Y3377530D01*
X14691450Y3060030D01*
G01X14656020Y3171150D02*
X14530050D01*
G01X14907910Y3377530D02*
Y3060030D01*
G01X14817380Y3377530D02*
X14998450D01*
G01X15301530Y3060030D02*
X15144060D01*
Y3377530D01*
X15301530D01*
G01X15238540Y3224080D02*
X15144060D01*
G01X15451070Y3060030D02*
Y3377530D01*
X15529800D01*
X15561290Y3361650D01*
X15584910Y3340490D01*
X15604600Y3308740D01*
X15620340Y3271690D01*
X15624280Y3218780D01*
X15620340Y3165860D01*
X15604600Y3128820D01*
X15584910Y3097060D01*
X15561290Y3075900D01*
X15529800Y3060030D01*
X15451070D01*
G01X17395450Y918960D02*
Y1236460D01*
X17249800Y1008920D01*
X17446630D01*
G01X17261610Y268770D02*
X17285230Y231720D01*
X17316720Y210560D01*
X17352150Y205270D01*
X17383650Y210560D01*
X17415140Y237010D01*
X17434820Y268770D01*
X17438750Y300520D01*
X17430880Y337550D01*
X17403330Y364020D01*
X17375770Y374610D01*
X17340340D01*
G01X17375770D02*
X17399390Y390480D01*
X17419070Y416930D01*
X17426950Y448680D01*
X17419070Y480440D01*
X17399390Y506890D01*
X17363960Y522770D01*
X17328530Y517480D01*
X17293100Y496310D01*
G01X16364230Y4289310D02*
Y7170D01*
G01X17190770Y2346340D02*
Y2663840D01*
X17143540Y2600340D01*
G01Y2346340D02*
X17238010D01*
G01X17505650Y2663840D02*
X17474160Y2653260D01*
X17450540Y2626800D01*
X17434800Y2595050D01*
X17422990Y2552710D01*
X17419050Y2505090D01*
X17422990Y2457460D01*
X17434800Y2415130D01*
X17450540Y2383370D01*
X17474160Y2356920D01*
X17505650Y2346340D01*
X17537140Y2356920D01*
X17560770Y2383370D01*
X17576510Y2415130D01*
X17588320Y2457460D01*
X17592260Y2505090D01*
X17588320Y2552710D01*
X17576510Y2595050D01*
X17560770Y2626800D01*
X17537140Y2653260D01*
X17505650Y2663840D01*
G01X17115980Y1897230D02*
X17139600Y1928980D01*
X17167160Y1944860D01*
X17198650Y1950150D01*
X17238010Y1939570D01*
X17265570Y1913110D01*
X17273440Y1881360D01*
X17269510Y1849600D01*
X17253760Y1823150D01*
X17175030Y1770230D01*
X17139600Y1733190D01*
X17115980Y1680260D01*
X17108110Y1632650D01*
X17273440D01*
G01X17505650Y1950150D02*
X17474160Y1939570D01*
X17450540Y1913110D01*
X17434800Y1881360D01*
X17422990Y1839020D01*
X17419050Y1791400D01*
X17422990Y1743770D01*
X17434800Y1701440D01*
X17450540Y1669680D01*
X17474160Y1643230D01*
X17505650Y1632650D01*
X17537140Y1643230D01*
X17560770Y1669680D01*
X17576510Y1701440D01*
X17588320Y1743770D01*
X17592260Y1791400D01*
X17588320Y1839020D01*
X17576510Y1881360D01*
X17560770Y1913110D01*
X17537140Y1939570D01*
X17505650Y1950150D01*
G01X17033330Y3813060D02*
X17001840Y3818350D01*
X16974290Y3839510D01*
X16950670Y3871270D01*
X16934920Y3908310D01*
X16927050Y3950640D01*
Y3992980D01*
X16934920Y4035310D01*
X16950670Y4072350D01*
X16974290Y4104100D01*
X17001840Y4125270D01*
X17033330Y4130560D01*
X17064820Y4125270D01*
X17092380Y4104100D01*
X17116000Y4072350D01*
X17131750Y4035310D01*
X17139620Y3992980D01*
Y3950640D01*
X17131750Y3908310D01*
X17116000Y3871270D01*
X17092380Y3839510D01*
X17064820Y3818350D01*
X17033330Y3813060D01*
G01X17064820Y3897730D02*
X17112070Y3813060D01*
G01X17348210Y4130560D02*
Y3813060D01*
G01X17257680Y4130560D02*
X17438750D01*
G01X17663090Y3813060D02*
Y3955930D01*
X17584360Y4130560D01*
G01X17741830D02*
X17663090Y3955930D01*
G01X16958540Y3324610D02*
X16982160Y3356360D01*
X17009720Y3372240D01*
X17041210Y3377530D01*
X17080570Y3366950D01*
X17108130Y3340490D01*
X17116000Y3308740D01*
X17112070Y3276980D01*
X17096320Y3250530D01*
X17017590Y3197610D01*
X16982160Y3160570D01*
X16958540Y3107640D01*
X16950670Y3060030D01*
X17116000D01*
G01X17273420Y3324610D02*
X17297040Y3356360D01*
X17324600Y3372240D01*
X17356090Y3377530D01*
X17395450Y3366950D01*
X17423010Y3340490D01*
X17430880Y3308740D01*
X17426950Y3276980D01*
X17411200Y3250530D01*
X17332470Y3197610D01*
X17297040Y3160570D01*
X17273420Y3107640D01*
X17265550Y3060030D01*
X17430880D01*
G01X17576490Y3107640D02*
X17600110Y3081190D01*
X17627660Y3065320D01*
X17663090Y3060030D01*
X17698530Y3070610D01*
X17726080Y3091770D01*
X17745760Y3128820D01*
X17749700Y3171150D01*
X17741830Y3213480D01*
X17722140Y3239950D01*
X17694580Y3261110D01*
X17667030Y3266400D01*
X17639480Y3261110D01*
X17604050Y3239950D01*
X17615860Y3377530D01*
X17722140D01*
M02*
