G04 ================== begin FILE IDENTIFICATION RECORD ==================*
G04 Layout Name:  DevPack_Debug.brd*
G04 Film Name:    silk_bottom*
G04 File Format:  Gerber RS274X*
G04 File Origin:  Cadence Allegro 16.6-S019*
G04 Origin Date:  Fri Oct 16 16:25:00 2015*
G04 *
G04 Layer:  REF DES/SILKSCREEN_BOTTOM*
G04 Layer:  PACKAGE GEOMETRY/SILKSCREEN_BOTTOM*
G04 Layer:  MANUFACTURING/AUTOSILK_BOTTOM*
G04 Layer:  BOARD GEOMETRY/OUTLINE*
G04 *
G04 Offset:    (0.0000 0.0000)*
G04 Mirror:    No*
G04 Mode:      Positive*
G04 Rotation:  0*
G04 FullContactRelief:  No*
G04 UndefLineWidth:     0.1000*
G04 ================== end FILE IDENTIFICATION RECORD ====================*
%FSLAX25Y25*MOMM*%
%IR0*IPPOS*OFA0.00000B0.00000*MIA0B0*SFA1.00000B1.00000*%
%ADD10C,.1*%
%ADD11C,.1001*%
G75*
%LPD*%
G75*
G54D10*
G01X4000Y379000D02*
Y79000D01*
X49000Y34000D01*
X709000D01*
Y379000D01*
X4000D01*
G01X542000Y848000D02*
Y608000D01*
X222000D01*
X97000Y733000D01*
Y848000D01*
G01Y1513000D02*
Y1628000D01*
X222000Y1753000D01*
X542000D01*
Y1513000D01*
G01X1487000Y652000D02*
Y592000D01*
X1547000D01*
G01Y2021990D02*
X1487000Y2022000D01*
Y1962000D01*
G01X1777000Y2182000D02*
X1797000D01*
G01X2857000Y592000D02*
X2862000Y592010D01*
X2917000Y647000D01*
Y652000D01*
G01X2857000Y2021990D02*
X2917000Y2022000D01*
Y1962000D01*
G01X0Y3270000D02*
Y0D01*
X4000000D01*
Y2900000D01*
X1700000D01*
Y3270000D01*
X0D01*
G54D11*
G01X3907250Y854650D02*
Y841120D01*
X3926300D01*
X3932650Y845170D01*
X3936880Y849910D01*
X3939000Y856680D01*
X3936880Y863440D01*
X3932650Y868180D01*
X3926300Y872240D01*
X3918890Y874940D01*
X3910430Y876290D01*
X3903020D01*
X3896670Y874940D01*
X3889260Y872240D01*
X3882910Y868180D01*
X3878680Y864120D01*
X3875500Y858710D01*
Y853970D01*
X3877620Y848560D01*
X3881850Y844500D01*
G01X3939000Y818480D02*
X3875500D01*
X3939000Y787370D01*
X3875500D01*
G01X3939000Y762030D02*
X3875500D01*
Y748500D01*
X3878680Y743090D01*
X3882910Y739030D01*
X3889260Y735640D01*
X3896670Y732940D01*
X3907250Y732260D01*
X3917830Y732940D01*
X3925240Y735640D01*
X3931590Y739030D01*
X3935830Y743090D01*
X3939000Y748500D01*
Y762030D01*
M02*
