G04 ================== begin FILE IDENTIFICATION RECORD ==================*
G04 Layout Name:  DevPack_Debug.brd*
G04 Film Name:    silk_top*
G04 File Format:  Gerber RS274X*
G04 File Origin:  Cadence Allegro 16.6-S019*
G04 Origin Date:  Fri Oct 16 16:25:00 2015*
G04 *
G04 Layer:  DEVICE TYPE/SILKSCREEN_TOP*
G04 Layer:  REF DES/SILKSCREEN_TOP*
G04 Layer:  PACKAGE GEOMETRY/SILKSCREEN_TOP*
G04 Layer:  MANUFACTURING/AUTOSILK_TOP*
G04 Layer:  BOARD GEOMETRY/OUTLINE*
G04 *
G04 Offset:    (0.0000 0.0000)*
G04 Mirror:    No*
G04 Mode:      Positive*
G04 Rotation:  0*
G04 FullContactRelief:  No*
G04 UndefLineWidth:     0.1000*
G04 ================== end FILE IDENTIFICATION RECORD ====================*
%FSLAX25Y25*MOMM*%
%IR0*IPPOS*OFA0.00000B0.00000*MIA0B0*SFA1.00000B1.00000*%
%ADD10C,.1*%
%ADD11C,.1001*%
%ADD12C,.003*%
G75*
%LPD*%
G75*
G36*
G01X920170Y1859610D02*
Y1850230D01*
X868780D01*
Y1859610D01*
X874490D01*
G03X879420Y1864540I1J4929D01*
G01Y1978930D01*
G03X874490Y1983860I-4928J2D01*
G01X845290D01*
G03X841810Y1982430I-8J-4931D01*
G01X828690Y1969360D01*
X833500Y2000040D01*
X955450D01*
X960260Y1969360D01*
X947140Y1982430D01*
G03X943660Y1983860I-3472J-3500D01*
G01X914460D01*
G03X909530Y1978930I-1J-4929D01*
G01Y1864540D01*
G03X914460Y1859610I4930J0D01*
G01X920170D01*
G37*
G36*
G01X1019470Y1925440D02*
X1022330D01*
Y1895830D01*
X1019470D01*
X1015480Y1900920D01*
G03X1012360Y1902430I-3111J-2450D01*
G01X971890D01*
Y1864120D01*
X1022910D01*
G03X1025770Y1865340I1J3961D01*
G01X1038120Y1878250D01*
X1041540D01*
X1032780Y1852900D01*
G02X1029030Y1850230I-3745J1291D01*
G01X938370D01*
Y1854480D01*
X949540Y1860330D01*
G03X951660Y1863840I-1841J3507D01*
G01Y1952230D01*
G03X949710Y1955640I-3959J-2D01*
G01X938370Y1962330D01*
Y1969100D01*
X1024280D01*
G02X1027940Y1966650I-1J-3961D01*
G01X1038690Y1940660D01*
X1032800Y1938230D01*
X1022300Y1949690D01*
G03X1019380Y1950970I-2916J-2681D01*
G01X971890D01*
Y1920480D01*
X1012700D01*
G03X1015440Y1921580I0J3963D01*
G01X1019470Y1925440D01*
G37*
G36*
G01X908810Y1691130D02*
G03X916730Y1683210I7921J1D01*
G01X920980D01*
Y1674150D01*
X868780Y1674020D01*
Y1683210D01*
X873030D01*
G03X880950Y1691130I-1J7921D01*
G01Y1813910D01*
G03X873030Y1821840I-7922J8D01*
G01X868780D01*
Y1828640D01*
X920170D01*
Y1821840D01*
X916730D01*
G03X908810Y1813910I3J-7923D01*
G01Y1691130D01*
G37*
G36*
G01X927890Y1683210D02*
X935390D01*
G03X939360Y1687170I8J3962D01*
G01Y1780150D01*
G03X935390Y1784110I-3961J-1D01*
G01X927330D01*
Y1792890D01*
X963830D01*
G02X966830Y1791520I4J-3960D01*
G01X1023580Y1725780D01*
Y1779360D01*
G03X1019620Y1783320I-3959J1D01*
G01X1009940D01*
Y1792890D01*
X1049830D01*
Y1783320D01*
X1041430D01*
G03X1037470Y1779360I-1J-3959D01*
G01Y1674150D01*
X1031300D01*
G02X1028310Y1675520I5J3958D01*
G01X959680Y1755020D01*
Y1687170D01*
G03X963640Y1683210I3961J1D01*
G01X969560D01*
Y1674150D01*
X927890D01*
Y1683210D01*
G37*
G36*
G01X622150Y2006460D02*
X599360D01*
Y2074000D01*
X505000D01*
Y1932870D01*
X404790D01*
X405630Y1929310D01*
X406490Y1925780D01*
X407420Y1922290D01*
X408430Y1918870D01*
X409560Y1915530D01*
X410850Y1912310D01*
X412310Y1909220D01*
X413980Y1906280D01*
X415890Y1903520D01*
X416950Y1902210D01*
X420500Y1898570D01*
X423120Y1896310D01*
X425860Y1894140D01*
X428650Y1892010D01*
X431440Y1889850D01*
X434500Y1887320D01*
X436740Y1885270D01*
X439210Y1882810D01*
X441560Y1880260D01*
X443830Y1877630D01*
X446040Y1874950D01*
X448200Y1872230D01*
X450350Y1869490D01*
X451350Y1865920D01*
X452370Y1862360D01*
X453400Y1858800D01*
X454470Y1855250D01*
X455580Y1851710D01*
X456740Y1848200D01*
X457960Y1844700D01*
X459250Y1841230D01*
X460630Y1837780D01*
X462100Y1834370D01*
X464210Y1829880D01*
X465350Y1827650D01*
X467210Y1824410D01*
X469320Y1821350D01*
X471760Y1818540D01*
X474710Y1816000D01*
X477930Y1814030D01*
X481570Y1812520D01*
X485350Y1811650D01*
X489090Y1811530D01*
X491940Y1812060D01*
X495800Y1813910D01*
X498700Y1816220D01*
X501370Y1819000D01*
X503820Y1821960D01*
X506270Y1825100D01*
X508640Y1828110D01*
X511070Y1830970D01*
X513650Y1833590D01*
X516450Y1835880D01*
X519660Y1837800D01*
X523050Y1839110D01*
X527590Y1839780D01*
X530410Y1839530D01*
X533990Y1838480D01*
X537400Y1836770D01*
X541450Y1833840D01*
X543380Y1832070D01*
X545900Y1829310D01*
X548160Y1826370D01*
X550220Y1823290D01*
X552140Y1820110D01*
X553330Y1818000D01*
X555730Y1813610D01*
X557440Y1810320D01*
X559120Y1807020D01*
X560760Y1803700D01*
X562360Y1800360D01*
X563930Y1797010D01*
X565210Y1794230D01*
X567020Y1790270D01*
X568540Y1786890D01*
X570060Y1783510D01*
X571590Y1780140D01*
X573140Y1776770D01*
X574710Y1773420D01*
X577100Y1768490D01*
X577960Y1766770D01*
X579650Y1763490D01*
X581410Y1760240D01*
X583240Y1757030D01*
X585150Y1753860D01*
X587150Y1750740D01*
X589250Y1747670D01*
X591460Y1744650D01*
X592940Y1742740D01*
X596230Y1738810D01*
X598790Y1736010D01*
X601450Y1733300D01*
X604180Y1730700D01*
X606990Y1728220D01*
X609850Y1725870D01*
X612750Y1723670D01*
X616710Y1720950D01*
X618630Y1719760D01*
X621610Y1718060D01*
X624650Y1716550D01*
X627780Y1715220D01*
X631020Y1714060D01*
X634410Y1713090D01*
X637970Y1712310D01*
X641740Y1711700D01*
X645740Y1711290D01*
X649990Y1711060D01*
X656320Y1711050D01*
X659390Y1711170D01*
X664370Y1711540D01*
X669160Y1712190D01*
X673450Y1713170D01*
X676910Y1714540D01*
X679230Y1716330D01*
X680080Y1718970D01*
X679290Y1721420D01*
X677210Y1724610D01*
X674490Y1727980D01*
X673050Y1737490D01*
X671890Y1746880D01*
X671280Y1756000D01*
X671510Y1764740D01*
X672510Y1771550D01*
X675450Y1780600D01*
X679270Y1787680D01*
X684180Y1794250D01*
X690080Y1800360D01*
X696860Y1806070D01*
X704400Y1811420D01*
X712600Y1816460D01*
X721360Y1821250D01*
X730550Y1825840D01*
X740070Y1830270D01*
X749800Y1834610D01*
X759650Y1838890D01*
X777130D01*
Y1919000D01*
X759300Y1936830D01*
Y2006460D01*
X678100D01*
X668200Y1953710D01*
X691970D01*
X686030Y1920140D01*
X664240D01*
X650870Y1849590D01*
X668140Y1849690D01*
Y1821430D01*
G02X660940Y1812240I-8034J-1121D01*
G01X605360D01*
G02X588970Y1825030I-1089J15502D01*
G01Y1833020D01*
X604560Y1920140D01*
X581370D01*
X588570Y1953710D01*
X613360D01*
X622150Y2006460D01*
G37*
G36*
G01X630570Y2012090D02*
X639710Y2051870D01*
X681300D01*
X672160Y2012090D01*
X630570D01*
G37*
G36*
G01Y2006460D02*
X598880Y1849690D01*
X640470D01*
X672160Y2006460D01*
X630570D01*
G37*
G36*
G01X920170Y1859610D02*
Y1850230D01*
X868780D01*
Y1859610D01*
X874490D01*
G03X879420Y1864540I1J4929D01*
G01Y1978930D01*
G03X874490Y1983860I-4928J2D01*
G01X845290D01*
G03X841810Y1982430I-8J-4931D01*
G01X828690Y1969360D01*
X833500Y2000040D01*
X955450D01*
X960260Y1969360D01*
X947140Y1982430D01*
G03X943660Y1983860I-3472J-3500D01*
G01X914460D01*
G03X909530Y1978930I-1J-4929D01*
G01Y1864540D01*
G03X914460Y1859610I4930J0D01*
G01X920170D01*
G37*
G36*
G01X1019470Y1925440D02*
X1022330D01*
Y1895830D01*
X1019470D01*
X1015480Y1900920D01*
G03X1012360Y1902430I-3111J-2450D01*
G01X971890D01*
Y1864120D01*
X1022910D01*
G03X1025770Y1865340I1J3961D01*
G01X1038120Y1878250D01*
X1041540D01*
X1032780Y1852900D01*
G02X1029030Y1850230I-3745J1291D01*
G01X938370D01*
Y1854480D01*
X949540Y1860330D01*
G03X951660Y1863840I-1841J3507D01*
G01Y1952230D01*
G03X949710Y1955640I-3959J-2D01*
G01X938370Y1962330D01*
Y1969100D01*
X1024280D01*
G02X1027940Y1966650I-1J-3961D01*
G01X1038690Y1940660D01*
X1032800Y1938230D01*
X1022300Y1949690D01*
G03X1019380Y1950970I-2916J-2681D01*
G01X971890D01*
Y1920480D01*
X1012700D01*
G03X1015440Y1921580I0J3963D01*
G01X1019470Y1925440D01*
G37*
G36*
G01X908810Y1691130D02*
G03X916730Y1683210I7921J1D01*
G01X920980D01*
Y1674150D01*
X868780Y1674020D01*
Y1683210D01*
X873030D01*
G03X880950Y1691130I-1J7921D01*
G01Y1813910D01*
G03X873030Y1821840I-7922J8D01*
G01X868780D01*
Y1828640D01*
X920170D01*
Y1821840D01*
X916730D01*
G03X908810Y1813910I3J-7923D01*
G01Y1691130D01*
G37*
G36*
G01X927890Y1683210D02*
X935390D01*
G03X939360Y1687170I8J3962D01*
G01Y1780150D01*
G03X935390Y1784110I-3961J-1D01*
G01X927330D01*
Y1792890D01*
X963830D01*
G02X966830Y1791520I4J-3960D01*
G01X1023580Y1725780D01*
Y1779360D01*
G03X1019620Y1783320I-3959J1D01*
G01X1009940D01*
Y1792890D01*
X1049830D01*
Y1783320D01*
X1041430D01*
G03X1037470Y1779360I-1J-3959D01*
G01Y1674150D01*
X1031300D01*
G02X1028310Y1675520I5J3958D01*
G01X959680Y1755020D01*
Y1687170D01*
G03X963640Y1683210I3961J1D01*
G01X969560D01*
Y1674150D01*
X927890D01*
Y1683210D01*
G37*
G36*
G01X622150Y2006460D02*
X599360D01*
Y2074000D01*
X505000D01*
Y1932870D01*
X404790D01*
X405630Y1929310D01*
X406490Y1925780D01*
X407420Y1922290D01*
X408430Y1918870D01*
X409560Y1915530D01*
X410850Y1912310D01*
X412310Y1909220D01*
X413980Y1906280D01*
X415890Y1903520D01*
X416950Y1902210D01*
X420500Y1898570D01*
X423120Y1896310D01*
X425860Y1894140D01*
X428650Y1892010D01*
X431440Y1889850D01*
X434500Y1887320D01*
X436740Y1885270D01*
X439210Y1882810D01*
X441560Y1880260D01*
X443830Y1877630D01*
X446040Y1874950D01*
X448200Y1872230D01*
X450350Y1869490D01*
X451350Y1865920D01*
X452370Y1862360D01*
X453400Y1858800D01*
X454470Y1855250D01*
X455580Y1851710D01*
X456740Y1848200D01*
X457960Y1844700D01*
X459250Y1841230D01*
X460630Y1837780D01*
X462100Y1834370D01*
X464210Y1829880D01*
X465350Y1827650D01*
X467210Y1824410D01*
X469320Y1821350D01*
X471760Y1818540D01*
X474710Y1816000D01*
X477930Y1814030D01*
X481570Y1812520D01*
X485350Y1811650D01*
X489090Y1811530D01*
X491940Y1812060D01*
X495800Y1813910D01*
X498700Y1816220D01*
X501370Y1819000D01*
X503820Y1821960D01*
X506270Y1825100D01*
X508640Y1828110D01*
X511070Y1830970D01*
X513650Y1833590D01*
X516450Y1835880D01*
X519660Y1837800D01*
X523050Y1839110D01*
X527590Y1839780D01*
X530410Y1839530D01*
X533990Y1838480D01*
X537400Y1836770D01*
X541450Y1833840D01*
X543380Y1832070D01*
X545900Y1829310D01*
X548160Y1826370D01*
X550220Y1823290D01*
X552140Y1820110D01*
X553330Y1818000D01*
X555730Y1813610D01*
X557440Y1810320D01*
X559120Y1807020D01*
X560760Y1803700D01*
X562360Y1800360D01*
X563930Y1797010D01*
X565210Y1794230D01*
X567020Y1790270D01*
X568540Y1786890D01*
X570060Y1783510D01*
X571590Y1780140D01*
X573140Y1776770D01*
X574710Y1773420D01*
X577100Y1768490D01*
X577960Y1766770D01*
X579650Y1763490D01*
X581410Y1760240D01*
X583240Y1757030D01*
X585150Y1753860D01*
X587150Y1750740D01*
X589250Y1747670D01*
X591460Y1744650D01*
X592940Y1742740D01*
X596230Y1738810D01*
X598790Y1736010D01*
X601450Y1733300D01*
X604180Y1730700D01*
X606990Y1728220D01*
X609850Y1725870D01*
X612750Y1723670D01*
X616710Y1720950D01*
X618630Y1719760D01*
X621610Y1718060D01*
X624650Y1716550D01*
X627780Y1715220D01*
X631020Y1714060D01*
X634410Y1713090D01*
X637970Y1712310D01*
X641740Y1711700D01*
X645740Y1711290D01*
X649990Y1711060D01*
X656320Y1711050D01*
X659390Y1711170D01*
X664370Y1711540D01*
X669160Y1712190D01*
X673450Y1713170D01*
X676910Y1714540D01*
X679230Y1716330D01*
X680080Y1718970D01*
X679290Y1721420D01*
X677210Y1724610D01*
X674490Y1727980D01*
X673050Y1737490D01*
X671890Y1746880D01*
X671280Y1756000D01*
X671510Y1764740D01*
X672510Y1771550D01*
X675450Y1780600D01*
X679270Y1787680D01*
X684180Y1794250D01*
X690080Y1800360D01*
X696860Y1806070D01*
X704400Y1811420D01*
X712600Y1816460D01*
X721360Y1821250D01*
X730550Y1825840D01*
X740070Y1830270D01*
X749800Y1834610D01*
X759650Y1838890D01*
X777130D01*
Y1919000D01*
X759300Y1936830D01*
Y2006460D01*
X678100D01*
X668200Y1953710D01*
X691970D01*
X686030Y1920140D01*
X664240D01*
X650870Y1849590D01*
X668140Y1849690D01*
Y1821430D01*
G02X660940Y1812240I-8034J-1121D01*
G01X605360D01*
G02X588970Y1825030I-1089J15502D01*
G01Y1833020D01*
X604560Y1920140D01*
X581370D01*
X588570Y1953710D01*
X613360D01*
X622150Y2006460D01*
G37*
G36*
G01X630570Y2012090D02*
X639710Y2051870D01*
X681300D01*
X672160Y2012090D01*
X630570D01*
G37*
G36*
G01Y2006460D02*
X598880Y1849690D01*
X640470D01*
X672160Y2006460D01*
X630570D01*
G37*
G36*
G01X1501000Y2295920D02*
Y2529350D01*
X1610040Y2603000D01*
X2059000D01*
Y2573000D01*
X2134000Y2626000D01*
X2059000Y2679000D01*
Y2649000D01*
X1608000Y2648000D01*
X1457000Y2551000D01*
Y2295000D01*
X1501000Y2295920D01*
G37*
G36*
G01X1220810Y1681560D02*
Y1674150D01*
X1180220D01*
Y1681560D01*
X1184730D01*
G03X1188620Y1685450I-2J3892D01*
G01Y1775820D01*
G03X1184730Y1779720I-3895J5D01*
G01X1161660D01*
G03X1158910Y1778580I4J-3896D01*
G01X1148550Y1768260D01*
X1152350Y1792500D01*
X1248680D01*
X1252480Y1768260D01*
X1242120Y1778580D01*
G03X1239370Y1779720I-2754J-2756D01*
G01X1216300D01*
G03X1212410Y1775820I5J-3895D01*
G01Y1685450D01*
G03X1216300Y1681560I3893J3D01*
G01X1220810D01*
G37*
G36*
G01X1959680D02*
Y1674150D01*
X1919080D01*
Y1681560D01*
X1923590D01*
G03X1927490Y1685450I6J3894D01*
G01Y1775820D01*
G03X1923590Y1779720I-3897J3D01*
G01X1900530D01*
G03X1897780Y1778580I3J-3894D01*
G01X1887410Y1768260D01*
X1891210Y1792500D01*
X1987550D01*
X1991350Y1768260D01*
X1980980Y1778580D01*
G03X1978230Y1779720I-2753J-2755D01*
G01X1955170D01*
G03X1951270Y1775820I-4J-3896D01*
G01Y1685450D01*
G03X1955170Y1681560I3894J4D01*
G01X1959680D01*
G37*
G36*
G01X1054610Y1954680D02*
X1085380Y1911150D01*
G02X1085400Y1906610I-3234J-2284D01*
G01X1054870Y1862610D01*
G02X1051610Y1860900I-3260J2252D01*
G01X1043880D01*
Y1850230D01*
X1080110D01*
Y1860900D01*
X1073290D01*
X1096260Y1895770D01*
X1120900Y1860900D01*
X1113620D01*
Y1850230D01*
X1154710D01*
Y1860900D01*
X1153510D01*
G02X1150270Y1862600I12J3961D01*
G01X1119450Y1906720D01*
G02X1119360Y1911120I3245J2267D01*
G01X1147090Y1954530D01*
G02X1150430Y1956360I3339J-2131D01*
G01X1159400D01*
Y1969260D01*
X1116720D01*
Y1959980D01*
Y1956360D01*
X1128180D01*
X1107560Y1925050D01*
X1086930Y1956360D01*
X1099540D01*
Y1969260D01*
X1043620D01*
Y1956360D01*
X1051380D01*
G02X1054610Y1954680I-8J-3960D01*
G37*
G36*
G01X1231340Y1850230D02*
Y1860900D01*
X1234740D01*
G03X1238470Y1866200I-2J3964D01*
G01X1210510Y1944400D01*
X1191610Y1895670D01*
X1227310D01*
X1231390Y1884270D01*
X1187150Y1884160D01*
X1180220Y1866300D01*
G03X1183910Y1860900I3693J-1437D01*
G01X1184600D01*
Y1850230D01*
X1157240D01*
Y1860900D01*
X1157780D01*
G03X1161470Y1863440I-7J3961D01*
G01X1202350Y1969260D01*
X1229190D01*
X1267970Y1863500D01*
G03X1271680Y1860900I3720J1361D01*
G01X1276000D01*
Y1850230D01*
X1231340D01*
G37*
G36*
G01X1268960Y1685310D02*
Y1781640D01*
G03X1265000Y1785600I-3960J0D01*
G01X1257690D01*
Y1792290D01*
X1331470D01*
X1333880Y1791940D01*
X1336280Y1791540D01*
X1337470Y1791310D01*
X1338650Y1791040D01*
X1340130Y1790640D01*
X1340980Y1790380D01*
X1342130Y1789980D01*
X1343270Y1789540D01*
X1344390Y1789050D01*
X1345490Y1788510D01*
X1346560Y1787930D01*
X1347620Y1787300D01*
X1348650Y1786630D01*
X1349650Y1785920D01*
X1350620Y1785170D01*
X1351560Y1784370D01*
X1352470Y1783530D01*
X1352980Y1783030D01*
X1354180Y1781730D01*
X1354970Y1780780D01*
X1355720Y1779790D01*
X1356420Y1778770D01*
X1357080Y1777720D01*
X1357680Y1776640D01*
X1358230Y1775540D01*
X1358710Y1774420D01*
X1359140Y1773280D01*
X1359510Y1772130D01*
X1359850Y1770790D01*
X1360040Y1769780D01*
X1360210Y1768600D01*
X1360330Y1767400D01*
X1360410Y1766200D01*
X1360460Y1764990D01*
X1360550Y1760090D01*
X1360590Y1759000D01*
X1360670Y1757620D01*
X1360830Y1755150D01*
X1360880Y1753920D01*
X1360910Y1752700D01*
X1360890Y1751480D01*
X1360810Y1750280D01*
X1360660Y1749090D01*
X1360540Y1748510D01*
X1360410Y1747920D01*
X1360290Y1747510D01*
X1360060Y1746770D01*
X1359840Y1746210D01*
X1359600Y1745650D01*
X1359340Y1745090D01*
X1359050Y1744550D01*
X1358420Y1743480D01*
X1357710Y1742450D01*
X1356940Y1741460D01*
X1356100Y1740520D01*
X1355230Y1739630D01*
X1354310Y1738800D01*
X1353370Y1738030D01*
X1352680Y1737510D01*
X1351440Y1736680D01*
X1350450Y1736090D01*
X1349460Y1735550D01*
X1348450Y1735040D01*
X1347430Y1734560D01*
X1345340Y1733630D01*
X1344270Y1733160D01*
X1343190Y1732670D01*
X1342100Y1732150D01*
X1340980Y1731590D01*
X1339850Y1730990D01*
X1338700Y1730320D01*
X1337540Y1729590D01*
X1336250Y1728700D01*
X1335760Y1728340D01*
X1335480Y1728110D01*
X1335230Y1727880D01*
X1335000Y1727660D01*
X1334820Y1727430D01*
X1334690Y1727210D01*
X1334610Y1726910D01*
X1334620Y1726770D01*
X1334680Y1726570D01*
X1334810Y1726360D01*
X1334990Y1726160D01*
X1335210Y1725970D01*
X1335470Y1725780D01*
X1336080Y1725410D01*
X1337150Y1724820D01*
X1338050Y1724310D01*
X1338650Y1723940D01*
X1339220Y1723580D01*
X1339760Y1723210D01*
X1340270Y1722840D01*
X1340760Y1722460D01*
X1341680Y1721700D01*
X1342530Y1720930D01*
X1343320Y1720130D01*
X1344080Y1719310D01*
X1344950Y1718320D01*
X1345570Y1717590D01*
X1346310Y1716690D01*
X1347060Y1715770D01*
X1347800Y1714810D01*
X1348530Y1713840D01*
X1349960Y1711830D01*
X1350650Y1710800D01*
X1351320Y1709750D01*
X1351970Y1708700D01*
X1352320Y1708110D01*
X1353780Y1705480D01*
X1354910Y1703310D01*
X1356030Y1701170D01*
X1357190Y1699050D01*
X1357810Y1698020D01*
X1358450Y1697000D01*
X1358860Y1696390D01*
X1359830Y1695030D01*
X1360570Y1694080D01*
X1361340Y1693140D01*
X1362140Y1692230D01*
X1362960Y1691330D01*
X1364660Y1689570D01*
X1366800Y1687490D01*
X1368180Y1686200D01*
X1369980Y1684570D01*
X1372470Y1682350D01*
G03X1375110Y1681350I2631J2961D01*
G01X1380070D01*
Y1673940D01*
X1352570D01*
G02X1349630Y1675250I3J3960D01*
G01X1344130Y1681350D01*
X1343220Y1682360D01*
X1342320Y1683370D01*
X1341420Y1684390D01*
X1340530Y1685410D01*
X1339650Y1686450D01*
X1338790Y1687490D01*
X1337950Y1688560D01*
X1337130Y1689640D01*
X1336430Y1690590D01*
X1335570Y1691850D01*
X1334830Y1692990D01*
X1334130Y1694160D01*
X1333450Y1695340D01*
X1332810Y1696530D01*
X1332210Y1697750D01*
X1331640Y1698990D01*
X1331130Y1700170D01*
X1330600Y1701510D01*
X1330120Y1702780D01*
X1329660Y1704060D01*
X1329190Y1705340D01*
X1328710Y1706610D01*
X1328210Y1707860D01*
X1327670Y1709100D01*
X1327360Y1709750D01*
X1326450Y1711490D01*
X1325770Y1712660D01*
X1325060Y1713810D01*
X1324340Y1714960D01*
X1323600Y1716120D01*
X1323090Y1716930D01*
X1322130Y1718460D01*
X1321380Y1719620D01*
X1320590Y1720740D01*
X1319750Y1721810D01*
X1318840Y1722780D01*
X1318080Y1723450D01*
X1316720Y1724390D01*
X1315530Y1725050D01*
X1314300Y1725640D01*
X1313030Y1726210D01*
X1292620D01*
Y1737360D01*
X1316120D01*
X1317490Y1737470D01*
X1318860Y1737600D01*
X1319880Y1737700D01*
X1321600Y1737930D01*
X1322950Y1738180D01*
X1324290Y1738510D01*
X1325010Y1738730D01*
X1326900Y1739500D01*
X1328160Y1740160D01*
X1329370Y1740920D01*
X1330520Y1741770D01*
X1331600Y1742710D01*
X1332610Y1743730D01*
X1333530Y1744810D01*
X1334350Y1745960D01*
X1335060Y1747160D01*
X1335600Y1748290D01*
X1336120Y1749690D01*
X1336470Y1751010D01*
X1336730Y1752350D01*
X1336900Y1753720D01*
X1336990Y1755110D01*
X1337030Y1756510D01*
X1337020Y1757920D01*
X1336970Y1759560D01*
X1336910Y1760760D01*
X1336820Y1762170D01*
X1336690Y1763570D01*
X1336520Y1764950D01*
X1336290Y1766320D01*
X1335990Y1767670D01*
X1335610Y1768990D01*
X1335150Y1770270D01*
X1334590Y1771530D01*
X1334230Y1772200D01*
X1333130Y1773900D01*
X1332250Y1775000D01*
X1331280Y1776020D01*
X1330220Y1776950D01*
X1329090Y1777780D01*
X1327890Y1778480D01*
X1327070Y1778870D01*
X1325340Y1779480D01*
X1324010Y1779800D01*
X1322650Y1780050D01*
X1321270Y1780230D01*
X1319880Y1780400D01*
X1292200D01*
Y1685310D01*
G03X1296160Y1681350I3960J0D01*
G01X1305190D01*
Y1673940D01*
X1257690D01*
Y1681350D01*
X1265000D01*
G03X1268960Y1685310I1J3959D01*
G37*
G36*
G01X1409150Y1674180D02*
X1463470D01*
G03X1483680Y1696180I-2071J22185D01*
G01Y1781640D01*
G02X1487640Y1785600I3960J0D01*
G01X1493510D01*
Y1792870D01*
X1455020D01*
Y1785600D01*
X1463230D01*
G02X1467190Y1781640I-2J-3962D01*
G01Y1702460D01*
G02X1448310Y1687860I-17976J3738D01*
G01X1426610D01*
G02X1409470Y1702460I475J17918D01*
G01Y1781640D01*
G02X1413430Y1785600I3962J-2D01*
G01X1422040D01*
Y1792870D01*
X1369820D01*
Y1785600D01*
X1379990D01*
G02X1383950Y1781640I0J-3960D01*
G01Y1705380D01*
G03X1409150Y1674180I32235J259D01*
G37*
G36*
G01X1499460Y1674000D02*
X1536900D01*
Y1683210D01*
X1528770D01*
G02X1524800Y1687170I-8J3962D01*
G01Y1762780D01*
X1568640Y1674000D01*
X1610650Y1761410D01*
Y1687170D01*
G02X1606690Y1683210I-3962J2D01*
G01X1602120D01*
Y1674150D01*
X1647410D01*
Y1683210D01*
X1645660D01*
G02X1641700Y1687170I0J3960D01*
G01Y1782140D01*
G02X1645660Y1786100I3960J0D01*
G01X1649690D01*
Y1792870D01*
X1610740D01*
G03X1607100Y1790490I-8J-3962D01*
G01X1576630Y1720110D01*
X1544130Y1790570D01*
G03X1540530Y1792870I-3595J-1660D01*
G01X1499460D01*
Y1785600D01*
X1508740D01*
G02X1512700Y1781640I0J-3960D01*
G01Y1687170D01*
G02X1508740Y1683210I-3960J0D01*
G01X1499460D01*
Y1674000D01*
G37*
G36*
G01X1738990Y1749210D02*
X1741860D01*
Y1719600D01*
X1738990D01*
X1735010Y1724690D01*
G03X1731890Y1726210I-3121J-2443D01*
G01X1691420D01*
Y1687890D01*
X1742440D01*
G03X1745300Y1689110I0J3963D01*
G01X1757650Y1702030D01*
X1761070D01*
X1752300Y1676670D01*
G02X1748560Y1674000I-3744J1290D01*
G01X1657890D01*
Y1678250D01*
X1669070Y1684110D01*
G03X1671190Y1687610I-1840J3506D01*
G01Y1776000D01*
G03X1669240Y1779410I-3960J-2D01*
G01X1657890Y1786100D01*
Y1792870D01*
X1743810D01*
G02X1747470Y1790430I2J-3962D01*
G01X1758220Y1764430D01*
X1752330Y1762000D01*
X1741820Y1773460D01*
G03X1738900Y1774750I-2925J-2671D01*
G01X1691420D01*
Y1744260D01*
X1732230D01*
G03X1734970Y1745360I1J3959D01*
G01X1738990Y1749210D01*
G37*
G36*
G01X1762740Y1683210D02*
X1770250D01*
G03X1774210Y1687170I-2J3962D01*
G01Y1780150D01*
G03X1770250Y1784110I-3960J0D01*
G01X1762180D01*
Y1792890D01*
X1798680D01*
G02X1801680Y1791520I5J-3960D01*
G01X1858430Y1725780D01*
Y1779360D01*
G03X1854470Y1783320I-3958J2D01*
G01X1844800D01*
Y1792890D01*
X1884690D01*
Y1783320D01*
X1876280D01*
G03X1872320Y1779360I0J-3960D01*
G01Y1674150D01*
X1866160D01*
G02X1863160Y1675520I-5J3959D01*
G01X1794530Y1755020D01*
Y1687170D01*
G03X1798490Y1683210I3961J1D01*
G01X1804410D01*
Y1674150D01*
X1762740D01*
Y1683210D01*
G37*
G36*
G01X2006530Y1675960D02*
X1996570Y1712640D01*
X2001170Y1713770D01*
X2003100Y1711140D01*
X2005050Y1708540D01*
X2007030Y1706010D01*
X2009080Y1703580D01*
X2011200Y1701280D01*
X2013410Y1699150D01*
X2015740Y1697210D01*
X2018210Y1695510D01*
X2020930Y1694030D01*
X2023610Y1692920D01*
X2026530Y1692000D01*
X2029560Y1691240D01*
X2033230Y1690470D01*
X2035810Y1689960D01*
X2038970Y1689390D01*
X2042140Y1688920D01*
X2045300Y1688600D01*
X2048440Y1688480D01*
X2051540Y1688610D01*
X2054590Y1689040D01*
X2057590Y1689820D01*
X2060760Y1691110D01*
X2063300Y1692590D01*
X2065850Y1694600D01*
X2067960Y1696990D01*
X2069830Y1700820D01*
X2070160Y1702670D01*
X2070070Y1705820D01*
X2069280Y1708970D01*
X2067890Y1711960D01*
X2065300Y1715390D01*
X2063720Y1716810D01*
X2061120Y1718520D01*
X2058300Y1719830D01*
X2055310Y1720830D01*
X2051050Y1721860D01*
X2049170Y1722240D01*
X2046110Y1722780D01*
X2043070Y1723260D01*
X2040030Y1723710D01*
X2037000Y1724140D01*
X2033980Y1724580D01*
X2030940Y1725060D01*
X2027900Y1725610D01*
X2024840Y1726250D01*
X2022870Y1726720D01*
X2018680Y1727900D01*
X2015660Y1728970D01*
X2012760Y1730240D01*
X2010020Y1731740D01*
X2007520Y1733500D01*
X2005380Y1735460D01*
X2003430Y1737870D01*
X2001880Y1740480D01*
X2000630Y1743310D01*
X1999670Y1746320D01*
X1998970Y1749460D01*
X1998520Y1752700D01*
X1998260Y1757470D01*
X1998270Y1759270D01*
X1998450Y1762540D01*
X1998840Y1765740D01*
X1999470Y1768860D01*
X2000350Y1771870D01*
X2001480Y1774740D01*
X2002890Y1777440D01*
X2004730Y1780130D01*
X2006590Y1782240D01*
X2008850Y1784310D01*
X2011350Y1786170D01*
X2014030Y1787830D01*
X2016850Y1789300D01*
X2019780Y1790570D01*
X2024170Y1792100D01*
X2025790Y1792580D01*
X2028820Y1793320D01*
X2031860Y1793900D01*
X2034920Y1794320D01*
X2037990Y1794580D01*
X2041010Y1794690D01*
X2044200Y1794650D01*
X2047320Y1794450D01*
X2050420Y1794050D01*
X2053470Y1793450D01*
X2056460Y1792630D01*
X2058820Y1791780D01*
X2062140Y1790260D01*
X2064870Y1788790D01*
X2067560Y1787250D01*
Y1794810D01*
X2076260D01*
X2084020Y1761280D01*
X2081160Y1758440D01*
X2078800Y1760300D01*
X2076420Y1762140D01*
X2074000Y1763930D01*
X2071540Y1765640D01*
X2069020Y1767240D01*
X2066270Y1768800D01*
X2063720Y1770050D01*
X2060940Y1771220D01*
X2058090Y1772240D01*
X2055200Y1773100D01*
X2052270Y1773810D01*
X2049310Y1774360D01*
X2047480Y1774620D01*
X2043390Y1774990D01*
X2040410Y1775050D01*
X2037390Y1774910D01*
X2034850Y1774620D01*
X2031270Y1773920D01*
X2028360Y1772910D01*
X2025800Y1771350D01*
X2024490Y1770090D01*
X2022380Y1766300D01*
X2021720Y1763140D01*
X2021810Y1759980D01*
X2022550Y1757470D01*
X2024420Y1754800D01*
X2026770Y1752970D01*
X2029570Y1751550D01*
X2032640Y1750460D01*
X2035500Y1749700D01*
X2038870Y1748990D01*
X2041880Y1748470D01*
X2044830Y1748050D01*
X2047750Y1747660D01*
X2050640Y1747260D01*
X2053640Y1746790D01*
X2056420Y1746260D01*
X2059320Y1745620D01*
X2062230Y1744890D01*
X2065140Y1744070D01*
X2067890Y1743230D01*
X2070970Y1742200D01*
X2073830Y1741110D01*
X2076610Y1739870D01*
X2079260Y1738450D01*
X2081740Y1736810D01*
X2083750Y1735140D01*
X2086020Y1732720D01*
X2087800Y1730290D01*
X2089330Y1727660D01*
X2090620Y1724880D01*
X2091670Y1721990D01*
X2092500Y1718950D01*
X2093060Y1716030D01*
X2093420Y1713020D01*
X2093540Y1710010D01*
X2093430Y1707000D01*
X2093100Y1704010D01*
X2092500Y1700820D01*
X2091770Y1698110D01*
X2090780Y1695230D01*
X2089570Y1692440D01*
X2088140Y1689750D01*
X2086510Y1687190D01*
X2084670Y1684780D01*
X2082460Y1682370D01*
X2080400Y1680510D01*
X2077990Y1678680D01*
X2075410Y1677050D01*
X2072710Y1675610D01*
X2069880Y1674380D01*
X2066970Y1673340D01*
X2063980Y1672490D01*
X2060950Y1671840D01*
X2057880Y1671380D01*
X2054810Y1671120D01*
X2051370Y1671050D01*
X2048720Y1671150D01*
X2045730Y1671440D01*
X2042770Y1671890D01*
X2039840Y1672470D01*
X2036930Y1673190D01*
X2034050Y1674020D01*
X2031180Y1674940D01*
X2028340Y1675940D01*
X2025500Y1677010D01*
X2022680Y1678120D01*
X2019860Y1679270D01*
X2017040Y1680430D01*
Y1675960D01*
X2006530D01*
G37*
G36*
G01X1062160Y1675290D02*
X1052200Y1711970D01*
X1056800Y1713100D01*
X1058730Y1710470D01*
X1060680Y1707870D01*
X1062670Y1705340D01*
X1064710Y1702910D01*
X1066830Y1700610D01*
X1069050Y1698470D01*
X1071380Y1696540D01*
X1073840Y1694840D01*
X1076560Y1693350D01*
X1079240Y1692250D01*
X1082170Y1691330D01*
X1085200Y1690570D01*
X1088870Y1689790D01*
X1091440Y1689280D01*
X1094600Y1688710D01*
X1097770Y1688240D01*
X1100930Y1687920D01*
X1104070Y1687810D01*
X1107170Y1687940D01*
X1110230Y1688360D01*
X1113220Y1689140D01*
X1116390Y1690440D01*
X1118930Y1691920D01*
X1121480Y1693930D01*
X1123590Y1696310D01*
X1125460Y1700150D01*
X1125790Y1702000D01*
X1125700Y1705150D01*
X1124910Y1708290D01*
X1123520Y1711280D01*
X1120930Y1714720D01*
X1119350Y1716130D01*
X1116760Y1717840D01*
X1113930Y1719150D01*
X1110950Y1720150D01*
X1106680Y1721190D01*
X1104800Y1721560D01*
X1101740Y1722110D01*
X1098700Y1722590D01*
X1095670Y1723030D01*
X1092640Y1723460D01*
X1089610Y1723910D01*
X1086570Y1724390D01*
X1083530Y1724940D01*
X1080470Y1725580D01*
X1078500Y1726040D01*
X1074320Y1727230D01*
X1071300Y1728300D01*
X1068390Y1729570D01*
X1065660Y1731070D01*
X1063160Y1732820D01*
X1061020Y1734780D01*
X1059070Y1737200D01*
X1057510Y1739800D01*
X1056270Y1742630D01*
X1055310Y1745640D01*
X1054610Y1748790D01*
X1054150Y1752020D01*
X1053890Y1756790D01*
X1053900Y1758600D01*
X1054080Y1761860D01*
X1054480Y1765070D01*
X1055110Y1768190D01*
X1055980Y1771190D01*
X1057120Y1774060D01*
X1058530Y1776760D01*
X1060370Y1779450D01*
X1062220Y1781560D01*
X1064490Y1783630D01*
X1066980Y1785500D01*
X1069660Y1787160D01*
X1072480Y1788620D01*
X1075410Y1789890D01*
X1079800Y1791430D01*
X1081430Y1791900D01*
X1084460Y1792650D01*
X1087500Y1793230D01*
X1090550Y1793650D01*
X1093620Y1793910D01*
X1096640Y1794020D01*
X1099840Y1793980D01*
X1102960Y1793770D01*
X1106050Y1793380D01*
X1109100Y1792780D01*
X1112090Y1791950D01*
X1114450Y1791110D01*
X1117780Y1789580D01*
X1120500Y1788120D01*
X1123200Y1786570D01*
Y1794140D01*
X1131900D01*
X1139650Y1760600D01*
X1136800Y1757770D01*
X1134430Y1759630D01*
X1132050Y1761470D01*
X1129640Y1763250D01*
X1127170Y1764960D01*
X1124650Y1766570D01*
X1121900Y1768120D01*
X1119350Y1769370D01*
X1116570Y1770550D01*
X1113730Y1771560D01*
X1110830Y1772430D01*
X1107900Y1773130D01*
X1104940Y1773690D01*
X1103120Y1773950D01*
X1099020Y1774320D01*
X1096040Y1774370D01*
X1093030Y1774230D01*
X1090490Y1773950D01*
X1086900Y1773250D01*
X1084000Y1772230D01*
X1081430Y1770680D01*
X1080120Y1769420D01*
X1078020Y1765620D01*
X1077350Y1762470D01*
X1077440Y1759300D01*
X1078180Y1756790D01*
X1080050Y1754120D01*
X1082400Y1752290D01*
X1085200Y1750870D01*
X1088270Y1749790D01*
X1091130Y1749030D01*
X1094500Y1748310D01*
X1097510Y1747800D01*
X1100460Y1747370D01*
X1103380Y1746980D01*
X1106270Y1746580D01*
X1109270Y1746110D01*
X1112050Y1745590D01*
X1114950Y1744940D01*
X1117860Y1744210D01*
X1120780Y1743390D01*
X1123520Y1742550D01*
X1126600Y1741520D01*
X1129470Y1740430D01*
X1132240Y1739200D01*
X1134890Y1737780D01*
X1137370Y1736130D01*
X1139390Y1734460D01*
X1141660Y1732040D01*
X1143430Y1729620D01*
X1144960Y1726990D01*
X1146250Y1724210D01*
X1147300Y1721310D01*
X1148130Y1718280D01*
X1148700Y1715350D01*
X1149050Y1712340D01*
X1149170Y1709330D01*
X1149070Y1706320D01*
X1148740Y1703330D01*
X1148130Y1700150D01*
X1147400Y1697430D01*
X1146410Y1694560D01*
X1145200Y1691760D01*
X1143780Y1689070D01*
X1142140Y1686510D01*
X1140310Y1684100D01*
X1138090Y1681700D01*
X1136030Y1679840D01*
X1133620Y1678010D01*
X1131050Y1676370D01*
X1128340Y1674940D01*
X1125520Y1673700D01*
X1122600Y1672660D01*
X1119620Y1671820D01*
X1116580Y1671170D01*
X1113510Y1670710D01*
X1110440Y1670440D01*
X1107000Y1670370D01*
X1104350Y1670480D01*
X1101360Y1670760D01*
X1098400Y1671210D01*
X1095470Y1671800D01*
X1092560Y1672520D01*
X1089680Y1673340D01*
X1086820Y1674270D01*
X1083970Y1675270D01*
X1081130Y1676340D01*
X1078310Y1677450D01*
X1075490Y1678600D01*
X1072670Y1679760D01*
Y1675290D01*
X1062160D01*
G37*
G36*
G01X1284210Y1851510D02*
X1274240Y1888190D01*
X1278850Y1889320D01*
X1280780Y1886690D01*
X1282720Y1884090D01*
X1284710Y1881560D01*
X1286750Y1879130D01*
X1288870Y1876830D01*
X1291090Y1874700D01*
X1293420Y1872760D01*
X1295880Y1871060D01*
X1298600Y1869580D01*
X1301290Y1868470D01*
X1304210Y1867550D01*
X1307240Y1866790D01*
X1310910Y1866020D01*
X1313480Y1865510D01*
X1316640Y1864940D01*
X1319810Y1864470D01*
X1322970Y1864150D01*
X1326110Y1864030D01*
X1329220Y1864160D01*
X1332270Y1864590D01*
X1335260Y1865360D01*
X1338440Y1866660D01*
X1340980Y1868140D01*
X1343520Y1870150D01*
X1345630Y1872530D01*
X1347500Y1876370D01*
X1347840Y1878220D01*
X1347750Y1881370D01*
X1346950Y1884520D01*
X1345560Y1887510D01*
X1342970Y1890940D01*
X1341390Y1892360D01*
X1338800Y1894070D01*
X1335970Y1895380D01*
X1332990Y1896380D01*
X1328720Y1897410D01*
X1326850Y1897790D01*
X1323790Y1898330D01*
X1320740Y1898810D01*
X1317710Y1899260D01*
X1314680Y1899690D01*
X1311650Y1900130D01*
X1308620Y1900610D01*
X1305570Y1901160D01*
X1302510Y1901800D01*
X1300550Y1902270D01*
X1296360Y1903450D01*
X1293340Y1904520D01*
X1290430Y1905790D01*
X1287700Y1907290D01*
X1285200Y1909040D01*
X1283060Y1911010D01*
X1281110Y1913420D01*
X1279560Y1916030D01*
X1278310Y1918860D01*
X1277350Y1921870D01*
X1276650Y1925010D01*
X1276200Y1928250D01*
X1275930Y1933020D01*
X1275940Y1934820D01*
X1276120Y1938090D01*
X1276520Y1941290D01*
X1277150Y1944410D01*
X1278020Y1947420D01*
X1279160Y1950290D01*
X1280570Y1952990D01*
X1282410Y1955680D01*
X1284270Y1957790D01*
X1286530Y1959860D01*
X1289020Y1961720D01*
X1291700Y1963380D01*
X1294520Y1964840D01*
X1297450Y1966120D01*
X1301840Y1967650D01*
X1303470Y1968130D01*
X1306500Y1968870D01*
X1309540Y1969450D01*
X1312590Y1969870D01*
X1315670Y1970130D01*
X1318680Y1970240D01*
X1321880Y1970200D01*
X1325000Y1970000D01*
X1328090Y1969600D01*
X1331150Y1969000D01*
X1334130Y1968180D01*
X1336490Y1967330D01*
X1339820Y1965810D01*
X1342550Y1964340D01*
X1345240Y1962800D01*
Y1970360D01*
X1353940D01*
X1361700Y1936830D01*
X1358840Y1933990D01*
X1356470Y1935850D01*
X1354090Y1937690D01*
X1351680Y1939480D01*
X1349220Y1941190D01*
X1346690Y1942790D01*
X1343940Y1944350D01*
X1341390Y1945600D01*
X1338610Y1946770D01*
X1335770Y1947790D01*
X1332870Y1948650D01*
X1329940Y1949360D01*
X1326990Y1949910D01*
X1325160Y1950170D01*
X1321060Y1950540D01*
X1318080Y1950600D01*
X1315070Y1950460D01*
X1312530Y1950170D01*
X1308950Y1949470D01*
X1306040Y1948460D01*
X1303470Y1946900D01*
X1302160Y1945640D01*
X1300060Y1941850D01*
X1299390Y1938690D01*
X1299480Y1935530D01*
X1300220Y1933020D01*
X1302090Y1930350D01*
X1304440Y1928520D01*
X1307240Y1927100D01*
X1310310Y1926010D01*
X1313180Y1925250D01*
X1316540Y1924540D01*
X1319550Y1924020D01*
X1322510Y1923600D01*
X1325420Y1923210D01*
X1328310Y1922810D01*
X1331310Y1922340D01*
X1334090Y1921810D01*
X1336990Y1921170D01*
X1339900Y1920440D01*
X1342820Y1919620D01*
X1345560Y1918780D01*
X1348640Y1917750D01*
X1351510Y1916660D01*
X1354290Y1915420D01*
X1356930Y1914000D01*
X1359410Y1912360D01*
X1361430Y1910680D01*
X1363700Y1908270D01*
X1365470Y1905840D01*
X1367000Y1903210D01*
X1368290Y1900430D01*
X1369340Y1897530D01*
X1370170Y1894500D01*
X1370740Y1891580D01*
X1371090Y1888570D01*
X1371210Y1885560D01*
X1371110Y1882550D01*
X1370780Y1879560D01*
X1370170Y1876370D01*
X1369450Y1873660D01*
X1368450Y1870780D01*
X1367240Y1867990D01*
X1365820Y1865300D01*
X1364190Y1862740D01*
X1362350Y1860330D01*
X1360130Y1857920D01*
X1358070Y1856060D01*
X1355660Y1854230D01*
X1353090Y1852600D01*
X1350380Y1851160D01*
X1347560Y1849930D01*
X1344640Y1848890D01*
X1341660Y1848040D01*
X1338620Y1847390D01*
X1335550Y1846930D01*
X1332480Y1846670D01*
X1329040Y1846600D01*
X1326390Y1846700D01*
X1323400Y1846990D01*
X1320440Y1847430D01*
X1317510Y1848020D01*
X1314610Y1848740D01*
X1311720Y1849570D01*
X1308860Y1850490D01*
X1306010Y1851490D01*
X1303180Y1852560D01*
X1300350Y1853670D01*
X1297530Y1854820D01*
X1294720Y1855980D01*
Y1851510D01*
X1284210D01*
G37*
G36*
G01X1220810Y1681560D02*
Y1674150D01*
X1180220D01*
Y1681560D01*
X1184730D01*
G03X1188620Y1685450I-2J3892D01*
G01Y1775820D01*
G03X1184730Y1779720I-3895J5D01*
G01X1161660D01*
G03X1158910Y1778580I4J-3896D01*
G01X1148550Y1768260D01*
X1152350Y1792500D01*
X1248680D01*
X1252480Y1768260D01*
X1242120Y1778580D01*
G03X1239370Y1779720I-2754J-2756D01*
G01X1216300D01*
G03X1212410Y1775820I5J-3895D01*
G01Y1685450D01*
G03X1216300Y1681560I3893J3D01*
G01X1220810D01*
G37*
G36*
G01X1959680D02*
Y1674150D01*
X1919080D01*
Y1681560D01*
X1923590D01*
G03X1927490Y1685450I6J3894D01*
G01Y1775820D01*
G03X1923590Y1779720I-3897J3D01*
G01X1900530D01*
G03X1897780Y1778580I3J-3894D01*
G01X1887410Y1768260D01*
X1891210Y1792500D01*
X1987550D01*
X1991350Y1768260D01*
X1980980Y1778580D01*
G03X1978230Y1779720I-2753J-2755D01*
G01X1955170D01*
G03X1951270Y1775820I-4J-3896D01*
G01Y1685450D01*
G03X1955170Y1681560I3894J4D01*
G01X1959680D01*
G37*
G36*
G01X1054610Y1954680D02*
X1085380Y1911150D01*
G02X1085400Y1906610I-3234J-2284D01*
G01X1054870Y1862610D01*
G02X1051610Y1860900I-3260J2252D01*
G01X1043880D01*
Y1850230D01*
X1080110D01*
Y1860900D01*
X1073290D01*
X1096260Y1895770D01*
X1120900Y1860900D01*
X1113620D01*
Y1850230D01*
X1154710D01*
Y1860900D01*
X1153510D01*
G02X1150270Y1862600I12J3961D01*
G01X1119450Y1906720D01*
G02X1119360Y1911120I3245J2267D01*
G01X1147090Y1954530D01*
G02X1150430Y1956360I3339J-2131D01*
G01X1159400D01*
Y1969260D01*
X1116720D01*
Y1959980D01*
Y1956360D01*
X1128180D01*
X1107560Y1925050D01*
X1086930Y1956360D01*
X1099540D01*
Y1969260D01*
X1043620D01*
Y1956360D01*
X1051380D01*
G02X1054610Y1954680I-8J-3960D01*
G37*
G36*
G01X1231340Y1850230D02*
Y1860900D01*
X1234740D01*
G03X1238470Y1866200I-2J3964D01*
G01X1210510Y1944400D01*
X1191610Y1895670D01*
X1227310D01*
X1231390Y1884270D01*
X1187150Y1884160D01*
X1180220Y1866300D01*
G03X1183910Y1860900I3693J-1437D01*
G01X1184600D01*
Y1850230D01*
X1157240D01*
Y1860900D01*
X1157780D01*
G03X1161470Y1863440I-7J3961D01*
G01X1202350Y1969260D01*
X1229190D01*
X1267970Y1863500D01*
G03X1271680Y1860900I3720J1361D01*
G01X1276000D01*
Y1850230D01*
X1231340D01*
G37*
G36*
G01X1268960Y1685310D02*
Y1781640D01*
G03X1265000Y1785600I-3960J0D01*
G01X1257690D01*
Y1792290D01*
X1331470D01*
X1333880Y1791940D01*
X1336280Y1791540D01*
X1337470Y1791310D01*
X1338650Y1791040D01*
X1340130Y1790640D01*
X1340980Y1790380D01*
X1342130Y1789980D01*
X1343270Y1789540D01*
X1344390Y1789050D01*
X1345490Y1788510D01*
X1346560Y1787930D01*
X1347620Y1787300D01*
X1348650Y1786630D01*
X1349650Y1785920D01*
X1350620Y1785170D01*
X1351560Y1784370D01*
X1352470Y1783530D01*
X1352980Y1783030D01*
X1354180Y1781730D01*
X1354970Y1780780D01*
X1355720Y1779790D01*
X1356420Y1778770D01*
X1357080Y1777720D01*
X1357680Y1776640D01*
X1358230Y1775540D01*
X1358710Y1774420D01*
X1359140Y1773280D01*
X1359510Y1772130D01*
X1359850Y1770790D01*
X1360040Y1769780D01*
X1360210Y1768600D01*
X1360330Y1767400D01*
X1360410Y1766200D01*
X1360460Y1764990D01*
X1360550Y1760090D01*
X1360590Y1759000D01*
X1360670Y1757620D01*
X1360830Y1755150D01*
X1360880Y1753920D01*
X1360910Y1752700D01*
X1360890Y1751480D01*
X1360810Y1750280D01*
X1360660Y1749090D01*
X1360540Y1748510D01*
X1360410Y1747920D01*
X1360290Y1747510D01*
X1360060Y1746770D01*
X1359840Y1746210D01*
X1359600Y1745650D01*
X1359340Y1745090D01*
X1359050Y1744550D01*
X1358420Y1743480D01*
X1357710Y1742450D01*
X1356940Y1741460D01*
X1356100Y1740520D01*
X1355230Y1739630D01*
X1354310Y1738800D01*
X1353370Y1738030D01*
X1352680Y1737510D01*
X1351440Y1736680D01*
X1350450Y1736090D01*
X1349460Y1735550D01*
X1348450Y1735040D01*
X1347430Y1734560D01*
X1345340Y1733630D01*
X1344270Y1733160D01*
X1343190Y1732670D01*
X1342100Y1732150D01*
X1340980Y1731590D01*
X1339850Y1730990D01*
X1338700Y1730320D01*
X1337540Y1729590D01*
X1336250Y1728700D01*
X1335760Y1728340D01*
X1335480Y1728110D01*
X1335230Y1727880D01*
X1335000Y1727660D01*
X1334820Y1727430D01*
X1334690Y1727210D01*
X1334610Y1726910D01*
X1334620Y1726770D01*
X1334680Y1726570D01*
X1334810Y1726360D01*
X1334990Y1726160D01*
X1335210Y1725970D01*
X1335470Y1725780D01*
X1336080Y1725410D01*
X1337150Y1724820D01*
X1338050Y1724310D01*
X1338650Y1723940D01*
X1339220Y1723580D01*
X1339760Y1723210D01*
X1340270Y1722840D01*
X1340760Y1722460D01*
X1341680Y1721700D01*
X1342530Y1720930D01*
X1343320Y1720130D01*
X1344080Y1719310D01*
X1344950Y1718320D01*
X1345570Y1717590D01*
X1346310Y1716690D01*
X1347060Y1715770D01*
X1347800Y1714810D01*
X1348530Y1713840D01*
X1349960Y1711830D01*
X1350650Y1710800D01*
X1351320Y1709750D01*
X1351970Y1708700D01*
X1352320Y1708110D01*
X1353780Y1705480D01*
X1354910Y1703310D01*
X1356030Y1701170D01*
X1357190Y1699050D01*
X1357810Y1698020D01*
X1358450Y1697000D01*
X1358860Y1696390D01*
X1359830Y1695030D01*
X1360570Y1694080D01*
X1361340Y1693140D01*
X1362140Y1692230D01*
X1362960Y1691330D01*
X1364660Y1689570D01*
X1366800Y1687490D01*
X1368180Y1686200D01*
X1369980Y1684570D01*
X1372470Y1682350D01*
G03X1375110Y1681350I2631J2961D01*
G01X1380070D01*
Y1673940D01*
X1352570D01*
G02X1349630Y1675250I3J3960D01*
G01X1344130Y1681350D01*
X1343220Y1682360D01*
X1342320Y1683370D01*
X1341420Y1684390D01*
X1340530Y1685410D01*
X1339650Y1686450D01*
X1338790Y1687490D01*
X1337950Y1688560D01*
X1337130Y1689640D01*
X1336430Y1690590D01*
X1335570Y1691850D01*
X1334830Y1692990D01*
X1334130Y1694160D01*
X1333450Y1695340D01*
X1332810Y1696530D01*
X1332210Y1697750D01*
X1331640Y1698990D01*
X1331130Y1700170D01*
X1330600Y1701510D01*
X1330120Y1702780D01*
X1329660Y1704060D01*
X1329190Y1705340D01*
X1328710Y1706610D01*
X1328210Y1707860D01*
X1327670Y1709100D01*
X1327360Y1709750D01*
X1326450Y1711490D01*
X1325770Y1712660D01*
X1325060Y1713810D01*
X1324340Y1714960D01*
X1323600Y1716120D01*
X1323090Y1716930D01*
X1322130Y1718460D01*
X1321380Y1719620D01*
X1320590Y1720740D01*
X1319750Y1721810D01*
X1318840Y1722780D01*
X1318080Y1723450D01*
X1316720Y1724390D01*
X1315530Y1725050D01*
X1314300Y1725640D01*
X1313030Y1726210D01*
X1292620D01*
Y1737360D01*
X1316120D01*
X1317490Y1737470D01*
X1318860Y1737600D01*
X1319880Y1737700D01*
X1321600Y1737930D01*
X1322950Y1738180D01*
X1324290Y1738510D01*
X1325010Y1738730D01*
X1326900Y1739500D01*
X1328160Y1740160D01*
X1329370Y1740920D01*
X1330520Y1741770D01*
X1331600Y1742710D01*
X1332610Y1743730D01*
X1333530Y1744810D01*
X1334350Y1745960D01*
X1335060Y1747160D01*
X1335600Y1748290D01*
X1336120Y1749690D01*
X1336470Y1751010D01*
X1336730Y1752350D01*
X1336900Y1753720D01*
X1336990Y1755110D01*
X1337030Y1756510D01*
X1337020Y1757920D01*
X1336970Y1759560D01*
X1336910Y1760760D01*
X1336820Y1762170D01*
X1336690Y1763570D01*
X1336520Y1764950D01*
X1336290Y1766320D01*
X1335990Y1767670D01*
X1335610Y1768990D01*
X1335150Y1770270D01*
X1334590Y1771530D01*
X1334230Y1772200D01*
X1333130Y1773900D01*
X1332250Y1775000D01*
X1331280Y1776020D01*
X1330220Y1776950D01*
X1329090Y1777780D01*
X1327890Y1778480D01*
X1327070Y1778870D01*
X1325340Y1779480D01*
X1324010Y1779800D01*
X1322650Y1780050D01*
X1321270Y1780230D01*
X1319880Y1780400D01*
X1292200D01*
Y1685310D01*
G03X1296160Y1681350I3960J0D01*
G01X1305190D01*
Y1673940D01*
X1257690D01*
Y1681350D01*
X1265000D01*
G03X1268960Y1685310I1J3959D01*
G37*
G36*
G01X1409150Y1674180D02*
X1463470D01*
G03X1483680Y1696180I-2071J22185D01*
G01Y1781640D01*
G02X1487640Y1785600I3960J0D01*
G01X1493510D01*
Y1792870D01*
X1455020D01*
Y1785600D01*
X1463230D01*
G02X1467190Y1781640I-2J-3962D01*
G01Y1702460D01*
G02X1448310Y1687860I-17976J3738D01*
G01X1426610D01*
G02X1409470Y1702460I475J17918D01*
G01Y1781640D01*
G02X1413430Y1785600I3962J-2D01*
G01X1422040D01*
Y1792870D01*
X1369820D01*
Y1785600D01*
X1379990D01*
G02X1383950Y1781640I0J-3960D01*
G01Y1705380D01*
G03X1409150Y1674180I32235J259D01*
G37*
G36*
G01X1499460Y1674000D02*
X1536900D01*
Y1683210D01*
X1528770D01*
G02X1524800Y1687170I-8J3962D01*
G01Y1762780D01*
X1568640Y1674000D01*
X1610650Y1761410D01*
Y1687170D01*
G02X1606690Y1683210I-3962J2D01*
G01X1602120D01*
Y1674150D01*
X1647410D01*
Y1683210D01*
X1645660D01*
G02X1641700Y1687170I0J3960D01*
G01Y1782140D01*
G02X1645660Y1786100I3960J0D01*
G01X1649690D01*
Y1792870D01*
X1610740D01*
G03X1607100Y1790490I-8J-3962D01*
G01X1576630Y1720110D01*
X1544130Y1790570D01*
G03X1540530Y1792870I-3595J-1660D01*
G01X1499460D01*
Y1785600D01*
X1508740D01*
G02X1512700Y1781640I0J-3960D01*
G01Y1687170D01*
G02X1508740Y1683210I-3960J0D01*
G01X1499460D01*
Y1674000D01*
G37*
G36*
G01X1738990Y1749210D02*
X1741860D01*
Y1719600D01*
X1738990D01*
X1735010Y1724690D01*
G03X1731890Y1726210I-3121J-2443D01*
G01X1691420D01*
Y1687890D01*
X1742440D01*
G03X1745300Y1689110I0J3963D01*
G01X1757650Y1702030D01*
X1761070D01*
X1752300Y1676670D01*
G02X1748560Y1674000I-3744J1290D01*
G01X1657890D01*
Y1678250D01*
X1669070Y1684110D01*
G03X1671190Y1687610I-1840J3506D01*
G01Y1776000D01*
G03X1669240Y1779410I-3960J-2D01*
G01X1657890Y1786100D01*
Y1792870D01*
X1743810D01*
G02X1747470Y1790430I2J-3962D01*
G01X1758220Y1764430D01*
X1752330Y1762000D01*
X1741820Y1773460D01*
G03X1738900Y1774750I-2925J-2671D01*
G01X1691420D01*
Y1744260D01*
X1732230D01*
G03X1734970Y1745360I1J3959D01*
G01X1738990Y1749210D01*
G37*
G36*
G01X1762740Y1683210D02*
X1770250D01*
G03X1774210Y1687170I-2J3962D01*
G01Y1780150D01*
G03X1770250Y1784110I-3960J0D01*
G01X1762180D01*
Y1792890D01*
X1798680D01*
G02X1801680Y1791520I5J-3960D01*
G01X1858430Y1725780D01*
Y1779360D01*
G03X1854470Y1783320I-3958J2D01*
G01X1844800D01*
Y1792890D01*
X1884690D01*
Y1783320D01*
X1876280D01*
G03X1872320Y1779360I0J-3960D01*
G01Y1674150D01*
X1866160D01*
G02X1863160Y1675520I-5J3959D01*
G01X1794530Y1755020D01*
Y1687170D01*
G03X1798490Y1683210I3961J1D01*
G01X1804410D01*
Y1674150D01*
X1762740D01*
Y1683210D01*
G37*
G36*
G01X2006530Y1675960D02*
X1996570Y1712640D01*
X2001170Y1713770D01*
X2003100Y1711140D01*
X2005050Y1708540D01*
X2007030Y1706010D01*
X2009080Y1703580D01*
X2011200Y1701280D01*
X2013410Y1699150D01*
X2015740Y1697210D01*
X2018210Y1695510D01*
X2020930Y1694030D01*
X2023610Y1692920D01*
X2026530Y1692000D01*
X2029560Y1691240D01*
X2033230Y1690470D01*
X2035810Y1689960D01*
X2038970Y1689390D01*
X2042140Y1688920D01*
X2045300Y1688600D01*
X2048440Y1688480D01*
X2051540Y1688610D01*
X2054590Y1689040D01*
X2057590Y1689820D01*
X2060760Y1691110D01*
X2063300Y1692590D01*
X2065850Y1694600D01*
X2067960Y1696990D01*
X2069830Y1700820D01*
X2070160Y1702670D01*
X2070070Y1705820D01*
X2069280Y1708970D01*
X2067890Y1711960D01*
X2065300Y1715390D01*
X2063720Y1716810D01*
X2061120Y1718520D01*
X2058300Y1719830D01*
X2055310Y1720830D01*
X2051050Y1721860D01*
X2049170Y1722240D01*
X2046110Y1722780D01*
X2043070Y1723260D01*
X2040030Y1723710D01*
X2037000Y1724140D01*
X2033980Y1724580D01*
X2030940Y1725060D01*
X2027900Y1725610D01*
X2024840Y1726250D01*
X2022870Y1726720D01*
X2018680Y1727900D01*
X2015660Y1728970D01*
X2012760Y1730240D01*
X2010020Y1731740D01*
X2007520Y1733500D01*
X2005380Y1735460D01*
X2003430Y1737870D01*
X2001880Y1740480D01*
X2000630Y1743310D01*
X1999670Y1746320D01*
X1998970Y1749460D01*
X1998520Y1752700D01*
X1998260Y1757470D01*
X1998270Y1759270D01*
X1998450Y1762540D01*
X1998840Y1765740D01*
X1999470Y1768860D01*
X2000350Y1771870D01*
X2001480Y1774740D01*
X2002890Y1777440D01*
X2004730Y1780130D01*
X2006590Y1782240D01*
X2008850Y1784310D01*
X2011350Y1786170D01*
X2014030Y1787830D01*
X2016850Y1789300D01*
X2019780Y1790570D01*
X2024170Y1792100D01*
X2025790Y1792580D01*
X2028820Y1793320D01*
X2031860Y1793900D01*
X2034920Y1794320D01*
X2037990Y1794580D01*
X2041010Y1794690D01*
X2044200Y1794650D01*
X2047320Y1794450D01*
X2050420Y1794050D01*
X2053470Y1793450D01*
X2056460Y1792630D01*
X2058820Y1791780D01*
X2062140Y1790260D01*
X2064870Y1788790D01*
X2067560Y1787250D01*
Y1794810D01*
X2076260D01*
X2084020Y1761280D01*
X2081160Y1758440D01*
X2078800Y1760300D01*
X2076420Y1762140D01*
X2074000Y1763930D01*
X2071540Y1765640D01*
X2069020Y1767240D01*
X2066270Y1768800D01*
X2063720Y1770050D01*
X2060940Y1771220D01*
X2058090Y1772240D01*
X2055200Y1773100D01*
X2052270Y1773810D01*
X2049310Y1774360D01*
X2047480Y1774620D01*
X2043390Y1774990D01*
X2040410Y1775050D01*
X2037390Y1774910D01*
X2034850Y1774620D01*
X2031270Y1773920D01*
X2028360Y1772910D01*
X2025800Y1771350D01*
X2024490Y1770090D01*
X2022380Y1766300D01*
X2021720Y1763140D01*
X2021810Y1759980D01*
X2022550Y1757470D01*
X2024420Y1754800D01*
X2026770Y1752970D01*
X2029570Y1751550D01*
X2032640Y1750460D01*
X2035500Y1749700D01*
X2038870Y1748990D01*
X2041880Y1748470D01*
X2044830Y1748050D01*
X2047750Y1747660D01*
X2050640Y1747260D01*
X2053640Y1746790D01*
X2056420Y1746260D01*
X2059320Y1745620D01*
X2062230Y1744890D01*
X2065140Y1744070D01*
X2067890Y1743230D01*
X2070970Y1742200D01*
X2073830Y1741110D01*
X2076610Y1739870D01*
X2079260Y1738450D01*
X2081740Y1736810D01*
X2083750Y1735140D01*
X2086020Y1732720D01*
X2087800Y1730290D01*
X2089330Y1727660D01*
X2090620Y1724880D01*
X2091670Y1721990D01*
X2092500Y1718950D01*
X2093060Y1716030D01*
X2093420Y1713020D01*
X2093540Y1710010D01*
X2093430Y1707000D01*
X2093100Y1704010D01*
X2092500Y1700820D01*
X2091770Y1698110D01*
X2090780Y1695230D01*
X2089570Y1692440D01*
X2088140Y1689750D01*
X2086510Y1687190D01*
X2084670Y1684780D01*
X2082460Y1682370D01*
X2080400Y1680510D01*
X2077990Y1678680D01*
X2075410Y1677050D01*
X2072710Y1675610D01*
X2069880Y1674380D01*
X2066970Y1673340D01*
X2063980Y1672490D01*
X2060950Y1671840D01*
X2057880Y1671380D01*
X2054810Y1671120D01*
X2051370Y1671050D01*
X2048720Y1671150D01*
X2045730Y1671440D01*
X2042770Y1671890D01*
X2039840Y1672470D01*
X2036930Y1673190D01*
X2034050Y1674020D01*
X2031180Y1674940D01*
X2028340Y1675940D01*
X2025500Y1677010D01*
X2022680Y1678120D01*
X2019860Y1679270D01*
X2017040Y1680430D01*
Y1675960D01*
X2006530D01*
G37*
G36*
G01X1062160Y1675290D02*
X1052200Y1711970D01*
X1056800Y1713100D01*
X1058730Y1710470D01*
X1060680Y1707870D01*
X1062670Y1705340D01*
X1064710Y1702910D01*
X1066830Y1700610D01*
X1069050Y1698470D01*
X1071380Y1696540D01*
X1073840Y1694840D01*
X1076560Y1693350D01*
X1079240Y1692250D01*
X1082170Y1691330D01*
X1085200Y1690570D01*
X1088870Y1689790D01*
X1091440Y1689280D01*
X1094600Y1688710D01*
X1097770Y1688240D01*
X1100930Y1687920D01*
X1104070Y1687810D01*
X1107170Y1687940D01*
X1110230Y1688360D01*
X1113220Y1689140D01*
X1116390Y1690440D01*
X1118930Y1691920D01*
X1121480Y1693930D01*
X1123590Y1696310D01*
X1125460Y1700150D01*
X1125790Y1702000D01*
X1125700Y1705150D01*
X1124910Y1708290D01*
X1123520Y1711280D01*
X1120930Y1714720D01*
X1119350Y1716130D01*
X1116760Y1717840D01*
X1113930Y1719150D01*
X1110950Y1720150D01*
X1106680Y1721190D01*
X1104800Y1721560D01*
X1101740Y1722110D01*
X1098700Y1722590D01*
X1095670Y1723030D01*
X1092640Y1723460D01*
X1089610Y1723910D01*
X1086570Y1724390D01*
X1083530Y1724940D01*
X1080470Y1725580D01*
X1078500Y1726040D01*
X1074320Y1727230D01*
X1071300Y1728300D01*
X1068390Y1729570D01*
X1065660Y1731070D01*
X1063160Y1732820D01*
X1061020Y1734780D01*
X1059070Y1737200D01*
X1057510Y1739800D01*
X1056270Y1742630D01*
X1055310Y1745640D01*
X1054610Y1748790D01*
X1054150Y1752020D01*
X1053890Y1756790D01*
X1053900Y1758600D01*
X1054080Y1761860D01*
X1054480Y1765070D01*
X1055110Y1768190D01*
X1055980Y1771190D01*
X1057120Y1774060D01*
X1058530Y1776760D01*
X1060370Y1779450D01*
X1062220Y1781560D01*
X1064490Y1783630D01*
X1066980Y1785500D01*
X1069660Y1787160D01*
X1072480Y1788620D01*
X1075410Y1789890D01*
X1079800Y1791430D01*
X1081430Y1791900D01*
X1084460Y1792650D01*
X1087500Y1793230D01*
X1090550Y1793650D01*
X1093620Y1793910D01*
X1096640Y1794020D01*
X1099840Y1793980D01*
X1102960Y1793770D01*
X1106050Y1793380D01*
X1109100Y1792780D01*
X1112090Y1791950D01*
X1114450Y1791110D01*
X1117780Y1789580D01*
X1120500Y1788120D01*
X1123200Y1786570D01*
Y1794140D01*
X1131900D01*
X1139650Y1760600D01*
X1136800Y1757770D01*
X1134430Y1759630D01*
X1132050Y1761470D01*
X1129640Y1763250D01*
X1127170Y1764960D01*
X1124650Y1766570D01*
X1121900Y1768120D01*
X1119350Y1769370D01*
X1116570Y1770550D01*
X1113730Y1771560D01*
X1110830Y1772430D01*
X1107900Y1773130D01*
X1104940Y1773690D01*
X1103120Y1773950D01*
X1099020Y1774320D01*
X1096040Y1774370D01*
X1093030Y1774230D01*
X1090490Y1773950D01*
X1086900Y1773250D01*
X1084000Y1772230D01*
X1081430Y1770680D01*
X1080120Y1769420D01*
X1078020Y1765620D01*
X1077350Y1762470D01*
X1077440Y1759300D01*
X1078180Y1756790D01*
X1080050Y1754120D01*
X1082400Y1752290D01*
X1085200Y1750870D01*
X1088270Y1749790D01*
X1091130Y1749030D01*
X1094500Y1748310D01*
X1097510Y1747800D01*
X1100460Y1747370D01*
X1103380Y1746980D01*
X1106270Y1746580D01*
X1109270Y1746110D01*
X1112050Y1745590D01*
X1114950Y1744940D01*
X1117860Y1744210D01*
X1120780Y1743390D01*
X1123520Y1742550D01*
X1126600Y1741520D01*
X1129470Y1740430D01*
X1132240Y1739200D01*
X1134890Y1737780D01*
X1137370Y1736130D01*
X1139390Y1734460D01*
X1141660Y1732040D01*
X1143430Y1729620D01*
X1144960Y1726990D01*
X1146250Y1724210D01*
X1147300Y1721310D01*
X1148130Y1718280D01*
X1148700Y1715350D01*
X1149050Y1712340D01*
X1149170Y1709330D01*
X1149070Y1706320D01*
X1148740Y1703330D01*
X1148130Y1700150D01*
X1147400Y1697430D01*
X1146410Y1694560D01*
X1145200Y1691760D01*
X1143780Y1689070D01*
X1142140Y1686510D01*
X1140310Y1684100D01*
X1138090Y1681700D01*
X1136030Y1679840D01*
X1133620Y1678010D01*
X1131050Y1676370D01*
X1128340Y1674940D01*
X1125520Y1673700D01*
X1122600Y1672660D01*
X1119620Y1671820D01*
X1116580Y1671170D01*
X1113510Y1670710D01*
X1110440Y1670440D01*
X1107000Y1670370D01*
X1104350Y1670480D01*
X1101360Y1670760D01*
X1098400Y1671210D01*
X1095470Y1671800D01*
X1092560Y1672520D01*
X1089680Y1673340D01*
X1086820Y1674270D01*
X1083970Y1675270D01*
X1081130Y1676340D01*
X1078310Y1677450D01*
X1075490Y1678600D01*
X1072670Y1679760D01*
Y1675290D01*
X1062160D01*
G37*
G36*
G01X1284210Y1851510D02*
X1274240Y1888190D01*
X1278850Y1889320D01*
X1280780Y1886690D01*
X1282720Y1884090D01*
X1284710Y1881560D01*
X1286750Y1879130D01*
X1288870Y1876830D01*
X1291090Y1874700D01*
X1293420Y1872760D01*
X1295880Y1871060D01*
X1298600Y1869580D01*
X1301290Y1868470D01*
X1304210Y1867550D01*
X1307240Y1866790D01*
X1310910Y1866020D01*
X1313480Y1865510D01*
X1316640Y1864940D01*
X1319810Y1864470D01*
X1322970Y1864150D01*
X1326110Y1864030D01*
X1329220Y1864160D01*
X1332270Y1864590D01*
X1335260Y1865360D01*
X1338440Y1866660D01*
X1340980Y1868140D01*
X1343520Y1870150D01*
X1345630Y1872530D01*
X1347500Y1876370D01*
X1347840Y1878220D01*
X1347750Y1881370D01*
X1346950Y1884520D01*
X1345560Y1887510D01*
X1342970Y1890940D01*
X1341390Y1892360D01*
X1338800Y1894070D01*
X1335970Y1895380D01*
X1332990Y1896380D01*
X1328720Y1897410D01*
X1326850Y1897790D01*
X1323790Y1898330D01*
X1320740Y1898810D01*
X1317710Y1899260D01*
X1314680Y1899690D01*
X1311650Y1900130D01*
X1308620Y1900610D01*
X1305570Y1901160D01*
X1302510Y1901800D01*
X1300550Y1902270D01*
X1296360Y1903450D01*
X1293340Y1904520D01*
X1290430Y1905790D01*
X1287700Y1907290D01*
X1285200Y1909040D01*
X1283060Y1911010D01*
X1281110Y1913420D01*
X1279560Y1916030D01*
X1278310Y1918860D01*
X1277350Y1921870D01*
X1276650Y1925010D01*
X1276200Y1928250D01*
X1275930Y1933020D01*
X1275940Y1934820D01*
X1276120Y1938090D01*
X1276520Y1941290D01*
X1277150Y1944410D01*
X1278020Y1947420D01*
X1279160Y1950290D01*
X1280570Y1952990D01*
X1282410Y1955680D01*
X1284270Y1957790D01*
X1286530Y1959860D01*
X1289020Y1961720D01*
X1291700Y1963380D01*
X1294520Y1964840D01*
X1297450Y1966120D01*
X1301840Y1967650D01*
X1303470Y1968130D01*
X1306500Y1968870D01*
X1309540Y1969450D01*
X1312590Y1969870D01*
X1315670Y1970130D01*
X1318680Y1970240D01*
X1321880Y1970200D01*
X1325000Y1970000D01*
X1328090Y1969600D01*
X1331150Y1969000D01*
X1334130Y1968180D01*
X1336490Y1967330D01*
X1339820Y1965810D01*
X1342550Y1964340D01*
X1345240Y1962800D01*
Y1970360D01*
X1353940D01*
X1361700Y1936830D01*
X1358840Y1933990D01*
X1356470Y1935850D01*
X1354090Y1937690D01*
X1351680Y1939480D01*
X1349220Y1941190D01*
X1346690Y1942790D01*
X1343940Y1944350D01*
X1341390Y1945600D01*
X1338610Y1946770D01*
X1335770Y1947790D01*
X1332870Y1948650D01*
X1329940Y1949360D01*
X1326990Y1949910D01*
X1325160Y1950170D01*
X1321060Y1950540D01*
X1318080Y1950600D01*
X1315070Y1950460D01*
X1312530Y1950170D01*
X1308950Y1949470D01*
X1306040Y1948460D01*
X1303470Y1946900D01*
X1302160Y1945640D01*
X1300060Y1941850D01*
X1299390Y1938690D01*
X1299480Y1935530D01*
X1300220Y1933020D01*
X1302090Y1930350D01*
X1304440Y1928520D01*
X1307240Y1927100D01*
X1310310Y1926010D01*
X1313180Y1925250D01*
X1316540Y1924540D01*
X1319550Y1924020D01*
X1322510Y1923600D01*
X1325420Y1923210D01*
X1328310Y1922810D01*
X1331310Y1922340D01*
X1334090Y1921810D01*
X1336990Y1921170D01*
X1339900Y1920440D01*
X1342820Y1919620D01*
X1345560Y1918780D01*
X1348640Y1917750D01*
X1351510Y1916660D01*
X1354290Y1915420D01*
X1356930Y1914000D01*
X1359410Y1912360D01*
X1361430Y1910680D01*
X1363700Y1908270D01*
X1365470Y1905840D01*
X1367000Y1903210D01*
X1368290Y1900430D01*
X1369340Y1897530D01*
X1370170Y1894500D01*
X1370740Y1891580D01*
X1371090Y1888570D01*
X1371210Y1885560D01*
X1371110Y1882550D01*
X1370780Y1879560D01*
X1370170Y1876370D01*
X1369450Y1873660D01*
X1368450Y1870780D01*
X1367240Y1867990D01*
X1365820Y1865300D01*
X1364190Y1862740D01*
X1362350Y1860330D01*
X1360130Y1857920D01*
X1358070Y1856060D01*
X1355660Y1854230D01*
X1353090Y1852600D01*
X1350380Y1851160D01*
X1347560Y1849930D01*
X1344640Y1848890D01*
X1341660Y1848040D01*
X1338620Y1847390D01*
X1335550Y1846930D01*
X1332480Y1846670D01*
X1329040Y1846600D01*
X1326390Y1846700D01*
X1323400Y1846990D01*
X1320440Y1847430D01*
X1317510Y1848020D01*
X1314610Y1848740D01*
X1311720Y1849570D01*
X1308860Y1850490D01*
X1306010Y1851490D01*
X1303180Y1852560D01*
X1300350Y1853670D01*
X1297530Y1854820D01*
X1294720Y1855980D01*
Y1851510D01*
X1284210D01*
G37*
G54D10*
G01X82000Y848000D02*
Y608000D01*
X402000D01*
X527000Y733000D01*
Y848000D01*
G01X1031790Y854210D02*
X901790D01*
Y1004210D01*
X886790D01*
X791790Y909210D01*
Y434210D01*
G01X435000Y2552000D02*
X545000D01*
Y2532000D01*
G01X527000Y1513000D02*
Y1628000D01*
X402000Y1753000D01*
X82000D01*
Y1513000D01*
G01X435000Y2972000D02*
X445000D01*
Y2737000D01*
X435000D01*
G01X445000Y3257000D02*
Y3157000D01*
X435000D01*
G01X3163790Y63630D02*
X2963790D01*
Y183630D01*
X2483790D01*
Y63630D01*
X2288790D01*
G01X2348790Y853630D02*
X2218790D01*
Y1003630D01*
X2203790D01*
X2108790Y908630D01*
Y433630D01*
G01X1846790Y64210D02*
X1646790D01*
Y184210D01*
X1166790D01*
Y64210D01*
X971790D01*
G01X2021790Y434210D02*
Y1004210D01*
X1911790D01*
Y854210D01*
X1786790D01*
G01X1155000Y2517000D02*
X1190000Y2552000D01*
X1265000D01*
G01X2162000Y2745000D02*
X3467000D01*
Y2370000D01*
X2267000D01*
X2162000Y2475000D01*
Y2745000D01*
G01X1265000Y2972000D02*
X1255000D01*
Y2737000D01*
X1265000D01*
G01X1255000Y3257000D02*
Y3157000D01*
X1265000D01*
G01X3338790Y433630D02*
Y1003630D01*
X3228790D01*
Y853630D01*
X3103790D01*
G01X3936080Y2222790D02*
Y2022790D01*
X3816080D01*
Y1542790D01*
X3936080D01*
Y1347790D01*
G01X3146080Y1407790D02*
Y1277790D01*
X2996080D01*
Y1262790D01*
X3091080Y1167790D01*
X3566080D01*
G01Y2397790D02*
X2996080D01*
Y2287790D01*
X3146080D01*
Y2162790D01*
G01X0Y3270000D02*
Y0D01*
X4000000D01*
Y2900000D01*
X1700000D01*
Y3270000D01*
X0D01*
G54D11*
G01X492260Y652130D02*
X505790D01*
Y633080D01*
X501740Y626730D01*
X497000Y622500D01*
X490230Y620380D01*
X483470Y622500D01*
X478730Y626730D01*
X474670Y633080D01*
X471970Y640490D01*
X470620Y648950D01*
Y656360D01*
X471970Y662710D01*
X474670Y670120D01*
X478730Y676470D01*
X482790Y680700D01*
X488200Y683880D01*
X492940D01*
X498350Y681760D01*
X502410Y677530D01*
G01X530450Y620380D02*
Y683880D01*
X547370D01*
X552780Y680700D01*
X556160Y676470D01*
X557520Y668000D01*
X556160Y659540D01*
X552100Y654250D01*
X547370Y651070D01*
X530450D01*
G01X547370D02*
X557520Y620380D01*
G01X599760D02*
X594350Y621440D01*
X589620Y625670D01*
X585560Y632020D01*
X582850Y639430D01*
X581500Y647900D01*
Y656360D01*
X582850Y664830D01*
X585560Y672240D01*
X589620Y678590D01*
X594350Y682820D01*
X599760Y683880D01*
X605180Y682820D01*
X609910Y678590D01*
X613970Y672240D01*
X616680Y664830D01*
X618030Y656360D01*
Y647900D01*
X616680Y639430D01*
X613970Y632020D01*
X609910Y625670D01*
X605180Y621440D01*
X599760Y620380D01*
G01X638630Y683880D02*
X655540Y620380D01*
X672460Y683880D01*
G01X724860Y620380D02*
X697790D01*
Y683880D01*
X724860D01*
G01X714030Y653190D02*
X697790D01*
G01X767100Y620380D02*
Y683880D01*
X758990Y671180D01*
G01Y620380D02*
X775220D01*
G01X471290Y526380D02*
X488200Y589880D01*
X505120Y526380D01*
G01X499030Y548600D02*
X477380D01*
G01X531810Y524260D02*
X556160Y589880D01*
G01X584880Y526380D02*
Y589880D01*
X598410D01*
X603820Y586700D01*
X607880Y582470D01*
X611270Y576120D01*
X613970Y568710D01*
X614650Y558130D01*
X613970Y547550D01*
X611270Y540140D01*
X607880Y533790D01*
X603820Y529550D01*
X598410Y526380D01*
X584880D01*
G01X754710Y1439000D02*
Y1502500D01*
X772290Y1449580D01*
X789880Y1502500D01*
Y1439000D01*
G01X828070D02*
X822660Y1440060D01*
X817930Y1444290D01*
X813870Y1450640D01*
X811160Y1458050D01*
X809810Y1466520D01*
Y1474980D01*
X811160Y1483450D01*
X813870Y1490860D01*
X817930Y1497210D01*
X822660Y1501440D01*
X828070Y1502500D01*
X833490Y1501440D01*
X838220Y1497210D01*
X842280Y1490860D01*
X844990Y1483450D01*
X846340Y1474980D01*
Y1466520D01*
X844990Y1458050D01*
X842280Y1450640D01*
X838220Y1444290D01*
X833490Y1440060D01*
X828070Y1439000D01*
G01X868970D02*
Y1502500D01*
X882500D01*
X887910Y1499320D01*
X891970Y1495090D01*
X895360Y1488740D01*
X898060Y1481330D01*
X898740Y1470750D01*
X898060Y1460170D01*
X895360Y1452760D01*
X891970Y1446410D01*
X887910Y1442170D01*
X882500Y1439000D01*
X868970D01*
G01X953170D02*
X926100D01*
Y1502500D01*
X953170D01*
G01X942340Y1471810D02*
X926100D01*
G01X981880Y1502500D02*
Y1439000D01*
X1008950D01*
G01X1051190Y1436880D02*
X1049840Y1437940D01*
Y1440060D01*
X1051190Y1441120D01*
X1052550Y1440060D01*
Y1437940D01*
X1051190Y1436880D01*
G01Y1465460D02*
X1049840Y1466520D01*
Y1468630D01*
X1051190Y1469690D01*
X1052550Y1468630D01*
Y1466520D01*
X1051190Y1465460D01*
G01X1147870Y1439000D02*
Y1502500D01*
X1161400D01*
X1166810Y1499320D01*
X1170870Y1495090D01*
X1174260Y1488740D01*
X1176960Y1481330D01*
X1177640Y1470750D01*
X1176960Y1460170D01*
X1174260Y1452760D01*
X1170870Y1446410D01*
X1166810Y1442170D01*
X1161400Y1439000D01*
X1147870D01*
G01X1208390Y1467570D02*
X1230040D01*
X1228010Y1474980D01*
X1224620Y1479220D01*
X1219890Y1481330D01*
X1215150Y1480270D01*
X1211090Y1477100D01*
X1208390Y1469690D01*
X1207030Y1463340D01*
Y1456990D01*
X1208390Y1450640D01*
X1211770Y1444290D01*
X1215830Y1440060D01*
X1220560Y1439000D01*
X1225300Y1441120D01*
X1230040Y1447460D01*
G01X1262140Y1439000D02*
Y1502500D01*
G01Y1470750D02*
X1265520Y1477100D01*
X1269580Y1480270D01*
X1273640Y1481330D01*
X1279730Y1479220D01*
X1283790Y1474980D01*
X1286490Y1467570D01*
Y1459110D01*
X1285140Y1450640D01*
X1282430Y1444290D01*
X1277700Y1440060D01*
X1273640Y1439000D01*
X1269580Y1440060D01*
X1265520Y1443230D01*
X1262140Y1448520D01*
G01X1318590Y1481330D02*
Y1451700D01*
X1321300Y1444290D01*
X1325360Y1440060D01*
X1330090Y1439000D01*
X1334830Y1440060D01*
X1338890Y1444290D01*
X1341600Y1451700D01*
G01Y1439000D02*
Y1481330D01*
G01X1376400Y1423120D02*
X1381140Y1418890D01*
X1386550Y1417830D01*
X1391290Y1418890D01*
X1395350Y1424180D01*
X1398050Y1431590D01*
Y1481330D01*
G01Y1472870D02*
X1395350Y1477100D01*
X1391290Y1480270D01*
X1386550Y1481330D01*
X1381140Y1479220D01*
X1377760Y1474980D01*
X1375050Y1467570D01*
X1373700Y1460170D01*
X1374370Y1453820D01*
X1377080Y1446410D01*
X1381140Y1441120D01*
X1386550Y1439000D01*
X1390610Y1440060D01*
X1395350Y1444290D01*
X1398050Y1448520D01*
G01X1482550Y1439000D02*
Y1502500D01*
X1496080D01*
X1501490Y1499320D01*
X1505550Y1495090D01*
X1508940Y1488740D01*
X1511640Y1481330D01*
X1512320Y1470750D01*
X1511640Y1460170D01*
X1508940Y1452760D01*
X1505550Y1446410D01*
X1501490Y1442170D01*
X1496080Y1439000D01*
X1482550D01*
G01X1543070Y1467570D02*
X1564720D01*
X1562690Y1474980D01*
X1559300Y1479220D01*
X1554570Y1481330D01*
X1549830Y1480270D01*
X1545770Y1477100D01*
X1543070Y1469690D01*
X1541710Y1463340D01*
Y1456990D01*
X1543070Y1450640D01*
X1546450Y1444290D01*
X1550510Y1440060D01*
X1555240Y1439000D01*
X1559980Y1441120D01*
X1564720Y1447460D01*
G01X1596820Y1481330D02*
X1608990Y1439000D01*
X1621170Y1481330D01*
G01X1651240Y1439000D02*
Y1502500D01*
X1667480D01*
X1672890Y1499320D01*
X1676950Y1491920D01*
X1678310Y1483450D01*
X1676950Y1474980D01*
X1673570Y1468630D01*
X1667480Y1465460D01*
X1651240D01*
G01X1732730Y1439000D02*
Y1481330D01*
G01Y1473930D02*
X1730030Y1478160D01*
X1725970Y1480270D01*
X1721230Y1481330D01*
X1716500Y1479220D01*
X1712440Y1474980D01*
X1709730Y1468630D01*
X1708380Y1460170D01*
X1709730Y1451700D01*
X1712440Y1445350D01*
X1716500Y1441120D01*
X1721230Y1439000D01*
X1725970Y1440060D01*
X1730030Y1443230D01*
X1732730Y1447460D01*
G01X1787160Y1476040D02*
X1782420Y1480270D01*
X1778360Y1481330D01*
X1772950Y1479220D01*
X1768890Y1474980D01*
X1766190Y1467570D01*
X1765510Y1460170D01*
X1766190Y1452760D01*
X1768890Y1446410D01*
X1772950Y1441120D01*
X1778360Y1439000D01*
X1783100Y1441120D01*
X1787160Y1445350D01*
G01X1820610Y1439000D02*
Y1502500D01*
G01X1842260Y1481330D02*
X1820610Y1456990D01*
G01X1829410Y1466520D02*
X1843620Y1439000D01*
G01X754760Y1344000D02*
Y1407500D01*
X771680D01*
X777090Y1404320D01*
X780470Y1400090D01*
X781830Y1391620D01*
X780470Y1383160D01*
X776410Y1377870D01*
X771680Y1374690D01*
X754760D01*
G01X771680D02*
X781830Y1344000D01*
G01X837610D02*
X810540D01*
Y1407500D01*
X837610D01*
G01X826780Y1376810D02*
X810540D01*
G01X862940Y1407500D02*
X879850Y1344000D01*
X896770Y1407500D01*
G01X935630Y1341880D02*
X934280Y1342940D01*
Y1345060D01*
X935630Y1346120D01*
X936990Y1345060D01*
Y1342940D01*
X935630Y1341880D01*
G01Y1370460D02*
X934280Y1371520D01*
Y1373630D01*
X935630Y1374690D01*
X936990Y1373630D01*
Y1371520D01*
X935630Y1370460D01*
G01X1047190Y1344000D02*
Y1407500D01*
X1039080Y1394800D01*
G01Y1344000D02*
X1055310D01*
G01X1102970Y1341880D02*
X1101620Y1342940D01*
Y1345060D01*
X1102970Y1346120D01*
X1104330Y1345060D01*
Y1342940D01*
X1102970Y1341880D01*
G01X1143870Y1356700D02*
X1147930Y1349290D01*
X1153340Y1345060D01*
X1159430Y1344000D01*
X1164840Y1345060D01*
X1170260Y1350350D01*
X1173640Y1356700D01*
X1174310Y1363050D01*
X1172960Y1370460D01*
X1168230Y1375750D01*
X1163490Y1377870D01*
X1157400D01*
G01X1163490D02*
X1167550Y1381040D01*
X1170930Y1386330D01*
X1172290Y1392680D01*
X1170930Y1399030D01*
X1167550Y1404320D01*
X1161460Y1407500D01*
X1155370Y1406440D01*
X1149280Y1402210D01*
G01X83760Y1914000D02*
Y1977500D01*
X100680D01*
X106090Y1974320D01*
X109470Y1970090D01*
X110830Y1961620D01*
X109470Y1953160D01*
X105410Y1947870D01*
X100680Y1944690D01*
X83760D01*
G01X100680D02*
X110830Y1914000D01*
G01X142930Y1942570D02*
X164580D01*
X162550Y1949980D01*
X159160Y1954220D01*
X154430Y1956330D01*
X149690Y1955270D01*
X145630Y1952100D01*
X142930Y1944690D01*
X141570Y1938340D01*
Y1931990D01*
X142930Y1925640D01*
X146310Y1919290D01*
X150370Y1915060D01*
X155100Y1914000D01*
X159840Y1916120D01*
X164580Y1922460D01*
G01X198710Y1921410D02*
X202090Y1917170D01*
X206830Y1914000D01*
X210880D01*
X214940Y1916120D01*
X217650Y1919290D01*
X219000Y1923520D01*
X218330Y1929880D01*
X215620Y1933050D01*
X203440Y1939400D01*
X200740Y1946810D01*
X202090Y1952100D01*
X204800Y1955270D01*
X208850Y1956330D01*
X212910Y1955270D01*
X216970Y1952100D01*
G01X254490Y1942570D02*
X276140D01*
X274110Y1949980D01*
X270720Y1954220D01*
X265990Y1956330D01*
X261250Y1955270D01*
X257190Y1952100D01*
X254490Y1944690D01*
X253130Y1938340D01*
Y1931990D01*
X254490Y1925640D01*
X257870Y1919290D01*
X261930Y1915060D01*
X266660Y1914000D01*
X271400Y1916120D01*
X276140Y1922460D01*
G01X320410Y1977500D02*
Y1914000D01*
G01X310940Y1956330D02*
X329890D01*
G01X1456250Y1874350D02*
Y1887880D01*
X1475300D01*
X1481650Y1883830D01*
X1485880Y1879090D01*
X1488000Y1872320D01*
X1485880Y1865560D01*
X1481650Y1860820D01*
X1475300Y1856760D01*
X1467890Y1854060D01*
X1459430Y1852710D01*
X1452020D01*
X1445670Y1854060D01*
X1438260Y1856760D01*
X1431910Y1860820D01*
X1427680Y1864880D01*
X1424500Y1870290D01*
Y1875030D01*
X1426620Y1880440D01*
X1430850Y1884500D01*
G01X1488000Y1910520D02*
X1424500D01*
X1488000Y1941630D01*
X1424500D01*
G01X1488000Y1966970D02*
X1424500D01*
Y1980500D01*
X1427680Y1985910D01*
X1431910Y1989970D01*
X1438260Y1993360D01*
X1445670Y1996060D01*
X1456250Y1996740D01*
X1466830Y1996060D01*
X1474240Y1993360D01*
X1480590Y1989970D01*
X1484830Y1985910D01*
X1488000Y1980500D01*
Y1966970D01*
G01X2316540Y2082090D02*
X2321830Y2087500D01*
X2325000Y2093590D01*
Y2099000D01*
X2321830Y2104410D01*
X2316540Y2108470D01*
X2309120Y2110500D01*
X2301720Y2109150D01*
X2295370Y2105770D01*
X2291130Y2099680D01*
X2289020Y2091560D01*
X2284780Y2086820D01*
X2277380Y2084790D01*
X2269970Y2086150D01*
X2264680Y2089530D01*
X2261500Y2094270D01*
Y2099000D01*
X2263620Y2103740D01*
X2268910Y2107800D01*
G01X2325000Y2137190D02*
X2261500D01*
Y2150720D01*
X2264680Y2156130D01*
X2268910Y2160190D01*
X2275260Y2163580D01*
X2282670Y2166280D01*
X2293250Y2166960D01*
X2303830Y2166280D01*
X2311240Y2163580D01*
X2317590Y2160190D01*
X2321830Y2156130D01*
X2325000Y2150720D01*
Y2137190D01*
G01Y2190940D02*
X2261500Y2207850D01*
X2325000Y2224770D01*
G01X2302780Y2218680D02*
Y2197030D01*
G01X1769000Y1852410D02*
X1705500D01*
Y1865940D01*
X1708680Y1871350D01*
X1712910Y1875410D01*
X1719260Y1878800D01*
X1726670Y1881500D01*
X1737250Y1882180D01*
X1747830Y1881500D01*
X1755240Y1878800D01*
X1761590Y1875410D01*
X1765830Y1871350D01*
X1769000Y1865940D01*
Y1852410D01*
G01Y1909540D02*
X1705500D01*
Y1925780D01*
X1708680Y1931190D01*
X1716080Y1935250D01*
X1724550Y1936610D01*
X1733020Y1935250D01*
X1739370Y1931870D01*
X1742540Y1925780D01*
Y1909540D01*
G01X1769000Y1977500D02*
X1755240Y1978850D01*
X1743600Y1980880D01*
X1733020Y1983590D01*
X1721380Y1986970D01*
X1705500Y1992390D01*
Y1965320D01*
G01X1910000Y1851410D02*
X1846500D01*
Y1864940D01*
X1849680Y1870350D01*
X1853910Y1874410D01*
X1860260Y1877800D01*
X1867670Y1880500D01*
X1878250Y1881180D01*
X1888830Y1880500D01*
X1896240Y1877800D01*
X1902590Y1874410D01*
X1906830Y1870350D01*
X1910000Y1864940D01*
Y1851410D01*
G01Y1908540D02*
X1846500D01*
Y1924780D01*
X1849680Y1930190D01*
X1857080Y1934250D01*
X1865550Y1935610D01*
X1874020Y1934250D01*
X1880370Y1930870D01*
X1883540Y1924780D01*
Y1908540D01*
G01Y1965000D02*
X1876130Y1969740D01*
X1871900Y1973800D01*
X1869780Y1979210D01*
X1871900Y1983940D01*
X1876130Y1987330D01*
X1882480Y1990030D01*
X1889890Y1990710D01*
X1896240Y1990030D01*
X1902590Y1987330D01*
X1907880Y1983270D01*
X1910000Y1978530D01*
X1907880Y1973120D01*
X1901540Y1968380D01*
X1892010Y1965680D01*
X1881430Y1965000D01*
X1867670Y1966350D01*
X1860260Y1968380D01*
X1852850Y1971770D01*
X1847560Y1976500D01*
X1846500Y1981240D01*
X1848620Y1985970D01*
X1853910Y1989360D01*
G01X2050000Y1851410D02*
X1986500D01*
Y1864940D01*
X1989680Y1870350D01*
X1993910Y1874410D01*
X2000260Y1877800D01*
X2007670Y1880500D01*
X2018250Y1881180D01*
X2028830Y1880500D01*
X2036240Y1877800D01*
X2042590Y1874410D01*
X2046830Y1870350D01*
X2050000Y1864940D01*
Y1851410D01*
G01Y1908540D02*
X1986500D01*
Y1924780D01*
X1989680Y1930190D01*
X1997080Y1934250D01*
X2005550Y1935610D01*
X2014020Y1934250D01*
X2020370Y1930870D01*
X2023540Y1924780D01*
Y1908540D01*
G01X2040480Y1962970D02*
X2045770Y1967030D01*
X2048940Y1971770D01*
X2050000Y1977850D01*
X2047880Y1983940D01*
X2043650Y1988680D01*
X2036240Y1992060D01*
X2027780Y1992740D01*
X2019310Y1991390D01*
X2014020Y1988000D01*
X2009780Y1983270D01*
X2008730Y1978530D01*
X2009780Y1973800D01*
X2014020Y1967710D01*
X1986500Y1969740D01*
Y1988000D01*
G01X2189000Y1850410D02*
X2125500D01*
Y1863940D01*
X2128680Y1869350D01*
X2132910Y1873410D01*
X2139260Y1876800D01*
X2146670Y1879500D01*
X2157250Y1880180D01*
X2167830Y1879500D01*
X2175240Y1876800D01*
X2181590Y1873410D01*
X2185830Y1869350D01*
X2189000Y1863940D01*
Y1850410D01*
G01Y1907540D02*
X2125500D01*
Y1923780D01*
X2128680Y1929190D01*
X2136080Y1933250D01*
X2144550Y1934610D01*
X2153020Y1933250D01*
X2159370Y1929870D01*
X2162540Y1923780D01*
Y1907540D01*
G01X2189000Y1984970D02*
X2125500D01*
X2171010Y1959940D01*
Y1993770D01*
G01X2329000Y1850410D02*
X2265500D01*
Y1863940D01*
X2268680Y1869350D01*
X2272910Y1873410D01*
X2279260Y1876800D01*
X2286670Y1879500D01*
X2297250Y1880180D01*
X2307830Y1879500D01*
X2315240Y1876800D01*
X2321590Y1873410D01*
X2325830Y1869350D01*
X2329000Y1863940D01*
Y1850410D01*
G01Y1907540D02*
X2265500D01*
Y1923780D01*
X2268680Y1929190D01*
X2276080Y1933250D01*
X2284550Y1934610D01*
X2293020Y1933250D01*
X2299370Y1929870D01*
X2302540Y1923780D01*
Y1907540D01*
G01X2316300Y1961970D02*
X2323710Y1966030D01*
X2327940Y1971440D01*
X2329000Y1977530D01*
X2327940Y1982940D01*
X2322650Y1988360D01*
X2316300Y1991740D01*
X2309950Y1992410D01*
X2302540Y1991060D01*
X2297250Y1986330D01*
X2295130Y1981590D01*
Y1975500D01*
G01Y1981590D02*
X2291960Y1985650D01*
X2286670Y1989030D01*
X2280320Y1990390D01*
X2273970Y1989030D01*
X2268680Y1985650D01*
X2265500Y1979560D01*
X2266560Y1973470D01*
X2270790Y1967380D01*
G01X2468000Y1849410D02*
X2404500D01*
Y1862940D01*
X2407680Y1868350D01*
X2411910Y1872410D01*
X2418260Y1875800D01*
X2425670Y1878500D01*
X2436250Y1879180D01*
X2446830Y1878500D01*
X2454240Y1875800D01*
X2460590Y1872410D01*
X2464830Y1868350D01*
X2468000Y1862940D01*
Y1849410D01*
G01Y1906540D02*
X2404500D01*
Y1922780D01*
X2407680Y1928190D01*
X2415080Y1932250D01*
X2423550Y1933610D01*
X2432020Y1932250D01*
X2438370Y1928870D01*
X2441540Y1922780D01*
Y1906540D01*
G01X2415080Y1963000D02*
X2408730Y1967060D01*
X2405560Y1971800D01*
X2404500Y1977210D01*
X2406620Y1983970D01*
X2411910Y1988710D01*
X2418260Y1990060D01*
X2424610Y1989390D01*
X2429900Y1986680D01*
X2440480Y1973150D01*
X2447890Y1967060D01*
X2458480Y1963000D01*
X2468000Y1961650D01*
Y1990060D01*
G01X2607000Y1848410D02*
X2543500D01*
Y1861940D01*
X2546680Y1867350D01*
X2550910Y1871410D01*
X2557260Y1874800D01*
X2564670Y1877500D01*
X2575250Y1878180D01*
X2585830Y1877500D01*
X2593240Y1874800D01*
X2599590Y1871410D01*
X2603830Y1867350D01*
X2607000Y1861940D01*
Y1848410D01*
G01Y1905540D02*
X2543500D01*
Y1921780D01*
X2546680Y1927190D01*
X2554080Y1931250D01*
X2562550Y1932610D01*
X2571020Y1931250D01*
X2577370Y1927870D01*
X2580540Y1921780D01*
Y1905540D01*
G01X2607000Y1974850D02*
X2543500D01*
X2556200Y1966740D01*
G01X2607000D02*
Y1982970D01*
G01X2747000Y1848410D02*
X2683500D01*
Y1861940D01*
X2686680Y1867350D01*
X2690910Y1871410D01*
X2697260Y1874800D01*
X2704670Y1877500D01*
X2715250Y1878180D01*
X2725830Y1877500D01*
X2733240Y1874800D01*
X2739590Y1871410D01*
X2743830Y1867350D01*
X2747000Y1861940D01*
Y1848410D01*
G01Y1905540D02*
X2683500D01*
Y1921780D01*
X2686680Y1927190D01*
X2694080Y1931250D01*
X2702550Y1932610D01*
X2711020Y1931250D01*
X2717370Y1927870D01*
X2720540Y1921780D01*
Y1905540D01*
G01X2683500Y1974850D02*
X2685620Y1969440D01*
X2690910Y1965380D01*
X2697260Y1962680D01*
X2705730Y1960650D01*
X2715250Y1959970D01*
X2724780Y1960650D01*
X2733240Y1962680D01*
X2739590Y1965380D01*
X2744880Y1969440D01*
X2747000Y1974850D01*
X2744880Y1980270D01*
X2739590Y1984330D01*
X2733240Y1987030D01*
X2724780Y1989060D01*
X2715250Y1989740D01*
X2705730Y1989060D01*
X2697260Y1987030D01*
X2690910Y1984330D01*
X2685620Y1980270D01*
X2683500Y1974850D01*
G01X1421500Y2091380D02*
X1485000Y2108290D01*
X1421500Y2125210D01*
G01X1485000Y2149190D02*
X1421500D01*
Y2162720D01*
X1424680Y2168130D01*
X1428910Y2172190D01*
X1435260Y2175580D01*
X1442670Y2178280D01*
X1453250Y2178960D01*
X1463830Y2178280D01*
X1471240Y2175580D01*
X1477590Y2172190D01*
X1481830Y2168130D01*
X1485000Y2162720D01*
Y2149190D01*
G01Y2204970D02*
X1421500D01*
Y2218500D01*
X1424680Y2223910D01*
X1428910Y2227970D01*
X1435260Y2231360D01*
X1442670Y2234060D01*
X1453250Y2234740D01*
X1463830Y2234060D01*
X1471240Y2231360D01*
X1477590Y2227970D01*
X1481830Y2223910D01*
X1485000Y2218500D01*
Y2204970D01*
G01X2175540Y2081090D02*
X2180830Y2086500D01*
X2184000Y2092590D01*
Y2098000D01*
X2180830Y2103410D01*
X2175540Y2107470D01*
X2168120Y2109500D01*
X2160720Y2108150D01*
X2154370Y2104770D01*
X2150130Y2098680D01*
X2148020Y2090560D01*
X2143780Y2085820D01*
X2136380Y2083790D01*
X2128970Y2085150D01*
X2123680Y2088530D01*
X2120500Y2093270D01*
Y2098000D01*
X2122620Y2102740D01*
X2127910Y2106800D01*
G01X2125790Y2165960D02*
X2122620Y2161900D01*
X2120500Y2157160D01*
Y2151750D01*
X2123680Y2145660D01*
X2128970Y2140930D01*
X2135320Y2137540D01*
X2145900Y2134840D01*
X2155430Y2134160D01*
X2164950Y2135520D01*
X2171300Y2137540D01*
X2177650Y2141600D01*
X2181880Y2146340D01*
X2184000Y2151070D01*
Y2155810D01*
X2181880Y2160550D01*
X2178710Y2164610D01*
X2174480Y2167990D01*
G01X2120500Y2193320D02*
X2184000D01*
Y2220390D01*
G01X1629000Y1853410D02*
X1565500D01*
Y1866940D01*
X1568680Y1872350D01*
X1572910Y1876410D01*
X1579260Y1879800D01*
X1586670Y1882500D01*
X1597250Y1883180D01*
X1607830Y1882500D01*
X1615240Y1879800D01*
X1621590Y1876410D01*
X1625830Y1872350D01*
X1629000Y1866940D01*
Y1853410D01*
G01Y1910540D02*
X1565500D01*
Y1926780D01*
X1568680Y1932190D01*
X1576080Y1936250D01*
X1584550Y1937610D01*
X1593020Y1936250D01*
X1599370Y1932870D01*
X1602540Y1926780D01*
Y1910540D01*
G01X1629000Y1979850D02*
X1565500D01*
X1578200Y1971740D01*
G01X1629000D02*
Y1987970D01*
G01X1576080Y2022780D02*
X1569730Y2026840D01*
X1566560Y2031580D01*
X1565500Y2036990D01*
X1567620Y2043750D01*
X1572910Y2048490D01*
X1579260Y2049840D01*
X1585610Y2049170D01*
X1590900Y2046460D01*
X1601480Y2032930D01*
X1608890Y2026840D01*
X1619480Y2022780D01*
X1629000Y2021430D01*
Y2049840D01*
G01X1634000Y2091410D02*
X1570500D01*
Y2104940D01*
X1573680Y2110350D01*
X1577910Y2114410D01*
X1584260Y2117800D01*
X1591670Y2120500D01*
X1602250Y2121180D01*
X1612830Y2120500D01*
X1620240Y2117800D01*
X1626590Y2114410D01*
X1630830Y2110350D01*
X1634000Y2104940D01*
Y2091410D01*
G01Y2148540D02*
X1570500D01*
Y2164780D01*
X1573680Y2170190D01*
X1581080Y2174250D01*
X1589550Y2175610D01*
X1598020Y2174250D01*
X1604370Y2170870D01*
X1607540Y2164780D01*
Y2148540D01*
G01X1634000Y2217850D02*
X1570500D01*
X1583200Y2209740D01*
G01X1634000D02*
Y2225970D01*
G01Y2273630D02*
X1570500D01*
X1583200Y2265520D01*
G01X1634000D02*
Y2281750D01*
G01X1636120Y2317240D02*
X1570500Y2341590D01*
G01X1575790Y2400080D02*
X1572620Y2396020D01*
X1570500Y2391280D01*
Y2385870D01*
X1573680Y2379780D01*
X1578970Y2375050D01*
X1585320Y2371660D01*
X1595900Y2368960D01*
X1605430Y2368280D01*
X1614950Y2369640D01*
X1621300Y2371660D01*
X1627650Y2375720D01*
X1631880Y2380460D01*
X1634000Y2385190D01*
Y2389930D01*
X1631880Y2394670D01*
X1628710Y2398730D01*
X1624480Y2402110D01*
G01X1625540Y2426770D02*
X1630830Y2432180D01*
X1634000Y2438270D01*
Y2443680D01*
X1630830Y2449090D01*
X1625540Y2453150D01*
X1618120Y2455180D01*
X1610720Y2453830D01*
X1604370Y2450450D01*
X1600130Y2444360D01*
X1598020Y2436240D01*
X1593780Y2431500D01*
X1586380Y2429470D01*
X1578970Y2430830D01*
X1573680Y2434210D01*
X1570500Y2438950D01*
Y2443680D01*
X1572620Y2448420D01*
X1577910Y2452480D01*
G01X1634000Y2481200D02*
X1570500D01*
X1634000Y2512310D01*
X1570500D01*
G01X2747000Y2095410D02*
X2683500D01*
Y2108940D01*
X2686680Y2114350D01*
X2690910Y2118410D01*
X2697260Y2121800D01*
X2704670Y2124500D01*
X2715250Y2125180D01*
X2725830Y2124500D01*
X2733240Y2121800D01*
X2739590Y2118410D01*
X2743830Y2114350D01*
X2747000Y2108940D01*
Y2095410D01*
G01Y2152540D02*
X2683500D01*
Y2168780D01*
X2686680Y2174190D01*
X2694080Y2178250D01*
X2702550Y2179610D01*
X2711020Y2178250D01*
X2717370Y2174870D01*
X2720540Y2168780D01*
Y2152540D01*
G01X2768170Y2201560D02*
Y2242150D01*
G01X2683500Y2260720D02*
X2747000Y2277630D01*
X2683500Y2294550D01*
G01X2747000Y2318530D02*
X2683500D01*
Y2332060D01*
X2686680Y2337470D01*
X2690910Y2341530D01*
X2697260Y2344920D01*
X2704670Y2347620D01*
X2715250Y2348300D01*
X2725830Y2347620D01*
X2733240Y2344920D01*
X2739590Y2341530D01*
X2743830Y2337470D01*
X2747000Y2332060D01*
Y2318530D01*
G01Y2374310D02*
X2683500D01*
Y2387840D01*
X2686680Y2393250D01*
X2690910Y2397310D01*
X2697260Y2400700D01*
X2704670Y2403400D01*
X2715250Y2404080D01*
X2725830Y2403400D01*
X2733240Y2400700D01*
X2739590Y2397310D01*
X2743830Y2393250D01*
X2747000Y2387840D01*
Y2374310D01*
G01X1775000Y2091410D02*
X1711500D01*
Y2104940D01*
X1714680Y2110350D01*
X1718910Y2114410D01*
X1725260Y2117800D01*
X1732670Y2120500D01*
X1743250Y2121180D01*
X1753830Y2120500D01*
X1761240Y2117800D01*
X1767590Y2114410D01*
X1771830Y2110350D01*
X1775000Y2104940D01*
Y2091410D01*
G01Y2148540D02*
X1711500D01*
Y2164780D01*
X1714680Y2170190D01*
X1722080Y2174250D01*
X1730550Y2175610D01*
X1739020Y2174250D01*
X1745370Y2170870D01*
X1748540Y2164780D01*
Y2148540D01*
G01X1775000Y2217850D02*
X1711500D01*
X1724200Y2209740D01*
G01X1775000D02*
Y2225970D01*
G01X1711500Y2273630D02*
X1713620Y2268220D01*
X1718910Y2264160D01*
X1725260Y2261460D01*
X1733730Y2259430D01*
X1743250Y2258750D01*
X1752780Y2259430D01*
X1761240Y2261460D01*
X1767590Y2264160D01*
X1772880Y2268220D01*
X1775000Y2273630D01*
X1772880Y2279050D01*
X1767590Y2283110D01*
X1761240Y2285810D01*
X1752780Y2287840D01*
X1743250Y2288520D01*
X1733730Y2287840D01*
X1725260Y2285810D01*
X1718910Y2283110D01*
X1713620Y2279050D01*
X1711500Y2273630D01*
G01X1777120Y2317240D02*
X1711500Y2341590D01*
G01X1775000Y2367610D02*
X1711500D01*
X1764420Y2385190D01*
X1711500Y2402780D01*
X1775000D01*
G01Y2440970D02*
X1773940Y2435560D01*
X1769710Y2430830D01*
X1763360Y2426770D01*
X1755950Y2424060D01*
X1747480Y2422710D01*
X1739020D01*
X1730550Y2424060D01*
X1723140Y2426770D01*
X1716790Y2430830D01*
X1712560Y2435560D01*
X1711500Y2440970D01*
X1712560Y2446390D01*
X1716790Y2451120D01*
X1723140Y2455180D01*
X1730550Y2457890D01*
X1739020Y2459240D01*
X1747480D01*
X1755950Y2457890D01*
X1763360Y2455180D01*
X1769710Y2451120D01*
X1773940Y2446390D01*
X1775000Y2440970D01*
G01X1766540Y2482550D02*
X1771830Y2487960D01*
X1775000Y2494050D01*
Y2499460D01*
X1771830Y2504870D01*
X1766540Y2508930D01*
X1759120Y2510960D01*
X1751720Y2509610D01*
X1745370Y2506230D01*
X1741130Y2500140D01*
X1739020Y2492020D01*
X1734780Y2487280D01*
X1727380Y2485250D01*
X1719970Y2486610D01*
X1714680Y2489990D01*
X1711500Y2494730D01*
Y2499460D01*
X1713620Y2504200D01*
X1718910Y2508260D01*
G01X1711500Y2544420D02*
Y2560650D01*
G01Y2552530D02*
X1775000D01*
G01Y2544420D02*
Y2560650D01*
G01X1916000Y2092410D02*
X1852500D01*
Y2105940D01*
X1855680Y2111350D01*
X1859910Y2115410D01*
X1866260Y2118800D01*
X1873670Y2121500D01*
X1884250Y2122180D01*
X1894830Y2121500D01*
X1902240Y2118800D01*
X1908590Y2115410D01*
X1912830Y2111350D01*
X1916000Y2105940D01*
Y2092410D01*
G01Y2149540D02*
X1852500D01*
Y2165780D01*
X1855680Y2171190D01*
X1863080Y2175250D01*
X1871550Y2176610D01*
X1880020Y2175250D01*
X1886370Y2171870D01*
X1889540Y2165780D01*
Y2149540D01*
G01X1908590Y2207350D02*
X1913880Y2212090D01*
X1916000Y2217500D01*
X1913880Y2222910D01*
X1907540Y2227650D01*
X1898010Y2231030D01*
X1888480Y2232390D01*
X1876840D01*
X1867320Y2231030D01*
X1858850Y2227650D01*
X1854620Y2223590D01*
X1852500Y2218850D01*
X1854620Y2213440D01*
X1858850Y2209380D01*
X1865200Y2206680D01*
X1873670Y2205320D01*
X1881070Y2206680D01*
X1888480Y2210060D01*
X1892720Y2214120D01*
X1893780Y2218850D01*
X1891660Y2224270D01*
X1886370Y2228330D01*
X1876840Y2232390D01*
G01X1918120Y2262460D02*
X1852500Y2286810D01*
G01X1916000Y2312830D02*
X1852500D01*
X1905420Y2330410D01*
X1852500Y2348000D01*
X1916000D01*
G01X1852500Y2378080D02*
Y2394310D01*
G01Y2386190D02*
X1916000D01*
G01Y2378080D02*
Y2394310D01*
G01X1907540Y2427770D02*
X1912830Y2433180D01*
X1916000Y2439270D01*
Y2444680D01*
X1912830Y2450090D01*
X1907540Y2454150D01*
X1900120Y2456180D01*
X1892720Y2454830D01*
X1886370Y2451450D01*
X1882130Y2445360D01*
X1880020Y2437240D01*
X1875780Y2432500D01*
X1868380Y2430470D01*
X1860970Y2431830D01*
X1855680Y2435210D01*
X1852500Y2439950D01*
Y2444680D01*
X1854620Y2449420D01*
X1859910Y2453480D01*
G01X1916000Y2497750D02*
X1914940Y2492340D01*
X1910710Y2487610D01*
X1904360Y2483550D01*
X1896950Y2480840D01*
X1888480Y2479490D01*
X1880020D01*
X1871550Y2480840D01*
X1864140Y2483550D01*
X1857790Y2487610D01*
X1853560Y2492340D01*
X1852500Y2497750D01*
X1853560Y2503170D01*
X1857790Y2507900D01*
X1864140Y2511960D01*
X1871550Y2514670D01*
X1880020Y2516020D01*
X1888480D01*
X1896950Y2514670D01*
X1904360Y2511960D01*
X1910710Y2507900D01*
X1914940Y2503170D01*
X1916000Y2497750D01*
G01X2051000Y2092410D02*
X1987500D01*
Y2105940D01*
X1990680Y2111350D01*
X1994910Y2115410D01*
X2001260Y2118800D01*
X2008670Y2121500D01*
X2019250Y2122180D01*
X2029830Y2121500D01*
X2037240Y2118800D01*
X2043590Y2115410D01*
X2047830Y2111350D01*
X2051000Y2105940D01*
Y2092410D01*
G01Y2149540D02*
X1987500D01*
Y2165780D01*
X1990680Y2171190D01*
X1998080Y2175250D01*
X2006550Y2176610D01*
X2015020Y2175250D01*
X2021370Y2171870D01*
X2024540Y2165780D01*
Y2149540D01*
G01X2051000Y2218850D02*
X2049940Y2223590D01*
X2046770Y2229000D01*
X2041480Y2232390D01*
X2034070Y2233740D01*
X2026660Y2232390D01*
X2020310Y2228330D01*
X2017130Y2222240D01*
Y2215470D01*
X2015020Y2211410D01*
X2009730Y2208030D01*
X2002320Y2206680D01*
X1994910Y2208710D01*
X1989620Y2213440D01*
X1987500Y2218850D01*
X1989620Y2224270D01*
X1994910Y2229000D01*
X2002320Y2231030D01*
X2009730Y2229680D01*
X2015020Y2226300D01*
X2017130Y2222240D01*
Y2215470D01*
X2020310Y2209380D01*
X2026660Y2205320D01*
X2034070Y2203970D01*
X2041480Y2205320D01*
X2046770Y2208710D01*
X2049940Y2214120D01*
X2051000Y2218850D01*
G01X2053120Y2262460D02*
X1987500Y2286810D01*
G01X2042540Y2316210D02*
X2047830Y2321620D01*
X2051000Y2327710D01*
Y2333120D01*
X2047830Y2338530D01*
X2042540Y2342590D01*
X2035120Y2344620D01*
X2027720Y2343270D01*
X2021370Y2339890D01*
X2017130Y2333800D01*
X2015020Y2325680D01*
X2010780Y2320940D01*
X2003380Y2318910D01*
X1995970Y2320270D01*
X1990680Y2323650D01*
X1987500Y2328390D01*
Y2333120D01*
X1989620Y2337860D01*
X1994910Y2341920D01*
G01X1992790Y2401080D02*
X1989620Y2397020D01*
X1987500Y2392280D01*
Y2386870D01*
X1990680Y2380780D01*
X1995970Y2376050D01*
X2002320Y2372660D01*
X2012900Y2369960D01*
X2022430Y2369280D01*
X2031950Y2370640D01*
X2038300Y2372660D01*
X2044650Y2376720D01*
X2048880Y2381460D01*
X2051000Y2386190D01*
Y2390930D01*
X2048880Y2395670D01*
X2045710Y2399730D01*
X2041480Y2403110D01*
G01X1987500Y2428440D02*
X2051000D01*
Y2455510D01*
G01Y2482870D02*
X1987500D01*
G01Y2508580D02*
X2026660Y2482870D01*
G01X2051000Y2512640D02*
X2008670Y2494370D01*
G01X2465000Y2095740D02*
X2401500D01*
X2465000Y2126850D01*
X2401500D01*
G01X2406790Y2181960D02*
X2403620Y2177900D01*
X2401500Y2173160D01*
Y2167750D01*
X2404680Y2161660D01*
X2409970Y2156930D01*
X2416320Y2153540D01*
X2426900Y2150840D01*
X2436430Y2150160D01*
X2445950Y2151520D01*
X2452300Y2153540D01*
X2458650Y2157600D01*
X2462880Y2162340D01*
X2465000Y2167070D01*
Y2171810D01*
X2462880Y2176550D01*
X2459710Y2180610D01*
X2455480Y2183990D01*
G01X2605000Y2095740D02*
X2541500D01*
X2605000Y2126850D01*
X2541500D01*
G01X2546790Y2181960D02*
X2543620Y2177900D01*
X2541500Y2173160D01*
Y2167750D01*
X2544680Y2161660D01*
X2549970Y2156930D01*
X2556320Y2153540D01*
X2566900Y2150840D01*
X2576430Y2150160D01*
X2585950Y2151520D01*
X2592300Y2153540D01*
X2598650Y2157600D01*
X2602880Y2162340D01*
X2605000Y2167070D01*
Y2171810D01*
X2602880Y2176550D01*
X2599710Y2180610D01*
X2595480Y2183990D01*
G01X1448410Y1200000D02*
Y1263500D01*
X1461940D01*
X1467350Y1260320D01*
X1471410Y1256090D01*
X1474800Y1249740D01*
X1477500Y1242330D01*
X1478180Y1231750D01*
X1477500Y1221170D01*
X1474800Y1213760D01*
X1471410Y1207410D01*
X1467350Y1203170D01*
X1461940Y1200000D01*
X1448410D01*
G01X1505540D02*
Y1263500D01*
X1521780D01*
X1527190Y1260320D01*
X1531250Y1252920D01*
X1532610Y1244450D01*
X1531250Y1235980D01*
X1527870Y1229630D01*
X1521780Y1226460D01*
X1505540D01*
G01X1574850Y1263500D02*
X1569440Y1261380D01*
X1565380Y1256090D01*
X1562680Y1249740D01*
X1560650Y1241270D01*
X1559970Y1231750D01*
X1560650Y1222220D01*
X1562680Y1213760D01*
X1565380Y1207410D01*
X1569440Y1202120D01*
X1574850Y1200000D01*
X1580270Y1202120D01*
X1584330Y1207410D01*
X1587030Y1213760D01*
X1589060Y1222220D01*
X1589740Y1231750D01*
X1589060Y1241270D01*
X1587030Y1249740D01*
X1584330Y1256090D01*
X1580270Y1261380D01*
X1574850Y1263500D01*
G01X1639410Y1199000D02*
Y1262500D01*
X1652940D01*
X1658350Y1259320D01*
X1662410Y1255090D01*
X1665800Y1248740D01*
X1668500Y1241330D01*
X1669180Y1230750D01*
X1668500Y1220170D01*
X1665800Y1212760D01*
X1662410Y1206410D01*
X1658350Y1202170D01*
X1652940Y1199000D01*
X1639410D01*
G01X1696540D02*
Y1262500D01*
X1712780D01*
X1718190Y1259320D01*
X1722250Y1251920D01*
X1723610Y1243450D01*
X1722250Y1234980D01*
X1718870Y1228630D01*
X1712780Y1225460D01*
X1696540D01*
G01X1765850Y1199000D02*
Y1262500D01*
X1757740Y1249800D01*
G01Y1199000D02*
X1773970D01*
G01X2766860Y1198990D02*
Y1262490D01*
X2780390D01*
X2785800Y1259310D01*
X2789860Y1255080D01*
X2793250Y1248730D01*
X2795950Y1241320D01*
X2796630Y1230740D01*
X2795950Y1220160D01*
X2793250Y1212750D01*
X2789860Y1206400D01*
X2785800Y1202160D01*
X2780390Y1198990D01*
X2766860D01*
G01X2823990D02*
Y1262490D01*
X2840230D01*
X2845640Y1259310D01*
X2849700Y1251910D01*
X2851060Y1243440D01*
X2849700Y1234970D01*
X2846320Y1228620D01*
X2840230Y1225450D01*
X2823990D01*
G01X2880450Y1251910D02*
X2884510Y1258260D01*
X2889250Y1261430D01*
X2894660Y1262490D01*
X2901420Y1260370D01*
X2906160Y1255080D01*
X2907510Y1248730D01*
X2906840Y1242380D01*
X2904130Y1237090D01*
X2890600Y1226510D01*
X2884510Y1219100D01*
X2880450Y1208510D01*
X2879100Y1198990D01*
X2907510D01*
G01X3909250Y754350D02*
Y767880D01*
X3928300D01*
X3934650Y763830D01*
X3938880Y759090D01*
X3941000Y752320D01*
X3938880Y745560D01*
X3934650Y740820D01*
X3928300Y736760D01*
X3920890Y734060D01*
X3912430Y732710D01*
X3905020D01*
X3898670Y734060D01*
X3891260Y736760D01*
X3884910Y740820D01*
X3880680Y744880D01*
X3877500Y750290D01*
Y755030D01*
X3879620Y760440D01*
X3883850Y764500D01*
G01X3941000Y790520D02*
X3877500D01*
X3941000Y821630D01*
X3877500D01*
G01X3941000Y846970D02*
X3877500D01*
Y860500D01*
X3880680Y865910D01*
X3884910Y869970D01*
X3891260Y873360D01*
X3898670Y876060D01*
X3909250Y876740D01*
X3919830Y876060D01*
X3927240Y873360D01*
X3933590Y869970D01*
X3937830Y865910D01*
X3941000Y860500D01*
Y846970D01*
G01X3389680Y526190D02*
X3406590Y589690D01*
X3423510Y526190D01*
G01X3417420Y548410D02*
X3395770D01*
G01X3450200Y524070D02*
X3474550Y589690D01*
G01X3503270Y526190D02*
Y589690D01*
X3516800D01*
X3522210Y586510D01*
X3526270Y582280D01*
X3529660Y575930D01*
X3532360Y568520D01*
X3533040Y557940D01*
X3532360Y547360D01*
X3529660Y539950D01*
X3526270Y533600D01*
X3522210Y529360D01*
X3516800Y526190D01*
X3503270D01*
G01X3410650Y651940D02*
X3424180D01*
Y632890D01*
X3420130Y626540D01*
X3415390Y622310D01*
X3408620Y620190D01*
X3401860Y622310D01*
X3397120Y626540D01*
X3393060Y632890D01*
X3390360Y640300D01*
X3389010Y648760D01*
Y656170D01*
X3390360Y662520D01*
X3393060Y669930D01*
X3397120Y676280D01*
X3401180Y680510D01*
X3406590Y683690D01*
X3411330D01*
X3416740Y681570D01*
X3420800Y677340D01*
G01X3448840Y620190D02*
Y683690D01*
X3465760D01*
X3471170Y680510D01*
X3474550Y676280D01*
X3475910Y667810D01*
X3474550Y659350D01*
X3470490Y654060D01*
X3465760Y650880D01*
X3448840D01*
G01X3465760D02*
X3475910Y620190D01*
G01X3518150D02*
X3512740Y621250D01*
X3508010Y625480D01*
X3503950Y631830D01*
X3501240Y639240D01*
X3499890Y647710D01*
Y656170D01*
X3501240Y664640D01*
X3503950Y672050D01*
X3508010Y678400D01*
X3512740Y682630D01*
X3518150Y683690D01*
X3523570Y682630D01*
X3528300Y678400D01*
X3532360Y672050D01*
X3535070Y664640D01*
X3536420Y656170D01*
Y647710D01*
X3535070Y639240D01*
X3532360Y631830D01*
X3528300Y625480D01*
X3523570Y621250D01*
X3518150Y620190D01*
G01X3557020Y683690D02*
X3573930Y620190D01*
X3590850Y683690D01*
G01X3643250Y620190D02*
X3616180D01*
Y683690D01*
X3643250D01*
G01X3632420Y653000D02*
X3616180D01*
G01X3672640Y673110D02*
X3676700Y679460D01*
X3681440Y682630D01*
X3686850Y683690D01*
X3693610Y681570D01*
X3698350Y676280D01*
X3699700Y669930D01*
X3699030Y663580D01*
X3696320Y658290D01*
X3682790Y647710D01*
X3676700Y640300D01*
X3672640Y629710D01*
X3671290Y620190D01*
X3699700D01*
G01X3740250Y2502350D02*
Y2515880D01*
X3759300D01*
X3765650Y2511830D01*
X3769880Y2507090D01*
X3772000Y2500320D01*
X3769880Y2493560D01*
X3765650Y2488820D01*
X3759300Y2484760D01*
X3751890Y2482060D01*
X3743430Y2480710D01*
X3736020D01*
X3729670Y2482060D01*
X3722260Y2484760D01*
X3715910Y2488820D01*
X3711680Y2492880D01*
X3708500Y2498290D01*
Y2503030D01*
X3710620Y2508440D01*
X3714850Y2512500D01*
G01X3772000Y2540540D02*
X3708500D01*
Y2557460D01*
X3711680Y2562870D01*
X3715910Y2566250D01*
X3724380Y2567610D01*
X3732840Y2566250D01*
X3738130Y2562190D01*
X3741310Y2557460D01*
Y2540540D01*
G01Y2557460D02*
X3772000Y2567610D01*
G01Y2609850D02*
X3770940Y2604440D01*
X3766710Y2599710D01*
X3760360Y2595650D01*
X3752950Y2592940D01*
X3744480Y2591590D01*
X3736020D01*
X3727550Y2592940D01*
X3720140Y2595650D01*
X3713790Y2599710D01*
X3709560Y2604440D01*
X3708500Y2609850D01*
X3709560Y2615270D01*
X3713790Y2620000D01*
X3720140Y2624060D01*
X3727550Y2626770D01*
X3736020Y2628120D01*
X3744480D01*
X3752950Y2626770D01*
X3760360Y2624060D01*
X3766710Y2620000D01*
X3770940Y2615270D01*
X3772000Y2609850D01*
G01X3708500Y2648720D02*
X3772000Y2665630D01*
X3708500Y2682550D01*
G01X3772000Y2734950D02*
Y2707880D01*
X3708500D01*
Y2734950D01*
G01X3739190Y2724120D02*
Y2707880D01*
G01X3759300Y2762310D02*
X3766710Y2766370D01*
X3770940Y2771780D01*
X3772000Y2777870D01*
X3770940Y2783280D01*
X3765650Y2788700D01*
X3759300Y2792080D01*
X3752950Y2792750D01*
X3745540Y2791400D01*
X3740250Y2786670D01*
X3738130Y2781930D01*
Y2775840D01*
G01Y2781930D02*
X3734960Y2785990D01*
X3729670Y2789370D01*
X3723320Y2790730D01*
X3716970Y2789370D01*
X3711680Y2785990D01*
X3708500Y2779900D01*
X3709560Y2773810D01*
X3713790Y2767720D01*
G01X3802500Y2490180D02*
Y2506410D01*
G01Y2498290D02*
X3866000D01*
G01Y2490180D02*
Y2506410D01*
G01X3813080Y2541220D02*
X3806730Y2545280D01*
X3803560Y2550020D01*
X3802500Y2555430D01*
X3804620Y2562190D01*
X3809910Y2566930D01*
X3816260Y2568280D01*
X3822610Y2567610D01*
X3827900Y2564900D01*
X3838480Y2551370D01*
X3845890Y2545280D01*
X3856480Y2541220D01*
X3866000Y2539870D01*
Y2568280D01*
G01X3807790Y2624740D02*
X3804620Y2620680D01*
X3802500Y2615940D01*
Y2610530D01*
X3805680Y2604440D01*
X3810970Y2599710D01*
X3817320Y2596320D01*
X3827900Y2593620D01*
X3837430Y2592940D01*
X3846950Y2594300D01*
X3853300Y2596320D01*
X3859650Y2600380D01*
X3863880Y2605120D01*
X3866000Y2609850D01*
Y2614590D01*
X3863880Y2619330D01*
X3860710Y2623390D01*
X3856480Y2626770D01*
G01X2967860Y1197990D02*
Y1261490D01*
X2981390D01*
X2986800Y1258310D01*
X2990860Y1254080D01*
X2994250Y1247730D01*
X2996950Y1240320D01*
X2997630Y1229740D01*
X2996950Y1219160D01*
X2994250Y1211750D01*
X2990860Y1205400D01*
X2986800Y1201160D01*
X2981390Y1197990D01*
X2967860D01*
G01X3024990D02*
Y1261490D01*
X3041230D01*
X3046640Y1258310D01*
X3050700Y1250910D01*
X3052060Y1242440D01*
X3050700Y1233970D01*
X3047320Y1227620D01*
X3041230Y1224450D01*
X3024990D01*
G01X3079420Y1210690D02*
X3083480Y1203280D01*
X3088890Y1199050D01*
X3094980Y1197990D01*
X3100390Y1199050D01*
X3105810Y1204340D01*
X3109190Y1210690D01*
X3109860Y1217040D01*
X3108510Y1224450D01*
X3103780Y1229740D01*
X3099040Y1231860D01*
X3092950D01*
G01X3099040D02*
X3103100Y1235030D01*
X3106480Y1240320D01*
X3107840Y1246670D01*
X3106480Y1253020D01*
X3103100Y1258310D01*
X3097010Y1261490D01*
X3090920Y1260430D01*
X3084830Y1256200D01*
G01X3252090Y2059460D02*
X3257500Y2054170D01*
X3263590Y2051000D01*
X3269000D01*
X3274410Y2054170D01*
X3278470Y2059460D01*
X3280500Y2066880D01*
X3279150Y2074280D01*
X3275770Y2080630D01*
X3269680Y2084870D01*
X3261560Y2086980D01*
X3256820Y2091220D01*
X3254790Y2098620D01*
X3256150Y2106030D01*
X3259530Y2111320D01*
X3264270Y2114500D01*
X3269000D01*
X3273740Y2112380D01*
X3277800Y2107090D01*
G01X3336960Y2109210D02*
X3332900Y2112380D01*
X3328160Y2114500D01*
X3322750D01*
X3316660Y2111320D01*
X3311930Y2106030D01*
X3308540Y2099680D01*
X3305840Y2089100D01*
X3305160Y2079570D01*
X3306520Y2070050D01*
X3308540Y2063700D01*
X3312600Y2057350D01*
X3317340Y2053120D01*
X3322070Y2051000D01*
X3326810D01*
X3331550Y2053120D01*
X3335610Y2056290D01*
X3338990Y2060520D01*
G01X3364320Y2114500D02*
Y2051000D01*
X3391390D01*
G01X3252090Y1855460D02*
X3257500Y1850170D01*
X3263590Y1847000D01*
X3269000D01*
X3274410Y1850170D01*
X3278470Y1855460D01*
X3280500Y1862880D01*
X3279150Y1870280D01*
X3275770Y1876630D01*
X3269680Y1880870D01*
X3261560Y1882980D01*
X3256820Y1887220D01*
X3254790Y1894620D01*
X3256150Y1902030D01*
X3259530Y1907320D01*
X3264270Y1910500D01*
X3269000D01*
X3273740Y1908380D01*
X3277800Y1903090D01*
G01X3307190Y1847000D02*
Y1910500D01*
X3320720D01*
X3326130Y1907320D01*
X3330190Y1903090D01*
X3333580Y1896740D01*
X3336280Y1889330D01*
X3336960Y1878750D01*
X3336280Y1868170D01*
X3333580Y1860760D01*
X3330190Y1854410D01*
X3326130Y1850170D01*
X3320720Y1847000D01*
X3307190D01*
G01X3360940D02*
X3377850Y1910500D01*
X3394770Y1847000D01*
G01X3388680Y1869220D02*
X3367030D01*
G54D12*
G01X445260Y1888320D02*
X445760Y1891000D01*
G01X446260D02*
X445760Y1888320D01*
G01X445010Y1889320D02*
X446510D01*
G01Y1889990D02*
X445010D01*
G01X447060Y1888990D02*
Y1891000D01*
X447680D01*
X447880Y1890900D01*
X448010Y1890770D01*
X448060Y1890500D01*
X448010Y1890230D01*
X447860Y1890060D01*
X447680Y1889960D01*
X447060D01*
G01X447680D02*
X448060Y1888990D01*
G01X449860D02*
X448860D01*
Y1891000D01*
X449860D01*
G01X449460Y1890030D02*
X448860D01*
G01X450680Y1888990D02*
Y1891000D01*
X451640D01*
G01X451280Y1890030D02*
X450680D01*
G01X452410Y1888990D02*
Y1891000D01*
X452910D01*
X453110Y1890900D01*
X453260Y1890770D01*
X453390Y1890560D01*
X453490Y1890330D01*
X453510Y1889990D01*
X453490Y1889660D01*
X453390Y1889430D01*
X453260Y1889220D01*
X453110Y1889090D01*
X452910Y1888990D01*
X452410D01*
G01X455260D02*
X454260D01*
Y1891000D01*
X455260D01*
G01X454860Y1890030D02*
X454260D01*
G01X456030Y1889260D02*
X456240Y1889090D01*
X456460Y1888990D01*
X456660D01*
X456860Y1889090D01*
X457010Y1889260D01*
X457090Y1889490D01*
X457040Y1889730D01*
X456910Y1889930D01*
X456680Y1890060D01*
X456390Y1890130D01*
X456210Y1890260D01*
X456130Y1890500D01*
X456190Y1890730D01*
X456310Y1890900D01*
X456480Y1891000D01*
X456660D01*
X456840Y1890930D01*
X456990Y1890770D01*
M02*
