G04 ================== begin FILE IDENTIFICATION RECORD ==================*
G04 Layout Name:  DevPack_Debug.brd*
G04 Film Name:    soldmask_top*
G04 File Format:  Gerber RS274X*
G04 File Origin:  Cadence Allegro 16.6-S019*
G04 Origin Date:  Fri Oct 16 16:25:00 2015*
G04 *
G04 Layer:  BOARD GEOMETRY/SOLDERMASK_TOP*
G04 Layer:  PIN/SOLDERMASK_TOP*
G04 Layer:  BOARD GEOMETRY/OUTLINE*
G04 *
G04 Offset:    (0.0000 0.0000)*
G04 Mirror:    No*
G04 Mode:      Positive*
G04 Rotation:  0*
G04 FullContactRelief:  No*
G04 UndefLineWidth:     0.1000*
G04 ================== end FILE IDENTIFICATION RECORD ====================*
%FSLAX25Y25*MOMM*%
%IR0*IPPOS*OFA0.00000B0.00000*MIA0B0*SFA1.00000B1.00000*%
%AMMACRO25*
4,1,41,.45,0.0,
.45,.2438,
.446858,.279614,
.437545,.314339,
.422343,.346918,
.401715,.376363,
.376287,.401779,
.346832,.422393,
.314245,.437579,
.279516,.446875,
.2438,.45,
-.2438,.45,
-.279614,.446858,
-.314339,.437545,
-.346918,.422343,
-.376363,.401715,
-.401779,.376287,
-.422393,.346832,
-.437579,.314245,
-.446875,.279516,
-.45,.2438,
-.45,-.2438,
-.446858,-.279614,
-.437545,-.314339,
-.422343,-.346918,
-.401715,-.376363,
-.376287,-.401779,
-.346832,-.422393,
-.314245,-.437579,
-.279516,-.446875,
-.2438,-.45,
.2438,-.45,
.279614,-.446858,
.314339,-.437545,
.346918,-.422343,
.376363,-.401715,
.401779,-.376287,
.422393,-.346832,
.437579,-.314245,
.446875,-.279516,
.45,-.2438,
.45,0.0,
0.0*
%
%ADD25MACRO25*%
%ADD26O,1.05X.55*%
%AMMACRO16*
4,1,45,1.325,0.0,
1.325,.4312,
1.319027,.499575,
1.301271,.565873,
1.272273,.628082,
1.232912,.684309,
1.184386,.732848,
1.128168,.772223,
1.065967,.801237,
.999673,.819009,
.9313,.825,
.9312,.825,
-.9312,.825,
-.999575,.819027,
-1.065873,.801271,
-1.128082,.772273,
-1.184309,.732912,
-1.232848,.684386,
-1.272223,.628168,
-1.301237,.565967,
-1.319009,.499673,
-1.325,.4313,
-1.325,.4312,
-1.325,-.4312,
-1.319027,-.499575,
-1.301271,-.565873,
-1.272273,-.628082,
-1.232912,-.684309,
-1.184386,-.732848,
-1.128168,-.772223,
-1.065967,-.801237,
-.999673,-.819009,
-.9313,-.825,
-.9312,-.825,
.9312,-.825,
.999575,-.819027,
1.065873,-.801271,
1.128082,-.772273,
1.184309,-.732912,
1.232848,-.684386,
1.272223,-.628168,
1.301237,-.565967,
1.319009,-.499673,
1.325,-.4313,
1.325,-.4312,
1.325,0.0,
0.0*
%
%ADD16MACRO16*%
%AMMACRO15*
4,1,45,0.0,-1.325,
.4312,-1.325,
.499575,-1.319027,
.565873,-1.301271,
.628082,-1.272273,
.684309,-1.232912,
.732848,-1.184386,
.772223,-1.128168,
.801237,-1.065967,
.819009,-.999673,
.825,-.9313,
.825,-.9312,
.825,.9312,
.819027,.999575,
.801271,1.065873,
.772273,1.128082,
.732912,1.184309,
.684386,1.232848,
.628168,1.272223,
.565967,1.301237,
.499673,1.319009,
.4313,1.325,
.4312,1.325,
-.4312,1.325,
-.499575,1.319027,
-.565873,1.301271,
-.628082,1.272273,
-.684309,1.232912,
-.732848,1.184386,
-.772223,1.128168,
-.801237,1.065967,
-.819009,.999673,
-.825,.9313,
-.825,.9312,
-.825,-.9312,
-.819027,-.999575,
-.801271,-1.065873,
-.772273,-1.128082,
-.732912,-1.184309,
-.684386,-1.232848,
-.628168,-1.272223,
-.565967,-1.301237,
-.499673,-1.319009,
-.4313,-1.325,
-.4312,-1.325,
0.0,-1.325,
0.0*
%
%ADD15MACRO15*%
%AMMACRO29*
4,1,41,1.875,0.0,
1.875,.4312,
1.869027,.499575,
1.851271,.565873,
1.822273,.628082,
1.782912,.684309,
1.734386,.732848,
1.678168,.772223,
1.615967,.801237,
1.549673,.819009,
1.4813,.825,
-1.4813,.825,
-1.549673,.819009,
-1.615967,.801237,
-1.678168,.772223,
-1.734386,.732848,
-1.782912,.684309,
-1.822273,.628082,
-1.851271,.565873,
-1.869027,.499575,
-1.875,.4312,
-1.875,-.4312,
-1.869027,-.499575,
-1.851271,-.565873,
-1.822273,-.628082,
-1.782912,-.684309,
-1.734386,-.732848,
-1.678168,-.772223,
-1.615967,-.801237,
-1.549673,-.819009,
-1.4813,-.825,
1.4813,-.825,
1.549673,-.819009,
1.615967,-.801237,
1.678168,-.772223,
1.734386,-.732848,
1.782912,-.684309,
1.822273,-.628082,
1.851271,-.565873,
1.869027,-.499575,
1.875,-.4312,
1.875,0.0,
0.0*
%
%ADD29MACRO29*%
%AMMACRO24*
4,1,40,.375,.185,
.375,-.185,
.372189,-.217125,
.363843,-.248274,
.350215,-.2775,
.331718,-.303916,
.308916,-.326718,
.2825,-.345215,
.253274,-.358843,
.222125,-.367189,
.19,-.37,
-.19,-.37,
-.222125,-.367189,
-.253274,-.358843,
-.2825,-.345215,
-.308916,-.326718,
-.331718,-.303916,
-.350215,-.2775,
-.363843,-.248274,
-.372189,-.217125,
-.375,-.185,
-.375,.185,
-.372189,.217125,
-.363843,.248274,
-.350215,.2775,
-.331718,.303916,
-.308916,.326718,
-.2825,.345215,
-.253274,.358843,
-.222125,.367189,
-.19,.37,
.19,.37,
.222125,.367189,
.253274,.358843,
.2825,.345215,
.308916,.326718,
.331718,.303916,
.350215,.2775,
.363843,.248274,
.372189,.217125,
.375,.185,
0.0*
%
%ADD24MACRO24*%
%AMMACRO14*
4,1,43,0.0,-1.875,
.4312,-1.875,
.499575,-1.869027,
.565873,-1.851271,
.628082,-1.822273,
.684309,-1.782912,
.732848,-1.734386,
.772223,-1.678168,
.801237,-1.615967,
.819009,-1.549673,
.825,-1.4813,
.825,-1.4813,
.825,1.4813,
.819009,1.549673,
.801237,1.615967,
.772223,1.678168,
.732848,1.734386,
.684309,1.782912,
.628082,1.822273,
.565873,1.851271,
.499575,1.869027,
.4312,1.875,
-.4312,1.875,
-.499575,1.869027,
-.565873,1.851271,
-.628082,1.822273,
-.684309,1.782912,
-.732848,1.734386,
-.772223,1.678168,
-.801237,1.615967,
-.819009,1.549673,
-.825,1.4813,
-.825,-1.4813,
-.819009,-1.549673,
-.801237,-1.615967,
-.772223,-1.678168,
-.732848,-1.734386,
-.684309,-1.782912,
-.628082,-1.822273,
-.565873,-1.851271,
-.499575,-1.869027,
-.4312,-1.875,
-.4312,-1.875,
0.0,-1.875,
0.0*
%
%ADD14MACRO14*%
%AMMACRO22*
4,1,40,.185,-.375,
-.185,-.375,
-.217125,-.372189,
-.248274,-.363843,
-.2775,-.350215,
-.303916,-.331718,
-.326718,-.308916,
-.345215,-.2825,
-.358843,-.253274,
-.367189,-.222125,
-.37,-.19,
-.37,.19,
-.367189,.222125,
-.358843,.253274,
-.345215,.2825,
-.326718,.308916,
-.303916,.331718,
-.2775,.350215,
-.248274,.363843,
-.217125,.372189,
-.185,.375,
.185,.375,
.217125,.372189,
.248274,.363843,
.2775,.350215,
.303916,.331718,
.326718,.308916,
.345215,.2825,
.358843,.253274,
.367189,.222125,
.37,.19,
.37,-.19,
.367189,-.222125,
.358843,-.253274,
.345215,-.2825,
.326718,-.308916,
.303916,-.331718,
.2775,-.350215,
.248274,-.363843,
.217125,-.372189,
.185,-.375,
0.0*
%
%ADD22MACRO22*%
%AMMACRO19*
4,1,41,0.0,.45,
-.175,.45,
-.218412,.446202,
-.260505,.434923,
-.3,.416506,
-.335697,.391511,
-.366511,.360697,
-.391506,.325,
-.409923,.285505,
-.421202,.243412,
-.425,.2,
-.425,-.2,
-.421202,-.243412,
-.409923,-.285505,
-.391506,-.325,
-.366511,-.360697,
-.335697,-.391511,
-.3,-.416506,
-.260505,-.434923,
-.218412,-.446202,
-.175,-.45,
.175,-.45,
.218412,-.446202,
.260505,-.434923,
.3,-.416506,
.335697,-.391511,
.366511,-.360697,
.391506,-.325,
.409923,-.285505,
.421202,-.243412,
.425,-.2,
.425,.2,
.421202,.243412,
.409923,.285505,
.391506,.325,
.366511,.360697,
.335697,.391511,
.3,.416506,
.260505,.434923,
.218412,.446202,
.175,.45,
0.0,.45,
0.0*
%
%ADD19MACRO19*%
%AMMACRO18*
4,1,40,.25,.1,
.25,-.1,
.248481,-.117365,
.243969,-.134202,
.236603,-.15,
.226604,-.164279,
.214279,-.176604,
.2,-.186603,
.184202,-.193969,
.167365,-.198481,
.15,-.2,
-.15,-.2,
-.167365,-.198481,
-.184202,-.193969,
-.2,-.186603,
-.214279,-.176604,
-.226604,-.164279,
-.236603,-.15,
-.243969,-.134202,
-.248481,-.117365,
-.25,-.1,
-.25,.1,
-.248481,.117365,
-.243969,.134202,
-.236603,.15,
-.226604,.164279,
-.214279,.176604,
-.2,.186603,
-.184202,.193969,
-.167365,.198481,
-.15,.2,
.15,.2,
.167365,.198481,
.184202,.193969,
.2,.186603,
.214279,.176604,
.226604,.164279,
.236603,.15,
.243969,.134202,
.248481,.117365,
.25,.1,
0.0*
%
%ADD18MACRO18*%
%AMMACRO28*
4,1,41,0.0,1.9,
-.5688,1.9,
-.66105,1.89192,
-.750495,1.867945,
-.834418,1.828801,
-.910269,1.775679,
-.975743,1.710193,
-1.028851,1.634332,
-1.067979,1.550401,
-1.091938,1.460951,
-1.1,1.3688,
-1.1,-1.3688,
-1.09192,-1.46105,
-1.067945,-1.550495,
-1.028801,-1.634418,
-.975679,-1.710269,
-.910193,-1.775743,
-.834332,-1.828851,
-.750401,-1.867979,
-.660951,-1.891938,
-.5688,-1.9,
.5688,-1.9,
.66105,-1.89192,
.750495,-1.867945,
.834418,-1.828801,
.910269,-1.775679,
.975743,-1.710193,
1.028851,-1.634332,
1.067979,-1.550401,
1.091938,-1.460951,
1.1,-1.3688,
1.1,1.3688,
1.09192,1.46105,
1.067945,1.550495,
1.028801,1.634418,
.975679,1.710269,
.910193,1.775743,
.834332,1.828851,
.750401,1.867979,
.660951,1.891938,
.5688,1.9,
0.0,1.9,
0.0*
%
%ADD28MACRO28*%
%AMMACRO30*
4,1,45,-1.775,0.0,
-1.775,-.3062,
-1.770926,-.352869,
-1.758809,-.398121,
-1.739019,-.440582,
-1.712157,-.478961,
-1.679037,-.512092,
-1.640668,-.538969,
-1.598215,-.558775,
-1.552967,-.570908,
-1.5063,-.575,
-1.5062,-.575,
1.5062,-.575,
1.552869,-.570926,
1.598121,-.558809,
1.640582,-.539019,
1.678961,-.512157,
1.712092,-.479037,
1.738969,-.440668,
1.758775,-.398215,
1.770908,-.352967,
1.775,-.3063,
1.775,-.3062,
1.775,.3062,
1.770926,.352869,
1.758809,.398121,
1.739019,.440582,
1.712157,.478961,
1.679037,.512092,
1.640668,.538969,
1.598215,.558775,
1.552967,.570908,
1.5063,.575,
1.5062,.575,
-1.5062,.575,
-1.552869,.570926,
-1.598121,.558809,
-1.640582,.539019,
-1.678961,.512157,
-1.712092,.479037,
-1.738969,.440668,
-1.758775,.398215,
-1.770908,.352967,
-1.775,.3063,
-1.775,.3062,
-1.775,0.0,
0.0*
%
%ADD30MACRO30*%
%AMMACRO20*
4,1,45,0.0,1.775,
-.3062,1.775,
-.352869,1.770926,
-.398121,1.758809,
-.440582,1.739019,
-.478961,1.712157,
-.512092,1.679037,
-.538969,1.640668,
-.558775,1.598215,
-.570908,1.552967,
-.575,1.5063,
-.575,1.5062,
-.575,-1.5062,
-.570926,-1.552869,
-.558809,-1.598121,
-.539019,-1.640582,
-.512157,-1.678961,
-.479037,-1.712092,
-.440668,-1.738969,
-.398215,-1.758775,
-.352967,-1.770908,
-.3063,-1.775,
-.3062,-1.775,
.3062,-1.775,
.352869,-1.770926,
.398121,-1.758809,
.440582,-1.739019,
.478961,-1.712157,
.512092,-1.679037,
.538969,-1.640668,
.558775,-1.598215,
.570908,-1.552967,
.575,-1.5063,
.575,-1.5062,
.575,1.5062,
.570926,1.552869,
.558809,1.598121,
.539019,1.640582,
.512157,1.678961,
.479037,1.712092,
.440668,1.738969,
.398215,1.758775,
.352967,1.770908,
.3063,1.775,
.3062,1.775,
0.0,1.775,
0.0*
%
%ADD20MACRO20*%
%AMMACRO17*
4,1,41,0.0,-.675,
.1375,-.675,
.157035,-.673291,
.175977,-.668215,
.19375,-.659928,
.209814,-.64868,
.22368,-.634814,
.234928,-.61875,
.243215,-.600977,
.248291,-.582035,
.25,-.5625,
.25,.5625,
.248291,.582035,
.243215,.600977,
.234928,.61875,
.22368,.634814,
.209814,.64868,
.19375,.659928,
.175977,.668215,
.157035,.673291,
.1375,.675,
-.1375,.675,
-.157035,.673291,
-.175977,.668215,
-.19375,.659928,
-.209814,.64868,
-.22368,.634814,
-.234928,.61875,
-.243215,.600977,
-.248291,.582035,
-.25,.5625,
-.25,-.5625,
-.248291,-.582035,
-.243215,-.600977,
-.234928,-.61875,
-.22368,-.634814,
-.209814,-.64868,
-.19375,-.659928,
-.175977,-.668215,
-.157035,-.673291,
-.1375,-.675,
0.0,-.675,
0.0*
%
%ADD17MACRO17*%
%AMMACRO21*
4,1,45,0.0,1.325,
-.4312,1.325,
-.499575,1.319027,
-.565873,1.301271,
-.628082,1.272273,
-.684309,1.232912,
-.732848,1.184386,
-.772223,1.128168,
-.801237,1.065967,
-.819009,.999673,
-.825,.9313,
-.825,.9312,
-.825,-.9312,
-.819027,-.999575,
-.801271,-1.065873,
-.772273,-1.128082,
-.732912,-1.184309,
-.684386,-1.232848,
-.628168,-1.272223,
-.565967,-1.301237,
-.499673,-1.319009,
-.4313,-1.325,
-.4312,-1.325,
.4312,-1.325,
.499575,-1.319027,
.565873,-1.301271,
.628082,-1.272273,
.684309,-1.232912,
.732848,-1.184386,
.772223,-1.128168,
.801237,-1.065967,
.819009,-.999673,
.825,-.9313,
.825,-.9312,
.825,.9312,
.819027,.999575,
.801271,1.065873,
.772273,1.128082,
.732912,1.184309,
.684386,1.232848,
.628168,1.272223,
.565967,1.301237,
.499673,1.319009,
.4313,1.325,
.4312,1.325,
0.0,1.325,
0.0*
%
%ADD21MACRO21*%
%AMMACRO23*
4,1,40,-.185,.375,
.185,.375,
.217125,.372189,
.248274,.363843,
.2775,.350215,
.303916,.331718,
.326718,.308916,
.345215,.2825,
.358843,.253274,
.367189,.222125,
.37,.19,
.37,-.19,
.367189,-.222125,
.358843,-.253274,
.345215,-.2825,
.326718,-.308916,
.303916,-.331718,
.2775,-.350215,
.248274,-.363843,
.217125,-.372189,
.185,-.375,
-.185,-.375,
-.217125,-.372189,
-.248274,-.363843,
-.2775,-.350215,
-.303916,-.331718,
-.326718,-.308916,
-.345215,-.2825,
-.358843,-.253274,
-.367189,-.222125,
-.37,-.19,
-.37,.19,
-.367189,.222125,
-.358843,.253274,
-.345215,.2825,
-.326718,.308916,
-.303916,.331718,
-.2775,.350215,
-.248274,.363843,
-.217125,.372189,
-.185,.375,
0.0*
%
%ADD23MACRO23*%
%ADD12C,1.1*%
%ADD27C,1.2*%
%ADD11C,1.15*%
%ADD10C,1.42*%
%AMMACRO13*
4,1,41,-.85,0.0,
-.85,-.1438,
-.848377,-.162249,
-.843575,-.180137,
-.83574,-.196918,
-.82511,-.212084,
-.812008,-.225174,
-.796832,-.23579,
-.780043,-.243609,
-.762151,-.248395,
-.7438,-.25,
.7438,-.25,
.762249,-.248377,
.780137,-.243575,
.796918,-.23574,
.812084,-.22511,
.825174,-.212008,
.83579,-.196832,
.843609,-.180043,
.848395,-.162151,
.85,-.1438,
.85,.1438,
.848377,.162249,
.843575,.180137,
.83574,.196918,
.82511,.212084,
.812008,.225174,
.796832,.23579,
.780043,.243609,
.762151,.248395,
.7438,.25,
-.7438,.25,
-.762249,.248377,
-.780137,.243575,
-.796918,.23574,
-.812084,.22511,
-.825174,.212008,
-.83579,.196832,
-.843609,.180043,
-.848395,.162151,
-.85,.1438,
-.85,0.0,
0.0*
%
%ADD13MACRO13*%
%ADD31C,.1*%
G75*
%LPD*%
G75*
G54D10*
X134000Y534000D03*
X149000Y3082000D03*
X3812000Y154000D03*
G54D11*
X612000Y271000D03*
Y144000D03*
X485000Y271000D03*
Y144000D03*
X358000Y271000D03*
Y144000D03*
X231000Y271000D03*
Y144000D03*
X104000Y271000D03*
Y144000D03*
X2750000Y2622000D03*
X2623000D03*
X2496000D03*
X2369000D03*
X2242000D03*
X2750000Y2495000D03*
X2623000D03*
X2496000D03*
X2369000D03*
X2242000D03*
X3385000Y2622000D03*
X3258000D03*
X3131000D03*
X3004000D03*
X2877000D03*
X3385000Y2495000D03*
X3258000D03*
X3131000D03*
X3004000D03*
X2877000D03*
G54D20*
X2823790Y978630D03*
X2623790D03*
X2423790D03*
X1706790Y979210D03*
X1506790D03*
X1306790D03*
X1106790D03*
X3023790Y978630D03*
G54D12*
X202000Y789750D03*
X422000D03*
X202000Y1574750D03*
X422000D03*
G54D21*
X1365000Y2644500D03*
Y3064500D03*
G54D30*
X3021080Y2082790D03*
Y1882790D03*
Y1682790D03*
Y1482790D03*
G54D31*
G01X0Y3270000D02*
Y0D01*
X4000000D01*
Y2900000D01*
X1700000D01*
Y3270000D01*
X0D01*
G54D13*
X132000Y896500D03*
X492000D03*
X132000Y960000D03*
X492000D03*
X132000Y1023500D03*
X492000D03*
X132000Y1087000D03*
X492000D03*
X132000Y1150500D03*
X492000D03*
X132000Y1214000D03*
X492000D03*
X132000Y1277500D03*
X492000D03*
X132000Y1341000D03*
X492000D03*
X132000Y1404500D03*
X492000D03*
X132000Y1468000D03*
X492000D03*
G54D22*
X1994000Y1571000D03*
Y1661000D03*
X1728000Y1572000D03*
Y1662000D03*
X2081000Y1570000D03*
Y1660000D03*
X2167000Y1570000D03*
Y1660000D03*
X1640000Y1572000D03*
Y1662000D03*
G54D23*
X1908000Y1661000D03*
Y1571000D03*
X1819000Y1662000D03*
Y1572000D03*
X2358000Y1751000D03*
Y1661000D03*
X2262000D03*
Y1571000D03*
X1412710Y1662790D03*
Y1572790D03*
G54D14*
X866790Y229210D03*
X2183790Y228630D03*
X1946790Y229210D03*
X3263790Y228630D03*
G54D24*
X2699000Y1473000D03*
X2609000D03*
X2499000Y1562000D03*
X2409000D03*
G54D15*
X335000Y2644500D03*
Y3064500D03*
G54D16*
X625000Y2424500D03*
X1075000D03*
G54D25*
X2408000Y1467000D03*
Y1317000D03*
X2509000Y1466000D03*
Y1316000D03*
G54D17*
X720000Y2612000D03*
X785000D03*
X850000D03*
X915000D03*
X980000D03*
G54D26*
X2172000Y1233000D03*
Y1168000D03*
Y1103000D03*
X1952000D03*
Y1233000D03*
G54D27*
X3720500Y900000D03*
X3822000Y1662000D03*
X3619000D03*
G54D18*
X889000Y2288000D03*
Y2338000D03*
Y2388000D03*
X830000Y2288000D03*
Y2338000D03*
Y2388000D03*
G54D28*
X3846000Y513000D03*
G54D19*
X102920Y2094210D03*
X387920D03*
X102920Y2274210D03*
X387920D03*
G54D29*
X3771080Y2322790D03*
Y1242790D03*
M02*
