G04 ================== begin FILE IDENTIFICATION RECORD ==================*
G04 Layout Name:  DevPack_Debug.brd*
G04 Film Name:    soldmask_bottom*
G04 File Format:  Gerber RS274X*
G04 File Origin:  Cadence Allegro 16.6-S019*
G04 Origin Date:  Fri Oct 16 16:25:00 2015*
G04 *
G04 Layer:  BOARD GEOMETRY/SOLDERMASK_BOTTOM*
G04 Layer:  VIA CLASS/SOLDERMASK_BOTTOM*
G04 Layer:  PIN/SOLDERMASK_BOTTOM*
G04 Layer:  BOARD GEOMETRY/OUTLINE*
G04 *
G04 Offset:    (0.0000 0.0000)*
G04 Mirror:    No*
G04 Mode:      Positive*
G04 Rotation:  0*
G04 FullContactRelief:  No*
G04 UndefLineWidth:     0.1000*
G04 ================== end FILE IDENTIFICATION RECORD ====================*
%FSLAX25Y25*MOMM*%
%IR0*IPPOS*OFA0.00000B0.00000*MIA0B0*SFA1.00000B1.00000*%
%AMMACRO20*
4,1,40,-.105,-.23,
.105,-.23,
.123233,-.228405,
.140912,-.223668,
.1575,-.215933,
.172493,-.205435,
.185435,-.192493,
.195933,-.1775,
.203668,-.160912,
.208405,-.143233,
.21,-.125,
.21,.125,
.208405,.143233,
.203668,.160912,
.195933,.1775,
.185435,.192493,
.172493,.205435,
.1575,.215933,
.140912,.223668,
.123233,.228405,
.105,.23,
-.105,.23,
-.123233,.228405,
-.140912,.223668,
-.1575,.215933,
-.172493,.205435,
-.185435,.192493,
-.195933,.1775,
-.203668,.160912,
-.208405,.143233,
-.21,.125,
-.21,-.125,
-.208405,-.143233,
-.203668,-.160912,
-.195933,-.1775,
-.185435,-.192493,
-.172493,-.205435,
-.1575,-.215933,
-.140912,-.223668,
-.123233,-.228405,
-.105,-.23,
0.0*
%
%ADD20MACRO20*%
%ADD16O,1.65X.3*%
%ADD17O,.3X1.65*%
%AMMACRO25*
4,1,40,-.16,-.325,
.16,-.325,
.187784,-.322569,
.214723,-.315351,
.24,-.303564,
.262846,-.287567,
.282567,-.267846,
.298564,-.245,
.310351,-.219723,
.317569,-.192784,
.32,-.165,
.32,.165,
.317569,.192784,
.310351,.219723,
.298564,.245,
.282567,.267846,
.262846,.287567,
.24,.303564,
.214723,.315351,
.187784,.322569,
.16,.325,
-.16,.325,
-.187784,.322569,
-.214723,.315351,
-.24,.303564,
-.262846,.287567,
-.282567,.267846,
-.298564,.245,
-.310351,.219723,
-.317569,.192784,
-.32,.165,
-.32,-.165,
-.317569,-.192784,
-.310351,-.219723,
-.298564,-.245,
-.282567,-.267846,
-.262846,-.287567,
-.24,-.303564,
-.214723,-.315351,
-.187784,-.322569,
-.16,-.325,
0.0*
%
%ADD25MACRO25*%
%AMMACRO18*
4,1,40,.375,-.185,
.375,.185,
.372189,.217125,
.363843,.248274,
.350215,.2775,
.331718,.303916,
.308916,.326718,
.2825,.345215,
.253274,.358843,
.222125,.367189,
.19,.37,
-.19,.37,
-.222125,.367189,
-.253274,.358843,
-.2825,.345215,
-.308916,.326718,
-.331718,.303916,
-.350215,.2775,
-.363843,.248274,
-.372189,.217125,
-.375,.185,
-.375,-.185,
-.372189,-.217125,
-.363843,-.248274,
-.350215,-.2775,
-.331718,-.303916,
-.308916,-.326718,
-.2825,-.345215,
-.253274,-.358843,
-.222125,-.367189,
-.19,-.37,
.19,-.37,
.222125,-.367189,
.253274,-.358843,
.2825,-.345215,
.308916,-.326718,
.331718,-.303916,
.350215,-.2775,
.363843,-.248274,
.372189,-.217125,
.375,-.185,
0.0*
%
%ADD18MACRO18*%
%AMMACRO19*
4,1,40,-.185,-.375,
.185,-.375,
.217125,-.372189,
.248274,-.363843,
.2775,-.350215,
.303916,-.331718,
.326718,-.308916,
.345215,-.2825,
.358843,-.253274,
.367189,-.222125,
.37,-.19,
.37,.19,
.367189,.222125,
.358843,.253274,
.345215,.2825,
.326718,.308916,
.303916,.331718,
.2775,.350215,
.248274,.363843,
.217125,.372189,
.185,.375,
-.185,.375,
-.217125,.372189,
-.248274,.363843,
-.2775,.350215,
-.303916,.331718,
-.326718,.308916,
-.345215,.2825,
-.358843,.253274,
-.367189,.222125,
-.37,.19,
-.37,-.19,
-.367189,-.222125,
-.358843,-.253274,
-.345215,-.2825,
-.326718,-.308916,
-.303916,-.331718,
-.2775,-.350215,
-.248274,-.363843,
-.217125,-.372189,
-.185,-.375,
0.0*
%
%ADD19MACRO19*%
%ADD29C,.95*%
%AMMACRO13*
4,1,41,.85,0.0,
.85,-.1438,
.848377,-.162249,
.843575,-.180137,
.83574,-.196918,
.82511,-.212084,
.812008,-.225174,
.796832,-.23579,
.780043,-.243609,
.762151,-.248395,
.7438,-.25,
-.7438,-.25,
-.762249,-.248377,
-.780137,-.243575,
-.796918,-.23574,
-.812084,-.22511,
-.825174,-.212008,
-.83579,-.196832,
-.843609,-.180043,
-.848395,-.162151,
-.85,-.1438,
-.85,.1438,
-.848377,.162249,
-.843575,.180137,
-.83574,.196918,
-.82511,.212084,
-.812008,.225174,
-.796832,.23579,
-.780043,.243609,
-.762151,.248395,
-.7438,.25,
.7438,.25,
.762249,.248377,
.780137,.243575,
.796918,.23574,
.812084,.22511,
.825174,.212008,
.83579,.196832,
.843609,.180043,
.848395,.162151,
.85,.1438,
.85,0.0,
0.0*
%
%ADD13MACRO13*%
%AMMACRO28*
4,1,41,-.7747,0.0,
-.7747,.3556,
-.770056,.410985,
-.755865,.464722,
-.732558,.515179,
-.700844,.560821,
-.661686,.600264,
-.616273,.632307,
-.565987,.655978,
-.512354,.670557,
-.4572,.6756,
.4572,.6756,
.512547,.670522,
.566171,.65591,
.616443,.632208,
.661836,.600137,
.70097,.560671,
.732656,.515008,
.755932,.464537,
.770089,.410791,
.7747,.3556,
.7747,-.3556,
.770056,-.410985,
.755865,-.464722,
.732558,-.515179,
.700844,-.560821,
.661686,-.600264,
.616273,-.632307,
.565987,-.655978,
.512354,-.670557,
.4572,-.6756,
-.4572,-.6756,
-.512547,-.670522,
-.566171,-.65591,
-.616443,-.632208,
-.661836,-.600137,
-.70097,-.560671,
-.732656,-.515008,
-.755932,-.464537,
-.770089,-.410791,
-.7747,-.3556,
-.7747,0.0,
0.0*
%
%ADD28MACRO28*%
%AMMACRO24*
4,1,40,.105,.23,
-.105,.23,
-.123233,.228405,
-.140912,.223668,
-.1575,.215933,
-.172493,.205435,
-.185435,.192493,
-.195933,.1775,
-.203668,.160912,
-.208405,.143233,
-.21,.125,
-.21,-.125,
-.208405,-.143233,
-.203668,-.160912,
-.195933,-.1775,
-.185435,-.192493,
-.172493,-.205435,
-.1575,-.215933,
-.140912,-.223668,
-.123233,-.228405,
-.105,-.23,
.105,-.23,
.123233,-.228405,
.140912,-.223668,
.1575,-.215933,
.172493,-.205435,
.185435,-.192493,
.195933,-.1775,
.203668,-.160912,
.208405,-.143233,
.21,-.125,
.21,.125,
.208405,.143233,
.203668,.160912,
.195933,.1775,
.185435,.192493,
.172493,.205435,
.1575,.215933,
.140912,.223668,
.123233,.228405,
.105,.23,
0.0*
%
%ADD24MACRO24*%
%AMMACRO23*
4,1,40,-.23,.105,
-.23,-.105,
-.228405,-.123233,
-.223668,-.140912,
-.215933,-.1575,
-.205435,-.172493,
-.192493,-.185435,
-.1775,-.195933,
-.160912,-.203668,
-.143233,-.208405,
-.125,-.21,
.125,-.21,
.143233,-.208405,
.160912,-.203668,
.1775,-.195933,
.192493,-.185435,
.205435,-.172493,
.215933,-.1575,
.223668,-.140912,
.228405,-.123233,
.23,-.105,
.23,.105,
.228405,.123233,
.223668,.140912,
.215933,.1575,
.205435,.172493,
.192493,.185435,
.1775,.195933,
.160912,.203668,
.143233,.208405,
.125,.21,
-.125,.21,
-.143233,.208405,
-.160912,.203668,
-.1775,.195933,
-.192493,.185435,
-.205435,.172493,
-.215933,.1575,
-.223668,.140912,
-.228405,.123233,
-.23,.105,
0.0*
%
%ADD23MACRO23*%
%AMMACRO26*
4,1,40,.16,.325,
-.16,.325,
-.187784,.322569,
-.214723,.315351,
-.24,.303564,
-.262846,.287567,
-.282567,.267846,
-.298564,.245,
-.310351,.219723,
-.317569,.192784,
-.32,.165,
-.32,-.165,
-.317569,-.192784,
-.310351,-.219723,
-.298564,-.245,
-.282567,-.267846,
-.262846,-.287567,
-.24,-.303564,
-.214723,-.315351,
-.187784,-.322569,
-.16,-.325,
.16,-.325,
.187784,-.322569,
.214723,-.315351,
.24,-.303564,
.262846,-.287567,
.282567,-.267846,
.298564,-.245,
.310351,-.219723,
.317569,-.192784,
.32,-.165,
.32,.165,
.317569,.192784,
.310351,.219723,
.298564,.245,
.282567,.267846,
.262846,.287567,
.24,.303564,
.214723,.315351,
.187784,.322569,
.16,.325,
0.0*
%
%ADD26MACRO26*%
%ADD12C,1.1*%
%ADD27C,1.2*%
%AMMACRO15*
4,1,40,.185,.375,
-.185,.375,
-.217125,.372189,
-.248274,.363843,
-.2775,.350215,
-.303916,.331718,
-.326718,.308916,
-.345215,.2825,
-.358843,.253274,
-.367189,.222125,
-.37,.19,
-.37,-.19,
-.367189,-.222125,
-.358843,-.253274,
-.345215,-.2825,
-.326718,-.308916,
-.303916,-.331718,
-.2775,-.350215,
-.248274,-.363843,
-.217125,-.372189,
-.185,-.375,
.185,-.375,
.217125,-.372189,
.248274,-.363843,
.2775,-.350215,
.303916,-.331718,
.326718,-.308916,
.345215,-.2825,
.358843,-.253274,
.367189,-.222125,
.37,-.19,
.37,.19,
.367189,.222125,
.358843,.253274,
.345215,.2825,
.326718,.308916,
.303916,.331718,
.2775,.350215,
.248274,.363843,
.217125,.372189,
.185,.375,
0.0*
%
%ADD15MACRO15*%
%AMMACRO14*
4,1,40,-.375,.185,
-.375,-.185,
-.372189,-.217125,
-.363843,-.248274,
-.350215,-.2775,
-.331718,-.303916,
-.308916,-.326718,
-.2825,-.345215,
-.253274,-.358843,
-.222125,-.367189,
-.19,-.37,
.19,-.37,
.222125,-.367189,
.253274,-.358843,
.2825,-.345215,
.308916,-.326718,
.331718,-.303916,
.350215,-.2775,
.363843,-.248274,
.372189,-.217125,
.375,-.185,
.375,.185,
.372189,.217125,
.363843,.248274,
.350215,.2775,
.331718,.303916,
.308916,.326718,
.2825,.345215,
.253274,.358843,
.222125,.367189,
.19,.37,
-.19,.37,
-.222125,.367189,
-.253274,.358843,
-.2825,.345215,
-.308916,.326718,
-.331718,.303916,
-.350215,.2775,
-.363843,.248274,
-.372189,.217125,
-.375,.185,
0.0*
%
%ADD14MACRO14*%
%ADD11C,1.15*%
%ADD10C,1.42*%
%ADD22R,2.65X1.8*%
%AMMACRO21*
4,1,45,0.0,.5,
.1562,.5,
.176821,.498205,
.196818,.492856,
.215582,.484116,
.232543,.47225,
.247186,.457619,
.259066,.440668,
.267821,.421912,
.273187,.40192,
.275,.3813,
.275,.3812,
.275,-.3812,
.273205,-.401821,
.267856,-.421818,
.259116,-.440582,
.24725,-.457543,
.232619,-.472186,
.215668,-.484066,
.196912,-.492821,
.17692,-.498187,
.1563,-.5,
.1562,-.5,
-.1562,-.5,
-.176821,-.498205,
-.196818,-.492856,
-.215582,-.484116,
-.232543,-.47225,
-.247186,-.457619,
-.259066,-.440668,
-.267821,-.421912,
-.273187,-.40192,
-.275,-.3813,
-.275,-.3812,
-.275,.3812,
-.273205,.401821,
-.267856,.421818,
-.259116,.440582,
-.24725,.457543,
-.232619,.472186,
-.215668,.484066,
-.196912,.492821,
-.17692,.498187,
-.1563,.5,
-.1562,.5,
0.0,.5,
0.0*
%
%ADD21MACRO21*%
%ADD30C,.1*%
G75*
%LPD*%
G75*
G36*
G01X3736000Y703000D02*
Y323000D01*
X3950000D01*
Y703000D01*
X3736000D01*
G37*
G54D10*
X133000Y534000D03*
X149000Y3083000D03*
X3811000Y154000D03*
G54D11*
X612000Y271000D03*
Y144000D03*
X485000Y271000D03*
Y144000D03*
X358000Y271000D03*
Y144000D03*
X231000Y271000D03*
Y144000D03*
X104000Y271000D03*
Y144000D03*
X2750000Y2622000D03*
X2623000D03*
X2496000D03*
X2369000D03*
X2242000D03*
X2750000Y2495000D03*
X2623000D03*
X2496000D03*
X2369000D03*
X2242000D03*
X3385000Y2622000D03*
X3258000D03*
X3131000D03*
X3004000D03*
X2877000D03*
X3385000Y2495000D03*
X3258000D03*
X3131000D03*
X3004000D03*
X2877000D03*
G54D20*
X1762000Y2700000D03*
Y2756000D03*
G54D30*
G01X0Y3270000D02*
Y0D01*
X4000000D01*
Y2900000D01*
X1700000D01*
Y3270000D01*
X0D01*
G54D21*
X1615210Y2481710D03*
X1550210D03*
X1485210D03*
X1420210D03*
X1615210Y2781710D03*
X1550210D03*
X1485210D03*
X1420210D03*
G54D12*
X202000Y789750D03*
X422000D03*
X202000Y1574750D03*
X422000D03*
G54D22*
X1517710Y2631710D03*
G54D13*
X492000Y896500D03*
X132000D03*
X492000Y960000D03*
X132000D03*
X492000Y1023500D03*
X132000D03*
X492000Y1087000D03*
X132000D03*
X492000Y1150500D03*
X132000D03*
X492000Y1214000D03*
X132000D03*
X492000Y1277500D03*
X132000D03*
X492000Y1341000D03*
X132000D03*
X492000Y1404500D03*
X132000D03*
X492000Y1468000D03*
X132000D03*
G54D14*
X631000Y936000D03*
X721000D03*
X604790Y1603210D03*
X2391000Y404000D03*
X2481000D03*
X2391000Y326000D03*
X2481000D03*
G54D23*
X1712580Y2610290D03*
X1768580D03*
G54D15*
X681000Y2396000D03*
Y2306000D03*
X694790Y1693210D03*
Y1603210D03*
X1157000Y2426000D03*
Y2336000D03*
X2946000Y537000D03*
Y447000D03*
X3125000Y1377000D03*
Y1287000D03*
G54D24*
X1712290Y2700130D03*
Y2756130D03*
G54D25*
X1821000Y2686000D03*
Y2766000D03*
G54D16*
X1432000Y887000D03*
Y847000D03*
Y807000D03*
Y767000D03*
Y727000D03*
Y687000D03*
Y1927000D03*
Y1887000D03*
Y1847000D03*
Y1807000D03*
Y1767000D03*
Y1727000D03*
Y1687000D03*
Y1647000D03*
Y1607000D03*
Y1567000D03*
Y1527000D03*
Y1487000D03*
Y1447000D03*
Y1407000D03*
Y1367000D03*
Y1327000D03*
Y1287000D03*
Y1247000D03*
Y1207000D03*
Y1167000D03*
Y1127000D03*
Y1087000D03*
Y1047000D03*
Y1007000D03*
Y967000D03*
Y927000D03*
X2972000Y687000D03*
Y727000D03*
Y767000D03*
Y807000D03*
Y847000D03*
Y887000D03*
Y927000D03*
Y967000D03*
Y1007000D03*
Y1047000D03*
Y1087000D03*
Y1127000D03*
Y1167000D03*
Y1207000D03*
Y1247000D03*
Y1287000D03*
Y1327000D03*
Y1367000D03*
Y1407000D03*
Y1447000D03*
Y1487000D03*
Y1527000D03*
Y1567000D03*
Y1607000D03*
Y1647000D03*
Y1687000D03*
Y1727000D03*
Y1767000D03*
Y1807000D03*
Y1847000D03*
Y1887000D03*
Y1927000D03*
G54D26*
X1325000Y2870000D03*
Y2790000D03*
G54D17*
X1582000Y537000D03*
X1622000D03*
X1662000D03*
X1702000D03*
X1742000D03*
X1782000D03*
X1822000D03*
X1862000D03*
X1902000D03*
X1942000D03*
X1982000D03*
X2022000D03*
X2062000D03*
X2102000D03*
X2142000D03*
X2182000D03*
X2222000D03*
X2262000D03*
X2302000D03*
X2342000D03*
X2382000D03*
X2422000D03*
X2462000D03*
X2502000D03*
X2542000D03*
X2582000D03*
X2622000D03*
X2662000D03*
X2702000D03*
X2742000D03*
X2782000D03*
Y2077000D03*
X2742000D03*
X2702000D03*
X2662000D03*
X2622000D03*
X2582000D03*
X2542000D03*
X2502000D03*
X2462000D03*
X2422000D03*
X2382000D03*
X2342000D03*
X2302000D03*
X2262000D03*
X2222000D03*
X2182000D03*
X2142000D03*
X2102000D03*
X2062000D03*
X2022000D03*
X1982000D03*
X1942000D03*
X1902000D03*
X1862000D03*
X1822000D03*
X1782000D03*
X1742000D03*
X1702000D03*
X1662000D03*
X1622000D03*
X1582000D03*
X2822000Y537000D03*
Y2077000D03*
G54D27*
X3720500Y900000D03*
X3822000Y1662000D03*
X3619000D03*
G54D18*
X2654000Y326000D03*
X2564000D03*
X2655000Y405000D03*
X2565000D03*
X1833000Y393000D03*
X1743000D03*
X2568000Y244000D03*
X2478000D03*
X1832000Y2232000D03*
X1742000D03*
X2732000Y2303000D03*
X3134000Y538000D03*
X3044000D03*
X3539000Y1935000D03*
X3449000D03*
X2912000Y2212000D03*
X2822000D03*
Y2303000D03*
G54D28*
X3449000Y2227000D03*
X3229000D03*
Y2057000D03*
X3449000D03*
G54D19*
X1169000Y1318000D03*
Y1408000D03*
X1258000Y1318000D03*
Y1408000D03*
X3125000Y1102000D03*
Y1192000D03*
X3218000Y1102000D03*
Y1192000D03*
X3126000Y1591000D03*
Y1681000D03*
X3093000Y2139000D03*
Y2229000D03*
X3311000Y1102000D03*
Y1192000D03*
G54D29*
X3784000Y1535000D03*
Y1408000D03*
Y1281000D03*
Y1154000D03*
Y1027000D03*
X3657000Y1535000D03*
Y1408000D03*
Y1281000D03*
Y1154000D03*
Y1027000D03*
M02*
