G04 ================== begin FILE IDENTIFICATION RECORD ==================*
G04 Layout Name:  DevPack_Debug.brd*
G04 Film Name:    Top*
G04 File Format:  Gerber RS274X*
G04 File Origin:  Cadence Allegro 16.6-S019*
G04 Origin Date:  Fri Oct 16 16:25:00 2015*
G04 *
G04 Layer:  BOARD GEOMETRY/OUTLINE*
G04 Layer:  DRAWING FORMAT/ANTENNA_GROUND*
G04 Layer:  VIA CLASS/TOP*
G04 Layer:  PIN/TOP*
G04 Layer:  ETCH/TOP*
G04 *
G04 Offset:    (0.0000 0.0000)*
G04 Mirror:    No*
G04 Mode:      Positive*
G04 Rotation:  0*
G04 FullContactRelief:  No*
G04 UndefLineWidth:     0.1000*
G04 ================== end FILE IDENTIFICATION RECORD ====================*
%FSLAX25Y25*MOMM*%
%IR0*IPPOS*OFA0.00000B0.00000*MIA0B0*SFA1.00000B1.00000*%
%AMMACRO29*
4,1,41,1.8,0.0,
1.8,.3937,
1.794596,.455563,
1.778533,.515548,
1.752297,.571832,
1.716685,.622705,
1.672781,.666621,
1.621918,.702247,
1.565642,.728498,
1.505661,.744579,
1.4438,.75,
-1.4438,.75,
-1.505661,.744579,
-1.565642,.728498,
-1.621918,.702247,
-1.672781,.666621,
-1.716685,.622705,
-1.752297,.571832,
-1.778533,.515548,
-1.794596,.455563,
-1.8,.3937,
-1.8,-.3937,
-1.794596,-.455563,
-1.778533,-.515548,
-1.752297,-.571832,
-1.716685,-.622705,
-1.672781,-.666621,
-1.621918,-.702247,
-1.565642,-.728498,
-1.505661,-.744579,
-1.4438,-.75,
1.4438,-.75,
1.505661,-.744579,
1.565642,-.728498,
1.621918,-.702247,
1.672781,-.666621,
1.716685,-.622705,
1.752297,-.571832,
1.778533,-.515548,
1.794596,-.455563,
1.8,-.3937,
1.8,0.0,
0.0*
%
%ADD29MACRO29*%
%AMMACRO14*
4,1,43,0.0,-1.8,
.3937,-1.8,
.455563,-1.794596,
.515548,-1.778533,
.571832,-1.752297,
.622705,-1.716685,
.666621,-1.672781,
.702247,-1.621918,
.728498,-1.565642,
.744579,-1.505661,
.75,-1.4438,
.75,1.4438,
.744579,1.505661,
.728498,1.565642,
.702247,1.621918,
.666621,1.672781,
.622705,1.716685,
.571832,1.752297,
.515548,1.778533,
.455563,1.794596,
.3937,1.8,
.3937,1.8,
-.3937,1.8,
-.455563,1.794596,
-.515548,1.778533,
-.571832,1.752297,
-.622705,1.716685,
-.666621,1.672781,
-.702247,1.621918,
-.728498,1.565642,
-.744579,1.505661,
-.75,1.4438,
-.75,1.4438,
-.75,-1.4438,
-.744579,-1.505661,
-.728498,-1.565642,
-.702247,-1.621918,
-.666621,-1.672781,
-.622705,-1.716685,
-.571832,-1.752297,
-.515548,-1.778533,
-.455563,-1.794596,
-.3937,-1.8,
0.0,-1.8,
0.0*
%
%ADD14MACRO14*%
%AMMACRO25*
4,1,40,.325,.16,
.325,-.16,
.322569,-.187784,
.315351,-.214723,
.303564,-.24,
.287567,-.262846,
.267846,-.282567,
.245,-.298564,
.219723,-.310351,
.192784,-.317569,
.165,-.32,
-.165,-.32,
-.192784,-.317569,
-.219723,-.310351,
-.245,-.298564,
-.267846,-.282567,
-.287567,-.262846,
-.303564,-.24,
-.315351,-.214723,
-.322569,-.187784,
-.325,-.16,
-.325,.16,
-.322569,.187784,
-.315351,.214723,
-.303564,.24,
-.287567,.262846,
-.267846,.282567,
-.245,.298564,
-.219723,.310351,
-.192784,.317569,
-.165,.32,
.165,.32,
.192784,.317569,
.219723,.310351,
.245,.298564,
.267846,.282567,
.287567,.262846,
.303564,.24,
.315351,.214723,
.322569,.187784,
.325,.16,
0.0*
%
%ADD25MACRO25*%
%AMMACRO23*
4,1,40,.16,-.325,
-.16,-.325,
-.187784,-.322569,
-.214723,-.315351,
-.24,-.303564,
-.262846,-.287567,
-.282567,-.267846,
-.298564,-.245,
-.310351,-.219723,
-.317569,-.192784,
-.32,-.165,
-.32,.165,
-.317569,.192784,
-.310351,.219723,
-.298564,.245,
-.282567,.267846,
-.262846,.287567,
-.24,.303564,
-.214723,.315351,
-.187784,.322569,
-.16,.325,
.16,.325,
.187784,.322569,
.214723,.315351,
.24,.303564,
.262846,.287567,
.282567,.267846,
.298564,.245,
.310351,.219723,
.317569,.192784,
.32,.165,
.32,-.165,
.317569,-.192784,
.310351,-.219723,
.298564,-.245,
.282567,-.267846,
.262846,-.287567,
.24,-.303564,
.214723,-.315351,
.187784,-.322569,
.16,-.325,
0.0*
%
%ADD23MACRO23*%
%ADD12C,.1*%
%AMMACRO26*
4,1,45,.375,0.0,
.375,.2062,
.372445,.235504,
.36484,.263919,
.352417,.290582,
.335552,.314682,
.314759,.335488,
.290668,.352367,
.264013,.364806,
.235602,.372428,
.2063,.375,
.2062,.375,
-.2062,.375,
-.235504,.372445,
-.263919,.36484,
-.290582,.352417,
-.314682,.335552,
-.335488,.314759,
-.352367,.290668,
-.364806,.264013,
-.372428,.235602,
-.375,.2063,
-.375,.2062,
-.375,-.2062,
-.372445,-.235504,
-.36484,-.263919,
-.352417,-.290582,
-.335552,-.314682,
-.314759,-.335488,
-.290668,-.352367,
-.264013,-.364806,
-.235602,-.372428,
-.2063,-.375,
-.2062,-.375,
.2062,-.375,
.235504,-.372445,
.263919,-.36484,
.290582,-.352417,
.314682,-.335552,
.335488,-.314759,
.352367,-.290668,
.364806,-.264013,
.372428,-.235602,
.375,-.2063,
.375,-.2062,
.375,0.0,
0.0*
%
%ADD26MACRO26*%
%ADD15C,.5*%
%AMMACRO30*
4,1,41,-1.7,0.0,
-1.7,-.2688,
-1.696478,-.308955,
-1.686037,-.347889,
-1.668993,-.384418,
-1.645866,-.417433,
-1.617356,-.44593,
-1.584332,-.469043,
-1.547795,-.486071,
-1.508857,-.496495,
-1.4688,-.5,
1.4688,-.5,
1.508955,-.496478,
1.547889,-.486037,
1.584418,-.468993,
1.617433,-.445866,
1.64593,-.417356,
1.669043,-.384332,
1.686071,-.347795,
1.696495,-.308857,
1.7,-.2688,
1.7,.2688,
1.696478,.308955,
1.686037,.347889,
1.668993,.384418,
1.645866,.417433,
1.617356,.44593,
1.584332,.469043,
1.547795,.486071,
1.508857,.496495,
1.4688,.5,
-1.4688,.5,
-1.508955,.496478,
-1.547889,.486037,
-1.584418,.468993,
-1.617433,.445866,
-1.64593,.417356,
-1.669043,.384332,
-1.686071,.347795,
-1.696495,.308857,
-1.7,.2688,
-1.7,0.0,
0.0*
%
%ADD30MACRO30*%
%AMMACRO21*
4,1,41,0.0,1.7,
-.2688,1.7,
-.308955,1.696478,
-.347889,1.686037,
-.384418,1.668993,
-.417433,1.645866,
-.44593,1.617356,
-.469043,1.584332,
-.486071,1.547795,
-.496495,1.508857,
-.5,1.4688,
-.5,-1.4688,
-.496478,-1.508955,
-.486037,-1.547889,
-.468993,-1.584418,
-.445866,-1.617433,
-.417356,-1.64593,
-.384332,-1.669043,
-.347795,-1.686071,
-.308857,-1.696495,
-.2688,-1.7,
.2688,-1.7,
.308955,-1.696478,
.347889,-1.686037,
.384418,-1.668993,
.417433,-1.645866,
.44593,-1.617356,
.469043,-1.584332,
.486071,-1.547795,
.496495,-1.508857,
.5,-1.4688,
.5,1.4688,
.496478,1.508955,
.486037,1.547889,
.468993,1.584418,
.445866,1.617433,
.417356,1.64593,
.384332,1.669043,
.347795,1.686071,
.308857,1.696495,
.2688,1.7,
0.0,1.7,
0.0*
%
%ADD21MACRO21*%
%AMMACRO20*
4,1,41,0.0,.375,
-.175,.375,
-.205388,.372341,
-.234854,.364446,
-.2625,.351554,
-.287488,.334058,
-.309058,.312488,
-.326554,.2875,
-.339446,.259854,
-.347341,.230388,
-.35,.2,
-.35,-.2,
-.347341,-.230388,
-.339446,-.259854,
-.326554,-.2875,
-.309058,-.312488,
-.287488,-.334058,
-.2625,-.351554,
-.234854,-.364446,
-.205388,-.372341,
-.175,-.375,
.175,-.375,
.205388,-.372341,
.234854,-.364446,
.2625,-.351554,
.287488,-.334058,
.309058,-.312488,
.326554,-.2875,
.339446,-.259854,
.347341,-.230388,
.35,-.2,
.35,.2,
.347341,.230388,
.339446,.259854,
.326554,.2875,
.309058,.312488,
.287488,.334058,
.2625,.351554,
.234854,.364446,
.205388,.372341,
.175,.375,
0.0,.375,
0.0*
%
%ADD20MACRO20*%
%AMMACRO19*
4,1,45,-.2,0.0,
-.2,-.0812,
-.198964,-.093139,
-.195871,-.104717,
-.190814,-.115582,
-.183948,-.125403,
-.17548,-.133883,
-.165668,-.140764,
-.154811,-.145837,
-.143238,-.148947,
-.1313,-.15,
-.1312,-.15,
.1312,-.15,
.143139,-.148964,
.154717,-.145871,
.165582,-.140814,
.175403,-.133948,
.183883,-.12548,
.190764,-.115668,
.195837,-.104811,
.198947,-.093238,
.2,-.0813,
.2,-.0812,
.2,.0812,
.198964,.093139,
.195871,.104717,
.190814,.115582,
.183948,.125403,
.17548,.133883,
.165668,.140764,
.154811,.145837,
.143238,.148947,
.1313,.15,
.1312,.15,
-.1312,.15,
-.143139,.148964,
-.154717,.145871,
-.165582,.140814,
-.175403,.133948,
-.183883,.12548,
-.190764,.115668,
-.195837,.104811,
-.198947,.093238,
-.2,.0813,
-.2,.0812,
-.2,0.0,
0.0*
%
%ADD19MACRO19*%
%AMMACRO22*
4,1,42,0.0,1.25,
-.3937,1.25,
-.455563,1.244596,
-.515548,1.228533,
-.571832,1.202297,
-.622705,1.166685,
-.666621,1.122781,
-.702247,1.071918,
-.728498,1.015642,
-.744579,.955661,
-.75,.8938,
-.75,.8938,
-.75,-.8938,
-.744579,-.955661,
-.728498,-1.015642,
-.702247,-1.071918,
-.666621,-1.122781,
-.622705,-1.166685,
-.571832,-1.202297,
-.515548,-1.228533,
-.455563,-1.244596,
-.3937,-1.25,
.3937,-1.25,
.455563,-1.244596,
.515548,-1.228533,
.571832,-1.202297,
.622705,-1.166685,
.666621,-1.122781,
.702247,-1.071918,
.728498,-1.015642,
.744579,-.955661,
.75,-.8938,
.75,.8938,
.744579,.955661,
.728498,1.015642,
.702247,1.071918,
.666621,1.122781,
.622705,1.166685,
.571832,1.202297,
.515548,1.228533,
.455563,1.244596,
.3937,1.25,
0.0,1.25,
0.0*
%
%ADD22MACRO22*%
%AMMACRO18*
4,1,41,0.0,-.625,
.1125,-.625,
.127694,-.623671,
.142427,-.619723,
.15625,-.613277,
.168744,-.604529,
.179529,-.593744,
.188277,-.58125,
.194723,-.567427,
.198671,-.552694,
.2,-.5375,
.2,.5375,
.198671,.552694,
.194723,.567427,
.188277,.58125,
.179529,.593744,
.168744,.604529,
.15625,.613277,
.142427,.619723,
.127694,.623671,
.1125,.625,
-.1125,.625,
-.127694,.623671,
-.142427,.619723,
-.15625,.613277,
-.168744,.604529,
-.179529,.593744,
-.188277,.58125,
-.194723,.567427,
-.198671,.552694,
-.2,.5375,
-.2,-.5375,
-.198671,-.552694,
-.194723,-.567427,
-.188277,-.58125,
-.179529,-.593744,
-.168744,-.604529,
-.15625,-.613277,
-.142427,-.619723,
-.127694,-.623671,
-.1125,-.625,
0.0,-.625,
0.0*
%
%ADD18MACRO18*%
%AMMACRO28*
4,1,41,0.0,1.825,
-.5125,1.825,
-.601495,1.817214,
-.687785,1.794092,
-.76875,1.756338,
-.841929,1.705098,
-.905098,1.641929,
-.956338,1.56875,
-.994092,1.487785,
-1.017214,1.401495,
-1.025,1.3125,
-1.025,-1.3125,
-1.017214,-1.401495,
-.994092,-1.487785,
-.956338,-1.56875,
-.905098,-1.641929,
-.841929,-1.705098,
-.76875,-1.756338,
-.687785,-1.794092,
-.601495,-1.817214,
-.5125,-1.825,
.5125,-1.825,
.601495,-1.817214,
.687785,-1.794092,
.76875,-1.756338,
.841929,-1.705098,
.905098,-1.641929,
.956338,-1.56875,
.994092,-1.487785,
1.017214,-1.401495,
1.025,-1.3125,
1.025,1.3125,
1.017214,1.401495,
.994092,1.487785,
.956338,1.56875,
.905098,1.641929,
.841929,1.705098,
.76875,1.756338,
.687785,1.794092,
.601495,1.817214,
.5125,1.825,
0.0,1.825,
0.0*
%
%ADD28MACRO28*%
%AMMACRO24*
4,1,40,-.16,.325,
.16,.325,
.187784,.322569,
.214723,.315351,
.24,.303564,
.262846,.287567,
.282567,.267846,
.298564,.245,
.310351,.219723,
.317569,.192784,
.32,.165,
.32,-.165,
.317569,-.192784,
.310351,-.219723,
.298564,-.245,
.282567,-.267846,
.262846,-.287567,
.24,-.303564,
.214723,-.315351,
.187784,-.322569,
.16,-.325,
-.16,-.325,
-.187784,-.322569,
-.214723,-.315351,
-.24,-.303564,
-.262846,-.287567,
-.282567,-.267846,
-.298564,-.245,
-.310351,-.219723,
-.317569,-.192784,
-.32,-.165,
-.32,.165,
-.317569,.192784,
-.310351,.219723,
-.298564,.245,
-.282567,.267846,
-.262846,.287567,
-.24,.303564,
-.214723,.315351,
-.187784,.322569,
-.16,.325,
0.0*
%
%ADD24MACRO24*%
%ADD27O,.9X.4*%
%ADD11C,1.*%
%ADD10C,1.27*%
%AMMACRO13*
4,1,41,-.8,0.0,
-.8,-.1188,
-.798757,-.132908,
-.795083,-.146586,
-.78909,-.159418,
-.780959,-.171015,
-.770938,-.181023,
-.759332,-.18914,
-.746492,-.195117,
-.73281,-.198774,
-.7188,-.2,
.7188,-.2,
.732908,-.198757,
.746586,-.195083,
.759418,-.18909,
.771015,-.180959,
.781023,-.170938,
.78914,-.159332,
.795117,-.146492,
.798774,-.13281,
.8,-.1188,
.8,.1188,
.798757,.132908,
.795083,.146586,
.78909,.159418,
.780959,.171015,
.770938,.181023,
.759332,.18914,
.746492,.195117,
.73281,.198774,
.7188,.2,
-.7188,.2,
-.732908,.198757,
-.746586,.195083,
-.759418,.18909,
-.771015,.180959,
-.781023,.170938,
-.78914,.159332,
-.795117,.146492,
-.798774,.13281,
-.8,.1188,
-.8,0.0,
0.0*
%
%ADD13MACRO13*%
%AMMACRO17*
4,1,41,1.25,0.0,
1.25,.3937,
1.244596,.455563,
1.228533,.515548,
1.202297,.571832,
1.166685,.622705,
1.122781,.666621,
1.071918,.702247,
1.015642,.728498,
.955661,.744579,
.8938,.75,
-.8938,.75,
-.955661,.744579,
-1.015642,.728498,
-1.071918,.702247,
-1.122781,.666621,
-1.166685,.622705,
-1.202297,.571832,
-1.228533,.515548,
-1.244596,.455563,
-1.25,.3937,
-1.25,-.3937,
-1.244596,-.455563,
-1.228533,-.515548,
-1.202297,-.571832,
-1.166685,-.622705,
-1.122781,-.666621,
-1.071918,-.702247,
-1.015642,-.728498,
-.955661,-.744579,
-.8938,-.75,
.8938,-.75,
.955661,-.744579,
1.015642,-.728498,
1.071918,-.702247,
1.122781,-.666621,
1.166685,-.622705,
1.202297,-.571832,
1.228533,-.515548,
1.244596,-.455563,
1.25,-.3937,
1.25,0.0,
0.0*
%
%ADD17MACRO17*%
%AMMACRO16*
4,1,42,0.0,-1.25,
.3937,-1.25,
.455563,-1.244596,
.515548,-1.228533,
.571832,-1.202297,
.622705,-1.166685,
.666621,-1.122781,
.702247,-1.071918,
.728498,-1.015642,
.744579,-.955661,
.75,-.8938,
.75,.8938,
.744579,.955661,
.728498,1.015642,
.702247,1.071918,
.666621,1.122781,
.622705,1.166685,
.571832,1.202297,
.515548,1.228533,
.455563,1.244596,
.3937,1.25,
-.3937,1.25,
-.455563,1.244596,
-.515548,1.228533,
-.571832,1.202297,
-.622705,1.166685,
-.666621,1.122781,
-.702247,1.071918,
-.728498,1.015642,
-.744579,.955661,
-.75,.8938,
-.75,.8938,
-.75,-.8938,
-.744579,-.955661,
-.728498,-1.015642,
-.702247,-1.071918,
-.666621,-1.122781,
-.622705,-1.166685,
-.571832,-1.202297,
-.515548,-1.228533,
-.455563,-1.244596,
-.3937,-1.25,
0.0,-1.25,
0.0*
%
%ADD16MACRO16*%
%ADD31C,.2*%
%ADD32C,.3*%
%ADD33C,.4*%
%ADD34C,.15*%
%ADD35O,1.2006X.7006*%
%ADD36C,1.2006*%
%ADD37C,1.3006*%
G75*
%LPD*%
G75*
G36*
G01X50010Y60000D02*
Y66080D01*
G02X54530Y74440I9991J0D01*
G01X68520Y83600D01*
G02X77990Y84400I5475J-8358D01*
G03X147240Y192570I26008J59602D01*
G02X143890Y200030I6641J7465D01*
G01Y214970D01*
G02X147240Y222430I9991J-5D01*
G03X152570Y227760I-43240J48570D01*
G02X160030Y231110I7465J-6641D01*
G01X174970D01*
G02X182430Y227760I-5J-9991D01*
G03X279570I48570J43240D01*
G02X287030Y231110I7465J-6641D01*
G01X301970D01*
G02X309430Y227760I-5J-9991D01*
G03X406570I48570J43240D01*
G02X414030Y231110I7465J-6641D01*
G01X428970D01*
G02X436430Y227760I-5J-9991D01*
G03X441760Y222430I48570J43240D01*
G02X445110Y214970I-6641J-7465D01*
G01Y200030D01*
G02X441760Y192570I-9991J5D01*
G03X528240I43240J-48570D01*
G02X524890Y200030I6641J7465D01*
G01Y214970D01*
G02X528240Y222430I9991J-5D01*
G03X533570Y227760I-43240J48570D01*
G02X541030Y231110I7465J-6641D01*
G01X555970D01*
G02X563430Y227760I-5J-9991D01*
G03X663640Y310520I48569J43239D01*
G02X664510Y323660I7932J6074D01*
G01X747120Y406270D01*
G02X754190Y409200I7068J-7060D01*
G01X758520D01*
G02X766330Y405440I1J-9990D01*
G01X776080Y393230D01*
G02X778020Y384790I-7805J-6237D01*
G01X778010D01*
G03X776760Y373590I49407J-11184D01*
G01Y84830D01*
G03X777890Y74200I50655J10D01*
G02X775890Y65820I-9766J-2098D01*
G01X766120Y53720D01*
G02X758350Y50010I-7770J6281D01*
G01X60000D01*
G02X50010Y60000I0J9990D01*
G37*
G36*
G01X406570Y314240D02*
G03X395720Y323980I-48594J-43219D01*
G02X391520Y332110I5788J8140D01*
G01Y546190D01*
G03X388590Y553250I-9988J-7D01*
G01X358450Y583400D01*
G02X355520Y590470I7060J7068D01*
G01Y658490D01*
G02X365510Y668480I9990J0D01*
G01X438190D01*
G03X445250Y671410I-7J9988D01*
G01X564300Y790450D01*
X565500Y791130D01*
G03X578700Y844440I-18501J32870D01*
G02X577140Y850730I8394J5420D01*
G01X578220Y862950D01*
G02X580850Y868870I9949J-876D01*
G03X587030Y884620I-16977J15749D01*
G01Y908380D01*
G03X583800Y920170I-23155J-6D01*
G02X582410Y925260I8599J5083D01*
G01Y931240D01*
G02X583800Y936330I9989J7D01*
G03X587030Y948120I-19925J11796D01*
G01Y971880D01*
G03X586490Y976860I-23156J8D01*
G02X599860Y988330I9759J2152D01*
G03X614850Y985800I13644J35168D01*
G02X622270Y982880I356J-9982D01*
G01X622550Y982600D01*
G02X625480Y975530I-7060J-7068D01*
G01Y516310D01*
G03X628410Y509250I9988J7D01*
G01X700340Y437310D01*
G02Y423190I-7066J-7060D01*
G01X649600Y372450D01*
G02X642530Y369520I-7068J7060D01*
G01X555810D01*
G03X548750Y366590I7J-9988D01*
G01X516880Y334730D01*
G02X506510Y332370I-7062J7066D01*
G03X436430Y314240I-21509J-61370D01*
G02X428970Y310890I-7465J6641D01*
G01X414030D01*
G02X406570Y314240I5J9991D01*
G37*
G36*
G01X769510Y504950D02*
X721950Y552510D01*
G02X719020Y559570I7059J7067D01*
G01Y1166810D01*
G02X727540Y1176690I9990J-2D01*
G01X727550D01*
G03X756010Y1197680I-5548J37311D01*
G01X756750Y1199220D01*
X764580Y1207050D01*
G02X771640Y1209980I7068J-7059D01*
G01X879880D01*
X881490Y1209410D01*
G03X897260Y1207420I12502J35590D01*
G02X904880Y1204830I868J-9952D01*
G01X915740Y1194870D01*
G02X918980Y1187510I-6749J-7364D01*
G01Y988970D01*
G02X916050Y981900I-9990J-2D01*
G01X911770Y977620D01*
G02X904350Y974700I-7064J7062D01*
G03X896770Y899800I-1355J-37696D01*
G02X902620Y896550I-1648J-9856D01*
G01X906830Y891760D01*
G02X909310Y885550I-7504J-6597D01*
G03X911020Y875680I37691J1447D01*
G01X911480Y874210D01*
Y823260D01*
G02X902850Y813370I-9989J6D01*
G03X945700Y777350I5152J-37369D01*
G02X948620Y784770I9982J356D01*
G01X956030Y792180D01*
G02X967470Y794100I7067J-7063D01*
G01Y794090D01*
G03X1021700Y829350I16531J33908D01*
G01X1021620Y831430D01*
X1023140Y835290D01*
X1024020Y836170D01*
Y1294990D01*
G02X1034010Y1304980I9990J0D01*
G01X1232020D01*
G02X1239080Y1302050I-7J-9989D01*
G01X1273840Y1267290D01*
G02X1276770Y1260230I-7059J-7067D01*
G01Y1172400D01*
G02X1269510Y1162790I-9991J1D01*
G01X1269500D01*
G03X1241760Y1126090I10415J-36706D01*
G01Y832330D01*
G03X1279910Y794180I38155J5D01*
G01X1333670D01*
G03X1371820Y832330I-5J38155D01*
G01Y1126090D01*
G03X1344080Y1162790I-38155J-6D01*
G01X1344070D01*
G02X1336810Y1172400I2731J9611D01*
G01Y1285100D01*
G03X1333880Y1292160I-9989J-8D01*
G01X1285120Y1340920D01*
G02X1282960Y1351810I7068J7061D01*
G02X1292190Y1357980I9231J-3820D01*
G01X2022990D01*
G02X2032980Y1347990I0J-9990D01*
G01Y960640D01*
G02X2030050Y953580I-9989J8D01*
G01X1870380Y793910D01*
G02X1862880Y790990I-7067J7061D01*
G01X1848140Y791640D01*
G02X1840920Y795210I444J9983D01*
G03X1784390Y796700I-28923J-24211D01*
G02X1777080Y793520I-7309J6810D01*
G01X1772230D01*
G02X1762240Y803510I0J9990D01*
G01Y803520D01*
G02X1764230Y809500I9991J-4D01*
G03X1771820Y832330I-30564J22838D01*
G01Y1126090D01*
G03X1733670Y1164240I-38155J-5D01*
G01X1679910D01*
G03X1641760Y1126090I5J-38155D01*
G01Y832330D01*
G03X1641800Y830650I38154J68D01*
G02X1638880Y823150I-9981J-432D01*
G01X1627170Y811440D01*
G02X1620100Y808510I-7068J7060D01*
G01X1591680D01*
G02X1584390Y811670I1J9990D01*
G01X1574410Y822330D01*
G02X1571740Y829820I7297J6822D01*
G03X1571820Y832330I-38076J2470D01*
G01Y1126090D01*
G03X1533670Y1164240I-38155J-5D01*
G01X1479910D01*
G03X1441760Y1126090I5J-38155D01*
G01Y832330D01*
G03X1441800Y830650I38154J68D01*
G02X1438880Y823150I-9981J-432D01*
G01X1346180Y730450D01*
G02X1339110Y727520I-7068J7060D01*
G01X1129380D01*
G03X1122320Y724590I7J-9988D01*
G01X1022170Y624450D01*
G02X1015100Y621520I-7068J7060D01*
G01X989810D01*
G03X982750Y618590I7J-9988D01*
G01X954770Y590620D01*
G02X947350Y587700I-7064J7062D01*
G03X913010Y531710I-1350J-37697D01*
G01X913020Y531700D01*
G02X912890Y521790I-8740J-4841D01*
G01X904140Y506940D01*
G02X895540Y502020I-8607J5069D01*
G01X776570D01*
G02X769510Y504950I7J9989D01*
G37*
G36*
G01X3364610Y53690D02*
X3354820Y65700D01*
G02X3352780Y74030I7743J6311D01*
G03X3353820Y84250I-49616J10212D01*
G01Y373010D01*
G03X3303170Y423660I-50655J-5D01*
G01X3224410D01*
G03X3201960Y418410I7J-50655D01*
G02X3197540Y417380I-4418J8960D01*
G01X3197530D01*
G02X3187540Y427370I0J9990D01*
G01Y428180D01*
G02X3190470Y435250I9990J2D01*
G01X3547120Y791910D01*
G03X3550050Y798970I-7058J7067D01*
G01Y844550D01*
X3550040Y844560D01*
Y875620D01*
X3550030Y875630D01*
Y900480D01*
X3550020Y900490D01*
Y1137510D01*
G03X3547090Y1144570I-9988J-7D01*
G01X3498450Y1193220D01*
G02X3495520Y1200290I7060J7068D01*
G01Y1786520D01*
G02X3498450Y1793590I9990J2D01*
G01X3527590Y1822740D01*
G03X3530520Y1829800I-7058J7067D01*
G01Y2615190D01*
G03X3527590Y2622250I-9988J-7D01*
G01X3435750Y2714090D01*
G03X3428690Y2717020I-7067J-7058D01*
G01X3050970D01*
G02X3043900Y2719950I-2J9990D01*
G01X3000750Y2763090D01*
G03X2993690Y2766020I-7067J-7058D01*
G01X2941420D01*
G02X2934110Y2769200I-1J9990D01*
G03X2869790Y2752180I-27611J-25700D01*
G02X2862800Y2744870I-9720J2298D01*
G01X2846000Y2740100D01*
G02X2836210Y2742640I-2732J9608D01*
G01X2804250Y2774590D01*
G03X2797190Y2777520I-7067J-7058D01*
G01X2173810D01*
G03X2166750Y2774590I7J-9988D01*
G01X2159770Y2767620D01*
G02X2151110Y2764830I-7057J7069D01*
G01X2135090Y2767430D01*
G02X2127750Y2772830I1601J9864D01*
G01Y2772840D01*
G03X2092650Y2793700I-33755J-16837D01*
G02X2085230Y2796620I-356J9982D01*
G01X2074280Y2807560D01*
G03X2067220Y2810490I-7067J-7058D01*
G01X2011600D01*
G03X2004540Y2807560I7J-9988D01*
G01X1972420Y2775450D01*
G02X1965350Y2772520I-7068J7060D01*
G01X1725810D01*
G03X1718750Y2769590I7J-9988D01*
G01X1554410Y2605250D01*
G03X1551480Y2598190I7058J-7067D01*
G01Y2517470D01*
G02X1548550Y2510400I-9990J-2D01*
G01X1235080Y2196930D01*
G02X1222570Y2195620I-7063J7063D01*
G03X1166820Y2177600I-20567J-31619D01*
G02X1162440Y2172510I-9324J3594D01*
G01X1156890Y2169360D01*
G02X1150290Y2168190I-4943J8681D01*
G03X1108670Y2117790I-6289J-37191D01*
G02X1107520Y2108590I-9357J-3502D01*
G01X1098160Y2095100D01*
G02X1089950Y2090800I-8211J5690D01*
G01X753090D01*
G03X746030Y2087870I7J-9988D01*
G01X327410Y1669250D01*
G03X324480Y1662190I7058J-7067D01*
G01Y1567470D01*
G02X321550Y1560400I-9990J-2D01*
G01X263770Y1502620D01*
G02X256350Y1499700I-7064J7062D01*
G03X217300Y1460650I-1350J-37700D01*
G02X214380Y1453230I-9982J-356D01*
G01X203610Y1442460D01*
G02X196540Y1439530I-7068J7060D01*
G01X60120D01*
X60040D01*
X52950Y1446600D01*
G02X50010Y1453670I7049J7078D01*
G01Y2024010D01*
G02X54060Y2032040I9990J-2D01*
G01X67000Y2041600D01*
G02X75870Y2043110I5932J-8036D01*
G03X85420Y2041680I9539J31102D01*
G01X116960D01*
G02X124030Y2038750I2J-9990D01*
G01X150380Y2012410D01*
G03X157440Y2009480I7067J7058D01*
G01X333400D01*
G03X340460Y2012410I-7J9988D01*
G01X366810Y2038750D01*
G02X373880Y2041680I7068J-7060D01*
G01X405420D01*
G03X429410Y2052240I0J32530D01*
G02X436770Y2055480I7365J-6750D01*
G01X440080D01*
G02X447390Y2052300I1J-9990D01*
G03X461800Y2113340I27609J25703D01*
G02X454110Y2113630I-3498J9356D01*
G01X441210Y2119600D01*
G02X436010Y2125270I4195J9067D01*
G03X405420Y2146740I-30590J-11057D01*
G01X370420D01*
G03X361140Y2145390I-6J-32531D01*
G01X361130D01*
G02X352310Y2146950I-2855J9572D01*
G01X339460Y2156530D01*
G02X335440Y2164540I5971J8010D01*
G01Y2304240D01*
G03X325450Y2314230I-9990J0D01*
G01X165390D01*
G03X155400Y2304240I0J-9990D01*
G01Y2164540D01*
G02X151380Y2156530I-9991J0D01*
G01X138530Y2146950D01*
G02X129710Y2145390I-5965J8012D01*
G01X129700D01*
G03X120420Y2146740I-9274J-31181D01*
G01X85420D01*
G03X75870Y2145310I-11J-32532D01*
G02X67000Y2146820I-2938J9546D01*
G01X54060Y2156380D01*
G02X50010Y2164410I5940J8032D01*
G01Y2959810D01*
G02X55220Y2968590I9991J7D01*
G01X70640Y2976990D01*
G02X80840Y2976610I4780J-8775D01*
G03X228600Y2985340I67920J105243D01*
G01X228610D01*
G02X234970Y2987630I6364J-7699D01*
G01X234980D01*
G02X244970Y2977640I0J-9990D01*
G01Y2975120D01*
G03X286740Y2925260I50653J8D01*
G01Y2925250D01*
G02X294980Y2915420I-1748J-9834D01*
G01Y2793580D01*
G02X286740Y2783750I-9988J4D01*
G01Y2783740D01*
G03X244970Y2733880I8883J-49868D01*
G01Y2555120D01*
G03X286740Y2505260I50653J8D01*
G01Y2505250D01*
G02X294980Y2495420I-1748J-9834D01*
G01Y2469360D01*
G03X297910Y2462300I9988J7D01*
G01X372800Y2387410D01*
G03X379860Y2384480I7067J7058D01*
G01X475920D01*
G02X485750Y2376240I-4J-9988D01*
G01X485760D01*
G03X535620Y2334470I49868J8883D01*
G01X714380D01*
G03X718480Y2334640I-47J50654D01*
G02X728660Y2321180I815J-9963D01*
G03X800150Y2297230I35338J-13190D01*
G02X804170Y2302680I9574J-2854D01*
G01X809630Y2306330D01*
G02X815710Y2308000I5551J-8305D01*
G03X816870Y2307970I1146J21875D01*
G01X843130D01*
G03X843750Y2307980I-43J21904D01*
G02X854010Y2297400I281J-9992D01*
G03X853970Y2296130I21863J-1324D01*
G01Y2279870D01*
G03X875870Y2257970I21905J5D01*
G01X902130D01*
G03X909800Y2259360I-9J21905D01*
G02X914460Y2259920I3489J-9361D01*
G01X919870Y2259290D01*
G02X924570Y2257450I-1174J-9921D01*
G03X970380Y2317360I22129J30548D01*
G02X978130Y2335030I6271J7784D01*
G03X985620Y2334470I7511J50094D01*
G01X1164380D01*
G03X1214240Y2376240I-8J50653D01*
G01X1214250D01*
G02X1224080Y2384480I9834J-1748D01*
G01X1255940D01*
G03X1263000Y2387410I-7J9988D01*
G01X1377140Y2501540D01*
G02X1384200Y2504470I7068J-7059D01*
G01X1404380D01*
G03X1455030Y2555120I-5J50655D01*
G01Y2733880D01*
G03X1413260Y2783740I-50653J-8D01*
G01Y2783750D01*
G02X1405020Y2793580I1748J9834D01*
G01Y2915420D01*
G02X1413260Y2925250I9988J-4D01*
G01Y2925260D01*
G03X1455030Y2975120I-8883J49868D01*
G01Y3153880D01*
G03X1442740Y3186950I-50655J-6D01*
G02X1441230Y3197640I7568J6521D01*
G01X1448800Y3214160D01*
G02X1457880Y3219990I9082J-4159D01*
G01X1640000D01*
G02X1649990Y3210000I0J-9990D01*
G01Y2859980D01*
G03X1659980Y2849990I9990J0D01*
G01X3940000D01*
G02X3949990Y2840000I0J-9990D01*
G01Y2431290D01*
G02X3946290Y2423540I-9988J10D01*
G01X3934240Y2413750D01*
G02X3925890Y2411730I-6296J7759D01*
G01X3925880D01*
G03X3915460Y2412820I-10452J-49563D01*
G01X3626700D01*
G03X3576050Y2362170I5J-50655D01*
G01Y2283410D01*
G03X3626700Y2232760I50655J5D01*
G01X3915460D01*
G03X3925880Y2233850I-32J50653D01*
G01X3925890D01*
G02X3934240Y2231830I2054J-9779D01*
G01X3946290Y2222040D01*
G02X3949990Y2214290I-6288J-7760D01*
G01Y1351290D01*
G02X3946290Y1343540I-9988J10D01*
G01X3934240Y1333750D01*
G02X3925890Y1331730I-6296J7759D01*
G01X3925880D01*
G03X3915460Y1332820I-10452J-49563D01*
G01X3626700D01*
G03X3576050Y1282170I5J-50655D01*
G01Y1203410D01*
G03X3626700Y1152760I50655J5D01*
G01X3915460D01*
G03X3925880Y1153850I-32J50653D01*
G01X3925890D01*
G02X3934240Y1151830I2054J-9779D01*
G01X3946290Y1142040D01*
G02X3949990Y1134290I-6288J-7760D01*
G01Y238800D01*
G02X3943060Y229290I-9990J0D01*
G01X3924930Y223470D01*
G02X3913750Y227160I-3060J9509D01*
G03X3817000Y279020I-101099J-72433D01*
G01X3807000D01*
G03X3709480Y81540I4760J-125169D01*
G02X3710200Y71180I-8154J-5772D01*
G01X3702030Y55410D01*
G02X3693160Y50010I-8872J4588D01*
G01X3372350D01*
G02X3364610Y53690I5J9990D01*
G37*
G36*
G01X657520Y1431380D02*
X648200Y1445010D01*
G02X647150Y1454280I8252J5629D01*
G03X591460Y1499630I-35137J13720D01*
G02X586020Y1498020I-5438J8380D01*
G01X581400D01*
G02X576120Y1499530I1J9989D01*
G01X576110D01*
G03X563880Y1503030I-12240J-19654D01*
G01X483050D01*
G02X473980Y1508820I-5J9991D01*
G01X466350Y1525280D01*
G02X467800Y1535940I9068J4195D01*
G03X390050Y1625570I-45798J38810D01*
G02X380310Y1625080I-5308J8462D01*
G01X375080Y1627660D01*
G02X369520Y1636620I4431J8955D01*
G01Y1643530D01*
G02X372450Y1650600I9990J2D01*
G01X764680Y2042830D01*
G02X771750Y2045760I7068J-7060D01*
G01X911930D01*
G02X921160Y2039590I-1J-9991D01*
G02X918990Y2028700I-9230J-3822D01*
G01X834410Y1944110D01*
G03X831480Y1937050I7058J-7067D01*
G01Y1462010D01*
G02X828550Y1454940I-9990J-2D01*
G01X803560Y1429950D01*
G02X796490Y1427020I-7068J7060D01*
G01X665760D01*
G02X657520Y1431380I11J9988D01*
G37*
G36*
G01X405950Y2467450D02*
X394300Y2479100D01*
G02X391470Y2487570I7060J7067D01*
G01X393720Y2503400D01*
G02X398790Y2510740I9890J-1410D01*
G01X398800Y2510750D01*
G03X425030Y2555120I-24424J44377D01*
G01Y2733880D01*
G03X383260Y2783740I-50653J-8D01*
G01Y2783750D01*
G02X375020Y2793580I1748J9834D01*
G01Y2915420D01*
G02X383260Y2925250I9988J-4D01*
G01Y2925260D01*
G03X425030Y2975120I-8883J49868D01*
G01Y3153880D01*
G03X412740Y3186950I-50655J-6D01*
G02X411230Y3197640I7568J6521D01*
G01X418800Y3214160D01*
G02X427880Y3219990I9082J-4159D01*
G01X1272120D01*
G02X1281200Y3214160I-2J-9989D01*
G01X1288770Y3197640D01*
G02X1287260Y3186950I-9078J-4169D01*
G03X1274970Y3153880I38365J-33076D01*
G01Y2975120D01*
G03X1316740Y2925260I50653J8D01*
G01Y2925250D01*
G02X1324980Y2915420I-1748J-9834D01*
G01Y2793580D01*
G02X1316740Y2783750I-9988J4D01*
G01Y2783740D01*
G03X1274970Y2733880I8883J-49868D01*
G01Y2555120D01*
G03X1281750Y2529810I50655J6D01*
G02X1280160Y2517760I-8655J-4988D01*
G01X1231580Y2469180D01*
G02X1227150Y2466600I-7075J7054D01*
G03X1226570Y2466440I10352J-38656D01*
G01X1217550Y2471890D01*
G02X1213100Y2477720I5163J8554D01*
G03X1168870Y2514330I-48726J-13845D01*
G02X1159770Y2524280I889J9949D01*
G01Y2524290D01*
G02X1169760Y2534280I9990J0D01*
G01X1189730D01*
G03X1199720Y2544270I0J9990D01*
G01Y2679730D01*
G03X1189730Y2689720I-9990J0D01*
G01X946280D01*
Y2688000D01*
X934770D01*
X933320Y2688460D01*
G03X926250Y2689530I-7053J-22713D01*
G01X903750D01*
G03X890960Y2685800I0J-23793D01*
G02X885590Y2684230I-5376J8420D01*
G01X879410D01*
G02X874040Y2685800I6J9990D01*
G03X861250Y2689530I-12790J-20063D01*
G01X838750D01*
G03X825960Y2685800I0J-23793D01*
G02X820590Y2684230I-5376J8420D01*
G01X814410D01*
G02X809040Y2685800I6J9990D01*
G03X796250Y2689530I-12790J-20063D01*
G01X773750D01*
G03X749970Y2665750I0J-23780D01*
G01Y2558250D01*
G03X751300Y2550410I23772J0D01*
G01X751860Y2548810D01*
Y2532320D01*
G02X748000Y2524430I-9990J-2D01*
G01X735520Y2514740D01*
G02X726920Y2512950I-6128J7889D01*
G03X714380Y2514530I-12553J-49074D01*
G01X675010D01*
G02X665020Y2524520I0J9990D01*
G01Y2537200D01*
G03X584980I-40020J0D01*
G01Y2524520D01*
G02X574990Y2514530I-9990J0D01*
G01X535620D01*
G03X485760Y2472760I8J-50653D01*
G01X485750D01*
G02X475920Y2464520I-9834J1748D01*
G01X413010D01*
G02X405950Y2467450I8J9989D01*
G37*
G36*
G01X2374470Y298350D02*
Y252770D01*
G03X2377400Y245710I9988J7D01*
G01X2556030Y67070D01*
G02X2558200Y56180I-7060J-7068D01*
G02X2548970Y50010I-9231J3821D01*
G01X2292350D01*
G02X2284610Y53690I5J9990D01*
G01X2274820Y65700D01*
G02X2272780Y74030I7743J6311D01*
G03X2273820Y84250I-49616J10212D01*
G01Y373010D01*
G03X2271640Y387690I-50653J-20D01*
G01Y387700D01*
G02X2273180Y396550I9563J2895D01*
G01X2282750Y409440D01*
G02X2290770Y413480I8024J-5949D01*
G01X2323710D01*
G02X2330780Y410550I2J-9990D01*
G01X2371550Y369780D01*
G02X2374480Y362710I-7060J-7068D01*
G01Y298360D01*
X2374470Y298350D01*
G37*
G36*
G01X973880Y375280D02*
X1123760Y225410D01*
G03X1130820Y222480I7067J7058D01*
G01X1693190D01*
G03X1700250Y225410I-7J9988D01*
G01X1839700Y364850D01*
G02X1850590Y367020I7068J-7060D01*
G02X1856760Y357790I-3821J-9231D01*
G01Y84830D01*
G03X1857890Y74200I50655J10D01*
G02X1855890Y65820I-9766J-2098D01*
G01X1846120Y53720D01*
G02X1838350Y50010I-7770J6281D01*
G01X975230D01*
G02X967460Y53720I0J9991D01*
G01X957690Y65820D01*
G02X955690Y74200I7766J6282D01*
G03X956820Y84830I-49525J10640D01*
G01Y368220D01*
G02X962990Y377450I9991J-1D01*
G02X973880Y375280I3822J-9230D01*
G37*
G36*
G01X2626720Y293450D02*
X2587450Y332720D01*
G02X2584520Y339790I7060J7068D01*
G01Y453880D01*
X2583040Y455360D01*
Y456680D01*
G03X2580110Y463740I-9988J-7D01*
G01X2423260Y620590D01*
G03X2416200Y623520I-7067J-7058D01*
G01X2075470D01*
G02X2068400Y626450I-2J9990D01*
G01X2052620Y642230D01*
G02X2049700Y649650I7062J7064D01*
G03X1974300I-37700J1350D01*
G02X1971380Y642230I-9982J-356D01*
G01X1955600Y626450D01*
G02X1948530Y623520I-7068J7060D01*
G01X1799520D01*
G03X1792460Y620590I7J-9988D01*
G01X1607310Y435450D01*
G02X1600240Y432520I-7068J7060D01*
G01X1235670D01*
G02X1228600Y435450I-2J9990D01*
G01X1216400Y447650D01*
G02X1214160Y458330I7068J7057D01*
G03X1174290Y509420I-35157J13666D01*
G02X1167120Y511280I-1254J9915D01*
G01X1156040Y519430D01*
G02X1152120Y525700I5908J8054D01*
G03X1077310Y517490I-37120J-6700D01*
G02X1074390Y510020I-9982J-404D01*
G02X1060260I-7065J7063D01*
G01X1053860Y516420D01*
G02X1052360Y528610I7068J7057D01*
G01Y528620D01*
G03X1057700Y549350I-32357J19388D01*
G02X1060620Y556770I9982J356D01*
G01X1153400Y649550D01*
G02X1160470Y652480I7068J-7060D01*
G01X1371190D01*
G03X1378250Y655410I-7J9988D01*
G01X1483390Y760540D01*
G02X1490460Y763470I7068J-7060D01*
G01X1503020D01*
G02X1513010Y753480I0J-9990D01*
G01Y751460D01*
X1512230Y749610D01*
G03X1509310Y733650I34779J-14610D01*
G02X1506390Y726230I-9982J-356D01*
G01X1495450Y715280D01*
G03X1492520Y708220I7058J-7067D01*
G01Y679510D01*
G02X1489590Y672440I-9990J-2D01*
G01X1436270Y619120D01*
G02X1428850Y616200I-7064J7062D01*
G03X1465200Y579850I-1350J-37700D01*
G02X1468120Y587270I9982J356D01*
G01X1534630Y653790D01*
G03X1537560Y660850I-7058J7067D01*
G01Y683180D01*
G02X1540450Y690210I9990J2D01*
G01X1544750Y694560D01*
G02X1550840Y697470I7098J-7027D01*
G03X1584320Y740540I-3832J37526D01*
G01Y740550D01*
G02X1586640Y748540I9882J1462D01*
G01X1596530Y760000D01*
G02X1604090Y763470I7568J-6518D01*
G01X1639950D01*
G02X1649390Y756770I7J-9991D01*
G03X1670180Y734510I35615J12425D01*
G01X1670190D01*
G02X1676070Y727220I-3929J-9185D01*
G01X1679210Y710950D01*
G02X1676470Y702000I-9806J-1892D01*
G01X1509220Y534750D01*
X1507680Y534010D01*
G03X1558010Y483680I16320J-34010D01*
G01X1558750Y485220D01*
X1746580Y673050D01*
G02X1753640Y675980I7068J-7059D01*
G01X1847370D01*
G03X1854430Y678910I-7J9989D01*
G01X2100090Y924570D01*
G03X2103020Y931630I-7059J7067D01*
G01Y1118490D01*
G02X2107710Y1126950I9988J-7D01*
G01X2122060Y1135950D01*
G02X2131720Y1136480I5309J-8463D01*
G01X2131730D01*
G03X2147000Y1132970I15283J31517D01*
G01X2197000D01*
G03X2221770Y1143230I0J35030D01*
G02X2228830Y1146160I7069J-7061D01*
G01X2242970D01*
G02X2250040Y1143230I1J-9992D01*
G01X2271050Y1122210D01*
G02X2273980Y1115150I-7058J-7067D01*
G01Y818770D01*
G03X2276910Y811710I9989J8D01*
G01X2363710Y724910D01*
G03X2370770Y721980I7068J7059D01*
G01X2426500D01*
G02X2433560Y719050I-7J-9988D01*
G01X2441390Y711230D01*
G02X2444310Y704550I-7064J-7066D01*
G03X2483450Y743690I37690J1450D01*
G02X2476770Y746610I386J9984D01*
G01X2454290Y769090D01*
G03X2447230Y772020I-7068J-7059D01*
G01X2391500D01*
G02X2384440Y774950I7J9988D01*
G01X2326950Y832440D01*
G02X2324020Y839500I7058J7067D01*
G01Y1135880D01*
G03X2321090Y1142940I-9989J-8D01*
G01X2252220Y1211810D01*
Y1213160D01*
X2234710Y1230680D01*
G02X2231840Y1236690I7061J7062D01*
G01X2231830D01*
G03X2197000Y1268030I-34830J-3684D01*
G01X2147000D01*
G03X2131730Y1264520I13J-35027D01*
G01X2131720D01*
G02X2122060Y1265050I-4351J8993D01*
G01X2107710Y1274050D01*
G02X2103020Y1282510I5298J8467D01*
G01Y1347990D01*
G02X2113010Y1357980I9990J0D01*
G01X2549870D01*
G02X2558060Y1353700I-7J-9989D01*
G01X2567440Y1340240D01*
G02X2568620Y1331070I-8194J-5715D01*
G03X2629630Y1290320I35383J-13072D01*
G02X2636410Y1292980I6787J-7329D01*
G01X2776220D01*
G02X2783280Y1290050I-7J-9988D01*
G01X2831350Y1241980D01*
G02X2834280Y1234920I-7058J-7067D01*
G01Y1228800D01*
G02X2831620Y1222020I-9989J7D01*
G03X2822510Y1188060I27680J-25627D01*
G02X2820570Y1179620I-9743J-2204D01*
G01X2810820Y1167410D01*
G02X2803020Y1163660I-7802J6241D01*
G01X2796910D01*
G03X2758760Y1125510I5J-38155D01*
G01Y831750D01*
G03X2792450Y793860I38156J3D01*
G02X2801270Y783940I-1169J-9921D01*
G01Y443980D01*
G02X2793940Y434350I-9991J0D01*
G03X2841660Y400100I10060J-36352D01*
G02X2844570Y407720I9975J556D01*
G01X2844790Y407940D01*
X2846310Y411610D01*
Y783940D01*
G02X2855130Y793860I9989J-1D01*
G03X2888820Y831750I-4466J37893D01*
G01Y1125510D01*
G03X2883240Y1145370I-38155J-6D01*
G02X2881840Y1151740I8525J5212D01*
G01X2883280Y1163980D01*
G02X2886100Y1169850I9923J-1155D01*
G03X2886980Y1222020I-26800J26544D01*
G02X2884320Y1228800I7329J6787D01*
G01Y1255650D01*
G03X2881390Y1262710I-9989J-8D01*
G01X2803180Y1340920D01*
G02X2801020Y1351810I7067J7061D01*
G02X2810250Y1357980I9230J-3819D01*
G01X3085360D01*
G02X3092420Y1355050I-8J-9989D01*
G01X3170250Y1277220D01*
X3170990Y1275680D01*
G03X3221010Y1257840I34011J16317D01*
G01Y1257850D01*
G02X3230610Y1257230I4236J-9049D01*
G01X3244850Y1248180D01*
G02X3249480Y1239750I-5361J-8431D01*
G01Y1106790D01*
G03X3252410Y1099730I9988J7D01*
G01X3307050Y1045080D01*
G02X3309980Y1038010I-7060J-7068D01*
G01Y930970D01*
G02X3307050Y923900I-9990J-2D01*
G01X3276770Y893620D01*
G02X3269350Y890700I-7064J7062D01*
G03X3246640Y821910I-1352J-37697D01*
G02X3250930Y814590I-5658J-8233D01*
G01X3252340Y799280D01*
G02X3249450Y791300I-9948J-910D01*
G01X3146320Y688170D01*
G02X3132190I-7065J7061D01*
G01X3049240Y771120D01*
G02X3046310Y778190I7060J7068D01*
G01Y783940D01*
G02X3055130Y793860I9989J-1D01*
G03X3088820Y831750I-4466J37893D01*
G01Y1125510D01*
G03X3050670Y1163660I-38155J-5D01*
G01X2996910D01*
G03X2958760Y1125510I5J-38155D01*
G01Y831750D01*
G03X2992450Y793860I38156J3D01*
G02X3001270Y783940I-1169J-9921D01*
G01Y759530D01*
G03X3004200Y752470I9988J7D01*
G01X3100340Y656320D01*
G02Y642200I-7066J-7060D01*
G01X2980410Y522260D01*
G03X2977480Y515200I7058J-7067D01*
G01Y401470D01*
G02X2974550Y394400I-9990J-2D01*
G01X2873600Y293450D01*
G02X2866530Y290520I-7068J7060D01*
G01X2633790D01*
G02X2626720Y293450I-2J9990D01*
G37*
G36*
G01X997520Y1691220D02*
Y1764530D01*
G02X1000450Y1771600I9990J2D01*
G01X1019400Y1790550D01*
G02X1026470Y1793480I7068J-7060D01*
G01X1079100D01*
G02X1086170Y1790550I2J-9990D01*
G01X1113320Y1763410D01*
G03X1120380Y1760480I7067J7058D01*
G01X1138900D01*
G02X1148130Y1754310I-1J-9990D01*
G02X1145970Y1743420I-9228J-3829D01*
G01X1069490Y1666950D01*
G02X1062430Y1664020I-7067J7059D01*
G01X1050990D01*
G02X1045550Y1665630I-2J9990D01*
G03X1020100Y1671400I-20550J-31630D01*
G02X1012220Y1673800I-1289J9905D01*
G01X1000920Y1683710D01*
G02X997520Y1691220I6590J7508D01*
G37*
G36*
G01X2284520Y1715050D02*
Y1718890D01*
G03X2281590Y1725950I-9988J-7D01*
G01X2223630Y1783920D01*
G02X2221460Y1794810I7060J7068D01*
G02X2230690Y1800980I9231J-3821D01*
G01X2292800D01*
G02X2300740Y1797050I-2J-9990D01*
G01X2310380Y1784410D01*
G02X2312080Y1775710I-7938J-6067D01*
G01X2312070Y1775700D01*
G03X2310970Y1767500I29931J-8189D01*
G01Y1734500D01*
G03X2317560Y1715380I31032J0D01*
G02X2319680Y1709230I-7870J-6153D01*
G01Y1699060D01*
G03X2317800Y1696920I22348J-21528D01*
G02X2302200I-7800J6252D01*
G03X2290490Y1705900I-24195J-19425D01*
G01Y1705910D01*
G02X2284520Y1715050I4019J9145D01*
G37*
G36*
G01X1144400Y1838450D02*
X1115750Y1867090D01*
G03X1108690Y1870020I-7067J-7058D01*
G01X1107320D01*
X1104760Y1876190D01*
G02X1106930Y1887080I9230J3822D01*
G01X1109400Y1889550D01*
G02X1116470Y1892480I7068J-7060D01*
G01X1295190D01*
G03X1302250Y1895410I-7J9988D01*
G01X1501400Y2094550D01*
G02X1508470Y2097480I7068J-7060D01*
G01X1569520D01*
G02X1578750Y2091310I-1J-9991D01*
G02X1576580Y2080420I-9230J-3822D01*
G01X1334610Y1838450D01*
G02X1327540Y1835520I-7068J7060D01*
G01X1151470D01*
G02X1144400Y1838450I-2J9990D01*
G37*
G36*
G01X1397430Y1792580D02*
X1636400Y2031550D01*
G02X1643470Y2034480I7068J-7060D01*
G01X1712900D01*
G02X1722130Y2028310I-1J-9990D01*
G02X1719970Y2017420I-9228J-3829D01*
G01X1480990Y1778450D01*
G02X1473930Y1775520I-7067J7059D01*
G01X1404490D01*
G02X1395260Y1781690I1J9991D01*
G02X1397430Y1792580I9230J3822D01*
G37*
G36*
G01X2883640Y2408230D02*
G03X2883300Y2401650I37359J-5229D01*
G02X2880380Y2394230I-9982J-356D01*
G01X2856430Y2370270D01*
G03X2853500Y2363210I7058J-7067D01*
G01Y2359790D01*
G02X2850570Y2352720I-9990J-2D01*
G01X2822430Y2324580D01*
G03X2820260Y2313690I7060J-7068D01*
G03X2829490Y2307520I9231J3821D01*
G01X2843510D01*
G02X2853500Y2297530I0J-9990D01*
G01Y2192490D01*
G02X2850570Y2185420I-9990J-2D01*
G01X2820080Y2154930D01*
G02X2809190Y2152760I-7068J7060D01*
G02X2803020Y2161990I3821J9231D01*
G01Y2241230D01*
G03X2800090Y2248290I-9989J-8D01*
G01X2723290Y2325090D01*
G03X2716230Y2328020I-7068J-7059D01*
G01X2668410D01*
G02X2661630Y2330680I7J9989D01*
G03X2657360Y2334090I-25613J-27694D01*
G02X2653070Y2341410I5658J8233D01*
G01X2651660Y2356720D01*
G02X2654550Y2364700I9948J910D01*
G01X2656900Y2367050D01*
G02X2663970Y2369980I7068J-7060D01*
G01X2779690D01*
G03X2786750Y2372910I-7J9988D01*
G01X2796420Y2382580D01*
G03X2797770Y2384050I-15893J15951D01*
G01X2798050Y2384390D01*
X2817650Y2403980D01*
X2817830D01*
X2845120Y2431270D01*
G02X2855490Y2433630I7062J-7066D01*
G03X2866940Y2430750I21523J61366D01*
G02X2873420Y2426830I-1544J-9868D01*
G01X2881780Y2415570D01*
G02X2883640Y2408230I-8031J-5941D01*
G37*
G36*
G01X2174620Y2619780D02*
G02X2177470Y2613950I-7064J-7065D01*
G03X2177620Y2612800I64558J7836D01*
G02X2174800Y2604320I-9889J-1420D01*
G01X1970120Y2399650D01*
G02X1963060Y2396720I-7068J7059D01*
G01X1796770D01*
G03X1789710Y2393790I7J-9989D01*
G01X1736980Y2341070D01*
Y2340510D01*
X1727220Y2330750D01*
X1725680Y2330010D01*
G03X1776010Y2279680I16320J-34010D01*
G01X1776750Y2281220D01*
X1807020Y2311490D01*
Y2312050D01*
X1818720Y2323750D01*
G02X1825780Y2326680I7068J-7059D01*
G01X1992070D01*
G03X1999130Y2329610I-7J9989D01*
G01X2224320Y2554800D01*
G02X2232800Y2557620I7060J-7069D01*
G03X2290570Y2578760I9195J64378D01*
G02X2298030Y2582110I7465J-6641D01*
G01X2312970D01*
G02X2320430Y2578760I-5J-9991D01*
G03X2325760Y2573430I48570J43240D01*
G02X2329110Y2565970I-6641J-7465D01*
G01Y2551030D01*
G02X2325760Y2543570I-9991J5D01*
G03X2340820Y2436390I43240J-48572D01*
G02X2346480Y2427390I-4329J-9002D01*
G01Y2320470D01*
G02X2343550Y2313400I-9990J-2D01*
G01X2235600Y2205450D01*
G02X2228530Y2202520I-7068J7060D01*
G01X1502350D01*
G02X1493120Y2208690I1J9991D01*
G02X1495290Y2219580I9230J3822D01*
G01X1714590Y2438890D01*
G03X1717520Y2445950I-7058J7067D01*
G01Y2529710D01*
G02X1720450Y2536780I9990J2D01*
G01X1787220Y2603550D01*
G02X1794290Y2606480I7068J-7060D01*
G01X2143050D01*
G03X2150110Y2609410I-7J9988D01*
G01X2160490Y2619780D01*
G02X2174620I7065J-7063D01*
G37*
G36*
G01X3228170Y1321770D02*
G03X3221320Y1326010I-23165J-29772D01*
G01X3219780Y1326750D01*
X3121430Y1425090D01*
G03X3114370Y1428020I-7067J-7059D01*
G01X2765720D01*
G02X2758060Y1431600I2J9989D01*
G01X2748220Y1443360D01*
G02X2746040Y1451530I7655J6419D01*
G03X2746530Y1457000I-30538J5493D01*
G01Y1489000D01*
G03X2737210Y1511170I-31029J0D01*
G02X2734420Y1516270I6991J7138D01*
G01X2733190Y1522160D01*
G02X2733770Y1528070I9783J2023D01*
G03X2736170Y1549100I-34771J14620D01*
G02X2738380Y1557230I9846J1689D01*
G01X2748230Y1568930D01*
G02X2755870Y1572480I7638J-6441D01*
G01X3163530D01*
G02X3170600Y1569550I2J-9990D01*
G01X3246550Y1493600D01*
G02X3249480Y1486530I-7060J-7068D01*
G01Y1331730D01*
G02X3243210Y1322460I-9990J2D01*
G01X3238020Y1320380D01*
G02X3228170Y1321770I-3715J9272D01*
G37*
G36*
G01X1665020Y1438010D02*
Y1519150D01*
G02X1670380Y1528000I9989J-2D01*
G03X1687030Y1555500I-14385J27500D01*
G01Y1588500D01*
G03X1686800Y1592310I-31032J39D01*
G02X1689580Y1600540I9913J1236D01*
G01X1700560Y1611710D01*
G02X1708730Y1614640I7122J-7003D01*
G01X1708740D01*
G03X1712000Y1614470I3244J30861D01*
G01X1744000D01*
G03X1749120Y1614900I-28J31028D01*
G02X1757710Y1612230I1647J-9855D01*
G01X1769270Y1601060D01*
G02X1772240Y1592570I-6935J-7191D01*
G01Y1592560D01*
G03X1771970Y1588500I30758J-4084D01*
G01Y1555500D01*
G03X1788620Y1528000I31035J0D01*
G02X1793980Y1519150I-4629J-8852D01*
G01Y1438010D01*
G02X1783990Y1428020I-9990J0D01*
G01X1675010D01*
G02X1665020Y1438010I0J9990D01*
G37*
G36*
G01X2116020D02*
Y1504730D01*
G02X2120070Y1512770I9991J7D01*
G01X2133010Y1522330D01*
G02X2141880Y1523840I5932J-8039D01*
G03X2151000Y1522470I9120J29671D01*
G01X2183000D01*
G03X2214030Y1553500I0J31030D01*
G01Y1586500D01*
G03X2207440Y1605620I-31032J0D01*
G02X2205320Y1611770I7870J6153D01*
G01Y1621940D01*
G03X2207140Y1624000I-22323J21556D01*
G02X2222490Y1624250I7779J-6275D01*
G03X2246000Y1613470I23510J20246D01*
G01X2278000D01*
G03X2297460Y1620330I0J31031D01*
G02X2303730Y1622540I6266J-7779D01*
G01X2316270D01*
G02X2322540Y1620330I4J-9989D01*
G03X2342000Y1613470I19460J24171D01*
G01X2343890D01*
G02X2351950Y1609380I-2J-9990D01*
G01X2361480Y1596340D01*
G02X2362930Y1587420I-8067J-5889D01*
G03X2361470Y1578000I29572J-9407D01*
G01Y1546000D01*
G03X2366540Y1529000I31036J0D01*
G02X2368130Y1522540I-8352J-5481D01*
G01X2367490Y1516070D01*
G02X2364660Y1510030I-9942J975D01*
G03X2355470Y1487630I22715J-22404D01*
G01Y1446370D01*
G03X2356110Y1440010I31905J-2D01*
G01X2356310Y1439020D01*
Y1438010D01*
G02X2346320Y1428020I-9990J0D01*
G01X2126010D01*
G02X2116020Y1438010I0J9990D01*
G37*
G36*
G01X1150700Y1460950D02*
X1096450Y1515200D01*
G02X1093520Y1522270I7060J7068D01*
G01Y1523740D01*
G03X1097250Y1581090I-22519J30261D01*
G02X1094210Y1588180I6950J7177D01*
G01X1094100Y1602430D01*
G02X1097030Y1609570I9989J72D01*
G01X1200010Y1712550D01*
G02X1207070Y1715480I7067J-7059D01*
G01X1263330D01*
G02X1271580Y1711120I-2J-9989D01*
G01X1280890Y1697480D01*
G02X1281940Y1688210I-8250J-5629D01*
G03X1344680Y1648760I35125J-13752D01*
G02X1351990Y1651940I7309J-6810D01*
G01X1355920D01*
G02X1365850Y1643010I-2J-9989D01*
G01Y1643000D01*
G03X1396710Y1615260I30860J3295D01*
G01X1428710D01*
G03X1459740Y1646290I0J31030D01*
G01Y1679290D01*
G03X1458130Y1689140I-31028J-15D01*
G01Y1689150D01*
G02X1459500Y1698150I9476J3162D01*
G01X1468980Y1711330D01*
G02X1477090Y1715480I8105J-5840D01*
G01X1498800D01*
G03X1505860Y1718410I-8J9989D01*
G01X1774010Y1986550D01*
G02X1781070Y1989480I7067J-7059D01*
G01X1994930D01*
G02X2001990Y1986550I-7J-9989D01*
G01X2014360Y1974190D01*
G02X2017260Y1966430I-7067J-7063D01*
G01X2016220Y1951380D01*
G02X2012270Y1944100I-9968J697D01*
G03X2052940Y1880820I22735J-30098D01*
G02X2064760Y1879100I4756J-8787D01*
G01X2227340Y1716510D01*
G02Y1702390I-7067J-7060D01*
G01X2226950Y1702000D01*
X2226540Y1701670D01*
G03X2226450Y1701600I19003J-24525D01*
G02X2220320Y1699370I-6293J7758D01*
G01X2207970Y1699170D01*
G02X2201770Y1701210I-149J9990D01*
G03X2183000Y1707530I-18770J-24713D01*
G01X2151000D01*
G03X2132940Y1701730I0J-31018D01*
G02X2127120Y1699860I-5820J8122D01*
G01X2120880D01*
G02X2115060Y1701730I0J9992D01*
G03X2097000Y1707530I-18060J-25218D01*
G01X2065000D01*
G03X2047040Y1701800I5J-31028D01*
G02X2041080Y1699960I-5780J8150D01*
G01X2031220Y1700140D01*
G03X2030880Y1700450I-21075J-22773D01*
G01X2029410Y1709520D01*
G02X2030210Y1715320I9864J1595D01*
G03X1965080Y1752800I-34217J15870D01*
G02X1957120Y1748530I-8194J5720D01*
G01X1941010Y1748150D01*
G02X1932870Y1752040I-227J9988D01*
G03X1877240Y1756550I-29866J-23040D01*
G01X1877230D01*
G02X1870020Y1753860I-6828J7292D01*
G01X1855820Y1754420D01*
G02X1848830Y1757660I381J9982D01*
G03X1790610Y1754540I-27829J-25461D01*
G02X1782560Y1750460I-8055J5912D01*
G01X1766440D01*
G02X1758390Y1754540I5J9992D01*
G03X1698590Y1755810I-30388J-22342D01*
G02X1690800Y1752080I-7786J6261D01*
G01X1675200D01*
G02X1667410Y1755810I-4J9991D01*
G03X1603790Y1716320I-29404J-23622D01*
G02X1604590Y1710520I-9064J-4205D01*
G01X1603630Y1704630D01*
G02X1601130Y1699480I-9858J1604D01*
G03X1592970Y1678500I22873J-20973D01*
G01Y1645500D01*
G03X1599560Y1626380I31032J0D01*
G02X1601680Y1620230I-7870J-6153D01*
G01Y1613770D01*
G02X1599560Y1607620I-9990J3D01*
G03X1592970Y1588500I24442J-19120D01*
G01Y1555500D01*
G03X1609620Y1528000I31035J0D01*
G02X1614980Y1519150I-4629J-8852D01*
G01Y1509480D01*
G02X1610390Y1501080I-9990J5D01*
G01X1596240Y1491990D01*
G02X1586680Y1491310I-5402J8402D01*
G03X1533340Y1459190I-15681J-34308D01*
G01X1532170Y1458020D01*
X1157770D01*
G02X1150700Y1460950I-2J9990D01*
G37*
G36*
G01X1844020Y1438010D02*
Y1519150D01*
G02X1849380Y1528000I9989J-2D01*
G03X1866030Y1555500I-14385J27500D01*
G01Y1588500D01*
G03X1865860Y1591760I-31031J16D01*
G01Y1591770D01*
G02X1868790Y1599940I9933J1048D01*
G01X1879960Y1610920D01*
G02X1888190Y1613700I6994J-7133D01*
G03X1892000Y1613470I3771J30802D01*
G01X1924000D01*
G03X1942060Y1619270I0J31018D01*
G02X1947880Y1621140I5820J-8122D01*
G01X1954120D01*
G02X1959940Y1619270I0J-9992D01*
G03X1978000Y1613470I18060J25218D01*
G01X2010000D01*
G03X2012730Y1613590I4J31030D01*
G02X2020860Y1610510I879J-9951D01*
G01X2031640Y1599150D01*
G02X2034280Y1590870I-7252J-6873D01*
G03X2033970Y1586500I30720J-4375D01*
G01Y1553500D01*
G03X2043060Y1531560I31023J0D01*
G02X2045980Y1524500I-7071J-7058D01*
G01Y1438010D01*
G02X2035990Y1428020I-9990J0D01*
G01X1854010D01*
G02X1844020Y1438010I0J9990D01*
G37*
G36*
G01X2644620Y1513440D02*
G03X2625500Y1520030I-19120J-24442D01*
G01X2592500D01*
G03X2572880Y1513040I0J-31030D01*
G02X2566830Y1510790I-6321J7737D01*
G01X2554610Y1510470D01*
G02X2548450Y1512390I-268J9983D01*
G03X2547930Y1512760I-18758J-25812D01*
G02X2543960Y1518540I5725J8186D01*
G01X2542360Y1524990D01*
G02X2543150Y1531920I9697J2405D01*
G03X2546530Y1546000I-27636J14080D01*
G01Y1578000D01*
G03X2535470Y1601750I-31030J0D01*
G02X2532080Y1607520I6421J7654D01*
G01X2530860Y1613890D01*
G02X2531950Y1620630I9811J1871D01*
G03X2536410Y1634190I-32956J18353D01*
G02X2543100Y1642380I9911J-1268D01*
G01X2560080Y1648170D01*
G02X2570370Y1645780I3227J-9454D01*
G01X2642150Y1574000D01*
X2645820Y1572480D01*
X2646780D01*
X2659620Y1557230D01*
G02X2661830Y1549100I-7636J-6441D01*
G03X2664230Y1528070I37171J-6410D01*
G02X2664810Y1522160I-9203J-3887D01*
G01X2662910Y1513060D01*
G03X2660940Y1511320I19538J-24106D01*
G01X2650770D01*
G02X2644620Y1513440I3J9990D01*
G37*
G36*
G01X2444620Y1602440D02*
G03X2425500Y1609030I-19120J-24442D01*
G01X2422610D01*
G02X2414550Y1613120I2J9990D01*
G01X2405020Y1626160D01*
G02X2403570Y1635080I8067J5889D01*
G03X2405030Y1644500I-29572J9407D01*
G01Y1677500D01*
G03X2398440Y1696620I-31032J0D01*
G02X2396320Y1702770I7870J6153D01*
G01Y1709230D01*
G02X2398440Y1715380I9990J-3D01*
G03X2402570Y1722390I-24440J19120D01*
G02X2411770Y1728480I9197J-3900D01*
G01X2483530D01*
G02X2490600Y1725550I2J-9990D01*
G01X2505780Y1710370D01*
G02X2508170Y1700080I-7064J-7063D01*
G01X2502380Y1683100D01*
G02X2494190Y1676410I-9458J3221D01*
G03X2466050Y1620630I4807J-37413D01*
G02X2467140Y1613890I-8721J-4869D01*
G01X2465920Y1607520D01*
G02X2462530Y1601750I-9811J1884D01*
G03X2460940Y1600320I19943J-23774D01*
G01X2450770D01*
G02X2444620Y1602440I3J9990D01*
G37*
G36*
G01X2641720Y1715740D02*
X2499360Y1858090D01*
G03X2492300Y1861020I-7068J-7059D01*
G01X2402990D01*
G02X2397550Y1862630I-2J9990D01*
G03X2356450I-20550J-31630D01*
G02X2351010Y1861020I-5438J8380D01*
G01X2216570D01*
G02X2209510Y1863950I7J9989D01*
G01X2056030Y2017420D01*
G02X2053870Y2028310I7068J7061D01*
G02X2063100Y2034480I9231J-3820D01*
G01X2320190D01*
G03X2327250Y2037410I-7J9988D01*
G01X2574300Y2284450D01*
G02X2582280Y2287340I7070J-7058D01*
G01X2597590Y2285930D01*
G02X2604910Y2281640I-913J-9948D01*
G03X2661630Y2275320I31092J21359D01*
G02X2668410Y2277980I6787J-7329D01*
G01X2695500D01*
G02X2702560Y2275050I-7J-9988D01*
G01X2750050Y2227560D01*
G02X2752980Y2220500I-7058J-7067D01*
G01Y1833510D01*
G02X2742990Y1823520I-9990J0D01*
G01X2742980D01*
G02X2734820Y1827750I1J9988D01*
G03X2731680Y1831630I-30828J-21738D01*
G02X2729020Y1838410I7329J6787D01*
G01Y1850230D01*
G03X2726090Y1857290I-9989J-8D01*
G01X2644610Y1938770D01*
G02X2641690Y1945450I7064J7066D01*
G03X2602550Y1906310I-37690J-1450D01*
G02X2609230Y1903390I-386J-9984D01*
G01X2672070Y1840550D01*
G02X2673170Y1827730I-7066J-7064D01*
G03X2715600Y1770110I30831J-21729D01*
G01X2715610D01*
G02X2723610Y1769290I3068J-9506D01*
G01X2736430Y1762020D01*
G02X2741240Y1755560I-4930J-8691D01*
G03X2746270Y1743610I36761J8440D01*
G01Y1743600D01*
G02X2746630Y1733420I-8406J-5394D01*
G01X2738220Y1718010D01*
G02X2729450Y1712810I-8767J4790D01*
G01X2648780D01*
G02X2641720Y1715740I7J9989D01*
G37*
G36*
G01X1187000Y2667010D02*
Y2556990D01*
G02X1177010Y2547000I-9990J0D01*
G01X968990D01*
G02X959000Y2556990I0J9990D01*
G01Y2667010D01*
G02X968990Y2677000I9990J0D01*
G01X1177010D01*
G02X1187000Y2667010I0J-9990D01*
G37*
G36*
G01X2944860Y67070D02*
X3156700Y278910D01*
G02X3167590Y281080I7068J-7060D01*
G02X3173760Y271850I-3821J-9231D01*
G01Y84250D01*
G03X3174800Y74030I50656J-8D01*
G02X3172760Y65700I-9783J-2019D01*
G01X3162970Y53690D01*
G02X3155230Y50010I-7745J6310D01*
G01X2951920D01*
G02X2942690Y56180I1J9991D01*
G02X2944860Y67070I9230J3822D01*
G37*
G36*
G01X2848070Y2006230D02*
X2859730Y2016070D01*
G02X2867840Y2018290I6448J-7631D01*
G03X2874160Y2017760I6338J37627D01*
G01X3167960D01*
G03X3206110Y2055910I-5J38155D01*
G01Y2109670D01*
G03X3167960Y2147820I-38155J-5D01*
G01X2957720D01*
G02X2947730Y2157810I0J9990D01*
G01Y2277080D01*
G02X2950910Y2284390I9990J1D01*
G03X2946970Y2342810I-25700J27610D01*
G02X2942750Y2350510I5759J8163D01*
G01X2942020Y2366270D01*
G02X2945510Y2374330I9979J465D01*
G03X2936690Y2437300I-24511J28670D01*
G02X2931280Y2443500I4154J9085D01*
G01X2930080Y2447500D01*
G02X2931620Y2456340I9563J2888D01*
G02X2939640Y2460370I8018J-5961D01*
G01X2943690D01*
G02X2951720Y2456320I-2J-9990D01*
G03X3025510Y2433630I52277J38680D01*
G02X3035880Y2431270I3308J-9426D01*
G01X3276550Y2190600D01*
G02X3279480Y2183530I-7060J-7068D01*
G01Y1548500D01*
G02X3273310Y1539270I-9988J0D01*
G01Y1539260D01*
G02X3262420Y1541430I-3822J9232D01*
G01X3198850Y1605000D01*
G02X3195940Y1611550I7067J7061D01*
G01X3195260Y1624950D01*
G02X3197500Y1631780I9977J510D01*
G03X3206110Y1655910I-29543J24143D01*
G01Y1709670D01*
G03X3167960Y1747820I-38155J-5D01*
G01X2874200D01*
G03X2837500Y1720080I6J-38155D01*
G01Y1720070D01*
G02X2827890Y1712810I-9610J2731D01*
G01X2826550D01*
G02X2817780Y1718010I-3J9990D01*
G01X2810950Y1730520D01*
G02X2809730Y1735310I8771J4784D01*
G01Y1740860D01*
G02X2810980Y1745710I9992J11D01*
G03X2805680Y1789630I-32982J18300D01*
G02X2803020Y1796420I7330J6788D01*
G01Y1924870D01*
G02X2809190Y1934100I9988J0D01*
G01Y1934110D01*
G02X2820080Y1931940I3822J-9232D01*
G01X2833170Y1918850D01*
G02X2836090Y1911330I-7060J-7068D01*
G03X2836050Y1909670I38113J-1749D01*
G01Y1855910D01*
G03X2874200Y1817760I38155J5D01*
G01X3167960D01*
G03X3206110Y1855910I-5J38155D01*
G01Y1909670D01*
G03X3167960Y1947820I-38155J-5D01*
G01X2874200D01*
G03X2872540Y1947780I89J-38153D01*
G02X2865020Y1950700I-452J9980D01*
G01X2847450Y1968270D01*
G02X2844520Y1975340I7060J7068D01*
G01Y1998590D01*
G02X2848070Y2006230I9990J3D01*
G37*
%LPC*%
G75*
G36*
G01X2605480Y1237090D02*
X2650880Y1191690D01*
G02X2653810Y1184630I-7059J-7068D01*
G01Y1171820D01*
G03X2661070Y1162210I9991J1D01*
G01X2661080D01*
G02X2688820Y1125510I-10415J-36706D01*
G01Y831750D01*
G02X2650670Y793600I-38155J5D01*
G01X2596910D01*
G02X2558760Y831750I5J38155D01*
G01Y1125510D01*
G02X2579630Y1159520I38155J-5D01*
G01X2581040Y1160240D01*
X2582170Y1161370D01*
G03Y1175490I-7064J7060D01*
G01X2580610Y1177050D01*
G03X2573550Y1179980I-7067J-7059D01*
G01X2402990D01*
G03X2397550Y1178370I-2J-9990D01*
G02Y1241630I-20550J31630D01*
G03X2402990Y1240020I5438J8380D01*
G01X2598420D01*
G02X2605480Y1237090I-8J-9989D01*
G37*
G54D35*
X1952000Y1233000D03*
Y1103000D03*
G54D36*
X202000Y1574750D03*
G54D37*
X3720500Y900000D03*
X3822000Y1662000D03*
X3619000D03*
%LPD*%
G75*
G54D10*
X134000Y534000D03*
X149000Y3082000D03*
X3812000Y154000D03*
G54D11*
X612000Y271000D03*
Y144000D03*
X485000Y271000D03*
Y144000D03*
X358000Y271000D03*
Y144000D03*
X231000Y271000D03*
Y144000D03*
X104000Y271000D03*
Y144000D03*
X2750000Y2622000D03*
X2623000D03*
X2496000D03*
X2369000D03*
X2242000D03*
X2750000Y2495000D03*
X2623000D03*
X2496000D03*
X2369000D03*
X2242000D03*
X3385000Y2622000D03*
X3258000D03*
X3131000D03*
X3004000D03*
X2877000D03*
X3385000Y2495000D03*
X3258000D03*
X3131000D03*
X3004000D03*
X2877000D03*
G54D20*
X102920Y2094210D03*
X387920D03*
X102920Y2274210D03*
X387920D03*
G54D21*
X2823790Y978630D03*
X2623790D03*
X2423790D03*
X1706790Y979210D03*
X1506790D03*
X1306790D03*
X1106790D03*
X3023790Y978630D03*
G54D30*
X3021080Y2082790D03*
Y1882790D03*
Y1682790D03*
Y1482790D03*
G54D12*
G01X0Y3270000D02*
Y0D01*
X4000000D01*
Y2900000D01*
X1700000D01*
Y3270000D01*
X0D01*
X202000Y789750D03*
X422000D03*
X202000Y1574750D03*
X422000D03*
X3720500Y900000D03*
X3822000Y1662000D03*
X3619000D03*
G54D31*
G01X2482000Y706000D02*
X2441000Y747000D01*
X2377000D01*
X2299000Y825000D01*
Y1129650D01*
X2227200Y1201450D01*
Y1202800D01*
X2197000Y1233000D01*
X2172000D01*
G01X2636000Y2303000D02*
X2710000D01*
X2778000Y2235000D01*
Y1764000D01*
G01X2699000Y1542700D02*
Y1473000D01*
G01X2499000Y1562000D02*
Y1639000D01*
G01X2609000Y1473000D02*
X2516000D01*
X2509000Y1466000D01*
G01X2408000Y1467000D02*
Y1561000D01*
X2409000Y1562000D01*
G01X1627000Y1393000D02*
X1640000Y1406000D01*
Y1572000D01*
G01X1817000Y1393000D02*
X1819000Y1395000D01*
Y1572000D01*
G01X2704000Y1806000D02*
Y1844000D01*
X2604000Y1944000D01*
G01Y1318000D02*
X2790720D01*
X2859300Y1249420D01*
Y1196390D01*
G54D13*
X132000Y896500D03*
X492000D03*
X132000Y960000D03*
X492000D03*
X132000Y1023500D03*
X492000D03*
X132000Y1087000D03*
X492000D03*
X132000Y1150500D03*
X492000D03*
X132000Y1214000D03*
X492000D03*
X132000Y1277500D03*
X492000D03*
X132000Y1341000D03*
X492000D03*
X132000Y1404500D03*
X492000D03*
X132000Y1468000D03*
X492000D03*
G54D22*
X1365000Y2644500D03*
Y3064500D03*
G54D32*
G01X492000Y1214000D02*
X629000D01*
X689000Y1154000D01*
Y543000D01*
X760000Y472000D01*
X963870D01*
X1153370Y282500D01*
X1668500D01*
X1859500Y473500D01*
X2358170D01*
X2433000Y398670D01*
Y393220D01*
X2434500Y391720D01*
Y273490D01*
X2612990Y95000D01*
X2887900D01*
X3127510Y334610D01*
Y457180D01*
X3490020Y819690D01*
Y850750D01*
X3490010Y850760D01*
Y875600D01*
X3490000Y875610D01*
Y1116780D01*
X3435000Y1171780D01*
Y1819000D01*
X3465000Y1849000D01*
Y2542000D01*
X3385000Y2622000D01*
G01X492000Y1468000D02*
X612010D01*
G01X1025000Y1634000D02*
X1013000Y1622000D01*
Y1365000D01*
X1043000Y1335000D01*
X1248590D01*
X1306790Y1276800D01*
Y979210D01*
G01X2377000Y1831000D02*
X2200000D01*
X2011500Y2019500D01*
X1764500D01*
X1490500Y1745500D01*
X1190500D01*
X1079000Y1634000D01*
X1025000D01*
G01X3021080Y1682790D02*
X2632210D01*
X2484000Y1831000D01*
X2377000D01*
G01X2623790Y978630D02*
Y1176330D01*
X2590120Y1210000D01*
X2377000D01*
G54D23*
X1994000Y1571000D03*
Y1661000D03*
X1728000Y1572000D03*
Y1662000D03*
X2081000Y1570000D03*
Y1660000D03*
X2167000Y1570000D03*
Y1660000D03*
X1640000Y1572000D03*
Y1662000D03*
G54D14*
X866790Y229210D03*
X2183790Y228630D03*
X1946790Y229210D03*
X3263790Y228630D03*
G54D33*
G01X722000Y1214000D02*
X753000Y1245000D01*
X894000D01*
G01X725000Y1214000D02*
X722000D01*
G01X2084000Y1393000D02*
X2068000Y1377000D01*
Y942000D01*
X1837000Y711000D01*
X1735000D01*
X1524000Y500000D01*
G01X2242000Y2622000D02*
X1981700Y2361700D01*
X1807140D01*
X1772000Y2326560D01*
Y2326000D01*
X1742000Y2296000D01*
G01X1627000Y1393000D02*
X1817000D01*
G01X2084000D02*
X1817000D01*
G01X2081000Y1570000D02*
X2167000D01*
G01X2081000D02*
Y1396000D01*
X2084000Y1393000D01*
G01X1099300Y1407000D02*
X1113300Y1393000D01*
X1627000D01*
G01X2084000D02*
X3104000D01*
X3205000Y1292000D01*
G54D24*
X1908000Y1661000D03*
Y1571000D03*
X1819000Y1662000D03*
Y1572000D03*
X2358000Y1751000D03*
Y1661000D03*
X2262000D03*
Y1571000D03*
X1412710Y1662790D03*
Y1572790D03*
G54D15*
G01X335000Y3064500D02*
Y2644500D01*
G01D02*
Y2481800D01*
X392300Y2424500D01*
X625000D01*
G01D02*
Y2537200D01*
G01X1234200Y2424500D02*
X1237700Y2428000D01*
G01X1365000Y3064500D02*
Y2644500D01*
G01X1234200Y2424500D02*
X1243500D01*
X1365000Y2546000D01*
Y2644500D01*
G01X1075000Y2424500D02*
X1234200D01*
X946000Y550000D03*
X132000Y838800D03*
X321000Y441000D03*
X284000Y500000D03*
X250000Y927000D03*
X561000Y651000D03*
X861000Y659000D03*
X749000Y866300D03*
X699540Y149410D03*
X294000Y82000D03*
X171360Y79690D03*
X715000Y244000D03*
X984000Y828000D03*
X908000Y776000D03*
X947000Y887000D03*
X547000Y824000D03*
X609700Y1404500D03*
X255000Y1462000D03*
X250000Y1087000D03*
X606500Y1150500D03*
X606000Y1087000D03*
X964000Y1886000D03*
X250500Y1296500D03*
X616500Y1277500D03*
X254500Y1023500D03*
X816000Y2012000D03*
X477000Y2654000D03*
X803000Y1531000D03*
X650000Y1839000D03*
X803000D03*
X805000Y1685000D03*
X498000D03*
X78000Y1646000D03*
X278000Y1954000D03*
Y2415000D03*
X451000Y2498000D03*
X136000Y1648000D03*
Y1956000D03*
Y2417000D03*
X830000Y2235300D03*
X116000Y1537000D03*
X597000Y2612000D03*
X802000Y965000D03*
X815000Y1085000D03*
X885000Y1169000D03*
X625000Y2537200D03*
X823000Y2512000D03*
X946700Y2288000D03*
X839000Y2441000D03*
X764000Y2308000D03*
X249700Y1214000D03*
X252000Y1150500D03*
X613000Y1341000D03*
X903000Y937000D03*
X613500Y1023500D03*
X475000Y2078000D03*
X249490Y1365000D03*
X722000Y1214000D03*
X612010Y1468000D03*
X894000Y1245000D03*
X425000Y2878000D03*
X136000D03*
X1179000Y472000D03*
X2012000Y651000D03*
X1115000Y519000D03*
X2804000Y398000D03*
X1020000Y548000D03*
X2721000Y909000D03*
X2599000Y659000D03*
X1934000Y686000D03*
X1962000Y929000D03*
X2476000Y83000D03*
X2325000D03*
X1822000Y222000D03*
X1457000Y461000D03*
X1031000Y126000D03*
X2741000Y754000D03*
X2151000Y841000D03*
X2148000Y659000D03*
X1056000Y730000D03*
X1645000Y713000D03*
X1234000Y595000D03*
X1522000Y123000D03*
X1229000Y125000D03*
X2728000Y329000D03*
X2730010Y405000D03*
X2313000Y367000D03*
X2318000Y303000D03*
X1831780Y315000D03*
X2350000Y667000D03*
X1547010Y735000D03*
X1427500Y578500D03*
X1812000Y771000D03*
X1685000Y769200D03*
X1524000Y500000D03*
X2482000Y706000D03*
X1144000Y2131000D03*
X2033000Y2737000D03*
X1202000Y2164000D03*
X1606000Y1187000D03*
X1292000Y1496000D03*
X1507000Y2595000D03*
X1505000Y2682000D03*
X1015000Y2156000D03*
X1311000Y2395000D03*
X1025000Y1744000D03*
X1237000Y2336000D03*
X1934000Y2580000D03*
X1838000Y2579000D03*
X1768580Y2524000D03*
X1282000Y1862990D03*
X1432000Y1976000D03*
X1623000Y1960000D03*
X1514000Y2062000D03*
X2612000Y1556000D03*
X2278000Y1773000D03*
X2195000Y1016000D03*
X2244020Y2407320D03*
X2015000Y2543000D03*
X2169000Y1309000D03*
X2304000Y1308000D03*
X2446000Y1688000D03*
X2098000Y1773000D03*
X1957000Y1962000D03*
X1879000D03*
X2793000Y1470000D03*
X2692000Y1740000D03*
X2613000Y1801000D03*
X2801000Y1237000D03*
X1908000Y1500800D03*
X1295000Y1598000D03*
X2319000Y2348000D03*
X1923000Y2506000D03*
X2016000Y2282000D03*
X2712000Y1948000D03*
X2381000Y1922000D03*
X1795000Y1217000D03*
X1799000Y1003000D03*
X1198000Y986000D03*
X1205000Y1136000D03*
X2262000Y1500800D03*
X1832000Y2301700D03*
X1547000Y1567000D03*
X2192000Y1964000D03*
X1544700Y1687000D03*
X1728000Y1501800D03*
X1994000Y1500800D03*
X1547010Y1317000D03*
X1169000Y1247800D03*
X1231310Y1240730D03*
X2791000Y1546000D03*
X1155000Y2644000D03*
X1154000Y2581000D03*
X1077000D03*
Y2644000D03*
X2778000Y1764000D03*
X2636000Y2303000D03*
X1237700Y2428000D03*
X2699000Y1542700D03*
X2499000Y1639000D03*
X1903000Y1729000D03*
X1821000Y1732200D03*
X1728000D03*
X1071000Y1554000D03*
X1571000Y1457000D03*
X1018000Y1925000D03*
X1742000Y2296000D03*
X1099300Y1407000D03*
X2604000Y1944000D03*
X2704000Y1806000D03*
X2604000Y1318000D03*
X1996000Y1731200D03*
X2035000Y1914000D03*
X1638000Y1732200D03*
X1317070Y1674460D03*
X2377000Y1831000D03*
Y1210000D03*
X1025000Y1634000D03*
X2094000Y2756000D03*
X1590000Y3064000D03*
X1506000Y3163000D03*
X1432000Y2877000D03*
X2679000Y2823000D03*
X2170000D03*
X2829000Y220000D03*
X2876000Y578000D03*
X3652000Y763000D03*
X3662000Y462000D03*
X3298000Y474000D03*
X3148000Y773000D03*
X2891000Y383000D03*
X3124000Y101000D03*
X3600000Y205000D03*
X3602000Y91000D03*
X3268000Y853000D03*
X2925210Y2312000D03*
X2921000Y2403000D03*
X3030000Y2320000D03*
X3906000Y2476000D03*
X3670000Y2480000D03*
Y2155000D03*
X3672000Y1832000D03*
X3864000Y1791000D03*
X3852000Y2168000D03*
X3593000Y1573000D03*
X3908000Y1388000D03*
X3575000Y1035000D03*
X3285000Y1031800D03*
X3126000D03*
X3218000Y1033000D03*
X3023300Y2172800D03*
X3522000Y1696000D03*
X3903000Y1003000D03*
X3902000Y1531000D03*
X3569000Y1339000D03*
X2828000Y2379000D03*
X3609200Y1940000D03*
X3209000Y1404000D03*
X2906500Y2743500D03*
X3205000Y1292000D03*
X2859300Y1196390D03*
X3668000Y2774000D03*
X3341000Y2821000D03*
X3128000Y2822000D03*
X3887000Y2785000D03*
G54D34*
G01X3385000Y2495000D02*
X3392000Y2488000D01*
Y1161710D01*
X3417360Y1136350D01*
X3417370D01*
X3434930Y1118790D01*
X3434940D01*
X3452500Y1101230D01*
Y860070D01*
X3452510Y860060D01*
Y835220D01*
X3090010Y472720D01*
Y350150D01*
X2877860Y138000D01*
X2623030D01*
X2472000Y289030D01*
Y407260D01*
X2470500Y408760D01*
Y414210D01*
X2373710Y511000D01*
X1842000D01*
X1651000Y320000D01*
X1176000D01*
X946000Y550000D01*
G01X1506790Y979210D02*
Y859210D01*
X1352580Y705000D01*
X1134570D01*
X1028570Y599000D01*
X995000D01*
X946000Y550000D01*
G01X132000Y896500D02*
Y838800D01*
G01X321000Y441000D02*
X337780Y457780D01*
Y529790D01*
X303000Y564570D01*
Y863430D01*
X328000Y888430D01*
Y1021820D01*
X262820Y1087000D01*
X250000D01*
G01X284000Y500000D02*
Y503000D01*
X271000Y516000D01*
Y880820D01*
X297500Y907320D01*
Y980500D01*
X254500Y1023500D01*
G01X687590Y144000D02*
X693000Y149410D01*
X699540D01*
G01X2750000Y2495000D02*
X2677500Y2422500D01*
X2638070D01*
X2303570Y2088000D01*
X1616010D01*
X1341010Y1813000D01*
X1138000D01*
X1103500Y1847500D01*
X1001320D01*
X944000Y1790180D01*
Y1304610D01*
X971500Y1277110D01*
Y911500D01*
X947000Y887000D01*
G01X908000Y776000D02*
X934000Y802000D01*
Y874000D01*
X947000Y887000D01*
G01X333000Y691000D02*
Y851000D01*
X374000Y892000D01*
Y1323200D01*
X391800Y1341000D01*
X492000D01*
G01X358000Y271000D02*
Y279000D01*
X369000Y290000D01*
Y541000D01*
X333000Y577000D01*
Y691000D01*
G01X547000Y824000D02*
Y805000D01*
X433000Y691000D01*
X333000D01*
G01X613500Y1023500D02*
X648000Y989000D01*
Y521500D01*
X737780Y431720D01*
X740720D01*
G01D02*
X949290D01*
X1136010Y245000D01*
X1688000D01*
X1879000Y436000D01*
X2337180D01*
X2397000Y376180D01*
Y289030D01*
X2396990Y289020D01*
Y257960D01*
X2597450Y57500D01*
X2903440D01*
X3165020Y319080D01*
Y441650D01*
X3527530Y804160D01*
Y835220D01*
X3527520Y835230D01*
Y866290D01*
X3527510Y866300D01*
Y891150D01*
X3527500Y891160D01*
Y1132320D01*
X3473000Y1186820D01*
Y1799990D01*
X3508000Y1834990D01*
Y2610000D01*
X3423500Y2694500D01*
X3037500D01*
X2988500Y2743500D01*
X2906500D01*
G01X740720Y431720D02*
X656000Y347000D01*
X561000D01*
X485000Y271000D01*
G01X2877000Y2622000D02*
X2774000Y2725000D01*
X2191430D01*
X2125430Y2659000D01*
X1767290D01*
X1665000Y2556710D01*
Y2464010D01*
X1240020Y2039030D01*
X1239460D01*
X1238710Y2038280D01*
X960420D01*
X854000Y1931860D01*
Y1448540D01*
X809960Y1404500D01*
X609700D01*
G01X492000D02*
X609700D01*
G01X132000D02*
X197500D01*
X255000Y1462000D01*
G01D02*
X347000Y1554000D01*
Y1657000D01*
X758280Y2068280D01*
X1226280D01*
X1635000Y2477000D01*
Y2569140D01*
X1754860Y2689000D01*
X2113000D01*
X2179000Y2755000D01*
X2792000D01*
X2852500Y2694500D01*
X2931500D01*
X3004000Y2622000D01*
G01X132000Y1087000D02*
X250000D01*
G01X492000Y1150500D02*
X606500D01*
G01X492000Y1087000D02*
X606000D01*
G01X250500Y1296500D02*
X231500Y1277500D01*
X132000D01*
G01X616500D02*
X492000D01*
G01X616500D02*
X664500D01*
X753000Y1366000D01*
X813890D01*
X884000Y1436110D01*
Y1915610D01*
X976670Y2008280D01*
X1252140D01*
X1695000Y2451140D01*
Y2543180D01*
X1780820Y2629000D01*
X2137860D01*
X2203360Y2694500D01*
X2296500D01*
X2369000Y2622000D01*
G01X132000Y1023500D02*
X254500D01*
G01X132000Y960000D02*
X217000D01*
X250000Y927000D01*
G01X132000Y1468000D02*
Y1521000D01*
X116000Y1537000D01*
G01X720000Y2612000D02*
X597000D01*
G01X889000Y2388000D02*
Y2457510D01*
X980000Y2548510D01*
G01X889000Y2338000D02*
X903000D01*
X989500Y2424500D01*
X1075000D01*
G01X823000Y2512000D02*
X824000D01*
X839000Y2527000D01*
Y2602000D01*
X849000Y2612000D01*
X850000D01*
G01X889000Y2288000D02*
X946700D01*
G01X839000Y2441000D02*
Y2420000D01*
X830000Y2411000D01*
Y2388000D01*
G01X839000Y2441000D02*
Y2453300D01*
X915000Y2529300D01*
Y2612000D01*
G01X785000D02*
X774380Y2601380D01*
Y2339000D01*
G01D02*
Y2318380D01*
X764000Y2308000D01*
G01X830000Y2338000D02*
X775380D01*
X774380Y2339000D01*
G01X132000Y1214000D02*
X249700D01*
G01X252000Y1150500D02*
X132000D01*
G01X2369000Y2495000D02*
Y2307000D01*
X2242000Y2180000D01*
X1468430D01*
X1266710Y1978280D01*
X989100D01*
X914000Y1903180D01*
Y1340430D01*
X913990Y1340420D01*
Y1292190D01*
X941500Y1264680D01*
Y975500D01*
X903000Y937000D01*
G01X613000Y1341000D02*
X492000D01*
G01Y1023500D02*
X613500D01*
G01X475000Y2078000D02*
X404130D01*
X387920Y2094210D01*
G01D02*
Y2091710D01*
X328210Y2032000D01*
X162630D01*
X102920Y2091710D01*
Y2094210D01*
G01X249490Y1365000D02*
X249000D01*
X225000Y1341000D01*
X132000D01*
G01X3144070Y654070D02*
X3134460Y644460D01*
X3134450D01*
X3000000Y510010D01*
Y388000D01*
X2880000Y268000D01*
X2620320D01*
X2562000Y326320D01*
Y444550D01*
X2560520Y446030D01*
Y451490D01*
X2411010Y601000D01*
X2062000D01*
X2012000Y651000D01*
G01D02*
X1962000Y601000D01*
X1804710D01*
X1613710Y410000D01*
X1222200D01*
X1179000Y453200D01*
Y472000D01*
G01X2829000Y220000D02*
X2625890D01*
X2532000Y313890D01*
Y432120D01*
X2530520Y433600D01*
Y439060D01*
X2398580Y571000D01*
X1817140D01*
X1626140Y380000D01*
X1200860D01*
X1115000Y465860D01*
Y519000D01*
G01X3258000Y2495000D02*
X3362000Y2391000D01*
Y1149280D01*
X3404930Y1106350D01*
X3404940D01*
X3422500Y1088790D01*
Y847640D01*
X3060010Y485150D01*
Y362580D01*
X2865430Y168000D01*
X2635460D01*
X2502000Y301460D01*
Y419690D01*
X2500510Y421180D01*
Y426640D01*
X2386150Y541000D01*
X1829570D01*
X1638570Y350000D01*
X1188430D01*
X1020000Y518430D01*
Y548000D01*
G01X1706790Y979210D02*
Y859210D01*
X1633570Y785990D01*
X1476990D01*
X1366000Y675000D01*
X1147000D01*
X1020000Y548000D01*
G01X2877000Y2495000D02*
X2808500Y2426500D01*
X2808320D01*
X2780500Y2398680D01*
Y2398500D01*
X2774500Y2392500D01*
X2650500D01*
X2315000Y2057000D01*
X1630000D01*
X1356000Y1783000D01*
X1125570D01*
X1092570Y1816000D01*
X1013000D01*
X975000Y1778000D01*
Y1316040D01*
X1001500Y1289540D01*
Y845500D01*
X984000Y828000D01*
G01X1547010Y735000D02*
X1515040Y703030D01*
Y666040D01*
X1427500Y578500D01*
G01X1812000Y771000D02*
X1732000D01*
X1730200Y769200D01*
X1685000D01*
G01X2033000Y2737000D02*
X2017430D01*
X2000430Y2720000D01*
X1743430D01*
X1604990Y2581560D01*
Y2498850D01*
X1604010Y2497870D01*
Y2490000D01*
X1213040Y2099030D01*
X1175970D01*
X1144000Y2131000D01*
G01X2094000Y2756000D02*
X2062030Y2787970D01*
X2016790D01*
X1978820Y2750000D01*
X1731000D01*
X1574000Y2593000D01*
Y2504000D01*
X1234000Y2164000D01*
X1202000D01*
G01X2623000Y2495000D02*
Y2461000D01*
X2282000Y2120000D01*
X1495000D01*
X1290000Y1915000D01*
X1103000D01*
X1065500Y1877500D01*
X998320D01*
X989820Y1886000D01*
X964000D01*
G01X980000Y2548510D02*
Y2612000D01*
G01X1903000Y1729000D02*
Y1666000D01*
X1908000Y1661000D01*
G01X1821000Y1732200D02*
Y1664000D01*
X1819000Y1662000D01*
G01X1728000D02*
Y1732200D01*
G01X1729000Y1663000D02*
X1728000Y1662000D01*
G01X1726000Y1664000D02*
X1728000Y1662000D01*
G01X1571000Y1457000D02*
X1563000D01*
X1541500Y1435500D01*
X1144300D01*
X1071000Y1508800D01*
Y1554000D01*
G01X2496000Y2495000D02*
Y2384990D01*
X2261010Y2150000D01*
X1482560D01*
X1277560Y1945000D01*
X1083200D01*
X1063200Y1925000D01*
X1018000D01*
G01X3268000Y853000D02*
X3332500Y917500D01*
Y1051480D01*
X3272000Y1111980D01*
Y1500000D01*
X3177000Y1595000D01*
X2653000D01*
X2497000Y1751000D01*
X2358000D01*
G01X1994000Y1661000D02*
Y1719000D01*
X1996000Y1721000D01*
Y1731200D01*
G01X2081000Y1660000D02*
X1995000D01*
X1994000Y1661000D01*
G01X2358000D02*
X2262000D01*
G01X2167000Y1660000D02*
X2261000D01*
X2262000Y1661000D01*
G01X2035000Y1914000D02*
X2061700D01*
X2262000Y1713700D01*
Y1661000D01*
G01X1638000Y1732200D02*
Y1664000D01*
G01D02*
X1640000Y1662000D01*
G01X1637000Y1665000D02*
X1638000Y1664000D01*
G01X1317070Y1674460D02*
X1401040D01*
X1412710Y1662790D01*
G01X3144070Y654070D02*
X3362500Y872500D01*
Y1063910D01*
X3302000Y1124410D01*
Y2197000D01*
X3004000Y2495000D01*
G01X3023790Y978630D02*
Y764720D01*
X3134450Y654060D01*
X3134460Y654070D01*
X3144070D01*
G01X3131000Y2495000D02*
X3332000Y2294000D01*
Y1136850D01*
X3392500Y1076350D01*
Y860070D01*
X3030000Y497570D01*
Y375000D01*
X2875000Y220000D01*
X2829000D01*
G01X2823790Y978630D02*
Y418790D01*
X2804000Y399000D01*
Y398000D01*
G01X3021080Y2082790D02*
X2940210D01*
X2925210Y2097790D01*
Y2312000D01*
G01X3021080Y1882790D02*
X2901080D01*
X2822000Y1961870D01*
Y2125000D01*
X2876020Y2179020D01*
Y2358020D01*
X2921000Y2403000D01*
G01X3385000Y2495000D02*
Y2493000D01*
G54D16*
X335000Y2644500D03*
Y3064500D03*
G54D25*
X2699000Y1473000D03*
X2609000D03*
X2499000Y1562000D03*
X2409000D03*
G54D17*
X625000Y2424500D03*
X1075000D03*
G54D26*
X2408000Y1467000D03*
Y1317000D03*
X2509000Y1466000D03*
Y1316000D03*
G54D27*
X2172000Y1233000D03*
Y1168000D03*
Y1103000D03*
X1952000D03*
Y1233000D03*
G54D18*
X720000Y2612000D03*
X785000D03*
X850000D03*
X915000D03*
X980000D03*
G54D28*
X3846000Y513000D03*
G54D19*
X889000Y2288000D03*
Y2338000D03*
Y2388000D03*
X830000Y2288000D03*
Y2338000D03*
Y2388000D03*
G54D29*
X3771080Y2322790D03*
Y1242790D03*
M02*
